<svg xmlns="http://www.w3.org/2000/svg" xmlns:xlink="http://www.w3.org/1999/xlink" width="1366.005" height="874.098" viewBox="0 0 1366.005 874.098"><defs><clipPath id="a"><path d="M672.075,914.842c67.261-23.975,73.191-25.682,148.834,0l284.537,111.479v743.991h-1366v-498.9Z" transform="translate(1105.441 1770.313) rotate(180)" fill="none"/></clipPath><linearGradient id="b" x1="0.488" y1="0.157" x2="0.516" y2="0.952" gradientUnits="objectBoundingBox"><stop offset="0" stop-color="#e4b940"/><stop offset="0.31" stop-color="#e1b73f"/><stop offset="0.5" stop-color="#d9af3a"/><stop offset="0.67" stop-color="#caa233"/><stop offset="0.81" stop-color="#b59029"/><stop offset="0.95" stop-color="#9a791c"/><stop offset="1" stop-color="#8e6f16"/></linearGradient><linearGradient id="c" x1="0.094" y1="0.346" x2="0.901" y2="0.652" xlink:href="#b"/><linearGradient id="d" x1="-0.197" y1="0.254" x2="1.197" y2="0.746" xlink:href="#b"/></defs><g transform="translate(0.005)" clip-path="url(#a)"><g transform="translate(619.17 -2.909)" opacity="0.202"><path d="M143.436,208.033a1.262,1.262,0,0,0-.077-.435c-.263-2.04-1.159-8.309-2.22-9.526-3.605-4.109-11.325-6.728-11.983-7.054a6.4,6.4,0,0,1-1.6-2.587,12.3,12.3,0,0,0,2.82-4.693c1.058-.669,1.724-3.133,1.724-4.73,0-1.112-.313-1.56-.849-1.724.125-2.268.459-4.648-.371-6.309-1.565-3.141-5.911-5.08-8.874-5.08a9.608,9.608,0,0,0-8.041,4.592c-.976,1.8-.478,4.2-.358,6.624-.6.172-.95.6-.95,1.767,0,1.727.777,4.473,1.987,4.86a13.008,13.008,0,0,0,2.725,4.494,6.6,6.6,0,0,1-1.69,2.786c-.647.326-8.359,2.945-11.972,7.054-1.061,1.218-1.955,7.486-2.212,9.526a1.024,1.024,0,0,0-.09.435c0,.037.011.074.011.114-.005.069-.011.106-.011.106h.027c.5,2.656,9.7,4.762,20.995,4.762s20.485-2.106,20.989-4.762h.019s0-.037-.005-.106C143.431,208.107,143.436,208.07,143.436,208.033Zm-26.921-10.29-.284-5.454,1.6-2.592,3.762,3.035-.072.016L120.367,194l1.085,2.252-.692,3.494-2.093-4.083Zm11.906-.074-2.021-2.175-1.833,4.282-.8-3.4,1.072-2.486-1.133-1.321L127,189.606l1.61,2.563Z" transform="translate(-7.812 135.75)" fill="#fff"/><g transform="translate(422.746 173.932)"><path d="M153.777,175.461a8.388,8.388,0,0,0,1.952-3.226c.739-.456,1.2-2.161,1.2-3.268,0-.76-.233-1.073-.6-1.2.09-1.552.315-3.2-.254-4.338-1.091-2.164-4.076-3.506-6.115-3.506a6.617,6.617,0,0,0-5.546,3.173c-.673,1.247-.331,2.895-.246,4.568-.413.1-.662.408-.662,1.21,0,1.2.543,3.083,1.38,3.35a9.026,9.026,0,0,0,1.883,3.1,4.684,4.684,0,0,1-1.165,1.91c-.456.236-5.773,2.05-8.273,4.886-.72.829-1.34,5.143-1.523,6.568a.718.718,0,0,0-.053.278v.167h.013c.326,1.724,5.609,3.114,12.821,3.263-.024.042.026-.2.026-.2.445-2.6,1.078-5.371,1.782-6.179.016-.013.172-.167.267-.281h0c2.529-2.7,6.655-4.8,9.455-6.009a39.006,39.006,0,0,0-5.228-2.5A4.126,4.126,0,0,1,153.777,175.461Zm-4.155,2.974-.784.877.734,1.541-.479,2.415-1.438-2.813-1.483,1.427-.2-3.763,1.1-1.785,2.593,2.092Zm4.757,3.4-1.39-1.491-1.263,2.926-.569-2.315.765-1.721-.792-.924,2.267-2.045,1.1,1.78Z" transform="translate(-135.755 -154.719)" fill="#fff"/><path d="M176.884,188.968a.579.579,0,0,0-.079-.278c-.175-1.425-.789-5.739-1.51-6.568-2.5-2.836-7.823-4.651-8.273-4.886a4.369,4.369,0,0,1-1.112-1.774,8.426,8.426,0,0,0,1.954-3.226c.731-.456,1.194-2.161,1.194-3.268,0-.76-.215-1.073-.58-1.2.071-1.552.3-3.2-.262-4.338-1.083-2.164-4.076-3.506-6.126-3.506a6.592,6.592,0,0,0-5.532,3.173c-.675,1.247-.334,2.895-.249,4.568-.426.1-.665.408-.665,1.21,0,1.2.54,3.083,1.382,3.35a8.891,8.891,0,0,0,1.875,3.1,4.517,4.517,0,0,1-1.168,1.91,37.177,37.177,0,0,0-5.434,2.609c2.895,1.271,7.132,3.411,9.577,6.179.7.808,1.319,3.777,1.751,6.375,7.209-.148,12.905-1.539,13.237-3.263h.021a.292.292,0,0,1-.021-.082A.333.333,0,0,0,176.884,188.968Zm-15.12-10.533-.784.877.728,1.541-.5,2.391-1.43-2.789-1.47,1.427-.214-3.763,1.118-1.785,2.593,2.092Zm4.741,3.4-1.382-1.491-1.258,2.94-.564-2.328.749-1.721-.779-.924,2.259-2.045,1.112,1.78Z" transform="translate(-108.484 -154.719)" fill="#fff"/><path d="M182.681,200.019a1.607,1.607,0,0,0-.079-.41c-.275-2.06-1.168-8.321-2.227-9.531-3.6-4.086-11.311-6.714-11.96-7.034a6.529,6.529,0,0,1-1.608-2.587,12.087,12.087,0,0,0,2.823-4.68c1.065-.662,1.724-3.128,1.724-4.743,0-1.1-.313-1.541-.855-1.713.13-2.246.45-4.635-.36-6.287-1.568-3.141-5.911-5.074-8.856-5.074a9.659,9.659,0,0,0-8.046,4.584c-.975,1.811-.463,4.192-.347,6.621-.6.164-.961.585-.961,1.764,0,1.721.779,4.452,1.994,4.849a13.13,13.13,0,0,0,2.736,4.481,6.874,6.874,0,0,1-1.687,2.786c-.665.32-8.366,2.948-11.965,7.034-1.057,1.21-1.952,7.471-2.227,9.531a1.486,1.486,0,0,0-.071.41c0,.048.008.085.008.111a.573.573,0,0,1-.008.119h.021c.5,2.64,9.688,4.751,20.967,4.751,11.258,0,20.456-2.111,20.959-4.751h.027a.412.412,0,0,1-.027-.119A.285.285,0,0,0,182.681,200.019Zm-26.892-10.273-.289-5.44,1.608-2.585,3.742,3.027-.064.011-1.144,1.263,1.078,2.254-.694,3.483-2.095-4.081Zm11.881-.071-2-2.148-1.835,4.264-.805-3.379,1.086-2.5-1.123-1.34,3.271-2.95,1.6,2.582Z" transform="translate(-127.592 -157.958)" fill="#fff"/></g><g transform="translate(232.076 238.645)"><path d="M78.009,193.91a8.607,8.607,0,0,0,1.951-3.236c.717-.463,1.192-2.15,1.192-3.271,0-.756-.225-1.071-.6-1.2.1-1.539.328-3.183-.251-4.307-1.092-2.176-4.067-3.509-6.105-3.509a6.643,6.643,0,0,0-5.531,3.157c-.677,1.253-.333,2.885-.251,4.566-.41.106-.658.407-.658,1.214,0,1.2.539,3.075,1.38,3.347a9.369,9.369,0,0,0,1.859,3.094,4.584,4.584,0,0,1-1.155,1.917c-.442.222-5.756,2.023-8.247,4.865-.724.825-1.338,5.135-1.528,6.555a.847.847,0,0,0-.05.286v.159h.013c.333,1.734,5.6,3.131,12.8,3.257a1.669,1.669,0,0,1,.026-.193c.452-2.594,1.074-5.362,1.774-6.142a2.9,2.9,0,0,1,.28-.3h0c2.53-2.694,6.639-4.794,9.434-6.015a34.434,34.434,0,0,0-5.222-2.47A4.63,4.63,0,0,1,78.009,193.91Zm-4.149,2.948-.8.875.746,1.565-.484,2.385-1.441-2.805-1.473,1.438-.2-3.773,1.105-1.774,2.586,2.089Zm4.736,3.4-1.375-1.483-1.267,2.906-.568-2.308.764-1.708-.777-.939,2.253-2.023,1.113,1.785Z" transform="translate(-60.011 -173.185)" fill="#fff"/><path d="M106.869,218.428a1.307,1.307,0,0,0-.085-.42c-.267-2.06-1.148-8.308-2.218-9.508-3.6-4.088-11.288-6.708-11.941-7.036a6.459,6.459,0,0,1-1.6-2.57,12.266,12.266,0,0,0,2.819-4.683c1.06-.65,1.732-3.128,1.732-4.717,0-1.1-.32-1.542-.859-1.737.119-2.232.444-4.617-.365-6.259-1.579-3.131-5.894-5.077-8.845-5.077A9.568,9.568,0,0,0,77.485,181c-.978,1.814-.476,4.186-.354,6.6-.6.159-.957.6-.957,1.777,0,1.721.777,4.445,1.991,4.836a12.924,12.924,0,0,0,2.723,4.474,6.773,6.773,0,0,1-1.682,2.779c-.658.328-8.355,2.948-11.946,7.036-1.058,1.2-1.951,7.448-2.213,9.508a1.466,1.466,0,0,0-.085.42.992.992,0,0,0,.021.114.941.941,0,0,1-.021.119h.026c.51,2.618,9.672,4.725,20.933,4.725,11.243,0,20.431-2.107,20.92-4.725h.026s-.008-.05-.021-.119A.457.457,0,0,0,106.869,218.428ZM80.034,208.171l-.3-5.444,1.6-2.567,3.749,3.025h-.066l-1.148,1.253L84.95,206.7l-.7,3.488-2.086-4.077Zm11.848-.077-2-2.155-1.819,4.268-.814-3.4,1.081-2.478L87.208,203l3.281-2.964,1.584,2.586Z" transform="translate(-51.869 -176.421)" fill="#fff"/></g><g transform="translate(34.65 229.644)"><path d="M103.53,310.112,249.3,254.024l195.334-75.139,1.408,2.2L250.42,256.429l-146.833,56.31Z" transform="translate(-22.574 -177.099)" fill="#fff"/><g transform="translate(76.769 130.465)"><path d="M76.692,202.988a3.94,3.94,0,1,1-3.933-3.94A3.917,3.917,0,0,1,76.692,202.988Z" transform="translate(-68.436 -198.644)" fill="#fff"/><path d="M68.7,203.273a4.326,4.326,0,0,1,4.324-4.344h0a4.331,4.331,0,0,1,4.327,4.344h0a4.326,4.326,0,0,1-4.327,4.32h0a4.321,4.321,0,0,1-4.324-4.32Zm.778,0a3.55,3.55,0,0,0,3.546,3.532h0a3.527,3.527,0,0,0,3.522-3.532h0a3.532,3.532,0,0,0-3.522-3.552h0a3.554,3.554,0,0,0-3.546,3.552Z" transform="translate(-68.702 -198.929)" fill="#fff"/><g transform="translate(-431.813 -252.88) rotate(-22)"><g transform="translate(413.022 392.89)"><path d="M419.063,413.037h0a2,2,0,0,1,0-2.821l5.056-5.056a2.693,2.693,0,0,0,0-3.808l-5.057-5.057a1.994,1.994,0,0,1,0-2.82h0a2,2,0,0,1,2.821,0l8.565,8.565a1.722,1.722,0,0,1,0,2.434l-8.565,8.565A2,2,0,0,1,419.063,413.037Z" transform="translate(-418.479 -392.89)" fill="#fff"/></g><g transform="translate(406.036 396.856)"><path d="M406.62,412.168h0a2,2,0,0,1,0-2.821l1.628-1.627a1.934,1.934,0,0,0,0-2.734l-1.628-1.627a2,2,0,0,1,0-2.821h0a1.993,1.993,0,0,1,2.821,0l4.6,4.6a1.721,1.721,0,0,1,0,2.434l-4.6,4.6A2,2,0,0,1,406.62,412.168Z" transform="translate(-406.036 -399.954)" fill="#fff"/></g></g><g transform="translate(-336.813 -289.88) rotate(-22)"><g transform="translate(413.022 392.89)"><path d="M419.063,413.037h0a2,2,0,0,1,0-2.821l5.056-5.056a2.693,2.693,0,0,0,0-3.808l-5.057-5.057a1.994,1.994,0,0,1,0-2.82h0a2,2,0,0,1,2.821,0l8.565,8.565a1.722,1.722,0,0,1,0,2.434l-8.565,8.565A2,2,0,0,1,419.063,413.037Z" transform="translate(-418.479 -392.89)" fill="#fff"/></g><g transform="translate(406.036 396.856)"><path d="M406.62,412.168h0a2,2,0,0,1,0-2.821l1.628-1.627a1.934,1.934,0,0,0,0-2.734l-1.628-1.627a2,2,0,0,1,0-2.821h0a1.993,1.993,0,0,1,2.821,0l4.6,4.6a1.721,1.721,0,0,1,0,2.434l-4.6,4.6A2,2,0,0,1,406.62,412.168Z" transform="translate(-406.036 -399.954)" fill="#fff"/></g></g><g transform="translate(-225.812 -331.88) rotate(-22)"><g transform="translate(413.022 392.89)"><path d="M419.063,413.037h0a2,2,0,0,1,0-2.821l5.056-5.056a2.693,2.693,0,0,0,0-3.808l-5.057-5.057a1.994,1.994,0,0,1,0-2.82h0a2,2,0,0,1,2.821,0l8.565,8.565a1.722,1.722,0,0,1,0,2.434l-8.565,8.565A2,2,0,0,1,419.063,413.037Z" transform="translate(-418.479 -392.89)" fill="#fff"/></g><g transform="translate(406.036 396.856)"><path d="M406.62,412.168h0a2,2,0,0,1,0-2.821l1.628-1.627a1.934,1.934,0,0,0,0-2.734l-1.628-1.627a2,2,0,0,1,0-2.821h0a1.993,1.993,0,0,1,2.821,0l4.6,4.6a1.721,1.721,0,0,1,0,2.434l-4.6,4.6A2,2,0,0,1,406.62,412.168Z" transform="translate(-406.036 -399.954)" fill="#fff"/></g></g></g><g transform="translate(224.945 72.79)"><path d="M117.38,192.47a3.938,3.938,0,1,1-3.936-3.926A3.933,3.933,0,0,1,117.38,192.47Z" transform="translate(-109.103 -188.14)" fill="#fff"/><path d="M109.386,192.755a4.344,4.344,0,0,1,4.341-4.33h0a4.338,4.338,0,0,1,4.33,4.33h0a4.351,4.351,0,0,1-4.33,4.344h0a4.358,4.358,0,0,1-4.341-4.344Zm.788,0a3.537,3.537,0,0,0,3.553,3.539h0a3.534,3.534,0,0,0,3.536-3.539h0a3.523,3.523,0,0,0-3.536-3.519h0a3.527,3.527,0,0,0-3.553,3.519Z" transform="translate(-109.386 -188.425)" fill="#fff"/></g><g transform="translate(417.254 -2)"><path d="M153.974,183.132a3.936,3.936,0,1,1-3.936-3.953A3.94,3.94,0,0,1,153.974,183.132Z" transform="translate(-145.714 -178.792)" fill="#fff"/><path d="M145.987,183.406a4.332,4.332,0,0,1,4.324-4.341h0a4.331,4.331,0,0,1,4.32,4.341h0a4.33,4.33,0,0,1-4.32,4.327h0a4.331,4.331,0,0,1-4.324-4.327Zm.788,0a3.514,3.514,0,0,0,3.536,3.519h0a3.514,3.514,0,0,0,3.532-3.519h0a3.532,3.532,0,0,0-3.532-3.542h0a3.532,3.532,0,0,0-3.536,3.542Z" transform="translate(-145.987 -179.065)" fill="#fff"/></g></g><g transform="matrix(0.951, 0.309, -0.309, 0.951, -97.474, 227.268)"><path d="M425.321,13.17l-7.042.711,1.8,1.974L406.168,27.814l-7.309-3.463L383.712,36.917v4.5l15.774-13.086,7.379,3.5,15.407-13.572,1.912,2.1Z" transform="translate(0 5.251)" fill="#fff" opacity="0.4"/><path d="M416.745,8.449l-5.592.564,1.43,1.568-11.042,9.493-5.8-2.749L383.713,27.3v3.575l12.521-10.388,5.858,2.775,12.232-10.774,1.518,1.667Z" transform="translate(0.001 0)" fill="#fff"/></g><g transform="translate(315.081 166.188)"><path d="M51.271,10.946l-.576-.709-8.778,8.777.385.564a12.358,12.358,0,0,1,0,13.892l-.385.564,8.777,8.777.576-.709a24.713,24.713,0,0,0,0-31.156Z" transform="translate(-7.371 -1.801)" fill="#fff"/><path d="M31.653,40.576A12.355,12.355,0,0,1,12.571,32.67L12.444,32H.023l.093.909A24.719,24.719,0,0,0,40.284,49.545l.709-.576-8.777-8.778Z" transform="translate(0 -5.63)" fill="#fff"/><path d="M24.707,3.3A21.486,21.486,0,0,1,35.95,6.486l-4.233,4.233A15.658,15.658,0,0,0,9.855,19.777h-6A21.354,21.354,0,0,1,24.707,3.3m0-3.3A24.642,24.642,0,0,0,.116,22.165l-.093.909H12.444l.127-.67A12.355,12.355,0,0,1,31.653,14.5l.564.385L40.993,6.1l-.709-.576A24.779,24.779,0,0,0,24.707,0Z" transform="translate(-2 -5)" fill="#fff"/></g></g><g transform="translate(585.308 0.551)"><g transform="translate(511.377 417.89)"><g transform="translate(9.526)"><path d="M481.6,302.6H372.292l-11.7-18.708H463.958Z" transform="translate(-360.589 -283.89)" fill="#d3a72d"/><rect width="109.308" height="269.838" transform="translate(11.703 18.708)" fill="#e4b940"/><path d="M360.589,283.89l11.7,18.708V572.435l-11.7-17.544Z" transform="translate(-360.589 -283.89)" fill="#ba962f"/><rect width="109" height="32" transform="translate(11.789 65.56)" fill="#fff" opacity="0.3"/><path d="M0-19,12,0V32L0,13Z" transform="translate(-0.211 65.56)" fill="#fff" opacity="0.3"/><g transform="translate(33.859 70.56)"><g transform="translate(0 16.141)"><path d="M48.438,375.653l-2.723,3.5,3.143-.393.786,2.75,2.75-3.536.013-.016a12.044,12.044,0,0,0-1.78-1.48A12.155,12.155,0,0,0,48.438,375.653Z" transform="translate(-45.715 -375.653)" fill="#ef2648"/><path d="M314.541,375.653a12.18,12.18,0,0,0-2.187.825,12.02,12.02,0,0,0-1.78,1.48l2.762,3.553.786-2.75,3.143.393Z" transform="translate(-299.193 -375.653)" fill="#ef2648"/></g><path d="M68.415,9.821c0-1.646,1.026-3.583.257-4.911-.793-1.371-3.01-1.441-4.382-2.235C62.961,1.906,61.811,0,60.165,0s-2.8,1.906-4.125,2.675c-1.371.794-3.588.864-4.382,2.235-.769,1.329.257,3.266.257,4.912s-1.026,3.583-.257,4.911c.793,1.371,3.01,1.441,4.382,2.235,1.329.77,2.479,2.676,4.125,2.676s2.8-1.906,4.125-2.675c1.371-.794,3.588-.864,4.382-2.235C69.441,13.4,68.415,11.468,68.415,9.821Z" transform="translate(-51.13)" fill="#ffa511"/><circle cx="6.679" cy="6.679" r="6.679" transform="translate(2.357 3.143)" fill="#ffdc13"/><path d="M164.331,128.955h-2.692l-.832-2.56a.393.393,0,0,0-.746,0l-.833,2.56h-2.692a.393.393,0,0,0-.231.711l2.178,1.583-.832,2.561a.393.393,0,0,0,.6.439l2.178-1.583,2.178,1.582a.393.393,0,0,0,.6-.439l-.832-2.561,2.178-1.583a.393.393,0,0,0-.231-.71Z" transform="translate(-151.397 -120.705)" fill="#ef2648"/><g transform="translate(2.602 11.687)"><path d="M277.9,273.408l-.46-1.417q-.71.482-1.464.9l1.32.959a.393.393,0,0,0,.6-.439Z" transform="translate(-268.686 -271.991)" fill="#b20d24"/><path d="M313.925,377.958a6.842,6.842,0,0,1,2.943.668l-2.327-2.992a12.182,12.182,0,0,0-2.187.825,12.014,12.014,0,0,0-1.78,1.48l.5.642A6.83,6.83,0,0,1,313.925,377.958Z" transform="translate(-301.795 -371.181)" fill="#b20d24"/><path d="M108.577,376.514a12.18,12.18,0,0,0-2.187-.825l-.121.157a5.1,5.1,0,0,1,2.112,4.129,5.155,5.155,0,0,1-.039.613l2-2.577.013-.016A12.049,12.049,0,0,0,108.577,376.514Z" transform="translate(-106.268 -371.233)" fill="#b20d24"/></g></g><g transform="translate(56.859 70.56)"><g transform="translate(0 16.141)"><path d="M48.438,375.653l-2.723,3.5,3.143-.393.786,2.75,2.75-3.536.013-.016a12.044,12.044,0,0,0-1.78-1.48A12.155,12.155,0,0,0,48.438,375.653Z" transform="translate(-45.715 -375.653)" fill="#ef2648"/><path d="M314.541,375.653a12.18,12.18,0,0,0-2.187.825,12.02,12.02,0,0,0-1.78,1.48l2.762,3.553.786-2.75,3.143.393Z" transform="translate(-299.193 -375.653)" fill="#ef2648"/></g><path d="M68.415,9.821c0-1.646,1.026-3.583.257-4.911-.793-1.371-3.01-1.441-4.382-2.235C62.961,1.906,61.811,0,60.165,0s-2.8,1.906-4.125,2.675c-1.371.794-3.588.864-4.382,2.235-.769,1.329.257,3.266.257,4.912s-1.026,3.583-.257,4.911c.793,1.371,3.01,1.441,4.382,2.235,1.329.77,2.479,2.676,4.125,2.676s2.8-1.906,4.125-2.675c1.371-.794,3.588-.864,4.382-2.235C69.441,13.4,68.415,11.468,68.415,9.821Z" transform="translate(-51.13)" fill="#ffa511"/><circle cx="6.679" cy="6.679" r="6.679" transform="translate(2.357 3.143)" fill="#ffdc13"/><path d="M164.331,128.955h-2.692l-.832-2.56a.393.393,0,0,0-.746,0l-.833,2.56h-2.692a.393.393,0,0,0-.231.711l2.178,1.583-.832,2.561a.393.393,0,0,0,.6.439l2.178-1.583,2.178,1.582a.393.393,0,0,0,.6-.439l-.832-2.561,2.178-1.583a.393.393,0,0,0-.231-.71Z" transform="translate(-151.397 -120.705)" fill="#ef2648"/><g transform="translate(2.602 11.687)"><path d="M277.9,273.408l-.46-1.417q-.71.482-1.464.9l1.32.959a.393.393,0,0,0,.6-.439Z" transform="translate(-268.686 -271.991)" fill="#b20d24"/><path d="M313.925,377.958a6.842,6.842,0,0,1,2.943.668l-2.327-2.992a12.182,12.182,0,0,0-2.187.825,12.014,12.014,0,0,0-1.78,1.48l.5.642A6.83,6.83,0,0,1,313.925,377.958Z" transform="translate(-301.795 -371.181)" fill="#b20d24"/><path d="M108.577,376.514a12.18,12.18,0,0,0-2.187-.825l-.121.157a5.1,5.1,0,0,1,2.112,4.129,5.155,5.155,0,0,1-.039.613l2-2.577.013-.016A12.049,12.049,0,0,0,108.577,376.514Z" transform="translate(-106.268 -371.233)" fill="#b20d24"/></g></g><g transform="translate(79.859 70.56)"><g transform="translate(0 16.141)"><path d="M48.438,375.653l-2.723,3.5,3.143-.393.786,2.75,2.75-3.536.013-.016a12.044,12.044,0,0,0-1.78-1.48A12.155,12.155,0,0,0,48.438,375.653Z" transform="translate(-45.715 -375.653)" fill="#ef2648"/><path d="M314.541,375.653a12.18,12.18,0,0,0-2.187.825,12.02,12.02,0,0,0-1.78,1.48l2.762,3.553.786-2.75,3.143.393Z" transform="translate(-299.193 -375.653)" fill="#ef2648"/></g><path d="M68.415,9.821c0-1.646,1.026-3.583.257-4.911-.793-1.371-3.01-1.441-4.382-2.235C62.961,1.906,61.811,0,60.165,0s-2.8,1.906-4.125,2.675c-1.371.794-3.588.864-4.382,2.235-.769,1.329.257,3.266.257,4.912s-1.026,3.583-.257,4.911c.793,1.371,3.01,1.441,4.382,2.235,1.329.77,2.479,2.676,4.125,2.676s2.8-1.906,4.125-2.675c1.371-.794,3.588-.864,4.382-2.235C69.441,13.4,68.415,11.468,68.415,9.821Z" transform="translate(-51.13)" fill="#ffa511"/><circle cx="6.679" cy="6.679" r="6.679" transform="translate(2.357 3.143)" fill="#ffdc13"/><path d="M164.331,128.955h-2.692l-.832-2.56a.393.393,0,0,0-.746,0l-.833,2.56h-2.692a.393.393,0,0,0-.231.711l2.178,1.583-.832,2.561a.393.393,0,0,0,.6.439l2.178-1.583,2.178,1.582a.393.393,0,0,0,.6-.439l-.832-2.561,2.178-1.583a.393.393,0,0,0-.231-.71Z" transform="translate(-151.397 -120.705)" fill="#ef2648"/><g transform="translate(2.602 11.687)"><path d="M277.9,273.408l-.46-1.417q-.71.482-1.464.9l1.32.959a.393.393,0,0,0,.6-.439Z" transform="translate(-268.686 -271.991)" fill="#b20d24"/><path d="M313.925,377.958a6.842,6.842,0,0,1,2.943.668l-2.327-2.992a12.182,12.182,0,0,0-2.187.825,12.014,12.014,0,0,0-1.78,1.48l.5.642A6.83,6.83,0,0,1,313.925,377.958Z" transform="translate(-301.795 -371.181)" fill="#b20d24"/><path d="M108.577,376.514a12.18,12.18,0,0,0-2.187-.825l-.121.157a5.1,5.1,0,0,1,2.112,4.129,5.155,5.155,0,0,1-.039.613l2-2.577.013-.016A12.049,12.049,0,0,0,108.577,376.514Z" transform="translate(-106.268 -371.233)" fill="#b20d24"/></g></g></g></g><g transform="translate(328.377 472.89)"><g transform="translate(9.526)"><path d="M481.6,302.6H372.292l-11.7-18.708H463.958Z" transform="translate(-360.589 -283.89)" fill="#d3a72d"/><rect width="109.308" height="269.838" transform="translate(11.703 18.708)" fill="#e4b940"/><path d="M360.589,283.89l11.7,18.708V572.435l-11.7-17.544Z" transform="translate(-360.589 -283.89)" fill="#ba962f"/><rect width="109" height="32" transform="translate(11.789 69.56)" fill="#fff" opacity="0.3"/><path d="M0-19,12,0V32L0,13Z" transform="translate(-0.211 69.56)" fill="#fff" opacity="0.3"/><g transform="translate(33.859 74.56)"><g transform="translate(0 16.141)"><path d="M48.438,375.653l-2.723,3.5,3.143-.393.786,2.75,2.75-3.536.013-.016a12.044,12.044,0,0,0-1.78-1.48A12.155,12.155,0,0,0,48.438,375.653Z" transform="translate(-45.715 -375.653)" fill="#ef2648"/><path d="M314.541,375.653a12.18,12.18,0,0,0-2.187.825,12.02,12.02,0,0,0-1.78,1.48l2.762,3.553.786-2.75,3.143.393Z" transform="translate(-299.193 -375.653)" fill="#ef2648"/></g><path d="M68.415,9.821c0-1.646,1.026-3.583.257-4.911-.793-1.371-3.01-1.441-4.382-2.235C62.961,1.906,61.811,0,60.165,0s-2.8,1.906-4.125,2.675c-1.371.794-3.588.864-4.382,2.235-.769,1.329.257,3.266.257,4.912s-1.026,3.583-.257,4.911c.793,1.371,3.01,1.441,4.382,2.235,1.329.77,2.479,2.676,4.125,2.676s2.8-1.906,4.125-2.675c1.371-.794,3.588-.864,4.382-2.235C69.441,13.4,68.415,11.468,68.415,9.821Z" transform="translate(-51.13)" fill="#ffa511"/><circle cx="6.679" cy="6.679" r="6.679" transform="translate(2.357 3.143)" fill="#ffdc13"/><path d="M164.331,128.955h-2.692l-.832-2.56a.393.393,0,0,0-.746,0l-.833,2.56h-2.692a.393.393,0,0,0-.231.711l2.178,1.583-.832,2.561a.393.393,0,0,0,.6.439l2.178-1.583,2.178,1.582a.393.393,0,0,0,.6-.439l-.832-2.561,2.178-1.583a.393.393,0,0,0-.231-.71Z" transform="translate(-151.397 -120.705)" fill="#ef2648"/><g transform="translate(2.602 11.687)"><path d="M277.9,273.408l-.46-1.417q-.71.482-1.464.9l1.32.959a.393.393,0,0,0,.6-.439Z" transform="translate(-268.686 -271.991)" fill="#b20d24"/><path d="M313.925,377.958a6.842,6.842,0,0,1,2.943.668l-2.327-2.992a12.182,12.182,0,0,0-2.187.825,12.014,12.014,0,0,0-1.78,1.48l.5.642A6.83,6.83,0,0,1,313.925,377.958Z" transform="translate(-301.795 -371.181)" fill="#b20d24"/><path d="M108.577,376.514a12.18,12.18,0,0,0-2.187-.825l-.121.157a5.1,5.1,0,0,1,2.112,4.129,5.155,5.155,0,0,1-.039.613l2-2.577.013-.016A12.049,12.049,0,0,0,108.577,376.514Z" transform="translate(-106.268 -371.233)" fill="#b20d24"/></g></g><g transform="translate(56.859 74.56)"><g transform="translate(0 16.141)"><path d="M48.438,375.653l-2.723,3.5,3.143-.393.786,2.75,2.75-3.536.013-.016a12.044,12.044,0,0,0-1.78-1.48A12.155,12.155,0,0,0,48.438,375.653Z" transform="translate(-45.715 -375.653)" fill="#ef2648"/><path d="M314.541,375.653a12.18,12.18,0,0,0-2.187.825,12.02,12.02,0,0,0-1.78,1.48l2.762,3.553.786-2.75,3.143.393Z" transform="translate(-299.193 -375.653)" fill="#ef2648"/></g><path d="M68.415,9.821c0-1.646,1.026-3.583.257-4.911-.793-1.371-3.01-1.441-4.382-2.235C62.961,1.906,61.811,0,60.165,0s-2.8,1.906-4.125,2.675c-1.371.794-3.588.864-4.382,2.235-.769,1.329.257,3.266.257,4.912s-1.026,3.583-.257,4.911c.793,1.371,3.01,1.441,4.382,2.235,1.329.77,2.479,2.676,4.125,2.676s2.8-1.906,4.125-2.675c1.371-.794,3.588-.864,4.382-2.235C69.441,13.4,68.415,11.468,68.415,9.821Z" transform="translate(-51.13)" fill="#ffa511"/><circle cx="6.679" cy="6.679" r="6.679" transform="translate(2.357 3.143)" fill="#ffdc13"/><path d="M164.331,128.955h-2.692l-.832-2.56a.393.393,0,0,0-.746,0l-.833,2.56h-2.692a.393.393,0,0,0-.231.711l2.178,1.583-.832,2.561a.393.393,0,0,0,.6.439l2.178-1.583,2.178,1.582a.393.393,0,0,0,.6-.439l-.832-2.561,2.178-1.583a.393.393,0,0,0-.231-.71Z" transform="translate(-151.397 -120.705)" fill="#ef2648"/><g transform="translate(2.602 11.687)"><path d="M277.9,273.408l-.46-1.417q-.71.482-1.464.9l1.32.959a.393.393,0,0,0,.6-.439Z" transform="translate(-268.686 -271.991)" fill="#b20d24"/><path d="M313.925,377.958a6.842,6.842,0,0,1,2.943.668l-2.327-2.992a12.182,12.182,0,0,0-2.187.825,12.014,12.014,0,0,0-1.78,1.48l.5.642A6.83,6.83,0,0,1,313.925,377.958Z" transform="translate(-301.795 -371.181)" fill="#b20d24"/><path d="M108.577,376.514a12.18,12.18,0,0,0-2.187-.825l-.121.157a5.1,5.1,0,0,1,2.112,4.129,5.155,5.155,0,0,1-.039.613l2-2.577.013-.016A12.049,12.049,0,0,0,108.577,376.514Z" transform="translate(-106.268 -371.233)" fill="#b20d24"/></g></g><g transform="translate(79.859 74.56)"><g transform="translate(0 16.141)"><path d="M48.438,375.653l-2.723,3.5,3.143-.393.786,2.75,2.75-3.536.013-.016a12.044,12.044,0,0,0-1.78-1.48A12.155,12.155,0,0,0,48.438,375.653Z" transform="translate(-45.715 -375.653)" fill="#dbdbdb"/><path d="M314.541,375.653a12.18,12.18,0,0,0-2.187.825,12.02,12.02,0,0,0-1.78,1.48l2.762,3.553.786-2.75,3.143.393Z" transform="translate(-299.193 -375.653)" fill="#dbdbdb"/></g><path d="M68.415,9.821c0-1.646,1.026-3.583.257-4.911-.793-1.371-3.01-1.441-4.382-2.235C62.961,1.906,61.811,0,60.165,0s-2.8,1.906-4.125,2.675c-1.371.794-3.588.864-4.382,2.235-.769,1.329.257,3.266.257,4.912s-1.026,3.583-.257,4.911c.793,1.371,3.01,1.441,4.382,2.235,1.329.77,2.479,2.676,4.125,2.676s2.8-1.906,4.125-2.675c1.371-.794,3.588-.864,4.382-2.235C69.441,13.4,68.415,11.468,68.415,9.821Z" transform="translate(-51.13)" fill="#fff"/><circle cx="6.679" cy="6.679" r="6.679" transform="translate(2.357 3.143)" fill="#dbdbdb"/><path d="M164.331,128.955h-2.692l-.832-2.56a.393.393,0,0,0-.746,0l-.833,2.56h-2.692a.393.393,0,0,0-.231.711l2.178,1.583-.832,2.561a.393.393,0,0,0,.6.439l2.178-1.583,2.178,1.582a.393.393,0,0,0,.6-.439l-.832-2.561,2.178-1.583a.393.393,0,0,0-.231-.71Z" transform="translate(-151.397 -120.705)" fill="#fff"/></g></g></g><g transform="translate(145.377 564.89)"><g transform="translate(9.526)"><path d="M481.6,302.6H372.292l-11.7-18.708H463.958Z" transform="translate(-360.589 -283.89)" fill="#d3a72d"/><rect width="109.308" height="269.838" transform="translate(11.703 18.708)" fill="#e4b940"/><path d="M360.589,283.89l11.7,18.708V572.435l-11.7-17.544Z" transform="translate(-360.589 -283.89)" fill="#ba962f"/><rect width="109" height="32" transform="translate(11.789 60.56)" fill="#fff" opacity="0.3"/><path d="M0-19,12,0V32L0,13Z" transform="translate(-0.211 60.56)" fill="#fff" opacity="0.3"/><g transform="translate(33.859 65.56)"><g transform="translate(0 16.141)"><path d="M48.438,375.653l-2.723,3.5,3.143-.393.786,2.75,2.75-3.536.013-.016a12.044,12.044,0,0,0-1.78-1.48A12.155,12.155,0,0,0,48.438,375.653Z" transform="translate(-45.715 -375.653)" fill="#ef2648"/><path d="M314.541,375.653a12.18,12.18,0,0,0-2.187.825,12.02,12.02,0,0,0-1.78,1.48l2.762,3.553.786-2.75,3.143.393Z" transform="translate(-299.193 -375.653)" fill="#ef2648"/></g><path d="M68.415,9.821c0-1.646,1.026-3.583.257-4.911-.793-1.371-3.01-1.441-4.382-2.235C62.961,1.906,61.811,0,60.165,0s-2.8,1.906-4.125,2.675c-1.371.794-3.588.864-4.382,2.235-.769,1.329.257,3.266.257,4.912s-1.026,3.583-.257,4.911c.793,1.371,3.01,1.441,4.382,2.235,1.329.77,2.479,2.676,4.125,2.676s2.8-1.906,4.125-2.675c1.371-.794,3.588-.864,4.382-2.235C69.441,13.4,68.415,11.468,68.415,9.821Z" transform="translate(-51.13)" fill="#ffa511"/><circle cx="6.679" cy="6.679" r="6.679" transform="translate(2.357 3.143)" fill="#ffdc13"/><path d="M164.331,128.955h-2.692l-.832-2.56a.393.393,0,0,0-.746,0l-.833,2.56h-2.692a.393.393,0,0,0-.231.711l2.178,1.583-.832,2.561a.393.393,0,0,0,.6.439l2.178-1.583,2.178,1.582a.393.393,0,0,0,.6-.439l-.832-2.561,2.178-1.583a.393.393,0,0,0-.231-.71Z" transform="translate(-151.397 -120.705)" fill="#ef2648"/><g transform="translate(2.602 11.687)"><path d="M277.9,273.408l-.46-1.417q-.71.482-1.464.9l1.32.959a.393.393,0,0,0,.6-.439Z" transform="translate(-268.686 -271.991)" fill="#b20d24"/><path d="M313.925,377.958a6.842,6.842,0,0,1,2.943.668l-2.327-2.992a12.182,12.182,0,0,0-2.187.825,12.014,12.014,0,0,0-1.78,1.48l.5.642A6.83,6.83,0,0,1,313.925,377.958Z" transform="translate(-301.795 -371.181)" fill="#b20d24"/><path d="M108.577,376.514a12.18,12.18,0,0,0-2.187-.825l-.121.157a5.1,5.1,0,0,1,2.112,4.129,5.155,5.155,0,0,1-.039.613l2-2.577.013-.016A12.049,12.049,0,0,0,108.577,376.514Z" transform="translate(-106.268 -371.233)" fill="#b20d24"/></g></g><g transform="translate(79.859 65.56)"><g transform="translate(0 16.141)"><path d="M48.438,375.653l-2.723,3.5,3.143-.393.786,2.75,2.75-3.536.013-.016a12.044,12.044,0,0,0-1.78-1.48A12.155,12.155,0,0,0,48.438,375.653Z" transform="translate(-45.715 -375.653)" fill="#dbdbdb"/><path d="M314.541,375.653a12.18,12.18,0,0,0-2.187.825,12.02,12.02,0,0,0-1.78,1.48l2.762,3.553.786-2.75,3.143.393Z" transform="translate(-299.193 -375.653)" fill="#dbdbdb"/></g><path d="M68.415,9.821c0-1.646,1.026-3.583.257-4.911-.793-1.371-3.01-1.441-4.382-2.235C62.961,1.906,61.811,0,60.165,0s-2.8,1.906-4.125,2.675c-1.371.794-3.588.864-4.382,2.235-.769,1.329.257,3.266.257,4.912s-1.026,3.583-.257,4.911c.793,1.371,3.01,1.441,4.382,2.235,1.329.77,2.479,2.676,4.125,2.676s2.8-1.906,4.125-2.675c1.371-.794,3.588-.864,4.382-2.235C69.441,13.4,68.415,11.468,68.415,9.821Z" transform="translate(-51.13)" fill="#fff"/><circle cx="6.679" cy="6.679" r="6.679" transform="translate(2.357 3.143)" fill="#dbdbdb"/><path d="M164.331,128.955h-2.692l-.832-2.56a.393.393,0,0,0-.746,0l-.833,2.56h-2.692a.393.393,0,0,0-.231.711l2.178,1.583-.832,2.561a.393.393,0,0,0,.6.439l2.178-1.583,2.178,1.582a.393.393,0,0,0,.6-.439l-.832-2.561,2.178-1.583a.393.393,0,0,0-.231-.71Z" transform="translate(-151.397 -120.705)" fill="#fff"/></g><g transform="translate(56.859 65.56)"><g transform="translate(0 16.141)"><path d="M48.438,375.653l-2.723,3.5,3.143-.393.786,2.75,2.75-3.536.013-.016a12.044,12.044,0,0,0-1.78-1.48A12.155,12.155,0,0,0,48.438,375.653Z" transform="translate(-45.715 -375.653)" fill="#dbdbdb"/><path d="M314.541,375.653a12.18,12.18,0,0,0-2.187.825,12.02,12.02,0,0,0-1.78,1.48l2.762,3.553.786-2.75,3.143.393Z" transform="translate(-299.193 -375.653)" fill="#dbdbdb"/></g><path d="M68.415,9.821c0-1.646,1.026-3.583.257-4.911-.793-1.371-3.01-1.441-4.382-2.235C62.961,1.906,61.811,0,60.165,0s-2.8,1.906-4.125,2.675c-1.371.794-3.588.864-4.382,2.235-.769,1.329.257,3.266.257,4.912s-1.026,3.583-.257,4.911c.793,1.371,3.01,1.441,4.382,2.235,1.329.77,2.479,2.676,4.125,2.676s2.8-1.906,4.125-2.675c1.371-.794,3.588-.864,4.382-2.235C69.441,13.4,68.415,11.468,68.415,9.821Z" transform="translate(-51.13)" fill="#fff"/><circle cx="6.679" cy="6.679" r="6.679" transform="translate(2.357 3.143)" fill="#dbdbdb"/><path d="M164.331,128.955h-2.692l-.832-2.56a.393.393,0,0,0-.746,0l-.833,2.56h-2.692a.393.393,0,0,0-.231.711l2.178,1.583-.832,2.561a.393.393,0,0,0,.6.439l2.178-1.583,2.178,1.582a.393.393,0,0,0,.6-.439l-.832-2.561,2.178-1.583a.393.393,0,0,0-.231-.71Z" transform="translate(-151.397 -120.705)" fill="#fff"/></g></g></g><g transform="translate(177.72 78.117)"><path d="M318.033,383.6s-.006-.124-.02-.327A.986.986,0,0,0,318.033,383.6Z" transform="translate(-60.714 -111.976)" fill="none"/><path d="M287.834,241.995l.191.01c.012-.155.022-.3.03-.451l-.067.007A2.8,2.8,0,0,1,287.834,241.995Z" transform="translate(-46.187 -43.749)" fill="none"/><path d="M268.642,159.823a6.217,6.217,0,0,1,.1,1.524c.259-.112.5-.207.737-.292A8.011,8.011,0,0,1,268.642,159.823Z" transform="translate(-36.948 -4.401)" fill="none"/><path d="M272.283,213.628c-.109-.408-.188-.678-.188-.678l.423-5.645a25.919,25.919,0,0,1-2.182,2.495c-.367.44-.879,1.905-4.47,1.758s-3.371-1.905-5.35-3.15a4.675,4.675,0,0,1-1.35-1.4,53.6,53.6,0,0,1-.468,5.478c-.008.018-.024.031-.034.048l-.053.418s-2.431,1.368-2.1,6.944c.013.224.023.441.046.678.085.9.327,2.271.675,3.966q.054.264.112.538a4.321,4.321,0,0,1,.9.406,10.243,10.243,0,0,0,3.591,1.173c1.392.219,9.087-.22,10.479-.806a.907.907,0,0,0,.426-.486,2.806,2.806,0,0,0,.155-.434c.031-.111.057-.233.082-.36.278-7.834-.882-11.032-.882-11.032C272.151,213.559,272.219,213.595,272.283,213.628Z" transform="translate(-31.094 -27.116)" fill="#e2b4a4"/><path d="M273.117,242.623c-1.392.586-9.087,1.025-10.479.806a10.243,10.243,0,0,1-3.591-1.173,4.318,4.318,0,0,0-.9-.406c2.139,10.142,7.713,30.379,7.713,30.379s7.2-21.606,7.872-30.082l-.191-.01A.907.907,0,0,1,273.117,242.623Z" transform="translate(-31.896 -48.891)" fill="#e4b940"/><path d="M311.813,356.769s-1.172,1.173-1.953,1.173h-2.737c-.977,0-.976.977-2.344,1.564s-3.127,1.172-3.322,1.758.977,1.368,2.54,1.368a4.71,4.71,0,0,0,2.736-.976,33.839,33.839,0,0,1,2.346,3.713,17.9,17.9,0,0,1,.956,5.144c.014.2.02.327.02.327a29.059,29.059,0,0,1,2.541-2.541c.978-.781,1.172-2.54,2.345-3.713a4.383,4.383,0,0,0,.8-2.765,12.684,12.684,0,0,0-.212-2.9C315.331,358.138,311.813,356.769,311.813,356.769Z" transform="translate(-52.735 -99.217)" fill="#e2b4a4"/><path d="M275.868,617.574c-.207-.016-.436-.034-.681-.055-2.611-.218-7.145-.669-7.669-.721-.3,1.6-.887,4.647-1.03,5.076-.075.226-.208.827-.343,1.482.447.557,1.4,1.687,1.906,1.839,2.583.781,2,.585,4.537.585a12.823,12.823,0,0,0,2.344-.236,17.535,17.535,0,0,0,2.1-.533c.33-2.188.636-6.554.636-7.046a.455.455,0,0,0-.121-.261Z" transform="translate(-35.745 -224.403)" fill="#f5c2b0"/><path d="M198.282,615.608c-.022-.015-.045-.035-.068-.054-.369,1.788-1.534,7.631-1.488,9.9.146.226.724.51,2.729.51,3.322,0,6.448.2,6.448.2a44.065,44.065,0,0,0,.782-5.471,15.277,15.277,0,0,1,.976-4.1C204.34,617.952,198.868,616,198.282,615.608Z" transform="translate(-2.324 -223.804)" fill="#f5c2b0"/><path d="M255.349,364.3c-.586-.195,1.563-.977,1.563-1.954,1.368-.782,2.15-2.736,1.368-2.931.781-.977.781-2.736.2-3.127s3.128,0,3.322-1.758-3.908-1.759-4.494-1.759a20.358,20.358,0,0,1-3.322-.781,6.355,6.355,0,0,0-2.931-.2c-1.368.2-3.126,1.173-4.494,1.173a6.559,6.559,0,0,1-3.127-.977c-.781-.391-4.1,1.172-4.885,6.253,0,0,6.253,5.667,8.208,6.645a14.438,14.438,0,0,0,6.058,1.173C254.372,366.06,255.935,364.5,255.349,364.3Z" transform="translate(-22.457 -96.783)" fill="#f5c2b0"/><path d="M260.641,265.576c0-2.54-.2-6.84-.2-8.012s-1.173-14.655-1.173-17.2.586-12.7.586-13.874-1.172-9.966-3.322-10.553-2.15-.781-3.908-1.172a23.347,23.347,0,0,1-3.648-1.254c-.813-2.417-2.037-5.863-2.222-7.98-.292-3.371-.146-7.182-.146-8.647a5.079,5.079,0,0,0-.526-1.921c-.032.23-.064.457-.1.675a1.571,1.571,0,0,1-2.492.879,9.431,9.431,0,0,1-2.069,4.98L241,207.145s.078.271.188.678c-.064-.033-.132-.069-.188-.091,0,0,1.16,3.2.882,11.032-.025.127-.052.248-.082.36l.067-.007c-.008.146-.018.3-.03.451-.67,8.475-7.872,30.082-7.872,30.082s-5.575-20.237-7.713-30.379q-.058-.274-.112-.538c-.349-1.694-.59-3.069-.675-3.966-.022-.237-.032-.454-.046-.678-.333-5.576,2.1-6.944,2.1-6.944l.053-.418c.01-.017.026-.031.034-.048a53.6,53.6,0,0,0,.468-5.478,14.925,14.925,0,0,1-1.875-5.194,1.52,1.52,0,0,1-2.041-1.058,14.618,14.618,0,0,1-.554,4.282c-1.173,3.224-1.32,4.1-1.32,5.862,0,.868-.214,2.7-.43,4.329a9.663,9.663,0,0,1-1.859,1.24c-1.758.782-9.966,1.368-11.529,3.322-1.956-.2-2.933,1.563-4.1,6.058s-6.448,24.622-6.644,26.381a53.594,53.594,0,0,1-2.149,7.231,6.751,6.751,0,0,0-.391,3.907c.391,1.172.2,2.736.391,4.3a21.217,21.217,0,0,0,2.931,6.449c.977,1.367,3.712,6.058,4.884,7.035a52.107,52.107,0,0,1,3.713,3.908s1.563,4.885,1.563,6.839-2.932,8.6-3.323,10.552-1.563,17.2-1.758,21.887-2.346,16.219-2.346,19.932-.195,8.6-.195,9.966-1.759,9.771-2.149,14.266-2.54,16.024-2.736,19.541-1.172,15.243-1.172,18.76-.2,3.713-.391,6.84c-.188,3.008.708,4.747,1.3,5.223.023.019.046.039.068.054.587.39,6.058,2.344,9.38.976a15.277,15.277,0,0,0-.976,4.1,44.061,44.061,0,0,1-.782,5.471s-3.126-.2-6.448-.2c-2.005,0-2.583-.285-2.729-.51a.254.254,0,0,1-.039-.2,11.684,11.684,0,0,1-1.531,2.469c-.977,1.172-.934,1.172-.934,2.148s1.521,1.565,2.3,1.759,8.6-.195,9.967-.976.2-3.714.782-5.277.39-3.322,1.367-4.885,1.367-2.345,2.345-3.908a2.636,2.636,0,0,0,.017-2.475c1.722-1.875,2.914-4.238,2.914-5.733,0-2.345-.586-7.229-.586-10.943s1.369-20.909,1.564-23.253.586-7.818.781-9.185.977-2.737,1.172-4.691,2.932-4.689,2.932-8.011a22.577,22.577,0,0,1,1.173-8.208c.977-2.931,5.862-23.644,7.035-25.6s2.15-6.056,2.931-7.034,3.126-3.517,3.126-3.517a77.313,77.313,0,0,1,3.127,13.288c.586,5.667,1.172,26.577,1.172,30.094s-.2,8.208-.2,10.553a58.788,58.788,0,0,0,.2,6.058,76.105,76.105,0,0,1-.391,8.6c-.195,3.518-1.368,9.77-1.563,13.874S232.7,397.678,232.305,401s-.586,6.253-.781,8.207a21.586,21.586,0,0,0,.195,4.495l.053.005c.524.052,5.058.5,7.669.721.245.021.474.039.681.055l1.68.13a.455.455,0,0,1,.121.261c0,.493-.307,4.858-.636,7.046a17.538,17.538,0,0,1-2.1.533,12.819,12.819,0,0,1-2.344.236c-2.54,0-1.954.2-4.538-.585-.505-.152-1.459-1.282-1.906-1.839-.15-.187-.243-.31-.243-.31s-1.563,3.321-1.563,5.081c0,.586.195,2.54,1.173,2.931s2.387,1.855,3.755,1.855,5.235-1.269,6.016-1.269,1.953-.194,2.149-1.173a22.286,22.286,0,0,0,.195-3.1c.216-1.71.511-3.953.628-4.424.188-.752.467-5.931.488-6.325.975-3.389,3.769-13.342,3.769-16.245,0-3.517,2.345-16.024,3.126-21.3s1.564-8.208,1.564-10.357v-7.035c0-2.737.391-13.094,1.173-17.2s-.391-13.289.781-17.588a141.678,141.678,0,0,0,2.932-14.069c.2-1.954,1.563-6.253,1.563-8.6a50.487,50.487,0,0,0-.586-8.207.984.984,0,0,1-.02-.327,17.9,17.9,0,0,0-.956-5.144A33.837,33.837,0,0,0,254,283.75a4.71,4.71,0,0,1-2.736.976c-1.563,0-2.735-.781-2.54-1.368s1.953-1.172,3.322-1.758,1.367-1.564,2.344-1.564h2.736c.781,0,1.953-1.172,1.953-1.172s3.518,1.368,3.713,2.149a12.688,12.688,0,0,1,.212,2.9,8.872,8.872,0,0,0,.96-3.488C263.768,278.474,260.641,268.116,260.641,265.576Zm-24.623,15.242c.586.392.586,2.15-.2,3.127.782.2,0,2.149-1.368,2.931,0,.977-2.149,1.759-1.563,1.954s-.977,1.759-2.54,1.759a14.438,14.438,0,0,1-6.058-1.172c-1.954-.978-8.208-6.645-8.208-6.645.782-5.08,4.1-6.644,4.885-6.253a6.559,6.559,0,0,0,3.127.977c1.369,0,3.126-.977,4.494-1.173a6.355,6.355,0,0,1,2.931.2,20.359,20.359,0,0,0,3.322.781c.586,0,4.689,0,4.494,1.759S235.433,280.427,236.019,280.818Z" transform="translate(0 -21.312)" fill="#181819"/><path d="M196.651,634.194l.033-.073A.228.228,0,0,0,196.651,634.194Z" transform="translate(-2.289 -232.742)" fill="#2d2d2e"/><path d="M275.078,174.981a.959.959,0,0,1-.524.672c-.4.156-.8-.188-.491-.906a3.147,3.147,0,0,0-1.249-3.357,1.444,1.444,0,0,1-.624-.624c-.41-.691-.718-1.887-1.484-3.747-1.093-2.654-3.9-3.122-6.479-3.981a6.975,6.975,0,0,1-3.089-2.279c-.248.09-.509.192-.786.311-.042.961-.255,1.934-.732,2.124-.78.312-1.093.78-1.249,1.873a9.967,9.967,0,0,1-3.357,4.762,1.538,1.538,0,0,0-.746.937c-.21.791.2,1.762.2,2.732a4.55,4.55,0,0,1-.625,2.342s-.624-1.717-.937-2.732a2.792,2.792,0,0,0-.684-1.062.88.88,0,0,0-.281.324,2.464,2.464,0,0,0-.206,1.285c.078,1.718.234,2.81.234,3.513a5.308,5.308,0,0,0,.246,1.683,1.618,1.618,0,0,0,2.173,1.127,15.909,15.909,0,0,0,2,5.533A4.982,4.982,0,0,0,257.825,187c2.109,1.326,1.875,3.2,5.7,3.356s4.372-1.4,4.762-1.873a27.753,27.753,0,0,0,2.325-2.658,10.061,10.061,0,0,0,2.2-5.3,1.674,1.674,0,0,0,2.655-.937c.04-.232.075-.474.108-.719.154-1.156.23-2.383.359-3.028a12.049,12.049,0,0,0,.262-1.954A1.594,1.594,0,0,0,275.078,174.981Z" transform="translate(-28.807 -4.851)" fill="#f5c2b0"/><path d="M251.482,166.82c.02.2.042.439.065.7a.88.88,0,0,1,.281-.324,2.791,2.791,0,0,1,.683,1.062c.313,1.015.937,2.732.937,2.732a4.55,4.55,0,0,0,.625-2.342c0-.971-.409-1.942-.2-2.732a1.538,1.538,0,0,1,.746-.937,9.968,9.968,0,0,0,3.357-4.762c.156-1.093.468-1.561,1.249-1.873.477-.19.69-1.163.732-2.124a6.6,6.6,0,0,0-.107-1.623,8.562,8.562,0,0,0,.893,1.312,6.975,6.975,0,0,0,3.089,2.279c2.576.859,5.386,1.327,6.479,3.981.766,1.86,1.074,3.056,1.484,3.747a1.445,1.445,0,0,0,.624.624,3.147,3.147,0,0,1,1.249,3.357c-.308.718.092,1.062.491.906a.959.959,0,0,0,.524-.672,1.594,1.594,0,0,1,1.121-1.1,1.908,1.908,0,0,1,.361-.076,7.1,7.1,0,0,0,.7-5.543,45.738,45.738,0,0,1-1.249-5.152,6.605,6.605,0,0,0-3.513-4.762c-1.483-.547-2.81-1.717-3.825-2.108a13.368,13.368,0,0,0-4.294-.7,12.026,12.026,0,0,0-3.435,1.561,2.666,2.666,0,0,0-2.966-.468,8.868,8.868,0,0,0-4.684,4.528c-.468,1.561-1.171,4.684-1.483,6.089a10.6,10.6,0,0,0-.469,3.513A1.893,1.893,0,0,0,251.482,166.82Z" transform="translate(-28.41)" fill="#2d2d2e"/><path d="M524.145,220.437c-.1-.061-.712-.629-1.566-1.44-1.081-1.027-2.551-2.441-3.87-3.716a9.571,9.571,0,0,1-2.165-2.622c0,.19-.187,1.556-.187,3.695,0,.729-.03,1.552-.079,2.372-.105,1.762-1.146,3.167-1.32,3.922-.255,1.105-1.872,1.276-2.807,3.147s-3.573,5.869-3.573,5.869-3.147-6.295-3.913-7.06a6.559,6.559,0,0,0-1.7-1.191,27.179,27.179,0,0,0,.248-4.111c-.024-.637-.041-1.211-.041-1.6,0-1.039-.02-2.7-.032-3.665-.006-.457-.01-.757-.01-.757a36.449,36.449,0,0,1-2.547,3.075c-1.021,1.021-3.913,3.317-4.679,3.912-.178.138-.448.369-.754.638-1.01.886-2.435,2.212-2.435,2.212s-.681.17.936.17,5.656-1.659,5.656-1.659,1.781,1.7,2.835,6.844,2.609,10.385,2.779,11.746,3.106,12.012,3.276,12.437,1.18,4.4,1.18,4.4l3.461-11.112s.854-2.677,2.958-11.008a43.137,43.137,0,0,0,1.513-13.8,8.914,8.914,0,0,1,4.03.586,8.349,8.349,0,0,0,4.465.383S526.313,221.755,524.145,220.437Z" transform="translate(-275.418 -28.673)" fill="#e9e8e5"/></g><g transform="translate(-110.303 6.796)"><g transform="translate(198.995 127.671)"><path d="M113.436,576.126s-5.47-.156-10.158-.156a54.237,54.237,0,0,1-7.658-.469l-3.546,5.507a10.091,10.091,0,0,1-1.63,3.584c-.978.978.326,1.956.326,1.956a51.816,51.816,0,0,0,7.17.653c3.259,0,8.8-2.282,8.8-2.282h2.282l2.933-1.3C112.975,581.259,113.436,576.126,113.436,576.126Z" transform="translate(-3.031 -143.625)" fill="#121212"/><path d="M182.744,575.849a74.815,74.815,0,0,0-9.031-.611c-2.813.156-5.474,2.567-5.474,2.567a11.685,11.685,0,0,0-.326,3.1l.326,1.955a12.769,12.769,0,0,0,3.585.814c1.467,0,1.467-.162,2.282.49a11.528,11.528,0,0,0,6.52,2.934c3.259.163,7.17-.49,7.5-.978s.326-.814-.163-1.794-.326-1.628-1.3-2.77-2.609-4.075-3.26-4.889.163.163-.652-.815" transform="translate(-32.208 -143.519)" fill="#121212"/><g transform="translate(81.994 192.374)"><path d="M152.338,260.392c-.584-.611-1.215-1.211-1.85-1.766-.482-.421-.964-.813-1.429-1.169s-.891-.66-1.29-.917a7.424,7.424,0,0,0-1.182,1.03q-.176.183-.355.383a26.166,26.166,0,0,0-1.64,2.067l2.921,2.921-3.419,9.9,1.841,7.892,1.889,8.1s.285-.993.755-2.644c1-3.5,2.834-9.982,4.583-16.321l-2.841-7.552Z" transform="translate(-105.273 -216.429)" fill="#e4b940"/><path d="M152.628,239.065l-.651-6.984a22.772,22.772,0,0,1-1.93,5.885c-1.352,2.289-6.758,4.056-9.359,3.639a6.375,6.375,0,0,1-4.409-2.887l-.123,2.615c.021-.059.036-.094.036-.094s4.525,6.021,8.751,5.871C149.114,246.961,152.191,240.84,152.628,239.065Z" transform="translate(-102.297 -207.259)" fill="#e2b4a4"/><path d="M163.227,340.747c-1.4,0-1.482.078-2.34.078a29.352,29.352,0,0,0-4.368.781c-.468.155-1.482,1.091-2.105,1.091a12.937,12.937,0,0,0-2.886,1.248,5.417,5.417,0,0,1-2.807.156c-1.093-.156-.937,1.4-.937,1.4h-.468c-.468,0-.625.311-.625.78s1.4.78,1.561,1.091a2.559,2.559,0,0,0,.3.408,1.407,1.407,0,0,1,.266.344.961.961,0,0,1,.216.5,1,1,0,0,0,.546.858c.234.078,1.638.39,1.638.39l.234.7c.078.234.468.546.7.779a7.715,7.715,0,0,1,.7,1.092s.78,1.326,1.014,1.716a3.248,3.248,0,0,0,2.651,1.248,14.868,14.868,0,0,0,6.006-.781c1.872-.7,5.459-4.679,5.459-4.679s1.638,0,1.949-.858-2.261-8.58-2.261-8.58S164.631,340.747,163.227,340.747Z" transform="translate(-106.247 -247.908)" fill="#e2b4a4"/><path d="M138.293,349.52a1.407,1.407,0,0,0-.266-.344,13.886,13.886,0,0,0-1.779-1.187c-.7-.468.233-1.638.233-1.638a18.655,18.655,0,0,1-2.808-1.248,2.716,2.716,0,0,0-1.4-.468c-.389-.078-1.794-.234-2.729-.312s-2.574-.078-3.041-.078-.858-.234-3.9,1.014-3.977,7.643-3.977,7.643,2.184,1.95,2.652,2.5a3.724,3.724,0,0,0,2.183,1.327,7.293,7.293,0,0,1,2.887,1.481,5.337,5.337,0,0,0,3.431,1.326c1.638,0,2.5,0,2.964-.39s.313-.7,1.092-1.092-.078-1.247.546-1.4a2.1,2.1,0,0,0,1.872-1.871c.78,0,1.013-1.638,1.248-2.574,1.248-.078,1.091-1.95.858-2.574A.8.8,0,0,0,138.293,349.52Z" transform="translate(-95.724 -249.301)" fill="#f5c2b0"/><path d="M150.057,212.906a4.254,4.254,0,0,1-.179,1.128,12,12,0,0,1-1,2.433c-.773,1.437-1.327.995-1.327.995s-.111-2.212-.221-2.654-1.106-2.1-1.437-3.1-1.106-4.2-1.438-4.312-3.981.221-5.639.221-4.2.331-6.856.221a10.674,10.674,0,0,1-3.483-.5s-.388,2.6-.5,3.263a35.6,35.6,0,0,0-.111,4.975c.111,1.107.443,3.76.443,3.76s-.776.221-1.106-.111a11.345,11.345,0,0,1-.994-1.707.767.767,0,0,0-.113.491s.223,1.327.554,2.654a27.347,27.347,0,0,0,1.437,3.87c.223.442,1,1.326,1.327,1.1s2.323,3.76,2.654,4.535c.018.041.042.088.066.136a6.778,6.778,0,0,0,4.688,3.07c2.765.443,8.514-1.437,9.951-3.869a24.288,24.288,0,0,0,2.052-6.258c.175-.821.269-1.371.269-1.371s2.432-.221,2.544-1.77.11-5.307.11-5.639S151.329,212.445,150.057,212.906Z" transform="translate(-98.529 -197.986)" fill="#f5c2b0"/><path d="M152.691,258.624c.635.555,1.265,1.155,1.85,1.766a13.436,13.436,0,0,1,2.451,3.288,15.261,15.261,0,0,0-2.307-3.426,24.262,24.262,0,0,0-1.795-1.937,13.44,13.44,0,0,0-1.018-.888,3.254,3.254,0,0,0-1.9-.89c.4.257.836.57,1.29.917S152.209,258.2,152.691,258.624Z" transform="translate(-107.476 -216.427)" fill="#2d2d2e"/><path d="M92.414,451.463c0,2.094,1.5,1.645,2.991,1.645s8.826.3,11.219.449,3.44,2.244,3.44,1.8a21.561,21.561,0,0,1,1.945-5.385,22.035,22.035,0,0,0,1.617-6.05c.624-3.432,1.184-10.295,1.807-14.662s1.807-32.133,1.807-35.876,6.056-36.812,6.056-36.812,1.56,5.3,1.56,7.8,5.12,23.708,5.12,25.893,1.184,26.83,1.184,30.885.936,18.094,1.56,20.9,1.5,7.486,1.5,7.486c.07,2.557.828,6.568,2.324,5.222s6.133-1.646,8.676-1.646a44.193,44.193,0,0,0,5.534-.449v-2.815a47.439,47.439,0,0,1,.56-4.991c.312-1.248-.248-7.8-.248-10.3s-.312-4.367-.312-6.551-1.312-11.542-1.312-15.91V379.964c0-.935.687-26.828.687-26.828l5.3-.936s-.312-5.3-.312-6.551-2.5-29.325-2.5-29.325a20.373,20.373,0,0,1,4.057-2.807c1.558-.624,9.046-7.487,9.046-8.735s-1.872-10.918-2.5-14.35-4.367-35.252-4.367-35.252-4.367-3.509-14.038-5.069-10.607-4.29-10.607-4.29.071.607.071,1.167-.038,2.207-.038,3.291a23.831,23.831,0,0,1-.818,3.944,42.432,42.432,0,0,1-1.7,5.187c-.055.129-.109.258-.164.375l-.012.029a.409.409,0,0,0-.013-.043c-.523,1.938-1.086,4-1.66,6.08-1.75,6.339-3.586,12.818-4.584,16.321-.469,1.651-.755,2.644-.755,2.644l-1.889-8.1-1.841-7.892-2.076-8.893c.526-.878,1.491-2.437,2.574-3.933a26.172,26.172,0,0,1,1.64-2.067q.179-.2.355-.383a7.422,7.422,0,0,1,1.182-1.03,2.89,2.89,0,0,0-1.525,1.046c-.061.066-.124.136-.186.206a21.117,21.117,0,0,0-1.594,2.1c-1.01,1.486-1.941,3.1-2.453,4.024-.259.465-.411.753-.411.753-.539-.506-1.064-2.961-1.5-5.613-.559-3.422-.963-7.172-1.048-7.488-.01-.039-.014-.079-.021-.118l-3.064,2.758s-4.68,2.807-6.552,3.119-8.423,3.433-11.231,4.056-2.5,2.807-2.5,2.807v3.121c0,1.248-.311,1.871-1.247,4.367a136.32,136.32,0,0,0-3.743,14.35c-.625,3.432-3.745,13.1-4.679,14.662s-.937,3.432-.313,5.616,4.367,8.735,6.551,9.983,8.735,7.487,8.735,7.487a19.6,19.6,0,0,0-.311,3.433,3.643,3.643,0,0,0,.624,2.495l-1.872,21.526.936,8.423s-.312,5.617-.312,9.359,1,48.666.689,53.347-2.059,22.988-3.308,25.8C94.161,444.134,92.414,449.369,92.414,451.463Zm53.267-137.868c-.311.858-1.949.858-1.949.858s-3.588,3.978-5.459,4.679a14.868,14.868,0,0,1-6.006.781,3.247,3.247,0,0,1-2.651-1.248c-.234-.39-1.014-1.716-1.014-1.716a7.71,7.71,0,0,0-.7-1.092c-.234-.234-.624-.546-.7-.78l-.234-.7s-1.4-.312-1.638-.39a1,1,0,0,1-.546-.858.961.961,0,0,0-.216-.5.8.8,0,0,1,.06.107c.234.623.39,2.5-.858,2.574-.234.936-.468,2.574-1.248,2.574a2.1,2.1,0,0,1-1.872,1.871c-.625.157.234,1.015-.546,1.4s-.623.7-1.092,1.092-1.325.39-2.964.39a5.337,5.337,0,0,1-3.431-1.326,7.291,7.291,0,0,0-2.887-1.482,3.724,3.724,0,0,1-2.183-1.327c-.468-.546-2.652-2.5-2.652-2.5s.936-6.4,3.977-7.643,3.433-1.014,3.9-1.014,2.1,0,3.041.078,2.34.234,2.729.312a2.717,2.717,0,0,1,1.4.468,18.66,18.66,0,0,0,2.808,1.248s-.936,1.17-.233,1.638a13.888,13.888,0,0,1,1.779,1.187,2.562,2.562,0,0,1-.3-.408c-.156-.311-1.561-.623-1.561-1.091s.157-.78.625-.78h.468s-.156-1.56.937-1.4a5.415,5.415,0,0,0,2.807-.156,12.936,12.936,0,0,1,2.886-1.248c.624,0,1.638-.936,2.105-1.091a29.355,29.355,0,0,1,4.368-.781c.858,0,.936-.077,2.34-.077s4.446-.234,4.446-.234S145.993,312.736,145.681,313.594Z" transform="translate(-81.994 -212.409)" fill="#181819"/><path d="M125.528,211.912a11.342,11.342,0,0,0,.994,1.707c.331.331,1.106.111,1.106.111s-.332-2.654-.443-3.76a35.6,35.6,0,0,1,.111-4.975c.109-.663.5-3.263.5-3.263a10.672,10.672,0,0,0,3.483.5c2.655.11,5.2-.221,6.856-.221s5.307-.332,5.639-.221,1.105,3.317,1.438,4.312,1.325,2.654,1.437,3.1.221,2.654.221,2.654.555.443,1.327-.995a12,12,0,0,0,1-2.433,4.253,4.253,0,0,0,.179-1.128c.038-.6.04-1.3.04-1.857,0-1-.441-2.212-.441-3.318s.332-3.317-1.548-4.312-2.544-2.1-3.649-2.654-3.76-3.649-8.4-2.543-7.85,4.975-8.515,5.307a4.963,4.963,0,0,0-2.542,4.091c-.112,2.432,0,7.3.332,8.071C124.8,210.45,125.16,211.2,125.528,211.912Z" transform="translate(-97.841 -192.374)" fill="#2d2d2e"/><path d="M140.773,266.04l2.076,8.893,3.419-9.9-2.921-2.921C142.264,263.6,141.3,265.162,140.773,266.04Z" transform="translate(-104.028 -218.515)" fill="#e9e8e5"/><path d="M152.574,243.141c0,.021-.012.046-.017.07-.438,1.775-3.515,7.9-7.686,8.045-4.226.149-8.751-5.871-8.751-5.871s-.015.036-.036.094a2.031,2.031,0,0,0-.1.946c.007.039.011.079.021.118.085.316.489,4.066,1.048,7.488.432,2.652.957,5.107,1.5,5.613,0,0,.152-.288.411-.753.512-.92,1.443-2.537,2.453-4.024a21.108,21.108,0,0,1,1.594-2.1c.063-.071.125-.141.186-.206a2.891,2.891,0,0,1,1.525-1.046,3.254,3.254,0,0,1,1.9.89,13.441,13.441,0,0,1,1.018.888,24.259,24.259,0,0,1,1.795,1.937,15.261,15.261,0,0,1,2.307,3.426,13.437,13.437,0,0,0-2.451-3.288l-2.017,1.925,2.841,7.552c.574-2.079,1.138-4.142,1.66-6.08a.409.409,0,0,1,.013.043l.013-.029c.055-.118.109-.246.164-.375a42.438,42.438,0,0,0,1.7-5.187,23.832,23.832,0,0,0,.818-3.944c0-1.085.038-2.73.038-3.291s-.071-1.167-.071-1.167S153.921,243.1,152.574,243.141Z" transform="translate(-102.226 -211.405)" fill="#e9e8e5"/></g></g></g></g><g transform="translate(811.313 382.573)"><path d="M1.75,61.4l.005,0L0,60.38v3.395a.377.377,0,0,0,.566.326l1-.575A.377.377,0,0,0,1.75,63.2Z" transform="translate(0 -58.64)" fill="#8e6f16"/><path d="M0,1.783,1.756,2.8l1.557-.9A.378.378,0,0,0,3.5,1.572V.421A.377.377,0,0,0,2.935.094Z" transform="translate(0 -0.043)" fill="#e4b940"/><path d="M70.349,267.3l-1.562-.9a.376.376,0,0,0-.377,0l-1,.574a.377.377,0,0,0,0,.653l2.941,1.7v-2.027Z" transform="translate(-65.288 -258.666)" fill="#e4b940"/><path d="M178.709,267.585a.377.377,0,0,0,0-.653l-1-.577a.376.376,0,0,0-.377,0l-1.555.9v2.028Z" transform="translate(-170.712 -258.627)" fill="#8e6f16"/><path d="M233.222,1.755,230.275.065a.377.377,0,0,0-.565.327V1.544a.377.377,0,0,0,.189.327l1.562.9h0Z" transform="translate(-223.087 -0.015)" fill="#8e6f16"/><path d="M290.41,61.417v1.8a.377.377,0,0,0,.19.327l1,.577a.377.377,0,0,0,.566-.326l.01-3.4Z" transform="translate(-282.037 -58.659)" fill="#e4b940"/><path d="M106.471,71.714l1.874-1.081a.188.188,0,0,0,0-.326l-1.874-1.079a.188.188,0,0,0-.188,0l-1.871,1.079a.189.189,0,0,0,0,.327l1.872,1.081A.188.188,0,0,0,106.471,71.714Z" transform="translate(-101.31 -67.207)" fill="url(#b)"/><path d="M179.05,125.735V127.9a.189.189,0,0,0,.283.163l1.872-1.08a.189.189,0,0,0,.093-.165v-2.162a.189.189,0,0,0-.283-.163l-1.872,1.081A.189.189,0,0,0,179.05,125.735Z" transform="translate(-173.887 -120.876)" fill="url(#c)"/><path d="M94.5,124.673v2.162a.189.189,0,0,0,.094.163l.591.341,1.28.739a.189.189,0,0,0,.283-.163v-2.162a.189.189,0,0,0-.094-.163l-1.872-1.081a.189.189,0,0,0-.283.164Z" transform="translate(-91.775 -120.895)" fill="url(#d)"/></g><g transform="translate(1007.313 283.573)"><path d="M1.75,61.4l.005,0L0,60.38v3.395a.377.377,0,0,0,.566.326l1-.575A.377.377,0,0,0,1.75,63.2Z" transform="translate(0 -58.64)" fill="#8e6f16"/><path d="M0,1.783,1.756,2.8l1.557-.9A.378.378,0,0,0,3.5,1.572V.421A.377.377,0,0,0,2.935.094Z" transform="translate(0 -0.043)" fill="#e4b940"/><path d="M70.349,267.3l-1.562-.9a.376.376,0,0,0-.377,0l-1,.574a.377.377,0,0,0,0,.653l2.941,1.7v-2.027Z" transform="translate(-65.288 -258.666)" fill="#e4b940"/><path d="M178.709,267.585a.377.377,0,0,0,0-.653l-1-.577a.376.376,0,0,0-.377,0l-1.555.9v2.028Z" transform="translate(-170.712 -258.627)" fill="#8e6f16"/><path d="M233.222,1.755,230.275.065a.377.377,0,0,0-.565.327V1.544a.377.377,0,0,0,.189.327l1.562.9h0Z" transform="translate(-223.087 -0.015)" fill="#8e6f16"/><path d="M290.41,61.417v1.8a.377.377,0,0,0,.19.327l1,.577a.377.377,0,0,0,.566-.326l.01-3.4Z" transform="translate(-282.037 -58.659)" fill="#e4b940"/><path d="M106.471,71.714l1.874-1.081a.188.188,0,0,0,0-.326l-1.874-1.079a.188.188,0,0,0-.188,0l-1.871,1.079a.189.189,0,0,0,0,.327l1.872,1.081A.188.188,0,0,0,106.471,71.714Z" transform="translate(-101.31 -67.207)" fill="url(#b)"/><path d="M179.05,125.735V127.9a.189.189,0,0,0,.283.163l1.872-1.08a.189.189,0,0,0,.093-.165v-2.162a.189.189,0,0,0-.283-.163l-1.872,1.081A.189.189,0,0,0,179.05,125.735Z" transform="translate(-173.887 -120.876)" fill="url(#c)"/><path d="M94.5,124.673v2.162a.189.189,0,0,0,.094.163l.591.341,1.28.739a.189.189,0,0,0,.283-.163v-2.162a.189.189,0,0,0-.094-.163l-1.872-1.081a.189.189,0,0,0-.283.164Z" transform="translate(-91.775 -120.895)" fill="url(#d)"/></g><g transform="translate(734.159 180.261)" opacity="0.253"><path d="M69.769,228.522V192h-14.2v36.522H53.537V201.131h-14.2v27.392H37.3V212.29H23.1v16.232H16v2.029H76.87v-2.029Z" transform="translate(0 -139.716)" fill="#fff"/><path d="M114.021,67.5a2.023,2.023,0,0,0,1.014-3.777V54.313H127.4a3.036,3.036,0,1,0,3.871-3.871V40.109h8.2a7.1,7.1,0,1,0,0-2.029h-9.212a1.015,1.015,0,0,0-1.015,1.015V50.441a3.03,3.03,0,0,0-1.842,1.842H114.021a1.015,1.015,0,0,0-1.015,1.015V63.724a2.023,2.023,0,0,0,1.015,3.777ZM147.5,40.109h-2.029a3.044,3.044,0,1,1-.02-6.087l.02-1.034,2.029.039-.019,1h.019a3.043,3.043,0,0,1,3.044,3.044h-2.029a1.015,1.015,0,0,0-1.014-1.015h-2.029a1.015,1.015,0,1,0,0,2.029H147.5a3.044,3.044,0,0,1,0,6.087v1.015h-2.029V44.167a3.043,3.043,0,0,1-3.044-3.044h2.029a1.015,1.015,0,0,0,1.015,1.015H147.5a1.015,1.015,0,0,0,0-2.029Z" transform="translate(-83.818 0)" fill="#fff"/></g><g transform="translate(821.198 71.026)"><path d="M398.6,216.988c-.512-2.234-2.236-9.871-2.061-10.657l.205-.923,1.466-2.518a20.5,20.5,0,0,0-1.514-1.779,4.3,4.3,0,0,0-1.168-.92l-.025-.012h-.011a1.688,1.688,0,0,0-.593.054c-.061.017-.12.04-.18.061l-.033.016-.063.03a5.432,5.432,0,0,0-1.155.92c-.459.448-.966,1.008-1.483,1.612l1.529,2.793-2.489,14.273-.044.252,3.087,18.661,4.672-21.248S398.69,217.375,398.6,216.988Z" transform="translate(-45.568 -52.074)" fill="#e4b940"/><path d="M401.1,200.218c-.053-.011-.106-.022-.161-.028h-.015l.011,0C400.992,200.2,401.047,200.207,401.1,200.218Z" transform="translate(-50.95 -52.083)" fill="#e2484a"/><path d="M398.088,171.437s-4.409,4.094-5.8,4.473a15.53,15.53,0,0,1-6.047-.315c-1.891-.441-5.5-4.882-5.5-4.882s-.011.564-.02,1.344c-.007.685-.012,1.536-.007,2.32.011.045.023.091.037.139.784,2.637,6.562,8.135,6.562,8.135l.425.4,1.374,1.3c.023,0,.048-.011.071-.013l-.023.011c.06-.02.118-.043.18-.061a1.689,1.689,0,0,1,.593-.054l0,0-.008,0h.006l1.264-1.3s4.9-5.6,6.35-7.868l.021-.033a3.846,3.846,0,0,0,.338-.624c.042-.112.079-.157.111-.156a23.78,23.78,0,0,0,.073-2.644C398.09,171.495,398.088,171.437,398.088,171.437Z" transform="translate(-40.009 -36.126)" fill="#e2b4a4"/><path d="M378.928,345.811c-1.4,1.35-5.2,5.045-5.2,5.388s.911,2.827,2.214,3.565a13.607,13.607,0,0,1,2.238-.962,28.443,28.443,0,0,0,5.376-4.283,15.962,15.962,0,0,0,.252-3.192s-1.6-.168-3.192-.168A5.11,5.11,0,0,1,378.928,345.811Z" transform="translate(-36.227 -130.908)" fill="#e2b4a4"/><path d="M373.383,136.129s.757,3.992.757,5.092c0,.445.011,1.565.024,2.741.01-.852.022-1.468.022-1.468s3.945,4.852,6.01,5.333a16.949,16.949,0,0,0,6.606.344c1.514-.413,6.331-4.886,6.331-4.886s0,.064.006.175c.039-.277.062-.45.062-.45s1.032-5.368,1.032-6.813c1.514.275,2.2-1.445,2.34-2.546s1.445-6.331-.206-5.78l-.047.012a25.411,25.411,0,0,1-2.293,4.392,28.4,28.4,0,0,1-.619-4.129c0-1.1-.275-4.61-.413-6.881s-1.72-2.271-3.1-1.789-5.918.757-8.877.757a40.62,40.62,0,0,1-5.849-.482s-.9,2.2-1.17,2.821-.276,4.748-.206,6.607-.276,5.024-.688,4.2-1.514-3.992-2.34-5.712h0c-.4.157-.712.527-.688,1.309.068,2.2.757,3.647.757,4.886s-.128,1.484,1.17,2.133A3.7,3.7,0,0,0,373.383,136.129Z" transform="translate(-34.252 -8.253)" fill="#f5c2b0"/><path d="M394.5,338.55s-2.6-.421-4.2-.755-2.183-1.092-3.7-.421-4.032.252-4.956.252-3.78-1.848-3.527.251c.177,1.471,1.671,2.569,3.1,3.1a5.11,5.11,0,0,0,1.687.348c1.6,0,3.192.168,3.192.168a15.96,15.96,0,0,1-.252,3.192,28.441,28.441,0,0,1-5.376,4.283,13.6,13.6,0,0,0-2.238.962.933.933,0,0,0-.2,1.054c.42,1.428,1.427,1.511,1.427,1.511s.421,2.352,2.184,2.436a8.276,8.276,0,0,0,4.032,1.68,3.8,3.8,0,0,0,4.115.168c1.428-.84,2.352-2.436,3.948-3.192a9.431,9.431,0,0,0,3.611-3.359,10.817,10.817,0,0,1,1.932-3.024,9.707,9.707,0,0,1,1.6-1.176S398.617,339.726,394.5,338.55Z" transform="translate(-38.523 -126.071)" fill="#f5c2b0"/><path d="M322.657,388.486a12.441,12.441,0,0,0,2.523.8c1.261.229,2.179,3.1,6.766,3.9s8.027,1.261,8.027,1.261,1.949-2.982,2.752-4.587a6.273,6.273,0,0,0,.279-3.737,10.563,10.563,0,0,1-.8-2.814,28.687,28.687,0,0,0-1.47-4.872c-.8-2.435-2.225-6.005-2.225-6.005a7.793,7.793,0,0,0,2.31-5.88c-.168-3.7-.546-11.633-.168-13.1a97.693,97.693,0,0,0,1.386-11.76c-.168-.924.966-5.418.839-7.1,0,0,3.15-22.175,3.57-24.442s3.7-16.757,4.032-17.723a15.57,15.57,0,0,1,.881-1.974s.839-.252,1.3,1.512a20.43,20.43,0,0,1,.84,6.173c-.042,2.73,1.68,16.085,2.016,20.327s1.638,15.035,2.016,16.42.714,1.639.8,2.353-.672,1.974-.252,3.276a3.812,3.812,0,0,1,.294,2.688,21.576,21.576,0,0,0,.378,5.46c.252,1.805-.294,4.157-.168,5.879S357.492,367.016,358,369.7s.378,6.131,1.68,8.441,2.016,2.268,1.049,4.074-.923,2.31-1.512,2.687-2.856.673-1.974,3.024c0,0,1.424,4.225,1.309,4.8s4.243.688,8.6.115,8.6-2.982,8.83-3.67-.555-3.763-.555-3.763c.294-1.932.713-1.3.336-3.234s.251-3.486.462-6.551.042-12.053-.042-12.852,1.176-11.087,1.217-14.4-.126-8.777-.378-10.625-.5-18.772-.5-21.922,1.26-15.748,1.428-18.226,0-6.342.294-8.357.462-3.4.462-3.4.8.63.546-1.974-.84-7.769-.84-10.2a37.449,37.449,0,0,1,.294-3.78,46.318,46.318,0,0,0-.84-7.9,24.464,24.464,0,0,1-.42-3.654,38.921,38.921,0,0,1,4.619-5.375,19.65,19.65,0,0,0,4.578-5.8c.839-1.764,3.443-7.1,3.653-10.2s.042-3.486.546-5.586a16.487,16.487,0,0,0,.336-5.376c-.126-1.386-1.638-10.415-1.763-12.725a14.729,14.729,0,0,0-1.806-6.174c-.8-1.26-.5-2.352-.672-3.612s-.84-2.519-.923-3.822.209-2.141-.378-3.024-1.848-2.436-1.806-3.611.546-3.444-1.386-3.024c-2.352-1.26-12.935-4.788-13.564-5s-3.864-1.554-3.864-1.554l-2.184-3.507-.2-.727c.06.6.07,1.419.07,1.419a10.7,10.7,0,0,1-.42,3.528c-.5,1.071-2.079,7.5-2.331,8.5-.045.18-.19.9-.4,1.973a19.043,19.043,0,0,0-3.614-5.3,3.371,3.371,0,0,0-1.054-.648c-.033-.012-.066-.024-.1-.034a1.813,1.813,0,0,0-.178-.044c-.055-.011-.11-.021-.165-.027l-.011,0c-.015,0-.031-.006-.046-.007l-.01,0,.008,0,.007,0,.025.012a4.3,4.3,0,0,1,1.168.92,20.492,20.492,0,0,1,1.514,1.779c.985,1.277,1.922,2.677,2.432,3.462-.487,2.5-1.3,6.79-2.042,10.635.088.386.141.615.141.615l-4.672,21.248-3.087-18.661.044-.252c-.244-1.476-.422-2.519-.484-2.82-.191-.918-1.218-5.826-2.08-9.727.572-.786,1.713-2.326,3.1-4.019.008-.011.215-.259.421-.5.516-.6,1.024-1.165,1.483-1.612a5.431,5.431,0,0,1,1.155-.92l.063-.03.033-.016.023-.011c-.023,0-.048.01-.071.013a1.64,1.64,0,0,0-.254.046,4.047,4.047,0,0,0-1.36.789,21.62,21.62,0,0,0-4.626,6.119c-.545-2.462-1.019-4.494-1.165-4.81a46.06,46.06,0,0,1-1.386-5.8c-.185-1.111-.869-5.357.05-6.3a3.169,3.169,0,0,0-.89.924,9.2,9.2,0,0,1-2.058,1.932,10.431,10.431,0,0,1-2.1,1.134c-.547.21-5.921,2.184-7.307,2.562s-8.484,2.352-8.484,2.352-.839-.84-1.6.378-.672,3.444-1.3,4.872a28.952,28.952,0,0,0-1.512,3.737c-.462,1.512-2.436,8.736-2.9,11a63.965,63.965,0,0,0-.671,7.266c-.126,1.638-.966,9.869-.966,11.339s-.042,7.391.127,9.071a13.738,13.738,0,0,0,2.771,7.643c2.226,2.646,7.9,11.256,8.567,11.8s.588.882.588.882-.8,6.845-.8,9.281a44.721,44.721,0,0,1-.8,7.35c-.252,1.05-1.68,8.189-1.89,9.617s-.5,2.436.042,2.814c-.126,1.68-.126,4.62-.126,5.88s.882,16.295.924,18.94.378,3.486.21,5.669,0,4.536-.084,6.089-.042,9.114-.168,10.878-1.386,8.19-1.386,9.617-.378,9.366-.126,11.717.336,7.938.42,8.945,0,6.846,0,8.105.084,6.342.126,6.8a6.362,6.362,0,0,0,1.26,2.31,5.237,5.237,0,0,1,.8,1.217s-.378.294-.882.672C322.547,383.094,322.657,388.486,322.657,388.486Zm42.563-126.88a10.816,10.816,0,0,0-1.932,3.024,9.431,9.431,0,0,1-3.611,3.359c-1.6.756-2.52,2.352-3.948,3.192a3.8,3.8,0,0,1-4.115-.168,8.276,8.276,0,0,1-4.032-1.68c-1.764-.084-2.184-2.436-2.184-2.436s-1.008-.083-1.427-1.511a.933.933,0,0,1,.2-1.054c-1.3-.738-2.214-3.209-2.214-3.565s3.8-4.037,5.2-5.388c-1.429-.527-2.924-1.625-3.1-3.1-.252-2.1,2.6-.251,3.527-.251s3.444.42,4.956-.252,2.1.085,3.7.421,4.2.755,4.2.755c4.115,1.176,6.383,7.476,6.383,7.476A9.707,9.707,0,0,0,365.22,261.605Z" transform="translate(-4.453 -40.475)" fill="#181819"/><path d="M370.962,119.411c.826,1.721,1.927,4.886,2.34,5.712s.757-2.34.688-4.2-.069-5.987.206-6.607,1.17-2.821,1.17-2.821a40.62,40.62,0,0,0,5.849.482c2.959,0,7.5-.275,8.877-.757s2.96-.482,3.1,1.789.413,5.78.413,6.881a28.4,28.4,0,0,0,.619,4.129,25.412,25.412,0,0,0,2.293-4.392c.043-.1.082-.2.115-.288.551-1.445.276-4.886-1.1-7.5s-2.477-2.959-2.477-2.959-.276-4.2-5.368-4.748-11.974.206-13.694,3.923-3.1,4.2-3.3,6.331-.549,3.3.275,5.022Z" transform="translate(-34.446 0)" fill="#2d2d2e"/><path d="M409.072,179.032c-.035-.351-.088-.627-.166-.627-.032,0-.069.044-.111.156a3.846,3.846,0,0,1-.338.624l-.021.033c-1.447,2.27-6.35,7.868-6.35,7.868l-1.261,1.3c.015,0,.031.005.046.007h.015c.055.006.108.017.161.028s.119.026.178.044c.033.011.066.022.1.034a3.37,3.37,0,0,1,1.054.648,19.043,19.043,0,0,1,3.614,5.3c.208-1.069.353-1.793.4-1.973.252-1.008,1.827-7.433,2.331-8.5a10.7,10.7,0,0,0,.42-3.528S409.132,179.635,409.072,179.032Z" transform="translate(-50.896 -40.29)" fill="#fff"/><path d="M403.288,208.616l-.205.923c-.175.786,1.549,8.423,2.061,10.657.738-3.846,1.555-8.137,2.042-10.635-.511-.785-1.448-2.185-2.432-3.462Z" transform="translate(-52.111 -55.281)" fill="#fff"/><path d="M385.49,210.576c.862,3.9,1.888,8.809,2.08,9.727.063.3.241,1.344.484,2.82l2.489-14.273-1.529-2.793C387.613,207.7,386.16,209.654,385.49,210.576Z" transform="translate(-42.594 -55.259)" fill="#fff"/><path d="M386.359,186.775s-5.778-5.5-6.562-8.135c-.014-.047-.026-.093-.037-.139s-.028-.114-.036-.168l-.189.105-.063.021c-.02.017-.036.044-.055.063-.92.943-.236,5.189-.05,6.3a46.054,46.054,0,0,0,1.386,5.8c.146.316.62,2.348,1.165,4.81a21.62,21.62,0,0,1,4.626-6.119,4.047,4.047,0,0,1,1.36-.789,1.639,1.639,0,0,1,.254-.046l-1.374-1.3Z" transform="translate(-39.053 -40.252)" fill="#fff"/><path d="M400.815,200.182h.007l0,0Z" transform="translate(-50.89 -52.077)" fill="#e9e8e5"/><path d="M411.4,640.827c-.584-3.171.114,4.8.618,5.048a36.857,36.857,0,0,0,5,.756,24.873,24.873,0,0,0,2.981-.336c.421-.126.127.923,1.891,1.428a46.966,46.966,0,0,0,10.247.546c2.436-.21,4.7-.8,4.7-1.722.294-1.049.672-2.31-.714-2.6s-2.561-.336-3.36-1.26-4.022-4.048-4.736-5.182Z" transform="translate(-56.498 -288.802)" fill="#121212"/><path d="M319.064,633.509s-5.586,6.131-6.3,6.678a22.786,22.786,0,0,1-2.814,1.511s-2.73-.588-3.066,1.555.462,1.763.462,1.763a37.706,37.706,0,0,0,8.945,1.344,28.719,28.719,0,0,0,7.307-.882s1.764-1.3,1.89-1.428a36.473,36.473,0,0,1,3.863.42l4.956-.545s.839-.042.756-.588a21.991,21.991,0,0,1,0-2.394,1.151,1.151,0,0,0,.378-.756Z" transform="translate(0 -286.641)" fill="#121212"/><g transform="translate(360.115 160.547)"><path d="M1.75,61.4l.005,0L0,60.38v3.395a.377.377,0,0,0,.566.326l1-.575A.377.377,0,0,0,1.75,63.2Z" transform="translate(0 -58.64)" fill="#8e6f16"/><path d="M0,1.783,1.756,2.8l1.557-.9A.378.378,0,0,0,3.5,1.572V.421A.377.377,0,0,0,2.935.094Z" transform="translate(0 -0.043)" fill="#e4b940"/><path d="M70.349,267.3l-1.562-.9a.376.376,0,0,0-.377,0l-1,.574a.377.377,0,0,0,0,.653l2.941,1.7v-2.027Z" transform="translate(-65.288 -258.666)" fill="#e4b940"/><path d="M178.709,267.585a.377.377,0,0,0,0-.653l-1-.577a.376.376,0,0,0-.377,0l-1.555.9v2.028Z" transform="translate(-170.712 -258.627)" fill="#8e6f16"/><path d="M233.222,1.755,230.275.065a.377.377,0,0,0-.565.327V1.544a.377.377,0,0,0,.189.327l1.562.9h0Z" transform="translate(-223.087 -0.015)" fill="#8e6f16"/><path d="M290.41,61.417v1.8a.377.377,0,0,0,.19.327l1,.577a.377.377,0,0,0,.566-.326l.01-3.4Z" transform="translate(-282.037 -58.659)" fill="#e4b940"/><path d="M106.471,71.714l1.874-1.081a.188.188,0,0,0,0-.326l-1.874-1.079a.188.188,0,0,0-.188,0l-1.871,1.079a.189.189,0,0,0,0,.327l1.872,1.081A.188.188,0,0,0,106.471,71.714Z" transform="translate(-101.31 -67.207)" fill="url(#b)"/><path d="M179.05,125.735V127.9a.189.189,0,0,0,.283.163l1.872-1.08a.189.189,0,0,0,.093-.165v-2.162a.189.189,0,0,0-.283-.163l-1.872,1.081A.189.189,0,0,0,179.05,125.735Z" transform="translate(-173.887 -120.876)" fill="url(#c)"/><path d="M94.5,124.673v2.162a.189.189,0,0,0,.094.163l.591.341,1.28.739a.189.189,0,0,0,.283-.163v-2.162a.189.189,0,0,0-.094-.163l-1.872-1.081a.189.189,0,0,0-.283.164Z" transform="translate(-91.775 -120.895)" fill="url(#d)"/></g></g><g transform="translate(822.871 140.341)" opacity="0.348"><g transform="translate(225.022 143.752)"><line y2="12.461" transform="translate(6.252 28.614)" fill="none" stroke="#e9f2f4" stroke-miterlimit="10" stroke-width="0.25"/><g transform="translate(0 21.495)"><path d="M237.525,168.284a6.252,6.252,0,1,1-6.252-6.251A6.252,6.252,0,0,1,237.525,168.284Z" transform="translate(-225.022 -162.033)" fill="#ccc"/></g><line y2="12.098" transform="translate(6.252 8.161)" fill="none" stroke="#e9f2f4" stroke-miterlimit="10" stroke-width="0.25"/><path d="M237.525,150a6.252,6.252,0,1,1-6.252-6.25A6.252,6.252,0,0,1,237.525,150Z" transform="translate(-225.022 -143.752)" fill="#ccc"/><g transform="translate(2.866 1.308)"><path d="M230.35,152.761l-2.891-3.722,2.62,1.1,6.025-5.27Z" transform="translate(-227.459 -144.865)" fill="#fff"/></g><g transform="translate(0 43.408)"><path d="M237.525,186.921a6.252,6.252,0,1,1-6.252-6.251A6.252,6.252,0,0,1,237.525,186.921Z" transform="translate(-225.022 -180.67)" fill="#ccc"/></g><g transform="translate(2.866 22.309)"><path d="M230.35,170.622l-2.891-3.722,2.62,1.1,6.025-5.27Z" transform="translate(-227.459 -162.726)" fill="#fff"/></g><g transform="translate(2.866 44.467)"><path d="M230.35,189.467l-2.891-3.722,2.62,1.1,6.025-5.27Z" transform="translate(-227.459 -181.57)" fill="#fff"/></g></g><rect width="25.549" height="3.45" rx="1.725" transform="translate(241.219 145.722)" fill="#ccc"/><rect width="44.715" height="9.622" rx="4.811" transform="translate(241.219 150.629)" fill="#fff"/><rect width="44.715" height="9.622" rx="4.811" transform="translate(241.219 172.031)" fill="#fff"/><rect width="44.715" height="9.622" rx="4.811" transform="translate(241.219 193.704)" fill="#fff"/><rect width="25.549" height="3.45" rx="1.725" transform="translate(241.219 167.357)" fill="#ccc"/><rect width="25.549" height="3.449" rx="1.725" transform="translate(241.219 188.826)" fill="#ccc"/></g></g></svg>