<svg xmlns="http://www.w3.org/2000/svg" xmlns:xlink="http://www.w3.org/1999/xlink" width="1157.217" height="453.397" viewBox="0 0 1157.217 453.397"><defs><linearGradient id="a" x1="0.5" x2="0.5" y2="1" gradientUnits="objectBoundingBox"><stop offset="0" stop-color="#e4b940"/><stop offset="1" stop-color="#8e6f16"/></linearGradient><linearGradient id="b" x1="0.609" y1="0.5" x2="1.019" y2="0.5" gradientUnits="objectBoundingBox"><stop offset="0" stop-color="#e0aa10"/><stop offset="1" stop-color="#e4b940"/></linearGradient><linearGradient id="c" x1="0.146" y1="0.854" x2="0.952" y2="0.026" gradientUnits="objectBoundingBox"><stop offset="0" stop-color="#565a6f"/><stop offset="1" stop-color="#3e4257"/></linearGradient><filter id="d" x="0" y="31.608" width="1157.217" height="421.789" filterUnits="userSpaceOnUse"><feOffset input="SourceAlpha"/><feGaussianBlur stdDeviation="5" result="e"/><feFlood/><feComposite operator="in" in2="e"/><feComposite in="SourceGraphic"/></filter><filter id="g" x="420.845" y="0" width="315.526" height="188.017" filterUnits="userSpaceOnUse"><feOffset dy="10" input="SourceAlpha"/><feGaussianBlur stdDeviation="15" result="h"/><feFlood flood-opacity="0.302"/><feComposite operator="in" in2="h"/><feComposite in="SourceGraphic"/></filter><linearGradient id="i" x1="0.488" y1="0.157" x2="0.516" y2="0.952" gradientUnits="objectBoundingBox"><stop offset="0" stop-color="#e4b940"/><stop offset="0.31" stop-color="#e1b73f"/><stop offset="0.5" stop-color="#d9af3a"/><stop offset="0.67" stop-color="#caa233"/><stop offset="0.81" stop-color="#b59029"/><stop offset="0.95" stop-color="#9a791c"/><stop offset="1" stop-color="#8e6f16"/></linearGradient><linearGradient id="j" x1="0.094" y1="0.346" x2="0.901" y2="0.652" xlink:href="#i"/><linearGradient id="k" x1="-0.197" y1="0.254" x2="1.197" y2="0.746" xlink:href="#i"/></defs><g transform="translate(432.937 -167.555)"><path d="M149.578,342.85l-48.316,17.7-48.316-17.7Z" transform="translate(44.339 211.892)" fill="url(#a)"/><path d="M15-40,570.736,0,1127-40a15,15,0,0,1,15,15V304a15,15,0,0,1-15,15L570.555,369,15,319A15,15,0,0,1,0,304V-25A15,15,0,0,1,15-40Z" transform="translate(-425.328 245.055)" stroke="#e4b940" stroke-width="4" fill="url(#b)"/><g transform="matrix(1, 0, 0, 1, -432.94, 167.55)" filter="url(#d)"><path d="M-15-42,532.862-2.654,1081.212-42a14,14,0,0,1,14,14V284.1a14,14,0,0,1-14,14l-548.52,48.682L-15,298.1a14,14,0,0,1-14-14V-28A14,14,0,0,1-15-42Z" transform="translate(45.5 90.11)" stroke="#e4b940" stroke-width="3" fill="url(#c)"/></g><g transform="matrix(1, 0, 0, 1, -432.94, 167.55)" filter="url(#g)"><path d="M42.947-41,150.194-27.474,257.579-41a3.947,3.947,0,0,1,3.947,3.947V32.895c0,2.18-1.767,4.947-3.947,4.947L150.146,54,42.947,37.842c-2.18,0-3.947-2.767-3.947-4.947V-37.053A3.947,3.947,0,0,1,42.947-41Z" transform="translate(428.35 77.5)" stroke="#e4b940" stroke-width="3" fill="url(#c)"/></g><g transform="translate(121.092 231.719)"><path d="M8.619,65.388l.027-.016L0,60.38V77.1a1.856,1.856,0,0,0,2.786,1.607l4.9-2.831a1.854,1.854,0,0,0,.929-1.609Z" transform="translate(0 -51.808)" fill="#8e6f16"/><path d="M0,8.611,8.646,13.6l7.668-4.425a1.862,1.862,0,0,0,.929-1.609V1.9A1.859,1.859,0,0,0,14.454.293Z" transform="translate(0 -0.039)" fill="#e4b940"/><path d="M82.608,271.034l-7.691-4.44a1.854,1.854,0,0,0-1.857,0l-4.9,2.826a1.857,1.857,0,0,0,0,3.218L82.639,281v-9.984Z" transform="translate(-57.68 -228.527)" fill="#e4b940"/><path d="M190.207,272.61a1.857,1.857,0,0,0,0-3.216l-4.91-2.84a1.854,1.854,0,0,0-1.857,0l-7.659,4.422v9.99Z" transform="translate(-150.82 -228.492)" fill="#8e6f16"/><path d="M247.007,8.587,232.492.261a1.857,1.857,0,0,0-2.782,1.612V7.546a1.859,1.859,0,0,0,.929,1.609l7.691,4.44h0Z" transform="translate(-197.092 -0.015)" fill="#8e6f16"/><path d="M290.41,65.407v8.876a1.855,1.855,0,0,0,.936,1.609l4.913,2.84a1.857,1.857,0,0,0,2.786-1.6l.05-16.729Z" transform="translate(-249.173 -51.825)" fill="#e4b940"/><path d="M114.923,81.575l9.23-5.325a.927.927,0,0,0,0-1.607l-9.23-5.316a.924.924,0,0,0-.927,0l-9.213,5.316a.929.929,0,0,0,0,1.609L114,81.575A.927.927,0,0,0,114.923,81.575Z" transform="translate(-89.505 -59.378)" fill="url(#i)"/><path d="M179.05,130.722v10.65a.929.929,0,0,0,1.393.8l9.217-5.319a.931.931,0,0,0,.459-.815v-10.65a.929.929,0,0,0-1.393-.8l-9.217,5.323A.93.93,0,0,0,179.05,130.722Z" transform="translate(-153.625 -106.792)" fill="url(#j)"/><path d="M94.5,125.416v10.65a.931.931,0,0,0,.464.805l2.912,1.681,6.3,3.638a.929.929,0,0,0,1.393-.805v-10.65a.93.93,0,0,0-.464-.8l-9.217-5.323a.929.929,0,0,0-1.393.808Z" transform="translate(-81.081 -106.81)" fill="url(#k)"/></g><g transform="translate(3.732 249.531)" fill="none"><path d="M41.652-37,141.876-23.485,241.228-37a3.652,3.652,0,0,1,3.652,3.652V22.445a3.652,3.652,0,0,1-3.652,3.652l-99.4,14.95L41.652,26.1A3.652,3.652,0,0,1,38,22.445V-33.348A3.652,3.652,0,0,1,41.652-37Z" stroke="none"/><path d="M 41.54403686523438 -34.99650192260742 C 40.6832275390625 -34.9405632019043 39.99998474121094 -34.22244644165039 39.99998474121094 -33.34775543212891 L 39.99998474121094 22.44477081298828 C 39.99998474121094 23.35582733154297 40.74118041992188 24.09702110290527 41.65223693847656 24.09702110290527 L 41.8006591796875 24.09702110290527 L 41.94743347167969 24.11893844604492 L 141.8303833007813 39.02457046508789 L 240.9302368164063 24.11927032470703 L 241.0781555175781 24.09702110290527 L 241.2277069091797 24.09702110290527 C 242.1387634277344 24.09702110290527 242.8799591064453 23.35582733154297 242.8799591064453 22.44477081298828 L 242.8799591064453 -33.34775543212891 C 242.8799591064453 -34.22211074829102 242.1972198486328 -34.94001770019531 241.3368835449219 -34.99643707275391 L 142.1451873779297 -21.50322914123535 L 141.8767700195313 -21.46673011779785 L 141.6083221435547 -21.5029239654541 L 41.54403686523438 -34.99650192260742 M 41.65223693847656 -37.00000762939453 L 141.8755950927734 -23.4849796295166 L 241.2277069091797 -37.00000762939453 C 243.2448120117188 -37.00000762939453 244.8799591064453 -35.36484146118164 244.8799591064453 -33.34775543212891 L 244.8799591064453 22.44477081298828 C 244.8799591064453 24.46185493469238 243.2448120117188 26.09702110290527 241.2277069091797 26.09702110290527 L 141.8315734863281 41.04688262939453 L 41.65223693847656 26.09702110290527 C 39.63514709472656 26.09702110290527 37.99998474121094 24.46185493469238 37.99998474121094 22.44477081298828 L 37.99998474121094 -33.34775543212891 C 37.99998474121094 -35.36484146118164 39.63514709472656 -37.00000762939453 41.65223693847656 -37.00000762939453 Z" stroke="none" fill="#e4b940"/></g></g></svg>