<svg xmlns="http://www.w3.org/2000/svg" xmlns:xlink="http://www.w3.org/1999/xlink" width="403.557" height="396.464" viewBox="0 0 403.557 396.464"><defs><clipPath id="a"><path d="M474.86,224.6a23.049,23.049,0,0,0-14.249-7.2L175.444,188.32c-20.686-2.109-37.366,11.605-35.509,29.679l23.793,231.268c.944,9.166,6.676,16.528,14.863,20.636,6.38,6.38,16.2,9.852,27.016,8.744l247.7-25.351c11.643-1.19,21.174-11.561,22.153-23.888l14.253-179.042C490.592,239.312,484.2,228.809,474.86,224.6Z" transform="translate(-139.794 -188.106)" fill="none"/></clipPath><linearGradient id="b" x1="0.146" y1="0.146" x2="0.952" y2="0.974" gradientUnits="objectBoundingBox"><stop offset="0" stop-color="#565a6f"/><stop offset="1" stop-color="#3e4257"/></linearGradient><filter id="c" x="0" y="0" width="403.557" height="396.464" filterUnits="userSpaceOnUse"><feOffset dy="10" input="SourceAlpha"/><feGaussianBlur stdDeviation="15" result="d"/><feFlood flood-opacity="0.302"/><feComposite operator="in" in2="d"/><feComposite in="SourceGraphic"/></filter></defs><g transform="translate(20.239 52.472)"><path d="M198.092,473.278l247.7-25.351c11.643-1.19,21.171-11.561,22.153-23.888L482.194,245c1.08-13.554-8.776-26.289-21.583-27.6L175.447,188.32c-20.69-2.109-37.369,11.605-35.512,29.679l23.793,231.268C165.315,464.695,180.411,475.088,198.092,473.278Z" transform="translate(-139.794 -188.106)" fill="#b58a11"/><path d="M200.478,474.984l247.7-25.351c11.643-1.19,21.174-11.561,22.153-23.888L484.583,236.7c1.076-13.557-8.779-26.289-21.587-27.6L177.834,180.026c-20.69-2.109-37.369,11.605-35.509,29.679l23.793,241.268C167.7,466.4,182.8,476.794,200.478,474.984Z" transform="translate(-134.664 -184.442)" fill="#e4b940"/><g transform="matrix(1, 0, 0, 1, -20.24, -52.47)" filter="url(#c)"><path d="M407.157,467.487,181.12,434.351c-10.627-1.086-19.324-10.551-20.217-21.8L147.9,224.168c-.985-12.37,8.011-23.988,19.7-25.181l260.227-36.538c18.88-1.926,34.1,10.589,32.4,27.083L438.511,445.576C437.063,459.652,423.289,469.139,407.157,467.487Z" transform="translate(-102.31 -126.73)" stroke="#e4b940" stroke-width="1" fill="url(#b)"/></g></g></svg>