<svg xmlns="http://www.w3.org/2000/svg" xmlns:xlink="http://www.w3.org/1999/xlink" width="150.909" height="147.668" viewBox="0 0 150.909 147.668"><defs><linearGradient id="a" x1="0.5" x2="0.5" y2="1" gradientUnits="objectBoundingBox"><stop offset="0" stop-color="#e4b940"/><stop offset="1" stop-color="#8e6f16"/></linearGradient><filter id="b" x="0" y="0" width="150.909" height="147.668" filterUnits="userSpaceOnUse"><feOffset dy="10" input="SourceAlpha"/><feGaussianBlur stdDeviation="10" result="c"/><feFlood flood-opacity="0.4"/><feComposite operator="in" in2="c"/><feComposite in="SourceGraphic"/></filter></defs><g transform="translate(-60 23)"><g transform="matrix(1, 0, 0, 1, 60, -23)" filter="url(#b)"><g transform="translate(3009.2 -706.56)" fill="url(#a)"><path d="M -2933.742919921875 813.2275390625 C -2936.156005859375 813.2275390625 -2938.463623046875 812.4778442382813 -2940.416015625 811.0594482421875 L -2973.516845703125 787.0098876953125 C -2975.46923828125 785.591552734375 -2976.8955078125 783.6287231445313 -2977.64111328125 781.3336181640625 C -2978.38671875 779.0385131835938 -2978.38671875 776.6123046875 -2977.64111328125 774.3171997070313 L -2964.997314453125 735.4046020507813 C -2964.251953125 733.1094970703125 -2962.825927734375 731.1466064453125 -2960.87353515625 729.7281494140625 C -2958.92138671875 728.3097534179688 -2956.614013671875 727.5599975585938 -2954.20068359375 727.5599975585938 L -2913.28515625 727.5599975585938 C -2910.8720703125 727.5599975585938 -2908.564697265625 728.3097534179688 -2906.6123046875 729.7281494140625 C -2904.66015625 731.1466674804688 -2903.234130859375 733.1094970703125 -2902.488525390625 735.4046020507813 L -2889.8447265625 774.3171997070313 C -2889.09912109375 776.6123046875 -2889.09912109375 779.0385131835938 -2889.8447265625 781.3336181640625 C -2890.59033203125 783.6287231445313 -2892.0166015625 785.591552734375 -2893.96875 787.0098876953125 L -2927.070068359375 811.0594482421875 C -2929.022216796875 812.4778442382813 -2931.329833984375 813.2275390625 -2933.742919921875 813.2275390625 Z" stroke="none"/><path d="M -2933.742919921875 812.2275390625 C -2931.542236328125 812.2275390625 -2929.43798828125 811.5438842773438 -2927.65771484375 810.2504272460938 L -2894.556640625 786.2008056640625 C -2892.7763671875 784.907470703125 -2891.475830078125 783.1175537109375 -2890.7958984375 781.0245971679688 C -2890.11572265625 778.9317016601563 -2890.11572265625 776.7191772460938 -2890.7958984375 774.626220703125 L -2903.439453125 735.7135620117188 C -2904.119384765625 733.6206665039063 -2905.419921875 731.8306884765625 -2907.2001953125 730.5371704101563 C -2908.98046875 729.2437133789063 -2911.084716796875 728.5599975585938 -2913.28515625 728.5599975585938 L -2954.20068359375 728.5599975585938 C -2956.4013671875 728.5599975585938 -2958.505615234375 729.2437133789063 -2960.285888671875 730.5371704101563 C -2962.066162109375 731.8306884765625 -2963.366455078125 733.62060546875 -2964.04638671875 735.713623046875 L -2976.68994140625 774.626220703125 C -2977.3701171875 776.7191772460938 -2977.3701171875 778.9317016601563 -2976.68994140625 781.0245971679688 C -2976.010009765625 783.1174926757813 -2974.70947265625 784.907470703125 -2972.92919921875 786.2008666992188 L -2939.828125 810.2504272460938 C -2938.0478515625 811.5438842773438 -2935.943603515625 812.2275390625 -2933.742919921875 812.2275390625 M -2933.742919921875 814.2275390625 C -2936.290771484375 814.2275390625 -2938.8388671875 813.4412231445313 -2941.003662109375 811.8684692382813 L -2974.104736328125 787.8189086914063 C -2978.434326171875 784.6735229492188 -2980.245849609375 779.0977783203125 -2978.592041015625 774.0081787109375 L -2965.948486328125 735.0955810546875 C -2964.295166015625 730.0059204101563 -2959.55224609375 726.5599975585938 -2954.20068359375 726.5599975585938 L -2913.28515625 726.5599975585938 C -2907.933837890625 726.5599975585938 -2903.19091796875 730.0059204101563 -2901.537353515625 735.0955810546875 L -2888.893798828125 774.0081787109375 C -2887.239990234375 779.0977783203125 -2889.051513671875 784.6735229492188 -2893.381103515625 787.8189086914063 L -2926.482177734375 811.8684692382813 C -2928.64697265625 813.4412231445313 -2931.195068359375 814.2275390625 -2933.742919921875 814.2275390625 Z" stroke="none" fill="#e4b940"/></g></g><g transform="translate(115.001 8.063)"><g transform="translate(0 13.822)"><path d="M166.2,138.34h6.985c-.041-2.908.082-4.453-1.806-5.139a15.909,15.909,0,0,1-2.737-1.324l-1.315,4.167-.18.564-.588-1.675c1.356-1.9-.106-1.985-.359-1.985h-.016c-.253,0-1.716.09-.359,1.985l-.588,1.675-.18-.564-1.315-4.167a15.522,15.522,0,0,1-2.737,1.324c-1.887.686-1.765,2.239-1.806,5.139h7Z" transform="translate(-146.193 -122.233)" fill="#fff"/><path d="M200.176,20.82a3.509,3.509,0,0,0,2.149,2.663,2.373,2.373,0,0,0,1.577,0,3.556,3.556,0,0,0,2.157-2.655c.163-.016.384-.245.613-1.07.319-1.127-.016-1.291-.31-1.266a2.451,2.451,0,0,0,.123-.466c.482-2.917-.948-3.015-.948-3.015a2.179,2.179,0,0,0-.866-.8,2.941,2.941,0,0,0-1.773-.376,2.289,2.289,0,0,0-.711.139h0a3.03,3.03,0,0,0-.776.4,4.108,4.108,0,0,0-.8.662,3.212,3.212,0,0,0-.866,1.52,3.266,3.266,0,0,0,.008,1.487h0a2.451,2.451,0,0,0,.123.466c-.286-.025-.629.139-.31,1.266C199.792,20.575,200.013,20.812,200.176,20.82Z" transform="translate(-183.142 -13.822)" fill="#fff"/><path d="M12.181,398a15.908,15.908,0,0,1-2.737-1.324l-1.315,4.167-.18.564-.588-1.675c1.356-1.9-.106-1.985-.359-1.985H6.985c-.253,0-1.716.09-.359,1.985l-.588,1.675-.18-.564-1.315-4.167A15.522,15.522,0,0,1,1.806,398C-.082,398.688.041,400.24,0,403.14H13.987C13.946,400.24,14.069,398.688,12.181,398Z" transform="translate(0 -365.399)" fill="#fff"/><path d="M41.076,285.72a3.509,3.509,0,0,0,2.149,2.663,2.373,2.373,0,0,0,1.577,0,3.556,3.556,0,0,0,2.157-2.655c.163-.016.384-.245.613-1.07.319-1.127-.016-1.291-.31-1.266a2.452,2.452,0,0,0,.123-.466c.482-2.917-.948-3.015-.948-3.015a2.179,2.179,0,0,0-.866-.8,2.941,2.941,0,0,0-1.773-.376,2.288,2.288,0,0,0-.711.139h0a3.029,3.029,0,0,0-.776.4,4.107,4.107,0,0,0-.8.662,3.212,3.212,0,0,0-.866,1.52,3.266,3.266,0,0,0,.008,1.487h0a2.451,2.451,0,0,0,.123.466c-.286-.025-.629.139-.31,1.266C40.692,285.475,40.913,285.7,41.076,285.72Z" transform="translate(-37.04 -257.08)" fill="#fff"/><path d="M330.581,398a15.909,15.909,0,0,1-2.737-1.324l-1.315,4.167-.18.564-.588-1.675c1.356-1.9-.106-1.985-.359-1.985h-.016c-.253,0-1.716.09-.359,1.985l-.588,1.675-.18-.564-1.315-4.167A15.523,15.523,0,0,1,320.206,398c-1.887.686-1.765,2.239-1.806,5.139h13.987C332.346,400.24,332.46,398.688,330.581,398Z" transform="translate(-292.387 -365.399)" fill="#fff"/><path d="M359.376,285.72a3.509,3.509,0,0,0,2.149,2.663,2.373,2.373,0,0,0,1.577,0,3.556,3.556,0,0,0,2.157-2.655c.163-.016.384-.245.613-1.07.319-1.127-.016-1.291-.31-1.266a2.451,2.451,0,0,0,.123-.466c.482-2.917-.948-3.015-.948-3.015a2.18,2.18,0,0,0-.866-.8,2.941,2.941,0,0,0-1.773-.376,2.288,2.288,0,0,0-.711.139h0a3.029,3.029,0,0,0-.776.4,4.107,4.107,0,0,0-.8.662,3.212,3.212,0,0,0-.866,1.52,3.266,3.266,0,0,0,.008,1.487h0a2.45,2.45,0,0,0,.123.466c-.286-.025-.629.139-.31,1.266C358.992,285.475,359.213,285.7,359.376,285.72Z" transform="translate(-329.335 -257.08)" fill="#fff"/><path d="M181.629,248.106l-4.526-2.933v-5.392a1.1,1.1,0,1,0-2.206,0v5.392l-4.526,2.933a1.114,1.114,0,0,0-.327,1.528,1.137,1.137,0,0,0,1.528.327L176,247.085l4.428,2.876a1.11,1.11,0,0,0,.6.18,1.109,1.109,0,0,0,.6-2.034Z" transform="translate(-155.991 -220.307)" fill="#fff"/></g></g></g></svg>