<svg xmlns="http://www.w3.org/2000/svg" xmlns:xlink="http://www.w3.org/1999/xlink" width="409.809" height="384.456" viewBox="0 0 409.809 384.456"><defs><linearGradient id="a" x1="0.146" y1="0.146" x2="0.952" y2="0.974" gradientUnits="objectBoundingBox"><stop offset="0" stop-color="#565a6f"/><stop offset="1" stop-color="#3e4257"/></linearGradient><filter id="b" x="0" y="0" width="409.809" height="384.456" filterUnits="userSpaceOnUse"><feOffset dy="10" input="SourceAlpha"/><feGaussianBlur stdDeviation="15" result="c"/><feFlood flood-opacity="0.302"/><feComposite operator="in" in2="c"/><feComposite in="SourceGraphic"/></filter></defs><g transform="translate(16.508 14.448)"><g transform="translate(0.001)"><path d="M78.075,375.749,336.9,402.967c20.487,2.156,38.3-14.224,38.3-35.215v-257.9c0-21.117-18.029-37.539-38.622-35.179L60.567,106.329c-18.74,2.152-32.373,19.141-30.721,38.285L47.038,343.639A35.087,35.087,0,0,0,78.075,375.749Z" transform="translate(-29.71 -74.444)" fill="#b58a11"/><path d="M79.358,370.988,338.18,397.7a34.737,34.737,0,0,0,38.3-34.553V110.085A34.737,34.737,0,0,0,337.86,75.567L61.846,106.632A34.738,34.738,0,0,0,31.129,144.2L48.321,339.483A34.735,34.735,0,0,0,79.358,370.988Z" transform="translate(-26.482 -72.176)" fill="#e4b940"/></g><g transform="matrix(1, 0, 0, 1, -16.51, -14.45)" filter="url(#b)"><path d="M312.122,349.381,73.3,373.676c-18.9,1.923-35.345-12.7-35.345-31.431v-230.2c0-18.852,16.637-33.509,35.637-31.4L328.281,108.9a31.723,31.723,0,0,1,28.343,34.174L340.761,320.721A31.817,31.817,0,0,1,312.122,349.381Z" transform="translate(7.54 -44.91)" stroke="#e4b940" stroke-width="1" fill="url(#a)"/></g></g></svg>