<svg xmlns="http://www.w3.org/2000/svg" xmlns:xlink="http://www.w3.org/1999/xlink" width="150.909" height="147.668" viewBox="0 0 150.909 147.668"><defs><linearGradient id="a" x1="0.5" x2="0.5" y2="1" gradientUnits="objectBoundingBox"><stop offset="0" stop-color="#e4b940"/><stop offset="1" stop-color="#8e6f16"/></linearGradient><filter id="b" x="0" y="0" width="150.909" height="147.668" filterUnits="userSpaceOnUse"><feOffset dy="10" input="SourceAlpha"/><feGaussianBlur stdDeviation="10" result="c"/><feFlood flood-opacity="0.4"/><feComposite operator="in" in2="c"/><feComposite in="SourceGraphic"/></filter></defs><g transform="translate(-265 -547.115)"><g transform="matrix(1, 0, 0, 1, 265, 547.11)" filter="url(#b)"><g transform="translate(3009.2 -706.56)" fill="url(#a)"><path d="M -2933.742919921875 813.2275390625 C -2936.156005859375 813.2275390625 -2938.463623046875 812.4778442382813 -2940.416015625 811.0594482421875 L -2973.516845703125 787.0098876953125 C -2975.46923828125 785.591552734375 -2976.8955078125 783.6287231445313 -2977.64111328125 781.3336181640625 C -2978.38671875 779.0385131835938 -2978.38671875 776.6123046875 -2977.64111328125 774.3171997070313 L -2964.997314453125 735.4046020507813 C -2964.251953125 733.1094970703125 -2962.825927734375 731.1466064453125 -2960.87353515625 729.7281494140625 C -2958.92138671875 728.3097534179688 -2956.614013671875 727.5599975585938 -2954.20068359375 727.5599975585938 L -2913.28515625 727.5599975585938 C -2910.8720703125 727.5599975585938 -2908.564697265625 728.3097534179688 -2906.6123046875 729.7281494140625 C -2904.66015625 731.1466674804688 -2903.234130859375 733.1094970703125 -2902.488525390625 735.4046020507813 L -2889.8447265625 774.3171997070313 C -2889.09912109375 776.6123046875 -2889.09912109375 779.0385131835938 -2889.8447265625 781.3336181640625 C -2890.59033203125 783.6287231445313 -2892.0166015625 785.591552734375 -2893.96875 787.0098876953125 L -2927.070068359375 811.0594482421875 C -2929.022216796875 812.4778442382813 -2931.329833984375 813.2275390625 -2933.742919921875 813.2275390625 Z" stroke="none"/><path d="M -2933.742919921875 812.2275390625 C -2931.542236328125 812.2275390625 -2929.43798828125 811.5438842773438 -2927.65771484375 810.2504272460938 L -2894.556640625 786.2008056640625 C -2892.7763671875 784.907470703125 -2891.475830078125 783.1175537109375 -2890.7958984375 781.0245971679688 C -2890.11572265625 778.9317016601563 -2890.11572265625 776.7191772460938 -2890.7958984375 774.626220703125 L -2903.439453125 735.7135620117188 C -2904.119384765625 733.6206665039063 -2905.419921875 731.8306884765625 -2907.2001953125 730.5371704101563 C -2908.98046875 729.2437133789063 -2911.084716796875 728.5599975585938 -2913.28515625 728.5599975585938 L -2954.20068359375 728.5599975585938 C -2956.4013671875 728.5599975585938 -2958.505615234375 729.2437133789063 -2960.285888671875 730.5371704101563 C -2962.066162109375 731.8306884765625 -2963.366455078125 733.62060546875 -2964.04638671875 735.713623046875 L -2976.68994140625 774.626220703125 C -2977.3701171875 776.7191772460938 -2977.3701171875 778.9317016601563 -2976.68994140625 781.0245971679688 C -2976.010009765625 783.1174926757813 -2974.70947265625 784.907470703125 -2972.92919921875 786.2008666992188 L -2939.828125 810.2504272460938 C -2938.0478515625 811.5438842773438 -2935.943603515625 812.2275390625 -2933.742919921875 812.2275390625 M -2933.742919921875 814.2275390625 C -2936.290771484375 814.2275390625 -2938.8388671875 813.4412231445313 -2941.003662109375 811.8684692382813 L -2974.104736328125 787.8189086914063 C -2978.434326171875 784.6735229492188 -2980.245849609375 779.0977783203125 -2978.592041015625 774.0081787109375 L -2965.948486328125 735.0955810546875 C -2964.295166015625 730.0059204101563 -2959.55224609375 726.5599975585938 -2954.20068359375 726.5599975585938 L -2913.28515625 726.5599975585938 C -2907.933837890625 726.5599975585938 -2903.19091796875 730.0059204101563 -2901.537353515625 735.0955810546875 L -2888.893798828125 774.0081787109375 C -2887.239990234375 779.0977783203125 -2889.051513671875 784.6735229492188 -2893.381103515625 787.8189086914063 L -2926.482177734375 811.8684692382813 C -2928.64697265625 813.4412231445313 -2931.195068359375 814.2275390625 -2933.742919921875 814.2275390625 Z" stroke="none" fill="#e4b940"/></g></g><g transform="translate(320.001 590.801)"><path d="M228.355,227.176a1.279,1.279,0,1,1-1.279-1.279A1.279,1.279,0,0,1,228.355,227.176Z" transform="translate(-205.592 -205.501)" fill="#fff"/><path d="M31.323,21.049a10.436,10.436,0,0,1,2.862.4c.018-.027.027-.054.045-.08l1.449-2.2a1.787,1.787,0,0,0,0-1.968L34.23,15a3.568,3.568,0,0,1-.581-2.165l.143-2.656a1.808,1.808,0,0,0-.984-1.7l-2.352-1.19a3.564,3.564,0,0,1-1.583-1.583L27.7,3.366A1.8,1.8,0,0,0,26,2.382l-2.656.143a3.63,3.63,0,0,1-2.164-.581L18.979.494a1.788,1.788,0,0,0-1.968,0l-2.2,1.458a3.565,3.565,0,0,1-2.165.581L9.99,2.391a1.791,1.791,0,0,0-1.7.984L7.1,5.727A3.564,3.564,0,0,1,5.518,7.31L3.165,8.5a1.8,1.8,0,0,0-.984,1.7l.143,2.657a3.627,3.627,0,0,1-.581,2.165l-1.449,2.2a1.787,1.787,0,0,0,0,1.968l1.467,2.183a3.565,3.565,0,0,1,.581,2.164L2.2,26.192a1.806,1.806,0,0,0,.984,1.7l2.352,1.19a3.568,3.568,0,0,1,1.583,1.583l1.189,2.352a1.8,1.8,0,0,0,1.7.984l2.657-.143a3.63,3.63,0,0,1,2.165.581l2.2,1.449a1.788,1.788,0,0,0,1.968,0l2.2-1.449c.027-.018.054-.027.08-.045A10.471,10.471,0,0,1,31.323,21.049ZM14.516,11.63A3.068,3.068,0,1,1,11.448,14.7,3.068,3.068,0,0,1,14.516,11.63Zm-.707,12.013a.878.878,0,0,1-.635.26.917.917,0,0,1-.635-.26.89.89,0,0,1,0-1.261l9.929-9.929a.892.892,0,0,1,1.261,1.261Zm4.6-1.968a3.068,3.068,0,1,1,3.068,3.068A3.068,3.068,0,0,1,18.407,21.675Z" transform="translate(0)" fill="#fff"/><path d="M261.762,253.186a8.676,8.676,0,1,0,8.676,8.676A8.676,8.676,0,0,0,261.762,253.186Zm0,7.692a3.282,3.282,0,0,1,.894,6.44v.725a.894.894,0,1,1-1.789,0v-.725a3.286,3.286,0,0,1-2.388-3.158.894.894,0,0,1,1.789,0,1.494,1.494,0,1,0,1.494-1.494,3.282,3.282,0,0,1-.895-6.44v-.537a.894.894,0,0,1,1.789,0v.537a3.287,3.287,0,0,1,2.388,3.158.894.894,0,0,1-1.789,0,1.494,1.494,0,1,0-1.494,1.494Z" transform="translate(-230.439 -230.348)" fill="#fff"/><path d="M150.492,149.313a1.279,1.279,0,1,1-1.279-1.279A1.279,1.279,0,0,1,150.492,149.313Z" transform="translate(-134.697 -134.606)" fill="#fff"/></g></g></svg>