<svg xmlns="http://www.w3.org/2000/svg" xmlns:xlink="http://www.w3.org/1999/xlink" width="410.773" height="396.927" viewBox="0 0 410.773 396.927"><defs><clipPath id="a"><path d="M455.415,109.383A33.347,33.347,0,0,0,430.6,95L173.876,74.284a33.411,33.411,0,0,0-34.349,43.972l73.059,216.794a33.29,33.29,0,0,0,9.207,14.05,33.4,33.4,0,0,0,32.223,14.3L437.683,337.81a33.411,33.411,0,0,0,28.8-33.092V134.225A33.354,33.354,0,0,0,455.415,109.383Z" transform="translate(-137.745 -74.171)" fill="none"/></clipPath><linearGradient id="b" x1="0.146" y1="0.146" x2="0.952" y2="0.974" gradientUnits="objectBoundingBox"><stop offset="0" stop-color="#565a6f"/><stop offset="1" stop-color="#3e4257"/></linearGradient><filter id="c" x="0" y="0" width="410.773" height="396.927" filterUnits="userSpaceOnUse"><feOffset dy="10" input="SourceAlpha"/><feGaussianBlur stdDeviation="15" result="d"/><feFlood flood-opacity="0.302"/><feComposite operator="in" in2="d"/><feComposite in="SourceGraphic"/></filter></defs><g transform="translate(15.262 35.523)"><path d="M173.876,74.284,430.6,95a33.414,33.414,0,0,1,30.725,33.3V339.729a33.411,33.411,0,0,1-28.8,33.092L248.857,398.407a33.411,33.411,0,0,1-36.271-22.422l-73.059-257.73A33.41,33.41,0,0,1,173.876,74.284Z" transform="translate(-137.745 -72.271)" fill="#b58a11"/><path d="M175.525,76.178,432.252,96.893a33.412,33.412,0,0,1,30.725,33.3V331.392a33.411,33.411,0,0,1-28.8,33.092L250.507,390.07a33.411,33.411,0,0,1-36.271-22.422l-73.059-247.5A33.413,33.413,0,0,1,175.525,76.178Z" transform="translate(-134.236 -68.243)" fill="#e4b940"/><g transform="matrix(1, 0, 0, 1, -15.26, -35.52)" filter="url(#c)"><path d="M430.561,379.336l-252.006-20.1c-17.589-1.36-31.138-15.419-31.138-32.313V130.806c0-16.176,12.455-29.875,29.19-32.107L362.754,73.876c16.122-2.151,31.563,6.984,36.762,21.753l65.856,241.043C473.141,358.734,454.8,381.209,430.561,379.336Z" transform="translate(-101.92 -38.04)" stroke="#e4b940" stroke-width="1" fill="url(#b)"/></g></g></svg>