<svg xmlns="http://www.w3.org/2000/svg" xmlns:xlink="http://www.w3.org/1999/xlink" width="1456.004" height="1895.001" viewBox="0 0 1456.004 1895.001"><defs><filter id="a" x="0" y="0" width="1456.004" height="1895.001" filterUnits="userSpaceOnUse"><feOffset dy="-20" input="SourceAlpha"/><feGaussianBlur stdDeviation="15" result="b"/><feFlood flood-opacity="0.149"/><feComposite operator="in" in2="b"/><feComposite in="SourceGraphic"/></filter></defs><g transform="matrix(1, 0, 0, 1, 0, 0)" filter="url(#a)"><path d="M17966-8631.959h0l-1366-658.209V-10436.96h.264l123.018,486.6a112.16,112.16,0,0,0,8.346,23.813,112.172,112.172,0,0,0,13.275,21.095,112.293,112.293,0,0,0,17.611,17.639,112.184,112.184,0,0,0,21.354,13.441l450.531,217a112.14,112.14,0,0,0,23.828,8.322,112.182,112.182,0,0,0,24.777,2.773,112.16,112.16,0,0,0,24.773-2.773,112.14,112.14,0,0,0,23.828-8.322l450.531-217a112.2,112.2,0,0,0,21.355-13.441,112.293,112.293,0,0,0,17.611-17.639,112.394,112.394,0,0,0,13.275-21.095,112.339,112.339,0,0,0,8.348-23.812l123.014-486.6h.264v1805h0v0Z" transform="translate(-16555 10501.96)" fill="#353746"/></g></svg>