<svg xmlns="http://www.w3.org/2000/svg" xmlns:xlink="http://www.w3.org/1999/xlink" width="1771.716" height="789.941" viewBox="0 0 1771.716 789.941"><defs><linearGradient id="a" x1="0.479" y1="1.121" x2="0.617" y2="0.033" gradientUnits="objectBoundingBox"><stop offset="0" stop-color="#353746"/><stop offset="1" stop-color="#37394a"/></linearGradient></defs><g transform="translate(1016.119 -1620.042) rotate(16)"><path d="M-372.727,2018.264c.856,14.992,3,56.112,61.681,56.112,37.267,0,52.258-13.278,52.258-36.837,0-17.135-14.992-23.559-35.553-29.555l-69.392-19.7c-17.562-5.14-70.677-20.132-70.677-79.671,0-56.114,45.833-95.521,120.365-95.521,69.392,0,113.94,33.41,117.367,103.659h-71.105c-1.714-14.563-4.712-45.4-51.83-45.4-19.7,0-43.691,6.854-43.691,30.413,0,13.708,7.282,19.7,23.987,24.416l83.1,22.7c37.694,10.281,70.249,33.411,70.249,81.814,0,54.4-34.268,101.947-127.647,101.947-77.531,0-128.074-33.412-131.93-114.368Zm-62.967,9.423c3.427,54.4,41.979,95.521,122.078,95.521,73.676,0,117.795-33.84,117.795-92.522,0-57.827-54.829-70.676-79.673-77.53l-49.259-13.279c-38.123-10.28-48.4-17.991-48.4-38.122,0-30.413,31.268-39.836,53.542-39.836,51.4,0,57.827,32.553,60.4,45.4h52.687c-5.14-56.113-47.975-84.811-107.515-84.811-81.386,0-110.513,44.976-110.513,86.1,0,47.117,34.268,61.681,63.395,70.247l69.82,20.133c41.121,11.993,42.406,25.7,42.406,38.551,0,32.555-28.27,46.261-62.11,46.261-61.681,0-68.963-42.407-71.105-56.114Z" transform="translate(0 0)" fill="url(#a)"/><path d="M-112.294,1885.148h-92.094v-65.965H52.619v65.965H-39.475V2125.02h-72.819Zm9.852,230.448h53.114V1875.724H42.766v-47.118h-237.3v47.118h92.094Z" transform="translate(29.98 0.758)" fill="url(#a)"/><path d="M335.283,1972.859c0,97.235-64.251,159.774-150.778,159.774S33.728,2070.094,33.728,1972.859,97.979,1813.087,184.5,1813.087,335.283,1875.625,335.283,1972.859Zm-9.851,0c0-95.52-63.824-150.347-140.927-150.347S43.58,1877.339,43.58,1972.859,107.4,2123.208,184.5,2123.208,325.431,2068.379,325.431,1972.859Zm-228.737,0c0-73.246,42.407-108.37,87.81-108.37s87.812,35.124,87.812,108.37S229.91,2081.23,184.5,2081.23,96.694,2046.107,96.694,1972.859Zm165.77,0c0-73.246-41.978-98.947-77.959-98.947s-77.958,25.7-77.958,98.947,41.978,98.948,77.958,98.948S262.464,2046.107,262.464,1972.859Z" transform="translate(59.583 0)" fill="url(#a)"/><path d="M615.836,2001.987c0,47.975-31.268,130.645-137.927,130.645-83.528,0-147.778-62.538-147.778-159.774s64.25-159.771,150.777-159.771c67.678,0,132.358,47.117,132.358,113.083h-71.1c-6.425-33.411-28.272-52.258-61.254-52.258-35.982,0-77.959,25.7-77.959,98.947s41.978,98.948,74.961,98.948c49.688,0,65.109-41.977,65.109-69.819Zm-62.966,9.423c0,7.282-10.28,69.82-74.961,69.82-42.406,0-84.812-35.124-84.812-108.372s42.406-108.37,87.81-108.37c31.27,0,62.538,18.846,68.963,52.257h53.542c0-30.413-40.691-94.235-122.506-94.235-77.1,0-140.925,54.827-140.925,150.347s63.823,150.349,137.927,150.349c111.369,0,126.791-94.234,128.075-111.8Z" transform="translate(96.431 0)" fill="url(#a)"/><path d="M624.246,1819.183h72.819v114.8l111.368-114.8h93.809L780.163,1941.689,910.38,2125.02H818.286l-87.81-131.073-33.41,31.7v99.376H624.246ZM634.1,2115.6h53.115v-93.378l44.548-42.834L823,2115.6h69.392L768.17,1940.832l111.369-112.226H812.288l-125.076,129.36v-129.36H634.1Z" transform="translate(132.995 0.758)" fill="url(#a)"/><path d="M954.22,2018.264c.857,14.992,3,56.112,61.681,56.112,37.267,0,52.258-13.278,52.258-36.837,0-17.135-14.992-23.559-35.552-29.555l-69.393-19.7c-17.562-5.14-70.676-20.132-70.676-79.671,0-56.114,45.832-95.521,120.364-95.521,69.392,0,113.94,33.41,117.366,103.659h-71.105c-1.714-14.563-4.712-45.4-51.83-45.4-19.7,0-43.69,6.854-43.69,30.413,0,13.708,7.281,19.7,23.987,24.416l83.1,22.7c37.694,10.281,70.247,33.411,70.247,81.814,0,54.4-34.267,101.947-127.646,101.947-77.531,0-128.074-33.412-131.93-114.368Zm-62.966,9.423c3.426,54.4,41.978,95.521,122.077,95.521,73.676,0,117.8-33.84,117.8-92.522,0-57.827-54.829-70.676-79.674-77.53l-49.259-13.279c-38.122-10.28-48.4-17.991-48.4-38.122,0-30.413,31.27-39.836,53.542-39.836,51.4,0,57.827,32.553,60.4,45.4h52.686c-5.139-56.113-47.975-84.811-107.514-84.811-81.385,0-110.513,44.976-110.513,86.1,0,47.117,34.268,61.681,63.395,70.247l69.821,20.133c41.121,11.993,42.4,25.7,42.4,38.551,0,32.555-28.27,46.261-62.11,46.261-61.681,0-68.963-42.407-71.105-56.114Z" transform="translate(164.964 0)" fill="url(#a)"/></g></svg>