<svg xmlns="http://www.w3.org/2000/svg" xmlns:xlink="http://www.w3.org/1999/xlink" width="1365" height="2523" viewBox="0 0 1365 2523"><defs><clipPath id="a"><rect width="1365" height="2523" transform="translate(1 13025)" fill="#fff" stroke="#707070" stroke-width="1"/></clipPath></defs><g transform="translate(-1 -13025)" clip-path="url(#a)"><g transform="translate(1460.864 13000.115) rotate(60)" opacity="0.05"><path d="M417.436,204.838l.314.176-.314.184Z" transform="translate(1569.551 1498.658)" fill="#fff"/><path d="M401.96,205.619l1.652-.942v1.9Z" transform="translate(1511.359 1498.054)" fill="#fff"/><path d="M424.724,192.842l2.621-1.5v3.018Z" transform="translate(1596.951 1447.897)" fill="#fff"/><path d="M394.114,190.886l6.332,3.655-6.332,3.665Z" transform="translate(1481.859 1446.199)" fill="#fff"/><path d="M379.192,218.417l.7-.406v.813Z" transform="translate(1425.753 1548.188)" fill="#fff"/><path d="M416.93,177.519l7.532,4.348-7.532,4.347Z" transform="translate(1567.648 1395.94)" fill="#fff"/><path d="M400.806,182.938l9.886-5.7v11.409Z" transform="translate(1507.021 1394.868)" fill="#fff"/><path d="M378.12,195.467l8.353-4.828V200.3Z" transform="translate(1421.722 1445.272)" fill="#fff"/><path d="M371.272,204.212l5.483,3.157-5.483,3.165Z" transform="translate(1395.976 1496.303)" fill="#fff"/><path d="M440.3,191.557l.794.462-.794.461Z" transform="translate(1655.529 1448.72)" fill="#fff"/><path d="M439.82,164.277l7.689,4.449-7.689,4.44Z" transform="translate(1653.713 1346.148)" fill="#fff"/><path d="M423.527,170.3l11.168-6.444v12.886Z" transform="translate(1592.453 1344.573)" fill="#fff"/><path d="M393.358,163.133l17.122,9.9-17.122,9.885Z" transform="translate(1479.016 1341.847)" fill="#fff"/><path d="M376.469,174.4l20.141-11.631v23.26Z" transform="translate(1415.516 1340.476)" fill="#fff"/><path d="M370.584,176.575l15.313,8.843-15.313,8.842Z" transform="translate(1393.388 1392.389)" fill="#fff"/><path d="M355.11,209.046l9.138-5.28v10.56Z" transform="translate(1335.204 1494.626)" fill="#fff"/><path d="M348.282,217.274l6.784,3.914-6.784,3.922Z" transform="translate(1309.531 1545.417)" fill="#fff"/><path d="M356.242,231.8l1.052-.61v1.219Z" transform="translate(1339.462 1597.746)" fill="#fff"/><path d="M447.668,179.483l2.307-1.33v2.659Z" transform="translate(1683.221 1398.324)" fill="#fff"/><path d="M446.607,156.511l9.886-5.723v11.437Z" transform="translate(1679.232 1295.43)" fill="#fff"/><path d="M416.157,149.733l18.589,10.745-18.589,10.744Z" transform="translate(1564.739 1291.464)" fill="#fff"/><path d="M399.041,162.242l22.485-12.979v25.956Z" transform="translate(1500.386 1289.699)" fill="#fff"/><path d="M369.62,148.463l29.086,16.79L369.62,182.034Z" transform="translate(1389.764 1286.688)" fill="#fff"/><path d="M353.768,186.971l18.72-10.809v21.627Z" transform="translate(1330.158 1390.836)" fill="#fff"/><path d="M347.679,189.788l15.386,8.88-15.386,8.879Z" transform="translate(1307.264 1442.071)" fill="#fff"/><path d="M331.89,223.3l11.418-6.591v13.2Z" transform="translate(1247.899 1543.302)" fill="#fff"/><path d="M463.255,178.427l.046.028-.046.028Z" transform="translate(1741.828 1399.352)" fill="#fff"/><path d="M439.209,136.779l16.4,9.471-16.4,9.469Z" transform="translate(1651.416 1242.759)" fill="#fff"/><path d="M422.046,148.686l21.738-12.554v25.1Z" transform="translate(1586.882 1240.323)" fill="#fff"/><path d="M392.436,135.094l30.285,17.492-30.285,17.482Z" transform="translate(1475.552 1236.423)" fill="#fff"/><path d="M374.606,154.022l33.451-19.31v38.62Z" transform="translate(1408.51 1234.987)" fill="#fff"/><path d="M351.8,166.93l32.75-18.913v37.826Z" transform="translate(1322.772 1285.011)" fill="#fff"/><path d="M346.82,161.858l27.645,15.96-27.645,15.95Z" transform="translate(1304.034 1337.056)" fill="#fff"/><path d="M330.618,201.009l20.5-11.843v23.7Z" transform="translate(1243.116 1439.73)" fill="#fff"/><path d="M324.508,202.54l19.263,11.114-19.263,11.131Z" transform="translate(1220.141 1490.019)" fill="#fff"/><path d="M325.145,230.088,335.3,235.95l-10.154,5.861Z" transform="translate(1222.54 1593.597)" fill="#fff"/><path d="M333.024,246.058l3.323-1.921v3.831Z" transform="translate(1252.164 1646.422)" fill="#fff"/><path d="M470.682,165.9l1.5-.868v1.735Z" transform="translate(1769.753 1348.977)" fill="#fff"/><path d="M462.84,151.267l5.972,3.443-5.972,3.433Z" transform="translate(1740.267 1297.231)" fill="#fff"/><path d="M462.353,123.981l12.913,7.458L462.353,138.9Z" transform="translate(1738.437 1194.637)" fill="#fff"/><path d="M445.535,133.553l17.537-10.135V143.67Z" transform="translate(1675.201 1192.523)" fill="#fff"/><path d="M415.441,122.055l28.789,16.624-28.789,16.615Z" transform="translate(1562.048 1187.397)" fill="#fff"/><path d="M397.515,140.779,430.9,121.5v38.555Z" transform="translate(1494.648 1185.297)" fill="#fff"/><path d="M368.841,120.669l40.208,23.224-40.208,23.2Z" transform="translate(1386.833 1182.183)" fill="#fff"/><path d="M350.368,145.161l42.995-24.83v49.65Z" transform="translate(1317.377 1180.915)" fill="#fff"/><path d="M345.961,133.925l39.921,23.058L345.961,180.03Z" transform="translate(1300.804 1232.026)" fill="#fff"/><path d="M328.956,179.983l32.371-18.7v37.4Z" transform="translate(1236.867 1334.891)" fill="#fff"/><path d="M323.811,174.893,353,191.739l-29.187,16.855Z" transform="translate(1217.524 1386.067)" fill="#fff"/><path d="M306.817,217.154l26.934-15.545v31.1Z" transform="translate(1153.624 1486.518)" fill="#fff"/><path d="M301.11,214.9l26.361,15.212L301.11,245.342Z" transform="translate(1132.166 1536.493)" fill="#fff"/><path d="M308.143,239.289,325.607,229.2v20.169Z" transform="translate(1158.61 1590.258)" fill="#fff"/><path d="M325.681,257.459l2.491,1.44-2.491,1.44Z" transform="translate(1224.553 1696.513)" fill="#fff"/><path d="M469.829,142.24l7.588-4.394v8.778Z" transform="translate(1766.545 1246.769)" fill="#fff"/><path d="M468.972,118.573l13.707-7.91v15.821Z" transform="translate(1763.322 1144.561)" fill="#fff"/><path d="M438.641,109.352l24.515,14.15-24.515,14.15Z" transform="translate(1649.281 1139.632)" fill="#fff"/><path d="M420.863,126.1l30.192-17.436v34.872Z" transform="translate(1582.435 1137.036)" fill="#fff"/><path d="M391.8,107.548l39.385,22.735L391.8,153.017Z" transform="translate(1473.154 1132.851)" fill="#fff"/><path d="M373.313,131.792l42.681-24.645v49.3Z" transform="translate(1403.647 1131.342)" fill="#fff"/><path d="M345.466,106.625l46.992,27.128-46.992,27.128Z" transform="translate(1298.944 1129.381)" fill="#fff"/><path d="M327.414,158.558l43.374-25.052V183.59Z" transform="translate(1231.071 1230.451)" fill="#fff"/><path d="M322.98,147.006l41.075,23.722L322.98,194.442Z" transform="translate(1214.395 1281.213)" fill="#fff"/><path d="M305.492,195.027l36.4-21.009v42.016Z" transform="translate(1148.644 1382.779)" fill="#fff"/><path d="M300.483,187.372l35.3,20.381-35.3,20.38Z" transform="translate(1129.81 1432.986)" fill="#fff"/><path d="M282.653,234.487l35.953-20.75v41.517Z" transform="translate(1062.767 1532.118)" fill="#fff"/><path d="M301.8,242.539l16.5,9.526-16.5,9.526Z" transform="translate(1134.761 1640.415)" fill="#fff"/><path d="M309.421,261.56l8.335-4.809v9.618Z" transform="translate(1163.415 1693.852)" fill="#fff"/><path d="M485.9,138.315l3.729,2.161-3.729,2.15Z" transform="translate(1826.96 1248.533)" fill="#fff"/><path d="M461.923,96.79,481,107.8l-19.079,11.012Z" transform="translate(1736.818 1092.399)" fill="#fff"/><path d="M444.581,110.208l24.35-14.058v28.115Z" transform="translate(1671.613 1089.994)" fill="#fff"/><path d="M414.954,94.767,450.7,115.406l-35.749,20.639Z" transform="translate(1560.218 1084.795)" fill="#fff"/><path d="M396.542,117.5,436.87,94.211v46.576Z" transform="translate(1490.988 1082.702)" fill="#fff"/><path d="M368.418,93.493l46.254,26.7-46.254,26.7Z" transform="translate(1385.243 1080.005)" fill="#fff"/><path d="M349.686,120.933,397.555,93.3v55.28Z" transform="translate(1314.81 1079.268)" fill="#fff"/><path d="M326.573,134.84l49.383-28.5v57.016Z" transform="translate(1227.906 1128.294)" fill="#fff"/><path d="M322.46,119.664l48.5,28-48.5,27.986Z" transform="translate(1212.442 1178.407)" fill="#fff"/><path d="M304.1,173.12l46.318-26.75v53.5Z" transform="translate(1143.416 1278.821)" fill="#fff"/><path d="M299.789,159.727l45.21,26.1-45.21,26.1Z" transform="translate(1127.2 1329.044)" fill="#fff"/><path d="M281.452,211.953l44.528-25.7v51.4Z" transform="translate(1058.254 1428.787)" fill="#fff"/><path d="M276.855,199.329l45.708,26.4-45.708,26.4Z" transform="translate(1040.967 1477.944)" fill="#fff"/><path d="M277.512,226.915l36.313,20.963-36.313,20.961Z" transform="translate(1043.439 1581.669)" fill="#fff"/><path d="M284.15,256.068l25.264-14.594v29.186Z" transform="translate(1068.396 1636.411)" fill="#fff"/><path d="M302.444,270.1l7.311,4.227-7.311,4.21Z" transform="translate(1137.182 1744.03)" fill="#fff"/><path d="M310.383,284.878l1.467-.85v1.689Z" transform="translate(1167.032 1796.41)" fill="#fff"/><path d="M493.143,127.662l4.633-2.677v5.354Z" transform="translate(1854.207 1198.414)" fill="#fff"/><path d="M485.5,111.177l9.47,5.464-9.47,5.474Z" transform="translate(1825.451 1146.493)" fill="#fff"/><path d="M485.142,84.123l14.51,8.373-14.51,8.371Z" transform="translate(1824.124 1044.773)" fill="#fff"/><path d="M468.178,94.719l19.375-11.187v22.375Z" transform="translate(1760.34 1042.549)" fill="#fff"/><path d="M438.263,82.254l29.915,17.271-29.915,17.27Z" transform="translate(1647.859 1037.744)" fill="#fff"/><path d="M420.108,102.106l35.583-20.538v41.075Z" transform="translate(1579.598 1035.163)" fill="#fff"/><path d="M391.514,80.609l43.475,25.1-43.475,25.1Z" transform="translate(1472.082 1031.561)" fill="#fff"/><path d="M372.795,107.034l46.374-26.777v53.555Z" transform="translate(1401.699 1030.235)" fill="#fff"/><path d="M345.307,79.909l49.243,28.429-49.243,28.429Z" transform="translate(1298.347 1028.93)" fill="#fff"/><path d="M326.474,108.726l50.093-28.919v57.837Z" transform="translate(1227.535 1028.543)" fill="#fff"/><path d="M322.285,92.917l51,29.446-51,29.445Z" transform="translate(1211.785 1077.838)" fill="#fff"/><path d="M303.392,148.982l51.385-29.667v59.324Z" transform="translate(1140.747 1177.094)" fill="#fff"/><path d="M299.347,132.519l51.523,29.75-51.523,29.739Z" transform="translate(1125.538 1226.74)" fill="#fff"/><path d="M280.268,189.375l52.982-30.59v61.179Z" transform="translate(1053.8 1325.499)" fill="#fff"/><path d="M276.284,171.9l53.841,31.088-53.841,31.087Z" transform="translate(1038.823 1374.817)" fill="#fff"/><path d="M257.067,230.015l55.123-31.827v63.653Z" transform="translate(966.568 1473.657)" fill="#fff"/><path d="M253.239,211.317l55.909,32.27-55.909,32.287Z" transform="translate(952.174 1523.019)" fill="#fff"/><path d="M258.341,252.318l46.032-26.584v53.158Z" transform="translate(971.358 1577.229)" fill="#fff"/><path d="M278.361,254.828l24.183,13.966-24.183,13.965Z" transform="translate(1046.632 1686.618)" fill="#fff"/><path d="M285.662,277.59l14.463-8.362v16.707Z" transform="translate(1074.084 1740.764)" fill="#fff"/><path d="M302.888,297.309l.969.563-.969.553Z" transform="translate(1138.852 1846.347)" fill="#fff"/><path d="M508.934,125.33l1.772,1.034-1.772,1.015Z" transform="translate(1913.579 1199.712)" fill="#fff"/><path d="M492.426,103.558l9.757-5.64V109.2Z" transform="translate(1851.509 1096.643)" fill="#fff"/><path d="M491.728,79.374l14.74-8.5V87.884Z" transform="translate(1848.885 994.952)" fill="#fff"/><path d="M461.547,69.7l24.432,14.095L461.547,97.9Z" transform="translate(1735.405 990.534)" fill="#fff"/><path d="M443.9,85.988l29.241-16.874v33.765Z" transform="translate(1669.04 988.339)" fill="#fff"/><path d="M414.706,67.894,454,90.573l-39.294,22.688Z" transform="translate(1559.285 983.753)" fill="#fff"/><path d="M396.125,92.4l43.309-25v50Z" transform="translate(1489.421 981.923)" fill="#fff"/><path d="M368.313,66.868,416.062,94.43,368.313,122Z" transform="translate(1384.85 979.896)" fill="#fff"/><path d="M349.585,94.81l48.579-28.042v56.1Z" transform="translate(1314.432 979.517)" fill="#fff"/><path d="M322.39,66.655l49.494,28.577L322.39,123.809Z" transform="translate(1212.179 979.094)" fill="#fff"/><path d="M303.293,122.858l52.1-30.073V152.93Z" transform="translate(1140.375 1077.343)" fill="#fff"/><path d="M299.219,105.853l53.361,30.8-53.361,30.8Z" transform="translate(1125.057 1126.479)" fill="#fff"/><path d="M279.8,164.463l56.343-32.528v65.056Z" transform="translate(1052.035 1224.546)" fill="#fff"/><path d="M275.953,144.885l58.576,33.821-58.576,33.82Z" transform="translate(1037.577 1273.236)" fill="#fff"/><path d="M256.125,206.642l61.853-35.712v71.424Z" transform="translate(963.024 1371.165)" fill="#fff"/><path d="M252.751,184.027l62.9,36.3-62.9,36.312Z" transform="translate(950.337 1420.409)" fill="#fff"/><path d="M232.8,247.684l64.9-37.457v74.932Z" transform="translate(875.318 1518.921)" fill="#fff"/><path d="M254.044,239.152,298.47,264.8l-44.426,25.651Z" transform="translate(955.2 1627.677)" fill="#fff"/><path d="M260.155,272.855l33.09-19.107v38.214Z" transform="translate(978.175 1682.558)" fill="#fff"/><path d="M279.156,282.647,292,290.069l-12.84,7.411Z" transform="translate(1049.622 1791.219)" fill="#fff"/><path d="M286.894,300.024l5.677-3.287v6.554Z" transform="translate(1078.714 1844.196)" fill="#fff"/><path d="M516.279,113.674l2.954-1.708v3.415Z" transform="translate(1941.199 1149.46)" fill="#fff"/><path d="M508.606,98.318l6.47,3.738-6.47,3.739Z" transform="translate(1912.347 1098.145)" fill="#fff"/><path d="M484.785,57.06,504.4,68.377,484.785,79.711Z" transform="translate(1822.782 943.017)" fill="#fff"/><path d="M467.461,70.6l24.488-14.132V84.742Z" transform="translate(1757.642 940.793)" fill="#fff"/><path d="M437.991,55.34l33.793,19.5L437.991,94.356Z" transform="translate(1646.837 936.55)" fill="#fff"/><path d="M419.693,77.009l38.537-22.245v44.49Z" transform="translate(1578.038 934.384)" fill="#fff"/><path d="M391.467,54.085l44.139,25.476-44.139,25.494Z" transform="translate(1471.907 931.832)" fill="#fff"/><path d="M372.843,80.429l46.032-26.574v53.158Z" transform="translate(1401.882 930.965)" fill="#fff"/><path d="M345.515,53.826l46.28,26.713-46.28,26.713Z" transform="translate(1299.127 930.855)" fill="#fff"/><path d="M327.058,80.378l45.921-26.51V106.9Z" transform="translate(1229.729 931.016)" fill="#fff"/><path d="M303.745,94.941,352.61,66.733v56.425Z" transform="translate(1142.074 979.385)" fill="#fff"/><path d="M299.374,79.679l51.146,29.528-51.146,29.528Z" transform="translate(1125.64 1028.062)" fill="#fff"/><path d="M279.917,137.632l55.493-32.039v64.077Z" transform="translate(1052.479 1125.501)" fill="#fff"/><path d="M276,118.516l57.966,33.47L276,185.446Z" transform="translate(1037.737 1174.09)" fill="#fff"/><path d="M255.712,181.549l64.807-37.42v74.84Z" transform="translate(961.47 1270.393)" fill="#fff"/><path d="M252.429,157.026l67.493,38.962-67.493,38.961Z" transform="translate(949.127 1318.886)" fill="#fff"/><path d="M232.035,223.742l70.354-40.623v81.255Z" transform="translate(872.445 1416.997)" fill="#fff"/><path d="M229.186,196.1l72.376,41.777-72.376,41.786Z" transform="translate(861.734 1465.797)" fill="#fff"/><path d="M229.735,223.491l64.539,37.264-64.539,37.262Z" transform="translate(863.798 1568.793)" fill="#fff"/><path d="M234.385,268.974l53.573-30.931V299.9Z" transform="translate(881.282 1623.506)" fill="#fff"/><path d="M255.043,267.324l30.165,17.426-30.165,17.408Z" transform="translate(958.955 1733.603)" fill="#fff"/><path d="M262.045,293.146l19.587-11.317v22.615Z" transform="translate(985.284 1788.142)" fill="#fff"/><path d="M279.7,310.024,284.827,313l-5.132,2.962Z" transform="translate(1051.649 1894.156)" fill="#fff"/><path d="M287.687,323.878l.01-.01v.018Z" transform="translate(1081.696 1946.208)" fill="#fff"/><path d="M531.892,112.208l.969.554-.969.564Z" transform="translate(1999.9 1150.372)" fill="#fff"/><path d="M515.678,89.185,522.914,85v8.363Z" transform="translate(1938.938 1048.083)" fill="#fff"/><path d="M508.282,71.313l11.095,6.405-11.095,6.425Z" transform="translate(1911.13 996.608)" fill="#fff"/><path d="M507.984,44.353l15.359,8.87L507.984,62.1Z" transform="translate(1910.007 895.238)" fill="#fff"/><path d="M491.092,55.009l19.282-11.131V66.141Z" transform="translate(1846.494 893.452)" fill="#fff"/><path d="M461.3,42.825l27.968,16.143L461.3,75.122Z" transform="translate(1734.478 889.492)" fill="#fff"/><path d="M443.52,60.769l31.929-18.424V79.212Z" transform="translate(1667.625 887.691)" fill="#fff"/><path d="M414.718,41.471l39.128,22.587-39.128,22.6Z" transform="translate(1559.328 884.403)" fill="#fff"/><path d="M396.414,65.027l41.25-23.814V88.841Z" transform="translate(1490.507 883.434)" fill="#fff"/><path d="M368.666,41.037l42.709,24.654L368.666,90.355Z" transform="translate(1386.176 882.77)" fill="#fff"/><path d="M350.481,65.45,392.673,41.1V89.809Z" transform="translate(1317.799 883.01)" fill="#fff"/><path d="M323,41.279l40.716,23.5L323,88.289Z" transform="translate(1214.49 883.681)" fill="#fff"/><path d="M305.091,64.109l39.257-22.651V86.779Z" transform="translate(1147.134 884.352)" fill="#fff"/><path d="M299.863,54.081,344.03,79.576l-44.168,25.513Z" transform="translate(1127.477 931.817)" fill="#fff"/><path d="M280.43,109.513,332.25,79.6v59.832Z" transform="translate(1054.412 1027.755)" fill="#fff"/><path d="M276.242,92.5,330.7,123.945l-54.459,31.447Z" transform="translate(1038.663 1076.256)" fill="#fff"/><path d="M256.187,153.561,317.606,118.1v70.917Z" transform="translate(963.257 1172.515)" fill="#fff"/><path d="M252.557,130.8l65.664,37.919-65.664,37.9Z" transform="translate(949.608 1220.287)" fill="#fff"/><path d="M231.618,198.656l73.326-42.34V241Z" transform="translate(870.878 1316.218)" fill="#fff"/><path d="M228.919,169.19l76.206,43.992-76.206,44Z" transform="translate(860.728 1364.624)" fill="#fff"/><path d="M208,240.661l78.476-45.3v90.6Z" transform="translate(782.063 1463.012)" fill="#fff"/><path d="M205.815,208.505,284.9,254.159,205.815,299.83Z" transform="translate(773.86 1512.446)" fill="#fff"/><path d="M208.817,264.444l72.616-41.934v83.858Z" transform="translate(785.147 1565.103)" fill="#fff"/><path d="M230.671,251.554,281.845,281.1l-51.174,29.546Z" transform="translate(867.319 1674.311)" fill="#fff"/><path d="M236.485,288.578l38.574-22.272v44.537Z" transform="translate(889.178 1729.775)" fill="#fff"/><path d="M255.939,295.321,273.3,305.346,255.939,315.37Z" transform="translate(962.324 1838.874)" fill="#fff"/><path d="M263.379,315.243l10.061-5.816v11.621Z" transform="translate(990.3 1891.91)" fill="#fff"/><path d="M539.315,100l1.985-1.135v2.28Z" transform="translate(2027.811 1100.201)" fill="#fff"/><path d="M531.642,85.331l4.54,2.622-4.54,2.621Z" transform="translate(1998.96 1049.315)" fill="#fff"/><path d="M515.013,64.906,527,57.983V71.829Z" transform="translate(1936.438 946.488)" fill="#fff"/><path d="M514.587,39.849l15.036-8.677V48.526Z" transform="translate(1934.833 845.679)" fill="#fff"/><path d="M484.613,30.317l22.079,12.747L484.613,55.82Z" transform="translate(1822.133 842.464)" fill="#fff"/><path d="M467.267,44.8l25.882-14.944v29.9Z" transform="translate(1756.913 840.728)" fill="#fff"/><path d="M438.094,29.074l32.334,18.664L438.094,66.4Z" transform="translate(1647.224 837.79)" fill="#fff"/><path d="M420.194,48.934l34.964-20.178V69.121Z" transform="translate(1579.919 836.594)" fill="#fff"/><path d="M391.965,28.508,428.97,49.867,391.965,71.235Z" transform="translate(1473.781 835.661)" fill="#fff"/><path d="M374.01,50.188l37.7-21.765v43.53Z" transform="translate(1406.271 835.34)" fill="#fff"/><path d="M346.248,28.651,382.07,49.327,346.248,70.013Z" transform="translate(1301.883 836.201)" fill="#fff"/><path d="M328.555,49.065l35.233-20.344V69.409Z" transform="translate(1235.358 836.463)" fill="#fff"/><path d="M300.693,29.074l32.324,18.664L300.693,66.4Z" transform="translate(1130.598 837.79)" fill="#fff"/><path d="M281.648,79.095,324.772,54.21V104Z" transform="translate(1058.991 932.299)" fill="#fff"/><path d="M276.661,66.779l48.478,27.986-48.478,28Z" transform="translate(1040.238 979.561)" fill="#fff"/><path d="M257.005,124.448l55.576-32.086v64.17Z" transform="translate(966.334 1075.753)" fill="#fff"/><path d="M252.981,105.093l59.611,34.42-59.611,34.42Z" transform="translate(951.204 1123.62)" fill="#fff"/><path d="M232.18,170.384l69.311-40.023v80.045Z" transform="translate(872.992 1218.625)" fill="#fff"/><path d="M229.064,143l74.12,42.8-74.12,42.792Z" transform="translate(861.275 1266.141)" fill="#fff"/><path d="M207.638,215.384,288.671,168.6v93.559Z" transform="translate(780.714 1362.423)" fill="#fff"/><path d="M205.619,181.721,287.52,229l-81.9,47.287Z" transform="translate(773.124 1411.74)" fill="#fff"/><path d="M184.506,255.806l82.695-47.74v95.488Z" transform="translate(693.738 1510.798)" fill="#fff"/><path d="M206.482,236.1l69.569,40.17-69.569,40.17Z" transform="translate(776.369 1616.208)" fill="#fff"/><path d="M210.7,284.747l59.176-34.162v68.323Z" transform="translate(792.227 1670.666)" fill="#fff"/><path d="M231.814,279.979,266.668,300.1l-34.854,20.122Z" transform="translate(871.614 1781.186)" fill="#fff"/><path d="M238.5,308.46l24.174-13.966v27.922Z" transform="translate(896.762 1835.76)" fill="#fff"/><path d="M256.606,322.916l7.846,4.542-7.846,4.532Z" transform="translate(964.832 1942.628)" fill="#fff"/><path d="M264.512,337.995l1.975-1.144v2.289Z" transform="translate(994.558 1995.023)" fill="#fff"/><path d="M554.793,98.985l.96.563-.96.563Z" transform="translate(2086.009 1100.653)" fill="#fff"/><path d="M538.83,75.138,544.275,72v6.3Z" transform="translate(2025.988 999.189)" fill="#fff"/><path d="M531.349,58.381l8.722,5.03-8.722,5.039Z" transform="translate(1997.859 947.983)" fill="#fff"/><path d="M507.863,17.7l17.067,9.849L507.863,37.4Z" transform="translate(1909.554 795.042)" fill="#fff"/><path d="M491.01,28.83l19.854-11.464V40.294Z" transform="translate(1846.187 793.766)" fill="#fff"/><path d="M461.446,16.633l25.882,14.953L461.446,46.538Z" transform="translate(1735.025 791.01)" fill="#fff"/><path d="M444.049,32.607l28.144-16.246V48.852Z" transform="translate(1669.615 789.989)" fill="#fff"/><path d="M415.239,15.93l31.679,18.3L415.239,52.52Z" transform="translate(1561.289 788.37)" fill="#fff"/><path d="M397.68,34.458l32.2-18.59v37.18Z" transform="translate(1495.268 788.137)" fill="#fff"/><path d="M369.436,15.927,401.152,34.24,369.436,52.553Z" transform="translate(1389.071 788.356)" fill="#fff"/><path d="M352.1,33.736,382.72,16.06V51.422Z" transform="translate(1323.895 788.859)" fill="#fff"/><path d="M323.858,16.314,352.38,32.782,323.858,49.249Z" transform="translate(1217.699 789.814)" fill="#fff"/><path d="M306.82,32.045,333.728,16.51V47.589Z" transform="translate(1153.638 790.55)" fill="#fff"/><path d="M283.258,47.424,314.9,29.157V65.7Z" transform="translate(1065.042 838.104)" fill="#fff"/><path d="M277.444,41.7l37.281,21.516L277.444,84.737Z" transform="translate(1043.183 885.249)" fill="#fff"/><path d="M258.037,94.641l48.211-27.829V122.48Z" transform="translate(970.212 979.685)" fill="#fff"/><path d="M253.474,79.5l52.576,30.359-52.576,30.359Z" transform="translate(953.057 1027.406)" fill="#fff"/><path d="M233.309,140.257,294.571,104.9v70.732Z" transform="translate(877.235 1122.877)" fill="#fff"/><path d="M229.609,117.5l66.357,38.325-66.357,38.306Z" transform="translate(863.323 1170.255)" fill="#fff"/><path d="M208.253,186.945,284.9,142.694v88.5Z" transform="translate(783.026 1264.997)" fill="#fff"/><path d="M205.68,155.384l81.033,46.78L205.68,248.942Z" transform="translate(773.351 1312.711)" fill="#fff"/><path d="M184.273,230.122l84.347-48.7v97.4Z" transform="translate(692.863 1410.617)" fill="#fff"/><path d="M182.5,194.57l84.965,49.051L182.5,292.689Z" transform="translate(686.213 1460.051)" fill="#fff"/><path d="M182.842,221.6,262.98,267.87l-80.138,46.262Z" transform="translate(687.482 1561.677)" fill="#fff"/><path d="M185.772,278.132l73.658-42.525v85.049Z" transform="translate(698.499 1614.348)" fill="#fff"/><path d="M207.6,264.477l53.638,30.977L207.6,326.412Z" transform="translate(780.569 1722.9)" fill="#fff"/><path d="M213.087,303.419,255.215,279.1v48.635Z" transform="translate(801.202 1777.868)" fill="#fff"/><path d="M232.706,307.965l22.116,12.775L232.706,333.5Z" transform="translate(874.968 1886.413)" fill="#fff"/><path d="M240.065,329.805l13.014-7.514v15.027Z" transform="translate(902.638 1940.28)" fill="#fff"/><path d="M257.155,350.31l.009.01-.009.018Z" transform="translate(966.895 2045.631)" fill="#fff"/><path d="M562.245,86.692l1.772-1.025v2.049Z" transform="translate(2114.03 1050.577)" fill="#fff"/><path d="M554.613,72.232l3.535,2.031-3.535,2.049Z" transform="translate(2085.331 1000.064)" fill="#fff"/><path d="M538.349,50.27l8.879-5.132V55.4Z" transform="translate(2024.18 898.19)" fill="#fff"/><path d="M531.137,31.574l11.732,6.766-11.732,6.775Z" transform="translate(1997.064 847.189)" fill="#fff"/><path d="M531.077,5.023l12.609,7.283-12.609,7.283Z" transform="translate(1996.838 747.357)" fill="#fff"/><path d="M514.587,13.407,529.623,4.73V22.083Z" transform="translate(1934.833 746.256)" fill="#fff"/><path d="M484.768,4.144l19.855,11.464L484.768,27.073Z" transform="translate(1822.716 744.054)" fill="#fff"/><path d="M467.789,16.658,489.942,3.865V29.451Z" transform="translate(1758.874 743.005)" fill="#fff"/><path d="M438.573,3.462l25.485,14.714L438.573,32.888Z" transform="translate(1649.025 741.487)" fill="#fff"/><path d="M421.394,18.6l26.4-15.249V33.837Z" transform="translate(1584.432 741.065)" fill="#fff"/><path d="M392.694,3.326l26.612,15.359L392.694,34.045Z" transform="translate(1476.522 740.977)" fill="#fff"/><path d="M375.636,18.452,401.73,3.388V33.516Z" transform="translate(1412.381 741.21)" fill="#fff"/><path d="M347.05,3.6l24.359,14.067L347.05,31.732Z" transform="translate(1304.902 741.998)" fill="#fff"/><path d="M330.24,17.14l23.206-13.4v26.8Z" transform="translate(1241.694 742.523)" fill="#fff"/><path d="M301.47,3.981l21.2,12.239L301.47,28.46Z" transform="translate(1133.522 743.442)" fill="#fff"/><path d="M284.71,16.25,305.977,3.974V28.526Z" transform="translate(1070.504 743.413)" fill="#fff"/><path d="M278.218,16.594l26.233,15.138L278.218,46.869Z" transform="translate(1046.093 790.864)" fill="#fff"/><path d="M259.641,62.979,296.4,41.758v42.45Z" transform="translate(976.243 885.482)" fill="#fff"/><path d="M254.2,54.314,296.452,78.7l-42.257,24.4Z" transform="translate(955.769 932.692)" fill="#fff"/><path d="M234.455,110.1l53.074-30.655v61.3Z" transform="translate(881.545 1027.172)" fill="#fff"/><path d="M230.254,92.174l57.118,32.98-57.118,32.979Z" transform="translate(865.751 1075.046)" fill="#fff"/><path d="M209.558,156.258l67.326-38.879v77.748Z" transform="translate(787.932 1169.818)" fill="#fff"/><path d="M206.273,129.967l72.559,41.9-72.559,41.887Z" transform="translate(775.581 1217.144)" fill="#fff"/><path d="M184.616,202.572l81.9-47.3v94.584Z" transform="translate(694.153 1312.302)" fill="#fff"/><path d="M182.534,168.178l84.55,48.811-84.55,48.81Z" transform="translate(686.322 1360.818)" fill="#fff"/><path d="M161.284,243.621l84.984-49.051v98.119Z" transform="translate(606.425 1460.051)" fill="#fff"/><path d="M159.719,207.993l83.313,48.091-83.313,48.108Z" transform="translate(600.541 1510.521)" fill="#fff"/><path d="M161.862,268.191l80.857-46.678v93.356Z" transform="translate(608.598 1561.356)" fill="#fff"/><path d="M183.734,249.588l67.4,38.906-67.4,38.906Z" transform="translate(690.835 1666.918)" fill="#fff"/><path d="M188.043,297.181l57.442-33.164v66.32Z" transform="translate(707.036 1721.172)" fill="#fff"/><path d="M208.79,292.985l36.626,21.147L208.79,335.269Z" transform="translate(785.046 1830.089)" fill="#fff"/><path d="M215.09,323.35l27.83-16.08v32.15Z" transform="translate(808.734 1883.803)" fill="#fff"/><path d="M233.59,335.939l9.5,5.483-9.5,5.482Z" transform="translate(878.292 1991.596)" fill="#fff"/><path d="M241.467,351.683l3.01-1.735v3.479Z" transform="translate(907.909 2044.268)" fill="#fff"/><path d="M585.391,99.111l.019-.01v.019Z" transform="translate(2201.057 1101.09)" fill="#fff"/><path d="M577.693,85.764l.969.564-.969.562Z" transform="translate(2172.112 1050.941)" fill="#fff"/><path d="M561.879,61.436l4.385-2.529v5.058Z" transform="translate(2112.652 949.958)" fill="#fff"/><path d="M554.4,45.425l6.535,3.766L554.4,52.975Z" transform="translate(2084.537 899.27)" fill="#fff"/><path d="M538.062,24.761l10.928-6.314V31.075Z" transform="translate(2023.101 797.834)" fill="#fff"/><path d="M538.029-1.579,549.2-8.022V4.864Z" transform="translate(2022.977 698.309)" fill="#fff"/><path d="M508.007-8.491,523.034.186,508.007,8.861Z" transform="translate(1910.094 696.545)" fill="#fff"/><path d="M491.458.929l16.661-9.618V10.547Z" transform="translate(1847.871 695.801)" fill="#fff"/><path d="M461.857-9.1,481.878,2.461,461.857,14.017Z" transform="translate(1736.57 694.27)" fill="#fff"/><path d="M445.034,2.956l21.11-12.185V15.139Z" transform="translate(1673.319 693.774)" fill="#fff"/><path d="M415.893-9.381,438.249,3.532l-22.357,12.9Z" transform="translate(1563.747 693.198)" fill="#fff"/><path d="M399.117,3.35l21.95-12.683V16.023Z" transform="translate(1500.671 693.38)" fill="#fff"/><path d="M370.177-9.232l21.138,12.2-21.138,12.2Z" transform="translate(1391.857 693.76)" fill="#fff"/><path d="M353.566,2.533l20.16-11.649V14.172Z" transform="translate(1329.4 694.197)" fill="#fff"/><path d="M324.572-8.895l18.34,10.6-18.34,10.6Z" transform="translate(1220.382 695.028)" fill="#fff"/><path d="M308.18,1.177l17.2-9.932V11.109Z" transform="translate(1158.749 695.553)" fill="#fff"/><path d="M278.817-8.813,296.493,1.4,278.817,11.6Z" transform="translate(1048.345 695.334)" fill="#fff"/><path d="M261.13,31.688l26.121-15.082V46.77Z" transform="translate(981.843 790.908)" fill="#fff"/><path d="M254.958,29.19,286.332,47.3,254.958,65.41Z" transform="translate(958.635 838.228)" fill="#fff"/><path d="M236.033,78.5l41.8-24.137V102.65Z" transform="translate(887.479 932.89)" fill="#fff"/><path d="M230.914,66.874l47.7,27.535-47.7,27.544Z" transform="translate(868.231 979.918)" fill="#fff"/><path d="M211.1,124.8l56.351-32.537v65.075Z" transform="translate(793.715 1075.396)" fill="#fff"/><path d="M207.112,104.979l60.57,34.964-60.57,34.974Z" transform="translate(778.738 1123.19)" fill="#fff"/><path d="M186.024,171.544l71.85-41.491v82.972Z" transform="translate(699.446 1217.465)" fill="#fff"/><path d="M183.055,142.639l77.093,44.509-77.093,44.509Z" transform="translate(688.283 1264.793)" fill="#fff"/><path d="M161.432,216.712l83.931-48.46v96.919Z" transform="translate(606.979 1361.095)" fill="#fff"/><path d="M159.663,181.45l84.116,48.57-84.116,48.57Z" transform="translate(600.329 1410.719)" fill="#fff"/><path d="M138.926,255.085l81.116-46.826v93.661Z" transform="translate(522.357 1511.521)" fill="#fff"/><path d="M160.34,235.51,234.792,278.5,160.34,321.482Z" transform="translate(602.875 1613.984)" fill="#fff"/><path d="M163.712,288.611l67.649-39.054v78.108Z" transform="translate(615.554 1666.801)" fill="#fff"/><path d="M185.074,278.354l48.257,27.858-48.257,27.856Z" transform="translate(695.874 1775.076)" fill="#fff"/><path d="M190.544,315.481l39.58-22.855v45.7Z" transform="translate(716.442 1828.739)" fill="#fff"/><path d="M209.783,321.147l22.449,12.959-22.449,12.959Z" transform="translate(788.779 1935.979)" fill="#fff"/><path d="M217.111,343.2l13.4-7.735v15.479Z" transform="translate(816.332 1989.817)" fill="#fff"/><path d="M234.21,363.46l.627.351-.627.368Z" transform="translate(880.626 2095.073)" fill="#fff"/><path d="M585.145,73.461l1.772-1.015v2.049Z" transform="translate(2200.132 1000.866)" fill="#fff"/><path d="M577.549,59.073l3.018,1.735-3.018,1.753Z" transform="translate(2171.572 950.585)" fill="#fff"/><path d="M561.547,36.072l6.756-3.9v7.8Z" transform="translate(2111.405 849.456)" fill="#fff"/><path d="M554.271,18.754l8.4,4.855-8.4,4.856Z" transform="translate(2084.048 798.986)" fill="#fff"/><path d="M531.155-21.286l11.493,6.646L531.155-8.013Z" transform="translate(1997.13 648.437)" fill="#fff"/><path d="M514.9-14.057l12.774-7.385V-6.682Z" transform="translate(1936.022 647.854)" fill="#fff"/><path d="M485.111-21.707l14.962,8.649L485.111-4.418Z" transform="translate(1824.007 646.855)" fill="#fff"/><path d="M468.636-12.548l16.1-9.295V-3.262Z" transform="translate(1762.061 646.345)" fill="#fff"/><path d="M439.132-22.015,456.642-11.9,439.132-1.8Z" transform="translate(1651.125 645.696)" fill="#fff"/><path d="M422.616-11.826l17.676-10.209V-1.626Z" transform="translate(1589.026 645.623)" fill="#fff"/><path d="M393.336-22.006l17.436,10.071L393.336-1.874Z" transform="translate(1478.936 645.732)" fill="#fff"/><path d="M376.927-12.19,393.8-21.938V-2.453Z" transform="translate(1417.237 645.987)" fill="#fff"/><path d="M347.656-21.8l15.728,9.083L347.656-3.633Z" transform="translate(1307.177 646.512)" fill="#fff"/><path d="M331.444-13.226l14.6-8.437V-4.789Z" transform="translate(1246.222 647.023)" fill="#fff"/><path d="M302.007-21.534l13.541,7.828L302.007-5.9Z" transform="translate(1135.541 647.504)" fill="#fff"/><path d="M285.759-13.6l13.781-7.956V-5.648Z" transform="translate(1074.448 647.402)" fill="#fff"/><path d="M262.2,1.76,280.679-8.91V12.43Z" transform="translate(985.867 694.97)" fill="#fff"/><path d="M255.617,3.886l21.977,12.692L255.617,29.27Z" transform="translate(961.114 743.084)" fill="#fff"/><path d="M237.518,47.228l31.2-18.018V65.245Z" transform="translate(893.064 838.3)" fill="#fff"/><path d="M231.754,41.884l35.721,20.621-35.721,20.63Z" transform="translate(871.388 885.955)" fill="#fff"/><path d="M212.538,93.658l46.049-26.584v53.185Z" transform="translate(799.14 980.669)" fill="#fff"/><path d="M207.836,79.787,258.076,108.8l-50.241,29Z" transform="translate(781.458 1028.47)" fill="#fff"/><path d="M187.872,139.076,246.53,105.21v67.733Z" transform="translate(706.395 1124.058)" fill="#fff"/><path d="M183.939,117.729,248.4,154.946l-64.465,37.208Z" transform="translate(691.608 1171.13)" fill="#fff"/><path d="M162.609,186.434l75.524-43.6v87.208Z" transform="translate(611.405 1265.507)" fill="#fff"/><path d="M159.969,155.541,239.7,201.573,159.969,247.6Z" transform="translate(601.481 1313.302)" fill="#fff"/><path d="M138.864,228.853l81.559-47.093v94.186Z" transform="translate(522.124 1411.886)" fill="#fff"/><path d="M136.973,195.036l81.116,46.835-81.116,46.835Z" transform="translate(515.015 1461.802)" fill="#fff"/><path d="M137.341,222.118l75.855,43.8-75.855,43.8Z" transform="translate(516.4 1563.631)" fill="#fff"/><path d="M140.174,277.468l72.2-41.685v83.369Z" transform="translate(527.053 1615.012)" fill="#fff"/><path d="M161.476,263.922l58.216,33.617-58.216,33.6Z" transform="translate(607.147 1720.815)" fill="#fff"/><path d="M166.346,306.489l48.846-28.209v56.407Z" transform="translate(625.455 1774.799)" fill="#fff"/><path d="M186.177,306.7l32.509,18.775-32.509,18.765Z" transform="translate(700.023 1881.673)" fill="#fff"/><path d="M192.747,334.749l23.841-13.773v27.544Z" transform="translate(724.725 1935.336)" fill="#fff"/><path d="M210.766,349.292l8.4,4.856-8.4,4.854Z" transform="translate(792.475 2041.803)" fill="#fff"/><path d="M218.565,364.9l3.019-1.735v3.479Z" transform="translate(821.8 2093.979)" fill="#fff"/><path d="M584.9,47.827l3.535-2.04v4.089Z" transform="translate(2199.206 900.633)" fill="#fff"/><path d="M577.412,32.392l4.974,2.87-4.974,2.88Z" transform="translate(2171.055 850.266)" fill="#fff"/><path d="M561.394,10.14,569.239,5.6v9.074Z" transform="translate(2110.829 749.523)" fill="#fff"/><path d="M554.233-7.754l8.954,5.169-8.954,5.169Z" transform="translate(2083.902 699.315)" fill="#fff"/><path d="M554.31-34.065l7.854,4.542L554.31-25Z" transform="translate(2084.194 600.388)" fill="#fff"/><path d="M538.262-28.772l9.5-5.493V-23.29Z" transform="translate(2023.852 599.637)" fill="#fff"/><path d="M508.282-34.461l11.095,6.425-11.095,6.405Z" transform="translate(1911.13 598.901)" fill="#fff"/><path d="M492.158-27.788l11.667-6.738v13.458Z" transform="translate(1850.503 598.653)" fill="#fff"/><path d="M462.369-34.655l12.71,7.348-12.71,7.338Z" transform="translate(1738.496 598.171)" fill="#fff"/><path d="M446.14-27.082l13.218-7.633v15.257Z" transform="translate(1677.476 597.946)" fill="#fff"/><path d="M416.533-34.715l13.21,7.633-13.21,7.624Z" transform="translate(1566.153 597.946)" fill="#fff"/><path d="M400.348-27.1,413.5-34.709v15.193Z" transform="translate(1505.3 597.968)" fill="#fff"/><path d="M370.776-34.639l12.582,7.274-12.582,7.254Z" transform="translate(1394.109 598.23)" fill="#fff"/><path d="M354.66-27.467l12.351-7.145v14.27Z" transform="translate(1333.512 598.332)" fill="#fff"/><path d="M325.087-34.443,336.063-28.1,325.087-21.77Z" transform="translate(1222.321 598.967)" fill="#fff"/><path d="M309.13-28.357l10.422-6.018v12.027Z" transform="translate(1162.322 599.222)" fill="#fff"/><path d="M279.244-34.519l11.594,6.7-11.594,6.692Z" transform="translate(1049.949 598.682)" fill="#fff"/><path d="M262.984-27.235l12.885-7.439v14.879Z" transform="translate(988.813 598.099)" fill="#fff"/><path d="M256.014-21.864l16.273,9.4L256.014-3.08Z" transform="translate(962.608 646.264)" fill="#fff"/><path d="M238.705,16.921,261.43,3.8V30.047Z" transform="translate(897.527 742.742)" fill="#fff"/><path d="M232.4,16.566l26.435,15.268L232.4,47.1Z" transform="translate(873.831 790.761)" fill="#fff"/><path d="M214.163,61.921l34.448-19.882V81.822Z" transform="translate(805.249 886.539)" fill="#fff"/><path d="M208.652,54.76l38.583,22.264L208.652,99.306Z" transform="translate(784.527 934.369)" fill="#fff"/><path d="M189.385,107.7l47.85-27.627v55.253Z" transform="translate(712.082 1029.564)" fill="#fff"/><path d="M184.847,92.853l51.515,29.75-51.515,29.749Z" transform="translate(695.02 1077.598)" fill="#fff"/><path d="M164.5,153.853l62.057-35.833v71.647Z" transform="translate(618.499 1172.223)" fill="#fff"/><path d="M160.8,130.537l67.862,39.183L160.8,208.893Z" transform="translate(604.61 1219.289)" fill="#fff"/><path d="M139.486,200.377,216.6,155.859v89.036Z" transform="translate(524.464 1314.497)" fill="#fff"/><path d="M137.107,168.83l79.187,45.71-79.187,45.709Z" transform="translate(515.518 1363.268)" fill="#fff"/><path d="M116.5,240.31l77.7-44.86v89.729Z" transform="translate(438.049 1463.362)" fill="#fff"/><path d="M114.525,209.044l74.646,43.088-74.646,43.105Z" transform="translate(430.612 1514.473)" fill="#fff"/><path d="M117.3,264.167l72.016-41.584V305.75Z" transform="translate(441.045 1565.38)" fill="#fff"/><path d="M138.26,250.154l62.729,36.211-62.729,36.22Z" transform="translate(519.856 1669.047)" fill="#fff"/><path d="M142.47,296.438l55.807-32.222v64.437Z" transform="translate(535.685 1721.916)" fill="#fff"/><path d="M162.77,292.6l39.754,22.957L162.77,338.508Z" transform="translate(612.01 1828.659)" fill="#fff"/><path d="M168.682,325.319l32.168-18.572V343.89Z" transform="translate(634.241 1881.834)" fill="#fff"/><path d="M187.345,335.171l15.83,9.138-15.83,9.138Z" transform="translate(704.412 1988.709)" fill="#fff"/><path d="M194.764,354.614l9.443-5.446v10.891Z" transform="translate(732.308 2041.337)" fill="#fff"/><path d="M211.352,376.755h.028l-.028.018Z" transform="translate(794.677 2145.061)" fill="#fff"/><path d="M584.7,22.02l4.919-2.843v5.686Z" transform="translate(2198.476 800.576)" fill="#fff"/><path d="M577.336,5.818l6.054,3.5L577.336,12.8Z" transform="translate(2170.77 750.347)" fill="#fff"/><path d="M561.394-16.3l7.845-4.541v9.074Z" transform="translate(2110.829 650.1)" fill="#fff"/><path d="M561.623-43.5l6.212-3.591v7.182Z" transform="translate(2111.689 551.42)" fill="#fff"/><path d="M531.409-47.286l7.855,4.532-7.855,4.532Z" transform="translate(1998.085 550.677)" fill="#fff"/><path d="M515.525-42.535l8.335-4.809v9.618Z" transform="translate(1938.362 550.458)" fill="#fff"/><path d="M485.575-47.344l8.336,4.809-8.336,4.809Z" transform="translate(1825.749 550.458)" fill="#fff"/><path d="M469.679-42.39l8.658-4.993v10Z" transform="translate(1765.984 550.312)" fill="#fff"/><path d="M439.741-47.4l8.824,5.1-8.824,5.1Z" transform="translate(1653.414 550.232)" fill="#fff"/><path d="M423.863-42.338l8.768-5.058v10.125Z" transform="translate(1593.714 550.261)" fill="#fff"/><path d="M393.943-47.4l8.77,5.058-8.77,5.067Z" transform="translate(1481.217 550.261)" fill="#fff"/><path d="M378.139-42.594l8.216-4.735v9.479Z" transform="translate(1421.794 550.516)" fill="#fff"/><path d="M348.181-47.329l8.216,4.735-8.216,4.744Z" transform="translate(1309.152 550.516)" fill="#fff"/><path d="M332.416-42.842l7.661-4.422v8.843Z" transform="translate(1249.875 550.764)" fill="#fff"/><path d="M302.418-47.263l7.671,4.422-7.671,4.422Z" transform="translate(1137.087 550.764)" fill="#fff"/><path d="M286.506-42.492l8.445-4.865v9.738Z" transform="translate(1077.255 550.414)" fill="#fff"/><path d="M256.354-47.721l11.437,6.6-11.437,6.609Z" transform="translate(963.884 549.043)" fill="#fff"/><path d="M239.5-12.1l17.058-9.858V-2.245Z" transform="translate(900.509 645.9)" fill="#fff"/><path d="M232.824-9.147l20.427,11.8-20.427,11.8Z" transform="translate(875.412 694.08)" fill="#fff"/><path d="M215.342,31.644l26.029-15.028V46.671Z" transform="translate(809.682 790.951)" fill="#fff"/><path d="M209.312,29.456,238.489,46.3,209.312,63.156Z" transform="translate(787.007 839.227)" fill="#fff"/><path d="M191.039,75.872l36.044-20.806V96.7Z" transform="translate(718.301 935.521)" fill="#fff"/><path d="M185.623,67.755,226.061,91.1l-40.438,23.353Z" transform="translate(697.937 983.228)" fill="#fff"/><path d="M166.464,121l48-27.719v55.438Z" transform="translate(625.9 1079.202)" fill="#fff"/><path d="M161.856,105.919l52.8,30.488-52.8,30.488Z" transform="translate(608.576 1126.726)" fill="#fff"/><path d="M141.222,168.284l64.724-37.365v74.729Z" transform="translate(530.99 1220.725)" fill="#fff"/><path d="M137.743,143.485l70.114,40.485-70.114,40.484Z" transform="translate(517.91 1267.972)" fill="#fff"/><path d="M116.714,213.183l76.2-43.992v87.984Z" transform="translate(438.843 1364.624)" fill="#fff"/><path d="M114.409,182.4l76.307,44.047L114.409,270.5Z" transform="translate(430.174 1414.292)" fill="#fff"/><path d="M94.559,250.418,165.43,209.5v81.846Z" transform="translate(355.542 1516.187)" fill="#fff"/><path d="M115.33,236.879l63.154,36.469L115.33,309.817Z" transform="translate(433.638 1619.132)" fill="#fff"/><path d="M119.342,283.959l57.43-33.165v66.33Z" transform="translate(448.724 1671.453)" fill="#fff"/><path d="M139.565,278.858l44.085,25.458-44.085,25.447Z" transform="translate(524.763 1776.972)" fill="#fff"/><path d="M144.966,314.752l37.983-21.933v43.854Z" transform="translate(545.07 1829.468)" fill="#fff"/><path d="M163.889,320.984l23.777,13.735-23.777,13.734Z" transform="translate(616.217 1935.366)" fill="#fff"/><path d="M170.994,344.237l15.664-9.046v18.092Z" transform="translate(642.932 1988.781)" fill="#fff"/><path d="M188.169,363.041l4.071,2.345-4.071,2.353Z" transform="translate(707.51 2093.498)" fill="#fff"/><path d="M196.084,376.755h.019v.018Z" transform="translate(737.273 2145.061)" fill="#fff"/><path d="M584.629-4.182l5.456-3.148v6.286Z" transform="translate(2198.192 700.912)" fill="#fff"/><path d="M577.326-20.646l6.212,3.6-6.212,3.581Z" transform="translate(2170.733 650.843)" fill="#fff"/><path d="M554.5-60.178l5.141,2.963L554.5-54.252Z" transform="translate(2084.909 502.205)" fill="#fff"/><path d="M538.8-56.967l5.668-3.277v6.554Z" transform="translate(2025.871 501.957)" fill="#fff"/><path d="M508.662-60.244l5.677,3.277-5.677,3.277Z" transform="translate(1912.559 501.957)" fill="#fff"/><path d="M493.005-57l5.622-3.24v6.48Z" transform="translate(1853.689 501.986)" fill="#fff"/><path d="M462.9-60.172l5.076,2.936L462.9-54.3Z" transform="translate(1740.501 502.226)" fill="#fff"/><path d="M447.28-57.236l5.076-2.936v5.87Z" transform="translate(1681.763 502.226)" fill="#fff"/><path d="M417.107-60.162l5.011,2.889-5.011,2.889Z" transform="translate(1568.312 502.263)" fill="#fff"/><path d="M401.488-57.273l5.012-2.889v5.779Z" transform="translate(1509.588 502.263)" fill="#fff"/><path d="M371.272-60.221l5.492,3.166-5.492,3.165Z" transform="translate(1395.976 502.044)" fill="#fff"/><path d="M355.612-57.025l5.557-3.2v6.406Z" transform="translate(1337.092 502.015)" fill="#fff"/><path d="M325.468-60.228l5.547,3.2-5.547,3.2Z" transform="translate(1223.751 502.015)" fill="#fff"/><path d="M309.789-56.953l5.713-3.295v6.59Z" transform="translate(1164.801 501.943)" fill="#fff"/><path d="M279.5-60.511l7.883,4.551L279.5-51.41Z" transform="translate(1050.927 500.95)" fill="#fff"/><path d="M263.453-55.2l9.535-5.511v11.021Z" transform="translate(990.577 500.192)" fill="#fff"/><path d="M240.061-40.384,253.1-47.917v15.073Z" transform="translate(902.623 548.307)" fill="#fff"/><path d="M233.179-34.977l15.369,8.88-15.369,8.861Z" transform="translate(876.747 596.961)" fill="#fff"/><path d="M216.068,2.84,236.91-9.2V14.866Z" transform="translate(812.409 693.891)" fill="#fff"/><path d="M209.73,3.737l23.2,13.4-23.2,13.4Z" transform="translate(788.581 742.523)" fill="#fff"/><path d="M192.259,45.463l27.331-15.784V61.246Z" transform="translate(722.888 840.065)" fill="#fff"/><path d="M186.389,42.64l29.491,17.021-29.491,17.03Z" transform="translate(700.817 888.799)" fill="#fff"/><path d="M168.067,89.319l36.551-21.091v42.191Z" transform="translate(631.93 985.007)" fill="#fff"/><path d="M162.729,80.989l40.337,23.289-40.337,23.288Z" transform="translate(611.857 1032.99)" fill="#fff"/><path d="M143.492,134.438l48.515-28v56Z" transform="translate(539.528 1128.695)" fill="#fff"/><path d="M138.811,118.892l54.856,31.679-54.856,31.661Z" transform="translate(521.927 1175.505)" fill="#fff"/><path d="M118.031,182.453l66.791-38.565v77.129Z" transform="translate(443.794 1269.488)" fill="#fff"/><path d="M114.766,156.572l71.221,41.121-71.221,41.121Z" transform="translate(431.516 1317.18)" fill="#fff"/><path d="M94.207,225.128,167.6,182.751v84.763Z" transform="translate(354.215 1415.612)" fill="#fff"/><path d="M91.841,196.2,163.4,237.511,91.841,278.826Z" transform="translate(345.32 1466.162)" fill="#fff"/><path d="M92.436,223.669l63.053,36.414-63.053,36.4Z" transform="translate(347.558 1569.464)" fill="#fff"/><path d="M96.39,270.9l57.8-33.368v66.735Z" transform="translate(362.424 1621.581)" fill="#fff"/><path d="M116.515,265.377l46.226,26.694-46.226,26.676Z" transform="translate(438.093 1726.283)" fill="#fff"/><path d="M121.876,302.151l39.34-22.717v45.423Z" transform="translate(458.253 1779.137)" fill="#fff"/><path d="M140.686,307.243l28.079,16.209-28.079,16.208Z" transform="translate(528.978 1883.7)" fill="#fff"/><path d="M147.247,333.771l21.71-12.535v25.069Z" transform="translate(553.644 1936.314)" fill="#fff"/><path d="M164.932,349.234l8.889,5.133-8.889,5.131Z" transform="translate(620.14 2041.584)" fill="#fff"/><path d="M172.669,365.218l3.7-2.132v4.273Z" transform="translate(649.232 2093.666)" fill="#fff"/><path d="M584.674-30.763l5.141-2.973V-27.8Z" transform="translate(2198.36 601.628)" fill="#fff"/><path d="M577.415-46.929l4.92,2.834-4.92,2.843Z" transform="translate(2171.069 552.018)" fill="#fff"/><path d="M577.586-73.081l2.492,1.449-2.492,1.439Z" transform="translate(2171.711 453.689)" fill="#fff"/><path d="M562.071-71.4l3.018-1.745v3.49Z" transform="translate(2113.374 453.455)" fill="#fff"/><path d="M531.69-73.244l3.849,2.225-3.849,2.224Z" transform="translate(1999.142 453.076)" fill="#fff"/><path d="M516.2-71.165l3.544-2.04v4.079Z" transform="translate(1940.885 453.223)" fill="#fff"/><path d="M485.984-73.081l2.493,1.449-2.493,1.439Z" transform="translate(1827.288 453.689)" fill="#fff"/><path d="M470.55-71.668l2.437-1.4v2.806Z" transform="translate(1769.257 453.725)" fill="#fff"/><path d="M440.192-73.066l2.372,1.376-2.372,1.375Z" transform="translate(1655.113 453.747)" fill="#fff"/><path d="M424.759-71.69l2.381-1.376v2.751Z" transform="translate(1597.082 453.747)" fill="#fff"/><path d="M394.354-73.128l2.9,1.671-2.9,1.67Z" transform="translate(1482.764 453.514)" fill="#fff"/><path d="M378.812-71.209l3.415-1.985v3.96Z" transform="translate(1424.324 453.266)" fill="#fff"/><path d="M348.468-73.275l4.107,2.372-4.107,2.372Z" transform="translate(1310.232 452.96)" fill="#fff"/><path d="M332.862-70.728l4.486-2.594v5.187Z" transform="translate(1251.552 452.785)" fill="#fff"/><path d="M302.568-73.45l5.547,3.2-5.547,3.2Z" transform="translate(1137.648 452.303)" fill="#fff"/><path d="M286.737-69.677,293.53-73.6v7.846Z" transform="translate(1078.123 451.734)" fill="#fff"/><path d="M256.476-73.954l9.711,5.6-9.711,5.6Z" transform="translate(964.344 450.408)" fill="#fff"/><path d="M240.3-67.592l11.372-6.563V-61.03Z" transform="translate(903.506 449.649)" fill="#fff"/><path d="M233.353-61.118l12.877,7.44-12.877,7.439Z" transform="translate(877.403 498.668)" fill="#fff"/><path d="M216.6-25.353l17.012-9.821v19.633Z" transform="translate(814.429 596.218)" fill="#fff"/><path d="M210.016-22.209l19.116,11.04L210.016-.13Z" transform="translate(789.653 644.966)" fill="#fff"/><path d="M192.895,16.95l22.8-13.163V30.113Z" transform="translate(725.279 742.713)" fill="#fff"/><path d="M186.823,16.95,210.1,30.39,186.823,43.83Z" transform="translate(702.451 792.205)" fill="#fff"/><path d="M169.559,58.028l25.91-14.953V72.99Z" transform="translate(637.536 890.433)" fill="#fff"/><path d="M163.547,55.965,192.189,72.5l-28.642,16.54Z" transform="translate(614.934 938.898)" fill="#fff"/><path d="M145.255,102.266,181.18,81.525v41.481Z" transform="translate(546.156 1035.003)" fill="#fff"/><path d="M139.9,94.337l39.3,22.688-39.3,22.688Z" transform="translate(526.025 1083.176)" fill="#fff"/><path d="M120.2,148.96l51.312-29.639v59.268Z" transform="translate(451.946 1177.116)" fill="#fff"/><path d="M115.7,131.741l57.93,33.452L115.7,198.635Z" transform="translate(435.015 1223.816)" fill="#fff"/><path d="M94.85,196.586l68.794-39.719v79.427Z" transform="translate(356.635 1318.288)" fill="#fff"/><path d="M91.864,169.8l71.221,41.112L91.864,252.019Z" transform="translate(345.407 1366.899)" fill="#fff"/><path d="M71.844,236.592l69.551-40.153v80.314Z" transform="translate(270.132 1467.08)" fill="#fff"/><path d="M69.348,210.126l65.73,37.937-65.73,37.955Z" transform="translate(260.748 1518.542)" fill="#fff"/><path d="M73.176,258.7l60.035-34.66v69.321Z" transform="translate(275.141 1570.849)" fill="#fff"/><path d="M93.6,252.125l46.466,26.833L93.6,305.789Z" transform="translate(351.925 1676.455)" fill="#fff"/><path d="M98.833,289.387l40.356-23.3v46.595Z" transform="translate(371.611 1728.966)" fill="#fff"/><path d="M117.705,293.881l29.242,16.883-29.242,16.873Z" transform="translate(442.569 1833.457)" fill="#fff"/><path d="M124.023,321.6l24.008-13.864v27.728Z" transform="translate(466.324 1885.553)" fill="#fff"/><path d="M141.78,335.582l12.452,7.181-12.452,7.191Z" transform="translate(533.09 1990.254)" fill="#fff"/><path d="M149.188,353.893l7.846-4.532v9.073Z" transform="translate(560.942 2042.058)" fill="#fff"/><path d="M165.552,376.755h.018l-.018.018Z" transform="translate(622.473 2145.061)" fill="#fff"/><path d="M584.928-58.046l3.323-1.911v3.831Z" transform="translate(2199.315 503.036)" fill="#fff"/><path d="M585.325-85.781l.48-.277v.563Z" transform="translate(2200.81 404.896)" fill="#fff"/><path d="M554.725-86.233l1.92,1.108-1.92,1.117Z" transform="translate(2085.755 404.24)" fill="#fff"/><path d="M539.315-85.1l1.985-1.135v2.28Z" transform="translate(2027.811 404.218)" fill="#fff"/><path d="M508.959-86.17l1.412.812-1.412.821Z" transform="translate(1913.675 404.473)" fill="#fff"/><path d="M493.665-85.591l.913-.517v1.052Z" transform="translate(1856.169 404.706)" fill="#fff"/><path d="M463.228-86.05l.434.24-.434.258Z" transform="translate(1741.725 404.925)" fill="#fff"/><path d="M447.932-85.81l.424-.24v.5Z" transform="translate(1684.213 404.925)" fill="#fff"/><path d="M417.384-86.128l1.061.609-1.061.618Z" transform="translate(1569.354 404.634)" fill="#fff"/><path d="M401.979-85.314l1.5-.868v1.745Z" transform="translate(1511.432 404.429)" fill="#fff"/><path d="M371.476-86.314l2.584,1.5-2.584,1.5Z" transform="translate(1396.742 403.934)" fill="#fff"/><path d="M355.91-84.439l3.425-1.976v3.961Z" transform="translate(1338.215 403.554)" fill="#fff"/><path d="M325.541-86.543l4.486,2.584-4.486,2.593Z" transform="translate(1224.028 403.074)" fill="#fff"/><path d="M309.865-83.645l5.169-2.981v5.971Z" transform="translate(1165.085 402.76)" fill="#fff"/><path d="M279.54-86.888l7.348,4.228-7.348,4.245Z" transform="translate(1051.065 401.775)" fill="#fff"/><path d="M263.529-81.9l9-5.187v10.384Z" transform="translate(990.862 401.017)" fill="#fff"/><path d="M233.435-87.419l11.7,6.756-11.7,6.765Z" transform="translate(877.709 399.778)" fill="#fff"/><path d="M217-53.088l14.178-8.187V-44.9Z" transform="translate(815.923 498.078)" fill="#fff"/><path d="M210.242-48.26l15.867,9.165-15.867,9.165Z" transform="translate(790.506 547.017)" fill="#fff"/><path d="M193.329-10.906l19.7-11.373V.456Z" transform="translate(726.912 644.704)" fill="#fff"/><path d="M187-9.2,207.829,2.84,187,14.866Z" transform="translate(703.099 693.891)" fill="#fff"/><path d="M170.319,29.107l20.474-11.815v23.63Z" transform="translate(640.394 793.489)" fill="#fff"/><path d="M164.09,30.462l20.889,12.055L164.09,54.573Z" transform="translate(616.975 843.01)" fill="#fff"/><path d="M146.892,70.492,171.13,56.5v28Z" transform="translate(552.31 940.902)" fill="#fff"/><path d="M140.731,69.331l27.45,15.84-27.45,15.857Z" transform="translate(529.146 989.155)" fill="#fff"/><path d="M122.5,115.013,157.39,94.872v40.281Z" transform="translate(460.593 1085.188)" fill="#fff"/><path d="M116.926,107.428,157.3,130.734l-40.374,23.307Z" transform="translate(439.639 1132.399)" fill="#fff"/><path d="M96.735,164.012l55.337-31.956v63.911Z" transform="translate(363.722 1224.997)" fill="#fff"/><path d="M92.529,144.5l61.724,35.638L92.529,215.77Z" transform="translate(347.907 1271.8)" fill="#fff"/><path d="M71.832,210.193l69.634-40.207V250.4Z" transform="translate(270.089 1367.614)" fill="#fff"/><path d="M69.064,183.187l69.809,40.3L69.064,263.8Z" transform="translate(259.677 1417.252)" fill="#fff"/><path d="M49.588,247.713l64.945-37.494v74.988Z" transform="translate(186.451 1518.892)" fill="#fff"/><path d="M70.417,238.419l50.481,29.14L70.417,296.7Z" transform="translate(264.766 1624.921)" fill="#fff"/><path d="M75.651,277.084l42.377-24.461v48.93Z" transform="translate(284.444 1678.329)" fill="#fff"/><path d="M94.833,280.708l28.836,16.653L94.833,314Z" transform="translate(356.57 1783.927)" fill="#fff"/><path d="M101.122,308.379l24.017-13.864v27.728Z" transform="translate(380.215 1835.841)" fill="#fff"/><path d="M118.723,322.086l14.7,8.492-14.7,8.492Z" transform="translate(446.397 1939.507)" fill="#fff"/><path d="M126.032,341.5l9.673-5.575v11.16Z" transform="translate(473.878 1991.523)" fill="#fff"/><path d="M142.478,363.231l2.493,1.44-2.493,1.44Z" transform="translate(535.714 2094.212)" fill="#fff"/><path d="M562.49-99.221h.027v.019Z" transform="translate(2114.948 355.403)" fill="#fff"/><path d="M531.93-99.271l.415.24-.415.25Z" transform="translate(2000.046 355.214)" fill="#fff"/><path d="M394.486-99.341l1.006.572-1.006.591Z" transform="translate(1483.259 354.952)" fill="#fff"/><path d="M379.029-98.375l1.865-1.071v2.151Z" transform="translate(1425.141 354.557)" fill="#fff"/><path d="M348.516-99.636l3.424,1.975-3.424,1.985Z" transform="translate(1310.414 353.843)" fill="#fff"/><path d="M332.914-97.355l4.107-2.363v4.745Z" transform="translate(1251.749 353.537)" fill="#fff"/><path d="M302.558-99.905l5.659,3.258-5.659,3.268Z" transform="translate(1137.611 352.83)" fill="#fff"/><path d="M286.737-96.13l6.793-3.914V-92.2Z" transform="translate(1078.123 352.312)" fill="#fff"/><path d="M256.513-100.33l9.156,5.28-9.156,5.3Z" transform="translate(964.482 351.233)" fill="#fff"/><path d="M240.451-94.547l10.264-5.917v11.843Z" transform="translate(904.089 350.729)" fill="#fff"/><path d="M217.159-80.05l13.052-7.532v15.074Z" transform="translate(816.514 399.165)" fill="#fff"/><path d="M210.363-74.5l14.169,8.188-14.169,8.187Z" transform="translate(790.958 448.366)" fill="#fff"/><path d="M193.705-38.583,210.716-48.4v19.634Z" transform="translate(728.327 546.506)" fill="#fff"/><path d="M187.166-35.341l18.378,10.615L187.166-14.121Z" transform="translate(703.741 595.59)" fill="#fff"/><path d="M170.579,1.819,189.2-8.926V12.562Z" transform="translate(641.372 694.912)" fill="#fff"/><path d="M164.3,4.375l17.954,10.366L164.3,25.1Z" transform="translate(617.748 744.922)" fill="#fff"/><path d="M147.914,40.724l16.947-9.785V50.508Z" transform="translate(556.152 844.804)" fill="#fff"/><path d="M141.433,44.106,158.85,54.149,141.433,64.21Z" transform="translate(531.785 894.312)" fill="#fff"/><path d="M124.205,83.012l22.706-13.107V96.128Z" transform="translate(467.01 991.314)" fill="#fff"/><path d="M117.89,82.655l26.593,15.36-26.593,15.35Z" transform="translate(443.262 1039.254)" fill="#fff"/><path d="M99.341,129.072l36.727-21.2v42.4Z" transform="translate(373.522 1134.061)" fill="#fff"/><path d="M93.7,120.095l44.952,25.956L93.7,172.007Z" transform="translate(352.326 1180.025)" fill="#fff"/><path d="M73.171,179.391,133.26,144.7v69.376Z" transform="translate(275.119 1272.55)" fill="#fff"/><path d="M69.379,157.292l65.287,37.7L69.379,232.676Z" transform="translate(260.865 1319.885)" fill="#fff"/><path d="M48.958,223.327l69.449-40.1v80.194Z" transform="translate(184.082 1417.413)" fill="#fff"/><path d="M46.232,196.529l68.831,39.728L46.232,276Z" transform="translate(173.83 1467.416)" fill="#fff"/><path d="M47.036,224.363l57.33,33.11-57.33,33.1Z" transform="translate(176.856 1572.074)" fill="#fff"/><path d="M51.892,266.662l48.505-28v56.01Z" transform="translate(195.113 1625.818)" fill="#fff"/><path d="M71.687,267.06l32.344,18.682L71.687,304.406Z" transform="translate(269.541 1732.612)" fill="#fff"/><path d="M78.059,295.69l25.171-14.538v29.067Z" transform="translate(293.5 1785.597)" fill="#fff"/><path d="M95.783,308.8l15.267,8.816-15.267,8.805Z" transform="translate(360.142 1889.54)" fill="#fff"/><path d="M102.975,328.784l10.781-6.221v12.443Z" transform="translate(387.186 1941.301)" fill="#fff"/><path d="M119.5,349.884l3.545,2.041-3.545,2.049Z" transform="translate(449.336 2044.026)" fill="#fff"/><path d="M127.252,363.971l.959-.554v1.116Z" transform="translate(478.465 2094.912)" fill="#fff"/><path d="M402.138-112.282l.368-.2v.425Z" transform="translate(1512.031 305.531)" fill="#fff"/><path d="M371.527-112.667l1.855,1.071-1.855,1.08Z" transform="translate(1396.932 304.846)" fill="#fff"/><path d="M356.035-111.29l2.529-1.458v2.926Z" transform="translate(1338.682 304.54)" fill="#fff"/><path d="M325.568-112.939l4.108,2.363-4.108,2.372Z" transform="translate(1224.129 303.825)" fill="#fff"/><path d="M309.917-110.255l4.79-2.769v5.539Z" transform="translate(1165.282 303.504)" fill="#fff"/><path d="M279.579-113.265l6.8,3.914-6.8,3.932Z" transform="translate(1051.211 302.6)" fill="#fff"/><path d="M263.661-108.768l8.058-4.652v9.3Z" transform="translate(991.358 302.017)" fill="#fff"/><path d="M233.547-113.666l10.1,5.824-10.1,5.834Z" transform="translate(878.132 301.091)" fill="#fff"/><path d="M217.474-107.513l10.817-6.24v12.489Z" transform="translate(817.695 300.763)" fill="#fff"/><path d="M210.479-100.734l12.5,7.2-12.5,7.219Z" transform="translate(791.396 349.716)" fill="#fff"/><path d="M193.944-65.791l15.3-8.844v17.677Z" transform="translate(729.223 447.848)" fill="#fff"/><path d="M187.3-61.549l16.439,9.489L187.3-42.571Z" transform="translate(704.252 497.05)" fill="#fff"/><path d="M170.773-25.244,188.015-35.2v19.91Z" transform="translate(642.101 596.109)" fill="#fff"/><path d="M164.381-21.922l16.744,9.674L164.381-2.593Z" transform="translate(618.069 646.046)" fill="#fff"/><path d="M148.274,13.107l14.372-8.3v16.6Z" transform="translate(557.508 746.555)" fill="#fff"/><path d="M141.732,18.18l13.153,7.588-13.153,7.587Z" transform="translate(532.908 796.828)" fill="#fff"/><path d="M125.516,52.3l13.348-7.7V60.014Z" transform="translate(471.938 896.163)" fill="#fff"/><path d="M118.694,57.607l15.11,8.714-15.11,8.732Z" transform="translate(446.288 945.073)" fill="#fff"/><path d="M101.352,96.082l22.375-12.913V109Z" transform="translate(381.083 1041.186)" fill="#fff"/><path d="M94.943,95.8l27.248,15.729L94.943,127.256Z" transform="translate(356.985 1088.673)" fill="#fff"/><path d="M75.589,145.074l42.81-24.72v49.438Z" transform="translate(284.212 1181.002)" fill="#fff"/><path d="M70.336,132.505l51.625,29.815L70.336,192.115Z" transform="translate(264.46 1226.689)" fill="#fff"/><path d="M49.617,194.741l64.742-37.383v74.766Z" transform="translate(186.56 1320.133)" fill="#fff"/><path d="M46.226,170.075l68.9,39.783-68.9,39.783Z" transform="translate(173.808 1367.949)" fill="#fff"/><path d="M25.915,237.015l70.473-40.688V277.7Z" transform="translate(97.44 1466.658)" fill="#fff"/><path d="M23.454,209.963l67.077,38.712-67.077,38.73Z" transform="translate(88.187 1517.929)" fill="#fff"/><path d="M27.61,257.94l58.364-33.7V291.63Z" transform="translate(103.813 1571.607)" fill="#fff"/><path d="M48.357,253.1,86.829,275.3,48.357,297.512Z" transform="translate(181.821 1680.108)" fill="#fff"/><path d="M54.473,284.706l30.072-17.371V302.06Z" transform="translate(204.818 1733.647)" fill="#fff"/><path d="M72.763,295.368l16.966,9.8-16.966,9.793Z" transform="translate(273.588 1839.048)" fill="#fff"/><path d="M79.919,316.074l11.9-6.868V322.94Z" transform="translate(300.493 1891.079)" fill="#fff"/><path d="M96.594,336.641l3.7,2.141-3.7,2.141Z" transform="translate(363.19 1994.235)" fill="#fff"/><path d="M104.28,350.984l1.468-.85v1.7Z" transform="translate(392.092 2044.967)" fill="#fff"/><path d="M394.521-125.726l.517.3-.517.3Z" transform="translate(1483.39 255.746)" fill="#fff"/><path d="M379.149-125.211l1.007-.573v1.154Z" transform="translate(1425.593 255.528)" fill="#fff"/><path d="M348.578-125.97l2.539,1.458-2.539,1.468Z" transform="translate(1310.647 254.828)" fill="#fff"/><path d="M332.988-124.03l3.581-2.068v4.136Z" transform="translate(1252.026 254.347)" fill="#fff"/><path d="M302.593-126.292l5.178,2.991-5.178,2.991Z" transform="translate(1137.743 253.618)" fill="#fff"/><path d="M286.82-122.834l6.2-3.581v7.163Z" transform="translate(1078.437 253.151)" fill="#fff"/><path d="M256.6-126.621l7.883,4.56L256.6-117.5Z" transform="translate(964.825 252.379)" fill="#fff"/><path d="M240.639-121.6l8.926-5.15v10.3Z" transform="translate(904.796 251.912)" fill="#fff"/><path d="M210.613-126.947l10.588,6.111-10.588,6.111Z" transform="translate(791.898 251.153)" fill="#fff"/><path d="M194.19-93.046l13.55-7.817v15.645Z" transform="translate(730.149 349.228)" fill="#fff"/><path d="M187.422-87.788l14.741,8.511-14.741,8.52Z" transform="translate(704.703 398.392)" fill="#fff"/><path d="M170.963-52.315l15.875-9.166V-43.15Z" transform="translate(642.816 497.305)" fill="#fff"/><path d="M164.464-48.217l15.544,8.963-15.544,8.972Z" transform="translate(618.383 547.177)" fill="#fff"/><path d="M148.338-13.547l13.91-8.03V-5.516Z" transform="translate(557.749 647.344)" fill="#fff"/><path d="M141.776-8.189,154.3-.952,141.776,6.265Z" transform="translate(533.075 697.682)" fill="#fff"/><path d="M126.073,24.047l9.379-5.409V29.455Z" transform="translate(474.031 798.549)" fill="#fff"/><path d="M119.131,31.917l8.89,5.132-8.89,5.133Z" transform="translate(447.928 848.479)" fill="#fff"/><path d="M102.933,64.483,114.018,58.1V70.889Z" transform="translate(387.025 946.91)" fill="#fff"/><path d="M95.853,70.929l14.279,8.234L95.853,87.414Z" transform="translate(360.405 995.164)" fill="#fff"/><path d="M78.224,110.047l24-13.854V123.9Z" transform="translate(294.12 1090.154)" fill="#fff"/><path d="M71.77,108.547l31.144,17.981L71.77,144.518Z" transform="translate(269.855 1136.606)" fill="#fff"/><path d="M51.623,161.766l50.425-29.113v58.225Z" transform="translate(194.1 1227.243)" fill="#fff"/><path d="M46.949,144.885l58.586,33.821-58.586,33.82Z" transform="translate(176.528 1273.236)" fill="#fff"/><path d="M25.9,210.609l70.548-40.734v81.467Z" transform="translate(97.396 1367.198)" fill="#fff"/><path d="M23.07,182.854l72.551,41.888L23.07,266.629Z" transform="translate(86.743 1415.998)" fill="#fff"/><path d="M3.174,249.711l69.32-40.023v80.046Z" transform="translate(11.936 1516.894)" fill="#fff"/><path d="M24.7,238.554l49.345,28.495L24.7,295.543Z" transform="translate(92.854 1625.431)" fill="#fff"/><path d="M30.4,275.3,68.868,253.1v44.416Z" transform="translate(114.29 1680.108)" fill="#fff"/><path d="M49.606,281.7l20.63,11.917-20.63,11.906Z" transform="translate(186.516 1787.668)" fill="#fff"/><path d="M56.626,304.136l14.7-8.493v16.975Z" transform="translate(212.911 1840.084)" fill="#fff"/><path d="M73.554,323.181l5.677,3.277-5.677,3.276Z" transform="translate(276.563 1943.627)" fill="#fff"/><path d="M81.309,337.995l1.975-1.144v2.289Z" transform="translate(305.72 1995.023)" fill="#fff"/><path d="M402.183-138.863l.056-.028v.055Z" transform="translate(1512.198 206.247)" fill="#fff"/><path d="M371.552-139.067l1.5.868-1.5.868Z" transform="translate(1397.026 205.583)" fill="#fff"/><path d="M356.108-137.965l2.013-1.164v2.326Z" transform="translate(1338.958 205.35)" fill="#fff"/><path d="M325.605-139.319l3.582,2.068-3.582,2.067Z" transform="translate(1224.268 204.635)" fill="#fff"/><path d="M309.939-136.77l4.644-2.677v5.354Z" transform="translate(1165.362 204.154)" fill="#fff"/><path d="M279.618-139.643l6.258,3.609-6.258,3.608Z" transform="translate(1051.357 203.418)" fill="#fff"/><path d="M263.769-135.56l7.273-4.209v8.418Z" transform="translate(991.766 202.944)" fill="#fff"/><path d="M233.629-139.967l8.925,5.15-8.925,5.15Z" transform="translate(878.439 202.201)" fill="#fff"/><path d="M217.652-134.539l9.543-5.5v11Z" transform="translate(818.366 201.923)" fill="#fff"/><path d="M194.527-120.581l11.142-6.434v12.877Z" transform="translate(731.418 250.898)" fill="#fff"/><path d="M187.583-113.949l12.433,7.172L187.583-99.6Z" transform="translate(705.309 300.027)" fill="#fff"/><path d="M171.131-79.306l14.677-8.474v16.947Z" transform="translate(643.45 398.421)" fill="#fff"/><path d="M164.521-74.565l14.741,8.511-14.741,8.51Z" transform="translate(618.594 448.111)" fill="#fff"/><path d="M148.346-40.028,162.2-48.012v15.977Z" transform="translate(557.778 547.95)" fill="#fff"/><path d="M141.759-34.662l12.775,7.385L141.759-19.9Z" transform="translate(533.009 598.142)" fill="#fff"/><path d="M126.046-2.3l9.572-5.53V3.219Z" transform="translate(473.929 699.031)" fill="#fff"/><path d="M119.216,5.622l7.661,4.431-7.661,4.43Z" transform="translate(448.249 749.61)" fill="#fff"/><path d="M103.765,35.336l5.142-2.963v5.935Z" transform="translate(390.152 850.192)" fill="#fff"/><path d="M96.439,45.5l5.907,3.406-5.907,3.415Z" transform="translate(362.607 899.554)" fill="#fff"/><path d="M80.024,77.734l11.15-6.425V84.176Z" transform="translate(300.887 996.593)" fill="#fff"/><path d="M72.827,83.937,88.879,93.2l-16.051,9.258Z" transform="translate(273.829 1044.073)" fill="#fff"/><path d="M54.57,125.725,83.95,108.76V142.7Z" transform="translate(205.182 1137.408)" fill="#fff"/><path d="M48.262,120.715l39.829,23L48.262,166.71Z" transform="translate(181.464 1182.359)" fill="#fff"/><path d="M27.461,179.1,86.9,144.78v68.628Z" transform="translate(103.251 1272.842)" fill="#fff"/><path d="M23.46,157.088l66.976,38.666L23.46,234.42Z" transform="translate(88.209 1319.12)" fill="#fff"/><path d="M2.406,225.769,77.219,182.58v86.387Z" transform="translate(9.048 1414.97)" fill="#fff"/><path d="M0,195.78l74.978,43.291L0,282.362Z" transform="translate(0 1464.601)" fill="#fff"/><path d="M.851,223.7l62.822,36.276L.851,296.24Z" transform="translate(3.201 1569.573)" fill="#fff"/><path d="M5.713,267.9l51.2-29.566v59.13Z" transform="translate(21.48 1624.585)" fill="#fff"/><path d="M26.126,267.479l28.9,16.688-28.9,16.68Z" transform="translate(98.235 1734.187)" fill="#fff"/><path d="M32.975,293.357l20.048-11.584v23.159Z" transform="translate(123.987 1787.931)" fill="#fff"/><path d="M50.486,309.667l8.077,4.671L50.486,319Z" transform="translate(189.827 1892.814)" fill="#fff"/><path d="M58.115,325.722l4.07-2.345v4.689Z" transform="translate(218.511 1944.363)" fill="#fff"/><path d="M394.521-152.168l.517.3-.517.295Z" transform="translate(1483.39 156.324)" fill="#fff"/><path d="M379.149-151.646l1.007-.582v1.153Z" transform="translate(1425.593 156.098)" fill="#fff"/><path d="M348.578-152.414l2.539,1.468-2.539,1.458Z" transform="translate(1310.647 155.398)" fill="#fff"/><path d="M333.061-150.706l3.055-1.773v3.535Z" transform="translate(1252.303 155.157)" fill="#fff"/><path d="M302.63-152.668l4.643,2.677-4.643,2.677Z" transform="translate(1137.882 154.443)" fill="#fff"/><path d="M286.888-149.5l5.714-3.3v6.609Z" transform="translate(1078.691 153.947)" fill="#fff"/><path d="M256.641-153l7.348,4.246-7.348,4.236Z" transform="translate(964.963 153.204)" fill="#fff"/><path d="M240.782-148.5l7.892-4.56v9.119Z" transform="translate(905.336 152.956)" fill="#fff"/><path d="M210.713-153.217l9.157,5.289-9.157,5.289Z" transform="translate(792.278 152.379)" fill="#fff"/><path d="M194.727-147.672l9.711-5.613v11.216Z" transform="translate(732.169 152.124)" fill="#fff"/><path d="M187.709-140.176l10.642,6.148-10.642,6.147Z" transform="translate(705.783 201.413)" fill="#fff"/><path d="M171.438-106.748l12.489-7.209v14.428Z" transform="translate(644.602 299.997)" fill="#fff"/><path d="M164.6-100.871l13.614,7.855L164.6-85.152Z" transform="translate(618.893 349.198)" fill="#fff"/><path d="M148.381-66.565l13.605-7.864V-58.71Z" transform="translate(557.909 448.622)" fill="#fff"/><path d="M141.737-61.138l13.06,7.532-13.06,7.532Z" transform="translate(532.93 498.595)" fill="#fff"/><path d="M125.931-28.372l10.393-6v11.991Z" transform="translate(473.499 599.236)" fill="#fff"/><path d="M119.137-20.956l8.8,5.077-8.8,5.077Z" transform="translate(447.951 649.677)" fill="#fff"/><path d="M103.815,8.74l4.791-2.769v5.538Z" transform="translate(390.342 750.922)" fill="#fff"/><path d="M96.642,19.409l3.01,1.735-3.01,1.735Z" transform="translate(363.372 801.451)" fill="#fff"/><path d="M81.146,47.645l3.138-1.809v3.628Z" transform="translate(305.108 900.816)" fill="#fff"/><path d="M73.605,58.838l4.947,2.853-4.947,2.861Z" transform="translate(276.753 949.703)" fill="#fff"/><path d="M56.756,92.167,70.536,84.21v15.9Z" transform="translate(213.399 1045.101)" fill="#fff"/><path d="M49.654,96.683,69.611,108.2,49.654,119.732Z" transform="translate(186.699 1091.998)" fill="#fff"/><path d="M30.255,143.557l39.479-22.8v45.579Z" transform="translate(113.757 1182.519)" fill="#fff"/><path d="M24.6,132.626l50.647,29.242L24.6,191.109Z" transform="translate(92.511 1227.141)" fill="#fff"/><path d="M3.3,196.418l68.424-39.506v79.012Z" transform="translate(12.41 1318.456)" fill="#fff"/><path d="M.025,169.38l74.618,43.087L.025,255.555Z" transform="translate(0.095 1365.339)" fill="#fff"/><path d="M2.362,252.759l41.251,23.815L2.362,300.388Z" transform="translate(8.88 1678.839)" fill="#fff"/><path d="M8.674,284.706l30.064-17.371V302.06Z" transform="translate(32.613 1733.647)" fill="#fff"/><path d="M27.236,295.841l13.07,7.551-13.07,7.55Z" transform="translate(102.405 1840.828)" fill="#fff"/><path d="M34.761,313.981l7.311-4.218v8.427Z" transform="translate(130.702 1893.172)" fill="#fff"/><path d="M51.051,337.089l.018.009-.018.018Z" transform="translate(191.949 1995.919)" fill="#fff"/><path d="M417.454-165.335l.055.037-.055.018Z" transform="translate(1569.617 106.817)" fill="#fff"/><path d="M402.119-165.094l.517-.3v.591Z" transform="translate(1511.958 106.612)" fill="#fff"/><path d="M371.548-165.517l1.559.9-1.559.9Z" transform="translate(1397.012 106.131)" fill="#fff"/><path d="M356.035-164.168l2.529-1.468v2.926Z" transform="translate(1338.682 105.687)" fill="#fff"/><path d="M325.605-165.762l3.582,2.068-3.582,2.067Z" transform="translate(1224.268 105.212)" fill="#fff"/><path d="M309.939-163.213l4.644-2.677v5.354Z" transform="translate(1165.362 104.732)" fill="#fff"/><path d="M279.643-166.041l5.88,3.4-5.88,3.388Z" transform="translate(1051.452 104.163)" fill="#fff"/><path d="M263.835-162.221l6.8-3.932v7.845Z" transform="translate(992.014 103.74)" fill="#fff"/><path d="M233.691-166.3l8.058,4.652L233.691-157Z" transform="translate(878.672 103.171)" fill="#fff"/><path d="M217.784-161.4l8.6-4.966v9.932Z" transform="translate(818.862 102.923)" fill="#fff"/><path d="M187.773-166.506l9.71,5.613-9.71,5.6Z" transform="translate(706.023 102.412)" fill="#fff"/><path d="M171.672-133.955l10.818-6.24v12.479Z" transform="translate(645.484 201.34)" fill="#fff"/><path d="M164.734-127.083l11.7,6.756-11.7,6.756Z" transform="translate(619.396 250.643)" fill="#fff"/><path d="M148.459-93.271,161.51-100.8v15.064Z" transform="translate(558.201 349.453)" fill="#fff"/><path d="M141.737-87.582,154.8-80.05l-13.06,7.542Z" transform="translate(532.93 399.165)" fill="#fff"/><path d="M125.784-54.342l11.437-6.6v13.2Z" transform="translate(472.945 499.332)" fill="#fff"/><path d="M119.026-47.593,129.41-41.6l-10.384,6Z" transform="translate(447.535 549.525)" fill="#fff"/><path d="M103.551-16.849l6.664-3.849v7.689Z" transform="translate(389.351 650.646)" fill="#fff"/><path d="M96.533-7.223l4.561,2.64-4.561,2.64Z" transform="translate(362.964 701.313)" fill="#fff"/><path d="M81.47,20.146l.822-.471v.942Z" transform="translate(306.326 802.45)" fill="#fff"/><path d="M73.909,32.925l.591.333-.591.341Z" transform="translate(277.898 852.27)" fill="#fff"/><path d="M58.258,60.824,61.3,59.069v3.508Z" transform="translate(219.049 950.57)" fill="#fff"/><path d="M50.566,71.817l6.941,4.006-6.941,4.015Z" transform="translate(190.125 998.503)" fill="#fff"/><path d="M33.117,107.787,52.16,96.794v21.987Z" transform="translate(124.519 1092.414)" fill="#fff"/><path d="M26.2,108.952,54.006,125,26.2,141.056Z" transform="translate(98.526 1138.13)" fill="#fff"/><path d="M5.672,162.262l51.5-29.741v59.462Z" transform="translate(21.327 1226.747)" fill="#fff"/><path d="M.9,144.447l62.185,35.907L.9,216.259Z" transform="translate(3.369 1271.588)" fill="#fff"/><path d="M3.766,281.635l21.2,12.24-21.2,12.239Z" transform="translate(14.16 1787.412)" fill="#fff"/><path d="M10.983,303.625l13.569-7.846v15.673Z" transform="translate(41.297 1840.595)" fill="#fff"/><path d="M27.961,323.54l2.713,1.57-2.713,1.569Z" transform="translate(105.132 1944.976)" fill="#fff"/><path d="M425.084-178.52l.046-.037v.055Z" transform="translate(1598.307 57.105)" fill="#fff"/><path d="M394.486-178.671l1.006.581-1.006.572Z" transform="translate(1483.259 56.675)" fill="#fff"/><path d="M379.08-177.863l1.5-.868V-177Z" transform="translate(1425.331 56.449)" fill="#fff"/><path d="M348.578-178.857l2.539,1.468-2.539,1.459Z" transform="translate(1310.647 55.975)" fill="#fff"/><path d="M332.988-176.915l3.581-2.068v4.127Z" transform="translate(1252.026 55.501)" fill="#fff"/><path d="M302.6-179.169l5.123,2.954-5.123,2.954Z" transform="translate(1137.758 54.801)" fill="#fff"/><path d="M286.888-175.938l5.714-3.3v6.6Z" transform="translate(1078.691 54.524)" fill="#fff"/><path d="M256.68-179.374l6.793,3.932-6.793,3.913Z" transform="translate(965.109 54.029)" fill="#fff"/><path d="M240.837-175.122l7.5-4.338v8.667Z" transform="translate(905.54 53.707)" fill="#fff"/><path d="M210.725-179.64l8.99,5.2-8.99,5.187Z" transform="translate(792.322 53.03)" fill="#fff"/><path d="M194.75-174.2l9.544-5.51v11.011Z" transform="translate(732.257 52.782)" fill="#fff"/><path d="M171.773-160.719l10.088-5.833V-154.9Z" transform="translate(645.863 102.238)" fill="#fff"/><path d="M164.808-153.4l10.651,6.148L164.808-141.1Z" transform="translate(619.674 151.701)" fill="#fff"/><path d="M148.639-120.3l11.769-6.794V-113.5Z" transform="translate(558.879 250.614)" fill="#fff"/><path d="M141.794-113.928l12.267,7.07-12.267,7.089Z" transform="translate(533.141 300.107)" fill="#fff"/><path d="M125.637-80.312l12.489-7.2v14.418Z" transform="translate(472.391 399.428)" fill="#fff"/><path d="M118.952-74.163l11.436,6.6-11.436,6.6Z" transform="translate(447.258 449.62)" fill="#fff"/><path d="M103.262-42.361l8.732-5.03v10.07Z" transform="translate(388.265 550.283)" fill="#fff"/><path d="M96.386-33.922l6.664,3.858-6.664,3.839Z" transform="translate(362.41 600.928)" fill="#fff"/><path d="M81.232-5.516l2.519-1.458v2.916Z" transform="translate(305.429 702.247)" fill="#fff"/><path d="M73.888,6.444l.9.517-.9.517Z" transform="translate(277.817 752.702)" fill="#fff"/><path d="M51.048,46.212l.037.019-.037.028Z" transform="translate(191.941 902.23)" fill="#fff"/><path d="M34.932,75.43l6.082-3.508v7.033Z" transform="translate(131.344 998.897)" fill="#fff"/><path d="M27.367,84.523l11.2,6.471-11.2,6.461Z" transform="translate(102.901 1046.275)" fill="#fff"/><path d="M8.967,125.077l27.968-16.144v32.3Z" transform="translate(33.715 1138.057)" fill="#fff"/><path d="M2.438,120.674l40.17,23.2L2.438,167.057Z" transform="translate(9.165 1182.205)" fill="#fff"/><path d="M4.7,309.695l7.854,4.541L4.7,318.768Z" transform="translate(17.674 1892.917)" fill="#fff"/><path d="M12.463,325.241l3.01-1.735v3.471Z" transform="translate(46.86 1944.845)" fill="#fff"/><path d="M417.452-191.781l.093.056-.093.055Z" transform="translate(1569.609 7.379)" fill="#fff"/><path d="M402.111-191.507l.573-.333v.656Z" transform="translate(1511.928 7.16)" fill="#fff"/><path d="M371.515-192.014l2.022,1.163-2.022,1.162Z" transform="translate(1396.887 6.504)" fill="#fff"/><path d="M356.035-190.6l2.529-1.478v2.936Z" transform="translate(1338.682 6.256)" fill="#fff"/><path d="M325.568-192.27l4.108,2.382-4.108,2.363Z" transform="translate(1224.129 5.541)" fill="#fff"/><path d="M309.939-189.655l4.644-2.677v5.354Z" transform="translate(1165.362 5.308)" fill="#fff"/><path d="M279.655-192.464l5.714,3.3-5.714,3.295Z" transform="translate(1051.496 4.813)" fill="#fff"/><path d="M263.835-188.664l6.8-3.932v7.845Z" transform="translate(992.014 4.317)" fill="#fff"/><path d="M233.7-192.727l7.892,4.56-7.892,4.55Z" transform="translate(878.716 3.821)" fill="#fff"/><path d="M217.805-187.92l8.446-4.873v9.747Z" transform="translate(818.942 3.573)" fill="#fff"/><path d="M187.785-192.929l9.544,5.52-9.544,5.5Z" transform="translate(706.067 3.062)" fill="#fff"/><path d="M171.773-187.161,181.862-193v11.658Z" transform="translate(645.863 2.815)" fill="#fff"/><path d="M164.808-179.842l10.651,6.157-10.651,6.148Z" transform="translate(619.674 52.271)" fill="#fff"/><path d="M148.716-146.994l11.206-6.471v12.932Z" transform="translate(559.17 151.446)" fill="#fff"/><path d="M141.856-140.265l11.381,6.572-11.381,6.572Z" transform="translate(533.375 201.078)" fill="#fff"/><path d="M125.716-107l11.926-6.886v13.771Z" transform="translate(472.689 300.253)" fill="#fff"/><path d="M118.894-100.706l12.258,7.07-12.258,7.089Z" transform="translate(447.039 349.818)" fill="#fff"/><path d="M102.995-67.913l10.643-6.157v12.314Z" transform="translate(387.258 449.97)" fill="#fff"/><path d="M96.214-60.661l9.119,5.262-9.119,5.261Z" transform="translate(361.761 500.389)" fill="#fff"/><path d="M80.826-30.632l5.418-3.139v6.258Z" transform="translate(303.905 601.496)" fill="#fff"/><path d="M73.717-20.3l3.351,1.938L73.717-16.43Z" transform="translate(277.176 652.156)" fill="#fff"/><path d="M58.683,6.553h0Z" transform="translate(220.647 753.11)" fill="#fff"/><path d="M28.077,59.313l1.043.591-1.043.608Z" transform="translate(105.569 951.49)" fill="#fff"/><path d="M11.371,90.8l10.8-6.231V97.035Z" transform="translate(42.755 1046.465)" fill="#fff"/><path d="M3.973,96.89,22.2,107.423,3.973,117.954Z" transform="translate(14.94 1092.778)" fill="#fff"/><path d="M148.716-173.43l11.206-6.48v12.941Z" transform="translate(559.17 52.016)" fill="#fff"/><path d="M141.867-166.687l11.206,6.471-11.206,6.462Z" transform="translate(533.418 101.734)" fill="#fff"/><path d="M125.738-133.518l11.769-6.794v13.587Z" transform="translate(472.77 200.902)" fill="#fff"/><path d="M118.917-127.11l11.935,6.886-11.935,6.886Z" transform="translate(447.127 250.541)" fill="#fff"/><path d="M102.814-93.782l11.935-6.885v13.781Z" transform="translate(386.58 349.964)" fill="#fff"/><path d="M96.068-87.357,107.274-80.9l-11.205,6.48Z" transform="translate(361.214 400.011)" fill="#fff"/><path d="M80.44-55.83l8.179-4.717v9.433Z" transform="translate(302.454 500.819)" fill="#fff"/><path d="M73.5-47.116l6.444,3.72L73.5-39.676Z" transform="translate(276.359 551.318)" fill="#fff"/><path d="M58.282-18.57l2.88-1.671v3.332Z" transform="translate(219.138 652.367)" fill="#fff"/><path d="M50.963-6.82l1.255.721-1.255.719Z" transform="translate(191.62 702.83)" fill="#fff"/><path d="M12.787,59.744l.693-.388v.794Z" transform="translate(48.078 951.65)" fill="#fff"/><path d="M4.9,72.054l4.993,2.88L4.9,77.823Z" transform="translate(18.425 999.392)" fill="#fff"/><path d="M141.856-193.15l11.381,6.572-11.381,6.553Z" transform="translate(533.375 2.231)" fill="#fff"/><path d="M125.738-159.961l11.769-6.794v13.587Z" transform="translate(472.77 101.479)" fill="#fff"/><path d="M118.929-153.533l11.759,6.794-11.759,6.793Z" transform="translate(447.171 151.191)" fill="#fff"/><path d="M102.768-120.071l12.267-7.08v14.159Z" transform="translate(386.405 250.388)" fill="#fff"/><path d="M96.016-113.889,107.951-107l-11.935,6.886Z" transform="translate(361.017 300.253)" fill="#fff"/><path d="M80.093-81.144l10.652-6.147v12.3Z" transform="translate(301.149 400.259)" fill="#fff"/><path d="M73.3-73.9l9.277,5.363L73.3-63.177Z" transform="translate(275.615 450.597)" fill="#fff"/><path d="M57.806-43.469,64.083-47.1v7.255Z" transform="translate(217.351 551.391)" fill="#fff"/><path d="M50.721-33.685l4.718,2.733-4.718,2.714Z" transform="translate(190.709 601.817)" fill="#fff"/><path d="M35.609-6.1l1.255-.721v1.44Z" transform="translate(133.889 702.83)" fill="#fff"/><path d="M125.716-186.323l11.926-6.9v13.781Z" transform="translate(472.689 1.976)" fill="#fff"/><path d="M118.894-180.038l12.258,7.089-12.258,7.07Z" transform="translate(447.039 51.535)" fill="#fff"/><path d="M102.76-146.484l12.322-7.117v14.223Z" transform="translate(386.376 150.936)" fill="#fff"/><path d="M95.989-140.378l12.323,7.108-12.323,7.107Z" transform="translate(360.915 200.654)" fill="#fff"/><path d="M79.913-107l11.935-6.886v13.771Z" transform="translate(300.471 300.253)" fill="#fff"/><path d="M73.151-100.608l11.437,6.6L73.151-87.4Z" transform="translate(275.046 350.19)" fill="#fff"/><path d="M57.409-68.62l9.111-5.262v10.523Z" transform="translate(215.857 450.677)" fill="#fff"/><path d="M50.49-60.527,58.5-55.9,50.49-51.278Z" transform="translate(189.841 500.892)" fill="#fff"/><path d="M35.114-30.923l4.78-2.769v5.529Z" transform="translate(132.03 601.788)" fill="#fff"/><path d="M27.934-20.266l3.1,1.791-3.1,1.782Z" transform="translate(105.03 652.272)" fill="#fff"/><path d="M102.681-172.672l12.886-7.439v14.879Z" transform="translate(386.077 51.258)" fill="#fff"/><path d="M95.95-166.89l12.886,7.439-12.886,7.44Z" transform="translate(360.769 100.969)" fill="#fff"/><path d="M79.781-133.008l12.876-7.44v14.879Z" transform="translate(299.975 200.392)" fill="#fff"/><path d="M73.077-127.178l12.489,7.209-12.489,7.218Z" transform="translate(274.769 250.286)" fill="#fff"/><path d="M57.037-93.862l11.769-6.784v13.579Z" transform="translate(214.456 350.044)" fill="#fff"/><path d="M50.3-87.3l10.717,6.185L50.3-74.93Z" transform="translate(189.126 400.23)" fill="#fff"/><path d="M34.608-55.727l8.4-4.846v9.692Z" transform="translate(130.126 500.717)" fill="#fff"/><path d="M27.67-47.17l6.876,3.978L27.67-39.213Z" transform="translate(104.039 551.114)" fill="#fff"/><path d="M12.442-18.446,15.6-20.274v3.647Z" transform="translate(46.781 652.243)" fill="#fff"/><path d="M5.135-6.87,6.8-5.91l-1.662.959Z" transform="translate(19.307 702.64)" fill="#fff"/><path d="M95.938-193.354l13.052,7.542L95.938-178.28Z" transform="translate(360.725 1.466)" fill="#fff"/><path d="M79.7-159.188l13.438-7.772v15.526Z" transform="translate(299.684 100.706)" fill="#fff"/><path d="M73.01-153.737l13.448,7.763L73.01-138.211Z" transform="translate(274.514 150.425)" fill="#fff"/><path d="M56.882-119.787l12.876-7.439v14.879Z" transform="translate(213.874 250.104)" fill="#fff"/><path d="M50.172-113.965l12.553,7.246L50.172-99.464Z" transform="translate(188.646 299.968)" fill="#fff"/><path d="M34.205-80.867l11.279-6.5V-74.35Z" transform="translate(128.61 399.982)" fill="#fff"/><path d="M27.447-74,37.5-68.19,27.447-62.385Z" transform="translate(103.2 450.247)" fill="#fff"/><path d="M11.844-42.944l7.421-4.292v8.584Z" transform="translate(44.535 550.866)" fill="#fff"/><path d="M4.873-33.767l5.381,3.12-5.381,3.1Z" transform="translate(18.323 601.511)" fill="#fff"/><path d="M79.7-185.63,93.142-193.4v15.526Z" transform="translate(299.684 1.284)" fill="#fff"/><path d="M72.971-180.247l14.011,8.086-14.011,8.086Z" transform="translate(274.368 50.747)" fill="#fff"/><path d="M56.722-145.718,70.734-153.8v16.172Z" transform="translate(213.275 150.17)" fill="#fff"/><path d="M50.11-140.516l13.449,7.763L50.11-124.99Z" transform="translate(188.412 200.137)" fill="#fff"/><path d="M33.98-106.566l12.886-7.439v14.879Z" transform="translate(127.764 299.815)" fill="#fff"/><path d="M27.284-100.722l12.378,7.145L27.284-86.415Z" transform="translate(102.587 349.759)" fill="#fff"/><path d="M11.453-68.118l10.217-5.9v11.8Z" transform="translate(43.062 450.175)" fill="#fff"/><path d="M4.619-60.649l9.009,5.206L4.619-50.237Z" transform="translate(17.368 500.433)" fill="#fff"/><path d="M56.645-171.9l14.566-8.418v16.826Z" transform="translate(212.984 50.485)" fill="#fff"/><path d="M50.03-167.1l14.575,8.418L50.03-150.27Z" transform="translate(188.114 100.197)" fill="#fff"/><path d="M33.823-132.5l14.011-8.086v16.172Z" transform="translate(127.174 199.881)" fill="#fff"/><path d="M27.17-127.362l14.012,8.086L27.17-111.19Z" transform="translate(102.157 249.593)" fill="#fff"/><path d="M11.078-93.345l12.894-7.439V-85.9Z" transform="translate(41.655 349.527)" fill="#fff"/><path d="M4.423-87.433l11.824,6.822L4.423-73.781Z" transform="translate(16.631 399.727)" fill="#fff"/><path d="M50.03-193.538l14.575,8.418L50.03-176.712Z" transform="translate(188.114 0.773)" fill="#fff"/><path d="M33.674-158.452l15.073-8.7v17.4Z" transform="translate(126.612 99.97)" fill="#fff"/><path d="M27.119-153.894l14.741,8.511-14.741,8.51Z" transform="translate(101.968 149.835)" fill="#fff"/><path d="M10.921-119.276l14.011-8.086v16.173Z" transform="translate(41.064 249.593)" fill="#fff"/><path d="M4.27-114.141l14,8.086-14,8.086Z" transform="translate(16.055 299.304)" fill="#fff"/><path d="M33.664-184.857,48.8-193.608v17.483Z" transform="translate(126.575 0.511)" fill="#fff"/><path d="M27.057-180.447l15.627,9.037-15.627,9.028Z" transform="translate(101.735 49.996)" fill="#fff"/><path d="M10.764-145.2,25.9-153.942v17.482Z" transform="translate(40.474 149.653)" fill="#fff"/><path d="M4.194-140.713l15.073,8.7L4.194-123.3Z" transform="translate(15.771 199.393)" fill="#fff"/><path d="M10.685-171.388l15.7-9.064v18.129Z" transform="translate(40.174 49.974)" fill="#fff"/><path d="M4.15-167.231l15.71,9.064L4.15-149.1Z" transform="translate(15.603 99.686)" fill="#fff"/><path d="M4.111-193.744l16.273,9.4L4.111-174.969Z" transform="translate(15.457)" fill="#fff"/></g></g></svg>