<svg xmlns="http://www.w3.org/2000/svg" viewBox="0 0 160 23.29"><defs><style>.cls-1{fill:#5cc1c2;}.cls-2{fill:#fff;}</style></defs><title>009Asset 6</title><g id="Layer_2" data-name="Layer 2"><g id="Layer_1-2" data-name="Layer 1"><path class="cls-1" d="M44.27,0H30.43L25.27,8.13,20.21,0H6.7L0,11.63,6.59,23.29H20.51l4.92-8,5.22,8H44.38L50.86,11.1ZM32.38,2.11h8.81L36.91,9.78H28.18ZM3.21,11.63l4.21-7.7L12,11.63,7.42,19Zm15.57,8.86H9.89L14,13h8.56Zm6.16-4.39L21.59,10H14.17L9.89,2.61h8.65L25.43,15.3Zm7.11,4.39L25.27,8.13,26,7l3.46,5.81,7.16.15,4.61,7.5ZM43.34,19l-4.21-7.37,4.21-7.7,4.45,7.7Z"/><path class="cls-2" d="M74.29,6.81H64.92V.55H57.18V22.84H74.4a7.08,7.08,0,0,0,.82-.05,4.55,4.55,0,0,0,3.87-4.55v-8c0-2.38-2.56-3.09-3.79-3.3A6.77,6.77,0,0,0,74.29,6.81ZM71.62,17.52H64.84V11.69h6.78Z"/><path class="cls-2" d="M82.14.55h7.5v17h4.78v5.32H86.67a5.54,5.54,0,0,1-3-.87,3.55,3.55,0,0,1-1.9-2.78C81.79,16.2,82.14.55,82.14.55Z"/><path class="cls-2" d="M114.88,7H100.15a3.38,3.38,0,0,0-3.39,3.38v9a3.39,3.39,0,0,0,3.39,3.39h14.73a3.39,3.39,0,0,0,3.38-3.39v-9A3.38,3.38,0,0,0,114.88,7Zm-3.74,10.49H104V11.69h7.16Z"/><polygon class="cls-2" points="122.18 0.55 129.85 0.55 129.85 12.33 135.15 7.03 143.93 7.03 136.79 14.17 145.23 22.61 135.61 22.61 129.65 16.65 129.65 22.61 122.18 22.61 122.18 0.55"/><path class="cls-2" d="M147.72,2.61h7.34V7h4.36v4.55H155v5.94h5v5.32h-6.41a9.66,9.66,0,0,1-3.07-.48c-1.33-.45-2.8-1.28-2.8-2.78V11.69h-2.49V7h2.47Z"/></g></g></svg>