<svg xmlns="http://www.w3.org/2000/svg" viewBox="0 0 160 52.85"><defs><style>.cls-1{fill:#f98513;}.cls-2{fill:#fff;}</style></defs><title>009Asset 7</title><g id="Layer_2" data-name="Layer 2"><g id="Layer_1-2" data-name="Layer 1"><path class="cls-1" d="M36.69,27.73a9.51,9.51,0,0,0-5.56-3.27q4.73-2.41,4.16-8.2a8,8,0,0,0-1.16-3.63,7.26,7.26,0,0,0-2.62-2.48,14.33,14.33,0,0,0-3.59-1.43A28.17,28.17,0,0,0,23.47,8V0H18.58V7.78c-.85,0-2.14,0-3.87.07V0H9.81V8C9.12,8,8.09,8,6.73,8L0,8v5.21H3.53a2.52,2.52,0,0,1,2.82,2.16v9.12a3.49,3.49,0,0,1,.51,0H6.35V37.29a1.69,1.69,0,0,1-1.84,1.62H1L0,44.72H6.35l1.75,0H9.82v8.1h4.89v-8q1.33,0,3.87,0v8h4.89v-8.1a38.17,38.17,0,0,0,4.63-.47A18.94,18.94,0,0,0,32,43.18,10.39,10.39,0,0,0,35,41.32a8.7,8.7,0,0,0,2-2.82,12.11,12.11,0,0,0,1-4C38.39,31.58,37.92,29.32,36.69,27.73ZM14.8,13.56h1.26l1.71,0c.46,0,1.07,0,1.84.08a17.83,17.83,0,0,1,2,.26,10.41,10.41,0,0,1,1.74.52,4.82,4.82,0,0,1,1.53.89,4.58,4.58,0,0,1,1,1.34,4.19,4.19,0,0,1,.39,1.85,4.37,4.37,0,0,1-.28,1.62,3.08,3.08,0,0,1-.86,1.23,8.26,8.26,0,0,1-1.17.85,5.38,5.38,0,0,1-1.54.59c-.63.15-1.17.27-1.64.35a14,14,0,0,1-1.75.18l-1.58.06c-.36,0-.86,0-1.48,0l-1.1,0V13.56ZM28.16,35.19a4.38,4.38,0,0,1-.78,1.27,4.64,4.64,0,0,1-1.25,1,12,12,0,0,1-1.51.66,12.57,12.57,0,0,1-1.77.45c-.68.13-1.29.22-1.81.27s-1.13.09-1.85.13-1.29,0-1.69,0H16l-1.18,0V28.21l1.51,0,2.05,0c.53,0,1.26,0,2.19.1a19.49,19.49,0,0,1,2.35.28,16.37,16.37,0,0,1,2.08.59,6,6,0,0,1,1.83,1A4.6,4.6,0,0,1,28,31.54a4.53,4.53,0,0,1,.18,3.65Z"/><path class="cls-1" d="M127.44,32.92h10.13s2,5.39,6.32,5.39,6.05-1.12,6.05-3.59c0-2.26-1.75-4.27-5.05-4.74-2.88-.41-10.3-1.7-14.15-6.46a7.72,7.72,0,0,1-1.63-4.72l0-1.14a9,9,0,0,1,1.25-4.91,7.8,7.8,0,0,1,5.21-3.6V2.66h4.83V8.23H144V2.66h4.91V8.19s9.56,1.27,9.56,10.52h-9.32s-1.43-6-8.75-4.08a2.34,2.34,0,0,0-1.48,2.19,3.51,3.51,0,0,0,1.83,2.63c1.87,1.37,1.78.75,10.21,3,9,2.46,9,10,9,10.64a12.44,12.44,0,0,1-4.61,9.52,11.32,11.32,0,0,1-6.42,2.5v4.74h-4.82V45.11h-3.82v4.78h-4.69V44.23A12.7,12.7,0,0,1,127.44,32.92Z"/><rect class="cls-2" x="42.38" y="10.42" width="2.75" height="18.42" rx="1.24"/><rect class="cls-2" x="47.98" y="11.11" width="14.24" height="1.87" rx="0.94"/><rect class="cls-2" x="53.66" y="12.05" width="2.81" height="16.66" rx="1.35"/><path class="cls-2" d="M41.69,25.75V12a2.35,2.35,0,0,1,.49-1.61,1.63,1.63,0,0,1,1.26-.54,1.7,1.7,0,0,1,1.29.53,2.31,2.31,0,0,1,.5,1.62V25.75a2.33,2.33,0,0,1-.5,1.62,1.7,1.7,0,0,1-1.29.53,1.61,1.61,0,0,1-1.25-.54A2.32,2.32,0,0,1,41.69,25.75Z"/><path class="cls-2" d="M60.52,13.07H56.66V25.75a2.29,2.29,0,0,1-.49,1.62,1.79,1.79,0,0,1-2.54,0,2.33,2.33,0,0,1-.5-1.62V13.07H49.28a2,2,0,0,1-1.35-.4,1.38,1.38,0,0,1-.44-1.06A1.34,1.34,0,0,1,48,10.54a2,2,0,0,1,1.33-.39H60.52a2,2,0,0,1,1.36.41,1.35,1.35,0,0,1,.45,1,1.36,1.36,0,0,1-.46,1.06A2,2,0,0,1,60.52,13.07Z"/><path class="cls-2" d="M78.68,22.09a4.48,4.48,0,0,1-.41,1.8A6.32,6.32,0,0,1,77,25.8a6.71,6.71,0,0,1-2.25,1.52,8.07,8.07,0,0,1-3.19.58A11.39,11.39,0,0,1,69,27.64,7.22,7.22,0,0,1,67,26.82a6.94,6.94,0,0,1-1.69-1.45,8.5,8.5,0,0,1-1.18-1.84,9.32,9.32,0,0,1-.73-2.18,11.3,11.3,0,0,1-.25-2.45,10.84,10.84,0,0,1,.62-3.77,8,8,0,0,1,1.75-2.85,7.66,7.66,0,0,1,2.68-1.81,8.73,8.73,0,0,1,3.27-.62,8.1,8.1,0,0,1,3.78.85,6.74,6.74,0,0,1,2.53,2.09,4.12,4.12,0,0,1,.89,2.35,1.57,1.57,0,0,1-.43,1.07,1.36,1.36,0,0,1-1,.46,1.42,1.42,0,0,1-1-.32,4.34,4.34,0,0,1-.75-1.1,5.37,5.37,0,0,0-1.63-1.95,4,4,0,0,0-2.3-.64A4.16,4.16,0,0,0,68,14.32,7.49,7.49,0,0,0,66.71,19a8.76,8.76,0,0,0,.57,3.39,4.3,4.3,0,0,0,1.62,2,4.47,4.47,0,0,0,2.45.66,4.37,4.37,0,0,0,2.58-.75,4.64,4.64,0,0,0,1.59-2.23A3.66,3.66,0,0,1,76.08,21a1.25,1.25,0,0,1,1.07-.43,1.52,1.52,0,0,1,1.53,1.53Z"/><path class="cls-2" d="M89.54,9.85A9.36,9.36,0,0,1,94.2,11a7.2,7.2,0,0,1,3,3.13,10.81,10.81,0,0,1,1,4.77,11.51,11.51,0,0,1-.55,3.68A7.83,7.83,0,0,1,96,25.4a7.22,7.22,0,0,1-2.69,1.86,9.75,9.75,0,0,1-3.66.64A9.59,9.59,0,0,1,86,27.24a7.29,7.29,0,0,1-2.71-1.86,7.84,7.84,0,0,1-1.63-2.9,11.59,11.59,0,0,1-.56-3.65,11.16,11.16,0,0,1,.58-3.69,7.88,7.88,0,0,1,1.67-2.86A7.21,7.21,0,0,1,86,10.48,9.55,9.55,0,0,1,89.54,9.85Zm5,9A8.2,8.2,0,0,0,94,15.51a4.7,4.7,0,0,0-1.77-2.13,5.12,5.12,0,0,0-4.6-.32A4.39,4.39,0,0,0,86,14.22a5.62,5.62,0,0,0-1,2,8.82,8.82,0,0,0-.37,2.66A9,9,0,0,0,85,21.52a5.39,5.39,0,0,0,1.06,2,4.46,4.46,0,0,0,1.57,1.19,4.78,4.78,0,0,0,2,.39,4.59,4.59,0,0,0,4.3-2.77A8.11,8.11,0,0,0,94.56,18.83Z"/><path class="cls-2" d="M101.32,25.75V12a2.35,2.35,0,0,1,.48-1.61,1.63,1.63,0,0,1,1.26-.54,1.7,1.7,0,0,1,1.3.53,2.31,2.31,0,0,1,.49,1.62V25.75a2.33,2.33,0,0,1-.49,1.62,1.7,1.7,0,0,1-1.3.53,1.63,1.63,0,0,1-1.25-.54A2.32,2.32,0,0,1,101.32,25.75Z"/><path class="cls-2" d="M113.41,12l6.8,10.29V11.88a2.28,2.28,0,0,1,.43-1.52,1.47,1.47,0,0,1,1.18-.51,1.52,1.52,0,0,1,1.2.51,2.28,2.28,0,0,1,.44,1.52V25.6c0,1.53-.64,2.3-1.91,2.3a2.3,2.3,0,0,1-.85-.14,2.06,2.06,0,0,1-.72-.43,4.24,4.24,0,0,1-.62-.7q-.28-.39-.57-.81l-6.63-10.17V25.88a2.18,2.18,0,0,1-.46,1.51,1.66,1.66,0,0,1-2.4,0,2.2,2.2,0,0,1-.45-1.5V12.41a3.7,3.7,0,0,1,.19-1.34,1.93,1.93,0,0,1,.75-.88,2.1,2.1,0,0,1,1.13-.34,1.88,1.88,0,0,1,.82.16,2,2,0,0,1,.59.41,5.21,5.21,0,0,1,.53.68Z"/><path class="cls-2" d="M51.21,43.91H48.52a1.11,1.11,0,0,1-.84-.26,1.19,1.19,0,0,1-.24-.83V36.19a.92.92,0,0,1,1.08-1.09h2.85a5.89,5.89,0,0,1,1.1.08,2.29,2.29,0,0,1,.83.3,2.05,2.05,0,0,1,.55.47,2,2,0,0,1,.37.63,2.2,2.2,0,0,1,.13.73A2,2,0,0,1,53,39.25a2.15,2.15,0,0,1,1.74,2.15,2.43,2.43,0,0,1-.38,1.33,2.24,2.24,0,0,1-1,.88,3.52,3.52,0,0,1-.93.23A8.73,8.73,0,0,1,51.21,43.91Zm-2-7.47v2.28h1.64a3.4,3.4,0,0,0,1-.13,1,1,0,0,0,.56-.48,1.1,1.1,0,0,0,.15-.57.86.86,0,0,0-.48-.88,3.58,3.58,0,0,0-1.45-.22ZM51.08,40H49.22v2.57h1.92c1.21,0,1.81-.43,1.81-1.3a1.07,1.07,0,0,0-.47-1A2.62,2.62,0,0,0,51.08,40Z"/><path class="cls-2" d="M58.71,40.14h-.63V43a1.16,1.16,0,0,1-.25.83.85.85,0,0,1-.64.26.82.82,0,0,1-.66-.27,1.23,1.23,0,0,1-.24-.82V36.19a1.19,1.19,0,0,1,.26-.84,1.16,1.16,0,0,1,.84-.25h2.9a7.7,7.7,0,0,1,1,0,2.56,2.56,0,0,1,.77.2,2.48,2.48,0,0,1,.74.5,2.23,2.23,0,0,1,.48.76,2.53,2.53,0,0,1,.17.91,2.23,2.23,0,0,1-.56,1.58,3.16,3.16,0,0,1-1.69.83,3.27,3.27,0,0,1,.91.75,7.07,7.07,0,0,1,.77,1,6.6,6.6,0,0,1,.53,1,1.93,1.93,0,0,1,.19.62.65.65,0,0,1-.11.34.71.71,0,0,1-.3.27.93.93,0,0,1-.45.1.8.8,0,0,1-.5-.14,1.23,1.23,0,0,1-.36-.36c-.09-.14-.23-.35-.4-.63l-.71-1.19a6.94,6.94,0,0,0-.69-1,1.62,1.62,0,0,0-.62-.47A2,2,0,0,0,58.71,40.14Zm1-3.7H58.08v2.42h1.6a4.66,4.66,0,0,0,1.08-.11,1.19,1.19,0,0,0,.67-.38,1.06,1.06,0,0,0,.23-.74,1.1,1.1,0,0,0-.7-1.06A3.69,3.69,0,0,0,59.73,36.44Z"/><path class="cls-2" d="M70.81,42.92l-.43-1.11H66.8l-.42,1.13a3.93,3.93,0,0,1-.42.89.66.66,0,0,1-.57.23.85.85,0,0,1-.6-.24.77.77,0,0,1-.26-.56,1.31,1.31,0,0,1,.06-.38c0-.12.11-.3.2-.53l2.26-5.73.23-.59a3,3,0,0,1,.29-.57,1,1,0,0,1,.4-.37,1.44,1.44,0,0,1,1.24,0,1.07,1.07,0,0,1,.4.36,2.77,2.77,0,0,1,.26.48l.27.68,2.3,5.69a2.85,2.85,0,0,1,.27,1,.78.78,0,0,1-.25.56.84.84,0,0,1-.62.25.8.8,0,0,1-.36-.07.72.72,0,0,1-.25-.21,1.62,1.62,0,0,1-.22-.39C70.93,43.21,70.86,43.05,70.81,42.92Zm-3.54-2.45H69.9l-1.33-3.64Z"/><path class="cls-2" d="M74.1,43V36a1.19,1.19,0,0,1,.24-.81A.84.84,0,0,1,75,35a.86.86,0,0,1,.65.26,1.15,1.15,0,0,1,.25.82V43a1.15,1.15,0,0,1-.25.82.83.83,0,0,1-.65.27.8.8,0,0,1-.63-.27A1.15,1.15,0,0,1,74.1,43Z"/><path class="cls-2" d="M80.21,36l3.43,5.19V36a1.14,1.14,0,0,1,.22-.77.74.74,0,0,1,.59-.25.76.76,0,0,1,.61.25,1.14,1.14,0,0,1,.22.77V42.9c0,.78-.32,1.16-1,1.16a1.18,1.18,0,0,1-.43-.07,1,1,0,0,1-.36-.21,2.22,2.22,0,0,1-.32-.36L82.92,43l-3.35-5.14V43a1.06,1.06,0,0,1-.23.76.83.83,0,0,1-1.21,0A1.13,1.13,0,0,1,77.9,43v-6.8a1.77,1.77,0,0,1,.1-.68A1,1,0,0,1,79,35a1,1,0,0,1,.41.07,1.14,1.14,0,0,1,.3.21,2.13,2.13,0,0,1,.27.35Z"/><path class="cls-2" d="M87.9,44.06a.94.94,0,0,1-.64-.24.85.85,0,0,1-.27-.67.86.86,0,0,1,.26-.63.84.84,0,0,1,.64-.27.9.9,0,0,1,.64.26.87.87,0,0,1,.27.64.86.86,0,0,1-.27.67A.92.92,0,0,1,87.9,44.06Z"/><path class="cls-2" d="M98.3,41.13a2.34,2.34,0,0,1-.21.91,3.33,3.33,0,0,1-.65,1,3.37,3.37,0,0,1-1.14.77,4,4,0,0,1-1.61.29,5.51,5.51,0,0,1-1.27-.13,3.53,3.53,0,0,1-1-.41,3.68,3.68,0,0,1-.86-.74,4,4,0,0,1-.59-.93,4.52,4.52,0,0,1-.37-1.09,6.21,6.21,0,0,1-.12-1.24,5.43,5.43,0,0,1,.31-1.91,4,4,0,0,1,.88-1.44A3.92,3.92,0,0,1,93,35.26,4.29,4.29,0,0,1,94.64,35a4.22,4.22,0,0,1,1.91.42,3.59,3.59,0,0,1,1.28,1.06,2.11,2.11,0,0,1,.44,1.19.8.8,0,0,1-.21.54.72.72,0,0,1-.53.23.69.69,0,0,1-.51-.16,2,2,0,0,1-.38-.56,2.82,2.82,0,0,0-.82-1,2,2,0,0,0-1.17-.32,2.09,2.09,0,0,0-1.75.83,3.77,3.77,0,0,0-.65,2.38,4.3,4.3,0,0,0,.29,1.71,2.2,2.2,0,0,0,.81,1,2.32,2.32,0,0,0,1.24.33,2.11,2.11,0,0,0,1.3-.38,2.27,2.27,0,0,0,.81-1.12,1.89,1.89,0,0,1,.28-.57.65.65,0,0,1,.54-.22.76.76,0,0,1,.55.23A.73.73,0,0,1,98.3,41.13Z"/><path class="cls-2" d="M103.78,35a4.73,4.73,0,0,1,2.36.55,3.59,3.59,0,0,1,1.48,1.58,5.38,5.38,0,0,1,.51,2.41,5.76,5.76,0,0,1-.28,1.86A3.93,3.93,0,0,1,107,42.8a3.65,3.65,0,0,1-1.36.94,4.8,4.8,0,0,1-1.84.32,4.88,4.88,0,0,1-1.85-.33,3.72,3.72,0,0,1-1.37-.94,4.18,4.18,0,0,1-.83-1.46,6.13,6.13,0,0,1-.28-1.85,5.5,5.5,0,0,1,.3-1.86,3.93,3.93,0,0,1,.84-1.45,3.75,3.75,0,0,1,1.35-.91A4.85,4.85,0,0,1,103.78,35Zm2.54,4.53A4.16,4.16,0,0,0,106,37.8a2.33,2.33,0,0,0-.9-1.07,2.45,2.45,0,0,0-1.33-.36,2.31,2.31,0,0,0-1,.2,2.21,2.21,0,0,0-.78.58,2.9,2.9,0,0,0-.52,1,4.61,4.61,0,0,0-.19,1.34,4.75,4.75,0,0,0,.19,1.36,3,3,0,0,0,.54,1,2.4,2.4,0,0,0,.79.6,2.46,2.46,0,0,0,1,.19,2.43,2.43,0,0,0,1.26-.34,2.4,2.4,0,0,0,.91-1.06A4,4,0,0,0,106.32,39.48Z"/><path class="cls-2" d="M112.63,42.58,111.22,37v6.08a1.11,1.11,0,0,1-.22.76.83.83,0,0,1-1.19,0,1.1,1.1,0,0,1-.23-.76v-7a.87.87,0,0,1,.3-.78,1.39,1.39,0,0,1,.81-.2h.56a2.09,2.09,0,0,1,.72.09.58.58,0,0,1,.33.32,4.06,4.06,0,0,1,.25.77l1.28,4.82,1.28-4.82a5,5,0,0,1,.25-.77.58.58,0,0,1,.33-.32,2.12,2.12,0,0,1,.73-.09H117a1.39,1.39,0,0,1,.81.2.87.87,0,0,1,.3.78v7a1.11,1.11,0,0,1-.22.76.76.76,0,0,1-.61.25.74.74,0,0,1-.58-.25,1.11,1.11,0,0,1-.23-.76V37L115,42.58c-.09.37-.17.64-.23.81a1.07,1.07,0,0,1-.32.46.94.94,0,0,1-.65.21,1,1,0,0,1-.53-.13,1,1,0,0,1-.33-.35,1.71,1.71,0,0,1-.19-.46Z"/></g></g></svg>