<svg xmlns="http://www.w3.org/2000/svg" xmlns:xlink="http://www.w3.org/1999/xlink" width="245.722" height="280.075" viewBox="0 0 245.722 280.075"><defs><linearGradient id="a" x1="0.5" x2="0.5" y2="1" gradientUnits="objectBoundingBox"><stop offset="0" stop-color="#e4b940"/><stop offset="1" stop-color="#8e6f16"/></linearGradient><filter id="b" x="2.848" y="2.848" width="240.026" height="240.026" filterUnits="userSpaceOnUse"><feOffset dy="10" input="SourceAlpha"/><feGaussianBlur stdDeviation="10" result="c"/><feFlood flood-opacity="0.4"/><feComposite operator="in" in2="c"/><feComposite in="SourceGraphic"/></filter><linearGradient id="d" x1="0.146" y1="0.146" x2="0.952" y2="0.974" gradientUnits="objectBoundingBox"><stop offset="0" stop-color="#565a6f"/><stop offset="1" stop-color="#3e4257"/></linearGradient><filter id="e" x="35.996" y="7.713" width="173.731" height="272.362" filterUnits="userSpaceOnUse"><feOffset dy="10" input="SourceAlpha"/><feGaussianBlur stdDeviation="15" result="f"/><feFlood flood-opacity="0.302"/><feComposite operator="in" in2="f"/><feComposite in="SourceGraphic"/></filter><filter id="h" x="59.676" y="87.886" width="126.372" height="168.51" filterUnits="userSpaceOnUse"><feOffset dy="10" input="SourceAlpha"/><feGaussianBlur stdDeviation="10" result="i"/><feFlood flood-opacity="0.4"/><feComposite operator="in" in2="i"/><feComposite in="SourceGraphic"/></filter><filter id="k" x="0" y="0" width="245.722" height="245.722" filterUnits="userSpaceOnUse"><feOffset dy="10" input="SourceAlpha"/><feGaussianBlur stdDeviation="15" result="l"/><feFlood flood-opacity="0.302"/><feComposite operator="in" in2="l"/><feComposite in="SourceGraphic"/></filter><filter id="n" x="61.082" y="158.547" width="123.938" height="106.401" filterUnits="userSpaceOnUse"><feOffset dy="10" input="SourceAlpha"/><feGaussianBlur stdDeviation="15" result="o"/><feFlood flood-opacity="0.302"/><feComposite operator="in" in2="o"/><feComposite in="SourceGraphic"/></filter><filter id="q" x="37.376" y="37.376" width="170.971" height="170.971" filterUnits="userSpaceOnUse"><feOffset dy="10" input="SourceAlpha"/><feGaussianBlur stdDeviation="10" result="r"/><feFlood flood-opacity="0.4"/><feComposite operator="in" in2="r"/><feComposite in="SourceGraphic"/></filter></defs><g transform="translate(5.956 -159.544)"><g transform="translate(26.892 182.392)"><g transform="translate(0 0)"><g transform="matrix(1, 0, 0, 1, -32.85, -22.85)" filter="url(#b)"><g transform="translate(32.85 112.86) rotate(-45)" stroke="#e4b940" stroke-width="2" fill="url(#a)"><rect width="127.298" height="127.298" rx="10" stroke="none"/><rect x="1" y="1" width="125.298" height="125.298" rx="9" fill="none"/></g></g></g></g><g transform="matrix(1, 0, 0, 1, -5.96, 159.54)" filter="url(#e)"><path d="M139.6,334.94V211.265a16.323,16.323,0,0,0-16.324-16.322H73.2a16.323,16.323,0,0,0-16.324,16.322V334.94a41.366,41.366,0,0,0,41.366,41.366h0A41.366,41.366,0,0,0,139.6,334.94Z" transform="translate(24.62 -151.73)" stroke="#e4b940" stroke-width="1" fill="url(#d)"/></g><g transform="matrix(1, 0, 0, 1, -5.96, 159.54)" filter="url(#h)"><g transform="translate(27.76 -126.91)" fill="url(#a)"><path d="M 95.09986114501953 342.3096008300781 C 77.35251617431641 342.3096008300781 62.91400527954102 327.87109375 62.91400527954102 310.1237487792969 L 62.91400527954102 235.7999877929688 L 127.2857513427734 235.7999877929688 L 127.2857513427734 310.1237487792969 C 127.2857513427734 327.87109375 112.8472213745117 342.3096008300781 95.09986114501953 342.3096008300781 Z" stroke="none"/><path d="M 63.91400146484375 236.7999877929688 L 63.91400146484375 310.1237487792969 C 63.91400146484375 327.3197021484375 77.90392303466797 341.3096008300781 95.09986114501953 341.3096008300781 C 112.2958145141602 341.3096008300781 126.2857513427734 327.3197021484375 126.2857513427734 310.1237487792969 L 126.2857513427734 236.7999877929688 L 63.91400146484375 236.7999877929688 M 61.91400146484375 234.7999877929688 L 128.2857513427734 234.7999877929688 L 128.2857513427734 310.1237487792969 C 128.2857513427734 328.4219970703125 113.3981857299805 343.3096008300781 95.09986114501953 343.3096008300781 C 76.80153656005859 343.3096008300781 61.91400146484375 328.4219970703125 61.91400146484375 310.1237487792969 L 61.91400146484375 234.7999877929688 Z" stroke="none" fill="#e4b940"/></g></g><g transform="matrix(1, 0, 0, 1, -5.96, 159.54)" filter="url(#k)"><rect width="109.112" height="109.112" rx="4.102" transform="translate(122.86 35.71) rotate(45)" stroke="#e4b940" stroke-width="1" fill="url(#d)"/></g><g transform="translate(101.333 353.591)"><g transform="matrix(1, 0, 0, 1, -107.29, -194.05)" filter="url(#n)"><path d="M94.142,287.9l-5.611,5.613L82.918,287.9H72.769l15.142,15.144a.875.875,0,0,0,1.238,0L104.293,287.9Z" transform="translate(34.52 -93.85)" stroke="#e4b940" stroke-width="1" fill="url(#d)"/></g></g><g transform="matrix(1, 0, 0, 1, -5.96, 159.54)" filter="url(#q)"><g transform="translate(67.38 112.86) rotate(-45)" stroke="#e4b940" stroke-width="2" fill="url(#a)"><rect width="78.468" height="78.468" rx="7.191" stroke="none"/><rect x="1" y="1" width="76.468" height="76.468" rx="6.191" fill="none"/></g></g><g transform="translate(48.623 221.336)"><path d="M145.224,236.846a.739.739,0,1,0-1.479,0v5.176h-1.479v17.745h1.479V264.2a.739.739,0,0,0,1.479,0v-4.436H146.7V242.022h-1.479Z" transform="translate(-88.374 -192.124)" fill="#fff"/><path d="M261.49,160.77a.739.739,0,1,0-1.479,0v5.176h-1.479v17.745h1.479v4.436a.739.739,0,1,0,1.479,0v-4.436h1.479V165.946H261.49Z" transform="translate(-195.108 -122.285)" fill="#fff"/><path d="M48.958,59.6a.739.739,0,1,0-1.479,0v5.176H46V82.52h1.479v4.436a.739.739,0,0,0,1.479,0V82.52h1.479V64.774H48.958Z" transform="translate(0 -29.407)" fill="#fff"/><path d="M428.234,266.174h-1.479V261a.739.739,0,1,0-1.479,0v5.176H423.8v17.745h1.479v4.436a.739.739,0,1,0,1.479,0v-4.436h1.479Z" transform="translate(-346.826 -214.296)" fill="#fff"/><g transform="translate(69.685 26.826)"><path d="M340.714,35a4.121,4.121,0,0,0,1.255-.2l2.409,2.408,2.638-2.638-2.408-2.41a4.1,4.1,0,0,0-1-4.14,4.053,4.053,0,0,0-2.884-1.195,4.125,4.125,0,0,0-1.765.4.28.28,0,0,0-.156.206.283.283,0,0,0,.078.246l2.535,2.536a.986.986,0,0,1,0,1.4,1.009,1.009,0,0,1-1.4,0l-2.536-2.535a.281.281,0,0,0-.452.077A4.083,4.083,0,0,0,340.714,35Z" transform="translate(-336.493 -26.826)" fill="#fff"/><path d="M469.953,156.058a4.12,4.12,0,0,0-1.256.2l-2.665-2.665-2.64,2.64,2.666,2.666a4.1,4.1,0,0,0,1,4.139,4.054,4.054,0,0,0,2.884,1.195,4.126,4.126,0,0,0,1.766-.4.281.281,0,0,0,.078-.452l-2.535-2.536a.985.985,0,0,1,0-1.4,1.009,1.009,0,0,1,1.4,0l2.535,2.535a.281.281,0,0,0,.452-.078,4.082,4.082,0,0,0-3.68-5.845Z" transform="translate(-452.858 -143.198)" fill="#fff"/><path d="M441.807,34.962s.441.386.8.206c.411-.207,1.569.935,1.938,1.2l.008,0-.2.2a.678.678,0,1,0,.959.958l1.6-1.6a.679.679,0,0,0-.959-.96l-.266.266c-.221-.3-.587-.822-.541-.993.2-.751-1.337-2.526-1.337-2.526-3.8-3.8-6.345-3.717-7.554-3.3-.485.167-.4.273.109.361,3.668.64,4.123,2.8,3.5,3.638-.239.322.11.711.11.711l.131.13-6.193,6.192a1.219,1.219,0,0,1,.238.18l1.042,1.041a1.212,1.212,0,0,1,.179.236l6.193-6.192Z" transform="translate(-425.796 -28.112)" fill="#fff"/><path d="M342.842,170.421a.645.645,0,0,0-.862-.031l-6.882,6.17a.541.541,0,0,0-.03.8l1.875,1.873a.541.541,0,0,0,.8-.028l6.172-6.884a.644.644,0,0,0-.031-.861Z" transform="translate(-334.904 -158.482)" fill="#fff"/></g></g></g></svg>