<svg xmlns="http://www.w3.org/2000/svg" xmlns:xlink="http://www.w3.org/1999/xlink" width="245.722" height="280.076" viewBox="0 0 245.722 280.076"><defs><linearGradient id="a" x1="0.5" x2="0.5" y2="1" gradientUnits="objectBoundingBox"><stop offset="0" stop-color="#e4b940"/><stop offset="1" stop-color="#8e6f16"/></linearGradient><filter id="b" x="2.848" y="2.848" width="240.026" height="240.026" filterUnits="userSpaceOnUse"><feOffset dy="10" input="SourceAlpha"/><feGaussianBlur stdDeviation="10" result="c"/><feFlood flood-opacity="0.4"/><feComposite operator="in" in2="c"/><feComposite in="SourceGraphic"/></filter><linearGradient id="d" x1="0.146" y1="0.146" x2="0.952" y2="0.974" gradientUnits="objectBoundingBox"><stop offset="0" stop-color="#565a6f"/><stop offset="1" stop-color="#3e4257"/></linearGradient><filter id="e" x="35.996" y="7.713" width="173.731" height="272.362" filterUnits="userSpaceOnUse"><feOffset dy="10" input="SourceAlpha"/><feGaussianBlur stdDeviation="15" result="f"/><feFlood flood-opacity="0.302"/><feComposite operator="in" in2="f"/><feComposite in="SourceGraphic"/></filter><filter id="h" x="59.676" y="87.886" width="126.372" height="168.51" filterUnits="userSpaceOnUse"><feOffset dy="10" input="SourceAlpha"/><feGaussianBlur stdDeviation="10" result="i"/><feFlood flood-opacity="0.4"/><feComposite operator="in" in2="i"/><feComposite in="SourceGraphic"/></filter><filter id="k" x="0" y="0" width="245.722" height="245.722" filterUnits="userSpaceOnUse"><feOffset dy="10" input="SourceAlpha"/><feGaussianBlur stdDeviation="15" result="l"/><feFlood flood-opacity="0.302"/><feComposite operator="in" in2="l"/><feComposite in="SourceGraphic"/></filter><filter id="n" x="61.082" y="158.547" width="123.938" height="106.401" filterUnits="userSpaceOnUse"><feOffset dy="10" input="SourceAlpha"/><feGaussianBlur stdDeviation="15" result="o"/><feFlood flood-opacity="0.302"/><feComposite operator="in" in2="o"/><feComposite in="SourceGraphic"/></filter><filter id="q" x="37.376" y="37.376" width="170.971" height="170.971" filterUnits="userSpaceOnUse"><feOffset dy="10" input="SourceAlpha"/><feGaussianBlur stdDeviation="10" result="r"/><feFlood flood-opacity="0.4"/><feComposite operator="in" in2="r"/><feComposite in="SourceGraphic"/></filter></defs><g transform="translate(5.956 -159.544)"><g transform="translate(26.892 182.392)"><g transform="translate(0 0)"><g transform="matrix(1, 0, 0, 1, -32.85, -22.85)" filter="url(#b)"><g transform="translate(32.85 112.86) rotate(-45)" stroke="#e4b940" stroke-width="2" fill="url(#a)"><rect width="127.298" height="127.298" rx="10" stroke="none"/><rect x="1" y="1" width="125.298" height="125.298" rx="9" fill="none"/></g></g></g></g><g transform="matrix(1, 0, 0, 1, -5.96, 159.54)" filter="url(#e)"><path d="M139.6,334.94V211.265a16.323,16.323,0,0,0-16.324-16.322H73.2a16.323,16.323,0,0,0-16.324,16.322V334.94a41.366,41.366,0,0,0,41.366,41.366h0A41.366,41.366,0,0,0,139.6,334.94Z" transform="translate(24.62 -151.73)" stroke="#e4b940" stroke-width="1" fill="url(#d)"/></g><g transform="matrix(1, 0, 0, 1, -5.96, 159.54)" filter="url(#h)"><g transform="translate(27.76 -126.91)" fill="url(#a)"><path d="M 95.09986114501953 342.3096008300781 C 77.35251617431641 342.3096008300781 62.91400527954102 327.87109375 62.91400527954102 310.1237487792969 L 62.91400527954102 235.7999877929688 L 127.2857513427734 235.7999877929688 L 127.2857513427734 310.1237487792969 C 127.2857513427734 327.87109375 112.8472213745117 342.3096008300781 95.09986114501953 342.3096008300781 Z" stroke="none"/><path d="M 63.91400146484375 236.7999877929688 L 63.91400146484375 310.1237487792969 C 63.91400146484375 327.3197021484375 77.90392303466797 341.3096008300781 95.09986114501953 341.3096008300781 C 112.2958145141602 341.3096008300781 126.2857513427734 327.3197021484375 126.2857513427734 310.1237487792969 L 126.2857513427734 236.7999877929688 L 63.91400146484375 236.7999877929688 M 61.91400146484375 234.7999877929688 L 128.2857513427734 234.7999877929688 L 128.2857513427734 310.1237487792969 C 128.2857513427734 328.4219970703125 113.3981857299805 343.3096008300781 95.09986114501953 343.3096008300781 C 76.80153656005859 343.3096008300781 61.91400146484375 328.4219970703125 61.91400146484375 310.1237487792969 L 61.91400146484375 234.7999877929688 Z" stroke="none" fill="#e4b940"/></g></g><g transform="matrix(1, 0, 0, 1, -5.96, 159.54)" filter="url(#k)"><rect width="109.112" height="109.112" rx="4.102" transform="translate(122.86 35.71) rotate(45)" stroke="#e4b940" stroke-width="1" fill="url(#d)"/></g><g transform="translate(101.333 353.591)"><g transform="matrix(1, 0, 0, 1, -107.29, -194.05)" filter="url(#n)"><path d="M94.142,287.9l-5.611,5.613L82.918,287.9H72.769l15.142,15.144a.875.875,0,0,0,1.238,0L104.293,287.9Z" transform="translate(34.52 -93.85)" stroke="#e4b940" stroke-width="1" fill="url(#d)"/></g></g><g transform="matrix(1, 0, 0, 1, -5.96, 159.54)" filter="url(#q)"><g transform="translate(67.38 112.86) rotate(-45)" stroke="#e4b940" stroke-width="2" fill="url(#a)"><rect width="78.468" height="78.468" rx="7.191" stroke="none"/><rect x="1" y="1" width="76.468" height="76.468" rx="6.191" fill="none"/></g></g><g transform="translate(94.905 249.958)"><path d="M390.371,233.161a.33.33,0,0,0,.1.251.975.975,0,0,0,.309.179v-.778Q390.371,232.864,390.371,233.161Z" transform="translate(-356.061 -212.351)" fill="#fff"/><path d="M401.164,267.887v.758a.668.668,0,0,0,.351-.1.262.262,0,0,0,.1-.215.325.325,0,0,0-.124-.251A1.155,1.155,0,0,0,401.164,267.887Z" transform="translate(-365.905 -244.342)" fill="#fff"/><path d="M292.107,141a10.107,10.107,0,1,0,10.107,10.107A10.119,10.119,0,0,0,292.107,141Zm2.774,12.427a2,2,0,0,1-.557.7,2.444,2.444,0,0,1-.789.41,3.939,3.939,0,0,1-.918.169v1.239h-.825v-1.26a6.818,6.818,0,0,1-1.413-.277,5.842,5.842,0,0,1-1.258-.543l.867-1.751a6.186,6.186,0,0,0,.6.328,5.928,5.928,0,0,0,.624.261,3.567,3.567,0,0,0,.727.179v-.9q-.32-.082-.639-.194a5.365,5.365,0,0,1-.836-.354,2.247,2.247,0,0,1-.577-.43,1.529,1.529,0,0,1-.335-.548,2.122,2.122,0,0,1-.108-.707,2.422,2.422,0,0,1,.186-.978,2.254,2.254,0,0,1,.505-.732,2.489,2.489,0,0,1,.748-.492,3.115,3.115,0,0,1,.913-.235v-1.034h.825v1.045a5.072,5.072,0,0,1,.66.123q.32.082.614.189t.552.225q.257.118.475.22l-.867,1.649a4.224,4.224,0,0,0-.5-.266,4.3,4.3,0,0,0-.51-.21,3.847,3.847,0,0,0-.573-.149v.922a1.759,1.759,0,0,1,.2.056c.069.024.141.046.217.067a7.51,7.51,0,0,1,.913.338,2.837,2.837,0,0,1,.7.435,1.68,1.68,0,0,1,.444.609,2.195,2.195,0,0,1,.155.87A2.285,2.285,0,0,1,294.881,153.427Z" transform="translate(-257.215 -128.607)" fill="#fff"/><path d="M73.622,7.208,71.757,5.343l-1.23,1.229V2.637H92.676V9.824a12.825,12.825,0,0,1,2.637,0V0H67.891V6.573l-1.23-1.229L64.8,7.208l4.412,4.413Z" transform="translate(-59.102)" fill="#fff"/><path d="M121.691,384.2l1.864,1.864,1.23-1.229v3.936H102.637V381.65H100v9.756h27.422v-6.573l1.23,1.229,1.864-1.864-4.412-4.413Z" transform="translate(-91.211 -346.405)" fill="#fff"/><path d="M91.845,199.805a1.534,1.534,0,0,0-.093,1.022h2.959a1.528,1.528,0,0,0-2.866-1.022Z" transform="translate(-83.644 -181.437)" fill="#fff"/><path d="M30.13,331.193v-.255a6.8,6.8,0,0,0-1.293.256,7.341,7.341,0,0,0,1.356.263A.5.5,0,0,1,30.13,331.193Z" transform="translate(-26.302 -301.852)" fill="#fff"/><path d="M31.115,342.391c-.383.02-.775.031-1.16.031a13.573,13.573,0,0,1-3.827-.432v1.1a10.208,10.208,0,0,0,3.827.483,10.21,10.21,0,0,0,3.827-.483v-.723c-.491.034-1,.057-1.531.057-.374,0-.757-.011-1.137-.031Z" transform="translate(-23.832 -311.932)" fill="#fff"/><path d="M47.318,164.488a3.827,3.827,0,0,1-.3-1.581L38.8,159.079a3.784,3.784,0,0,1-2.624.957L34.938,162.7a3.818,3.818,0,0,1,.882,1.786h3.37a2.294,2.294,0,1,1,4.529,0Z" transform="translate(-31.867 -145.097)" fill="#fff"/><circle cx="0.383" cy="0.383" r="0.383" transform="translate(17.606 26.279)" fill="#fff"/><path d="M10.974,139.985h2.2a3.049,3.049,0,0,0-.821-1.441.383.383,0,0,1-.079-.434l1.462-3.138a.38.38,0,0,1,.385-.219,3.026,3.026,0,0,0,2.475-.9.383.383,0,0,1,.435-.079l8.684,4.049a.383.383,0,0,1,.219.383,3.059,3.059,0,0,0,.373,1.782H27.87l.607-1.3L14.6,132.215Z" transform="translate(-10.009 -120.595)" fill="#fff"/><path d="M54.553,320.595c-.489.035-1,.053-1.531.053-.252,0-.509-.012-.765-.02v.684a7.531,7.531,0,0,0,2.7.454q.58.03,1.129.03c.651,0,1.3-.029,1.878-.083a5.579,5.579,0,0,0,1.949-.4v-1.095a13.574,13.574,0,0,1-3.827.432c-.527,0-1.041-.018-1.531-.053Z" transform="translate(-47.664 -292.072)" fill="#fff"/><path d="M188.256,282.729a1.148,1.148,0,0,0-1.148-1.148h-3.062a1.148,1.148,0,0,0-1.148,1.148v1.531a1.148,1.148,0,0,0,1.148,1.148h3.062a1.148,1.148,0,0,0,1.148-1.148Zm-3.445,1.914a1.148,1.148,0,1,1,1.148-1.148A1.148,1.148,0,0,1,184.812,284.643Z" transform="translate(-166.823 -256.833)" fill="#fff"/><path d="M20.671,288.916v-.132a4.606,4.606,0,0,0-.526.135,4.79,4.79,0,0,0,.548.137A.5.5,0,0,1,20.671,288.916Z" transform="translate(-18.374 -263.403)" fill="#fff"/><path d="M112.087,308.66a.494.494,0,0,1-.11.336,9.618,9.618,0,0,0,2.169-.336,9.089,9.089,0,0,0-2.059-.328Z" transform="translate(-102.135 -281.233)" fill="#fff"/><path d="M0,229.708v12.248a.383.383,0,0,0,.383.383H18.754a.383.383,0,0,0,.383-.383v-3.445H17.223A1.916,1.916,0,0,1,15.31,236.6v-1.531a1.916,1.916,0,0,1,1.914-1.914h1.914v-3.445a.383.383,0,0,0-.383-.383H.383A.383.383,0,0,0,0,229.708Zm.765,4.976c0-.438.467-.716,1.531-.912v-1c0-.344.447-1.148,4.593-1.148,1.381,0,4.593.112,4.593,1.148v1.914c0,.39-.372.651-1.2.842,2.727.23,2.732.855,2.732,1.072v1.914c0,.233-.006.765-2.3,1.025v.888c0,1.036-3.212,1.148-4.593,1.148s-4.593-.112-4.593-1.148v-1.914c0-.2,0-.617,1.431-.9-2.191-.259-2.2-.815-2.2-1.017Z" transform="translate(0 -209.169)" fill="#fff"/><path d="M22.749,299.97a6.534,6.534,0,0,0,2.324-.433v-.787a19.977,19.977,0,0,1-2.3.124c-.253,0-.5,0-.743-.012-.264.008-.524.012-.788.012a13.572,13.572,0,0,1-3.827-.432v1.1a7.526,7.526,0,0,0,2.7.454,21.259,21.259,0,0,0,2.632-.023Z" transform="translate(-15.888 -272.213)" fill="#fff"/><path d="M38.665,278.2a18.13,18.13,0,0,0,2.621-.172,3.754,3.754,0,0,0,1.206-.315v-1.1a11.586,11.586,0,0,1-3.827.437,13.573,13.573,0,0,1-3.827-.432v1.1a8.5,8.5,0,0,0,3.075.472c.26.007.5.011.753.011Z" transform="translate(-31.776 -252.301)" fill="#fff"/><ellipse cx="3.596" cy="0.383" rx="3.596" ry="0.383" transform="translate(3.293 23.217)" fill="#fff"/></g></g></svg>