<svg xmlns="http://www.w3.org/2000/svg" xmlns:xlink="http://www.w3.org/1999/xlink" width="245.722" height="280.075" viewBox="0 0 245.722 280.075"><defs><linearGradient id="a" x1="0.5" x2="0.5" y2="1" gradientUnits="objectBoundingBox"><stop offset="0" stop-color="#e4b940"/><stop offset="1" stop-color="#8e6f16"/></linearGradient><filter id="b" x="2.848" y="2.848" width="240.026" height="240.026" filterUnits="userSpaceOnUse"><feOffset dy="10" input="SourceAlpha"/><feGaussianBlur stdDeviation="10" result="c"/><feFlood flood-opacity="0.4"/><feComposite operator="in" in2="c"/><feComposite in="SourceGraphic"/></filter><linearGradient id="d" x1="0.146" y1="0.146" x2="0.952" y2="0.974" gradientUnits="objectBoundingBox"><stop offset="0" stop-color="#565a6f"/><stop offset="1" stop-color="#3e4257"/></linearGradient><filter id="e" x="35.996" y="7.713" width="173.731" height="272.362" filterUnits="userSpaceOnUse"><feOffset dy="10" input="SourceAlpha"/><feGaussianBlur stdDeviation="15" result="f"/><feFlood flood-opacity="0.302"/><feComposite operator="in" in2="f"/><feComposite in="SourceGraphic"/></filter><filter id="h" x="59.676" y="87.886" width="126.372" height="168.51" filterUnits="userSpaceOnUse"><feOffset dy="10" input="SourceAlpha"/><feGaussianBlur stdDeviation="10" result="i"/><feFlood flood-opacity="0.4"/><feComposite operator="in" in2="i"/><feComposite in="SourceGraphic"/></filter><filter id="k" x="0" y="0" width="245.722" height="245.722" filterUnits="userSpaceOnUse"><feOffset dy="10" input="SourceAlpha"/><feGaussianBlur stdDeviation="15" result="l"/><feFlood flood-opacity="0.302"/><feComposite operator="in" in2="l"/><feComposite in="SourceGraphic"/></filter><filter id="n" x="61.082" y="158.547" width="123.938" height="106.401" filterUnits="userSpaceOnUse"><feOffset dy="10" input="SourceAlpha"/><feGaussianBlur stdDeviation="15" result="o"/><feFlood flood-opacity="0.302"/><feComposite operator="in" in2="o"/><feComposite in="SourceGraphic"/></filter><filter id="q" x="37.376" y="37.376" width="170.971" height="170.971" filterUnits="userSpaceOnUse"><feOffset dy="10" input="SourceAlpha"/><feGaussianBlur stdDeviation="10" result="r"/><feFlood flood-opacity="0.4"/><feComposite operator="in" in2="r"/><feComposite in="SourceGraphic"/></filter></defs><g transform="translate(5.956 -159.544)"><g transform="translate(26.892 182.392)"><g transform="translate(0 0)"><g transform="matrix(1, 0, 0, 1, -32.85, -22.85)" filter="url(#b)"><g transform="translate(32.85 112.86) rotate(-45)" stroke="#e4b940" stroke-width="2" fill="url(#a)"><rect width="127.298" height="127.298" rx="10" stroke="none"/><rect x="1" y="1" width="125.298" height="125.298" rx="9" fill="none"/></g></g></g></g><g transform="matrix(1, 0, 0, 1, -5.96, 159.54)" filter="url(#e)"><path d="M139.6,334.94V211.265a16.323,16.323,0,0,0-16.324-16.322H73.2a16.323,16.323,0,0,0-16.324,16.322V334.94a41.366,41.366,0,0,0,41.366,41.366h0A41.366,41.366,0,0,0,139.6,334.94Z" transform="translate(24.62 -151.73)" stroke="#e4b940" stroke-width="1" fill="url(#d)"/></g><g transform="matrix(1, 0, 0, 1, -5.96, 159.54)" filter="url(#h)"><g transform="translate(27.76 -126.91)" fill="url(#a)"><path d="M 95.09986114501953 342.3096008300781 C 77.35251617431641 342.3096008300781 62.91400527954102 327.87109375 62.91400527954102 310.1237487792969 L 62.91400527954102 235.7999877929688 L 127.2857513427734 235.7999877929688 L 127.2857513427734 310.1237487792969 C 127.2857513427734 327.87109375 112.8472213745117 342.3096008300781 95.09986114501953 342.3096008300781 Z" stroke="none"/><path d="M 63.91400146484375 236.7999877929688 L 63.91400146484375 310.1237487792969 C 63.91400146484375 327.3197021484375 77.90392303466797 341.3096008300781 95.09986114501953 341.3096008300781 C 112.2958145141602 341.3096008300781 126.2857513427734 327.3197021484375 126.2857513427734 310.1237487792969 L 126.2857513427734 236.7999877929688 L 63.91400146484375 236.7999877929688 M 61.91400146484375 234.7999877929688 L 128.2857513427734 234.7999877929688 L 128.2857513427734 310.1237487792969 C 128.2857513427734 328.4219970703125 113.3981857299805 343.3096008300781 95.09986114501953 343.3096008300781 C 76.80153656005859 343.3096008300781 61.91400146484375 328.4219970703125 61.91400146484375 310.1237487792969 L 61.91400146484375 234.7999877929688 Z" stroke="none" fill="#e4b940"/></g></g><g transform="matrix(1, 0, 0, 1, -5.96, 159.54)" filter="url(#k)"><rect width="109.112" height="109.112" rx="4.102" transform="translate(122.86 35.71) rotate(45)" stroke="#e4b940" stroke-width="1" fill="url(#d)"/></g><g transform="translate(101.333 353.591)"><g transform="matrix(1, 0, 0, 1, -107.29, -194.05)" filter="url(#n)"><path d="M94.142,287.9l-5.611,5.613L82.918,287.9H72.769l15.142,15.144a.875.875,0,0,0,1.238,0L104.293,287.9Z" transform="translate(34.52 -93.85)" stroke="#e4b940" stroke-width="1" fill="url(#d)"/></g></g><g transform="matrix(1, 0, 0, 1, -5.96, 159.54)" filter="url(#q)"><g transform="translate(67.38 112.86) rotate(-45)" stroke="#e4b940" stroke-width="2" fill="url(#a)"><rect width="78.468" height="78.468" rx="7.191" stroke="none"/><rect x="1" y="1" width="76.468" height="76.468" rx="6.191" fill="none"/></g></g><g transform="translate(62.71 212.64)"><path d="M359.888,405.137l1.1,1.173c.41-.384.8-.792,1.172-1.213l-1.21-1.057C360.616,404.42,360.259,404.789,359.888,405.137Z" transform="translate(-294.943 -334.669)" fill="#fff"/><path d="M397.012,352.094l-1.526-.5a15.042,15.042,0,0,1-.55,1.423l1.468.654a16.769,16.769,0,0,0,.608-1.575Z" transform="translate(-326.47 -287.489)" fill="#fff"/><path d="M248.088,457.4c.264.012.528.018.795.018q.448,0,.891-.023l-.084-1.6c-.505.027-1.021.028-1.527,0Z" transform="translate(-194.373 -381.223)" fill="#fff"/><path d="M279.4,453.095a16.785,16.785,0,0,0,1.652-.338l-.4-1.557c-.49.126-.993.229-1.495.306Z" transform="translate(-222.317 -377.092)" fill="#fff"/><path d="M308.52,441.327l.556,1.508a16.667,16.667,0,0,0,1.55-.661l-.7-1.445a15.141,15.141,0,0,1-1.4.6Z" transform="translate(-248.735 -367.672)" fill="#fff"/><path d="M336.637,427.016c.477-.295.944-.617,1.389-.956l-.977-1.276c-.4.307-.824.6-1.256.865Z" transform="translate(-273.267 -353.329)" fill="#fff"/><path d="M382.1,380.109l-1.4-.8c-.251.439-.528.871-.823,1.286l1.31.932c.326-.458.631-.935.908-1.421Z" transform="translate(-312.927 -312.425)" fill="#fff"/><path d="M123.45,443.51a.8.8,0,0,0,.75.508h4.112a.8.8,0,0,0,.763-.55l.95-3.468h-7.536Z" transform="translate(-81.389 -367.017)" fill="#fff"/><path d="M220.929,38.429H215.3a.8.8,0,0,1-.8-.8v-.8a4.822,4.822,0,0,0-9.643,0v.8a.8.8,0,0,1-.8.8h-5.625v5.625a.8.8,0,0,1-.8.8h-.8a4.822,4.822,0,0,0,0,9.643h.8a.8.8,0,0,1,.8.8v5.625h4.822a6.429,6.429,0,1,1,12.857,0h4.822Zm-13.661,9.643v-.8h3.214v-.8h-2.411a.8.8,0,0,1-.8-.8V43.25a.8.8,0,0,1,.8-.8h.8v-.8h1.607v.8h.8a.8.8,0,0,1,.8.8v.8h-3.214v.8h2.411a.8.8,0,0,1,.8.8v2.411a.8.8,0,0,1-.8.8h-.8v.8h-1.607v-.8h-.8A.8.8,0,0,1,207.268,48.072Zm2.411,4.822a7.232,7.232,0,0,1-.952-.063l.21-1.593a5.858,5.858,0,0,0,.742.048,5.623,5.623,0,1,0-2.85-.775l-.816,1.385a7.234,7.234,0,1,1,3.666,1Z" transform="translate(-143.919)" fill="#fff"/><path d="M52.9,96V92.105a6.432,6.432,0,0,1-6.4-5.944,7.219,7.219,0,0,1-6.6,2.667l.21-1.593a5.858,5.858,0,0,0,.743.048A5.623,5.623,0,1,0,38,86.509l-.816,1.385A7.231,7.231,0,1,1,48.071,81.45a6.408,6.408,0,0,1,4.832-2.2V74.871a12.839,12.839,0,0,0-18.31,17.723,25.941,25.941,0,0,1,5.439,14.78h1.422l-3-13.487,1.569-.349.706,3.173,1.156-1.156a.8.8,0,0,1,1.014-.1l1.966,1.31,1.965-1.31a.805.805,0,0,1,1.014.1L49,96.711l.706-3.173,1.569.349-3,13.487H49.7A25.151,25.151,0,0,1,52.9,96ZM38.438,84.069v-.8h3.214v-.8H39.242a.8.8,0,0,1-.8-.8V79.248a.8.8,0,0,1,.8-.8h.8v-.8h1.607v.8h.8a.8.8,0,0,1,.8.8v.8H40.045v.8h2.411a.8.8,0,0,1,.8.8v2.411a.8.8,0,0,1-.8.8h-.8v.8H40.045v-.8h-.8A.8.8,0,0,1,38.438,84.069Z" transform="translate(0 -35.998)" fill="#fff"/><path d="M128.72,323.437l-1.141-1.141-1.863,1.242a.8.8,0,0,1-.892,0l-1.863-1.242-1.141,1.141-.428-.428,2.112,9.5h3.533l2.112-9.5Z" transform="translate(-80.403 -261.136)" fill="#fff"/></g></g></svg>