<svg xmlns="http://www.w3.org/2000/svg" xmlns:xlink="http://www.w3.org/1999/xlink" width="191.172" height="200.942" viewBox="0 0 191.172 200.942"><defs><linearGradient id="a" x1="0.488" y1="0.157" x2="0.516" y2="0.952" gradientUnits="objectBoundingBox"><stop offset="0" stop-color="#e4b940"/><stop offset="0.31" stop-color="#e1b73f"/><stop offset="0.5" stop-color="#d9af3a"/><stop offset="0.67" stop-color="#caa233"/><stop offset="0.81" stop-color="#b59029"/><stop offset="0.95" stop-color="#9a791c"/><stop offset="1" stop-color="#8e6f16"/></linearGradient><linearGradient id="b" x1="0.094" y1="0.346" x2="0.901" y2="0.652" xlink:href="#a"/><linearGradient id="c" x1="-0.197" y1="0.254" x2="1.197" y2="0.746" xlink:href="#a"/></defs><g transform="translate(-206.924 -6394.803)"><g transform="translate(206.924 6394.803)"><path d="M33.007,79.559l.1-.06L0,60.38V124.4a7.107,7.107,0,0,0,10.669,6.155L29.45,119.716a7.1,7.1,0,0,0,3.556-6.161Z" transform="translate(0 -27.555)" fill="#8e6f16"/><path d="M0,32.853,33.11,51.971,62.474,35.028a7.129,7.129,0,0,0,3.556-6.161V7.165A7.118,7.118,0,0,0,55.35,1Z" transform="translate(0 -0.028)" fill="#e4b940"/><path d="M126.129,284.3l-29.451-17a7.1,7.1,0,0,0-7.112,0L70.784,278.12a7.113,7.113,0,0,0,0,12.322l55.464,32.022V284.232Z" transform="translate(-30.671 -121.523)" fill="#e4b940"/><path d="M231.027,290.451a7.113,7.113,0,0,0,0-12.316l-18.8-10.875a7.1,7.1,0,0,0-7.113,0L175.78,284.192v38.254Z" transform="translate(-80.196 -121.505)" fill="#8e6f16"/><path d="M295.946,32.84,240.362.958A7.112,7.112,0,0,0,229.71,7.13V28.854a7.118,7.118,0,0,0,3.556,6.161l29.451,17h0Z" transform="translate(-104.801 -0.015)" fill="#8e6f16"/><path d="M290.41,79.573v33.991a7.1,7.1,0,0,0,3.583,6.161L312.808,130.6a7.112,7.112,0,0,0,10.669-6.139l.19-64.061Z" transform="translate(-132.494 -27.565)" fill="#e4b940"/><path d="M144.928,116.585l35.345-20.391a3.551,3.551,0,0,0,0-6.155L144.928,69.679a3.54,3.54,0,0,0-3.551,0L106.1,90.038a3.556,3.556,0,0,0,0,6.161L141.4,116.585A3.551,3.551,0,0,0,144.928,116.585Z" transform="translate(-47.593 -31.58)" fill="url(#a)"/><path d="M179.05,148.431v40.783a3.556,3.556,0,0,0,5.334,3.078l35.3-20.37a3.567,3.567,0,0,0,1.756-3.121V128.018a3.556,3.556,0,0,0-5.334-3.078l-35.3,20.386A3.562,3.562,0,0,0,179.05,148.431Z" transform="translate(-81.688 -56.792)" fill="url(#b)"/><path d="M94.5,128.054v40.783a3.567,3.567,0,0,0,1.778,3.083l11.153,6.438,24.143,13.931a3.556,3.556,0,0,0,5.334-3.083V148.424a3.562,3.562,0,0,0-1.778-3.078l-35.3-20.386a3.556,3.556,0,0,0-5.334,3.094Z" transform="translate(-43.114 -56.802)" fill="url(#c)"/></g></g></svg>