<svg xmlns="http://www.w3.org/2000/svg" xmlns:xlink="http://www.w3.org/1999/xlink" width="290" height="68.442" viewBox="0 0 290 68.442"><defs><linearGradient id="a" x1="0.488" y1="0.157" x2="0.516" y2="0.952" gradientUnits="objectBoundingBox"><stop offset="0" stop-color="#e4b940"/><stop offset="0.31" stop-color="#e1b73f"/><stop offset="0.5" stop-color="#d9af3a"/><stop offset="0.67" stop-color="#caa233"/><stop offset="0.81" stop-color="#b59029"/><stop offset="0.95" stop-color="#9a791c"/><stop offset="1" stop-color="#8e6f16"/></linearGradient><linearGradient id="b" x1="0.094" y1="0.346" x2="0.901" y2="0.652" xlink:href="#a"/><linearGradient id="c" x1="-0.197" y1="0.254" x2="1.197" y2="0.746" xlink:href="#a"/></defs><g transform="translate(0 1)"><g transform="translate(0 -1)"><path d="M11.242,66.912l.035-.02L0,60.38V82.187a2.421,2.421,0,0,0,3.634,2.1l6.4-3.693a2.419,2.419,0,0,0,1.211-2.1Z" transform="translate(0 -49.2)" fill="#8e6f16"/><path d="M0,11.218,11.277,17.73l10-5.771a2.428,2.428,0,0,0,1.211-2.1V2.469a2.424,2.424,0,0,0-3.638-2.1Z" transform="translate(0 -0.038)" fill="#e4b940"/><path d="M87.289,272.461,77.258,266.67a2.419,2.419,0,0,0-2.423,0l-6.4,3.686a2.423,2.423,0,0,0,0,4.2l18.891,10.907V272.437Z" transform="translate(-54.775 -217.018)" fill="#e4b940"/><path d="M194.6,274.529a2.423,2.423,0,0,0,0-4.2l-6.4-3.7a2.418,2.418,0,0,0-2.423,0l-9.99,5.767v13.03Z" transform="translate(-143.224 -216.985)" fill="#8e6f16"/><path d="M252.27,11.2,233.338.336a2.423,2.423,0,0,0-3.628,2.1v7.4a2.424,2.424,0,0,0,1.211,2.1l10.031,5.792h0Z" transform="translate(-187.165 -0.015)" fill="#8e6f16"/><path d="M290.41,66.931V78.508a2.419,2.419,0,0,0,1.221,2.1l6.408,3.7a2.423,2.423,0,0,0,3.634-2.091l.065-21.82Z" transform="translate(-236.623 -49.216)" fill="#e4b940"/><path d="M118.15,85.341,130.188,78.4a1.209,1.209,0,0,0,0-2.1L118.15,69.365a1.206,1.206,0,0,0-1.209,0L104.924,76.3a1.211,1.211,0,0,0,0,2.1l12.026,6.944A1.209,1.209,0,0,0,118.15,85.341Z" transform="translate(-84.997 -56.388)" fill="url(#a)"/><path d="M179.05,132.627v13.891a1.211,1.211,0,0,0,1.817,1.048l12.022-6.938a1.215,1.215,0,0,0,.6-1.063V125.674a1.211,1.211,0,0,0-1.817-1.048l-12.022,6.944A1.213,1.213,0,0,0,179.05,132.627Z" transform="translate(-145.888 -101.415)" fill="url(#b)"/><path d="M94.5,125.7v13.891a1.215,1.215,0,0,0,.606,1.05l3.8,2.193,8.223,4.745a1.211,1.211,0,0,0,1.817-1.05V132.638a1.213,1.213,0,0,0-.606-1.048l-12.022-6.944A1.211,1.211,0,0,0,94.5,125.7Z" transform="translate(-76.998 -101.431)" fill="url(#c)"/></g><g transform="translate(86.467 21.434)"><path d="M476.283,114.27h8.846l9.331,21.7H486.7l-1.3-3.519h-9.488l-1.308,3.519H466.86Zm4.408,5.471h-.061l-3,8.207h6.081Z" transform="translate(-466.86 -113.722)" fill="#e4b940"/><path d="M621.13,140.624h6.353v3.254h.061a7.717,7.717,0,0,1,6.718-3.678,12.882,12.882,0,0,1,2.189.185V146.4a11.971,11.971,0,0,0-3.556-.556c-3.678,0-5.321,1.885-5.321,4.864V157.1H621.13Z" transform="translate(-592.558 -134.849)" fill="#e4b940"/><path d="M717.3,114.27h17.965c5.258,0,6.171,3.252,6.171,5.349A4.584,4.584,0,0,1,738.76,124v.061c2.28.517,3.769,2.371,3.769,5.441,0,2.584-1.215,6.482-7.871,6.482H717.3Zm7.234,8.359h7.2c1.55,0,2.223-.852,2.223-1.852,0-.972-.669-1.824-2.223-1.824h-7.2Zm7.779,8.662c1.519,0,2.552-.82,2.552-2.248s-1.034-2.158-2.552-2.158h-7.779v4.406Z" transform="translate(-670.916 -113.722)" fill="#fff"/><path d="M870.26,111.31H876.7V115.2H870.26Zm0,5.775H876.7v16.484H870.26Z" transform="translate(-795.546 -111.31)" fill="#fff"/><path d="M924.08,140.624h6.262V143h.061c1.308-1.611,3.678-2.8,6.93-2.8,4.043,0,6.992,1.945,6.992,6.049V157.1h-6.443v-8.907c0-2.1-1.185-3.13-3.345-3.13a3.655,3.655,0,0,0-4.012,3.951V157.1H924.08Z" transform="translate(-839.398 -134.849)" fill="#fff"/><path d="M1048.134,145.793c.608-4.9,5.258-5.593,10.305-5.593,5.988,0,10.487.972,10.487,5.593v8.334a5.218,5.218,0,0,0,.669,2.978h-6.444a4.751,4.751,0,0,1-.335-1.521c-1.852,1.763-4.5,2.189-7.751,2.189-5.258,0-8.055-1.7-8.055-5.138,0-3.738,2.493-5.077,7.112-5.371l6.406-.435c1.667-.122,1.947-.487,1.947-1.339,0-1.154-1.246-1.761-4.074-1.761-2.371,0-3.519.669-3.83,2.067Zm14.53,3.617a15.726,15.726,0,0,1-2.461.456l-4.347.517c-1.308.152-1.852.669-1.852,1.667,0,1.276,1.154,2.006,2.887,2.006,3.7,0,5.775-1.4,5.775-3.649Z" transform="translate(-939.56 -134.849)" fill="#fff"/><path d="M1185.36,140.624h6.262V143h.061c1.3-1.611,3.678-2.8,6.931-2.8,4.041,0,6.99,1.945,6.99,6.049V157.1h-6.443v-8.907c0-2.1-1.185-3.13-3.334-3.13-2.28,0-4.013,1.246-4.013,3.951V157.1h-6.444Z" transform="translate(-1052.286 -134.849)" fill="#fff"/><path d="M1332.031,149.307c-.974,4.712-4.165,7.386-11.4,7.386-7.3,0-11.551-2.826-11.551-8.907,0-5.958,4.469-8.907,11.551-8.907,6.14,0,10.518,1.852,11.1,7.082H1325.1c-.305-1.793-1.643-2.826-4.378-2.826-3.01,0-4.832,1.667-4.832,4.651s1.763,4.651,4.863,4.651c2.432,0,4.042-1.034,4.468-3.13Z" transform="translate(-1153.093 -133.774)" fill="#fff"/><path d="M1465.186,151.077c-.791,2.736-3.923,5.556-10.944,5.556-7.408,0-11.552-2.826-11.552-8.936,0-5.836,4.531-8.877,11.37-8.877,7.051,0,11.429,3.071,11.429,9.94v.487h-16.173c.336,2.128,1.852,3.678,5.167,3.678a4.5,4.5,0,0,0,3.89-1.852Zm-6.325-5.164c-.37-1.822-1.733-3.373-4.773-3.373s-4.408,1.55-4.773,3.373Z" transform="translate(-1261.957 -133.725)" fill="#fff"/></g></g></svg>