<svg xmlns="http://www.w3.org/2000/svg" xmlns:xlink="http://www.w3.org/1999/xlink" width="203.533" height="121.384" viewBox="0 0 203.533 121.384"><defs><linearGradient id="a" x1="0.488" y1="0.157" x2="0.516" y2="0.952" gradientUnits="objectBoundingBox"><stop offset="0" stop-color="#e4b940"/><stop offset="0.31" stop-color="#e1b73f"/><stop offset="0.5" stop-color="#d9af3a"/><stop offset="0.67" stop-color="#caa233"/><stop offset="0.81" stop-color="#b59029"/><stop offset="0.95" stop-color="#9a791c"/><stop offset="1" stop-color="#8e6f16"/></linearGradient><linearGradient id="b" x1="0.094" y1="0.346" x2="0.901" y2="0.652" xlink:href="#a"/><linearGradient id="c" x1="-0.197" y1="0.254" x2="1.197" y2="0.746" xlink:href="#a"/></defs><g transform="translate(-41.467 31.025)"><g transform="translate(106.219 -31.025)"><path d="M12.893,67.872l.04-.023L0,60.38V85.389a2.776,2.776,0,0,0,4.167,2.4L11.5,83.558a2.774,2.774,0,0,0,1.389-2.407Z" transform="translate(0 -47.558)" fill="#8e6f16"/><path d="M0,12.859l12.933,7.468L24.4,13.709A2.785,2.785,0,0,0,25.792,11.3V2.825A2.78,2.78,0,0,0,21.621.417Z" transform="translate(0 -0.037)" fill="#e4b940"/><path d="M90.234,273.359l-11.5-6.642a2.774,2.774,0,0,0-2.778,0l-7.336,4.227a2.778,2.778,0,0,0,0,4.813l21.665,12.509V273.332Z" transform="translate(-52.947 -209.775)" fill="#e4b940"/><path d="M197.36,275.737a2.778,2.778,0,0,0,0-4.811l-7.345-4.248a2.774,2.774,0,0,0-2.778,0l-11.457,6.614v14.943Z" transform="translate(-138.443 -209.743)" fill="#8e6f16"/><path d="M255.583,12.837,233.871.383a2.778,2.778,0,0,0-4.161,2.411V11.28a2.78,2.78,0,0,0,1.389,2.407l11.5,6.642h0Z" transform="translate(-180.918 -0.015)" fill="#8e6f16"/><path d="M290.41,67.889V81.167a2.774,2.774,0,0,0,1.4,2.407l7.349,4.248a2.778,2.778,0,0,0,4.167-2.4L303.4,60.4Z" transform="translate(-228.725 -47.574)" fill="#e4b940"/><path d="M120.181,87.711l13.806-7.965a1.387,1.387,0,0,0,0-2.4l-13.806-7.952a1.383,1.383,0,0,0-1.387,0l-13.781,7.952a1.389,1.389,0,0,0,0,2.407L118.8,87.711A1.387,1.387,0,0,0,120.181,87.711Z" transform="translate(-82.16 -54.506)" fill="url(#a)"/><path d="M179.05,133.826v15.93a1.389,1.389,0,0,0,2.084,1.2L194.921,143a1.393,1.393,0,0,0,.686-1.219v-15.93a1.389,1.389,0,0,0-2.084-1.2l-13.787,7.963A1.392,1.392,0,0,0,179.05,133.826Z" transform="translate(-141.018 -98.03)" fill="url(#b)"/><path d="M94.5,125.878v15.93a1.393,1.393,0,0,0,.695,1.2l4.356,2.515,9.431,5.442a1.389,1.389,0,0,0,2.084-1.2v-15.93a1.391,1.391,0,0,0-.695-1.2L96.584,124.67a1.389,1.389,0,0,0-2.084,1.209Z" transform="translate(-74.428 -98.046)" fill="url(#c)"/></g><g transform="translate(41.467 67.434)"><path d="M476.283,114.27h8.846l9.331,21.7H486.7l-1.3-3.519h-9.488l-1.308,3.519H466.86Zm4.408,5.471h-.061l-3,8.207h6.081Z" transform="translate(-466.86 -113.722)" fill="#e4b940"/><path d="M621.13,140.624h6.353v3.254h.061a7.717,7.717,0,0,1,6.718-3.678,12.882,12.882,0,0,1,2.189.185V146.4a11.971,11.971,0,0,0-3.556-.556c-3.678,0-5.321,1.885-5.321,4.864V157.1H621.13Z" transform="translate(-592.558 -134.849)" fill="#e4b940"/><path d="M717.3,114.27h17.965c5.258,0,6.171,3.252,6.171,5.349A4.584,4.584,0,0,1,738.76,124v.061c2.28.517,3.769,2.371,3.769,5.441,0,2.584-1.215,6.482-7.871,6.482H717.3Zm7.234,8.359h7.2c1.55,0,2.223-.852,2.223-1.852,0-.972-.669-1.824-2.223-1.824h-7.2Zm7.779,8.662c1.519,0,2.552-.82,2.552-2.248s-1.034-2.158-2.552-2.158h-7.779v4.406Z" transform="translate(-670.916 -113.722)"/><path d="M870.26,111.31H876.7V115.2H870.26Zm0,5.775H876.7v16.484H870.26Z" transform="translate(-795.546 -111.31)"/><path d="M924.08,140.624h6.262V143h.061c1.308-1.611,3.678-2.8,6.93-2.8,4.043,0,6.992,1.945,6.992,6.049V157.1h-6.443v-8.907c0-2.1-1.185-3.13-3.345-3.13a3.655,3.655,0,0,0-4.012,3.951V157.1H924.08Z" transform="translate(-839.398 -134.849)"/><path d="M1048.134,145.793c.608-4.9,5.258-5.593,10.305-5.593,5.988,0,10.487.972,10.487,5.593v8.334a5.218,5.218,0,0,0,.669,2.978h-6.444a4.751,4.751,0,0,1-.335-1.521c-1.852,1.763-4.5,2.189-7.751,2.189-5.258,0-8.055-1.7-8.055-5.138,0-3.738,2.493-5.077,7.112-5.371l6.406-.435c1.667-.122,1.947-.487,1.947-1.339,0-1.154-1.246-1.761-4.074-1.761-2.371,0-3.519.669-3.83,2.067Zm14.53,3.617a15.726,15.726,0,0,1-2.461.456l-4.347.517c-1.308.152-1.852.669-1.852,1.667,0,1.276,1.154,2.006,2.887,2.006,3.7,0,5.775-1.4,5.775-3.649Z" transform="translate(-939.56 -134.849)"/><path d="M1185.36,140.624h6.262V143h.061c1.3-1.611,3.678-2.8,6.931-2.8,4.041,0,6.99,1.945,6.99,6.049V157.1h-6.443v-8.907c0-2.1-1.185-3.13-3.334-3.13-2.28,0-4.013,1.246-4.013,3.951V157.1h-6.444Z" transform="translate(-1052.286 -134.849)"/><path d="M1332.031,149.307c-.974,4.712-4.165,7.386-11.4,7.386-7.3,0-11.551-2.826-11.551-8.907,0-5.958,4.469-8.907,11.551-8.907,6.14,0,10.518,1.852,11.1,7.082H1325.1c-.305-1.793-1.643-2.826-4.378-2.826-3.01,0-4.832,1.667-4.832,4.651s1.763,4.651,4.863,4.651c2.432,0,4.042-1.034,4.468-3.13Z" transform="translate(-1153.093 -133.774)"/><path d="M1465.186,151.077c-.791,2.736-3.923,5.556-10.944,5.556-7.408,0-11.552-2.826-11.552-8.936,0-5.836,4.531-8.877,11.37-8.877,7.051,0,11.429,3.071,11.429,9.94v.487h-16.173c.336,2.128,1.852,3.678,5.167,3.678a4.5,4.5,0,0,0,3.89-1.852Zm-6.325-5.164c-.37-1.822-1.733-3.373-4.773-3.373s-4.408,1.55-4.773,3.373Z" transform="translate(-1261.957 -133.725)"/></g></g></svg>