<svg xmlns="http://www.w3.org/2000/svg" viewBox="0 0 160 45.07"><defs><style>.cls-1{fill:#fff;}.cls-2{fill:#d27f3b;}.cls-3{fill:#c54634;}.cls-4{fill:#cd5432;}.cls-5{fill:#c4322d;}.cls-6{fill:#ba3f3a;}.cls-7{fill:#ce5331;}.cls-8{fill:#cd6538;}.cls-9{fill:#c64333;}.cls-10{fill:#ca5d38;}.cls-11{fill:#c94c36;}.cls-12{fill:#c95032;}.cls-13{fill:#d34925;}.cls-14{fill:#d26f35;}.cls-15{fill:#ce6735;}.cls-16{fill:#d06541;}.cls-17{fill:#d67c33;}.cls-18{fill:#d59042;}.cls-19{fill:#d68039;}.cls-20{fill:#c97e45;}.cls-21{fill:#d98537;}.cls-22{fill:#d16132;}.cls-23{fill:#d67530;}.cls-24{fill:#d77740;}.cls-25{fill:#d77b33;}.cls-26{fill:#d38a46;}.cls-27{fill:#da8435;}.cls-28{fill:#c55a38;}.cls-29{fill:#cf6637;}.cls-30{fill:#d06e38;}.cls-31{fill:#d46f35;}.cls-32{fill:#af473a;}.cls-33{fill:#cd5632;}.cls-34{fill:#cc5233;}.cls-35{fill:#cd5b32;}.cls-36{fill:#c74a31;}.cls-37{fill:#dc8432;}.cls-38{fill:#b95d45;}.cls-39{fill:#cf8046;}.cls-40{fill:#da8432;}.cls-41{fill:#c3483b;}.cls-42{fill:#c05842;}.cls-43{fill:#de782d;}.cls-44{fill:#c66e44;}.cls-45{fill:#c76340;}.cls-46{fill:#cf5e31;}.cls-47{fill:#d77434;}.cls-48{fill:#c04a3f;}.cls-49{fill:#cb4e33;}.cls-50{fill:#ce372c;}.cls-51{fill:#c7553b;}.cls-52{fill:#ce5f35;}.cls-53{fill:#cd6639;}.cls-54{fill:#d0472c;}.cls-55{fill:#cd5c33;}.cls-56{fill:#a84c3a;}.cls-57{fill:#ca2b2e;}.cls-58{fill:#cc3528;}.cls-59{fill:#d24926;}.cls-60{fill:#d8722c;}.cls-61{fill:#d67b33;}.cls-62{fill:#cb7c43;}.cls-63{fill:#df892c;}.cls-64{fill:#d96f2e;}.cls-65{fill:#d97e31;}.cls-66{fill:#d47b39;}.cls-67{fill:#db8830;}.cls-68{fill:#e28c28;}.cls-69{fill:#e09235;}.cls-70{fill:#d7612d;}.cls-71{fill:#ce3c2b;}.cls-72{fill:#c9412e;}.cls-73{fill:#c97842;}.cls-74{fill:#e07720;}.cls-75{fill:#db7429;}.cls-76{fill:#d66e29;}</style></defs><title>009Asset 2</title><g id="Layer_2" data-name="Layer 2"><g id="Layer_1-2" data-name="Layer 1"><path class="cls-1" d="M52.74,24.22v1.1c0,1.82-.08,2-1.78,2.58a8.74,8.74,0,0,1-6.19,0A6.89,6.89,0,0,1,40.54,20,6.66,6.66,0,0,1,47,14.24a7.6,7.6,0,0,1,5,1.21c.4.28.92.48.41,1.15s-.69,1.3-1.59.75a5.63,5.63,0,0,0-4-.87c-2.7.44-4.2,2.93-3.67,6A4.69,4.69,0,0,0,49.74,26c1.22-.48.51-1.5.61-2.27s-.66-.52-1-.48c-1.13.13-1.26-.47-1.2-1.37,0-.48.19-.63.65-.62,1.12,0,2.25,0,3.38,0,.51,0,.61.21.6.65C52.73,22.69,52.74,23.46,52.74,24.22Z"/><path class="cls-1" d="M57.81,20.25c0,1.68,0,3.35,0,5,0,.69.22.87.87.85,1.31,0,2.63,0,3.93,0,1,0,.78.6.8,1.15s0,1-.81,1c-2.21-.06-4.44,0-6.66,0-.59,0-.73-.21-.72-.76,0-4.12,0-8.23,0-12.35,0-.65.23-.77.82-.77,1.8,0,1.8,0,1.8,1.72Z"/><path class="cls-1" d="M106,21.23c0-2,0-4,0-6,0-.67.17-.86.85-.85,1.75,0,1.75,0,1.75,1.69,0,3,0,6.05,0,9.07,0,.74.17,1,1,1,1.31-.06,2.62,0,3.93,0,.85-.05.76.47.71,1s.36,1.21-.71,1.19c-2.22-.05-4.45-.05-6.67,0-.74,0-.82-.31-.81-.92,0-2,0-4.08,0-6.12Z"/><path class="cls-1" d="M159.09,26.51V15.22c0-.29,0-.57.42-.58s.45.26.45.56v2.95q0,4.59,0,9.18c0,.29.2.71-.19.87s-.7-.21-.94-.53l-8.49-11.33v2c0,2.95,0,5.9,0,8.85,0,.34.37,1-.39,1s-.44-.7-.44-1.06c0-3.79,0-7.57,0-11.36,0-.38-.3-1,.26-1.13s.74.36,1,.7l7.79,10.39Z"/><path class="cls-1" d="M123.64,27.33a4.92,4.92,0,0,0,2.2-1c.2-.19.42-.45.73-.12s0,.57-.24.77c-2.81,2.65-8,1.72-9.89-1.75-2-3.77-.54-8.69,3.09-10.15a6.58,6.58,0,0,1,6.36.58c.28.18.88.33.48.87s-.65,0-.93-.14a5.65,5.65,0,0,0-7,.5,5.78,5.78,0,0,0-1.29,1.94,7.23,7.23,0,0,0,0,5.52c.93,2.3,2.87,3.37,5.61,3.19A2.09,2.09,0,0,0,123.64,27.33Z"/><path class="cls-1" d="M144.43,21.53q0-3.06,0-6.12c0-.32-.17-.74.45-.77s.58.37.58.77c0,4,0,8,0,12,0,.37.14.84-.53.84s-.5-.48-.5-.83C144.43,25.46,144.43,23.49,144.43,21.53Z"/><path class="cls-1" d="M87.81,21.08a3.85,3.85,0,0,0,2.34-2.29c0-2.68-.8-3.85-3.33-4.27a46.06,46.06,0,0,0-6.11-.13c-.43,0-.44.26-.44.57V27.65c0,.38.07.61.53.6,2,0,4,.1,5.9-.09,3.07-.31,4.52-2.79,3.47-5.66A4.74,4.74,0,0,0,87.81,21.08Zm-5-2.74c0-2.07.56-2.41,3.08-1.89a1.73,1.73,0,0,1,1.61,2.05,1.67,1.67,0,0,1-1.37,1.72,13,13,0,0,1-2.92.13c-.36,0-.4-.22-.4-.49C82.87,19.35,82.86,18.84,82.86,18.34ZM86.7,26a12.1,12.1,0,0,1-3.45.19c-.36,0-.39-.23-.39-.5V24.2c0-2,0-2,2.07-2a9.46,9.46,0,0,1,1.41.1A1.69,1.69,0,0,1,88,23.88,1.87,1.87,0,0,1,86.7,26Z"/><path class="cls-1" d="M71.06,14.21a6.81,6.81,0,0,0-7.16,7A7,7,0,1,0,78,21.36,6.75,6.75,0,0,0,71.06,14.21ZM74,25a4.23,4.23,0,0,1-4.45,1c-2.29-.65-3.44-3.19-2.81-6.1a4.16,4.16,0,0,1,5.51-3.25.4.4,0,0,1,.45.17l.21.06a3.56,3.56,0,0,1,2.23,3A5.2,5.2,0,0,1,74,25Z"/><path class="cls-1" d="M99.37,14.94c-.42-1.06-1.32-.38-2-.53a.88.88,0,0,0-1.16.64c-1,2.62-2,5.2-3,7.8-.7,1.76-1.39,3.53-2.1,5.33,2.61.19,2.61.19,3.42-2.05a4.44,4.44,0,0,0,.22-.61c.09-.54.42-.67.93-.66a28.82,28.82,0,0,0,3.6,0c1.16-.11,1.64.32,2,1.4.74,2.22.32,2,2.88,2a3.41,3.41,0,0,0,.47-.06C102.82,23.71,101.09,19.33,99.37,14.94Zm-3.7,8,2.15-6,2.17,6Z"/><path class="cls-1" d="M138.35,15.48a6.54,6.54,0,0,0-6.86-.08c-2.34,1.31-3.09,3.54-3.12,6.09,0,3.13,1.46,5.5,3.94,6.47a6.39,6.39,0,0,0,8.9-5.11C141.72,19.74,140.61,16.78,138.35,15.48Zm1.91,6.07c0,4.53-3.61,7.17-7.59,5.58a4.5,4.5,0,0,1-2.42-2.1,7.28,7.28,0,0,1-.05-7,5.22,5.22,0,0,1,6-2.5,5.31,5.31,0,0,1,4.07,5.05C140.28,20.9,140.26,21.23,140.26,21.55Z"/><path class="cls-2" d="M24.33,6.06c1,.42,1.79,1,3,.58A1.92,1.92,0,0,1,29.55,8a2.16,2.16,0,0,1-.63,2.56,2.3,2.3,0,0,1-2.73.25c-.34-.19-.52-.62-1-.65l0-.37C25.12,8.46,23.89,8,23.12,7.25a.34.34,0,0,1,.26-.35c1.2.4,2.29.85,2.5,2.36.1.77,1.16,1.22,2,1a1.35,1.35,0,0,0,1-1.56A1.64,1.64,0,0,0,27,7.5a2.54,2.54,0,0,1-2.26-.36c-.32-.18-.63-.38-.58-.82A.41.41,0,0,1,24.33,6.06Z"/><path class="cls-3" d="M2.72,34.57a1.27,1.27,0,0,1,1.42,0A35.57,35.57,0,0,1,8.48,37.1a1,1,0,0,1,.09.45c-.28.52.1,1,.16,1.45a.61.61,0,0,1-.46,0,26.11,26.11,0,0,1-5.28-3A1,1,0,0,1,2.72,34.57Z"/><path class="cls-4" d="M12.36,36.47c-.41-.88-1.45-.91-2-1.53a.34.34,0,0,1-.07-.41c.44-.09.24-.81.79-.78,1.34.35,2.33,1.31,3.49,2a3.84,3.84,0,0,0,.61.45c.39.2.7.5.46.93s-.7.23-1.06.11c-.63-.2-1-.92-1.82-.78v.11Z"/><path class="cls-5" d="M.69,32.78A3.76,3.76,0,0,1,0,30.22C0,25,0,19.76,0,14.53A6.64,6.64,0,0,1,3.28,8.71c.2-.1.28,0,.34.17a.73.73,0,0,1-.33.62c-.63.55.16.36.27.52s-.17.47-.24.7h0A3.67,3.67,0,0,0,2.1,12.29c-.15.27-.15.77-.7.6-.56,0-.47.48-.54.79a7.37,7.37,0,0,0-.07,1.63c0,4.83,0,9.65,0,14.48a2.88,2.88,0,0,0,.71,2.42C1.64,33,1.08,32.75.69,32.78Z"/><path class="cls-6" d="M1.56,12.89c.36-.59.74-1.18,1.09-1.77a.67.67,0,0,1,.68-.4,6.88,6.88,0,0,0-1.59,4.83c.07,4.7,0,9.4,0,14.1A7.07,7.07,0,0,0,2,31.59C2.27,32.78,2,33.09.72,33a.78.78,0,0,1,0-.22l.86-.42A4.64,4.64,0,0,1,1,29.73c0-5.05,0-10.11,0-15.17C1,14,1,13.31,1.56,12.89Z"/><path class="cls-7" d="M16.67,2.63l-.21.2c-1.73.67-3.12,2-4.81,2.71a1.11,1.11,0,0,1-1,.27.94.94,0,0,1-.41-.45,1.06,1.06,0,0,1-.13-.58,1.33,1.33,0,0,1,.82-.46A47.05,47.05,0,0,0,15.28,2c.41-.22.82-.43,1.22-.68.22-.14.4-.48.73-.29s.18.38.17.59c0,.38-.25.67-.59.64C16.18,2.21,16.93,2.61,16.67,2.63Z"/><path class="cls-8" d="M16.67,2.63c.08-.17-.62-.31,0-.48s.62-.49.46-1c-.58.36-1,.93-1.75,1-.1-.08-.25-.1-.28-.25a13.51,13.51,0,0,1,3-1.69C18.62,0,19.2,0,19.44.63s-.16,1-.7,1.14C18,2,17.49,2.65,16.67,2.63Z"/><path class="cls-9" d="M3.53,9l-.25-.24A32.69,32.69,0,0,1,7.45,6.3c.29,0,.62-.06.54.41-.32.69-1.19.63-1.64,1.19a2.57,2.57,0,0,1,1.27-.57.38.38,0,0,1,.27.49l-1.32.84c-.56,0-1,.52-1.51.59C4.61,8.82,4,9.21,3.53,9Z"/><path class="cls-10" d="M11.61,5.44c1.43-.66,2.57-1.8,4-2.44a1.61,1.61,0,0,1,.83-.17l-.29.41a2.2,2.2,0,0,0-1.12.63L11.63,5.7a.15.15,0,0,1-.08-.16C11.57,5.48,11.59,5.44,11.61,5.44Z"/><path class="cls-10" d="M15.06,1.91l.28.25A24.79,24.79,0,0,1,11.8,4.1a1.61,1.61,0,0,1-.9.22A28.67,28.67,0,0,1,15.06,1.91Z"/><path class="cls-11" d="M7.9,6.54,7.45,6.3a12.76,12.76,0,0,1,2.63-1.52.48.48,0,0,1,.23.45C9.56,5.77,8.92,6.5,7.9,6.54Z"/><path class="cls-12" d="M13.14,31.07a9,9,0,0,1-3.67-2.29,6.09,6.09,0,0,1-.26-2c0-2.51,0-5,0-7.54,0-.64.1-1.25.87-1.25s.87.61.87,1.25c0,3,0,6,0,9,.16.4,0,.63-.36.35a1.47,1.47,0,0,1-.48-1.38c.09-2.54.1-5.09.07-7.54-.47,2.32-.21,4.75-.24,7.18A2,2,0,0,0,11.36,29a3.9,3.9,0,0,1,1.9,1.73A.43.43,0,0,1,13.14,31.07Z"/><path class="cls-13" d="M13.15,30.82c-1-.46-1.44-1.6-2.65-1.85-.7-.14-.81-1.09-.83-1.75-.05-2.11,0-4.22,0-6.32,0-.69.62-1.34.08-2.06-.09-.13.13-.24.27-.23s.37.14.38.42c0,.71.12,1.43.13,2.14,0,2.09.06,4.18-.14,6.27a1.26,1.26,0,0,0,.42,1c.13.13.14-.14.18-.25a3.36,3.36,0,0,0,1.29.72c.46.36.93.71,1.42,1,.09.11,0,0,.07.08.14.3.72.48.39.88S13.48,31,13.15,30.82Z"/><path class="cls-14" d="M19.93,33.25c1.14.51,1.81-.42,2.64-.87a2.26,2.26,0,0,1,1.58-.8.42.42,0,0,1,.24.56c-1.45,1.08-2.87,2.23-4.87,1.9-.43,0-.65-.17-.34-.62C19.39,33.2,19.69,33.35,19.93,33.25Z"/><path class="cls-15" d="M19.93,33.25c-.16.24-.42.19-.65.2-.65.33-.89-.36-1.22-.6-.85-.61-2-.77-2.58-1.8,0-.17.07-.31.29-.22A36.65,36.65,0,0,1,19.93,33.25Z"/><path class="cls-16" d="M13.59,30a2,2,0,0,1-1.32-1.07,7.24,7.24,0,0,1,2.25,1.22.28.28,0,0,1-.19.19A.79.79,0,0,1,13.59,30Z"/><path class="cls-16" d="M15.77,30.83l-.21.21c-.66.09-1.07-.15-1.11-.85l.07-.09A3.84,3.84,0,0,1,15.77,30.83Z"/><path class="cls-17" d="M29.58,5.66l-8.1-4.41C21.52,0,21.87-.22,23,.17a3.56,3.56,0,0,1,1.34.65l-.1.12c-.56.29-1.1-.24-1.71,0a21.91,21.91,0,0,0,4,2c0-.28-.67-.33-.37-.77a.55.55,0,0,1,.45,0,14.59,14.59,0,0,1,3,1.8.2.2,0,0,1-.06.25c-.14.16-.37-.1-.5.12.39.26.82.46.91,1C29.89,5.49,29.9,5.73,29.58,5.66Z"/><path class="cls-18" d="M29.56,4.13v-.2A43,43,0,0,1,35.8,7.44a1.5,1.5,0,0,1,.1,2.31c-1,1-2,2-3,3a.47.47,0,0,1-.21-.41,1.44,1.44,0,0,1,.68-1.05,13.23,13.23,0,0,0,1.77-1.74c.69-.73.66-1.14-.12-1.76a4.46,4.46,0,0,0-1.23-.67c-.27-.19-.46-.5-.81-.59a10,10,0,0,1-1.53-.86,1.57,1.57,0,0,0-.93-.55A.94.94,0,0,1,30.26,5c-.22-.23-.52-.39-.68-.68A.68.68,0,0,1,29.56,4.13Z"/><path class="cls-19" d="M32.84,12.23l0,.51-.9,1a6.48,6.48,0,0,1-1.76,1.74,2,2,0,0,1-2.4-.12c-.5-.34-1-.65-1.53-1,.49-.57,1-.2,1.41.06a10.17,10.17,0,0,0,.86.6c.54.23.9-.17,1.31-.37a4.33,4.33,0,0,0,.94-.82,2.52,2.52,0,0,0,.79-.77C32,12.8,32.19,12.2,32.84,12.23Z"/><path class="cls-20" d="M26.58,2.13l-.52,0h-.15A8.36,8.36,0,0,1,25,1.9c-.4-.23-1-.34-.75-1l.08-.05A10.87,10.87,0,0,1,26.58,2.13Z"/><path class="cls-21" d="M30.87,30a13.59,13.59,0,0,0,2,2c.54,1.49.21,2-1.68,2.86a.3.3,0,0,1-.29,0c-.15-.66.61-.71.78-1.14-1.09.11-1.85,1-2.93,1.18a.56.56,0,0,1-.31-.33,5.82,5.82,0,0,1,2-1.42c.69-.4.81-.77.18-1.3-.12-.56-.67-.82-.9-1.31-.11-.9-.59-1-1.35-.69-.22.1-.62.54-.76-.13a.86.86,0,0,0,0-.16c.76-.38,1.49-.91,2.4-.41a1.41,1.41,0,0,1,.68.64Z"/><path class="cls-6" d="M5.05,9.16c.52-.13.89-.69,1.52-.5l-1.36.91a8,8,0,0,0-1.89,1.15l.2-.68A1.2,1.2,0,0,1,5.05,9.16Z"/><path class="cls-22" d="M18,12.84l-2.61,1.34c-.64-.11-1-.61-1.31-1.08a36.24,36.24,0,0,1,3.88-2.21A6.72,6.72,0,0,0,19.49,10l.43-.22a1.19,1.19,0,0,1,1,.21c.29.62-.17,1-.51,1.32a.21.21,0,0,1-.17.05c-.47,0-.74.43-1.14.6Z"/><path class="cls-23" d="M20.37,11.34c-.14-.53.58-.77.44-1.3a3.26,3.26,0,0,1,1.08,0h0c.45.64,1.24.78,1.83,1.2a9.24,9.24,0,0,0,1.48.73h0a10.82,10.82,0,0,0,2.4,1.49c.23.25.66.26.78.65s.25.38.4.56c.29.37.19.62-.31.62-.75-.25-1.2-1.24-2.19-.87h0A11.46,11.46,0,0,0,23,12.52l-.43-.25A3,3,0,0,0,21,11.38Z"/><path class="cls-19" d="M23,12.52A10.29,10.29,0,0,1,26.31,14c.05,0,0,.25,0,.38A23,23,0,0,1,23,12.52Z"/><path class="cls-24" d="M21,11.38a1.33,1.33,0,0,1,1.57.89A5.31,5.31,0,0,1,21,11.38Z"/><path class="cls-24" d="M19.06,12c.34-.29.51-.89,1.14-.6A1.58,1.58,0,0,1,19.06,12Z"/><path class="cls-25" d="M25,41.76l1.56-1A3.58,3.58,0,0,1,27.75,40a7.41,7.41,0,0,1,1.53-.43.92.92,0,0,1,.73.3.58.58,0,0,1,.12.29c0,.29-.2.46-.35.67l-1.34.91A11.67,11.67,0,0,0,26.25,43l-2.16,1.09a.36.36,0,0,1-.08-.28,5,5,0,0,1,1.74-1.59C25.51,42.05,25.11,42.1,25,41.76Z"/><path class="cls-26" d="M29.34,39.79l-1.6.4c.23-.7,1-.82,1.48-1.14a18,18,0,0,1,3-1.64c1.58-.27,1.71-1.67,2.16-2.81A2.47,2.47,0,0,1,37,33.79a2.35,2.35,0,0,1,1.54,2.68,2.27,2.27,0,0,1-2.64,1.73,2.63,2.63,0,0,0-2.22.47c-1,.58-2,1.09-3,1.63a.35.35,0,0,1-.14-.28c.06-.38.36-.53.65-.66,1.05-.48,1.95-1.2,2.94-1.77.74-.45,1.49-.14,2.24-.07a1.08,1.08,0,0,0,1.23-.73,1.84,1.84,0,0,0,0-1.4,1.24,1.24,0,0,0-.26-.61,1.7,1.7,0,0,0-.19-.19,1,1,0,0,0-.79-.21,1.73,1.73,0,0,0-1.78,1.71,1.54,1.54,0,0,1-1.21,1.48c-.56.31-1.13.6-1.7.89a12.39,12.39,0,0,0-1.3.82,1.13,1.13,0,0,1-.34.23C29.84,39.63,29.54,39.58,29.34,39.79Z"/><path class="cls-27" d="M30.65,40l0,.28a2,2,0,0,1-.9.54l.22-.61C30.18,40.06,30.35,39.86,30.65,40Z"/><path class="cls-28" d="M8.26,39.15a1.15,1.15,0,0,0,0-.19l.52,0a6.19,6.19,0,0,1,3.4,2,.33.33,0,0,1-.16.25Z"/><path class="cls-28" d="M15.78,43.3l-1.52-.71L12,41.15l.07-.06a.62.62,0,0,1,.28-.14A9.57,9.57,0,0,1,16,43C16.05,43.22,16,43.37,15.78,43.3Z"/><path class="cls-29" d="M15.78,43.3l.22-.22c.67-.35,1,.6,1.66.41.13.06.08-.22.06-.08-.71-.11-1-.48-.63-1.17.75.23,1.34.86,2.18.86l.22.2c.46.43,1.16,0,1.61.45.11.74-.56.63-.92.87a3.79,3.79,0,0,1-2.28-.2A5.7,5.7,0,0,1,15.78,43.3Z"/><path class="cls-30" d="M17.9,44.42c.75-.1,1.51.39,2.25,0a17.62,17.62,0,0,0,2.6-.53,1.55,1.55,0,0,1,1.33.09s0,.11,0,.16A6.46,6.46,0,0,1,17.9,44.42Z"/><path class="cls-31" d="M23.21,7.21a2.52,2.52,0,0,1-1.11-.58c-.19-.36-.59-.32-.88-.47-.34-.73-.91-.89-1.78-.56-.61.24-1.12.8-1.88.63a.51.51,0,0,1-.28-.36c2.39-1.76,4.33-1.71,7,.19l0,.27c-.1.09-.25.21-.37.16-.68-.34-.36.3-.5.49Z"/><path class="cls-32" d="M5.11,31a4,4,0,0,1-.54-2.19c0-4.25,0-8.51,0-12.76a5.38,5.38,0,0,1,1.83-4l1.75-.91c.42,0,.23.25.16.4a2.22,2.22,0,0,1-.93.81,6.13,6.13,0,0,0-1.1.72,3.71,3.71,0,0,0-.92,1.71c0,.21,0,.43,0,.65a7.36,7.36,0,0,0-.14,1.24V29.16a3.57,3.57,0,0,1,.1.35c0,.45.21.87.29,1.32C5.51,31.09,5.39,31.23,5.11,31Z"/><path class="cls-33" d="M14,13.1c.64.12.88.71,1.31,1.08h0a4.11,4.11,0,0,0-1.2.56L12.06,16a1.25,1.25,0,0,1-.92.28c-.32-.07-.66-.15-.75-.53s.18-.51.45-.65a.94.94,0,0,0,.34-.26A16.48,16.48,0,0,1,14,13.1Z"/><path class="cls-34" d="M12.06,10.71A11.58,11.58,0,0,1,9.87,12c-.75-.48-.22-1.12-.22-1.7A12.33,12.33,0,0,1,12,8.92c.88-.1.77.55.82,1.08C12.58,10.26,12.27,10.43,12.06,10.71Z"/><path class="cls-35" d="M12.71,10c-.19-.41-.16-1-.72-1.12a18.13,18.13,0,0,1,3.08-1.78.34.34,0,0,1,.19.22c0,.27.06.43.19.37.4-.17.78-.43,1.23-.14a.33.33,0,0,1,0,.29,32.36,32.36,0,0,0-2.86,1.77h0C13.45,9.74,13.17,10.13,12.71,10Z"/><path class="cls-36" d="M9.65,10.26c.5.51-.13,1.17.22,1.7l-.52.45-.73.28a2.13,2.13,0,0,1-.83.13.74.74,0,0,1-.55-.6c.25-.4,1-.4.89-1.08A4.07,4.07,0,0,1,9.65,10.26Z"/><path class="cls-37" d="M29.58,5.66a.46.46,0,0,0,.2-.43c.4-.29.68,0,1,.19a38.39,38.39,0,0,1,3.57,2.4c.82.51.53,1.45-.58,2.06a.31.31,0,0,1-.19-.26c.78-1.08.77-1.07-.4-1.78Z"/><path class="cls-19" d="M28.25,14.2l-.66-.66a.21.21,0,0,1,.3,0,1.52,1.52,0,0,0,2.36-.44A32.92,32.92,0,0,1,33,10.19a.51.51,0,0,1,.15.28c-1.09,1.57-2.09,3.22-3.9,4.11A1.11,1.11,0,0,1,28.25,14.2Z"/><path class="cls-38" d="M11.18,14.82c0,.44-1,.48-.45,1.08s1,.1,1.45-.17a7.3,7.3,0,0,1,2.06-1.1.16.16,0,0,1,.27,0l-.76.61-1.23.66a5.45,5.45,0,0,1-.77.37c-.61.21-1.33.28-1.58-.42S10.64,15,11.18,14.82Z"/><path class="cls-35" d="M17.28,5.87l.25.23a2.45,2.45,0,0,1-1.59,1.42.57.57,0,0,1-.8-.3l-.07-.08A9.53,9.53,0,0,1,17.28,5.87Z"/><path class="cls-39" d="M27.89,13.51l-.3,0A4.06,4.06,0,0,1,25.2,12,13,13,0,0,1,27.89,13.51Z"/><path class="cls-24" d="M21.89,10a.89.89,0,0,1-1.08,0,1.45,1.45,0,0,1-.89-.23A1.74,1.74,0,0,1,21.89,10Z"/><path class="cls-24" d="M23.65,11.35C23,11,22.13,11,21.9,10.05a6.19,6.19,0,0,1,1.78,1C23.79,11.17,23.78,11.27,23.65,11.35Z"/><path class="cls-39" d="M23.65,11.35l0-.28a3.85,3.85,0,0,1,1.53.91C24.56,12.11,24.14,11.64,23.65,11.35Z"/><path class="cls-24" d="M19.49,10c-.32.66-.94.77-1.58.86A3.24,3.24,0,0,1,19.49,10Z"/><path class="cls-40" d="M33.06,10.48l0-.29.53-.57.15.2Q33.8,10.56,33.06,10.48Z"/><path class="cls-41" d="M7.68,12.67l.94,0c-1.85.94-2.43,2.46-2.35,4.5.12,3.45.11,6.92,0,10.38-.06,2,.45,3.57,2.32,4.51a.24.24,0,0,1,0,.32.63.63,0,0,1-.5.07,4,4,0,0,1-2.52-3.29c.14-3.91,0-7.82.06-11.73,0-.69,0-1.38,0-2.07C5.9,14.16,6.22,13,7.68,12.67Z"/><path class="cls-42" d="M8.55,32.36l0-.28L12,33.92a3.61,3.61,0,0,0,1.37.81l2,1.32c-.4.35-.65,0-.95-.19-1.2-.59-2.23-1.49-3.5-2C10,33.69,9,33.45,8.55,32.36Z"/><path class="cls-43" d="M23.43,7c.06-.35-.32-.37-.45-.57.43-.34.89-.07,1.32-.08a2,2,0,0,0,2.42.9A1.72,1.72,0,0,1,28.84,8,1.51,1.51,0,0,1,29,9.85a1.35,1.35,0,0,1-1.51.76c-.65,0-1.72-.11-1.75-.95C25.64,8.07,24.39,7.7,23.43,7Z"/><path class="cls-44" d="M16.65,7.85a1.48,1.48,0,0,1,0-.21C18,6.16,19.86,5.53,21.24,6.1c.4,0,.77,0,.86.53a3.88,3.88,0,0,0-3.85.57c-.5.34-1.07.58-1.6.87a.14.14,0,0,1-.06-.15S16.63,7.85,16.65,7.85Z"/><path class="cls-45" d="M16.65,7.85v.22L15.34,9l-1.51.68A6.64,6.64,0,0,1,16.65,7.85Z"/><path class="cls-45" d="M12.71,10c.38-.14.69-.46,1.13-.41a5.42,5.42,0,0,1-1.78,1.08A.62.62,0,0,1,12.71,10Z"/><path class="cls-46" d="M14.45,30.19a2.19,2.19,0,0,0,1.11.85,14.18,14.18,0,0,0,2.9,1.67c.41.14.3.77.82.74-.11.24-.17.45.21.44.1.26,0,.41-.24.53a.51.51,0,0,1-.56-.22c-1-.9-2.3-1.13-3.39-1.81h0A2.74,2.74,0,0,0,14,31.7c-.35-.13-.73-.23-.89-.63v-.25c.28-.25.62.1.92-.09-.19-.25-.52-.41-.48-.78Z"/><path class="cls-16" d="M14,31.7c.65-.18,1,.22,1.28.7l-1.21-.52A1.34,1.34,0,0,0,14,31.7Z"/><path class="cls-22" d="M14.51,14.65l-.27,0c.25-.41.56-.69,1.08-.44A1.24,1.24,0,0,1,14.51,14.65Z"/><path class="cls-15" d="M15.3,32.39c1.18.56,2.66.54,3.54,1.72-.34.08-.61-.15-.92-.2L16,33l-.4-.22Z"/><path class="cls-47" d="M24.08,44c-1.33,0-2.56.87-3.93.44.18-.37.88,0,.88-.66.34-.39.84-.32,1.27-.43s.94-.14,1.14-.66A5.2,5.2,0,0,1,25,41.76l.52.14c.26.05.61-.1.7.32.12.6-.4.13-.58.33A20,20,0,0,1,24.08,44Z"/><path class="cls-30" d="M23.44,42.64c.14.77-.45.82-.92.85a9.26,9.26,0,0,0-1.49.24c-.53-.08-1.18.25-1.54-.43A7.66,7.66,0,0,0,23.44,42.64Z"/><path class="cls-48" d="M5.11,31l.38-.21c.28-.09.39.13.47.31a2.77,2.77,0,0,0,1.59,1.47,14.7,14.7,0,0,1,2.76,1.93v.4A24.37,24.37,0,0,1,6,32.36,2.9,2.9,0,0,1,5.11,31Z"/><path class="cls-49" d="M12.27,41.1h-.19A5.22,5.22,0,0,0,10,39.63a4.47,4.47,0,0,1-1.21-.71c-.66-.27-.6-.77-.43-1.31a10.2,10.2,0,0,1,4.43,2.56C12.29,40.32,12.71,40.94,12.27,41.1Z"/><path class="cls-50" d="M7.83,37.62c-.09.36-.31.32-.58.21-.89-.38-1.66-1-2.58-1.33-.32-.13-.57-.48-1-.56a.64.64,0,0,1-.53-.9c.23-.5.54,0,.81.07,1.39.34,2.13,1.82,3.57,2.1A.42.42,0,0,1,7.83,37.62Z"/><path class="cls-51" d="M12.71,40.23a19.57,19.57,0,0,0-4.37-2.62v-.43L13.53,40a4.79,4.79,0,0,0,1.54.9l.91.66c0,.2-.13.26-.3.28A11.85,11.85,0,0,1,12.71,40.23Z"/><path class="cls-52" d="M14.46,35.86l.95.19a1.36,1.36,0,0,1,.81.46,1.54,1.54,0,0,0,.68.41h0a6.77,6.77,0,0,0,1.78,1.17c.37.23.68.5.44,1s-.62.32-.95.17-.87-.34-1.31-.5a1.15,1.15,0,0,1-.66-.39,3.42,3.42,0,0,0-1.14-.69l-2.35-1.21c.48-.45.89-.06,1.27.14.11.06.21.22.37.31.35.2.87.44,1.05.16.33-.51-.32-.54-.6-.75A2,2,0,0,1,14.46,35.86Z"/><path class="cls-53" d="M16.86,38.71a3.27,3.27,0,0,1,1.48.3c.24.07.51.24.65-.1a.43.43,0,0,0-.32-.6c-.55-.1-.76-.84-1.47-.7-.24,0-.31-.41-.3-.7A16.36,16.36,0,0,1,19,38a.77.77,0,0,1,.38,1.17.78.78,0,0,1-1.13.34A14.3,14.3,0,0,1,16.86,38.71Z"/><path class="cls-53" d="M15.06,37.63a1.14,1.14,0,0,1,1.14.69A2.49,2.49,0,0,1,15.06,37.63Z"/><path class="cls-53" d="M16.9,36.92c-.33,0-.66.06-.68-.41A.87.87,0,0,1,16.9,36.92Z"/><path class="cls-54" d="M10.31,34.54a13.9,13.9,0,0,1-2.85-1.75c.11-.32.27-.55.66-.44h.43c.65.76,1.67.92,2.41,1.53C10.67,34,10.91,34.72,10.31,34.54Z"/><path class="cls-55" d="M12.71,40.23a13.94,13.94,0,0,1,3.06,1.54c.43,0,.59.71,1.12.37l.2.1c-.09.88.53,1,1.25,1.09-1,.94-1.61,0-2.34-.25-1.34-.48-2.31-1.65-3.73-2C12.44,40.82,12.15,40.31,12.71,40.23Z"/><path class="cls-29" d="M16.89,42.14c-.66.75-.76-.2-1.12-.37L16,41.6A1.93,1.93,0,0,1,16.89,42.14Z"/><path class="cls-11" d="M11.61,5.44l0,.26-.71.56-1.18.52a5.62,5.62,0,0,0-.88.28c-.51-.26-.44-.61,0-.74s1-.62,1.66-.66A1.65,1.65,0,0,0,11.61,5.44Z"/><path class="cls-11" d="M7.89,7.82l-.21-.4a.66.66,0,0,1,.9-.27.23.23,0,0,1,0,.31C8.39,7.66,8.21,7.87,7.89,7.82Z"/><path class="cls-56" d="M8.57,7.46l0-.27c0-.19,0-.28.23-.22a1.5,1.5,0,0,1,1-.19Z"/><path class="cls-57" d="M1.56,12.89a5.79,5.79,0,0,0-.23,1.71c0,4.91,0,9.82,0,14.73,0,1,.13,2,.2,3a.74.74,0,0,1-.89-.71,10.58,10.58,0,0,1-.21-1.39q0-7.95,0-15.91a7.75,7.75,0,0,1,.26-1.6c.06-.33.26-.69.63-.61S1.5,12.63,1.56,12.89Z"/><path class="cls-58" d="M5.05,9.16A4.59,4.59,0,0,0,3.52,10c-.35-.12-.56.68-.88.22s.23-.61.41-.9A2,2,0,0,1,3.53,9C4.05,8.92,4.67,8.19,5.05,9.16Z"/><path class="cls-59" d="M8.77,7a2.39,2.39,0,0,1-.23.22l-.86.23c-.7.19-1.16,1.08-2.1.75C6.2,7.33,7.31,7.3,7.9,6.54c.85-.36,1.41-1.23,2.41-1.31a.43.43,0,0,1,.21.43,2,2,0,0,1-1.37.77C8.84,6.44,8.55,6.55,8.77,7Z"/><path class="cls-60" d="M19.28,34.32l.21-.43c.06,0,.12-.15.16-.14,1.74.4,2.92-.76,4.25-1.51a1.76,1.76,0,0,1,.41-.1,4.16,4.16,0,0,1,1.74-1.34c.48-.29,1,0,1,.66-.31.46-.85.58-1.29.86a1.64,1.64,0,0,0-.92.45,12.45,12.45,0,0,1-2.89,1.73,2,2,0,0,1-1.18.27,10.83,10.83,0,0,1-1.26-.26A.48.48,0,0,1,19.28,34.32Z"/><path class="cls-61" d="M26.93,31.48c-.31-.71-.72-.91-1.19-.16-.34.56-1.09.31-1.43.82a.48.48,0,0,0-.23-.45,21.59,21.59,0,0,1,3.48-2c.43.3.69-.17,1-.25,1.09-.27,1.25-.16,1.12,1h-.32c-.32,0-.67,0-.84.37A3.71,3.71,0,0,1,26.93,31.48Z"/><path class="cls-62" d="M25.79,38a2.53,2.53,0,0,0-1.08.64,3.13,3.13,0,0,0-1.21.7c-.66.18-1.46,1-1.93-.08s.67-1.13,1.21-1.56a1.68,1.68,0,0,1,.39-.16l.12.1c.13.65-.59.71-.86,1.29.62-.21,1.06-.54,1.55-.73,1-.52,2-1.07,2.92-1.68a36.3,36.3,0,0,1,3.37-1.8.45.45,0,0,1,.6,0l.28,0-2.69,1.7A15,15,0,0,0,25.79,38Z"/><path class="cls-63" d="M33.06,10.48a1.45,1.45,0,0,0,.66-.66c1.2-1.23,1.12-1.37-.24-2.23-1-.64-1.93-1.38-2.94-2-.24-.15-.44-.39-.76-.37-.13-.6-1.09-.37-1.09-1.1.3-.13.53.19.82.13.3.2.52.53.92.53a1.48,1.48,0,0,1,0,.21,2.48,2.48,0,0,1,1.09.45l1.53.87c.27.16.26.61.66.66a2.3,2.3,0,0,1,2,1.09,1,1,0,0,1-.21,1.52c-.92.84-1.77,1.76-2.66,2.64l-1.1,1.09c-.3.2-.57.45-.87.66a1.35,1.35,0,0,1-.87.87c-.4.13-.83.29-.66-.44C30.87,13.38,31.82,11.79,33.06,10.48Z"/><path class="cls-64" d="M24.27.87c.08.53.53.66.92.86a3.07,3.07,0,0,0,.87.43h0c.2.47,1.35.4.9,1.06s-.76-.47-1.25-.47c-1.1,0-1.79-.94-2.75-1.24-.45-.13-1-.4-.87-.8.13-.57.66-.14,1-.09S23.88.79,24.27.87Z"/><path class="cls-37" d="M29.56,4.35a1.4,1.4,0,0,1-.87-.22c0-.16-.27-.49.19-.3.23.09.4.31.68.3h0a.11.11,0,0,1,.06.14S29.58,4.35,29.56,4.35Z"/><path class="cls-37" d="M31.53,5.45A2,2,0,0,1,30.44,5C31,4.78,31.28,5,31.53,5.45Z"/><path class="cls-37" d="M33.72,7c-.59.14-.52-.36-.66-.66A.62.62,0,0,1,33.72,7Z"/><path class="cls-17" d="M29.56,4.35V4.14l.87.65C29.94,5.06,29.76,4.68,29.56,4.35Z"/><path class="cls-40" d="M29.34,14.41c0,.45.34.45.66.44-.47.31-.86.87-1.53.44.3-.17.52-.38.06-.59-.26-.12-.48-.16-.28-.5Z"/><path class="cls-40" d="M30.87,14a1,1,0,0,1,.87-.66A1,1,0,0,1,30.87,14Z"/><path class="cls-17" d="M26.06,2.16c-.37,0-.71,0-.87-.43A1.18,1.18,0,0,1,26.06,2.16Z"/><path class="cls-65" d="M30.87,34.76l-3.93,2c-.31,0-.53-.14-.56-.48a3.63,3.63,0,0,1,2.3-1.49,23.57,23.57,0,0,1,2.61-1.31c.33-.1.64-.39,1,.07Z"/><path class="cls-66" d="M28.68,34.76c-.69.57-1.63.78-2.18,1.53-.77.9-1.95,1.07-2.91,1.63a.41.41,0,0,1-.34-.28l-.08-.08a56.38,56.38,0,0,1,5.29-3Z"/><path class="cls-67" d="M30.65,40l-.65.21V40c-.05-.22-.25-.43,0-.65l.22-.22c.49-.21,1-.33,1.31-.87l1.75-.88c.3.12.65.16.87.44A34.17,34.17,0,0,1,30.65,40Z"/><path class="cls-27" d="M30,39.36c-.08.22.25.43,0,.65l-.66-.22A.67.67,0,0,1,30,39.36Z"/><path class="cls-68" d="M34.15,37.83c-.34,0-.8.14-.87-.44a1.6,1.6,0,0,0,1.13-1.53c.09-1.2.79-1.66,2.15-1.75.22.28.63.2.88.43h0c.16.2.21.48.43.65a2.18,2.18,0,0,1,0,1.75,6.46,6.46,0,0,1-1.3.88C35.76,37.89,35,37.29,34.15,37.83Z"/><path class="cls-69" d="M36.56,37.83c.38-.37.7-.84,1.3-.88C37.57,37.44,37.23,37.88,36.56,37.83Z"/><path class="cls-27" d="M31.53,38.27c-.13.75-.72.82-1.31.87Z"/><path class="cls-69" d="M37.44,34.54c-.35,0-.81.15-.88-.43A.78.78,0,0,1,37.44,34.54Z"/><path class="cls-69" d="M37.87,35.2c-.44,0-.44-.34-.43-.65A.64.64,0,0,1,37.87,35.2Z"/><path class="cls-70" d="M21.24,6.1c-1.82-.36-3.08,1-4.58,1.54-.62-.11-1.06.49-1.76.41,0-.3.35-.52.24-.83A1,1,0,0,0,16.47,7c.3-.38.76-.51,1.06-.87a.68.68,0,0,0,.32,0C19,5.5,20.11,4.69,21.56,5.5,21.59,5.64,20.88,5.69,21.24,6.1Z"/><path class="cls-71" d="M7.68,12.67a3.92,3.92,0,0,0-1.75,2.4c-.35.55-.11,1.13-.11,1.7V27.11a11.34,11.34,0,0,1-.25,1.83c-.05.28-.12.59-.52.58-.32-.29-.21-.68-.21-1V16.39c.28-.33.47-.67.21-1.1v-.66a12.07,12.07,0,0,0,1.09-1.74,2.08,2.08,0,0,1,1.09-.67A.78.78,0,0,1,7.68,12.67Z"/><path class="cls-72" d="M5.05,29.52a9.26,9.26,0,0,0,.67-3c0-3.13,0-6.26,0-9.39,0-.67-.6-1.43.2-2V28.14a2.39,2.39,0,0,1-.22,1.37c-.15.28-.34.45-.65.22Z"/><path class="cls-71" d="M5.06,29.73l.65-.22a6.72,6.72,0,0,0,2.41,2.84l-.66.44c-1.11-.19-1.54-1.08-2-2A1.28,1.28,0,0,1,5.06,29.73Z"/><path class="cls-72" d="M6.15,12.89a2.61,2.61,0,0,1-1.09,1.74A3.88,3.88,0,0,1,6.15,12.89Z"/><path class="cls-72" d="M5.05,15.29c.31.44.46.85-.21,1.1Z"/><path class="cls-73" d="M26.93,31.48a6.87,6.87,0,0,0,1.54-.87.33.33,0,0,1,.5,0l-.75.62c-1.74,1-3.55,1.85-5.19,3a3.7,3.7,0,0,1-5.11-.31,1.31,1.31,0,0,1,.92.2.45.45,0,0,0,.44.21h.21a1.66,1.66,0,0,0,1.36.34,1.33,1.33,0,0,0,1-.35,10.69,10.69,0,0,0,2.85-1.74c.25-.23.62-.21.87-.44Z"/><path class="cls-21" d="M29,30.63l-.5,0c.21-.52.55-.41.92-.19Z"/><path class="cls-74" d="M27.79,9.12c0,.49-.24.83-.64.82s-.39-.5-.47-.82c-.12-.51.34-.68.6-.71C27.81,8.36,27.48,9,27.79,9.12Z"/><path class="cls-15" d="M20.81,34.76a1,1,0,0,1-1.32-.43l1.1.21C20.65,34.63,20.79,34.63,20.81,34.76Z"/><path class="cls-14" d="M20.81,34.76l-.22-.22a3.68,3.68,0,0,0,1.31-.22C21.68,34.83,21.23,34.76,20.81,34.76Z"/><path class="cls-61" d="M25.62,32.14a.77.77,0,0,1-.87.44C24.91,32.18,25.25,32.12,25.62,32.14Z"/><path class="cls-75" d="M23.43,37.83a18.36,18.36,0,0,1,3.07-1.54l.44.44a18.94,18.94,0,0,1-2.85,1.75C23.8,38.33,23.31,38.39,23.43,37.83Z"/><path class="cls-76" d="M23.43,37.83l.66.65a4.36,4.36,0,0,0-1.32.72.44.44,0,0,1-.74-.11c-.18-.3.08-.44.28-.6s.79-.38.94-.85Z"/><path class="cls-1" d="M73.47,34.89v2.56h-.41V31.58h1.4a2.59,2.59,0,0,1,1.61.4,1.45,1.45,0,0,1,.53,1.22,1.62,1.62,0,0,1-.31,1,1.79,1.79,0,0,1-1,.59l1.59,2.67h-.49l-1.51-2.56Zm0-.35h1.12a1.77,1.77,0,0,0,1.15-.33,1.17,1.17,0,0,0,.41-1,1.15,1.15,0,0,0-.4-1,2.2,2.2,0,0,0-1.31-.3h-1Z"/><path class="cls-1" d="M83.63,37.45H80.42V31.58h3.21V32h-2.8v2.22h2.64v.37H80.83v2.52h2.8Z"/><path class="cls-1" d="M91,33.27a1.55,1.55,0,0,1-.58,1.3,2.6,2.6,0,0,1-1.64.45h-.9v2.43h-.41V31.58h1.43C90.26,31.58,91,32.14,91,33.27Zm-3.12,1.4h.8a2.47,2.47,0,0,0,1.44-.33,1.23,1.23,0,0,0,.44-1.06,1.18,1.18,0,0,0-.42-1A2.08,2.08,0,0,0,88.81,32h-1Z"/><path class="cls-1" d="M99.64,34.51a3.26,3.26,0,0,1-.7,2.21,2.39,2.39,0,0,1-1.92.81,2.42,2.42,0,0,1-1.93-.81,3.32,3.32,0,0,1-.7-2.22,3.24,3.24,0,0,1,.71-2.21,2.7,2.7,0,0,1,3.85,0A3.29,3.29,0,0,1,99.64,34.51Zm-4.8,0a3,3,0,0,0,.56,2,2.25,2.25,0,0,0,3.24,0,3,3,0,0,0,.56-2,3,3,0,0,0-.56-1.95A2,2,0,0,0,97,31.88a2,2,0,0,0-1.61.69A2.93,2.93,0,0,0,94.84,34.51Z"/><path class="cls-1" d="M103.87,34.89v2.56h-.41V31.58h1.4a2.59,2.59,0,0,1,1.61.4A1.45,1.45,0,0,1,107,33.2a1.57,1.57,0,0,1-.32,1,1.72,1.72,0,0,1-.94.59l1.59,2.67h-.49l-1.51-2.56Zm0-.35H105a1.77,1.77,0,0,0,1.15-.33,1.17,1.17,0,0,0,.41-1,1.15,1.15,0,0,0-.4-1,2.22,2.22,0,0,0-1.31-.3h-1Z"/><path class="cls-1" d="M112.35,37.45h-.42V32H110v-.38h4.23V32h-1.91Z"/></g></g></svg>