<svg xmlns="http://www.w3.org/2000/svg" xmlns:xlink="http://www.w3.org/1999/xlink" width="2586.915" height="2579.969" viewBox="0 0 2586.915 2579.969"><defs><clipPath id="a"><path d="M1477.693,149.317l45.788,1311.2L158.313,1508.19l-45.788-1311.2Z" transform="matrix(0.857, 0.515, -0.515, 0.857, 2921.393, 1059.808)" fill="#353746"/></clipPath><linearGradient id="b" x1="0.729" y1="0.481" x2="1.402" y2="1.815" gradientUnits="objectBoundingBox"><stop offset="0" stop-color="#3645fd" stop-opacity="0.502"/><stop offset="1"/></linearGradient><linearGradient id="l" x1="-0.018" y1="0.717" x2="0.539" y2="1.928" gradientUnits="objectBoundingBox"><stop offset="0" stop-color="#525fff" stop-opacity="0.608"/><stop offset="1" stop-color="#0be3ff" stop-opacity="0"/></linearGradient></defs><g transform="matrix(0.875, -0.485, 0.485, 0.875, -2564.036, 922.578)"><g clip-path="url(#a)"><rect width="2056.837" height="2167.167" transform="translate(2424.98 807.589)" opacity="0.5" fill="url(#b)"/><rect width="2371.266" height="2426.733" transform="translate(2491.141 581.514)" opacity="0.7" fill="url(#b)"/><rect width="1403.838" height="1352.593" transform="translate(2285.251 736.418)" opacity="0.5" fill="url(#b)"/><rect width="1389.04" height="1466.211" transform="translate(2131.671 2088.917)" opacity="0.5" fill="url(#b)"/><rect width="1703.265" height="1699.853" transform="translate(2084.98 877.696)" opacity="0.5" fill="url(#b)"/><rect width="1661.534" height="1564.1" transform="translate(3240.314 763.745)" opacity="0.5" fill="url(#b)"/><rect width="754.599" height="622.565" transform="translate(2969.583 796.508)" opacity="0.5" fill="url(#b)"/><rect width="804.325" height="663.248" transform="translate(3645.177 777.489)" opacity="0.5" fill="url(#b)"/><rect width="978.974" height="1012.133" transform="translate(2078.224 2291.479)" opacity="0.5" fill="url(#b)"/><rect width="940.637" height="1079.905" transform="translate(2175.262 842.026)" opacity="0.7" fill="url(#b)"/><path d="M0,0H1302.556V1117.468H0Z" transform="translate(2868.779 657.488)" opacity="0.547" fill="url(#l)"/></g></g></svg>