<svg xmlns="http://www.w3.org/2000/svg" width="24" height="24" viewBox="0 0 24 24"><rect width="24" height="24" transform="translate(0 0)" fill="none"/><g transform="translate(3.089 3.081)"><path d="M17.822,8.911a2.477,2.477,0,0,0-2.1-2.482l-.191-.509a2.593,2.593,0,0,0-.255-3.246,2.593,2.593,0,0,0-3.246-.255l-.509-.191A2.7,2.7,0,0,0,8.911,0,2.477,2.477,0,0,0,6.429,2.1l-.573.255a2.54,2.54,0,0,0-4.01,2.037,3.027,3.027,0,0,0,.446,1.464L2.1,6.365A2.593,2.593,0,0,0,0,8.911H0a2.477,2.477,0,0,0,2.1,2.482l.191.509a2.593,2.593,0,0,0,.255,3.246,2.593,2.593,0,0,0,3.246.255l.509.191a2.526,2.526,0,0,0,2.482,2.1,2.477,2.477,0,0,0,2.482-2.1l.509-.191a2.593,2.593,0,0,0,3.246-.255,2.513,2.513,0,0,0,.764-1.782A3.027,3.027,0,0,0,15.34,11.9l.191-.509a2.487,2.487,0,0,0,2.291-2.482Zm-2.546,1.273a.557.557,0,0,0-.573.382l-.509,1.209a.581.581,0,0,0,.127.7,1.231,1.231,0,0,1,0,1.782,1.23,1.23,0,0,1-1.782,0,.581.581,0,0,0-.7-.127l-1.209.509a.663.663,0,0,0-.446.637,1.273,1.273,0,1,1-2.546,0,.557.557,0,0,0-.382-.573l-1.209-.509a.581.581,0,0,0-.7.127,1.26,1.26,0,1,1-1.782-1.782.581.581,0,0,0,.127-.7L3.183,10.63a.663.663,0,0,0-.637-.446A1.277,1.277,0,0,1,1.273,8.911h0A1.277,1.277,0,0,1,2.546,7.638a.557.557,0,0,0,.573-.382l.509-1.209a.581.581,0,0,0-.127-.7,1.3,1.3,0,0,1-.382-.955A1.257,1.257,0,0,1,3.5,3.5a1.231,1.231,0,0,1,1.782,0,.581.581,0,0,0,.7.127l1.209-.509a.545.545,0,0,0,.446-.573,1.273,1.273,0,0,1,2.546,0,.557.557,0,0,0,.382.573l1.273.509a.581.581,0,0,0,.7-.127,1.26,1.26,0,1,1,1.782,1.782.581.581,0,0,0-.127.7L14.7,7.193a.612.612,0,0,0,.573.382,1.277,1.277,0,0,1,1.273,1.273h0A1.292,1.292,0,0,1,15.276,10.184Z" fill="#fff"/><path d="M12.183,9a3.183,3.183,0,0,0,0,6.365.637.637,0,0,0,0-1.273,1.91,1.91,0,1,1,1.91-1.91,1.923,1.923,0,0,1-.318,1.018.644.644,0,1,0,1.082.7,3.2,3.2,0,0,0,.509-1.719A3.152,3.152,0,0,0,12.183,9Z" transform="translate(-3.271 -3.271)" fill="#fff"/></g></svg>