<svg xmlns="http://www.w3.org/2000/svg" width="50" height="50" viewBox="0 0 50 50"><g transform="translate(0 0)"><path d="M97.6,270.566a1.464,1.464,0,1,0-2.5-1.518c-1.529,2.525-3.963,5.107-6.641,6.1a1.464,1.464,0,0,0,1.02,2.746C92.816,276.655,95.726,273.666,97.6,270.566Z" transform="translate(-78.96 -242.136)" fill="#fff"/><path d="M196.995,182.248a7.324,7.324,0,0,0-12.792,2.29,1.464,1.464,0,1,0,2.795.871,4.369,4.369,0,0,1,4.189-3.087c2.52,0,5.129,2.218,4.116,5.973-1.178,4.368-4.878,10.118-9.426,14.648a1.464,1.464,0,0,0,2.065,2.076c4.886-4.867,8.884-11.132,10.187-15.961A7.514,7.514,0,0,0,196.995,182.248Z" transform="translate(-166.154 -161.877)" fill="#fff"/><path d="M210.171,122.688a10.259,10.259,0,0,1,4.259-.3,1.465,1.465,0,0,0,.409-2.9,13.182,13.182,0,0,0-5.475.38,1.465,1.465,0,0,0,.806,2.816Z" transform="translate(-187.962 -107.706)" fill="#fff"/><path d="M73.724,155.55a10.2,10.2,0,0,1,3.108-4.735,1.464,1.464,0,0,0-1.9-2.225,13.126,13.126,0,0,0-4,6.092c-1.129,3.646-2.813,5.812-5.147,6.623a1.465,1.465,0,0,0,.96,2.767C69.971,162.951,72.32,160.083,73.724,155.55Z" transform="translate(-58.47 -133.762)" fill="#fff"/><path d="M143.31,241.262a1.464,1.464,0,1,0-2.795-.872,23.016,23.016,0,0,1-10.239,13.252,1.464,1.464,0,0,0,1.429,2.556A26,26,0,0,0,143.31,241.262Z" transform="translate(-116.878 -215.986)" fill="#fff"/><path d="M24.979,0A25,25,0,1,0,29.77,49.533a1.458,1.458,0,0,0,1.063.46H45.469a1.464,1.464,0,0,0,1.464-1.465v-11.6A25.012,25.012,0,0,0,24.979,0ZM2.927,25A22.058,22.058,0,1,1,44.46,35.347H35.229V29.581a2.923,2.923,0,1,1,5.845,0V31A1.464,1.464,0,1,0,44,31a9.338,9.338,0,0,0-.269-3.175A18.959,18.959,0,0,0,9.672,13.593c-1.752,2.4-2.611,5.313-3.315,6.774a1.464,1.464,0,1,0,2.637,1.273c1.29-2.677,1.915-6.424,6.535-9.8A16.044,16.044,0,0,1,41.059,24.5a5.8,5.8,0,0,0-2.943-.777,13,13,0,0,0-5.927-9.962A1.464,1.464,0,0,0,30.6,16.228a10.108,10.108,0,0,1,4.625,8.286A5.857,5.857,0,0,0,32.3,29.581v5.766H30.833a1.464,1.464,0,0,0-1.464,1.465v9.813A22.079,22.079,0,0,1,2.927,25ZM44.006,47.064H32.3V38.276H44.006v8.788Z" fill="#fff"/><path d="M362.159,423.871h2.927a1.465,1.465,0,0,0,0-2.929h-2.927a1.465,1.465,0,0,0,0,2.929Z" transform="translate(-325.471 -379.834)" fill="#fff"/></g></svg>