<svg xmlns="http://www.w3.org/2000/svg" width="20" height="20" viewBox="0 0 20 20"><g transform="translate(0 -0.8)"><rect width="20" height="20" rx="10" transform="translate(0 0.8)" fill="#f5b300"/><path d="M18.853,13.534c.346.094.693.157,1.039.252s.693.157,1.039.252c.094.031.126,0,.157-.094.126-.535.252-1.039.378-1.575.031-.094.063-.126.157-.094.315.094.6.157.913.22.094.031.094.063.063.126-.126.5-.252,1.039-.378,1.543a.238.238,0,0,1-.031.126c.252.063.535.126.787.189.031,0,.063-.063.094-.094.094-.409.189-.787.315-1.2l.094-.378c0-.063.031-.094.094-.063.315.094.63.157.976.252.031,0,.031.031.063.031-.094.409-.189.787-.283,1.165a2.624,2.624,0,0,1-.126.472c-.031.094,0,.126.094.157l1.039.472a2.671,2.671,0,0,1,.819.756,1.887,1.887,0,0,1,.189,1.48,1.957,1.957,0,0,1-.472.913,1.925,1.925,0,0,1-.693.409c-.031,0-.063.031-.126.031.126.094.252.157.378.252a1.986,1.986,0,0,1,.756,1.071,2.469,2.469,0,0,1-.063,1.071,3.094,3.094,0,0,1-.567,1.165,1.956,1.956,0,0,1-1.291.693,6.521,6.521,0,0,1-1.921-.063.132.132,0,0,0-.189.094c-.126.5-.252,1.039-.378,1.543-.031.126-.031.157-.189.094-.283-.063-.6-.157-.882-.22-.094-.031-.094-.063-.063-.126.126-.535.252-1.071.409-1.575,0-.063.031-.094-.031-.126-.252-.063-.5-.126-.787-.189-.063.283-.157.567-.22.85s-.157.567-.22.85c-.031.063-.031.094-.126.063-.315-.094-.63-.157-.945-.22-.094-.031-.094-.063-.063-.126.126-.535.252-1.071.409-1.575,0-.031.031-.063.031-.126-.724-.189-1.449-.378-2.2-.567.063-.126.094-.22.157-.346.126-.283.252-.567.346-.819.031-.094.063-.094.157-.094a5.484,5.484,0,0,0,.693.157.35.35,0,0,0,.472-.283c.409-1.606.819-3.212,1.2-4.85a.546.546,0,0,0-.378-.63c-.283-.094-.567-.157-.819-.22-.063,0-.094-.031-.063-.094.094-.346.189-.724.283-1.071C18.821,13.566,18.821,13.566,18.853,13.534Zm1.606,7.779a.11.11,0,0,1,.063.031,8.717,8.717,0,0,0,1.575.315,2.442,2.442,0,0,0,1.071-.094,1,1,0,0,0,.5-1.48,1.923,1.923,0,0,0-.661-.567,6.355,6.355,0,0,0-1.858-.567c-.094-.031-.094,0-.126.094-.063.315-.157.6-.22.913C20.679,20.4,20.585,20.84,20.459,21.313ZM23.1,18.1a2.056,2.056,0,0,0,.346-.063.918.918,0,0,0,.6-1.354,1.5,1.5,0,0,0-.724-.6,9.625,9.625,0,0,0-1.354-.409c-.094-.031-.126,0-.157.094-.157.661-.315,1.291-.5,1.953-.031.063,0,.094.063.126.126.031.22.063.346.094A9.813,9.813,0,0,0,23.1,18.1Z" transform="translate(-11.578 -7.853)" fill="#fff"/></g></svg>