<svg xmlns="http://www.w3.org/2000/svg" width="20" height="20" viewBox="0 0 20 20"><g transform="translate(-24.001 -4)"><circle cx="10" cy="10" r="10" transform="translate(24.001 4)" fill="#fff"/><g transform="translate(28.001 8)"><rect width="0.971" height="6.182" transform="translate(7.843 3.471) rotate(45)" fill="#3a3d4d"/><path d="M329.908,38.81l-.686.687a2.245,2.245,0,0,1,0,3.175l-2.441,2.441.686.687,2.441-2.441a3.215,3.215,0,0,0,0-4.548Z" transform="translate(-318.849 -37.868)" fill="#3a3d4d"/><path d="M172.395,0a3.194,3.194,0,0,0-2.274.942L167.68,3.383l.686.686,2.441-2.441a2.245,2.245,0,0,1,3.175,0l.687-.687A3.194,3.194,0,0,0,172.395,0Z" transform="translate(-163.611 0)" fill="#3a3d4d"/><path d="M42.671,329.221a2.245,2.245,0,0,1-3.175,0l-.687.687a3.215,3.215,0,0,0,4.548,0l2.441-2.441-.687-.686Z" transform="translate(-37.868 -318.849)" fill="#3a3d4d"/><path d="M1.628,173.982a2.245,2.245,0,0,1,0-3.175l2.441-2.441-.686-.687L.942,170.121a3.215,3.215,0,0,0,0,4.548Z" transform="translate(0 -163.611)" fill="#3a3d4d"/></g></g></svg>