<svg xmlns="http://www.w3.org/2000/svg" width="140" height="25.628" viewBox="0 0 140 25.628"><path d="M40.249,3.01,32.374,25.121v.14l-1.444-3-3.019,1.426,7.875-22.26L38.8,0Zm19.635.49L52.009,25.628,50.565,22.61l-2.957,1.452.192-.525L55.623,1.426l3-1.426,1.444,3.01Zm-16.8,19.136L47.748,9.625l-3.019,1.426-1.5-2.984L38.613,21.061l1.435,3.01ZM18.051,9.826H4.27l2.345,2.31L4.27,14.42H18.051L20.4,12.136Zm-15.7,9.625H24.675l-2.345,2.3,2.345,2.3H2.354L0,21.761ZM9.2.2H31.5L29.172,2.485,31.5,4.777H9.2L6.842,2.485Z" fill="#2c92ff"/><path d="M131.768,14.159a9.135,9.135,0,0,1,.683-3.447A8.618,8.618,0,0,1,137.193,5.9a9.3,9.3,0,0,1,3.64-.709,9.5,9.5,0,0,1,3.649.7,8.47,8.47,0,0,1,4.664,4.769,9.2,9.2,0,0,1,0,6.921,8.61,8.61,0,0,1-4.742,4.786,9.319,9.319,0,0,1-3.649.709,9.03,9.03,0,0,1-4.672-1.216,8.417,8.417,0,0,1-3.211-3.246,9,9,0,0,1-1.137-4.48ZM81.894,12.592h9.144v2.992H81.92v4.2H91.5v3.027H78.56V5.514H91.379v3.01H81.92ZM93.12,22.812l6.037-8.75-5.8-8.54h3.911l4.182,6.125,4.182-6.125h3.815l-5.766,8.461,6.029,8.82H105.8l-4.375-6.484L97,22.8Zm18.62,0V5.514h3.57l5.25,7.717,5.25-7.717h3.561V22.8h-3.351V10.869l-5.451,7.472h-.1l-5.425-7.472V22.8Zm23.415-8.654a6.344,6.344,0,0,0,.717,2.992,5.606,5.606,0,0,0,9.9.009,6.633,6.633,0,0,0,0-6.02,5.626,5.626,0,0,0-9.949.009,6.361,6.361,0,0,0-.709,3.019Z" transform="translate(-9.821 -0.649)" fill="#2c92ff"/></svg>