<svg xmlns="http://www.w3.org/2000/svg" width="16" height="17.379" viewBox="0 0 16 17.379"><g transform="translate(-19.008 0)"><g transform="translate(19.008 0)"><path d="M300.89,73.147a2.68,2.68,0,0,0,.766.218c.207.033.214.044.214.258,0,.1,0,.2,0,.29a.173.173,0,0,0,.185.2c.142,0,.287,0,.432,0a.164.164,0,0,0,.178-.185c0-.134.007-.265,0-.4a.21.21,0,0,1,.181-.239,1.462,1.462,0,0,0,.751-.483,1.357,1.357,0,0,0-.435-2.061,7.4,7.4,0,0,0-.755-.341,1.71,1.71,0,0,1-.414-.232.361.361,0,0,1,.091-.642.675.675,0,0,1,.254-.051,1.926,1.926,0,0,1,.954.189c.149.073.2.051.25-.105s.1-.334.149-.5a.174.174,0,0,0-.112-.232,2.451,2.451,0,0,0-.6-.178c-.272-.044-.272-.044-.276-.319,0-.388,0-.388-.388-.388h-.171c-.181,0-.214.036-.218.218,0,.083,0,.163,0,.247,0,.243,0,.239-.236.323a1.3,1.3,0,0,0-.947,1.2,1.236,1.236,0,0,0,.693,1.176,7.714,7.714,0,0,0,.867.388,1.442,1.442,0,0,1,.316.185.432.432,0,0,1-.1.758,1.051,1.051,0,0,1-.559.073,2.5,2.5,0,0,1-.849-.254c-.156-.083-.2-.062-.258.109-.047.145-.087.294-.127.443C300.679,73.006,300.7,73.057,300.89,73.147Z" transform="translate(-290.482 -65.475)" fill="#fff"/><path d="M107.242,7.2h.036c3.233-.033,2.761-4.347,2.761-4.347a2.78,2.78,0,1,0-5.559,0S104.012,7.164,107.242,7.2Z" transform="translate(-101.356 0)" fill="#fff"/><path d="M23.943,224.763a1.489,1.489,0,0,1,2.1,0l.123.123.454.454,1.535,1.535,1.081-1.081.454-.454.185-.185.951-.951c0-.047,0-.094,0-.138V224a.013.013,0,0,0,0-.011,2.247,2.247,0,0,0-1.154-2.17C28.41,221.026,27,220.34,27,220.34l-1.114,3.549-.657-1.858c1.15-1.6-.08-1.684-.3-1.687h-.015c-.218,0-1.451.083-.3,1.687l-.657,1.858-1.121-3.545s-1.408.682-2.671,1.477a2.25,2.25,0,0,0-1.154,2.17l0,3.139,2.562,0,2.246-2.246Z" transform="translate(-19.008 -212.344)" fill="#fff"/><path d="M108.75,274.04h-.036c-.748.036-1.5.069-2.246.105-.116.007-.232.011-.294.152s.007.218.087.3c.229.232.457.464.693.689l-.254.254-2.076,2.072-.185.185-.454.454-1.785,1.785-.105-.105L99.962,277.8l-.454-.454-.123-.123a.486.486,0,0,0-.348-.145.48.48,0,0,0-.348.145l-.123.123-2.587,2.587a.5.5,0,0,0,0,.7l.123.123a.486.486,0,0,0,.348.145.48.48,0,0,0,.348-.145l2.239-2.239.105.105,2.134,2.134.454.454.123.123a.486.486,0,0,0,.348.145.48.48,0,0,0,.348-.145l.123-.123,2.134-2.134.454-.454.185-.185,2.072-2.072.25-.25.679.671a.322.322,0,0,0,.214.131.257.257,0,0,0,.112-.033.347.347,0,0,0,.171-.327c.033-.729.069-1.462.1-2.192C109.055,274.138,108.965,274.04,108.75,274.04Z" transform="translate(-93.045 -264.096)" fill="#fff"/></g></g></svg>