<svg xmlns="http://www.w3.org/2000/svg" width="160" height="22.52" viewBox="0 0 160 22.52"><g transform="translate(765 -2546.4)"><path d="M-742.465,2546.4v7.431c-.278.013-.488.03-.7.03-2.074,0-4.149.015-6.223-.009-.484-.006-.635.119-.633.622.02,4.578.011,9.156.011,13.734v.668c-.223.012-.4.029-.569.03-2.074,0-4.149-.015-6.223.013-.5.007-.633-.139-.631-.627.016-4.542.009-9.084.009-13.626v-.808H-765V2546.4Z" fill="#0a9600"/><path d="M-469.084,2546.4v7.423H-484V2546.4Z" transform="translate(-250.846)" fill="#0a9600"/><path d="M650.722,2607.828h-3.367c0-.824.005-1.589,0-2.353-.011-1.233.007-2.468-.056-3.7-.044-.854-.427-1.183-1.154-1.167-.706.016-1.086.392-1.1,1.235-.032,1.751-.015,3.5-.019,5.256,0,.213,0,.425,0,.679h-3.315c-.008-.189-.024-.379-.024-.569,0-3.719.007-7.438-.012-11.157a.681.681,0,0,1,.526-.773c.92-.33,1.821-.715,2.8-1.105v4.312a12.662,12.662,0,0,1,1.986-.647,2.936,2.936,0,0,1,3.633,2.766c.021.156.069.307.1.461Z" transform="translate(-1255.722 -42.649)" fill="#fff"/><path d="M-553.919,2632.076v-14.883h7.35c.009.2.026.386.026.575,0,2.074.019,4.148-.011,6.221-.008.53.113.7.673.693,4.559-.024,9.117-.014,13.676-.014h.66v7.407Z" transform="translate(-188.43 -63.196)" fill="#0a9600"/><path d="M135.23,2605.6l3.006,1.59a5.523,5.523,0,0,1-3.54,3.124c-2.985.815-6.378-.189-7.481-3.8a9.033,9.033,0,0,1,.032-5.487,5.743,5.743,0,0,1,1.738-2.655,6.625,6.625,0,0,1,6.968-.624,5.61,5.61,0,0,1,2.252,3.137l-3.241,1.267c-.188-.373-.335-.717-.528-1.034a1.863,1.863,0,0,0-3.311.109,5.668,5.668,0,0,0-.484,3.394,5.583,5.583,0,0,0,.443,1.64,1.944,1.944,0,0,0,3.319.47C134.7,2606.4,134.929,2606.018,135.23,2605.6Z" transform="translate(-796.104 -45.203)" fill="#fff"/><path d="M23.5,2595.789l3.257-1.3v4.408a2.841,2.841,0,0,0,.373-.173,3.953,3.953,0,0,1,2.926-.565,2.682,2.682,0,0,1,2.24,2.66c.109,2.387.029,4.783.029,7.217H29.145v-.586c0-1.538,0-3.076,0-4.614a6.807,6.807,0,0,0-.08-1.013,1.128,1.128,0,0,0-2.208-.133,3.158,3.158,0,0,0-.093.791c-.008,1.84,0,3.681,0,5.559H23.5Z" transform="translate(-703.89 -42.927)" fill="#0a9600"/><path d="M333.851,2629.873h3.283c.009.192.024.38.025.568,0,1.591,0,3.183,0,4.774a5.1,5.1,0,0,0,.07.906,1,1,0,0,0,1.094.949.984.984,0,0,0,1.076-1.025c.06-1.571.054-3.144.072-4.716.005-.477,0-.953,0-1.456h3.343v9.788h-3.3l-.072-.479a14.311,14.311,0,0,1-1.921.647,2.894,2.894,0,0,1-3.575-2.445,6.716,6.716,0,0,1-.13-1.223c-.014-1.967-.009-3.933-.008-5.9C333.816,2630.141,333.837,2630.02,333.851,2629.873Z" transform="translate(-980.9 -74.516)" fill="#fff"/><path d="M441.325,2627.952h3.254l.068.463a13.929,13.929,0,0,1,2.007-.636,2.834,2.834,0,0,1,3.475,2.368,5.138,5.138,0,0,1,.161,1.111c.015,2.143.007,4.287.007,6.472h-3.316c-.009-.168-.027-.355-.027-.542,0-1.608,0-3.216,0-4.824a5.478,5.478,0,0,0-.076-.851,1.1,1.1,0,0,0-2.16-.084,3.634,3.634,0,0,0-.087.793c-.007,1.822,0,3.644,0,5.507h-3.3Z" transform="translate(-1076.874 -72.597)" fill="#fff"/><path d="M-265.058,2612.4h-3.516c-.01-.218-.027-.425-.027-.632,0-2.914-.012-5.828.009-8.742,0-.48-.14-.611-.607-.6-1.015.034-2.032.01-3.089.01v-3.038c.166-.01.353-.032.54-.032,3.254,0,6.508.007,9.762-.011.461,0,.64.107.612.592-.039.677-.022,1.359-.005,2.038.009.349-.118.465-.469.458-1.051-.02-2.1-.007-3.209-.007Z" transform="translate(-439.839 -47.28)" fill="#0a9600"/><path d="M-164.855,2637.326a7.25,7.25,0,0,1-5.07.98,3.884,3.884,0,0,1-3.094-2.8,6.675,6.675,0,0,1,.218-4.914c.806-1.748,2.363-2.492,4.634-2.294a3.733,3.733,0,0,1,3.294,3c.223.926.277,1.893.419,2.936h-5.825a1.432,1.432,0,0,0,1.442,1.663,24.864,24.864,0,0,0,2.7-.441l.024-.188c.2.328.4.656.6.986S-165.1,2636.923-164.855,2637.326Zm-5.447-5.129h2.835c-.183-1.152-.725-1.646-1.65-1.561A1.38,1.38,0,0,0-170.3,2632.2Z" transform="translate(-528.13 -73.083)" fill="#0a9600"/><path d="M552.776,2630.02l-2.254,1.708c-.181-.257-.334-.513-.523-.739a1.171,1.171,0,0,0-2.111.356,4.82,4.82,0,0,0-.057,2.95,1.28,1.28,0,0,0,2.226.6,10.74,10.74,0,0,0,.74-.828l2.045,1.593a4.368,4.368,0,0,1-4.944,2.277,4,4,0,0,1-3.4-3.575,10.251,10.251,0,0,1,.062-3.183c.5-2.541,2.52-3.506,4.794-3.383A4.046,4.046,0,0,1,552.776,2630.02Z" transform="translate(-1168.891 -72.649)" fill="#fff"/><path d="M-66.294,2630.2l-2.2,1.672a8.232,8.232,0,0,0-.637-.837,1.149,1.149,0,0,0-1.952.3,4.28,4.28,0,0,0-.028,3.437,1.228,1.228,0,0,0,1.926.51,13.517,13.517,0,0,0,1.061-.908l1.881,1.467a4.3,4.3,0,0,1-4.235,2.339c-3.06-.289-4.064-2.394-4.16-4.673a7.9,7.9,0,0,1,.186-2.121,4.2,4.2,0,0,1,4.7-3.379A4.135,4.135,0,0,1-66.294,2630.2Z" transform="translate(-616.267 -72.842)" fill="#0a9600"/><path d="M253.249,2627.9H256.5l.078.616c.287-.186.526-.365.787-.5a2.85,2.85,0,0,1,2.527-.1c.133.054.3.291.281.407-.208,1.045-.456,2.083-.693,3.128a6.923,6.923,0,0,0-1.028-.606,1.286,1.286,0,0,0-1.892,1.247c-.039,1.482-.016,2.966-.019,4.45,0,.371,0,.742,0,1.145h-3.289Z" transform="translate(-908.98 -72.548)" fill="#fff"/></g></svg>