<svg xmlns="http://www.w3.org/2000/svg" width="10" height="10" viewBox="0 0 10 10"><path d="M5,0a5,5,0,1,0,5,5A5,5,0,0,0,5,0ZM6.364,6.931A1.588,1.588,0,0,1,5.3,7.418v.707H4.706v-.7a1.551,1.551,0,0,1-1.439-1.35l.916-.239a.8.8,0,0,0,.842.773.652.652,0,0,0,.493-.165.559.559,0,0,0,.157-.4.44.44,0,0,0-.157-.367,2.846,2.846,0,0,0-.7-.317,4.123,4.123,0,0,1-.763-.335,1.26,1.26,0,0,1-.446-.463,1.373,1.373,0,0,1-.172-.695,1.54,1.54,0,0,1,.306-.935,1.369,1.369,0,0,1,.963-.507V1.875H5.3v.546A1.432,1.432,0,0,1,6.583,3.544l-.815.334q-.239-.688-.738-.688a.539.539,0,0,0-.4.154.511.511,0,0,0-.152.373.418.418,0,0,0,.146.343,2.516,2.516,0,0,0,.626.3,5.558,5.558,0,0,1,.827.364,1.3,1.3,0,0,1,.479.473,1.361,1.361,0,0,1,.179.706A1.493,1.493,0,0,1,6.364,6.931Z" fill="#41bf50"/></svg>