<svg xmlns="http://www.w3.org/2000/svg" width="30" height="30" viewBox="0 0 30 30"><g transform="translate(0 0)"><path d="M385.452,353.935a.485.485,0,0,1,.484.484h.968a1.45,1.45,0,0,0-.968-1.362V352h-.968v1.057a1.448,1.448,0,0,0,.484,2.814.484.484,0,1,1-.484.484H384a1.45,1.45,0,0,0,.968,1.362v1.057h.968v-1.057a1.448,1.448,0,0,0-.484-2.814.484.484,0,0,1,0-.968Z" transform="translate(-360.774 -330.71)" fill="#fff"/><path d="M28.667,21.166A14.879,14.879,0,0,0,29.964,16L30,15.484H24.19l-.043.436a9.1,9.1,0,0,1-.277,1.5H21.29V9.677h-2.9v7.742H16.452V11.613h-2.9v5.806H11.613V13.548H8.71v3.871H6.131A9.193,9.193,0,0,1,15,5.806a9.157,9.157,0,0,1,9.147,8.274l.043.436H30L29.963,14A15,15,0,1,0,14,29.963l.516.034V24.191l-.436-.044a9.149,9.149,0,0,1-7.635-5.76h17.1a9.293,9.293,0,0,1-.631,1.274,5.34,5.34,0,0,0-3.254,3.254,9.051,9.051,0,0,1-3.741,1.232l-.436.044V30L16,29.963a14.852,14.852,0,0,0,5.166-1.3,5.314,5.314,0,0,0,7.5-7.5Zm.287-7.617h-3.9A10.11,10.11,0,0,0,15.484,4.86V.979A14.06,14.06,0,0,1,28.954,13.548ZM13.548,25.058v3.9A14.029,14.029,0,0,1,14.516.98V4.863a10.155,10.155,0,0,0-.968,20.2Zm5.806-14.413h.968v6.774h-.968Zm-4.839,1.935h.968v4.839h-.968ZM9.677,14.516h.968v2.9H9.677Zm15.38,1.935h3.9a13.861,13.861,0,0,1-1.044,4.007,5.289,5.289,0,0,0-3.232-1.1c-.173,0-.344.01-.513.026A9.976,9.976,0,0,0,25.057,16.452Zm-8.606,8.606a9.967,9.967,0,0,0,2.929-.893c-.017.169-.026.34-.026.513a5.289,5.289,0,0,0,1.1,3.232,13.845,13.845,0,0,1-4.007,1.044Zm8.226,3.975a4.355,4.355,0,1,1,4.355-4.355A4.36,4.36,0,0,1,24.677,29.032Z" fill="#fff"/><path d="M160,192h.968v.968H160Z" transform="translate(-150.323 -180.387)" fill="#fff"/><path d="M160,160h.968v.968H160Z" transform="translate(-150.323 -150.323)" fill="#fff"/><path d="M240,160h.968v.968H240Z" transform="translate(-225.484 -150.323)" fill="#fff"/><path d="M240,128h.968v.968H240Z" transform="translate(-225.484 -120.258)" fill="#fff"/></g></svg>