<svg xmlns="http://www.w3.org/2000/svg" width="160" height="33.693" viewBox="0 0 160 33.693"><g transform="translate(757 -3261.4)"><path d="M-305.578,3561.8l.009.119H-429l.021-.127a.816.816,0,0,1,.574-.161c.222-.01.445,0,.667,0q60.46,0,120.92,0A1.891,1.891,0,0,1-305.578,3561.8Z" transform="translate(-291.527 -266.822)" fill="#7fcbfd"/><path d="M-658,3295.265l.01-.12c.305-.252.672-.169,1.015-.169q10.056-.008,20.111,0c1.032,0,1.033,0,1.033-1.028q0-15.639,0-31.278a1.6,1.6,0,0,1,.162-1.073c.243.183.121.443.121.664q.01,16.5.006,33.007Z" transform="translate(-87.991 -0.172)" fill="#7fcbfd"/><path d="M-756.887,3283.969l-.113,0V3261.4l.119.027a.973.973,0,0,1,.171.737q.007,10.535,0,21.07A.953.953,0,0,1-756.887,3283.969Z" fill="#3fb1fd"/><path d="M-305.563,3473.666c-.259,0-.519.008-.778.008H-428.13c-.278,0-.556-.01-.833-.016q-.007-5.393-.02-10.786c0-.3.073-.458.4-.414a2.615,2.615,0,0,0,.333,0q60.993,0,121.986-.012c.559,0,.74.111.733.71C-305.568,3466.661-305.557,3470.164-305.563,3473.666Z" transform="translate(-291.542 -178.692)" fill="#0098fd"/><path d="M-755.982,3284.03q0-11.271.006-22.542c.148-.006.3-.019.443-.019h32.393c.129,0,.259.009.388.014.005.2.015.407.015.611q0,16.12,0,32.24c0,.8.08.709-.717.708q-10.812,0-21.623-.007l-10.647-10.717C-755.814,3284.226-755.9,3284.126-755.982,3284.03Z" transform="translate(-0.905 -0.061)" fill="#0098fd"/><path d="M56.649,3269.271c0,4.484-.009,8.969.013,13.453,0,.491-.114.64-.6.6a9.692,9.692,0,0,0-1.611,0c-.469.037-.613-.079-.61-.587.025-4.151.014-8.3.014-12.453,0-2.15.008-4.3-.008-6.449,0-.357.082-.471.453-.461q1.5.041,3,0c.371-.01.491.12.582.468.939,3.555,1.9,7.1,2.853,10.655a.717.717,0,0,0,.219.463v-7.4c0-1.26.009-2.52-.007-3.78,0-.308.07-.421.4-.408.648.025,1.3.032,1.945,0,.393-.021.448.138.446.478-.013,2.187-.007,4.373-.007,6.56,0,4.114-.008,8.228.011,12.342,0,.472-.136.593-.587.57-.721-.037-1.445-.028-2.167,0-.357.012-.5-.092-.6-.458-1.159-4.375-2.342-8.745-3.519-13.116-.042-.157-.093-.311-.139-.467Z" transform="translate(-720.674 -1.75)" fill="#fff"/><path d="M-190.884,3271.656c.06-2.01-.077-3.993.075-5.972.263-3.417,2.685-4.5,5.353-4.168,2.481.306,3.71,1.792,3.864,4.536.037.665,0,1.334.023,2,.01.293-.089.386-.38.379q-1.111-.025-2.223,0c-.3.007-.38-.1-.375-.384.013-.722.023-1.446-.014-2.167a1.469,1.469,0,0,0-1.74-1.548,1.355,1.355,0,0,0-1.357,1.158,5.108,5.108,0,0,0-.089.993q-.009,5.168,0,10.336a5.243,5.243,0,0,0,.047.719,1.426,1.426,0,0,0,1.631,1.426,1.434,1.434,0,0,0,1.51-1.557c.036-.925.028-1.853.012-2.778-.006-.321.052-.468.418-.454.721.028,1.445.005,2.167.01.171,0,.4-.062.388.244a20.554,20.554,0,0,1-.2,4.151,3.967,3.967,0,0,1-3.793,3.234,6.887,6.887,0,0,1-1.773-.054,4.04,4.04,0,0,1-3.449-3.859C-190.976,3275.814-190.814,3273.719-190.884,3271.656Z" transform="translate(-503.164 -0.053)" fill="#fff"/><path d="M211.488,3267.109c-.371,0-.742-.018-1.111.006-.3.019-.381-.1-.371-.384a6.8,6.8,0,0,0-.038-1.109,1.512,1.512,0,0,0-3,.014,4.075,4.075,0,0,0,.9,3.216,14.9,14.9,0,0,0,1.664,1.71,16.9,16.9,0,0,1,2.009,2.073,6.787,6.787,0,0,1,1.1,6.454,3.678,3.678,0,0,1-2.906,2.607,6.169,6.169,0,0,1-2.538.047,4.067,4.067,0,0,1-3.437-4.051c-.042-.572-.016-1.148-.042-1.722-.013-.283.071-.391.371-.383.741.02,1.482.018,2.223,0,.273-.006.345.088.346.35a8.209,8.209,0,0,0,.08,1.827,1.386,1.386,0,0,0,1.5,1.2,1.363,1.363,0,0,0,1.54-1.137,3.838,3.838,0,0,0-.79-3.283,13.64,13.64,0,0,0-1.771-1.838,17.8,17.8,0,0,1-1.935-1.99,6.828,6.828,0,0,1-1.251-6.131,3.8,3.8,0,0,1,3.394-3.053,6.205,6.205,0,0,1,2.318.071,3.96,3.96,0,0,1,3.121,3.544,13.355,13.355,0,0,1,.115,1.605c.005.3-.1.383-.382.366C212.231,3267.093,211.859,3267.109,211.488,3267.109Z" transform="translate(-853.889 -0.046)" fill="#fff"/><path d="M-279.2,3274.807c0,2.685-.007,5.37.008,8.055,0,.375-.076.521-.481.5a20.41,20.41,0,0,0-2.11,0c-.44.025-.543-.112-.541-.544.015-5.277,0-10.555.025-15.832,0-.593-.162-.746-.726-.706-.7.05-1.407,0-2.11.019-.325.01-.465-.057-.45-.419.028-.7.016-1.407,0-2.111,0-.255.063-.354.341-.354q4.472.014,8.944,0c.265,0,.351.071.345.34-.017.7-.023,1.408,0,2.11.012.334-.07.448-.425.435-.8-.029-1.593.014-2.388-.019-.383-.016-.447.123-.445.467C-279.2,3269.437-279.2,3272.122-279.2,3274.807Z" transform="translate(-418.99 -1.794)" fill="#fff"/><path d="M299.595,3274.778c0-2.667-.007-5.333.009-8,0-.376-.075-.517-.48-.5-.795.033-1.592,0-2.388.016-.308.007-.425-.075-.415-.4.021-.7.019-1.407,0-2.111-.008-.294.093-.374.381-.373q4.444.014,8.888,0c.3,0,.379.083.371.374-.02.722-.017,1.444,0,2.166.006.269-.082.349-.347.343-.74-.016-1.483.029-2.221-.017-.53-.032-.7.08-.7.668.029,5.259.009,10.518.029,15.777,0,.5-.115.674-.632.638a17.471,17.471,0,0,0-2.054,0c-.383.019-.449-.123-.447-.468C299.6,3280.185,299.595,3277.482,299.595,3274.778Z" transform="translate(-936.191 -1.787)" fill="#fff"/><path d="M428.462,3279.777q0-.3,0-.606,0-7.614,0-15.229c0-.188-.115-.49.1-.546a3.553,3.553,0,0,1,.991-.015c.031,0,.074.116.082.182a2.614,2.614,0,0,1,0,.333q0,9.421.012,18.842c0,.476-.128.583-.58.563-.872-.037-.875-.009-1.166-.843l-5.619-16.106a.961.961,0,0,0-.271-.447v.561q0,8.115-.005,16.23c0,.188.118.489-.1.547a3.6,3.6,0,0,1-.99.027c-.031,0-.077-.112-.085-.175a2.554,2.554,0,0,1-.005-.333q0-9.421-.011-18.842c0-.459.1-.589.57-.574,1.129.037,1.132.01,1.507,1.073q2.637,7.467,5.273,14.936l.158.445Z" transform="translate(-1046.852 -1.729)" fill="#fff"/><path d="M-324.084,3273.374c0,3.129-.008,6.259.01,9.389,0,.425-.09.578-.539.55a18.023,18.023,0,0,0-2.054,0c-.431.023-.547-.1-.546-.539.017-4.778.011-9.556.011-14.333,0-1.537.01-3.074-.008-4.611,0-.349.068-.484.449-.467.721.033,1.445.035,2.166,0,.41-.02.525.086.522.511C-324.093,3267.041-324.084,3270.208-324.084,3273.374Z" transform="translate(-381.995 -1.743)" fill="#fff"/><path d="M10.328,3273.293c0,3.15-.009,6.3.011,9.452,0,.439-.112.567-.548.544-.7-.037-1.409-.034-2.112,0-.405.019-.484-.13-.483-.5.012-4.114.008-8.229.008-12.343,0-2.187.014-4.374-.011-6.56-.005-.45.127-.564.556-.542a17.4,17.4,0,0,0,2.056,0c.467-.031.534.151.532.56C10.321,3267.029,10.328,3270.161,10.328,3273.293Z" transform="translate(-679.215 -1.719)" fill="#fff"/><path d="M164.206,3273.373c0,3.15-.007,6.3.009,9.451,0,.386-.088.508-.484.489a19.036,19.036,0,0,0-2.111,0c-.463.028-.537-.145-.536-.562q.02-7.978.009-15.956c0-1,.016-2-.009-3-.008-.35.1-.442.437-.431.74.025,1.484.034,2.223,0,.416-.021.472.139.47.5C164.2,3267.035,164.206,3270.2,164.206,3273.373Z" transform="translate(-815.993 -1.742)" fill="#fff"/><path d="M514.071,3273.254c0-3.13.01-6.26-.011-9.39,0-.45.13-.544.554-.54,2.26.021,4.52.034,6.779-.007.6-.011.473.323.49.655.019.358.027.6-.494.59-1.851-.04-3.7-.005-5.556-.024-.364,0-.456.094-.454.455.017,2.371.02,4.742,0,7.112,0,.418.143.468.5.463,1.482-.02,2.964.022,4.445-.024.564-.018.473.292.47.619s.1.641-.469.624c-1.48-.045-2.964,0-4.445-.028-.433-.009-.506.123-.5.522q.029,3.639,0,7.279c0,.4.076.534.509.527,1.815-.028,3.631.009,5.445-.025.492-.009.58.157.562.595-.016.384.011.631-.53.623-2.259-.035-4.519-.026-6.779,0-.413,0-.526-.094-.524-.518C514.08,3279.589,514.071,3276.422,514.071,3273.254Z" transform="translate(-1129.718 -1.704)" fill="#fff"/><path d="M607.137,3263.426l0,1.207c-1.149,0-2.3.032-3.447-.01-.49-.018-.555.147-.554.585q.023,8.784,0,17.569c0,.187.121.5-.1.543a3.269,3.269,0,0,1-1.152-.021c-.135-.024-.061-.3-.062-.463q-.006-4.031,0-8.062c0-3.188-.015-6.376.015-9.563,0-.515-.15-.6-.612-.585-1,.036-2,0-3,.019-.337.008-.483-.07-.428-.423a1.561,1.561,0,0,0,0-.444c-.042-.311.109-.362.381-.359,1.13.013,2.261.005,3.391.005Z" transform="translate(-1204.14 -1.795)" fill="#fff"/><path d="M385.81,3421.336a3.559,3.559,0,0,0-.006-.606c-.1-.551.14-.646.653-.652.537-.006.716.136.652.669-.047.4,0,.809-.015,1.213-.01.2.127.531-.113.59a3.517,3.517,0,0,1-1.093.016c-.112-.009-.075-.187-.076-.292C385.808,3421.962,385.81,3421.649,385.81,3421.336Z" transform="translate(-1015.707 -141.033)" fill="#fff"/><path d="M166.174,3489.918q.383-2.439.766-4.878c.028-.175,0-.389.292-.368.269.02.255.228.282.4q.346,2.249.686,4.5a.638.638,0,0,0,.194.5c.269-1.681.532-3.318.793-4.956.012-.073.014-.147.025-.221.023-.16.076-.3.277-.256s.108.2.09.318q-.27,1.727-.547,3.453c-.12.749-.246,1.5-.366,2.245-.031.195,0,.4-.315.408-.3,0-.322-.18-.354-.383q-.358-2.247-.714-4.494c-.033-.037-.062-.129-.078-.115a.524.524,0,0,0-.1.22q-.368,2.218-.737,4.434c-.031.189-.067.337-.333.339-.283,0-.338-.144-.373-.364-.3-1.881-.6-3.762-.9-5.645-.021-.137-.149-.363.1-.416.274-.057.274.19.3.364q.406,2.464.8,4.929a.354.354,0,0,1,.065.352C166.1,3490.166,166.086,3490.024,166.174,3489.918Z" transform="translate(-819.221 -198.405)" fill="#fcfcfd"/><path d="M494.549,3489.672q0-2.271,0-4.542c0-.148,0-.3.012-.444a.168.168,0,0,1,.182-.166.155.155,0,0,1,.177.163c.006.092.007.185.007.277,0,1.853,0,3.705-.006,5.557,0,.148.131.388-.185.427-.275.034-.337-.14-.408-.346-.58-1.675-1.167-3.347-1.769-5.068a.5.5,0,0,0-.095.426c0,1.519,0,3.038-.007,4.557,0,.156.112.417-.2.419s-.2-.259-.2-.415q-.011-2.779,0-5.557c0-.179-.1-.424.242-.453.3-.026.37.147.45.375.531,1.518,1.072,3.033,1.61,4.549.03.084.066.167.1.25Z" transform="translate(-1110.148 -198.298)" fill="#fafcfd"/><path d="M295.643,3489.71v-4.642a1.478,1.478,0,0,1,0-.167c.017-.152-.055-.375.213-.36.228.013.16.213.161.344.006.759,0,1.519,0,2.278,0,1.13,0,2.26-.006,3.389,0,.139.107.352-.151.4s-.353-.076-.432-.308c-.527-1.539-1.07-3.073-1.609-4.609a.96.96,0,0,0-.267-.443v.73q0,2.14,0,4.279c0,.154.055.362-.22.349-.231-.011-.184-.192-.184-.329q0-2.861,0-5.723c0-.155-.052-.344.209-.373s.386.084.474.338c.526,1.52,1.071,3.033,1.61,4.549C295.478,3489.516,295.471,3489.639,295.643,3489.71Z" transform="translate(-933.37 -198.313)" fill="#fafcfd"/><path d="M-77.562,3485.58v4.61c0,.13.005.26,0,.389-.008.155.054.363-.221.348-.231-.012-.181-.192-.184-.329-.006-.315,0-.63,0-.945,0-1.556,0-3.112.006-4.668,0-.172-.124-.427.206-.483s.406.141.493.39c.524,1.5,1.059,3,1.59,4.5.035.1.029.224.2.293,0-1.5,0-2.989,0-4.475,0-.148,0-.3,0-.445s.029-.264.213-.252c.155.01.156.127.161.238,0,.074,0,.148,0,.222,0,1.834,0,3.667-.007,5.5,0,.153.137.39-.151.456s-.373-.132-.451-.359q-.8-2.307-1.607-4.61c-.046-.133-.1-.265-.146-.4Z" transform="translate(-603.507 -198.286)" fill="#fafcfd"/><path d="M325.087,3487.627c0-.888.019-1.776-.009-2.663-.013-.4.074-.6.512-.534a4.373,4.373,0,0,0,.609,0c1.208,0,1.643.339,1.711,1.525a22.378,22.378,0,0,1-.03,3.655,1.26,1.26,0,0,1-1.4,1.252c-1.389.031-1.389.031-1.389-1.354Z" transform="translate(-961.75 -198.219)" fill="#fafcfd"/><path d="M458.933,3487.826c0-.944,0-1.888,0-2.832,0-.175-.054-.407.246-.385.271.02.173.244.175.387.01.722.018,1.444,0,2.166-.009.318.049.48.418.449a9.013,9.013,0,0,1,1.221,0c.3.016.379-.094.373-.381-.017-.759-.008-1.518,0-2.277,0-.153-.054-.36.222-.345.22.012.2.175.2.321q0,2.888,0,5.775c0,.175.006.343-.248.328s-.176-.2-.177-.328c-.006-.74-.017-1.481,0-2.221.01-.339-.055-.51-.446-.477-.494.042-1.141-.154-1.45.093-.329.262-.08.935-.107,1.428-.017.314.027.633-.014.942-.025.19.211.556-.214.548-.363-.007-.19-.344-.194-.525C458.922,3489.6,458.933,3488.714,458.933,3487.826Z" transform="translate(-1080.697 -198.385)" fill="#f8fbfd"/><path d="M-167.983,3487.875a1.25,1.25,0,0,1,.8,1.356,6.642,6.642,0,0,0,.06,1.438c.018.09.18.252-.076.282-.138.016-.271,0-.312-.153a1.9,1.9,0,0,1-.066-.437c-.01-.351,0-.7-.008-1.054a1.214,1.214,0,0,0-1.69-1.223c-.249.073-.174.251-.176.4-.008.7,0,1.405-.007,2.108,0,.142.086.356-.2.362s-.225-.189-.225-.348c0-1.905,0-3.81-.007-5.715,0-.3.117-.384.394-.37.332.017.666,0,1,0a1.177,1.177,0,0,1,1.3,1.256c.01.2-.008.407,0,.61A1.341,1.341,0,0,1-167.983,3487.875Z" transform="translate(-521.83 -198.308)" fill="#fafcfd"/><path d="M31.964,3487.774a1.21,1.21,0,0,1,.8,1.261,8.5,8.5,0,0,0,.052,1.494c.017.1.216.288-.084.323a.267.267,0,0,1-.329-.28q-.036-.581-.038-1.164c0-1.183-.307-1.461-1.487-1.436-.336.007-.4.131-.39.426.017.684.012,1.369,0,2.052,0,.153.114.411-.213.4-.308-.013-.2-.26-.2-.417-.007-1.868,0-3.735-.01-5.6,0-.314.1-.444.411-.407a2.019,2.019,0,0,0,.388,0c2.04-.166,2.026.932,1.831,2.6C32.654,3487.369,32.348,3487.573,31.964,3487.774Z" transform="translate(-699.538 -198.207)" fill="#fafcfd"/><path d="M-136.987,3487.874a1.251,1.251,0,0,1,.807,1.359,6.583,6.583,0,0,0,.061,1.437c.018.092.176.253-.079.281-.139.015-.272,0-.31-.157a2.3,2.3,0,0,1-.069-.492c-.01-.407.013-.815-.009-1.221a1.268,1.268,0,0,0-1.743-.985c-.18.091-.118.253-.119.388-.007.7,0,1.406-.007,2.108,0,.143.084.356-.2.359s-.222-.193-.223-.35c0-1.9,0-3.81-.007-5.714,0-.306.122-.382.4-.368.314.016.629,0,.943,0a1.194,1.194,0,0,1,1.36,1.313c.006.166-.007.333,0,.5A1.363,1.363,0,0,1-136.987,3487.874Z" transform="translate(-549.383 -198.308)" fill="#fafcfd"/><path d="M-386.983,3487.875a1.249,1.249,0,0,1,.8,1.355,6.648,6.648,0,0,0,.06,1.437c.018.09.179.252-.076.283-.138.017-.273,0-.312-.154a2.276,2.276,0,0,1-.07-.492c-.01-.388.007-.777-.007-1.165a1.258,1.258,0,0,0-1.742-1.044c-.183.09-.12.252-.122.387-.007.7,0,1.405-.007,2.108,0,.143.086.356-.2.362s-.225-.19-.225-.348c0-1.9,0-3.809-.007-5.714,0-.3.116-.385.393-.371.332.017.666,0,1,0a1.177,1.177,0,0,1,1.305,1.255c.01.2-.008.407,0,.61A1.341,1.341,0,0,1-386.983,3487.875Z" transform="translate(-327.182 -198.308)" fill="#fafcfd"/><path d="M614.35,3487.514c0,.611-.024,1.223.006,1.832.032.654.394,1.008.952,1s.892-.366.938-1.022c.021-.295-.007-.594.018-.888.037-.439,0-.78-.587-.669a.187.187,0,0,1-.245-.216c.009-.141.1-.182.225-.184.056,0,.111,0,.167,0,.845-.035.853-.035.842.8a6.874,6.874,0,0,1-.061,1.494,1.344,1.344,0,0,1-2.628.012,7.682,7.682,0,0,1-.067-1.715c-.014-.759-.024-1.519,0-2.277.035-.928.492-1.433,1.262-1.464a1.455,1.455,0,0,1,1.491,1.851c-.03.125-.072.2-.208.2s-.191-.086-.2-.213c-.007-.185,0-.371-.025-.554a.9.9,0,0,0-.918-.919.894.894,0,0,0-.958.935c-.039.664-.009,1.332-.009,2Z" transform="translate(-1218.452 -198.036)" fill="#fafcfd"/><path d="M-200.732,3487.374c0,.76-.01,1.52,0,2.279.012.694.352,1.082.921,1.093s.946-.352.959-1.052c.029-1.519.015-3.038.031-4.556,0-.17-.132-.475.2-.47s.193.307.194.478q.017,2.084,0,4.168a3.724,3.724,0,0,1-.108.879,1.192,1.192,0,0,1-1.276.931,1.2,1.2,0,0,1-1.256-.89,3.241,3.241,0,0,1-.117-.989c0-1.371-.005-2.742.006-4.112,0-.168-.14-.46.2-.472.391-.014.229.313.233.491C-200.721,3485.892-200.732,3486.633-200.732,3487.374Z" transform="translate(-493.995 -198.433)" fill="#fafcfd"/><path d="M-260.3,3487.52c0,.592.014,1.186,0,1.777a1.313,1.313,0,0,1-1.3,1.431,1.266,1.266,0,0,1-1.463-1.311c-.061-1.292-.057-2.592,0-3.885a1.266,1.266,0,0,1,1.456-1.314,1.287,1.287,0,0,1,1.307,1.414C-260.289,3486.261-260.306,3486.891-260.3,3487.52Z" transform="translate(-438.964 -198.039)" fill="#fbfcfd"/><path d="M526.709,3487.405c0,.63.015,1.26,0,1.888a1.306,1.306,0,0,1-1.261,1.412,1.255,1.255,0,0,1-1.5-1.269,38.523,38.523,0,0,1,0-3.995,1.256,1.256,0,0,1,1.515-1.243,1.279,1.279,0,0,1,1.234,1.374c.024.61,0,1.221,0,1.833Z" transform="translate(-1138.464 -198.02)" fill="#fbfcfd"/><path d="M584.709,3487.453c0,.611.014,1.222,0,1.833a1.309,1.309,0,0,1-1.249,1.424,1.252,1.252,0,0,1-1.505-1.255,38.46,38.46,0,0,1,0-4,1.257,1.257,0,0,1,1.5-1.255,1.29,1.29,0,0,1,1.249,1.417C584.723,3486.231,584.708,3486.842,584.709,3487.453Z" transform="translate(-1190.014 -198.025)" fill="#fbfcfd"/><path d="M258.353,3489.323h-.166c-.843,0-.843,0-1.02.813a.6.6,0,0,1-.03.163c-.088.156.011.5-.3.43s-.106-.331-.072-.494q.572-2.712,1.171-5.418c.049-.22-.009-.522.4-.53s.365.289.416.516q.628,2.785,1.238,5.574c.026.121.157.3-.076.36-.212.057-.3-.072-.324-.269a1.791,1.791,0,0,0-.047-.216C259.329,3489.323,259.329,3489.323,258.353,3489.323Z" transform="translate(-900.954 -198.102)" fill="#fcfcfd"/><path d="M-231.631,3487.454c0,.611-.023,1.222.006,1.832.031.658.384,1.014.939,1.015s.9-.357.951-1.009c.02-.258.012-.518.02-.777a.171.171,0,0,1,.161-.187c.1-.009.212.007.22.114a2.669,2.669,0,0,1-.266,1.72,1.231,1.231,0,0,1-1.213.513,1.192,1.192,0,0,1-1.165-.932,4.641,4.641,0,0,1-.1-1.378c-.005-.907-.024-1.815.007-2.721.036-1.057.6-1.56,1.581-1.474a1.587,1.587,0,0,1,1.164,2,.2.2,0,0,1-.216.124c-.146,0-.18-.1-.183-.221a6.157,6.157,0,0,0-.028-.665.894.894,0,0,0-.9-.875.877.877,0,0,0-.961.867c-.047.681-.011,1.368-.011,2.053Z" transform="translate(-466.547 -197.99)" fill="#fafcfd"/><path d="M-420.077,3487.649c0-.81-.028-1.422.006-2.031a1.307,1.307,0,0,1,1.521-1.422,1.57,1.57,0,0,1,1.221,2,.2.2,0,0,1-.215.125c-.145,0-.18-.095-.184-.22a5.241,5.241,0,0,0-.036-.719.875.875,0,0,0-.892-.821.854.854,0,0,0-.953.81,30.729,30.729,0,0,0,0,4.16.832.832,0,0,0,.911.793.871.871,0,0,0,.924-.786,5.936,5.936,0,0,0,.043-.885c.005-.152,0-.311.221-.3.186.009.185.147.185.279a4.169,4.169,0,0,1-.07,1.048,1.221,1.221,0,0,1-1.317,1.024,1.2,1.2,0,0,1-1.286-.991A10.466,10.466,0,0,1-420.077,3487.649Z" transform="translate(-299.444 -198.017)" fill="#fafcfd"/><path d="M-45.607,3487.475c0,.629-.024,1.26.007,1.887a.912.912,0,0,0,.96.991c.537-.011.868-.353.925-.976.022-.239.013-.48.018-.721,0-.133,0-.267.189-.276s.214.1.217.249a3.547,3.547,0,0,1-.119,1.263,1.212,1.212,0,0,1-1.292.84,1.207,1.207,0,0,1-1.245-.905,3.664,3.664,0,0,1-.106-1.155c0-.981-.017-1.962.007-2.942s.493-1.5,1.328-1.509a1.515,1.515,0,0,1,1.424,1.972.189.189,0,0,1-.189.156c-.133.007-.208-.049-.213-.188-.007-.222,0-.446-.027-.665a.9.9,0,0,0-.928-.909.883.883,0,0,0-.942.892c-.044.663-.01,1.331-.01,2Z" transform="translate(-631.886 -198.043)" fill="#fafcfd"/><path d="M428.932,3487.6c0-.837-.03-1.45.007-2.058a1.327,1.327,0,0,1,1.642-1.4,1.62,1.62,0,0,1,1.1,2.005.2.2,0,0,1-.224.113.16.16,0,0,1-.168-.175c-.008-.222,0-.445-.027-.665a.9.9,0,0,0-.916-.921.876.876,0,0,0-.953.877,35.988,35.988,0,0,0,.005,4.05.866.866,0,0,0,.932.839.9.9,0,0,0,.924-.853,7.972,7.972,0,0,0,.032-.887c0-.154.061-.247.232-.234.149.012.171.119.173.235a3.367,3.367,0,0,1-.136,1.315,1.214,1.214,0,0,1-1.316.8,1.186,1.186,0,0,1-1.209-.947A10.025,10.025,0,0,1,428.932,3487.6Z" transform="translate(-1054.043 -197.956)" fill="#fafcfd"/><path d="M-323.943,3487.7c0-.926.012-1.853-.007-2.779-.007-.332.082-.484.434-.444a5.421,5.421,0,0,0,.611,0c1.25,0,1.647.4,1.656,1.67,0,.111,0,.222,0,.333,0,1.412-.35,1.775-1.774,1.77-.378,0-.526.081-.5.486.035.573.019,1.149,0,1.722,0,.164.14.457-.221.442-.3-.012-.194-.268-.2-.426C-323.948,3489.552-323.943,3488.625-323.943,3487.7Z" transform="translate(-384.889 -198.264)" fill="#f9fcfd"/><path d="M91.511,3490.263q.571-2.592,1.142-5.185c.016-.072.026-.146.036-.219.024-.167.1-.294.286-.254.245.052.111.232.085.354q-.49,2.3-.99,4.6c-.078.361-.163.721-.229,1.084-.044.241-.107.392-.413.391-.289,0-.331-.161-.375-.365-.413-1.9-.829-3.789-1.236-5.685-.029-.135-.155-.353.13-.385.231-.026.251.16.288.327q.58,2.671,1.163,5.341Z" transform="translate(-752.605 -198.378)" fill="#fbfcfd"/><path d="M214.917,3484.224a1.289,1.289,0,0,1,1.324,1.442c-.011.14-.02.261-.2.258-.15,0-.176-.1-.184-.222,0-.019,0-.037,0-.056-.049-.464-.166-.89-.689-1.024a.835.835,0,0,0-.952.281,1.4,1.4,0,0,0-.1,1.474,3.244,3.244,0,0,0,1.192,1.137,2,2,0,0,1,.921,2.1,1.311,1.311,0,0,1-1.734,1.082,1.494,1.494,0,0,1-.97-1.722c.029-.1.064-.164.175-.168.13,0,.206.042.217.184a4.678,4.678,0,0,0,.072.659.836.836,0,0,0,.873.7.866.866,0,0,0,.933-.7,1.457,1.457,0,0,0-.492-1.6c-.364-.314-.761-.589-1.121-.906a1.787,1.787,0,0,1-.565-1.91A1.192,1.192,0,0,1,214.917,3484.224Z" transform="translate(-862.557 -198.046)" fill="#fbfcfd"/><path d="M-106.884,3487.736c0-.945.008-1.89,0-2.834,0-.281.074-.4.375-.391.611.019,1.223,0,1.834.007.136,0,.332-.05.323.186s-.206.167-.339.169c-.463.007-.927.018-1.389,0-.294-.012-.385.095-.377.383.018.63.022,1.261,0,1.89-.011.311.115.375.389.361.351-.019.7-.008,1.056,0,.137,0,.324-.044.311.2-.01.186-.16.171-.287.178-.074,0-.148,0-.222,0-1.24.013-1.251.013-1.234,1.232.006.472-.216,1.1.108,1.373.277.232.882.074,1.343.087.093,0,.186-.008.278,0,.148.017.377-.072.369.2s-.242.169-.382.172c-.593.012-1.186-.009-1.778.011-.3.009-.38-.1-.375-.384C-106.874,3489.625-106.884,3488.68-106.884,3487.736Z" transform="translate(-577.819 -198.3)" fill="#f9fbfd"/><path d="M61.084,3487.69c0-.908.02-1.816-.009-2.723-.013-.4.122-.511.5-.491.573.03,1.148.006,1.723.01.14,0,.325-.035.309.2-.013.194-.177.155-.3.156-.463,0-.927.016-1.389,0-.3-.012-.433.063-.42.4.025.629.018,1.26,0,1.89-.007.265.077.36.345.347.388-.019.778-.005,1.167,0,.11,0,.23,0,.243.156.015.18-.1.217-.246.218-.371,0-.741.014-1.111,0-.267-.01-.409.043-.4.36.021.666.018,1.334,0,2-.007.282.115.344.364.338.481-.012.963,0,1.445,0,.147,0,.315-.017.3.213-.011.2-.168.161-.288.162-.63,0-1.26-.013-1.89.008-.315.011-.364-.129-.361-.4C61.091,3489.58,61.084,3488.635,61.084,3487.69Z" transform="translate(-727.104 -198.268)" fill="#f9fbfd"/><path d="M136.1,3487.765c0-.945.014-1.89-.008-2.834-.008-.349.112-.448.447-.435.592.023,1.185,0,1.778.008.14,0,.325-.036.309.2-.013.194-.176.155-.3.156-.463.005-.927.017-1.389,0-.3-.012-.434.062-.421.4.025.629.018,1.26,0,1.889-.007.264.076.361.345.348.388-.019.778-.006,1.167,0,.11,0,.23,0,.243.155.015.181-.1.218-.245.219-.371,0-.741.013-1.111,0-.266-.01-.41.042-.4.36.021.666.018,1.334,0,2-.007.282.114.345.363.339.481-.012.963,0,1.445,0,.147,0,.315-.017.3.213-.011.2-.167.162-.287.162-.63,0-1.26-.013-1.889.008-.315.011-.365-.128-.361-.4C136.107,3489.617,136.1,3488.691,136.1,3487.765Z" transform="translate(-793.78 -198.287)" fill="#f9fbfd"/><path d="M400.1,3487.658c0-.926.013-1.853-.007-2.779-.007-.339.095-.458.439-.442.555.025,1.112,0,1.667.013.155,0,.438-.118.419.187-.017.281-.289.153-.448.161a10.627,10.627,0,0,1-1.222,0c-.356-.026-.441.115-.427.447.024.591.022,1.186,0,1.778-.011.3.065.437.395.412.368-.028.741-.006,1.111,0,.137,0,.268.012.25.2-.014.147-.123.168-.238.17-.389,0-.779.015-1.167,0-.266-.011-.355.087-.349.353q.023,1,0,2c-.007.274.1.354.356.346.463-.014.926-.009,1.389,0,.148,0,.371-.071.363.2-.006.239-.2.167-.334.168-.611.007-1.223-.011-1.834.009-.305.01-.373-.111-.369-.39C400.112,3489.548,400.1,3488.6,400.1,3487.658Z" transform="translate(-1028.427 -198.229)" fill="#f9fbfd"/><path d="M644.382,3487.932c.4-1.1.743-2.053,1.091-3.007.06-.166.089-.426.34-.337.287.1.063.31.015.457a13.639,13.639,0,0,1-.486,1.356,8.082,8.082,0,0,0-.766,4.142c.015.156.147.45-.214.449s-.234-.3-.213-.45c.268-1.894-.568-3.539-1.158-5.239-.042-.122-.1-.24-.134-.364s-.18-.287.055-.36c.174-.053.274.055.33.214q.222.627.449,1.253C643.9,3486.633,644.12,3487.217,644.382,3487.932Z" transform="translate(-1244.125 -198.351)" fill="#fbfcfd"/><path d="M-15.774,3487.955c.4-1.107.746-2.062,1.094-3.016.061-.166.093-.426.343-.333.28.1.057.313.009.46a13.717,13.717,0,0,1-.486,1.356,8.077,8.077,0,0,0-.764,4.142c.015.157.144.452-.219.445s-.229-.3-.208-.455c.26-1.932-.6-3.606-1.193-5.344-.061-.178-.385-.464-.032-.6.331-.126.333.267.409.467C-16.478,3485.991-16.153,3486.908-15.774,3487.955Z" transform="translate(-657.363 -198.368)" fill="#fbfcfd"/><path d="M-356.77,3487.962c.4-1.1.745-2.059,1.093-3.012.06-.166.089-.426.34-.337.286.1.062.311.014.458a13.61,13.61,0,0,1-.486,1.356,8.082,8.082,0,0,0-.766,4.142c.015.156.146.45-.215.449s-.233-.3-.212-.45c.264-1.933-.6-3.606-1.192-5.344-.062-.18-.383-.465-.037-.6s.336.262.411.462C-357.476,3485.995-357.151,3486.913-356.77,3487.962Z" transform="translate(-354.286 -198.376)" fill="#fbfcfd"/><path d="M370.351,3487.688c0-.851-.019-1.7.009-2.551.013-.393-.115-.5-.5-.5-.256,0-.74.2-.736-.173,0-.346.486-.151.75-.164.608-.031,1.22-.015,1.83-.006.147,0,.379-.077.371.191-.007.22-.211.156-.346.165-.95.062-.95.06-.95,1.019,0,1.479.009,2.958-.011,4.437,0,.2.212.611-.213.593-.386-.016-.188-.409-.2-.625C370.336,3489.278,370.351,3488.482,370.351,3487.688Z" transform="translate(-1000.9 -198.074)" fill="#f6fafd"/><path d="M-293.283,3487.732c0,.869.008,1.738-.007,2.606,0,.161.15.463-.214.445-.338-.016-.2-.3-.2-.471-.011-1.664-.027-3.328.006-4.991.01-.491-.118-.661-.612-.614-.216.021-.638.156-.635-.171s.417-.16.644-.168c.646-.024,1.294-.013,1.941,0,.147,0,.379-.078.375.188,0,.22-.208.159-.343.168-.953.063-.953.062-.953,1.016Z" transform="translate(-410.673 -198.145)" fill="#f6fafd"/><path d="M555.019,3487.868c0-.906-.007-1.813.006-2.719,0-.173-.127-.461.2-.475.353-.015.212.288.213.452.011,1.7.019,3.4,0,5.1,0,.389.105.522.494.491.4-.031.813-.009,1.22,0,.124,0,.272-.021.288.17.019.239-.156.2-.3.207a.933.933,0,0,1-.111,0,10.743,10.743,0,0,1-1.973-.074c-.014-.625-.031-1.251-.04-1.876C555.015,3488.719,555.019,3488.293,555.019,3487.868Z" transform="translate(-1166.108 -198.446)" fill="#f7fbfd"/><path d="M126.5,3487.822c0,.943.005,1.886-.005,2.829,0,.152.115.408-.209.4s-.212-.252-.213-.411q-.009-2.8,0-5.6c0-.165-.081-.412.222-.407s.2.261.2.416C126.5,3485.973,126.5,3486.9,126.5,3487.822Z" transform="translate(-784.861 -198.409)" fill="#f4f9fd"/><path d="M176.113,3532.2a.436.436,0,0,1-.154.481.72.72,0,0,1-.042-.468Z" transform="translate(-829.161 -240.691)" fill="#a4dafd"/><path d="M186.045,3496.692c-.026-.145-.058-.337.118-.359.131-.017.065.158.06.254Z" transform="translate(-838.161 -208.808)" fill="#94d3fd"/><path d="M-667.541,3323.746a3.5,3.5,0,0,1,2.072,2.818,4.4,4.4,0,0,1-4.161,4.814,9.6,9.6,0,0,1-2.486-.2c-.392-.083-.56.021-.642.421-.16.778-.388,1.542-.553,2.32-.073.342-.216.423-.535.324-.475-.147-1.138-.129-1.387-.445-.268-.339.134-.928.235-1.409.091-.434.2-.865.32-1.292.082-.3.05-.454-.3-.551-1.128-.312-1.125-.331-1.406.8-.143.574-.287,1.148-.414,1.727-.062.279-.161.385-.481.316-1.589-.345-1.591-.335-1.192-1.923.108-.431.184-.871.325-1.291.124-.37-.027-.483-.352-.562-1.006-.243-2-.522-3.013-.752-.338-.078-.444-.165-.276-.507.245-.5.462-1.009.659-1.527.1-.271.234-.317.5-.232.351.112.716.182,1.077.259a.678.678,0,0,0,.881-.548q1.073-4.277,2.117-8.562a.932.932,0,0,0-.672-1.178,10.8,10.8,0,0,0-1.231-.328c-.266-.061-.393-.179-.288-.459.013-.035.021-.071.032-.106.171-.524.077-1.3.49-1.523.352-.188,1,.183,1.523.309.647.158,1.3.308,1.938.481.275.074.389.019.453-.277.177-.812.4-1.614.587-2.426.069-.3.152-.447.506-.324.486.169,1.2.132,1.432.457s-.164.96-.264,1.463c-.032.163-.08.323-.121.484-.3,1.169-.292,1.15.92,1.42.315.07.381-.032.441-.282.19-.791.408-1.576.581-2.37.066-.306.149-.407.474-.3.489.163,1.188.122,1.441.446s-.147.956-.244,1.456a12.781,12.781,0,0,1-.335,1.345c-.085.274-.029.387.248.481a8.29,8.29,0,0,1,1.559.72,3.417,3.417,0,0,1,2,3.42A3.194,3.194,0,0,1-667.541,3323.746Z" transform="translate(-66.779 -44.857)" fill="#fefefe"/><path d="M-419.425,3276.232a3.8,3.8,0,0,0-2.253-3.58,3.42,3.42,0,0,0,1.869-2.637,9.761,9.761,0,0,0,.081-2.771c-.282-2.635-1.543-3.809-4.2-3.887-1.5-.044-3,.014-4.5-.033-.524-.016-.587.162-.586.619q.022,9.368.01,18.736a2.342,2.342,0,0,1,0,.278c-.029.244.075.319.314.316,1.816-.019,3.635.032,5.447-.054A3.769,3.769,0,0,0-419.54,3280,13.948,13.948,0,0,0-419.425,3276.232ZM-425.5,3266.2c.406.025.815,0,1.222.012a1.279,1.279,0,0,1,1.365,1.127,7.805,7.805,0,0,1,.008,2.818,1.462,1.462,0,0,1-1.4,1.282c-1.6.181-1.6.181-1.6-1.4v-1.223c0-.741.016-1.482-.007-2.223C-425.914,3266.275-425.806,3266.185-425.5,3266.2Zm2.93,12.936a1.309,1.309,0,0,1-1.4,1.285c-.535.032-1.073,0-1.609.018-.3.012-.327-.128-.325-.368.009-.907,0-1.813,0-2.72,0-.888.011-1.777-.007-2.664-.006-.29.075-.392.37-.375.443.025.888,0,1.332.019a1.515,1.515,0,0,1,1.618,1.427A14.187,14.187,0,0,1-422.567,3279.14Z" transform="translate(-291.509 -1.709)" fill="#fff"/><path d="M-84.661,3265.921a4.176,4.176,0,0,0-2.883-4.237,6.054,6.054,0,0,0-2.3-.252,4.107,4.107,0,0,0-3.966,2.992,6.057,6.057,0,0,0-.263,1.75q0,2.722,0,5.444h0c0,1.87-.038,3.742.012,5.61a4.389,4.389,0,0,0,1.912,3.862,4.736,4.736,0,0,0,7.482-3.781C-84.56,3273.515-84.6,3269.716-84.661,3265.921Zm-3.09,10.934a4.286,4.286,0,0,1-.076.825,1.42,1.42,0,0,1-1.54,1.285,1.437,1.437,0,0,1-1.528-1.241,3.4,3.4,0,0,1-.069-.826q0-2.637,0-5.273c0-1.776,0-3.552,0-5.329a3.339,3.339,0,0,1,.12-.987,1.385,1.385,0,0,1,1.52-1.022,1.377,1.377,0,0,1,1.457,1.035,3.794,3.794,0,0,1,.124,1.043Q-87.751,3271.61-87.751,3276.855Z" transform="translate(-589.197 -0.011)" fill="#fff"/><path d="M328.944,3490.5c0-.8.013-1.591-.007-2.386-.008-.312.088-.406.4-.413,1.26-.03,1.584.271,1.584,1.536,0,.961,0,1.923,0,2.885a1.269,1.269,0,0,1-1.808,1.279c-.248-.078-.167-.258-.168-.4C328.94,3492.168,328.944,3491.335,328.944,3490.5Z" transform="translate(-965.181 -201.138)" fill="#0199fd"/><path d="M-166.249,3488.865a2.807,2.807,0,0,1,.009-.606c.06-.264-.24-.668.228-.778.69-.162,1.384.088,1.532.551a2.868,2.868,0,0,1,.009,1.687,1.566,1.566,0,0,1-1.689.552c-.17-.131-.077-.345-.085-.521C-166.259,3489.455-166.249,3489.16-166.249,3488.865Z" transform="translate(-525.031 -200.897)" fill="#0199fd"/><path d="M33.711,3488.934a2.13,2.13,0,0,1,.011-.6c.084-.271-.287-.715.252-.81.846-.149,1.406.1,1.548.684a3.22,3.22,0,0,1,.008,1.424,1.45,1.45,0,0,1-1.709.7c-.148-.082-.106-.22-.108-.342C33.708,3489.634,33.711,3489.284,33.711,3488.934Z" transform="translate(-702.752 -200.938)" fill="#0199fd"/><path d="M-135.132,3489.144a7.623,7.623,0,0,0-.007-.884c-.053-.451.093-.606.566-.584,1.041.048,1.308.29,1.311,1.323,0,.129,0,.258,0,.387a1.263,1.263,0,0,1-1.727,1.123c-.173-.069-.139-.2-.141-.315C-135.136,3489.844-135.132,3489.493-135.132,3489.144Z" transform="translate(-552.702 -201.112)" fill="#0199fd"/><path d="M-385.318,3489.085a1.765,1.765,0,0,1,.01-.549c.1-.289-.335-.8.318-.858.964-.089,1.4.142,1.511.8a3.609,3.609,0,0,1-.008,1.264,1.442,1.442,0,0,1-1.732.738c-.116-.071-.1-.188-.1-.295C-385.319,3489.821-385.318,3489.453-385.318,3489.085Z" transform="translate(-330.315 -201.1)" fill="#0199fd"/><path d="M-257.226,3490.406c0,.574.022,1.149-.005,1.722-.037.756-.408,1.14-1.027,1.121-.585-.018-.918-.4-.93-1.146-.02-1.167-.021-2.334,0-3.5.015-.746.358-1.118.954-1.126s.936.372,1,1.1c0,.037,0,.074,0,.111q0,.862,0,1.723Z" transform="translate(-442.441 -200.937)" fill="#0199fd"/><path d="M527.891,3490.388c0-.63-.025-1.261.007-1.889.034-.667.377-1.01.94-1.02a.909.909,0,0,1,.98.981c.044,1.276.045,2.555,0,3.831a.9.9,0,0,1-1,.96c-.557-.015-.9-.366-.926-1.031C527.869,3491.611,527.891,3491,527.891,3490.388Z" transform="translate(-1142.004 -200.939)" fill="#0199fd"/><path d="M585.9,3490.315c0-.611-.026-1.224.007-1.833a.958.958,0,1,1,1.915-.041,30.429,30.429,0,0,1,0,3.885.9.9,0,0,1-1.019.934.917.917,0,0,1-.9-1C585.881,3491.613,585.9,3490.964,585.9,3490.315Z" transform="translate(-1193.565 -200.949)" fill="#0199fd"/><path d="M263.62,3494.412c.021-.16.027-.271.051-.378.262-1.187.526-2.374.8-3.625a3.532,3.532,0,0,1,.324,1.118c.192.844.372,1.692.579,2.533.064.258.048.369-.255.357C264.628,3494.4,264.132,3494.412,263.62,3494.412Z" transform="translate(-907.128 -203.544)" fill="#0199fd"/><path d="M-320.266,3488.981a3.734,3.734,0,0,1,.01-.72c.053-.266-.243-.672.229-.782.683-.159,1.368.074,1.507.521a3.324,3.324,0,0,1,.013,1.971,1.485,1.485,0,0,1-1.66.531c-.138-.086-.1-.229-.1-.353C-320.269,3489.759-320.266,3489.37-320.266,3488.981Z" transform="translate(-388.139 -200.894)" fill="#0199fd"/><path d="M-620.66,3422.82a14.605,14.605,0,0,1-3.053-.56c-.25-.062-.328-.167-.263-.425.307-1.2.6-2.4.9-3.6.039-.154.028-.369.339-.293a11.484,11.484,0,0,1,3.595,1.249,1.987,1.987,0,0,1,1.1,1.8,1.8,1.8,0,0,1-1.683,1.764C-620.03,3422.8-620.346,3422.8-620.66,3422.82Z" transform="translate(-118.213 -139.118)" fill="#0098fd"/><path d="M-607.352,3369.621a11.346,11.346,0,0,1-2.453-.438c-.262-.063-.272-.2-.223-.4q.4-1.615.8-3.23c.04-.158.072-.335.319-.278a7.531,7.531,0,0,1,3.183,1.218,1.711,1.711,0,0,1,.325,2.427A2.2,2.2,0,0,1-607.352,3369.621Z" transform="translate(-130.608 -92.31)" fill="#0098fd"/></g></svg>