<svg xmlns="http://www.w3.org/2000/svg" width="17.076" height="11.864" viewBox="0 0 17.076 11.864"><g transform="translate(0 0)"><path d="M241.211,314.448a4.676,4.676,0,0,1,.7.234l0,0a7.288,7.288,0,0,1,1.018-.323l7.646-2.6v-.606a1.828,1.828,0,0,0-1.827-1.827H235.329a1.827,1.827,0,0,0-1.826,1.827v.721l2.729.91Z" transform="translate(-233.503 -309.33)" fill="#fff"/><path d="M242.665,316.39a1.868,1.868,0,0,1-.873.189,7.424,7.424,0,0,1-1.2-.4l-7.093-2.364v6.353A1.826,1.826,0,0,0,235.329,322h13.423a1.827,1.827,0,0,0,1.827-1.827V313.7l-3.043,1.033Z" transform="translate(-233.503 -310.131)" fill="#fff"/></g></svg>