<svg xmlns="http://www.w3.org/2000/svg" width="45.362" height="45.363" viewBox="0 0 45.362 45.363"><g transform="translate(0)"><g transform="translate(4.24 4.24)"><path d="M71.812,51.957A14.034,14.034,0,1,0,71.8,71.812,14.053,14.053,0,0,0,71.812,51.957ZM70.58,70.58a12.289,12.289,0,1,1,0-17.383A12.3,12.3,0,0,1,70.58,70.58Z" transform="translate(-47.85 -47.85)" fill="#fff"/></g><g transform="translate(0 0)"><path d="M43.875,36.672l-6.716-6.716a.894.894,0,0,0-.62-.257.872.872,0,0,0-.62.257l-2.366,2.366L31.8,30.567a18.426,18.426,0,1,0-1.24,1.232l1.763,1.763-2.366,2.366a.877.877,0,0,0,0,1.232l6.716,6.716a5.093,5.093,0,0,0,7.2-7.2Zm-13.91-6.707A16.527,16.527,0,0,1,6.592,6.592,16.527,16.527,0,0,1,29.965,29.965ZM42.643,42.643a3.353,3.353,0,0,1-4.731,0l-3.606-3.606L35.44,37.9a.871.871,0,1,0-1.232-1.232l-1.134,1.134-1.258-1.258,2.366-2.366h0l2.366-2.366,6.1,6.1A3.353,3.353,0,0,1,42.643,42.643Z" transform="translate(0 0)" fill="#fff"/></g><g transform="translate(35.803 34.57)"><path d="M405.828,390.877a.483.483,0,0,0-.053-.159.491.491,0,0,0-.08-.151l-.106-.133a.5.5,0,0,0-.133-.106.491.491,0,0,0-.151-.08l-.159-.053a.759.759,0,0,0-.346,0,.483.483,0,0,0-.159.053.808.808,0,0,0-.151.08l-.133.106a.894.894,0,0,0-.257.62.91.91,0,0,0,.257.62.7.7,0,0,0,.133.106.492.492,0,0,0,.151.08l.159.053a1.083,1.083,0,0,0,.168.018.91.91,0,0,0,.62-.257.7.7,0,0,0,.106-.133.492.492,0,0,0,.08-.151,1.12,1.12,0,0,0,.053-.159,1.087,1.087,0,0,0,.018-.168A1.323,1.323,0,0,0,405.828,390.877Z" transform="translate(-404.1 -390.175)" fill="#fff"/></g><g transform="translate(10.425 10.884)"><path d="M132.734,134.159l-2.25-.691a4.725,4.725,0,0,0,.08-.868v-.115h1.914a.868.868,0,0,0,0-1.737h-1.914v-1.187h0l2.171-.673a.872.872,0,1,0-.514-1.666l-1.745.54a3.1,3.1,0,0,0-3-2.366h-.257l.789-1.187a.875.875,0,0,0-1.453-.975l-1.01,1.506-1.01-1.506a.875.875,0,1,0-1.453.975l.789,1.187h-.328a3.1,3.1,0,0,0-3,2.366l-1.745-.54a.872.872,0,0,0-.514,1.666l2.171.673v1.187h-1.914a.868.868,0,1,0,0,1.737h1.914v.115a4.653,4.653,0,0,0,.08.868l-2.242.691a.87.87,0,0,0,.257,1.7.857.857,0,0,0,.257-.035l2.321-.718a5.054,5.054,0,0,0,8.771,0l2.321.718a.858.858,0,0,0,.257.035.872.872,0,0,0,.833-.611A.859.859,0,0,0,132.734,134.159Zm-8.1,1.621a3.322,3.322,0,0,1-2.436-3.2v-1.258h2.436Zm4.182-3.19a3.33,3.33,0,0,1-2.437,3.2v-4.457h2.437Zm0-3.7h0v.7h-6.627v-1.116a1.356,1.356,0,0,1,1.356-1.356h3.925a1.356,1.356,0,0,1,1.356,1.356v.416Z" transform="translate(-117.66 -122.849)" fill="#fff"/></g></g></svg>