<svg xmlns="http://www.w3.org/2000/svg" width="20" height="20.714" viewBox="0 0 20 20.714"><g transform="translate(-8)"><path d="M23.536,337.429V336H8v.714a.714.714,0,0,0,.714.714Z" transform="translate(0 -321)" fill="#fff"/><path d="M156.2,384h-2.145l-.857,2.857H152v.714h4.2Z" transform="translate(-137.571 -366.857)" fill="#fff"/><path d="M344,337.429h4.286a.715.715,0,0,0,.557-.271l.013-.014a.718.718,0,0,0,.092-.171.711.711,0,0,0,.051-.258V336h-5Z" transform="translate(-321 -321)" fill="#fff"/><path d="M27.286,2.857h-.357V13.571h-.714V2.857H24.429a1.071,1.071,0,0,1-1.071-1.071V0H10.5a.714.714,0,0,0-.714.714V13.571H9.071V2.857H8.714A.714.714,0,0,0,8,3.571V14.286H28V3.571A.714.714,0,0,0,27.286,2.857ZM13.357.714h.714v.714h-.714Zm-1.429,0h.714v.714h-.714ZM10.5.714h.714v.714H10.5Zm0,1.429H22.643v.714H10.5Zm0,6.786h1.429v.714H10.5Zm11.786,2.857H10.5v-.714H21.929a.357.357,0,0,1,.357.357Zm3.094-1.162-2.15,1.912L22.756,12l1.851-1.643L22.286,8.295v.991a.357.357,0,0,1-.357.357H15.143V8.929h6.429V7.5a.357.357,0,0,1,.594-.267L25.38,10.09a.357.357,0,0,1,0,.534Zm.12-2.41H23.714V7.5H25.5Zm0-2.143H14.071a.357.357,0,0,1-.357-.357v-.99l-2.32,2.062,2.32,2.062v-.99a.357.357,0,0,1,.357-.357h6.786v.714H14.429V9.643a.357.357,0,0,1-.211.326.349.349,0,0,1-.146.031.358.358,0,0,1-.237-.09L10.62,7.053a.357.357,0,0,1,0-.534l3.214-2.857a.357.357,0,0,1,.594.267V5.357H25.5Z" fill="#fff"/><path d="M368.357,12.951h1.28L368,11.313v1.281A.357.357,0,0,0,368.357,12.951Z" transform="translate(-343.929 -10.808)" fill="#fff"/><path d="M244,387.572h4.2v-.714H247L246.145,384H244Z" transform="translate(-225.464 -366.858)" fill="#fff"/></g></svg>