<svg xmlns="http://www.w3.org/2000/svg" width="20" height="20" viewBox="0 0 20 20"><g transform="translate(-124 -41.005)"><circle cx="10" cy="10" r="10" transform="translate(124 41.005)" fill="#fff"/><g transform="translate(100.096 45.329)"><path d="M35.823,9.749l-.153.624q-.687.271-1.1.413a2.892,2.892,0,0,1-.951.142,1.9,1.9,0,0,1-1.294-.406,1.313,1.313,0,0,1-.462-1.031A3.646,3.646,0,0,1,31.9,9q.035-.254.112-.573L32.586,6.4q.076-.291.129-.552a2.4,2.4,0,0,0,.052-.475.735.735,0,0,0-.16-.542.905.905,0,0,0-.612-.153,1.6,1.6,0,0,0-.455.07c-.156.046-.289.091-.4.132l.153-.625q.563-.229,1.076-.392a3.219,3.219,0,0,1,.973-.163,1.852,1.852,0,0,1,1.274.4,1.325,1.325,0,0,1,.448,1.037c0,.088-.01.243-.031.465a3.11,3.11,0,0,1-.115.611l-.57,2.018a5.361,5.361,0,0,0-.125.556,2.861,2.861,0,0,0-.056.472.68.68,0,0,0,.18.548,1.014,1.014,0,0,0,.624.146,1.8,1.8,0,0,0,.472-.073A2.637,2.637,0,0,0,35.823,9.749Zm.145-8.473a1.181,1.181,0,0,1-.4.9,1.358,1.358,0,0,1-.96.372,1.373,1.373,0,0,1-.965-.372,1.178,1.178,0,0,1-.4-.9,1.19,1.19,0,0,1,.4-.9,1.425,1.425,0,0,1,1.925,0A1.192,1.192,0,0,1,35.968,1.276Z" fill="#15aeff"/></g></g></svg>