<svg xmlns="http://www.w3.org/2000/svg" width="12" height="13.773" viewBox="0 0 12 13.773"><g transform="translate(-4.312)"><g transform="translate(4.312)"><path d="M16.08,3.4,12.559.147A.458.458,0,0,0,12.282,0H8.656C7.545,0,6.779.578,6.779,1.414V2.467h-.69A1.617,1.617,0,0,0,4.312,3.982V12.2a1.671,1.671,0,0,0,1.777,1.568H12.1A1.582,1.582,0,0,0,13.768,12.2v-.9h.9a1.582,1.582,0,0,0,1.57-1.67V3.814c0-.006.05-.012.05-.017s.028-.012.028-.018A.389.389,0,0,0,16.08,3.4ZM12.535,1.37l2.292,1.919H12.535ZM12.946,12.2a.767.767,0,0,1-.848.746H6.089c-.478,0-.954-.284-.954-.746V3.982c0-.534.636-.693.954-.693H9.246V6.451c0,.227.287.333.514.333h3.186V12.2Zm-.47-6.243H10.068V3.931Zm2.189,4.522h-.9v-4.1a.375.375,0,0,0-.082-.3L10.1,2.778a.392.392,0,0,0-.356-.233c-.007,0-.008-.037-.015-.037s-.009-.041-.017-.041H7.6V1.413c0-.424.621-.591,1.055-.591h3.056V3.778c0,.227.287.333.514.333h3.186V9.636A.763.763,0,0,1,14.665,10.484Z" transform="translate(-4.312)" fill="#fff"/></g></g></svg>