<svg xmlns="http://www.w3.org/2000/svg" width="55" height="39.064" viewBox="0 0 55 39.064"><g transform="translate(0 -74.175)"><g transform="translate(18.761 110.008)"><rect width="36.112" height="3.231" fill="#fff"/></g><g transform="translate(18.634 97.634)"><path d="M183.9,296.158l-1.561-2.535-2.218,1.358.068-2.421h-3.033l.068,2.421-2.218-1.358-1.539,2.535,2.173,1.154-2.173,1.154L175.008,301l2.218-1.358-.068,2.421h3.033l-.068-2.421L182.34,301l1.561-2.535-2.173-1.154Z" transform="translate(-173.469 -292.56)" fill="#fff"/></g><g transform="translate(31.601 97.634)"><path d="M304.608,296.158l-1.561-2.535-2.218,1.358.068-2.421h-3.033l.068,2.421-2.218-1.358-1.539,2.535,2.173,1.154-2.173,1.154L295.714,301l2.218-1.358-.068,2.421H300.9l-.068-2.421L303.046,301l1.561-2.535-2.172-1.154Z" transform="translate(-294.175 -292.56)" fill="#fff"/></g><g transform="translate(44.567 97.634)"><path d="M425.314,296.158l-1.561-2.535-2.218,1.358.068-2.421H418.57l.068,2.421-2.218-1.358-1.539,2.535,2.173,1.154-2.173,1.154L416.42,301l2.218-1.358-.068,2.421H421.6l-.068-2.421L423.752,301l1.561-2.535-2.173-1.154Z" transform="translate(-414.881 -292.56)" fill="#fff"/></g><g transform="translate(18.761 89.108)"><rect width="36.112" height="3.231" fill="#fff"/></g><g transform="translate(18.634 76.735)"><path d="M183.9,101.6l-1.561-2.535-2.218,1.358L180.19,98h-3.033l.068,2.422-2.218-1.358-1.539,2.535,2.173,1.154-2.173,1.154,1.539,2.535,2.218-1.358-.068,2.421h3.033l-.068-2.421,2.218,1.358,1.561-2.535-2.173-1.154Z" transform="translate(-173.469 -98.002)" fill="#fff"/></g><g transform="translate(31.601 76.735)"><path d="M304.608,101.6l-1.561-2.535-2.218,1.358L300.9,98h-3.033l.068,2.422-2.218-1.358-1.539,2.535,2.173,1.154-2.173,1.154,1.539,2.535,2.218-1.358-.068,2.421H300.9l-.068-2.421,2.218,1.358,1.561-2.535-2.172-1.154Z" transform="translate(-294.175 -98.002)" fill="#fff"/></g><g transform="translate(44.567 76.735)"><path d="M425.314,101.6l-1.561-2.535-2.218,1.358L421.6,98H418.57l.068,2.422-2.218-1.358-1.539,2.535,2.173,1.154-2.173,1.154,1.539,2.535,2.218-1.358-.068,2.421H421.6l-.068-2.421,2.218,1.358,1.561-2.535-2.173-1.154Z" transform="translate(-414.881 -98.002)" fill="#fff"/></g><g transform="translate(0.259 96.001)"><path d="M15.41,284.943v-2.136h0a5.456,5.456,0,1,0-10.912,0v2.136H2.41v9.646H17.5v-9.646Zm-7.682-2.136a2.226,2.226,0,0,1,4.451,0v2.136H7.728Zm6.538,8.551H5.641v-3.185h8.626Z" transform="translate(-2.41 -277.351)" fill="#fff"/></g><g transform="translate(0 74.175)"><path d="M15.364,87.7a7.822,7.822,0,0,0-3.338-4.546,5.483,5.483,0,1,0-8.448,0A7.824,7.824,0,0,0,.241,87.7L0,88.588l3.678,3.751h8.249l3.678-3.751ZM7.8,77.406a2.252,2.252,0,1,1-2.252,2.252A2.255,2.255,0,0,1,7.8,77.406Zm2.768,11.7H5.035L3.669,87.716a4.6,4.6,0,0,1,8.266,0Z" transform="translate(0 -74.175)" fill="#fff"/></g></g></svg>