<svg xmlns="http://www.w3.org/2000/svg" width="16.429" height="20" viewBox="0 0 16.429 20"><g transform="translate(-45.715)"><g transform="translate(45.715 14.674)"><path d="M48.191,375.653l-2.476,3.183,2.857-.357.714,2.5,2.5-3.214.011-.015a10.95,10.95,0,0,0-1.619-1.346A11.05,11.05,0,0,0,48.191,375.653Z" transform="translate(-45.715 -375.653)" fill="#373a4a"/><path d="M314.181,375.653a11.07,11.07,0,0,0-1.989.75,10.925,10.925,0,0,0-1.618,1.346l2.511,3.23.714-2.5,2.857.357Z" transform="translate(-300.228 -375.653)" fill="#373a4a"/></g><path d="M66.866,8.929c0-1.5.932-3.257.233-4.464-.721-1.247-2.737-1.31-3.983-2.031C61.908,1.732,60.862,0,59.366,0s-2.542,1.733-3.75,2.432c-1.247.721-3.262.786-3.983,2.031-.7,1.208.233,2.969.233,4.465s-.932,3.257-.233,4.464c.721,1.247,2.737,1.31,3.983,2.031,1.208.7,2.254,2.433,3.75,2.433s2.542-1.733,3.75-2.432c1.247-.721,3.262-.786,3.983-2.031C67.8,12.186,66.866,10.425,66.866,8.929Z" transform="translate(-5.437)" fill="#383b4a"/><circle cx="6.071" cy="6.071" r="6.071" transform="translate(47.858 2.857)" fill="#43475a"/><path d="M163.586,128.7h-2.447l-.756-2.327a.357.357,0,0,0-.679,0l-.757,2.327H156.5a.357.357,0,0,0-.21.646l1.98,1.439-.756,2.328a.357.357,0,0,0,.55.4l1.98-1.439,1.98,1.439a.357.357,0,0,0,.55-.4l-.756-2.328,1.98-1.439a.357.357,0,0,0-.21-.646Z" transform="translate(-106.113 -121.198)" fill="#383b4a"/></g></svg>