<svg xmlns="http://www.w3.org/2000/svg" width="160" height="38.664" viewBox="0 0 160 38.664"><g transform="translate(826.767 -4252.729)"><g transform="translate(-826.767 4252.729)"><path d="M-346.539,4335.305c1.2-3.948,2.4-7.893,3.583-11.846a.739.739,0,0,1,.854-.645c1.437.022,1.437,0,.974,1.394-1.447,4.364-2.935,8.715-4.309,13.1-.331,1.055-1.021.707-1.664.8-.659.1-.827-.263-.988-.8-1.073-3.587-2.176-7.167-3.27-10.748-.095-.312-.2-.62-.369-1.152-.673,2.141-1.281,4.065-1.884,5.992-.633,2.022-1.277,4.042-1.88,6.074a.756.756,0,0,1-.871.639c-1.4-.009-1.4.014-1.846-1.334-1.45-4.39-2.886-8.784-4.368-13.163-.244-.722-.06-.827.615-.8,1.292.043,1.291.011,1.656,1.215q1.678,5.529,3.36,11.055c.062.2.148.4.283.754.322-1.04.6-1.926.87-2.815.953-3.162,1.946-6.314,2.828-9.5.267-.963.9-.624,1.464-.7.594-.084.86.134,1.033.731,1.134,3.912,2.312,7.811,3.48,11.712a.789.789,0,0,0,.142.2C-346.646,4335.592-346.615,4335.406-346.539,4335.305Z" transform="translate(439.427 -4311.217)" fill="#fff"/><path d="M-755.552,4340.478a39.393,39.393,0,0,1-3.6-1.956c-.029-.63.451-.98.816-1.349a29.323,29.323,0,0,1,2.67-2.577c1.084-.851,1.83-2.052,2.849-2.979.273-.249.06-.746.493-.894,1.171-.075,2.345.037,3.515-.06a.836.836,0,0,0,.268-.283q4.025-5.949,8.237-11.768c.556.129.214.45.1.65a9.367,9.367,0,0,1-1.388,1.838,19.072,19.072,0,0,1,1.435-1.454,36.587,36.587,0,0,1,2.736-2.735c1.073-.815,1.011-1.85.8-2.962-.04-.211-.172-.412-.028-.629l.124-.174c.347-.119.232.253.374.353q.011.3.021.6c.188.9-.076,1.815.146,2.709l-.006.168a8.954,8.954,0,0,0,.026,2.658,1.96,1.96,0,0,1-.713,2.087c-2.02,1.9-3.965,3.89-5.916,5.868-2.314,2.348-4.653,4.673-6.987,7a45.462,45.462,0,0,1-3.9,3.782,10.083,10.083,0,0,0-1.554,1.9C-755.182,4340.471-755.3,4340.589-755.552,4340.478Z" transform="translate(770.333 -4303.135)" fill="#1996b3"/><path d="M-810.8,4253.485c1.434-1.23,2.8-.8,4.141.173a3.837,3.837,0,0,0,.785.452c.6.322.619.488.1.953-1.534,1.384-2.877,2.969-4.381,4.368-2.6,2.421-4.966,5.078-7.615,7.444a5.493,5.493,0,0,0-.776.853,35.143,35.143,0,0,1-3.683,3.664c-.967.982-1.835,2.055-2.835,3-.255.242-.607.736-.936.026-.025-1.8-.015-3.592-.005-5.386.133-.589.5-.427.633-.09.176.447.31.235.5.081a3.412,3.412,0,0,0,.471-.462c1.795-2.2,4.033-3.963,5.952-6.045a21.126,21.126,0,0,1,2.94-2.874,12.579,12.579,0,0,0,1.739-1.867c.923-1.021,2.023-1.857,2.985-2.84a4.686,4.686,0,0,0,.933-1.109c-.226.028-.285.185-.383.277-.309.291-.648.51-.975.076C-811.579,4253.688-810.911,4253.735-810.8,4253.485Z" transform="translate(826.137 -4252.73)" fill="#11acb3"/><path d="M-531.543,4337.866a1.906,1.906,0,0,1-2.576-.719q-3.768-5.228-7.543-10.45c-.091-.125-.138-.305-.348-.336-.2.2-.089.461-.09.688-.009,3.416-.02,6.832.007,10.248,0,.583-.162.757-.741.735-1.535-.058-1.242.169-1.273-1.26-.007-.33,0-.661,0-.992,0-4.1.011-8.208-.013-12.312,0-.568.139-.705.72-.751a2.148,2.148,0,0,1,2.15,1.094c2.383,3.408,4.845,6.76,7.283,10.128.122.168.185.407.452.452.2-.244.088-.528.089-.788.009-3.305.028-6.611-.01-9.917-.008-.733.151-1.112.935-.936.328.074.753-.252.984.23-.153.161-.1.363-.1.55q0,6.927,0,13.855A.829.829,0,0,0-531.543,4337.866Z" transform="translate(590.864 -4311.133)" fill="#fff"/><path d="M-737.387,4369.7a3,3,0,0,0,1.008-1.141c.543-.921,1.448-1.416,2.1-2.179,1.439-1.683,3.124-3.126,4.656-4.719,1.4-1.452,2.857-2.87,4.317-4.273,2.259-2.171,4.421-4.442,6.674-6.62.545-.526,1-.979.8-1.79a1.013,1.013,0,0,1,.046-.844,29.306,29.306,0,0,1,.095,4.512,25.058,25.058,0,0,1-.091,4.185c-.456-.547-.176-1.2-.257-1.8a1.335,1.335,0,0,1,.138-.579c.029-1.135,0-2.271.01-3.407,0,1.042-.006,2.083,0,3.124a1.555,1.555,0,0,1-.613,1.128c-2.177,2.136-4.2,4.428-6.506,6.437-.721.627-1.276,1.436-1.97,2.107q-2.728,2.635-5.364,5.364c-.175.18-.577.36-.109.663a11.183,11.183,0,0,1-2.024,1.052.714.714,0,0,1-.7.018A18.371,18.371,0,0,1-737.387,4369.7Z" transform="translate(752.168 -4332.353)" fill="#1c92b3"/><path d="M-215.884,4337.355a8.023,8.023,0,0,1-4.87-1.958.5.5,0,0,1-.144-.773,3.985,3.985,0,0,0,.368-.737c.184-.487.355-.544.8-.174a6.95,6.95,0,0,0,4.926,1.775,4.922,4.922,0,0,0,.575-.058,2.407,2.407,0,0,0,2.271-1.942,2.327,2.327,0,0,0-1.779-2.471c-1.234-.47-2.506-.837-3.737-1.313a3.744,3.744,0,0,1-2.753-4.021,3.888,3.888,0,0,1,3.192-3.542,8.819,8.819,0,0,1,6.4.811c.5.257.577.513.324,1.024-.554,1.121-.522,1.131-1.611.62a6.859,6.859,0,0,0-4.089-.691,2.131,2.131,0,0,0-1.976,1.61,2.154,2.154,0,0,0,1.33,2.254,20.262,20.262,0,0,0,2.931,1.106c.545.191,1.093.38,1.619.618a3.612,3.612,0,0,1,2.349,3.129,3.871,3.871,0,0,1-1.766,3.838,5.021,5.021,0,0,1-3.032.9A3.431,3.431,0,0,0-215.884,4337.355Z" transform="translate(321.195 -4310.432)" fill="#fff"/><path d="M-437.2,4338.107c-1.516,0-3.031-.013-4.547.008-.5.007-.735-.076-.732-.67q.038-6.986,0-13.971c0-.514.16-.655.658-.652,3,.02,6.008.042,9.011-.011.832-.015.712.441.7.933-.011.469.17.975-.683.953-2.286-.058-4.574,0-6.861-.036-.66-.012-.862.176-.829.833.053,1.072.052,2.151,0,3.223-.031.644.205.789.806.778,1.984-.033,3.97.035,5.951-.035.844-.029.75.417.763.957.013.574.031.968-.784.942-2.009-.065-4.023-.005-6.034-.032-.539-.007-.718.152-.7.7.04,1.184.043,2.371,0,3.554-.021.579.21.688.724.683,2.4-.021,4.8.032,7.192-.031.886-.023.709.489.735.992.028.542.03.934-.744.9C-434.113,4338.061-435.658,4338.107-437.2,4338.107Z" transform="translate(506.032 -4311.221)" fill="#fff"/><path d="M-825.886,4279.352a3.244,3.244,0,0,0,1.476-1.259,39.689,39.689,0,0,1,4.074-4.068c.535-.461.941-1.069,1.442-1.575,1.795-1.814,3.6-3.613,5.409-5.417l6.506-6.507c.058-.058.114-.12.176-.175.387-.346,1-.631,1.109-1.05.161-.6-.85-.423-1.007-.962a15.739,15.739,0,0,1,2.809,1.5c.465.31.223.619-.034.877a57.875,57.875,0,0,1-4.7,4.684,14.45,14.45,0,0,0-2.495,3c-.662.106-1.333-.019-2,.075a.467.467,0,0,0-.192.152l-3.291,4.624c-.159.056-.249-.177-.513.05-1.936,1.669-3.658,3.548-5.448,5.364a33.145,33.145,0,0,0-3.006,3.044c-.148.194-.382.307-.4-.12C-825.854,4280.843-826.292,4280.082-825.886,4279.352Z" transform="translate(826.179 -4257.412)" fill="#15aab4"/><path d="M-97.694,4375.421a3.329,3.329,0,0,1,.691,3c-.188-.272-.058-.578-.073-.687.032.107-.135.417.074.687-.133,1.675-1.405,2.927-3.461,3.388a6.214,6.214,0,0,1-.806.078c-2.385.147-4.771.034-7.157.052-.351,0-.773.2-1.064-.193-.02-1.981-.027-3.963,0-5.943.944-.569,1.962-.282,2.949-.216.3.02.3.422.311.694.028.713.011,1.428.012,2.142,0,.461.183.743.676.731a29.527,29.527,0,0,0,3.287-.064,4.947,4.947,0,0,0,.816-.375,1.5,1.5,0,0,0,.741-2.005c-.094-.25-.286-.475-.191-.773a.892.892,0,0,1,.916-.409C-99.209,4375.53-98.451,4375.478-97.694,4375.421Z" transform="translate(228.124 -4355.131)" fill="#15a2bf"/><path d="M-810.419,4256.8c.06.274-.675.3-.221.686.373.314.511-.109.728-.27s.244-.72.631-.434c.414.307-.069.625-.232.807a21.642,21.642,0,0,1-2.04,2.014,17.185,17.185,0,0,0-2.046,2.023,11.3,11.3,0,0,1-1.286,1.38c-1.416,1.208-2.645,2.595-3.928,3.932-.72.75-1.544,1.4-2.276,2.137-1.081,1.09-2.114,2.227-3.182,3.33-.563.582-.567.564-.849-.161-.039-.1-.224-.143-.342-.212a26.7,26.7,0,0,1-.082-3.244c.424-.15.433.567.86.3a1.589,1.589,0,0,0,.583-.773c.4-.875,1.3-1.235,1.958-1.85,1.14-1.071,2.258-2.152,3.29-3.332.607-.694,1.395-1.217,1.949-1.987a2.306,2.306,0,0,0,.512-1.079A59.444,59.444,0,0,1-810.419,4256.8Z" transform="translate(825.756 -4256.045)" fill="#13afb3"/><path d="M-97.739,4345.272c-.611.623-1.384.213-2.076.323-.38.061-.841-.142-1.065.365a18.383,18.383,0,0,0-4.258-.277c-.868.022-.926.078-.939.955-.007.468.013.938,0,1.405-.019.571.257.787.8.781.744-.008,1.488-.011,2.231,0a1.374,1.374,0,0,1,1.018.231,4.743,4.743,0,0,1-2.244.167c-2.221.035-2.221.013-2.221-2.206,0-1.421,0-1.421-1.411-1.421h-1.563c-.187-1.644-.028-3.294-.081-4.94-.012-.377.209-.471.524-.47.784,0,1.57.166,2.238-.525.268-.277.451.163.487.426a10.18,10.18,0,0,1,.031,1.733c-.02.617.2.947.859.9a14.625,14.625,0,0,0,3.2-.149,3.853,3.853,0,0,0,1.146-1.041c.261-.337.137-.708.093-1.072a.586.586,0,0,1,.044-.237c.528-.3,1.041.074,1.572.042.643-.039,1.275.041,1.381-.841.013-.111.14-.15.26-.115a3.634,3.634,0,0,1-2.139,4.428C-99.035,4344.16-98.134,4344.4-97.739,4345.272Z" transform="translate(228.17 -4324.982)" fill="#18a4bb"/><path d="M-775.039,4410.967c.295.418.04.676-.232.989-1.562,1.8-3.367,3.354-5.051,5.03a11,11,0,0,0-1.356,1.639l-4.465-2.485c.222-.63.847-.861,1.289-1.265a43.621,43.621,0,0,0,3.6-3.621,9.915,9.915,0,0,1,2.459-2.155c.507.29.22.817.365,1.215a.579.579,0,0,0,.1.175c.047.048.1.095.148.139q3.2.009,6.407.018a1.075,1.075,0,0,0,.7-.163l0,.319a31.614,31.614,0,0,1-3.866.074c-1.014.02-2.029.026-2.912-.006C-777,4410.977-776.012,4410.771-775.039,4410.967Z" transform="translate(792.861 -4383.239)" fill="#1a9bb3"/><path d="M-740.172,4332.4q2.427-3.4,4.856-6.8a2.728,2.728,0,0,1,.28-.294c.565.114.4.584.4.92.035,2.074-.01,4.148.029,6.22a.955.955,0,0,0,.085.248c.046.071.093.144.141.216l-5.26,7.3c-.557-.13-.39-.6-.395-.937-.025-1.865-.01-3.731-.013-5.6a7.114,7.114,0,0,0-.036-.986C-740.111,4332.6-740.141,4332.5-740.172,4332.4Z" transform="translate(754.493 -4313.304)" fill="#9ed5dc"/><path d="M-10.748,4325.711c-.691.367-1.43.085-2.144.155-.733.072-1.679-.3-2.154.143-.524.488-.167,1.456-.173,2.211q-.036,4.657,0,9.316c0,.576-.163.8-.744.739a10.443,10.443,0,0,1-2.6-.145,2.844,2.844,0,0,1,1.747-.269c1.161-.019,1.166-.017,1.174-1.2.01-1.475-.025-2.949.017-4.423-.014-1.539-.018-3.079,0-4.617.008-.579-.175-.83-.769-.686-.105.025.025-.013-.081.011-.523.118-1.211-.3-1.547.166-.3.412-.081,1.067-.091,1.614-.019,1.127.012,2.254-.009,3.382.055,1.647.037,3.295.008,4.94-.006.34.151.867-.5.895.008-3.8.006-7.6.033-11.393,0-.565-.222-.7-.736-.682-1.072.03-2.147-.016-3.219.02-.52.017-.639-.172-.647-.664C-23.2,4323-23.219,4323-21.051,4323q4.623,0,9.247,0c.3,0,.6.046.9.071C-10.677,4323.943-10.981,4324.843-10.748,4325.711Z" transform="translate(156.069 -4311.379)" fill="#1ba6b9"/><path d="M61.005,4326.416c1.261-3.821,5.948-5.932,9.991-4.5a8.645,8.645,0,0,1,2.848,1.637c.361.315.485.578.085.93a1.515,1.515,0,0,0-.16.19c-.435.533-.776,1.327-1.331,1.526s-.968-.686-1.508-1.021a4.582,4.582,0,0,0-6.6,1.778,6.64,6.64,0,0,1-2.872.12C61.07,4327.06,61.054,4326.708,61.005,4326.416Z" transform="translate(85.81 -4310.098)" fill="#1aa5b9"/><path d="M-710.658,4401.5l-.613.087c0-.379.265-.576.483-.794q2.266-2.273,4.538-4.541,3.9-3.9,7.808-7.812c.767-.77,1.511-1.562,2.266-2.345.04-.073.086-.081.139-.013l.01.522c-.153.781-.053,1.577-.133,2.365a1.586,1.586,0,0,1-.553,1.134c-1.535,1.333-2.917,2.818-4.318,4.29-.98,1.029-2.077,1.954-3.069,2.98-.217.224-.551.4-.484.8Q-707.547,4399.974-710.658,4401.5Z" transform="translate(730.371 -4363.99)" fill="#188fb3"/><path d="M-102.453,4328.988a1.012,1.012,0,0,1-.885.339c-1.018,0-2.037-.026-3.054.009-.553.02-.7-.191-.7-.719a11.52,11.52,0,0,0-.109-2.7c-.461,1.346-1.453.951-2.2.877-.662-.065-.664.158-.66.635.014,1.513.006,3.027.006,4.541q0,2.977,0,5.952c-.056.076-.112.081-.168,0q-.018-7.184-.042-14.368c0-.417.12-.591.561-.586,2.422.028,4.845.019,7.267.057a5.181,5.181,0,0,1,2.667.778,2.708,2.708,0,0,1,1.469,1.878c-.47,1.173-.47,1.169-1.9,1.164a1.828,1.828,0,0,1-.952-.176c-.216-.125-.29.008-.33.192-.516-.084-.757-.619-1.25-.754a11.843,11.843,0,0,0-3.522-.139c-.354.01-.4.323-.411.611-.015.522.011,1.045-.009,1.566-.022.575.257.785.8.771.879-.021,1.759.034,2.637-.039C-102.971,4328.859-102.692,4328.778-102.453,4328.988Z" transform="translate(228.759 -4311.354)" fill="#1aa5b9"/><path d="M64.489,4377.375a4.808,4.808,0,0,0,3.745,3.352,4.883,4.883,0,0,0,4.039-1.267c.458-.379.733-.424,1.1.082a11.018,11.018,0,0,0,1.1,1.231c.263.268.3.46,0,.743-4.4,4.093-10.643,2.537-12.731-1.954a2.32,2.32,0,0,1-.1-.31c-.111-.281-.034-.386.286-.4.66-.023,1.32-.055,1.98-.038.469.013.688-.084.429-.609C64.207,4377.938,63.924,4377.557,64.489,4377.375Z" transform="translate(85.317 -4356.762)" fill="#14a2bf"/><path d="M-784.826,4377.686c-2.1,1.871-3.78,4.159-5.984,5.924a7.44,7.44,0,0,1-1.316,1.067c-1.472-.739-1.476-.741-.546-2.082q3.641-5.246,7.29-10.486c.171-.246.37-.472.555-.707a.773.773,0,0,1,.37.694,34.264,34.264,0,0,1-.18,5.234A.606.606,0,0,1-784.826,4377.686Z" transform="translate(798.844 -4351.777)" fill="#1ba0b4"/><path d="M-697.706,4285.989c1.568.727,1.568.727.62,2.094q-3.452,4.972-6.905,9.943c-.108.156-.237.3-.356.446a.6.6,0,0,0-.29.139c-.185.136-.2.54-.51.439s-.276-.449-.274-.714c.014-1.673-.078-3.347.047-5.018a29.115,29.115,0,0,1,2.774-2.8,22.267,22.267,0,0,0,2.128-2.286,4.752,4.752,0,0,1,1.022-.952,3.234,3.234,0,0,0,1.132-1.06C-698.185,4285.989-698,4285.845-697.706,4285.989Z" transform="translate(725.505 -4280.44)" fill="#1ba1b4"/><path d="M-817.4,4277.069a.6.6,0,0,1-.035.892c-1.238,1.52-2.731,2.794-4.043,4.246a11.715,11.715,0,0,1-2.624,2.283,1.679,1.679,0,0,0-.917,1.2c-.065.458-.535.63-.891.784-.555.241-.249-.465-.562-.6v3.152q0,2.977,0,5.953,0,1.239,0,2.48c.444.563.128,1.229.25,1.837-.051.62.189,1.283-.271,1.843a43.264,43.264,0,0,1-.239-5.594c-.1-3.716.06-7.434.1-11.151a3,3,0,0,1,1.617-2.854C-822.483,4280.042-820.012,4278.439-817.4,4277.069Z" transform="translate(826.767 -4273.044)" fill="#18b2b3"/><path d="M-735.387,4275.829a.493.493,0,0,1,.069-.61,21.72,21.72,0,0,1,2.983-3.156c1.5-1.2,2.644-2.765,4.042-4.073.215-.2.119-.394.016-.595a16.3,16.3,0,0,1,2.648,1.48c.384.285.144.546-.069.749a22.453,22.453,0,0,1-1.964,1.99,41.32,41.32,0,0,0-3.814,3.862c-.215.207-.359.5-.71.511-.813.017-1.624.009-2.435,0C-734.883,4275.988-735.167,4276.052-735.387,4275.829Z" transform="translate(750.563 -4264.969)" fill="#18a7b4"/><path d="M-714,4283.3a2.753,2.753,0,0,1,.387-.62c1.419-1.309,2.518-2.932,4.124-4.068a13.6,13.6,0,0,0,1.751-1.819c.151-.157.077-.3.025-.448a18.592,18.592,0,0,1,2.864,1.643c-.8.941-1.935,1.528-2.706,2.507-1.322,1.679-3.01,3-4.484,4.53-.065.067-.2.064-.306.094-.346-.36-.133-.84-.27-1.246l-.054-.1-.059-.1a.47.47,0,0,0-.152-.168C-713.242,4283.367-713.673,4283.616-714,4283.3Z" transform="translate(732.65 -4272.439)" fill="#1aa5b4"/><path d="M-672.392,4401.047c-.427-.062-.352-.268-.125-.483,1-.944,1.907-1.97,2.948-2.872.74-.642,1.345-1.437,2.051-2.122a35.533,35.533,0,0,1,2.973-2.843c.667-.514.37-1.373.553-2.064.1-.385-.137-.823.157-1.189q.021.93.041,1.86-.014.8-.029,1.6c-.216.671.037,1.375-.145,2.047a1.821,1.821,0,0,1-.929,1.583c-2.181,1.455-4.44,2.774-6.744,4.021C-671.9,4400.727-672.142,4400.893-672.392,4401.047Z" transform="translate(698.179 -4366.86)" fill="#178db3"/><path d="M61.1,4355.7c-.416.49.077.816.263,1.143.255.447.113.517-.3.516-.867,0-1.735.029-2.6,0-.245-.009-.167.126-.211.222a7.716,7.716,0,0,1-.146-6.171.85.85,0,0,0,.892.511c.81-.039,1.624.015,2.436.03A6.076,6.076,0,0,0,61.1,4355.7Z" transform="translate(88.701 -4335.084)" fill="#17a3bc"/><path d="M7.385,4376.972c0,1.755-.009,3.511.023,5.266.01.555-.2.711-.72.692-.822-.029-1.645,0-2.468.007-.131-.038-.144-.1-.043-.191.379-.171.238-.515.24-.79.012-1.717.007-3.435.007-5.152A5.529,5.529,0,0,1,7.385,4376.972Z" transform="translate(133.296 -4356.186)" fill="#15a2bf"/><path d="M-824.987,4357.817q0-.909,0-1.817a38.621,38.621,0,0,1,3.16-3.31c1.4-1.58,3.1-2.849,4.414-4.506a6.76,6.76,0,0,1,1.174-.887c.284-.233.371.035.538.118-1.36,2.09-2.8,4.126-4.291,6.124-.611-.113-.085-.464-.165-.771a22.239,22.239,0,0,0-3.271,3.264C-823.881,4356.691-824.48,4357.211-824.987,4357.817Z" transform="translate(825.284 -4331.58)" fill="#16a9b4"/><path d="M-825.163,4384.729a11.983,11.983,0,0,1,2.268-2.944,20.524,20.524,0,0,1,2.059-1.961,1.4,1.4,0,0,1,.762-.375c.315.4-.565.614-.1,1l-4.863,7.072a1.646,1.646,0,0,1-.154-.931Q-825.175,4385.661-825.163,4384.729Z" transform="translate(825.46 -4358.493)" fill="#18a8b4"/><path d="M-650.466,4314.318a4.7,4.7,0,0,1,.337,2.481.694.694,0,0,1-.257.565q-2.142,2.036-4.155,4.2a4.666,4.666,0,0,1-1.36,1.02c.558-.79,1.125-1.574,1.668-2.374.112-.165.465-.335.106-.6Z" transform="translate(684.159 -4304.133)" fill="#1b99b4"/><path d="M-468.909,4339.257c-.241-.222-.151-.514-.151-.777q-.008-6.672,0-13.345c0-.262-.092-.559.177-.763.014,4.06.036,8.121.036,12.181A16.012,16.012,0,0,1-468.909,4339.257Z" transform="translate(528.229 -4312.524)" fill="#fff"/><path d="M-706.2,4320.4c.336.464.093.994.167,1.488v5.778c.462.133.322-.767.855-.427l-.857,1.262c-.386-.047-.377-.365-.381-.623q-.041-3.39,0-6.779A1.121,1.121,0,0,1-706.2,4320.4Z" transform="translate(726.337 -4309.212)" fill="#169fb2"/><path d="M-742,4376.075c.055-1.64.106-3.28.168-4.919a3.971,3.971,0,0,0-.168-1.364l.178-.319c.375.033.308.332.31.557.019,2.358,0,4.717.012,7.076a.719.719,0,0,1-.162.457C-742.09,4377.137-741.583,4376.5-742,4376.075Z" transform="translate(756.018 -4350.166)" fill="#169db2"/><path d="M-706.731,4320.367c0,2.417,0,4.833.006,7.249,0,.287-.116.611.16.853l-.186.313-.052-.008-.052.007c-.249-.208-.2-.5-.2-.769-.012-2.259.013-4.519-.015-6.778a2.028,2.028,0,0,1,.188-.874Z" transform="translate(726.866 -4309.176)" fill="#42b1c0"/><path d="M-740.765,4376.522c0-2.411,0-4.823-.013-7.234,0-.286.118-.608-.147-.854l.125-.206.2.029a18.864,18.864,0,0,1,.073,2.946c.026,1.59-.011,3.181.018,4.771a.915.915,0,0,1-.1.555A1.371,1.371,0,0,1-740.765,4376.522Z" transform="translate(755.121 -4349.127)" fill="#63bdca"/><path d="M-739.022,4376.673q0-4.135.006-8.272c.267.244.157.565.158.853.009,2.027,0,4.054.01,6.08,0,.287-.108.611.17.848l-.17.479Z" transform="translate(753.533 -4349.272)" fill="#abdae1"/><path d="M-708.771,4330.5c-.267-.244-.157-.566-.158-.854-.009-1.975,0-3.949-.009-5.924,0-.287.107-.612-.181-.844a.586.586,0,0,1,.35-.482,32.017,32.017,0,0,1,.07,4.176A27.779,27.779,0,0,1-708.771,4330.5Z" transform="translate(728.575 -4310.872)" fill="#a7d8de"/><path d="M-707.078,4328.626q0-4.053,0-8.1l-.014-.312a.126.126,0,0,1,.188-.029l0,.005q.014,4.21.028,8.42Z" transform="translate(726.882 -4309.001)" fill="#96d1d9"/><path d="M-110.016,4413.4h.168c.242.269.564.158.851.16,2.434.014,4.869.016,7.3.021a7.31,7.31,0,0,1-2.2.132q-2.716.023-5.432,0C-109.574,4413.706-109.972,4413.905-110.016,4413.4Z" transform="translate(228.549 -4386.828)" fill="#18a4bb"/><path d="M-741.88,4319.033l-.188.028-6.92,0-.01-.185a19.676,19.676,0,0,1,3.267-.071,28.853,28.853,0,0,1,3.844.065C-741.884,4318.928-741.882,4318.98-741.88,4319.033Z" transform="translate(761.859 -4307.854)" fill="#42b1c0"/><path d="M-619.992,4338.354q-.023.423-.046.845a5.311,5.311,0,0,1,.015-2.782Z" transform="translate(654.373 -4322.577)" fill="#1091af"/><path d="M-619.949,4321.725a8.455,8.455,0,0,1-.146-2.709A11.233,11.233,0,0,1-619.949,4321.725Z" transform="translate(654.306 -4308.054)" fill="#1b99b4"/><path d="M51.069,4326.088a9.12,9.12,0,0,1-.16-2.636C51.356,4324.307,51.041,4325.207,51.069,4326.088Z" transform="translate(94.253 -4311.756)" fill="#099fb4"/><path d="M-620.1,4412.453c.054-.682-.2-1.386.145-2.047A6.357,6.357,0,0,1-620.1,4412.453Z" transform="translate(654.308 -4384.33)" fill="#188fb3"/><path d="M-189.967,4414.449a1.123,1.123,0,0,1,1.326,0A2.823,2.823,0,0,1-189.967,4414.449Z" transform="translate(295.278 -4387.525)" fill="#fff"/><path d="M-621.91,4312.378l-.374-.353c.058-.118.124-.308.266-.225C-621.806,4311.925-621.9,4312.174-621.91,4312.378Z" transform="translate(656.1 -4302.014)" fill="#1b99b4"/><path d="M-734.705,4419.566h-3.111v-.165h7.08c-.67.353-1.388.109-2.082.156C-733.445,4419.6-734.076,4419.566-734.705,4419.566Z" transform="translate(752.527 -4391.838)" fill="#1396b1"/><path d="M-619.855,4368.238a.781.781,0,0,1-.139.013v-3.593l.139,0Z" transform="translate(654.189 -4346.146)" fill="#0b8bad"/><path d="M-429.852,4413.841h-9.812v-.081h9.843Z" transform="translate(503.681 -4387.129)" fill="#fff"/><path d="M-428.958,4364.4h5.98c1.24,0,1.24,0,1.045,1.317-.14-.132-.1-.309-.081-.459.062-.546-.174-.709-.707-.7-1.811.026-3.622.01-5.433.01h-.8Z" transform="translate(494.746 -4345.933)" fill="#fff"/><path d="M-428.833,4405.541h7.993v.083h-8.026Z" transform="translate(494.668 -4380.27)" fill="#fff"/><path d="M-428.74,4332.635h7.718v.077h-7.724Z" transform="translate(494.569 -4319.421)" fill="#fff"/><path d="M-431.737,4380.025v-4.58h.08v4.587Z" transform="translate(497.065 -4355.151)" fill="#fff"/><ellipse cx="0.044" cy="3.004" rx="0.044" ry="3.004" transform="translate(65.324 12.802)" fill="#fff"/><path d="M-741.888,4318.459l-7.11.005c.75-.352,1.545-.083,2.315-.167h3.473C-742.772,4318.37-742.3,4318.137-741.888,4318.459Z" transform="translate(761.859 -4307.438)" fill="#11a4b2"/><path d="M-34.816,4388.513c-.312-.3-.153-.651-.06-1q.029.5.059,1Z" transform="translate(165.938 -4365.226)" fill="#069cb9"/><path d="M-57.25,4347.576c0-.38.009-.762.014-1.142A.8.8,0,0,1-57.25,4347.576Z" transform="translate(184.509 -4330.938)" fill="#1aa5b9"/><path d="M8.964,4349.655A11.26,11.26,0,0,1,6,4349.487v-5.469a4.216,4.216,0,0,0,2.585,0c.545-.218.382.229.383.438C8.979,4346.187,8.968,4347.921,8.964,4349.655Z" transform="translate(131.717 -4328.87)" fill="#18a3bc"/></g></g></svg>