<svg xmlns="http://www.w3.org/2000/svg" width="160" height="40.08" viewBox="0 0 160 40.08"><g transform="translate(960.868 -1085.971)"><path d="M227.7,1126.051c-.586-.045-1.172-.09-1.758-.134a52.067,52.067,0,0,1-7.258-1.12c-.2-.043-.22-.142-.215-.3.037-1.326.078-2.652.107-3.979.018-.848.024-1.7.026-2.544.019-6.316.053-12.632.046-18.948,0-2.006-.089-4.013-.192-6.017a4.822,4.822,0,0,0-.79-2.524,2.9,2.9,0,0,0-2.186-1.136c-.889-.112-.89-.107-.858-1,0-.055.011-.109.02-.2l12.162-2.178c-.042,4.345-.084,8.656-.126,13.043.2-.095.349-.157.489-.228a12.881,12.881,0,0,1,7.494-1.332,9.938,9.938,0,0,1,6.6,3.694,13.363,13.363,0,0,1,2.978,7.215,18.214,18.214,0,0,1-1.012,8.68,13.03,13.03,0,0,1-7.6,7.761,17.057,17.057,0,0,1-5.565,1.189,3,3,0,0,0-.357.061Zm8.054-14.962.094-.012c-.147-1.326-.238-2.662-.456-3.976a10.326,10.326,0,0,0-2.036-4.883,4.874,4.874,0,0,0-3.293-1.912,7.2,7.2,0,0,0-3.118.441.306.306,0,0,0-.253.35c-.015,1.963-.059,3.926-.059,5.888q0,4.083.054,8.166c.033,2.565.091,5.13.148,7.694.023,1.048.035,1.048,1.064,1.17l.066.009a5,5,0,0,0,4.921-2.129,12.116,12.116,0,0,0,1.638-3.125A23.041,23.041,0,0,0,235.754,1111.089Z" transform="translate(-1096.751)" fill="#fff"/><path d="M-522.248,1279.365c-.185-.023-.37-.053-.555-.067a13.358,13.358,0,0,1-7.295-2.587,12.06,12.06,0,0,1-3.926-5.309,17.714,17.714,0,0,1-1.128-7.581,14.434,14.434,0,0,1,3.6-9.115,12.968,12.968,0,0,1,7.607-4.128,16.729,16.729,0,0,1,8.067.455,11.612,11.612,0,0,1,6.827,5.512,15.46,15.46,0,0,1,1.877,6.324,17.335,17.335,0,0,1-.617,6.844,13.03,13.03,0,0,1-6.828,8.168,14.465,14.465,0,0,1-5.5,1.42c-.177.012-.352.042-.528.063Zm6.561-13.649a34.419,34.419,0,0,0-.412-6.225,13.951,13.951,0,0,0-1.742-5.125,4.544,4.544,0,0,0-2.378-2.058,3.71,3.71,0,0,0-4.4,1.585,10.654,10.654,0,0,0-1.459,4.1,39.769,39.769,0,0,0-.482,7.593,29.186,29.186,0,0,0,.549,5.412,12.316,12.316,0,0,0,1.835,4.732,4.122,4.122,0,0,0,2.059,1.636,3.876,3.876,0,0,0,4.413-1.606,10.147,10.147,0,0,0,1.431-3.719A34.376,34.376,0,0,0-515.687,1265.717Z" transform="translate(-397.17 -153.314)" fill="#fff"/><path d="M708.256,1279.558c-.66-.089-1.325-.153-1.98-.271a13.164,13.164,0,0,1-8.182-4.728,13.806,13.806,0,0,1-2.9-6.8,16.737,16.737,0,0,1,.817-8.332,13.037,13.037,0,0,1,6.723-7.573,13.7,13.7,0,0,1,4.416-1.234,14.6,14.6,0,0,1,5.019.216,9.665,9.665,0,0,1,5.823,3.811,13.124,13.124,0,0,1,2.309,5.986c.145,1,.192,2.01.288,3.064H703.437c0,.549-.027,1.06.005,1.567a14.01,14.01,0,0,0,.984,4.621,8.6,8.6,0,0,0,7.233,5.544,11.33,11.33,0,0,0,4.863-.355,10.676,10.676,0,0,0,2.913-1.551c.219.266.445.523.643.8.036.05-.021.2-.077.277a11.411,11.411,0,0,1-3.33,2.9,14.8,14.8,0,0,1-5.982,1.977c-.252.03-.505.055-.758.082Zm-4.871-17.833,8.683-.188c.01-.115.021-.192.021-.268a23.519,23.519,0,0,0-.392-4.623,8.4,8.4,0,0,0-1.092-3.028,2.592,2.592,0,0,0-3.88-.762,5.124,5.124,0,0,0-1.494,1.733,13.792,13.792,0,0,0-1.542,4.672C703.558,1260.058,703.489,1260.867,703.385,1261.724Z" transform="translate(-1544.957 -153.506)" fill="#fff"/><path d="M1113.16,1279.7l-1.459-.133a28.615,28.615,0,0,1-6.8-1.351.567.567,0,0,1-.464-.629c-.025-2.186-.086-4.371-.137-6.557-.007-.289-.038-.578-.03-.867a.312.312,0,0,1,.152-.239c.346-.119.7-.208,1.085-.318.208.5.4.982.609,1.458a12.359,12.359,0,0,0,2.639,4.108,6.363,6.363,0,0,0,6.836,1.589,3.828,3.828,0,0,0,2.627-3.444,3.642,3.642,0,0,0-1.684-3.616,17.5,17.5,0,0,0-4.22-1.986,18.838,18.838,0,0,1-4.15-1.9,6.952,6.952,0,0,1-3.319-5.686,8.123,8.123,0,0,1,4.379-7.865,11.74,11.74,0,0,1,5.44-1.568,23,23,0,0,1,9.274,1.272.45.45,0,0,1,.35.5c.036,1.941.09,3.88.144,5.821.03,1.073.034,1.073-1.225,1.31-.082-.229-.164-.466-.253-.7a12.456,12.456,0,0,0-2.574-4.488,5.645,5.645,0,0,0-5.088-1.7,3.78,3.78,0,0,0-3.143,3.577,3.85,3.85,0,0,0,1.862,3.644,22.239,22.239,0,0,0,4.449,2.214,22.845,22.845,0,0,1,4.09,1.954,6.832,6.832,0,0,1,3.234,4.513c.07.368.114.741.17,1.112v1.272c-.045.283-.089.566-.135.848a8.231,8.231,0,0,1-3.35,5.5,12.142,12.142,0,0,1-5.617,2.154c-.581.083-1.166.136-1.749.2Z" transform="translate(-1926.82 -153.648)" fill="#fff"/><path d="M-946.346,1117.356c0,.6-.013,1.182,0,1.759.065,2.431.116,4.862.216,7.292a18.208,18.208,0,0,0,.518,4.236,7.908,7.908,0,0,0,.538,1.4,2.967,2.967,0,0,0,2.3,1.651c.77.124,1.539.251,2.31.362.245.035.385.106.356.392-.036.362-.039.727-.056,1.091-.354.012-.708.035-1.063.035q-9.577,0-19.155,0h-.483c0-.458-.014-.891.014-1.32,0-.072.18-.17.289-.192.666-.132,1.336-.25,2.005-.365a3.251,3.251,0,0,0,2.58-2.264,10.513,10.513,0,0,0,.648-3.335q.185-4.6.284-9.2.071-3.263.035-6.527c-.024-2.041-.078-4.083-.195-6.12a38.989,38.989,0,0,0-.459-4.045,5.73,5.73,0,0,0-.662-1.773,3.443,3.443,0,0,0-2.873-1.7c-.541-.06-1.083-.11-1.645-.167v-1.6h32.319c0,.129,0,.258,0,.388.027,1.74.051,3.481.083,5.221q.045,2.425.11,4.85c.007.25-.057.378-.318.443-.486.12-.961.284-1.487.444-.176-.473-.345-.95-.53-1.42a14.271,14.271,0,0,0-2.864-4.825,7.184,7.184,0,0,0-4.869-2.311c-1.936-.109-3.881-.065-5.822-.084-.578-.006-1.157,0-1.775,0-.252,5.226-.372,10.426-.358,15.667.177,0,.329.006.481,0,1.359-.059,2.718-.138,4.078-.177a3.885,3.885,0,0,0,3.46-2.193,9.428,9.428,0,0,0,.959-2.871c.037-.2.111-.264.3-.26.444.008.889,0,1.377,0v.386q0,6.128.007,12.256c0,.29-.066.4-.37.376a7.112,7.112,0,0,0-.97,0c-.221.011-.3-.063-.346-.286a8.928,8.928,0,0,0-1.158-3.183,3.716,3.716,0,0,0-3.115-1.843c-1.437-.06-2.874-.126-4.311-.188C-946.082,1117.352-946.2,1117.356-946.346,1117.356Z" transform="translate(0 -10.262)" fill="#fff"/><path d="M-95.231,1275.92v1.432H-112.27v-1.428c.408-.063.81-.143,1.216-.185a2.614,2.614,0,0,0,2.451-2.382,9.76,9.76,0,0,0,.2-1.69c.068-2.263.11-4.527.158-6.791.017-.8.05-1.606.032-2.408-.046-1.962-.086-3.924-.2-5.883a10.639,10.639,0,0,0-.416-2.29,2.092,2.092,0,0,0-1.78-1.523c-.547-.1-1.1-.172-1.685-.263,0-.312-.017-.612.011-.908.007-.077.145-.184.238-.2q3.228-.64,6.459-1.26,2.7-.524,5.41-1.046c.032-.006.065-.005.163-.013l-.167,6.218.064.008c.312-.559.6-1.132.939-1.673a9.622,9.622,0,0,1,5.079-4.287,6.688,6.688,0,0,1,5.2.273c.206.1.279.2.186.433q-1.392,3.528-2.767,7.063c-.016.041-.039.079-.059.117-.578-.272-1.132-.585-1.721-.8a7.624,7.624,0,0,0-5.831.048c-.112.049-.219.111-.328.167a1.369,1.369,0,0,0-.827,1.371c.018,2.923-.082,5.847-.032,8.769.036,2.1.235,4.2.374,6.3a3.5,3.5,0,0,0,.177.814,2.463,2.463,0,0,0,2.58,1.864C-96.507,1275.8-95.877,1275.867-95.231,1275.92Z" transform="translate(-791.736 -152.061)" fill="#fff"/></g></svg>