<svg xmlns="http://www.w3.org/2000/svg" width="32.016" height="29.959" viewBox="0 0 32.016 29.959"><g transform="translate(-20.979 -41.293)"><path d="M257.637,41.293v3.864a2.805,2.805,0,0,1,1.876,2.645h-1.876a.938.938,0,1,0-.938.938,2.809,2.809,0,0,1,.938,5.459v3.864a8.437,8.437,0,0,0,0-16.771Zm-.938,9.324a2.809,2.809,0,0,1-.938-5.459V41.293a8.437,8.437,0,0,0,0,16.771V54.2a2.8,2.8,0,0,1-1.876-2.645h1.876a.938.938,0,1,0,.938-.938Z" transform="translate(-215.897)" fill="#fff"/><path d="M20.979,414.807v9.38h5.753v-9.38Z" transform="translate(0 -354.811)" fill="#fff"/><path d="M197.718,375.764l-9.942,7.5h-8.817l-5.628-1.876v-9.38l.975-.863a5.649,5.649,0,0,1,7.429,0l.45.394a1.849,1.849,0,0,0,1.238.469h5.853a3.763,3.763,0,0,1-3.752,3.752h-4.69v1.876h7.447l4.315-2.833A3.732,3.732,0,0,1,197.718,375.764Z" transform="translate(-144.723 -312.016)" fill="#fff"/></g></svg>