<svg xmlns="http://www.w3.org/2000/svg" width="16" height="16" viewBox="0 0 16 16"><g transform="translate(0 -0.008)"><path d="M1.1,369.933H.552V368H0v3.31H.552v-.828H1.1v.828h.552V368H1.1Z" transform="translate(0 -355.305)" fill="#fff"/><path d="M74.529,313.658a.5.5,0,0,0-.357.148l-1.265,1.265a.821.821,0,0,1-.585.242l-2.6-.008-.754-.188a.738.738,0,0,1-.342-1.238l1.015-1.015a.5.5,0,0,0-.357-.861.5.5,0,0,0-.357.148l-2.287,2.288a1.1,1.1,0,0,1-.78.323H64v1.931h6.146a1.957,1.957,0,0,0,.345-.031l2.415-.439a1.1,1.1,0,0,0,.583-.305l1.4-1.4a.5.5,0,0,0-.357-.861Z" transform="translate(-61.792 -301.237)" fill="#fff"/><path d="M298.837,353.381a.275.275,0,0,0,.2-.081l.556-.556-.136-.543a.263.263,0,0,0-.508-.009l-.34,1.189Z" transform="translate(-288.307 -339.856)" fill="#fff"/><path d="M383.993,256h.552v1.931h-.552Z" transform="translate(-370.752 -247.168)" fill="#fff"/><path d="M383.993,224h.552v.552h-.552Z" transform="translate(-370.752 -216.272)" fill="#fff"/><path d="M2.207,3.042A3.038,3.038,0,0,1,5.241.008H0V6.077H5.241A3.038,3.038,0,0,1,2.207,3.042ZM1.655,5.525H.552v-1.1H1.1v.552h.552Zm0-4.414H1.1v.552H.552V.56h1.1Z" fill="#fff"/><path d="M157.238,153.515a2.293,2.293,0,0,0-.5-.054H154.48a.549.549,0,0,1-.449-.234,3.032,3.032,0,0,1-2.034.785h5.241Z" transform="translate(-146.756 -147.937)" fill="#fff"/><path d="M155.031,3.042a2.994,2.994,0,0,1-.064.6,1.359,1.359,0,0,1,.34-.047h1.931V.008H152A3.038,3.038,0,0,1,155.031,3.042ZM155.583.56h1.1v1.1h-.552V1.111h-.552Z" transform="translate(-146.756)" fill="#fff"/><path d="M232.548,192.005v2.483H232l1.1,1.1,1.1-1.1h-.552v-2.483Z" transform="translate(-223.996 -185.376)" fill="#fff"/><path d="M82.482,16.008a2.483,2.483,0,1,0,2.03,3.908,1.374,1.374,0,0,1,.2-.341,2.451,2.451,0,0,0,.253-1.084A2.486,2.486,0,0,0,82.482,16.008Zm-.276,2.207h.552a.828.828,0,1,1,0,1.655v.552h-.552V19.87a.829.829,0,0,1-.828-.828h.552a.276.276,0,0,0,.276.276h.552a.276.276,0,1,0,0-.552h-.552a.828.828,0,1,1,0-1.655V16.56h.552v.552a.829.829,0,0,1,.828.828h-.552a.276.276,0,0,0-.276-.276h-.552a.276.276,0,1,0,0,.552Z" transform="translate(-77.24 -15.448)" fill="#fff"/><path d="M229.84,48.506l-1.633-.466a.815.815,0,0,0-.228-.032h-.673V50.49h-2.483a.829.829,0,0,0-.828.828h2.263a2.84,2.84,0,0,1,1.058.2l.459.184a2.322,2.322,0,0,0,1.881-.078,2.883,2.883,0,0,1,1.291-.309h.22V48.559h-.949A1.376,1.376,0,0,1,229.84,48.506Z" transform="translate(-216.272 -46.344)" fill="#fff"/><path d="M447.992,48.007h.552v3.862h-.552Z" transform="translate(-432.544 -46.344)" fill="#fff"/><path d="M383.993,192.005h.552v.552h-.552Z" transform="translate(-370.752 -185.376)" fill="#fff"/><path d="M351.994,256h.552v2.207h-.552Z" transform="translate(-339.856 -247.168)" fill="#fff"/><path d="M351.994,224h.552v.552h-.552Z" transform="translate(-339.856 -216.272)" fill="#fff"/></g></svg>