<svg xmlns="http://www.w3.org/2000/svg" width="160" height="15.301" viewBox="0 0 160 15.301"><g transform="translate(1157.016 -5001.212)"><g transform="translate(-1157.016 5001.212)"><path d="M-355.726,5016.554c-.192-.224-.48-.163-.718-.215a6.482,6.482,0,0,1-5.431-5.861c-.4-3.043.335-5.693,2.86-7.647a7.818,7.818,0,0,1,4.531-1.551,12.879,12.879,0,0,1,4.34.458c.359.107.537.256.521.659-.029.721-.028,1.444,0,2.165.018.465-.136.429-.478.271a7.838,7.838,0,0,0-4.62-.687,4.368,4.368,0,0,0-3.65,3.723,7.061,7.061,0,0,0,.13,2.858,3.823,3.823,0,0,0,3.632,2.973,5.6,5.6,0,0,0,1.908-.145c.235-.071.392-.164.389-.445-.01-.742-.012-1.483,0-2.225.005-.3-.145-.367-.407-.364-.681.009-1.364-.014-2.044.009-.354.012-.508-.074-.488-.463.031-.6.024-1.2,0-1.8-.012-.332.085-.458.436-.455q2.706.022,5.413,0c.355,0,.437.135.435.461q-.016,3.338,0,6.675a.538.538,0,0,1-.35.551,10.363,10.363,0,0,1-3.152.933c-.129.02-.29-.044-.369.125h-.481a6.118,6.118,0,0,0-1.925,0Z" transform="translate(457.621 -5001.253)" fill="#6ab976"/><path d="M-1030.131,5016.513c-.045-.158-.187-.116-.295-.142-3.368-.807-5.108-2.636-5.52-6.087-.382-3.2.521-5.959,3.319-7.845a8.743,8.743,0,0,1,5.945-1.152,8.333,8.333,0,0,1,1.823.356c.191.063.372.108.368.385-.013.954-.005,1.908-.005,2.945a7.363,7.363,0,0,0-3.158-.865c-3.04-.123-5.105,2.032-4.823,5.279.221,2.548,1.583,3.969,3.888,4.2a6.763,6.763,0,0,0,3.506-.622c.162-.074.328-.141.493-.208.014-.006.038.01.094.028,0,.865-.011,1.742.006,2.618.005.281-.14.385-.361.471a8.91,8.91,0,0,1-2.089.519c-.11.014-.248-.033-.3.122h-.481a6.117,6.117,0,0,0-1.925,0Z" transform="translate(1050.584 -5001.212)" fill="#2a5a99"/><path d="M107.6,5015.586l.126-.019v2.767c-2.723-.006-5.447-.027-8.17,0-.559,0-.749-.113-.746-.713.026-4.486.012-8.972.021-13.458,0-.2-.122-.443.12-.6a1.339,1.339,0,0,1,.183.977q.008,6.155,0,12.31c0,.2.008.4,0,.6-.007.4.189.574.586.575q3.543.005,7.086,0c.438,0,.584-.193.607-.616C107.455,5016.8,107.252,5016.162,107.6,5015.586Z" transform="translate(52.273 -5003.274)" fill="#8eca97"/><path d="M-306,5127.325a3.227,3.227,0,0,1,1.925,0Z" transform="translate(408.377 -5112.024)" fill="#6ab976"/><path d="M-983,5127.326a3.227,3.227,0,0,1,1.925,0Z" transform="translate(1003.934 -5112.025)" fill="#2a5a99"/><path d="M-453,5127.32a2.145,2.145,0,0,1,1.564,0Z" transform="translate(537.693 -5112.02)" fill="#2a5a99"/><path d="M-100,5127.322a2.148,2.148,0,0,1,1.564,0Z" transform="translate(227.158 -5112.021)" fill="#8fcb98"/><path d="M108.6,5015.4c0,.681-.019,1.363.015,2.042.022.436-.1.593-.563.588q-3.784-.032-7.569,0c-.417,0-.548-.12-.547-.542q.023-7.058.014-14.116c2.664-.006,5.329-.006,7.993-.026.359,0,.439.129.427.454-.021.58-.03,1.163,0,1.742.023.415-.1.554-.531.546-1.362-.026-2.725.009-4.087-.02-.448-.009-.6.111-.573.568.038.759.026,1.522,0,2.283-.01.35.118.442.451.438,1.282-.016,2.565.011,3.847-.016.429-.009.555.125.53.542a15.059,15.059,0,0,0,0,1.682c.019.373-.11.479-.475.473-1.282-.02-2.565.007-3.847-.016-.394-.007-.521.11-.506.507.029.78.035,1.564,0,2.343-.021.445.15.522.55.519C105.35,5015.371,106.973,5015.389,108.6,5015.4Z" transform="translate(51.278 -5003.084)" fill="#6ab976"/><path d="M-821.126,5003.346c1.215,0,2.337.011,3.457-.007a.479.479,0,0,1,.529.352c.79,2.007,1.812,3.918,2.455,5.985a.542.542,0,0,0,.094.137c.769-2.132,1.757-4.138,2.613-6.2a.379.379,0,0,1,.4-.271c1.057.007,2.114,0,3.272,0-.189.365-.344.659-.493.955-1.348,2.679-2.69,5.36-4.048,8.033a2.387,2.387,0,0,0-.266,1.148c.014,1.342-.018,2.685.018,4.026.013.5-.158.613-.615.591a19.6,19.6,0,0,0-2.1,0c-.487.029-.658-.1-.643-.617.039-1.3,0-2.6.019-3.906a2.553,2.553,0,0,0-.276-1.2C-818.175,5009.4-819.625,5006.419-821.126,5003.346Z" transform="translate(861.533 -5003.083)" fill="#2a5a99"/><path d="M-597.533,5012.137c0,1.782-.02,3.565.012,5.347.009.514-.154.652-.644.624a14.455,14.455,0,0,0-2.041,0c-.587.049-.676-.187-.673-.707.021-3.544,0-7.09.026-10.634.005-.6-.168-.741-.737-.715-1.019.047-2.042,0-3.064.019-.309,0-.423-.087-.412-.407.022-.64.024-1.282,0-1.922-.013-.329.11-.4.413-.4q5.468.014,10.935,0c.327,0,.409.117.4.418-.017.621-.021,1.242,0,1.862.012.343-.113.451-.45.446-1.061-.017-2.124.02-3.184-.018-.491-.017-.6.155-.592.613C-597.519,5008.491-597.533,5010.314-597.533,5012.137Z" transform="translate(671.466 -5003.09)" fill="#2a5a99"/><path d="M-230.081,5010.633c0-2.264.013-4.528-.011-6.792,0-.451.115-.587.566-.564a19.287,19.287,0,0,0,2.223,0c.507-.033.585.168.583.615-.016,3.586,0,7.173-.023,10.759,0,.567.166.694.7.681,1.4-.037,2.8,0,4.207-.021.4-.007.575.079.547.521-.038.6-.023,1.2,0,1.8.01.313-.1.417-.413.416-2.645-.009-5.289-.013-7.934,0-.406,0-.448-.172-.446-.506C-230.076,5015.241-230.081,5012.937-230.081,5010.633Z" transform="translate(341.6 -5003.024)" fill="#6ab976"/><path d="M-1146.195,5032.108a11.872,11.872,0,0,1-9.713-1.089.51.51,0,0,1-.271-.636,7.831,7.831,0,0,1,1.26-2.891c.19-.271.335-.23.579-.087.816.479.822.469.4,1.3-.758,1.487-.694,1.668.846,2.309.312.129.634.232.974.356a9.481,9.481,0,0,1,.724-2.3.491.491,0,0,1,.729-.266c.348.142.067.383.014.551a14.9,14.9,0,0,0-.416,1.809c-.072.388.033.523.414.6a18.323,18.323,0,0,0,4.066.219C-1146.443,5031.972-1146.247,5031.817-1146.195,5032.108Z" transform="translate(1156.299 -5024.155)" fill="#2a5a9a"/><path d="M-1145.954,5066.027a12.047,12.047,0,0,1-10.162-.468,1,1,0,0,1-.554-.657,6.932,6.932,0,0,1-.327-2.6c.506.227.99.436,1.465.661.223.106.191.338.2.532a1.771,1.771,0,0,0,1.493,1.92,14.194,14.194,0,0,0,1.649.442,8.164,8.164,0,0,1-.537-1.693c-.022-.159-.22-.477.107-.443.263.027.725-.221.815.325.065.395.168.784.212,1.18.075.671.424.917,1.1.952a17.968,17.968,0,0,0,4.42-.265C-1145.95,5065.858-1145.931,5065.919-1145.954,5066.027Z" transform="translate(1157.016 -5054.949)" fill="#2a5a9a"/><path d="M-1133.315,5004.251a7.176,7.176,0,0,0-3.983,1.645c-.3.253-.335.418.052.579.018.008.032.025.05.033a5.675,5.675,0,0,0,1.345.641c.534.1.668-.589,1.082-.8.186-.095.3-.314.572-.352-.254.365-.477.708-.724,1.033-.225.3-.225.479.186.564.43.089.854.2,1.281.306-.089.31-.3.139-.474.121a11.358,11.358,0,0,1-4.98-1.568c-.385-.229-.468-.373-.087-.7a7.244,7.244,0,0,1,6.633-1.7C-1132.616,5004.424-1133.016,5004.094-1133.315,5004.251Z" transform="translate(1141.379 -5003.533)" fill="#2b5a9a"/><path d="M-1140.684,5098.518a7.193,7.193,0,0,1-8.018-3.52,18.8,18.8,0,0,0,2,.665.744.744,0,0,1,.318.255,7.005,7.005,0,0,0,4.742,2.4C-1141.338,5098.479-1140.938,5098.147-1140.684,5098.518Z" transform="translate(1149.702 -5083.716)" fill="#2b5a9a"/><path d="M-498.022,5001.228a6.958,6.958,0,0,0-6.872,4.119,9.342,9.342,0,0,0-.71,4.165,6.948,6.948,0,0,0,5.07,6.747c.3.08.633.046.891.264h.361a4.11,4.11,0,0,1,1.564,0h.361c.06-.149.2-.1.308-.122a6.622,6.622,0,0,0,2.672-1.014,7.5,7.5,0,0,0,3.235-6.548C-491.063,5004.409-493.806,5001.369-498.022,5001.228Zm2.646,10.718a3.439,3.439,0,0,1-5.935.009,6.013,6.013,0,0,1-.034-6.088,3.27,3.27,0,0,1,3.549-1.717,3.335,3.335,0,0,1,2.819,2.542,5.819,5.819,0,0,1,.283,2.186A5.355,5.355,0,0,1-495.376,5011.946Z" transform="translate(583.974 -5001.221)" fill="#2a5a99"/><path d="M-138.658,5008.2a6.791,6.791,0,0,0-6.891-6.906,6.859,6.859,0,0,0-5.877,2.567,8.316,8.316,0,0,0-1.51,7,6.6,6.6,0,0,0,5.24,5.539c.159.04.375-.019.476.187h.481a4.11,4.11,0,0,1,1.564,0h.361c.061-.146.2-.1.308-.124a6.7,6.7,0,0,0,4.766-3.229A8.82,8.82,0,0,0-138.658,5008.2Zm-4.127,3.661a3.433,3.433,0,0,1-6.019.137,5.942,5.942,0,0,1,.107-6.281,3.236,3.236,0,0,1,3.366-1.514,3.2,3.2,0,0,1,2.674,2.06,6.158,6.158,0,0,1,.492,2.707A5.585,5.585,0,0,1-142.785,5011.866Z" transform="translate(273.898 -5001.286)" fill="#6ab976"/><path d="M-2.628,5011.438A4.15,4.15,0,0,0-5.21,5010.1a5.344,5.344,0,0,0,1.565-.832,3.121,3.121,0,0,0-.185-5.12,4.928,4.928,0,0,0-2.141-.735c-2.2-.257-4.4-.064-6.607-.127-.437-.012-.351.282-.351.527,0,4.55,0,9.1-.011,13.652,0,.439.106.6.567.589,1.8-.023,3.609.01,5.412-.017a6.329,6.329,0,0,0,3.057-.759A3.961,3.961,0,0,0-2.628,5011.438Zm-6.41-5.64a9.736,9.736,0,0,1,1.794.123c.819.212,1.232.618,1.289,1.3a1.689,1.689,0,0,1-1.087,1.818,6.785,6.785,0,0,1-2.324.154c-.242.008-.209-.2-.21-.352,0-.441,0-.882,0-1.323,0-.4.029-.8-.008-1.2C-9.625,5005.879-9.444,5005.769-9.038,5005.8Zm2.673,9.442a4.485,4.485,0,0,1-2.176.31c-1.036,0-1.036,0-1.036-1.043v-.9c0-.1-.006-.2,0-.3.037-.513-.226-1.187.114-1.5s.995-.07,1.512-.089a3.632,3.632,0,0,1,1.415.222,1.641,1.641,0,0,1,1.163,1.525A1.747,1.747,0,0,1-6.365,5015.239Z" transform="translate(150.57 -5003.031)" fill="#6ab976"/><path d="M-906.97,5017.822q-1.359-2.125-2.723-4.248a6.077,6.077,0,0,0-2.108-2.15c.229-.09.378-.146.525-.208a4.152,4.152,0,0,0,2.658-4.616c-.221-1.757-1.567-2.938-3.685-3.187-2.177-.256-4.366-.069-6.548-.129-.3-.008-.368.1-.368.382q.01,6.976,0,13.954c0,.375.163.423.47.417.762-.014,1.525-.035,2.285.006.489.027.606-.144.6-.609-.027-1.523,0-3.047-.016-4.571,0-.323.074-.438.427-.464a1.954,1.954,0,0,1,1.914,1c.822,1.3,1.65,2.605,2.415,3.943a1.213,1.213,0,0,0,1.279.706c.968-.053,1.94-.014,2.931-.014A1.061,1.061,0,0,0-906.97,5017.822Zm-6.691-8.042a7.987,7.987,0,0,1-1.912.106c-.3.011-.308-.18-.307-.4,0-.561,0-1.122,0-1.682q0-.451,0-.9c0-1.114,0-1.115,1.143-1.11.24,0,.481,0,.72.02a1.792,1.792,0,0,1,1.909,1.621A2.155,2.155,0,0,1-913.661,5009.781Z" transform="translate(947.828 -5003.027)" fill="#2a5a99"/><path d="M-690.317,5007.667c-.141-2.626-1.477-4.016-4.281-4.343-2.054-.239-4.124-.05-6.185-.1-.42-.011-.3.283-.3.493q-.008,3.426,0,6.853c0,2.285.015,4.569-.012,6.853-.005.467.136.577.573.558.76-.034,1.523-.025,2.284,0,.381.011.522-.093.514-.5-.027-1.342,0-2.686-.019-4.028-.007-.393.106-.514.5-.5a11.284,11.284,0,0,0,3.046-.21A4.822,4.822,0,0,0-690.317,5007.667Zm-5.467,2.643c-.536.056-1.081.013-1.621.034-.269.01-.344-.1-.339-.354.012-.641,0-1.282,0-1.923,0-.6.015-1.2-.006-1.8-.011-.329.078-.477.433-.452.5.037,1,.013,1.5.06a1.973,1.973,0,0,1,1.962,2.14A2.015,2.015,0,0,1-695.784,5010.31Z" transform="translate(755.948 -5002.96)" fill="#2a5a99"/></g></g></svg>