<svg xmlns="http://www.w3.org/2000/svg" width="16" height="16" viewBox="0 0 16 16"><path d="M16,8A8,8,0,1,0,2.816,14.082a.267.267,0,0,0,.081.06A7.915,7.915,0,0,0,8.02,16,8.084,8.084,0,0,0,13.1,14.184a.32.32,0,0,0,.183-.144A8.1,8.1,0,0,0,16,8ZM.735,8a7.266,7.266,0,1,1,12.491,5.042A5.421,5.421,0,0,0,10.531,9.39,3.119,3.119,0,0,0,11.2,7.43a3.184,3.184,0,1,0-6.368,0,3.294,3.294,0,0,0,.673,1.96,5.294,5.294,0,0,0-2.691,3.653A7.127,7.127,0,0,1,.735,8Zm4.817-.552A2.449,2.449,0,1,1,8,9.9,2.456,2.456,0,0,1,5.552,7.449ZM3.469,13.674A4.575,4.575,0,0,1,6.041,9.959,3.162,3.162,0,0,0,8,10.631a3.24,3.24,0,0,0,1.98-.694,4.663,4.663,0,0,1,2.593,3.715,7.274,7.274,0,0,1-4.55,1.612A7.2,7.2,0,0,1,3.469,13.674Z" transform="translate(0 0)" fill="#fff"/></svg>