<svg xmlns="http://www.w3.org/2000/svg" width="15.5" height="15.5" viewBox="0 0 15.5 15.5"><rect width="15.5" height="15.5" rx="7.75" transform="translate(0 0)" fill="#55596a"/><path d="M18.413,13.248c.268.073.537.122.805.2s.537.122.805.2c.073.024.1,0,.122-.073.1-.415.2-.805.293-1.22.024-.073.049-.1.122-.073.244.073.464.122.708.171.073.024.073.049.049.1-.1.391-.2.805-.293,1.2a.184.184,0,0,1-.024.1c.2.049.415.1.61.146.024,0,.049-.049.073-.073.073-.317.146-.61.244-.927L22,12.687c0-.049.024-.073.073-.049.244.073.488.122.757.2.024,0,.024.024.049.024-.073.317-.146.61-.22.9a2.033,2.033,0,0,1-.1.366c-.024.073,0,.1.073.122l.805.366a2.07,2.07,0,0,1,.635.586,1.462,1.462,0,0,1,.146,1.147,1.517,1.517,0,0,1-.366.708,1.492,1.492,0,0,1-.537.317c-.024,0-.049.024-.1.024.1.073.2.122.293.2a1.539,1.539,0,0,1,.586.83,1.914,1.914,0,0,1-.049.83,2.4,2.4,0,0,1-.439.9,1.516,1.516,0,0,1-1,.537,5.053,5.053,0,0,1-1.489-.049.1.1,0,0,0-.146.073c-.1.391-.2.805-.293,1.2-.024.1-.024.122-.146.073-.22-.049-.464-.122-.683-.171-.073-.024-.073-.049-.049-.1.1-.415.2-.83.317-1.22,0-.049.024-.073-.024-.1-.2-.049-.391-.1-.61-.146-.049.22-.122.439-.171.659s-.122.439-.171.659c-.024.049-.024.073-.1.049-.244-.073-.488-.122-.732-.171-.073-.024-.073-.049-.049-.1.1-.415.2-.83.317-1.22,0-.024.024-.049.024-.1-.561-.146-1.123-.293-1.708-.439.049-.1.073-.171.122-.268.1-.22.2-.439.268-.635.024-.073.049-.073.122-.073a4.25,4.25,0,0,0,.537.122.271.271,0,0,0,.366-.22c.317-1.245.635-2.49.927-3.759a.423.423,0,0,0-.293-.488c-.22-.073-.439-.122-.635-.171-.049,0-.073-.024-.049-.073.073-.268.146-.561.22-.83C18.389,13.272,18.389,13.272,18.413,13.248Zm1.245,6.029a.085.085,0,0,1,.049.024,6.756,6.756,0,0,0,1.22.244,1.893,1.893,0,0,0,.83-.073.779.779,0,0,0,.391-1.147,1.49,1.49,0,0,0-.513-.439,4.925,4.925,0,0,0-1.44-.439c-.073-.024-.073,0-.1.073-.049.244-.122.464-.171.708C19.829,18.569,19.756,18.91,19.658,19.276Zm2.05-2.49a1.594,1.594,0,0,0,.268-.049.711.711,0,0,0,.464-1.05,1.16,1.16,0,0,0-.561-.464,7.46,7.46,0,0,0-1.049-.317c-.073-.024-.1,0-.122.073-.122.513-.244,1-.391,1.513-.024.049,0,.073.049.1.1.024.171.049.268.073A7.605,7.605,0,0,0,21.708,16.787Z" transform="translate(-12.775 -9.465)" fill="#43475a"/></svg>