<svg xmlns="http://www.w3.org/2000/svg" xmlns:xlink="http://www.w3.org/1999/xlink" width="13.049" height="10.945" viewBox="0 0 13.049 10.945"><defs><linearGradient id="a" x1="0.612" y1="0.437" x2="0.747" y2="0.802" gradientUnits="objectBoundingBox"><stop offset="0" stop-color="#eff7fc"/><stop offset="1" stop-color="#fff"/></linearGradient></defs><g transform="translate(-4.892 -7.218)"><path d="M22.1,29.5c-.389,0-.323-.147-.457-.517L20.5,25.221,29.3,20" transform="translate(-12.3 -12)" fill="#c8daea" fill-rule="evenodd"/><path d="M24.5,39.161a.769.769,0,0,0,.6-.3l1.6-1.556-2-1.2" transform="translate(-14.7 -21.661)" fill="#a9c9dd" fill-rule="evenodd"/><path d="M17.342,25.268l4.836,3.573c.552.3.95.147,1.088-.512l1.969-9.276c.2-.808-.308-1.174-.836-.935L12.839,22.575c-.789.316-.784.757-.144.953l2.966.926,6.867-4.333c.324-.2.622-.091.378.126" transform="translate(-7.338 -10.827)" fill-rule="evenodd" fill="url(#a)"/></g></svg>