<svg xmlns="http://www.w3.org/2000/svg" width="12" height="11.25" viewBox="0 0 12 11.25"><g transform="translate(0 -16)"><g transform="translate(0 20.5)"><path d="M3.375,208a3.375,3.375,0,1,0,3.375,3.375A3.375,3.375,0,0,0,3.375,208Zm.375,4.817v.433a.375.375,0,0,1-.75,0v-.427a1.21,1.21,0,0,1-.336-.154.375.375,0,1,1,.417-.624.531.531,0,0,0,.294.079c.23,0,.375-.123.375-.187s-.145-.187-.375-.187a1.046,1.046,0,0,1-1.125-.937.964.964,0,0,1,.75-.88V209.5a.375.375,0,0,1,.75,0v.427a1.21,1.21,0,0,1,.336.154.375.375,0,1,1-.417.624.531.531,0,0,0-.294-.079c-.23,0-.375.123-.375.188s.145.188.375.188a1.046,1.046,0,0,1,1.125.938A.964.964,0,0,1,3.75,212.817Z" transform="translate(0 -208)" fill="#fff"/></g><g transform="translate(5.25 16)"><path d="M227.375,16,224,19.75h2.25V24.2a3.75,3.75,0,0,1-1.1,2.651l-.4.4a3.75,3.75,0,0,0,3.75-3.75V19.75h2.25Z" transform="translate(-224 -16)" fill="#fff"/></g></g></svg>