<svg xmlns="http://www.w3.org/2000/svg" xmlns:xlink="http://www.w3.org/1999/xlink" width="20" height="19.968" viewBox="0 0 20 19.968"><defs><clipPath id="a"><path d="M10.568-44.232a9.956,9.956,0,0,1-9.968-10A9.963,9.963,0,0,1,10.631-64.2,9.983,9.983,0,0,1,20.6-54.169,10.016,10.016,0,0,1,10.568-44.232ZM19.621-54.2a9.034,9.034,0,0,0-9.053-9.053,9.02,9.02,0,0,0-9.022,9.022A9.034,9.034,0,0,0,10.6-45.179,9.02,9.02,0,0,0,19.621-54.2Z" transform="translate(-0.599 64.201)" fill="none"/></clipPath><clipPath id="b"><path d="M23.261-49.2a7.728,7.728,0,0,1-7.729,7.665A7.687,7.687,0,0,1,7.9-49.3a7.667,7.667,0,0,1,7.7-7.6A7.7,7.7,0,0,1,23.261-49.2Zm-8.17,2.744v-.095c.221-.852.41-1.672.631-2.524a.368.368,0,0,1,.189-.189,5.687,5.687,0,0,1,.662-.252,1,1,0,0,0,.852-.915c.032-.221.126-.442.189-.694-.536.221-1.009.41-1.514.6.347-1.356.662-2.618,1.009-3.943H14.239c-.189,0-.252.063-.315.252L12.6-49.3a.444.444,0,0,1-.189.221c-.284.126-.6.221-.883.347-.063.032-.158.063-.158.095-.126.41-.252.852-.41,1.325.442-.189.82-.347,1.262-.5-.284,1.1-.568,2.177-.852,3.249h8.139c.158,0,.221-.032.252-.189a7.742,7.742,0,0,1,.252-.915c.063-.221.095-.442.158-.694Z" transform="translate(-7.897 56.901)" fill="none"/></clipPath><clipPath id="c"><path d="M21.732-41.119c1.7.032,3.375.063,5.079.126a7.1,7.1,0,0,0-.158.694c-.095.315-.189.6-.252.915-.032.158-.095.189-.252.189H18.01c.284-1.1.568-2.145.852-3.249-.442.158-.82.315-1.262.5.126-.473.252-.883.41-1.325,0-.063.095-.095.158-.095.284-.126.6-.221.883-.347a.271.271,0,0,0,.189-.221l1.325-4.921c.032-.189.095-.252.315-.252h2.871c-.347,1.293-.662,2.587-1.009,3.943.5-.221.978-.41,1.514-.6-.063.252-.158.473-.189.694a1,1,0,0,1-.852.915,5.686,5.686,0,0,0-.662.252.544.544,0,0,0-.189.189c-.221.852-.442,1.672-.631,2.524Z" transform="translate(-17.6 49.1)" fill="none"/></clipPath></defs><g transform="translate(-0.599 64.201)"><g transform="translate(0.599 -64.201)" clip-path="url(#a)"><path d="M-4.4-69.2H18.754v23.123H-4.4Z" transform="translate(2.823 67.623)" fill="silver"/></g><g transform="translate(2.902 -61.898)" clip-path="url(#b)"><path d="M2.9-61.9H21.415v18.517H2.9Z" transform="translate(-4.475 60.323)" fill="silver"/></g><g transform="translate(5.962 -59.437)" clip-path="url(#c)"><path d="M12.6-54.1H24.966v13.06H12.6Z" transform="translate(-14.177 52.523)" fill="#fff"/></g></g></svg>