<svg xmlns="http://www.w3.org/2000/svg" xmlns:xlink="http://www.w3.org/1999/xlink" width="20" height="20" viewBox="0 0 20 20"><defs><clipPath id="a"><path d="M18.033,7.7h0v4.875a.041.041,0,0,1-.042.042c-.167.083-.292.125-.458.208a4.205,4.205,0,0,0-.625.292c-.25.125-.5.208-.708.333-.208.083-.417.167-.583.25-.25.125-.5.208-.708.333a4.205,4.205,0,0,0-.625.292,2.549,2.549,0,0,1-.5.208c-.042,0-.042.042-.042,0H13.7a1.764,1.764,0,0,1,.208-.292c.333-.583.708-1.125,1.083-1.708.375-.625.792-1.208,1.167-1.833.333-.583.708-1.125,1.042-1.667.25-.417.542-.833.792-1.25a.129.129,0,0,0,.042-.083Z" transform="translate(-13.7 -7.7)" fill="none"/></clipPath><clipPath id="b"><path d="M28.392,21.117h0c-.333.208-.667.417-1,.583-1.083.625-2.125,1.208-3.208,1.792a.041.041,0,0,0-.042.042l-.042-.042v-4.25a.041.041,0,0,1,.042-.042,2.032,2.032,0,0,0,.292.125c.25.125.542.25.833.375a5.083,5.083,0,0,0,.708.292c.25.125.458.208.708.333a4.2,4.2,0,0,1,.625.292,4.2,4.2,0,0,1,.625.292,1.172,1.172,0,0,0,.458.208Z" transform="translate(-24.1 -19.2)" fill="none"/></clipPath><clipPath id="c"><path d="M18.033,31.35h0c-.042,0-.042,0-.042-.042-.458-.583-.875-1.167-1.292-1.75s-.875-1.167-1.333-1.75c-.417-.583-.875-1.125-1.292-1.708-.125-.167-.208-.292-.333-.458A.041.041,0,0,0,13.7,25.6a.041.041,0,0,1,.042.042c.583.333,1.208.667,1.792,1,.667.417,1.375.792,2.083,1.167a2.326,2.326,0,0,1,.333.208.041.041,0,0,1,.042.042v3.208C18.033,31.267,18.033,31.308,18.033,31.35Z" transform="translate(-13.7 -25.6)" fill="none"/></clipPath><clipPath id="d"><path d="M13.8,23.8Z" transform="translate(-13.8 -23.8)" fill="none"/></clipPath><clipPath id="e"><path d="M13.8,21.217h0a4.63,4.63,0,0,1,.667-.292l.875-.375a4.63,4.63,0,0,1,.667-.292,6.648,6.648,0,0,1,.958-.417c.208-.083.458-.208.667-.292.167-.083.292-.125.458-.208a.041.041,0,0,0,.042-.042v4.292c-.042.042-.042,0-.042,0a.575.575,0,0,1-.167-.125c-1.333-.75-2.708-1.5-4.042-2.25Z" transform="translate(-13.8 -19.3)" fill="none"/></clipPath><clipPath id="f"><path d="M28.392,25.7h0c0,.042,0,.042-.042.042-1.292,1.708-2.583,3.417-3.833,5.125a2.675,2.675,0,0,1-.417.542V28.033l.875-.5c1.125-.542,2.25-1.167,3.417-1.833Z" transform="translate(-24.1 -25.7)" fill="none"/></clipPath><clipPath id="g"><path d="M24.1,12.575h0V7.7l4.25,6.625c.042.042.042.042.042.083a2.031,2.031,0,0,0-.292-.125c-.125-.042-.208-.125-.333-.167-.083-.042-.125-.083-.208-.083a2.474,2.474,0,0,1-.333-.167c-.083-.042-.125-.083-.208-.083-.167-.083-.292-.125-.458-.208l-.25-.125c-.125-.042-.208-.125-.333-.167-.083-.042-.125-.083-.208-.083-.167-.083-.292-.125-.458-.208l-.25-.125c-.125-.042-.208-.125-.333-.167a.911.911,0,0,1-.208-.125.317.317,0,0,1-.417,0Z" transform="translate(-24.1 -7.7)" fill="none"/></clipPath></defs><circle cx="10" cy="10" r="10" fill="#b3bcce"/><g transform="translate(5.708 3.208)"><g clip-path="url(#a)"><rect width="6.542" height="8.833" transform="translate(-1.083 -1.042)" fill="#8a92b2"/></g><g transform="translate(4.333 4.792)"><g clip-path="url(#b)"><rect width="6.5" height="6.333" transform="translate(-1.125 -0.958)" fill="#454a75"/></g></g><g transform="translate(0 7.458)"><g clip-path="url(#c)"><rect width="6.5" height="7.792" transform="translate(-1.083 -1)" fill="#8a92b2"/></g></g><g transform="translate(0.042 6.708)"><g clip-path="url(#d)"><rect width="5.3" height="2.083" transform="translate(-2.7 -1.042)" fill="gray"/></g></g><g transform="translate(0.042 4.833)"><g clip-path="url(#e)"><rect width="6.5" height="6.333" transform="translate(-1.083 -1)" fill="#62688f"/></g></g><g transform="translate(4.333 7.5)"><g clip-path="url(#f)"><rect width="6.458" height="7.792" transform="translate(-1.083 -1.042)" fill="#62688f"/></g></g><g transform="translate(4.333)"><g clip-path="url(#g)"><rect width="6.5" height="8.792" transform="translate(-1.083 -1)" fill="#62688f"/></g></g></g></svg>