<svg xmlns="http://www.w3.org/2000/svg" width="20" height="20" viewBox="0 0 20 20"><path d="M10,0A10,10,0,1,0,20,10,10,10,0,0,0,10,0Zm2.727,13.861a3.177,3.177,0,0,1-2.131.974V16.25H9.412V14.843a3.1,3.1,0,0,1-2.877-2.7l1.831-.477a1.592,1.592,0,0,0,1.685,1.547,1.3,1.3,0,0,0,.985-.331,1.118,1.118,0,0,0,.315-.8.881.881,0,0,0-.315-.735,5.692,5.692,0,0,0-1.4-.635,8.246,8.246,0,0,1-1.526-.67,2.52,2.52,0,0,1-.892-.925,2.745,2.745,0,0,1-.343-1.389,3.08,3.08,0,0,1,.613-1.87A2.738,2.738,0,0,1,9.412,4.843V3.75H10.6V4.843a2.864,2.864,0,0,1,2.57,2.246l-1.631.669q-.478-1.377-1.476-1.377a1.077,1.077,0,0,0-.8.308,1.022,1.022,0,0,0-.3.746.835.835,0,0,0,.293.686,5.032,5.032,0,0,0,1.252.591,11.115,11.115,0,0,1,1.654.728,2.6,2.6,0,0,1,.958.946,2.721,2.721,0,0,1,.358,1.411A2.985,2.985,0,0,1,12.727,13.861Z" fill="#41bf50"/></svg>