<svg xmlns="http://www.w3.org/2000/svg" width="40" height="40" viewBox="0 0 40 40"><g transform="translate(0 -0.001)"><path d="M134.038,256a1.938,1.938,0,1,0,1.938,1.938A1.937,1.937,0,0,0,134.038,256Zm0,2.578a.648.648,0,1,1,.648-.648A.647.647,0,0,1,134.038,258.578Z" transform="translate(-121.78 -236)" fill="#fff"/><path d="M134.038,144.175a1.937,1.937,0,1,0-1.937-1.937A1.937,1.937,0,0,0,134.038,144.175Zm0-2.578a.648.648,0,1,1-.648.648A.647.647,0,0,1,134.038,141.6Z" transform="translate(-121.78 -129.339)" fill="#fff"/><path d="M134.038,28.575a1.938,1.938,0,1,0-1.937-1.937A1.937,1.937,0,0,0,134.038,28.575Zm0-2.578a.648.648,0,1,1-.648.648A.647.647,0,0,1,134.038,26Z" transform="translate(-121.78 -22.77)" fill="#fff"/><path d="M24.516,20.648V18.07H23.227V16.781h1.289V9.039H23.227v-1.3h1.289V0H0V7.742H1.289V9.031H0v7.742H1.289v1.289H0V25.8H20.648V40H40V20.648Zm0,1.289h9.031V27.1h1.289V21.938h1.289v6.453H24.516ZM1.289,1.289H23.227V6.453H21.938V2.578H20.648V6.445H19.359V2.578H18.07V6.445H16.781V2.578H15.492V6.445H9.039V2.578h-1.3V6.445H6.453V2.578H5.164V6.445h-1.3V2.578H2.578V6.445H1.289ZM21.938,7.742V9.031H2.578V7.742ZM1.289,10.32H23.227v5.164H21.938V11.617H20.648v3.867H19.359V11.617H18.07v3.867H16.781V11.617H15.492v3.867H9.039V11.617h-1.3v3.867H6.453V11.617H5.164v3.867h-1.3V11.617H2.578v3.867H1.289Zm20.648,6.453v1.289H2.578V16.773Zm-1.289,7.742H19.359V20.648H18.07v3.867H16.781V20.648H15.492v3.867H9.039V20.648h-1.3v3.867H6.453V20.648H5.164v3.867h-1.3V20.648H2.578v3.867H1.289V19.352H23.227v1.289h-.914l-1.672,1.672v2.2Zm15.484,14.2H24.516V34.2a.647.647,0,0,1,.648-.648h10.32a.647.647,0,0,1,.648.648v4.516Zm2.578,0H37.422V34.2a1.937,1.937,0,0,0-1.937-1.938H25.164A1.937,1.937,0,0,0,23.227,34.2v4.516H21.938V22.852l.914-.914h.375V29.68h14.2V21.938h1.289Z" fill="#fff"/><path d="M110.863,349.784a1.934,1.934,0,1,0-1.625.891,1.713,1.713,0,0,0,.6-.109,14.031,14.031,0,0,0,8.3,5l.242-1.266A12.8,12.8,0,0,1,110.863,349.784Zm-1.625-.4a.648.648,0,1,1,.648-.648A.647.647,0,0,1,109.238,349.386Z" transform="translate(-98.917 -319.706)" fill="#fff"/><path d="M335.889,114.381a1.913,1.913,0,0,0-.516,1.3,1.938,1.938,0,1,0,1.938-1.937c-.094,0-.18.016-.266.023a14.2,14.2,0,0,0-8.578-7.172l-.367,1.234A12.983,12.983,0,0,1,335.889,114.381Zm1.414.664a.648.648,0,1,1-.648.648A.657.657,0,0,1,337.3,115.045Z" transform="translate(-302.467 -98.272)" fill="#fff"/></g></svg>