<svg xmlns="http://www.w3.org/2000/svg" width="13.725" height="16" viewBox="0 0 13.725 16"><g transform="translate(0 6.495)"><g transform="translate(6.275)"><path d="M22.2,18.581l1.761-.881,3.817,7.706-2.789-1.028Z" transform="translate(-20.328 -17.7)" fill="#41bf50" fill-rule="evenodd"/><path d="M17.1,21.144l1.688-.844,2.972,5.725-.844,2.826Z" transform="translate(-17.1 -19.346)" fill="#f25b5b" fill-rule="evenodd"/><path d="M20.5,19.987l1.174-.587,3.156,6.385-.917-.33-.257.917Z" transform="translate(-19.252 -18.776)" fill="#3877ff" fill-rule="evenodd"/></g><path d="M5.578,18.581,3.817,17.7,0,25.406l2.752-1.028Z" transform="translate(0 -17.7)" fill="#41bf50" fill-rule="evenodd"/><path d="M12.161,21.144,10.472,20.3,7.5,26.025l.881,2.826Z" transform="translate(-4.748 -19.346)" fill="#f25b5b" fill-rule="evenodd"/><path d="M9.43,19.987,8.256,19.4,5.1,25.785l.881-.33.294.917Z" transform="translate(-3.228 -18.776)" fill="#3877ff" fill-rule="evenodd"/></g><path d="M9.629,0c.514,0,.55.807.991.881.44.11.954-.514,1.321-.367.477.22.147.954.514,1.248s1.1-.073,1.358.257c.33.4-.257.917-.073,1.321s1.028.4,1.138.807c.11.477-.661.7-.661,1.174,0,.44.734.807.661,1.211-.11.477-.881.367-1.1.771-.183.4.33,1.064.037,1.394-.294.4-.954-.073-1.321.22s-.183,1.1-.55,1.284c-.44.22-.844-.477-1.284-.367s-.624.917-1.064.917c-.514,0-.55-.807-.991-.881-.44-.11-.954.55-1.358.367-.44-.22-.147-.954-.514-1.248s-1.1.073-1.358-.257c-.294-.4.294-.917.073-1.321-.11-.44-.954-.44-1.064-.844-.11-.477.661-.7.661-1.174,0-.44-.734-.807-.661-1.211.11-.477.881-.367,1.1-.771s-.294-1.064-.037-1.394c.294-.4.954.073,1.321-.22S6.95.7,7.317.514c.44-.22.844.477,1.284.367C9.005.807,9.189,0,9.629,0Z" transform="translate(-2.767)" fill="#ffb01c" fill-rule="evenodd"/><path d="M12.18,11.86A3.78,3.78,0,1,0,8.4,8.08,3.774,3.774,0,0,0,12.18,11.86Z" transform="translate(-5.317 -2.722)" fill="#f25b5b" fill-rule="evenodd"/><path d="M12.686,12.072A3.486,3.486,0,1,0,9.2,8.586,3.508,3.508,0,0,0,12.686,12.072Z" transform="translate(-5.824 -3.228)" fill="#ffb01c" fill-rule="evenodd"/></svg>