<svg xmlns="http://www.w3.org/2000/svg" width="16" height="18.56" viewBox="0 0 16 18.56"><g transform="translate(-32 0)"><path d="M48,352h5.76v1.28H48Z" transform="translate(-15.36 -337.92)" fill="#fff"/><path d="M243.2,86.4a3.2,3.2,0,1,0-3.2-3.2A3.2,3.2,0,0,0,243.2,86.4Zm.9-1.858-.453-.453.453-.452.452.452Zm-1.81-2.715.452.453-.452.452-.453-.452Zm2.263-.452.453.452-3.168,3.168-.453-.452Z" transform="translate(-199.68 -76.8)" fill="#fff"/><path d="M48,256h5.76v1.28H48Z" transform="translate(-15.36 -245.76)" fill="#fff"/><path d="M48,160h5.76v1.28H48Z" transform="translate(-15.36 -153.6)" fill="#fff"/><path d="M42.88,5.76A2.88,2.88,0,1,0,40,2.88,2.883,2.883,0,0,0,42.88,5.76Zm0-2.56a.958.958,0,0,1-.32-1.861V.64h.64v.7a.959.959,0,0,1,.64.9H43.2a.32.32,0,1,0-.32.32.958.958,0,0,1,.32,1.861v.7h-.64v-.7a.959.959,0,0,1-.64-.9h.64a.32.32,0,1,0,.32-.32Z" transform="translate(-7.68)" fill="#fff"/><path d="M32,208h5.76v1.28H32Z" transform="translate(0 -199.68)" fill="#fff"/><path d="M32,304h5.76v1.28H32Z" transform="translate(0 -291.84)" fill="#fff"/><path d="M256,432h5.76v1.28H256Z" transform="translate(-215.04 -414.72)" fill="#fff"/><path d="M240,288h5.76v1.28H240Z" transform="translate(-199.68 -276.48)" fill="#fff"/><path d="M240,384h5.76v1.28H240Z" transform="translate(-199.68 -368.64)" fill="#fff"/><path d="M256,336h5.76v1.28H256Z" transform="translate(-215.04 -322.56)" fill="#fff"/><path d="M212.48,56.96A4.48,4.48,0,1,0,208,52.48,4.485,4.485,0,0,0,212.48,56.96Zm0-8.32a3.84,3.84,0,1,1-3.84,3.84A3.844,3.844,0,0,1,212.48,48.64Z" transform="translate(-168.96 -46.08)" fill="#fff"/></g></svg>