<svg xmlns="http://www.w3.org/2000/svg" xmlns:xlink="http://www.w3.org/1999/xlink" width="398.826" height="338" viewBox="0 0 398.826 338"><defs><clipPath id="a"><ellipse cx="16.338" cy="16.338" rx="16.338" ry="16.338" fill="none"/></clipPath><linearGradient id="b" x1="0.054" y1="0.271" x2="0.891" y2="0.418" gradientUnits="objectBoundingBox"><stop offset="0" stop-color="#3ef9b1"/><stop offset="1" stop-color="#3429ff"/></linearGradient><linearGradient id="d" x1="0.373" y1="-2.68" x2="2.23" y2="43.803" gradientUnits="objectBoundingBox"><stop offset="0" stop-color="#c0defe"/><stop offset="0.078" stop-color="#cbe4fe"/><stop offset="0.265" stop-color="#e2f0fe"/><stop offset="0.467" stop-color="#f2f8fe"/><stop offset="0.695" stop-color="#fcfdfe"/><stop offset="1" stop-color="#fff"/></linearGradient><linearGradient id="e" x1="0.342" y1="-4.564" x2="1.791" y2="41.794" xlink:href="#d"/><linearGradient id="f" x1="-0.868" y1="-33.736" x2="0.989" y2="12.748" xlink:href="#d"/><linearGradient id="g" x1="0.104" y1="-10.172" x2="1.825" y2="36.259" xlink:href="#d"/><linearGradient id="h" x1="-0.165" y1="-11.956" x2="2.325" y2="34.67" xlink:href="#d"/><linearGradient id="i" x1="0.004" y1="-13.88" x2="1.605" y2="32.511" xlink:href="#d"/><linearGradient id="j" x1="0.157" y1="-21.038" x2="0.89" y2="24.985" xlink:href="#d"/><linearGradient id="k" x1="-0.206" y1="-15.686" x2="1.823" y2="30.833" xlink:href="#d"/><linearGradient id="l" x1="-0.105" y1="-17.576" x2="1.447" y2="28.798" xlink:href="#d"/><linearGradient id="m" x1="-0.475" y1="-25.215" x2="2.015" y2="21.411" xlink:href="#d"/><linearGradient id="n" x1="-0.578" y1="-27.139" x2="1.912" y2="19.487" xlink:href="#d"/><linearGradient id="o" x1="-0.195" y1="-23.232" x2="1.406" y2="23.159" xlink:href="#d"/><linearGradient id="p" x1="-0.458" y1="-21.176" x2="1.57" y2="25.343" xlink:href="#d"/><linearGradient id="q" x1="-0.298" y1="-19.17" x2="1.254" y2="27.204" xlink:href="#d"/><linearGradient id="r" x1="-0.829" y1="-21.678" x2="1.522" y2="24.922" xlink:href="#d"/><linearGradient id="s" x1="0.879" y1="0.943" x2="0.295" y2="0.261" gradientUnits="objectBoundingBox"><stop offset="0" stop-color="#827ddb"/><stop offset="1" stop-color="#4d4bac"/></linearGradient><linearGradient id="t" x1="0.125" y1="-0.639" x2="0.861" y2="1.287" gradientUnits="objectBoundingBox"><stop offset="0" stop-color="#0ccf9e"/><stop offset="1" stop-color="#76d98f"/></linearGradient></defs><g transform="translate(-943.564 -502)"><g transform="translate(943.564 501.978)"><g transform="translate(97.828 115.715)"><rect width="9.773" height="16.385" transform="matrix(0.699, -0.715, 0.715, 0.699, 130.871, 177.877)" fill="#ffcebd"/><path d="M426.45,317.052l-11.266.979,6.731-19.511,9.342,2.868Z" transform="translate(-339.503 -126.267)" fill="#ffcebd"/><g transform="translate(19.672 125.662)"><path d="M443.246,286.2l-8.964,64,3.155.083L454.158,284.2H443.434Z" transform="translate(-434.282 -276.765)" fill="#7787b2"/><path d="M421.656,286.2l8.964,64-3.155.083L410.744,284.2h10.724Z" transform="translate(-346.4 -276.765)" fill="#7787b2"/><path d="M3.351,0H77.709a3.351,3.351,0,0,1,3.351,3.351V9.439a0,0,0,0,1,0,0H0a0,0,0,0,1,0,0V3.351A3.351,3.351,0,0,1,3.351,0Z" transform="translate(1.533 0)" fill="#e4b940"/><ellipse cx="147" cy="7" rx="147" ry="7" transform="translate(-73.064 73.645)" opacity="0.088"/></g><path d="M394.949,286.675l60.7,27.939,52.068,46.879,9.736-9.684-44.8-49.988-45.115-32.079Z" transform="translate(-370.385 -176.16)" fill="#835a41"/><path d="M406.4,270.93v11.429a17.92,17.92,0,0,0,17.919,17.919H480.9c-10.161,12.277-15.981,51.86-15.981,51.86l12.744,3.48,22.5-57.587a16.24,16.24,0,0,0-15.177-22.022h-40.5l.29-5.079Z" transform="translate(-385.476 -174.101)" fill="#93674b"/><path d="M447.865,250.865l10.56,1.993a20.946,20.946,0,0,1,14.909,11.331l8.641,17.558L473.323,301.2l-.88,8.745s-41.923,18.581-52.216,10.161l-.478-44.709,15.825-23.143Z" transform="translate(-402.7 -208.887)" fill="#fff"/><path d="M431.673,246.129s3.349,15.043,2.643,23.794h12.277s-1.269-14.931,1.268-17.392Z" transform="translate(-401.182 -217.098)" fill="#ffcebd"/><path d="M453.73,248.6a23.809,23.809,0,0,0-1.618-8.226l-.459.224a11.17,11.17,0,0,0-10.53-2.427,14.947,14.947,0,0,0-8.633,6.861A17.952,17.952,0,0,0,431.15,260.5a17.541,17.541,0,0,0,11.479,10.413c2.061.569,4.467.678,6.145-.648a8.461,8.461,0,0,0,1.662-1.979,16.617,16.617,0,0,0,2.9-5.94c.331-1.728-.675-3.125-.588-4.88C452.9,254.489,453.9,251.575,453.73,248.6Z" transform="translate(-402.474 -231.603)" fill="#ffcebd"/><path d="M452.965,240.667a42.114,42.114,0,0,0-5.295-3.209c-1.293-.683-8.546-1.366-11.3,1.311-2.078,2.02-4.306,4.066-4.41,6.98a7.39,7.39,0,0,1-.191,1.965,7.126,7.126,0,0,1-1.227,1.968,13.162,13.162,0,0,0-1.525,12.135c.642,1.763,1.673,3.764,3.34,4.718,1.34.771,4.817,1.356,5.473,2.972a16.619,16.619,0,0,1-1.145-7.785,4.156,4.156,0,0,1,.56-1.96,1.714,1.714,0,0,1,1.758-.8,3.741,3.741,0,0,1,1.222.8,4.129,4.129,0,0,0,2.46.842,1.737,1.737,0,0,0,.995-.238,1.837,1.837,0,0,0,.645-1.206c.44-2.25-.317-4.814-1.044-6.93-.612-1.785-.3-6.744,8.245-2.4,4.849,2.217,14.108-3.371,9.754-4.885A24.371,24.371,0,0,1,452.965,240.667Z" transform="translate(-406.173 -235.509)" fill="#956963"/><path d="M430.64,262.248l3.565-11.692,2.107.4,2.23,18.773Z" transform="translate(-389.04 -209.424)" fill="#e4b940"/><path d="M461.938,250.865l-11.233,2.127a16.669,16.669,0,0,0-12.269,9.92l-8.7,35.606a6.41,6.41,0,0,0,5.91,8.9l44.862-2.242,2.069-6.35-5.369.864-27.651-1.566a2.96,2.96,0,0,1-2.146-4.685l14.95-31.721S465.741,252.437,461.938,250.865Z" transform="translate(-429.233 -208.887)" fill="#ffcebd"/><path d="M464.441,250.865l-11.233,2.127a16.669,16.669,0,0,0-12.269,9.92l-4.817,18.414c6.771-.708,13.8,6.339,18.624,2.54l10.123-22.154S468.244,252.437,464.441,250.865Z" transform="translate(-431.736 -208.887)" fill="#fff"/><path d="M436.645,250.6l9,11.575-6.35,8.325-5.76-19.171Z" transform="translate(-404.04 -209.35)" fill="#e4b940"/><g transform="translate(72.707 185.02)"><path d="M411.256,303.191l-3.125,7.917v6.249H446.46v-1.73a3.353,3.353,0,0,0-2.572-3.259l-6.175-1.471L424.8,305.115H422.5l-1.041,2.291H410.952l1.3-4.215Z" transform="translate(-408.131 -303.191)" fill="#e4b940"/><path d="M408.131,307.153v3.335H446.46v-1.73a3.341,3.341,0,0,0-.41-1.6Z" transform="translate(-408.131 -296.322)" fill="#fff"/></g><g transform="translate(139.364 166.678)"><path d="M385.6,317.931l4.478,7.236,5.008,3.737,23.791-30.724-1.386-1.033a3.345,3.345,0,0,0-4.15.115l-4.871,4.071L395.636,307.8l-1.37,1.837,1.044,1.747-7.083,8.455-2.408-2.11Z" transform="translate(-385.595 -296.481)" fill="#e4b940"/><path d="M385.6,326.89l2.671,1.993,23.791-30.724-1.386-1.033a3.341,3.341,0,0,0-1.531-.631Z" transform="translate(-378.78 -296.46)" fill="#fff"/></g></g><g transform="translate(53.31 207.141)"><path d="M465.5,271.3,446.408,379.351h3.313l27.092-108.826Z" transform="translate(-425.897 -266.228)" fill="#7787b2"/><path d="M387.355,271.3l19.094,108.054h-3.313L376.043,270.526Z" transform="translate(-163.179 -266.228)" fill="#7787b2"/><rect width="263.96" height="5.13" transform="translate(0 11.167)" fill="#f7f7f7"/><path d="M365.7,280.12l21.037-11.167h250.52l-7.509,11.167Z" transform="translate(-365.696 -268.953)" fill="#fff"/><path d="M365.7,285.25l7.6-10.713v-5.583l-7.509,11.167Z" transform="translate(-101.735 -268.953)" fill="#f7f7f7"/></g><g transform="translate(123.499 176.151)"><rect width="33.215" height="1.676" transform="translate(0 34.168)" fill="#a3a7be"/><path d="M461.841,293.461H405.347l13.316-34.469a2.148,2.148,0,0,1,2-1.375h51.888a2.148,2.148,0,0,1,2,2.922Z" transform="translate(-381.731 -257.617)" fill="#c1c4d5"/></g><g transform="translate(53.6 5)"><rect width="151.984" height="74.002" rx="2.147" transform="translate(0 16.542)" fill="rgba(255,255,255,0.36)" stroke="#fdc04e" stroke-width="1"/><line x1="13.019" y1="9.362" transform="translate(11.014 85.544)" fill="#fdc04e"/><line x2="4.406" y2="9.362" transform="translate(19.628 85.544)" fill="#fdc04e"/><ellipse cx="16.338" cy="16.338" rx="16.338" ry="16.338" transform="translate(60.18)" fill="#e4b940"/><g transform="translate(60.18)"><g clip-path="url(#a)"><g transform="translate(-1.957 2.581)"><path d="M436.979,207.207a62.479,62.479,0,0,0,10.5-1.952l3.658.167,3.655-.167a62.548,62.548,0,0,0,10.5,1.952c4.806.344,3.434,10.358,3.434,10.358H433.546S432.174,207.551,436.979,207.207Z" transform="translate(-433.365 -184.349)" fill="#dde3f2"/><path d="M436.949,203.223c.7-.888.869-.276.91.1a28.253,28.253,0,0,1-.057-3.453h14.912a27.37,27.37,0,0,1-.052,3.365c.06-.374.254-.839.9-.016.659.842-.5,2.19-1.263,2.922-.711,3.844-2.523,8.042-7.039,8.124-4.516-.082-6.328-4.278-7.039-8.119C437.46,205.418,436.29,204.067,436.949,203.223Zm15.689.347Zm-14.765,0,.008.025-.008-.107Z" transform="translate(-427.487 -193.678)" fill="#ffcebd"/><path d="M439.4,204.831l3.045.355,3.045-.355,1.025,1.274s-.662,1.206-4.07,1.378c-3.412-.172-4.073-1.493-4.073-1.493Z" transform="translate(-424.678 -185.084)" fill="#8c8ac2"/><path d="M452.568,206.882s.055-2.89-.946-3.078-6.353,5.079-13.81,3.721c0,0-2.411-5.894.94-8.321,5.817-4.215,10.505,1.255,10.505,1.255S454.785,200.272,452.568,206.882Z" transform="translate(-427.417 -197.607)" fill="#956963"/></g></g></g><text transform="translate(5.998 38.197)" fill="#fff" font-size="18" font-family="ArialMT, Arial"><tspan x="5.228" y="16">Wow! Profit!!! I’ll </tspan></text></g><g transform="translate(0 245.672)"><path d="M288.99,324.742s6.482-8.643-2.152-16.37-4.821-13.683-3.122-16.479c4.484-7.383-2.854-5.142-3.918-12.574-.649-4.538-8.652-11.687-12.9-2.62-2.489,5.3-2.535,10.933,1.632,14.019,1.858,1.376,6.9,10.11,3.831,14.216s-6.5,13.611,9.069,22.745c0,0,3.026.622,7.564-2.937Z" transform="translate(-265.179 -272.331)" fill="url(#b)"/><path d="M278.728,318.969s.838-9.1-3.635-15.854-.765-11.734-.622-16.314-5.735-10.775-5.735-10.775a20.249,20.249,0,0,1,3.135,16.936s-2.072,6.6,2.074,11.379.629,13.785.629,13.785Z" transform="translate(-260.576 -267.787)" fill="#9db0cc"/><path d="M257.7,315.818s-3.679-7.751,4.261-12.4,5.914-9.885,5.035-12.329c-2.324-6.455,3.033-3.55,5.035-9.167,1.222-3.43,8.581-7.727,10.456,0,1.1,4.52.245,8.908-3.485,10.652-1.664.776-6.971,6.777-5.229,10.456s2.906,11.62-10.65,16.267c0,0-2.453,0-5.423-3.481Z" transform="translate(-238.197 -265.857)" fill="url(#b)"/><path d="M259.567,312.267s.787-7.216,5.336-11.763,2.448-9.009,3.062-12.6,6.166-7.477,6.166-7.477a16.08,16.08,0,0,0-5.118,12.681s.569,5.468-3.412,8.529-2.667,10.625-2.667,10.625Z" transform="translate(-235.47 -262.369)" fill="#9db0cc"/><path d="M295.258,294.5h0l-.949,4.661L290.09,319.95H263.965l-3.558-20.792-.8-4.661h35.651Z" transform="translate(-256.686 -245.071)" fill="#7787b2"/><path d="M295.258,294.5l-.949,4.661h-33.9l-.8-4.661Z" transform="translate(-256.686 -245.071)" fill="#9db0cc"/></g></g><g transform="translate(444.695 -302.608)"><g transform="translate(-149 420)"><rect width="170.162" height="176.855" rx="20.883" transform="translate(876.533 384.609)" opacity="0.253"/><rect width="16.215" height="3.877" rx="1.939" transform="translate(893.371 417.63)" fill="#fff61c"/><rect width="16.215" height="3.877" rx="1.939" transform="translate(912.465 417.63)" fill="url(#d)"/><rect width="20.723" height="3.877" rx="1.939" transform="translate(893.371 424.026)" fill="#fff61c"/><rect width="20.723" height="3.877" rx="1.939" transform="translate(917.774 424.026)" fill="url(#e)"/><rect width="16.215" height="3.877" rx="1.939" transform="translate(893.371 543.932)" fill="#fff61c"/><rect width="16.215" height="3.877" rx="1.939" transform="translate(912.465 543.932)" fill="url(#f)"/><rect width="14.489" height="3.877" rx="1.635" transform="translate(909.178 445.3)" fill="#fff61c"/><rect width="16.483" height="3.877" rx="1.598" transform="translate(928.135 445.3)" fill="url(#g)"/><rect width="14.489" height="3.877" rx="1.635" transform="translate(909.178 452.818)" fill="#fff61c"/><rect width="12.133" height="3.877" rx="1.332" transform="translate(928.135 452.818)" fill="url(#h)"/><rect width="14.489" height="3.877" rx="1.635" transform="translate(909.178 460.337)" fill="#fff61c"/><rect width="20.773" height="3.877" rx="1.656" transform="translate(928.135 460.337)" fill="url(#i)"/><rect width="14.489" height="3.877" rx="1.635" transform="translate(909.178 488.294)" fill="#fff61c"/><rect width="51.671" height="3.877" rx="1.656" transform="translate(928.135 488.294)" fill="url(#j)"/><rect width="14.489" height="3.877" rx="1.635" transform="translate(909.178 467.855)" fill="#fff61c"/><rect width="14.86" height="3.877" rx="1.474" transform="translate(928.135 467.855)" fill="url(#k)"/><rect width="14.489" height="3.877" rx="1.635" transform="translate(909.178 475.373)" fill="#fff61c"/><rect width="28.366" height="3.877" rx="1.682" transform="translate(928.135 475.373)" fill="url(#l)"/><rect width="14.489" height="3.877" rx="1.635" transform="translate(909.178 524.657)" fill="#fff61c"/><rect width="12.133" height="3.877" rx="1.332" transform="translate(928.135 524.657)" fill="url(#m)"/><rect width="25.509" height="3.877" rx="1.71" transform="translate(943.297 524.657)" fill="#ccc"/><rect width="12.133" height="3.877" rx="1.332" transform="translate(972.8 524.657)" fill="url(#n)"/><rect width="25.509" height="3.877" rx="1.71" transform="translate(987.962 524.657)" fill="#ccc"/><rect width="14.489" height="3.877" rx="1.635" transform="translate(909.178 517.138)" fill="#fff61c"/><rect width="18.773" height="3.877" rx="1.656" transform="translate(928.135 517.138)" fill="url(#o)"/><rect width="33.348" height="3.877" rx="1.939" transform="translate(952.132 517.138)" fill="#ccc"/><rect width="14.489" height="3.877" rx="1.635" transform="translate(909.178 509.62)" fill="#fff61c"/><rect width="14.86" height="3.877" rx="1.474" transform="translate(928.135 509.62)" fill="url(#p)"/><rect width="45.759" height="3.877" rx="1.939" transform="translate(945.972 509.62)" fill="#ccc"/><rect width="14.489" height="3.877" rx="1.635" transform="translate(909.178 502.102)" fill="#fff61c"/><rect width="19.366" height="3.877" rx="1.682" transform="translate(928.135 502.102)" fill="url(#q)"/><rect width="12.845" height="3.877" rx="1.939" transform="translate(986.95 502.102)" fill="url(#r)"/><rect width="33.348" height="3.877" rx="1.939" transform="translate(950.861 502.102)" fill="#ccc"/><rect width="22.767" height="3.877" rx="1.939" transform="translate(1003.194 502.102)" fill="#ccc"/><rect width="1.671" height="101.701" rx="0.733" transform="translate(897.975 434.309)" fill="#ccc"/><path d="M20.855,0H149.307a20.855,20.855,0,0,1,20.855,20.855v0a0,0,0,0,1,0,0H0a0,0,0,0,1,0,0v0A20.855,20.855,0,0,1,20.855,0Z" transform="translate(876.533 384.608)" fill="#fff" opacity="0.06"/><ellipse cx="3.409" cy="3.563" rx="3.409" ry="3.563" transform="translate(893.371 392.558)" fill="#ff6c81"/><ellipse cx="3.409" cy="3.563" rx="3.409" ry="3.563" transform="translate(906.019 392.558)" fill="#fecf24"/><ellipse cx="3.409" cy="3.563" rx="3.409" ry="3.563" transform="translate(918.667 392.558)" fill="#0dd23b"/></g><g transform="translate(691.679 405.068)"><path d="M195,460.287a33.628,33.628,0,1,0,1.026,8.263A33.621,33.621,0,0,0,195,460.287Zm-32.583,23.168a14.914,14.914,0,1,1,14.9-14.905A14.89,14.89,0,0,1,162.419,483.455Z" transform="translate(-2.716 -1.962)" fill="url(#s)"/><g transform="translate(123.305 430.965)"><path d="M170.289,449.669a14.911,14.911,0,0,1,14.45,11.24l18.133-4.6a33.609,33.609,0,0,0-52.464-18.832l11.065,15.078A14.837,14.837,0,0,1,170.289,449.669Z" transform="translate(-136.68 -430.965)" fill="#f55b4f"/><path d="M148.1,458.906l-11.065-15.078A33.558,33.558,0,0,0,123.3,470.922h18.7A14.883,14.883,0,0,1,148.1,458.906Z" transform="translate(-123.305 -437.313)" fill="#f4ea7d"/><path d="M176.8,485.605a14.906,14.906,0,0,1-26.883,11.884l-15.6,10.316a33.614,33.614,0,0,0,60.616-26.8Z" transform="translate(-128.737 -455.66)" fill="url(#t)"/><path d="M142.009,497.32H123.3a33.446,33.446,0,0,0,5.576,18.535l15.6-10.316A14.832,14.832,0,0,1,142.009,497.32Z" transform="translate(-123.305 -463.71)" fill="#6c58ff"/></g></g></g></g></svg>