<svg xmlns="http://www.w3.org/2000/svg" xmlns:xlink="http://www.w3.org/1999/xlink" width="202.867" height="103.771" viewBox="0 0 202.867 103.771"><defs><linearGradient id="a" x1="0.146" y1="0.146" x2="0.952" y2="0.974" gradientUnits="objectBoundingBox"><stop offset="0" stop-color="#565a6f"/><stop offset="1" stop-color="#3e4257"/></linearGradient><filter id="b" x="0" y="0" width="202.867" height="103.771" filterUnits="userSpaceOnUse"><feOffset dy="5" input="SourceAlpha"/><feGaussianBlur stdDeviation="5" result="c"/><feFlood flood-opacity="0.294"/><feComposite operator="in" in2="c"/><feComposite in="SourceGraphic"/></filter></defs><g transform="translate(-6.531 -584.376)"><g transform="matrix(1, 0, 0, 1, 6.53, 584.38)" filter="url(#b)"><path d="M566.022,425.192,519.2,356.032a17.246,17.246,0,0,0-14.522-7.873h-9.584l.2,172.867h9.584a17.287,17.287,0,0,0,14.2-7.388l46.626-69.018A17.228,17.228,0,0,0,566.022,425.192Z" transform="translate(536.03 -485.09) rotate(90)" fill="url(#a)"/></g><g transform="translate(87.778 598.822)"><g transform="translate(-0.001 4.441)"><g transform="translate(0 0)"><path d="M191.822,11.92a3.74,3.74,0,1,0-3.74-3.74A3.74,3.74,0,0,0,191.822,11.92Zm0-5.61a1.87,1.87,0,1,1-1.87,1.87A1.87,1.87,0,0,1,191.822,6.311Z" transform="translate(-171.253 -4.441)" fill="#e4b940"/><path d="M164.638,94.8h-2.667a5.1,5.1,0,0,0-5.234,4.952c0,.016,0,.033,0,.049v.748c0,.514.514.795,1.028.795H168.8c.514,0,1.028-.281,1.028-.795v-.748A5.1,5.1,0,0,0,164.638,94.8Zm-5.94,4.676a3.3,3.3,0,0,1,3.272-2.8h2.618a3.3,3.3,0,0,1,3.272,2.8Z" transform="translate(-142.711 -86.718)" fill="#e4b940"/><path d="M50.568,130.784a.935.935,0,0,0,.935-.935,14.258,14.258,0,0,1,5.329-11.126.935.935,0,0,0-1.169-1.449,16.081,16.081,0,0,0-6.03,12.575A.935.935,0,0,0,50.568,130.784Z" transform="translate(-45.192 -107.037)" fill="#e4b940"/><path d="M176.258,409.744l-.022.008a14.212,14.212,0,0,1-9.022,0,.935.935,0,0,0-1.169.608.888.888,0,0,0,.506,1.15l.055.019a15.987,15.987,0,0,0,10.237,0,.982.982,0,0,0,.608-1.215A.935.935,0,0,0,176.258,409.744Z" transform="translate(-151.133 -373.431)" fill="#e4b940"/><path d="M317.731,111.888a14.211,14.211,0,0,1,6.03,11.64.935.935,0,1,0,1.87,0,16.221,16.221,0,0,0-6.825-13.182.94.94,0,1,0-1.075,1.543Z" transform="translate(-288.935 -100.716)" fill="#e4b940"/><path d="M35.087,299.267a3.74,3.74,0,1,0-3.74-3.74A3.74,3.74,0,0,0,35.087,299.267Zm0-5.61a1.87,1.87,0,1,1-1.87,1.87A1.87,1.87,0,0,1,35.087,293.658Z" transform="translate(-28.542 -266.078)" fill="#e4b940"/><path d="M7.9,382.15H5.235A5.1,5.1,0,0,0,0,387.1c0,.016,0,.033,0,.049v.748c0,.514.514.795,1.028.795H12.059c.514,0,1.028-.28,1.028-.795v-.748A5.1,5.1,0,0,0,7.9,382.15Zm-5.94,4.676a3.3,3.3,0,0,1,3.272-2.8H7.852a3.3,3.3,0,0,1,3.272,2.8Z" transform="translate(0.001 -348.354)" fill="#e4b940"/><path d="M344.816,295.528a3.74,3.74,0,1,0,3.74-3.74A3.74,3.74,0,0,0,344.816,295.528Zm5.61,0a1.87,1.87,0,1,1-1.87-1.87A1.87,1.87,0,0,1,350.426,295.528Z" transform="translate(-313.964 -266.078)" fill="#e4b940"/><path d="M321.372,382.15H318.7a5.1,5.1,0,0,0-5.234,4.952c0,.016,0,.033,0,.049v.748c0,.514.514.795,1.028.795h11.032c.514,0,1.028-.28,1.028-.795v-.748A5.1,5.1,0,0,0,321.372,382.15Zm-5.94,4.676a3.3,3.3,0,0,1,3.272-2.8h2.618a3.3,3.3,0,0,1,3.272,2.8Z" transform="translate(-285.421 -348.354)" fill="#e4b940"/></g></g><text transform="translate(14.335 35.089)" fill="#e4b940" font-size="18" font-family="SegoeUI, Segoe UI" letter-spacing="0.06em"><tspan x="0" y="0">%</tspan></text></g></g></svg>