<svg xmlns="http://www.w3.org/2000/svg" xmlns:xlink="http://www.w3.org/1999/xlink" width="202.867" height="103.771" viewBox="0 0 202.867 103.771"><defs><linearGradient id="a" x1="0.146" y1="0.146" x2="0.952" y2="0.974" gradientUnits="objectBoundingBox"><stop offset="0" stop-color="#565a6f"/><stop offset="1" stop-color="#3e4257"/></linearGradient><filter id="b" x="0" y="0" width="202.867" height="103.771" filterUnits="userSpaceOnUse"><feOffset dy="5" input="SourceAlpha"/><feGaussianBlur stdDeviation="5" result="c"/><feFlood flood-opacity="0.294"/><feComposite operator="in" in2="c"/><feComposite in="SourceGraphic"/></filter></defs><g transform="translate(-6.531 -584.376)"><g transform="matrix(1, 0, 0, 1, 6.53, 584.38)" filter="url(#b)"><path d="M566.022,425.192,519.2,356.032a17.246,17.246,0,0,0-14.522-7.873h-9.584l.2,172.867h9.584a17.287,17.287,0,0,0,14.2-7.388l46.626-69.018A17.228,17.228,0,0,0,566.022,425.192Z" transform="translate(536.03 -485.09) rotate(90)" fill="url(#a)"/></g><g transform="translate(86.622 605.151)"><g transform="translate(3.474 7.643)"><path d="M47.257,89.26A4.135,4.135,0,0,0,44.273,88h-.214a4.135,4.135,0,0,0-2.98,1.26A3.822,3.822,0,0,0,40,92.093l.081,1.871a3.994,3.994,0,0,0,4.058,3.764h.053a3.994,3.994,0,0,0,4.058-3.764l.085-1.871A3.822,3.822,0,0,0,47.257,89.26Zm-.395,4.647a2.609,2.609,0,0,1-2.67,2.432H44.14a2.609,2.609,0,0,1-2.67-2.432l-.024-.568a6.271,6.271,0,0,0,3.633-1.363,3.1,3.1,0,0,0,1.812,1.271Zm-.871-3.285a.7.7,0,0,0-1.294-.258,4.267,4.267,0,0,1-3.3,1.587,2.45,2.45,0,0,1,.689-1.727,2.747,2.747,0,0,1,1.978-.834h.214a2.747,2.747,0,0,1,1.978.834,2.449,2.449,0,0,1,.678,1.561A1.644,1.644,0,0,1,45.991,90.622Z" transform="translate(-39.997 -88)" fill="#e4b940"/></g><g transform="translate(30.573 24.32)"><path d="M359.257,281.26a4.135,4.135,0,0,0-2.984-1.26h-.214a4.135,4.135,0,0,0-2.98,1.26A3.822,3.822,0,0,0,352,284.093l.081,1.871a3.994,3.994,0,0,0,4.058,3.764h.053a3.994,3.994,0,0,0,4.058-3.764l.085-1.871A3.822,3.822,0,0,0,359.257,281.26Zm-.311,2.777-.083,1.869a2.609,2.609,0,0,1-2.67,2.432h-.053a2.609,2.609,0,0,1-2.67-2.432l-.083-1.873a2.453,2.453,0,0,1,.695-1.81,2.747,2.747,0,0,1,1.978-.834h.214a2.747,2.747,0,0,1,1.978.834A2.453,2.453,0,0,1,358.946,284.037Z" transform="translate(-351.997 -280)" fill="#e4b940"/></g><g transform="translate(0 9.564)"><path d="M21.465,110.658a1.923,1.923,0,0,0-2.674,0l-7.757,7.757a.7.7,0,0,1-.492.2H3.474A3.478,3.478,0,0,0,0,122.093v9.728a2.086,2.086,0,0,0,2.779,1.966v.814a.7.7,0,0,0,.695.695h8.338a.7.7,0,0,0,.695-.695V123.334a.7.7,0,0,1,.186-.474l8.817-9.483A1.923,1.923,0,0,0,21.465,110.658Zm-.947,1.748-.008.007-8.837,9.5a2.085,2.085,0,0,0-.556,1.42v10.572H4.169V123.483a.695.695,0,0,0-1.39,0v8.338a.695.695,0,1,1-1.39,0v-9.728a2.085,2.085,0,0,1,2.085-2.085h7.067a2.069,2.069,0,0,0,1.474-.611l7.757-7.757a.548.548,0,0,1,.755,0A.541.541,0,0,1,20.518,112.406Z" transform="translate(0 -110.117)" fill="#e4b940"/></g><g transform="translate(6.949 20.151)"><path d="M80.695,232a.7.7,0,0,0-.695.695v8.338a.695.695,0,0,0,1.39,0v-8.338A.7.7,0,0,0,80.695,232Z" transform="translate(-80 -232)" fill="#e4b940"/></g><g transform="translate(15.287 24.32)"><path d="M183.254,281.26a4.135,4.135,0,0,0-2.98-1.26h-.214a4.135,4.135,0,0,0-2.98,1.26A3.822,3.822,0,0,0,176,284.093l.081,1.871a3.994,3.994,0,0,0,4.058,3.764h.053a3.994,3.994,0,0,0,4.058-3.764l.081-1.871A3.822,3.822,0,0,0,183.254,281.26Zm-.308,2.777-.083,1.869a2.609,2.609,0,0,1-2.67,2.432h-.053a2.609,2.609,0,0,1-2.67-2.432l-.083-1.873a2.453,2.453,0,0,1,.695-1.81,2.747,2.747,0,0,1,1.978-.834h.214a2.747,2.747,0,0,1,1.978.834A2.453,2.453,0,0,1,182.946,284.037Z" transform="translate(-175.997 -280)" fill="#e4b940"/></g><g transform="translate(12.507 34.743)"><path d="M154.539,400h-7.181A3.362,3.362,0,0,0,144,403.358v2.9a.695.695,0,1,0,1.39,0v-2.9a1.971,1.971,0,0,1,1.969-1.969h7.181a1.971,1.971,0,0,1,1.969,1.969v2.9a.695.695,0,0,0,1.39,0v-2.9A3.362,3.362,0,0,0,154.539,400Z" transform="translate(-144 -400)" fill="#e4b940"/></g><g transform="translate(27.794 34.743)"><path d="M330.539,400h-7.181A3.362,3.362,0,0,0,320,403.358v2.9a.695.695,0,0,0,1.39,0v-2.9a1.971,1.971,0,0,1,1.969-1.969h7.181a1.971,1.971,0,0,1,1.969,1.969v2.9a.695.695,0,0,0,1.39,0v-2.9A3.362,3.362,0,0,0,330.539,400Z" transform="translate(-320 -400)" fill="#e4b940"/></g><g transform="translate(13.202)"><path d="M178.439,0H154.049A2.07,2.07,0,0,0,152,2.085V12.507a.695.695,0,1,0,1.39,0V4.169H179.1V20.846a.679.679,0,0,1-.66.695H154.727a.695.695,0,0,0,0,1.39h23.712a2.07,2.07,0,0,0,2.05-2.085V2.085A2.07,2.07,0,0,0,178.439,0Zm.66,2.779h-25.71V2.085a.679.679,0,0,1,.66-.695h24.389a.679.679,0,0,1,.66.695Z" transform="translate(-151.999)" fill="#e4b940"/></g><g transform="translate(37.522 8.859)"><path d="M432.695,102a.7.7,0,0,0-.695.695v9.9a.695.695,0,1,0,1.39,0v-9.9A.7.7,0,0,0,432.695,102Z" transform="translate(-432 -102)" fill="#e4b940"/></g><g transform="translate(34.743 13.202)"><path d="M400.695,152a.7.7,0,0,0-.695.695v5.559a.695.695,0,1,0,1.39,0v-5.559A.7.7,0,0,0,400.695,152Z" transform="translate(-400 -152)" fill="#e4b940"/></g><g transform="translate(31.963 11.813)"><path d="M368.695,136a.7.7,0,0,0-.695.695v6.949a.695.695,0,1,0,1.39,0v-6.949A.7.7,0,0,0,368.695,136Z" transform="translate(-368 -136)" fill="#e4b940"/></g><g transform="translate(29.184 15.982)"><path d="M336.695,184a.7.7,0,0,0-.695.695v2.779a.695.695,0,1,0,1.39,0v-2.779A.7.7,0,0,0,336.695,184Z" transform="translate(-336 -184)" fill="#e4b940"/></g><g transform="translate(26.405 5.559)"><path d="M316.2,64.115a.7.7,0,0,0-.964.192l-2.372,3.558-2.192-1.643a.695.695,0,0,0-1.042.245l-2.706,5.412-2.645,1.986a.695.695,0,1,0,.834,1.112l2.779-2.085a.7.7,0,0,0,.208-.245l2.406-4.814,2.11,1.585a.7.7,0,0,0,.973-.139l.022-.031,2.779-4.169A.7.7,0,0,0,316.2,64.115Z" transform="translate(-303.999 -63.998)" fill="#e4b940"/></g><g transform="translate(15.982 5.559)"><path d="M193.033,64h-8.338a.695.695,0,0,0,0,1.39h8.338a.695.695,0,0,0,0-1.39Z" transform="translate(-184 -64)" fill="#e4b940"/></g><g transform="translate(27.099 5.559)"><path d="M314.085,64h-1.39a.695.695,0,0,0,0,1.39h1.39a.695.695,0,0,0,0-1.39Z" transform="translate(-312 -64)" fill="#e4b940"/></g></g></g></svg>