<svg xmlns="http://www.w3.org/2000/svg" width="88.64" height="10.319" viewBox="0 0 88.64 10.319"><path d="M15.035,0H5.16a5.16,5.16,0,0,0,0,10.319h9.856A5.16,5.16,0,0,0,15.035,0Z" fill="#033886"/><circle cx="4.394" cy="4.394" r="4.394" transform="translate(0.766 0.766)" fill="#fff"/><path d="M18.645,13.922h0a1.22,1.22,0,0,0-.141-2.157,2.208,2.208,0,0,0-.524-.121H18.1V11h-.645v.625h-.363V11h-.645v.625H15.4v.665h.584v3.487H15.4v.665h1.048v.6h.645v-.584h.363v.584H18.1v-.6l.363-.06a1.36,1.36,0,0,0,.967-1.31A1.11,1.11,0,0,0,18.645,13.922Zm-.3-.947a.556.556,0,0,1-.5.625h-.927V12.35h.746a1.053,1.053,0,0,1,.423.081A.6.6,0,0,1,18.343,12.975Zm-.2,2.721a1.024,1.024,0,0,1-.343.06h-.887V14.326h.927a.669.669,0,0,1,.705.6v.1A.734.734,0,0,1,18.141,15.7Z" transform="translate(-12.296 -8.783)" fill="#033886"/><path d="M113.322,14.925a.1.1,0,0,1,.081.04l.2.2a4.428,4.428,0,0,1-.464.4,2.878,2.878,0,0,1-.544.3,3.21,3.21,0,0,1-.665.2,3.448,3.448,0,0,1-.786.06,3.677,3.677,0,0,1-1.31-.242,3.021,3.021,0,0,1-1.028-.705,3.133,3.133,0,0,1-.665-1.109,4.414,4.414,0,0,1,0-2.882,3.154,3.154,0,0,1,1.733-1.834,3.43,3.43,0,0,1,1.35-.262,3.339,3.339,0,0,1,1.25.222,3.16,3.16,0,0,1,.988.625l-.161.222a.144.144,0,0,1-.121.06.39.39,0,0,1-.181-.1l-.363-.242a2.975,2.975,0,0,0-.584-.242,2.273,2.273,0,0,0-.826-.1,2.688,2.688,0,0,0-1.129.222,2.48,2.48,0,0,0-.887.6,2.732,2.732,0,0,0-.584.988,4.014,4.014,0,0,0-.2,1.29,4.136,4.136,0,0,0,.2,1.31,2.652,2.652,0,0,0,.584.967,2.589,2.589,0,0,0,.867.6,2.823,2.823,0,0,0,1.088.2c.222,0,.443-.02.665-.04a2.231,2.231,0,0,0,.524-.141,1.9,1.9,0,0,0,.443-.242,3.141,3.141,0,0,0,.4-.322c.02-.02.04-.02.04-.04A.152.152,0,0,1,113.322,14.925Z" transform="translate(-86.153 -7.266)" fill="#fff"/><path d="M146.55,12.875a4.474,4.474,0,0,1-.242,1.451,3.133,3.133,0,0,1-.665,1.109,3.021,3.021,0,0,1-1.028.705,3.571,3.571,0,0,1-2.66,0,2.942,2.942,0,0,1-1.713-1.814,4.414,4.414,0,0,1,0-2.882,3.459,3.459,0,0,1,.665-1.109,3.1,3.1,0,0,1,2.358-.947,3.7,3.7,0,0,1,1.33.242,2.942,2.942,0,0,1,1.713,1.814A4.268,4.268,0,0,1,146.55,12.875Zm-.524,0a4.014,4.014,0,0,0-.2-1.29,2.53,2.53,0,0,0-1.431-1.572,3.062,3.062,0,0,0-2.237,0,2.67,2.67,0,0,0-.887.6,2.6,2.6,0,0,0-.564.967,4.014,4.014,0,0,0-.2,1.29,3.929,3.929,0,0,0,.2,1.29,2.909,2.909,0,0,0,.564.967,2.48,2.48,0,0,0,.887.6,3.062,3.062,0,0,0,2.237,0,2.589,2.589,0,0,0,.867-.6,2.91,2.91,0,0,0,.564-.967A3.929,3.929,0,0,0,146.026,12.875Z" transform="translate(-111.783 -7.493)" fill="#fff"/><path d="M180.8,16.573h-.5V9.7h.5Z" transform="translate(-143.961 -7.745)" fill="#fff"/><path d="M198.2,9.7v6.873h-.242a.151.151,0,0,1-.1-.02.157.157,0,0,1-.081-.081l-4.454-5.966c0,.1.02.181.02.282v5.784H192.9V9.7h.242a.151.151,0,0,1,.1.02.157.157,0,0,1,.081.081l4.454,5.946c0-.1-.02-.181-.02-.282V9.7Z" transform="translate(-154.022 -7.745)" fill="#fff"/><path d="M230.23,9.952a.125.125,0,0,1-.121.081.277.277,0,0,1-.161-.1,1.983,1.983,0,0,0-.685-.4,2.167,2.167,0,0,0-1.29.02,1.225,1.225,0,0,0-.484.3,1.2,1.2,0,0,0-.282.423,1.5,1.5,0,0,0-.1.5,1.193,1.193,0,0,0,.141.584,1.385,1.385,0,0,0,.383.383,2.24,2.24,0,0,0,.544.262c.2.081.423.141.625.222s.423.161.645.242a1.852,1.852,0,0,1,.544.322,1.278,1.278,0,0,1,.383.484,1.431,1.431,0,0,1,.141.705,2.192,2.192,0,0,1-.141.806,2.08,2.08,0,0,1-.423.665,2.1,2.1,0,0,1-.685.443,2.431,2.431,0,0,1-.927.161,2.591,2.591,0,0,1-1.169-.242,2.77,2.77,0,0,1-.867-.665l.141-.222a.2.2,0,0,1,.141-.081.174.174,0,0,1,.121.06l.161.141a1.256,1.256,0,0,0,.242.181,1.022,1.022,0,0,0,.322.181,2.371,2.371,0,0,0,.4.141,2.324,2.324,0,0,0,.524.06,2.193,2.193,0,0,0,.726-.121,1.553,1.553,0,0,0,.544-.343,1.717,1.717,0,0,0,.343-.5,1.746,1.746,0,0,0,.121-.645,1.27,1.27,0,0,0-.141-.6,1.467,1.467,0,0,0-.383-.4,3.353,3.353,0,0,0-.544-.262c-.2-.081-.423-.141-.625-.2s-.423-.141-.645-.222a1.852,1.852,0,0,1-.544-.322,1.454,1.454,0,0,1-.383-.484,1.543,1.543,0,0,1-.141-.746,1.852,1.852,0,0,1,.121-.665,1.559,1.559,0,0,1,.383-.564,1.852,1.852,0,0,1,.625-.4,2.025,2.025,0,0,1,.846-.141,3.244,3.244,0,0,1,.967.161,2.469,2.469,0,0,1,.766.524Z" transform="translate(-180.69 -7.171)" fill="#fff"/><path d="M260.3,8.7l-2.177,7.074h-1.491l-1.33-4.394a1.531,1.531,0,0,0-.081-.222c-.02-.081-.04-.161-.06-.262-.02.081-.04.181-.06.262s-.04.161-.06.222l-1.35,4.394H252.2L250,8.7h1.371a.622.622,0,0,1,.363.1.4.4,0,0,1,.181.262l.967,3.688c.02.121.06.242.081.383s.06.282.081.423a5.28,5.28,0,0,1,.222-.806l1.149-3.688a.55.55,0,0,1,.181-.242.434.434,0,0,1,.343-.1h.484a.528.528,0,0,1,.343.1.655.655,0,0,1,.2.262l1.129,3.688a4.792,4.792,0,0,1,.222.766c.02-.141.06-.282.081-.4s.06-.242.081-.363l.967-3.688a.55.55,0,0,1,.181-.242.528.528,0,0,1,.343-.1Z" transform="translate(-199.613 -6.947)" fill="#fff"/><path d="M305.175,15.694h-1.27a.528.528,0,0,1-.343-.1.655.655,0,0,1-.2-.262l-.423-1.229h-2.681l-.423,1.229a.593.593,0,0,1-.2.242.434.434,0,0,1-.343.1H298L300.741,8.6h1.673Zm-2.6-2.7-.645-1.935c-.04-.121-.1-.262-.161-.443-.06-.161-.1-.343-.161-.544a3.49,3.49,0,0,1-.161.544c-.06.161-.1.322-.161.443l-.645,1.935Z" transform="translate(-237.939 -6.867)" fill="#fff"/><path d="M340.653,14.444v1.31H336.4V8.7h1.633v5.764h2.62Z" transform="translate(-268.6 -6.947)" fill="#fff"/><path d="M365.953,14.444v1.31H361.7V8.7h1.633v5.764h2.62Z" transform="translate(-288.8 -6.947)" fill="#fff"/><path d="M388.633,9.95V11.6h2.217v1.209h-2.217V14.5h2.9v1.27H387V8.7h4.555V9.97h-2.922Z" transform="translate(-309.001 -6.947)" fill="#fff"/><path d="M417.523,9.99h-2v5.764H413.9V9.99h-2V8.7h5.623Z" transform="translate(-328.883 -6.947)" fill="#fff"/></svg>