<svg xmlns="http://www.w3.org/2000/svg" width="120" height="21.967" viewBox="0 0 120 21.967"><path d="M34.5,2.58,27.75,21.532v.12L26.512,19.08,23.925,20.3l6.75-19.08L33.254,0ZM51.329,3l-6.75,18.967L43.342,19.38l-2.535,1.245.165-.45,6.7-18.952L50.249,0l1.237,2.58Zm-14.4,16.4,4-11.152L38.339,9.472l-1.29-2.557L33.1,18.052l1.23,2.58ZM15.472,8.422H3.66L5.67,10.4,3.66,12.36H15.472L17.49,10.4ZM2.017,16.672H21.15l-2.01,1.972,2.01,1.972H2.017L0,18.652ZM7.882.172H27L25,2.13,27,4.095H7.882L5.865,2.13Z" fill="#2c92ff"/><path d="M124.167,12.877a7.83,7.83,0,0,1,.585-2.955A7.387,7.387,0,0,1,128.817,5.8a7.972,7.972,0,0,1,3.12-.607,8.145,8.145,0,0,1,3.127.6,7.26,7.26,0,0,1,4,4.087,7.882,7.882,0,0,1,0,5.932,7.38,7.38,0,0,1-4.065,4.1,7.987,7.987,0,0,1-3.127.607,7.74,7.74,0,0,1-4-1.042,7.215,7.215,0,0,1-2.752-2.782,7.717,7.717,0,0,1-.975-3.84ZM81.417,11.535h7.837V14.1H81.44v3.6h8.212v2.595H78.56V5.467H89.547v2.58H81.44Zm9.622,8.76,5.175-7.5-4.972-7.32h3.352l3.585,5.25,3.585-5.25h3.27l-4.942,7.252,5.167,7.56h-3.352l-3.75-5.557-3.795,5.557Zm15.96,0V5.467h3.06l4.5,6.615,4.5-6.615h3.052v14.82h-2.872V10.057l-4.672,6.4h-.09l-4.65-6.4v10.23Zm20.07-7.417a5.437,5.437,0,0,0,.615,2.565,4.805,4.805,0,0,0,8.482.007,5.685,5.685,0,0,0,0-5.16,4.822,4.822,0,0,0-8.527.007,5.452,5.452,0,0,0-.607,2.587Z" transform="translate(-19.641 -1.297)" fill="#2c92ff"/></svg>