<svg xmlns="http://www.w3.org/2000/svg" xmlns:xlink="http://www.w3.org/1999/xlink" width="1110" height="22.482" viewBox="0 0 1110 22.482"><defs><linearGradient id="a" x1="0.5" y1="1" x2="0.5" gradientUnits="objectBoundingBox"><stop offset="0" stop-color="#e4b940"/><stop offset="0.197" stop-color="#e0b53e"/><stop offset="0.379" stop-color="#d5ac38"/><stop offset="0.555" stop-color="#c29c2f"/><stop offset="0.727" stop-color="#a88522"/><stop offset="0.862" stop-color="#8e6f16"/></linearGradient><linearGradient id="b" x1="0.5" y1="0.932" x2="0.5" y2="-0.143" xlink:href="#a"/></defs><g transform="translate(0 0)"><path d="M2253.763,3597.5s42,11.305,60.617,11.305h988.383c18.487,0,58.6-11.071,59.63-11.305Z" transform="translate(-2253.42 -3586.323)" fill="url(#a)"/><path d="M2811.679,3581.188H2253.922a.659.659,0,0,0-.659.659v10.071a.655.655,0,0,0,.654.659c29.684,0,1059.746-.032,1107.623,0a1.723,1.723,0,0,0,1.723-1.726v-7.938a1.725,1.725,0,0,0-1.725-1.724Z" transform="translate(-2253.263 -3581.188)" fill="url(#b)"/></g></svg>