<svg xmlns="http://www.w3.org/2000/svg" xmlns:xlink="http://www.w3.org/1999/xlink" width="14.48" height="91.96" viewBox="0 0 14.48 91.96"><defs><clipPath id="a"><path d="M.449.619,13.9.6V35.737l-13.475,0Z" transform="translate(-0.426 -0.599)" fill="none"/></clipPath></defs><g transform="translate(-976.021 -5216.093)"><g transform="translate(976.22 5227.834)" clip-path="url(#a)"><g transform="translate(-1.788 -11.241)"><line y1="0.001" x2="24.743" transform="translate(5.435 3.064) rotate(45)" fill="none" stroke="#41bf50" stroke-width="1"/><line x2="22.931" y2="22.929" transform="translate(0 1.556)" fill="none" stroke="#41bf50" stroke-width="1"/><line x2="22.931" y2="22.929" transform="translate(0 5.781)" fill="none" stroke="#41bf50" stroke-width="1"/><line x2="22.931" y2="22.929" transform="translate(0 10.005)" fill="none" stroke="#41bf50" stroke-width="1"/><line x2="22.931" y2="22.929" transform="translate(0 14.229)" fill="none" stroke="#41bf50" stroke-width="1"/><line x2="22.931" y2="22.929" transform="translate(0 18.453)" fill="none" stroke="#41bf50" stroke-width="1"/><line x2="22.931" y2="22.929" transform="translate(0 22.979)" fill="none" stroke="#41bf50" stroke-width="1"/><line x2="22.931" y2="22.929" transform="translate(0 27.203)" fill="none" stroke="#41bf50" stroke-width="1"/><line x2="22.931" y2="22.929" transform="translate(0 31.427)" fill="none" stroke="#41bf50" stroke-width="1"/><line x2="22.931" y2="22.929" transform="translate(0 35.954)" fill="none" stroke="#41bf50" stroke-width="1"/><line x2="22.931" y2="22.929" transform="translate(0 40.178)" fill="none" stroke="#41bf50" stroke-width="1"/></g></g><path d="M840.343,428.277h-5.669V417.031h-2.142v11.246h-5.669v70.2h5.669v9.518h2.142v-9.518h5.669Z" transform="translate(149.657 4799.562)" fill="none" stroke="#41bf50" stroke-width="1"/></g></svg>