<svg xmlns="http://www.w3.org/2000/svg" xmlns:xlink="http://www.w3.org/1999/xlink" width="168.996" height="116.318" viewBox="0 0 168.996 116.318"><defs><linearGradient id="a" x1="0.146" y1="0.146" x2="0.952" y2="0.974" gradientUnits="objectBoundingBox"><stop offset="0" stop-color="#565a6f"/><stop offset="1" stop-color="#3e4257"/></linearGradient><filter id="b" x="0" y="0" width="168.996" height="116.318" filterUnits="userSpaceOnUse"><feOffset dy="15" input="SourceAlpha"/><feGaussianBlur stdDeviation="10" result="c"/><feFlood flood-opacity="0.4"/><feComposite operator="in" in2="c"/><feComposite in="SourceGraphic"/></filter></defs><g transform="translate(-84.021 -204.284)"><g transform="matrix(1, 0, 0, 1, 84.02, 204.28)" filter="url(#b)"><path d="M93.792,218.259l18.649,28.159L93.792,274.576h90.347l18.649-28.159-18.649-28.159Z" transform="translate(-63.79 -203.26)" fill="url(#a)"/></g><g transform="translate(112.021 217.13)"><path d="M185.092,277.754H94.744a1.973,1.973,0,0,1-1.714-1.046,2.29,2.29,0,0,1-.052-2.118l18.149-27.148L92.979,220.294a2.29,2.29,0,0,1,.052-2.118,1.973,1.973,0,0,1,1.714-1.046h90.348a1.984,1.984,0,0,1,1.765,1.143l18.649,28.157a2.3,2.3,0,0,1,0,2.023l-18.649,28.159A1.986,1.986,0,0,1,185.092,277.754Zm-87.016-4.305H183.89l17.585-26.007-17.585-26H98.076l17.085,24.993a2.309,2.309,0,0,1,0,2.023Z" transform="translate(-92.744 -217.13)" fill="#e4b940"/></g></g></svg>