<svg xmlns="http://www.w3.org/2000/svg" xmlns:xlink="http://www.w3.org/1999/xlink" width="335.932" height="709.19" viewBox="0 0 335.932 709.19"><defs><linearGradient id="a" x1="0.146" y1="0.146" x2="0.952" y2="0.974" gradientUnits="objectBoundingBox"><stop offset="0" stop-color="#565a6f"/><stop offset="1" stop-color="#3e4257"/></linearGradient><filter id="b" x="0" y="0" width="335.932" height="709.19" filterUnits="userSpaceOnUse"><feOffset dy="15" input="SourceAlpha"/><feGaussianBlur stdDeviation="20" result="c"/><feFlood flood-opacity="0.502"/><feComposite operator="in" in2="c"/><feComposite in="SourceGraphic"/></filter><linearGradient id="d" x1="0.609" y1="0.5" x2="1.019" y2="0.5" gradientUnits="objectBoundingBox"><stop offset="0" stop-color="#e0aa10"/><stop offset="1" stop-color="#e4b940"/></linearGradient><filter id="e" x="37.501" y="357.59" width="260.931" height="287.306" filterUnits="userSpaceOnUse"><feOffset dy="10" input="SourceAlpha"/><feGaussianBlur stdDeviation="7.5" result="f"/><feFlood flood-opacity="0.302"/><feComposite operator="in" in2="f"/><feComposite in="SourceGraphic"/></filter></defs><g transform="translate(60.002 -107.563)"><g transform="matrix(1, 0, 0, 1, -60, 107.56)" filter="url(#b)"><path d="M169.851,347.922a14.689,14.689,0,0,1-12.335,4.2,15.51,15.51,0,0,1-8.908-4.607L60.243,259.147a5.141,5.141,0,0,0-8.777,3.632V767.854a13.382,13.382,0,0,0,3.919,9.459L149.6,842.529a14.093,14.093,0,0,0,8.093,4.18A13.34,13.34,0,0,0,168.9,842.9l94.587-65.59a13.338,13.338,0,0,0,3.912-9.459V262.788a5.141,5.141,0,0,0-8.774-3.635Z" transform="translate(8.53 -212.63)" fill="url(#a)"/></g><path d="M591.507,444.382l-58.485-86.388a21.542,21.542,0,0,0-18.139-9.834H432.665a21.721,21.721,0,0,0-17.74,9.258l-58.234,83.211a21.51,21.51,0,0,0-.373,24.268l58.489,89.436a21.6,21.6,0,0,0,18.1,9.757h82.218a21.6,21.6,0,0,0,17.744-9.229l58.241-86.211A21.52,21.52,0,0,0,591.507,444.382Z" transform="translate(564.089 149.167) rotate(90)" fill="url(#d)"/><g transform="matrix(1, 0, 0, 1, -60, 107.56)" filter="url(#e)"><path d="M584.937,444.382l-58.485-86.388a21.542,21.542,0,0,0-18.139-9.834H426.095a21.726,21.726,0,0,0-17.74,9.258l-58.234,83.211a21.51,21.51,0,0,0-.37,24.268l58.485,89.436a21.6,21.6,0,0,0,18.106,9.757H508.56a21.593,21.593,0,0,0,17.74-9.229l58.241-86.211A21.519,21.519,0,0,0,584.937,444.382Z" transform="translate(624.09 23.91) rotate(90)" fill="#e4b940"/></g><path d="M169.851,347.922a14.689,14.689,0,0,1-12.335,4.2,15.51,15.51,0,0,1-8.908-4.607L60.243,259.147a5.141,5.141,0,0,0-8.777,3.632V720.854a13.382,13.382,0,0,0,3.919,9.459L149.6,795.529a14.093,14.093,0,0,0,8.093,4.18A13.34,13.34,0,0,0,168.9,795.9l94.587-65.59a13.338,13.338,0,0,0,3.912-9.459V262.788a5.141,5.141,0,0,0-8.774-3.635Z" transform="translate(-51.467 -105.067)" stroke="#e4b940" stroke-width="1" fill="url(#a)"/></g></svg>