<svg xmlns="http://www.w3.org/2000/svg" xmlns:xlink="http://www.w3.org/1999/xlink" width="191.824" height="201.625" viewBox="0 0 191.824 201.625"><defs><linearGradient id="a" x1="0.488" y1="0.157" x2="0.516" y2="0.952" gradientUnits="objectBoundingBox"><stop offset="0" stop-color="#e4b940"/><stop offset="0.31" stop-color="#e1b73f"/><stop offset="0.5" stop-color="#d9af3a"/><stop offset="0.67" stop-color="#caa233"/><stop offset="0.81" stop-color="#b59029"/><stop offset="0.95" stop-color="#9a791c"/><stop offset="1" stop-color="#8e6f16"/></linearGradient><linearGradient id="b" x1="0.094" y1="0.346" x2="0.901" y2="0.652" xlink:href="#a"/><linearGradient id="c" x1="-0.197" y1="0.254" x2="1.197" y2="0.746" xlink:href="#a"/></defs><path d="M33.119,79.624l.1-.06L0,60.38v64.241A7.131,7.131,0,0,0,10.705,130.8l18.846-10.88a7.126,7.126,0,0,0,3.568-6.182Z" transform="translate(0 -27.444)" fill="#8e6f16"/><path d="M0,32.964,33.223,52.148l29.464-17a7.153,7.153,0,0,0,3.568-6.182V7.189A7.142,7.142,0,0,0,55.539,1Z" transform="translate(0 -0.028)" fill="#e4b940"/><path d="M126.33,284.364,96.779,267.3a7.127,7.127,0,0,0-7.137,0L70.8,278.16a7.137,7.137,0,0,0,0,12.364l55.654,32.131V284.293Z" transform="translate(-30.546 -121.03)" fill="#e4b940"/><path d="M231.215,290.533a7.136,7.136,0,0,0,0-12.358l-18.868-10.912a7.123,7.123,0,0,0-7.137,0l-29.431,16.99v38.384Z" transform="translate(-79.871 -121.012)" fill="#8e6f16"/><path d="M296.172,32.951,240.4.962A7.137,7.137,0,0,0,229.71,7.154v21.8a7.142,7.142,0,0,0,3.569,6.182L262.829,52.2h0Z" transform="translate(-104.375 -0.015)" fill="#8e6f16"/><path d="M290.41,79.638v34.106a7.125,7.125,0,0,0,3.6,6.182l18.879,10.912a7.137,7.137,0,0,0,10.705-6.16L323.78,60.4Z" transform="translate(-131.956 -27.453)" fill="#e4b940"/><path d="M145.066,116.746l35.465-20.461a3.563,3.563,0,0,0,0-6.176L145.066,69.681a3.552,3.552,0,0,0-3.563,0L106.1,90.109a3.568,3.568,0,0,0,0,6.182l35.427,20.455A3.563,3.563,0,0,0,145.066,116.746Z" transform="translate(-47.4 -31.452)" fill="url(#a)"/><path d="M179.05,148.513v40.921a3.569,3.569,0,0,0,5.353,3.088l35.417-20.439a3.579,3.579,0,0,0,1.762-3.132V128.03a3.568,3.568,0,0,0-5.352-3.088L180.813,145.4A3.575,3.575,0,0,0,179.05,148.513Z" transform="translate(-81.356 -56.562)" fill="url(#b)"/><path d="M94.5,128.066v40.921a3.579,3.579,0,0,0,1.784,3.094l11.191,6.46L131.7,192.52a3.569,3.569,0,0,0,5.353-3.094V148.505a3.574,3.574,0,0,0-1.784-3.088L99.853,124.962a3.568,3.568,0,0,0-5.353,3.1Z" transform="translate(-42.939 -56.571)" fill="url(#c)"/></svg>