<svg xmlns="http://www.w3.org/2000/svg" viewBox="0 0 160 33.79"><defs><style>.cls-1{font-size:18.52px;font-family:BebasNeueBold, Bebas Neue;}.cls-1,.cls-6{fill:#fff;}.cls-2{letter-spacing:0em;}.cls-3{letter-spacing:0em;}.cls-4,.cls-5{fill:#516ffe;}.cls-4{letter-spacing:0em;}.cls-7{fill:#0096e6;}</style></defs><title>009Asset 5</title><g id="Layer_2" data-name="Layer 2"><g id="Layer_1-2" data-name="Layer 1"><rect width="160" height="24.22"/><text class="cls-1" transform="translate(11.33 18.36) scale(1.44 1)">TO<tspan class="cls-2" x="13.93" y="0">D</tspan><tspan x="21.47" y="0">AY</tspan><tspan class="cls-3" x="36.34" y="0">’</tspan><tspan x="39.7" y="0">S</tspan><tspan class="cls-4" x="46.62" y="0">G</tspan><tspan class="cls-5" x="53.83" y="0">AZETTE</tspan></text><rect class="cls-6" y="24.22" width="160" height="9.56"/><path class="cls-7" d="M27.25,30a6.51,6.51,0,0,1-.32.92,4.58,4.58,0,0,1-1.05.15,1.93,1.93,0,0,1-2.18-1.9,2,2,0,0,1,2.28-2,5.92,5.92,0,0,1,1.09.14c0,.27.06.69.1.94l-.23,0a1,1,0,0,0-.59-.78,1.69,1.69,0,0,0-.5-.08c-.83,0-1.25.7-1.25,1.6s.54,1.76,1.32,1.76c.49,0,.81-.25,1.12-.89Z"/><path class="cls-7" d="M31.35,31h-.17c-.73,0-.94-.19-1.12-.43s-.39-.67-.59-1c-.08-.16-.16-.19-.35-.19H29v.84c0,.46.06.5.49.56V31H27.74v-.21c.44-.05.49-.1.49-.56V28c0-.45-.06-.51-.49-.55v-.21H29.4a1.75,1.75,0,0,1,1,.22.86.86,0,0,1,.39.76,1,1,0,0,1-.72.93c.09.17.31.54.48.81a4.17,4.17,0,0,0,.44.59.7.7,0,0,0,.36.26Zm-2.19-1.87a.86.86,0,0,0,.57-.15A.84.84,0,0,0,30,28.3c0-.61-.34-.83-.67-.83-.15,0-.23,0-.26.06s0,.1,0,.22v1.37Z"/><path class="cls-7" d="M34.84,27.44a.76.76,0,0,0-.71.47c-.2.36-.38.67-.66,1.25a.54.54,0,0,0-.06.3v.71c0,.5,0,.52.51.58V31H32.11v-.21c.45-.06.49-.08.49-.58v-.66a.5.5,0,0,0-.06-.26c-.17-.34-.38-.72-.72-1.33-.22-.37-.3-.44-.63-.48v-.21h1.68v.21c-.39,0-.38.13-.28.33.19.37.44.83.66,1.25.17-.32.44-.87.6-1.22s.07-.31-.35-.36v-.21h1.34Z"/><path class="cls-7" d="M36.65,27.23a1.92,1.92,0,0,1,1,.23,1,1,0,0,1,.45.86,1.21,1.21,0,0,1-1.32,1.19h-.17l-.33-.08v.78c0,.48,0,.5.54.55V31H35v-.21c.43-.06.49-.07.49-.55V28c0-.48-.06-.53-.49-.56v-.21Zm-.34,1.94a.64.64,0,0,0,.3.06c.26,0,.69-.15.69-.91s-.35-.86-.72-.86a.32.32,0,0,0-.22.06.23.23,0,0,0,0,.18Z"/><path class="cls-7" d="M41.85,28.22a1.93,1.93,0,0,0-.24-.56c-.11-.12-.15-.17-.49-.17h-.37v2.7c0,.48.06.52.57.56V31H39.41v-.21c.49,0,.54-.08.54-.56v-2.7H39.6c-.32,0-.41.05-.52.19a2.11,2.11,0,0,0-.23.55h-.22c0-.42.08-.87.09-1.15h.17c.09.14.16.15.33.15h2.29a.39.39,0,0,0,.34-.15H42c0,.25,0,.75.06,1.12Z"/><path class="cls-7" d="M44.49,27.15a1.87,1.87,0,0,1,1.93,1.9,2,2,0,1,1-1.93-1.9Zm-.09.25c-.58,0-1,.57-1,1.59s.38,1.8,1.16,1.8c.54,0,1-.53,1-1.58S45.07,27.4,44.4,27.4Z"/><path class="cls-7" d="M50.57,30a8.08,8.08,0,0,1-.32.92,4.59,4.59,0,0,1-1.06.15A1.94,1.94,0,0,1,47,29.14a2,2,0,0,1,2.28-2,5.92,5.92,0,0,1,1.09.14c0,.27.07.69.11.94l-.23,0a1,1,0,0,0-.6-.78,1.64,1.64,0,0,0-.5-.08c-.83,0-1.25.7-1.25,1.6s.54,1.76,1.33,1.76c.48,0,.8-.25,1.11-.89Z"/><path class="cls-7" d="M55,27.44c-.36,0-.46.14-.48.35a6.51,6.51,0,0,0,0,.77v.75A1.9,1.9,0,0,1,54,30.65,1.5,1.5,0,0,1,53,31a1.64,1.64,0,0,1-1-.29,1.39,1.39,0,0,1-.5-1.25V28.05c0-.53,0-.57-.49-.61v-.21h1.78v.21c-.43,0-.49.08-.49.61v1.53c0,.64.32,1.06.93,1.06s1-.5,1-1.36v-.72c0-.4,0-.6,0-.77s-.19-.33-.59-.35v-.21H55Z"/><path class="cls-7" d="M58.86,31h-.17c-.73,0-.95-.19-1.12-.43s-.39-.67-.59-1c-.08-.16-.16-.19-.35-.19h-.11v.84c0,.46,0,.5.48.56V31H55.25v-.21c.43-.05.49-.1.49-.56V28c0-.45-.06-.51-.49-.55v-.21h1.66a1.75,1.75,0,0,1,1,.22.86.86,0,0,1,.39.76,1,1,0,0,1-.72.93c.08.17.31.54.48.81a4.17,4.17,0,0,0,.44.59.7.7,0,0,0,.36.26Zm-2.19-1.87a.73.73,0,0,0,.83-.82c0-.61-.35-.83-.67-.83-.15,0-.23,0-.26.06s0,.1,0,.22v1.37Z"/><path class="cls-7" d="M62.7,31h-.17c-.73,0-.94-.19-1.11-.43a10.23,10.23,0,0,1-.59-1,.32.32,0,0,0-.35-.19h-.12v.84c0,.46.06.5.49.56V31H59.1v-.21c.43-.05.48-.1.48-.56V28c0-.45,0-.51-.48-.55v-.21h1.66a1.77,1.77,0,0,1,1,.22.86.86,0,0,1,.38.76,1,1,0,0,1-.71.93c.08.17.31.54.48.81a5.45,5.45,0,0,0,.43.59.79.79,0,0,0,.36.26Zm-2.18-1.87a.73.73,0,0,0,.83-.82c0-.61-.35-.83-.67-.83-.15,0-.23,0-.26.06s-.06.1-.06.22v1.37Z"/><path class="cls-7" d="M66.09,30c0,.16-.19.82-.24,1h-3v-.21c.53-.05.56-.08.56-.56V28c0-.49-.07-.52-.46-.56v-.21h2.75c0,.1,0,.57.06.93l-.23,0a1.59,1.59,0,0,0-.24-.54c-.11-.11-.18-.15-.47-.15h-.38c-.21,0-.24,0-.24.21v1.2h.56c.33,0,.38-.09.47-.49h.22v1.27h-.22c-.09-.42-.14-.49-.47-.49h-.56v1c0,.39,0,.51.37.52H65c.32,0,.4,0,.53-.2a2.36,2.36,0,0,0,.35-.57Z"/><path class="cls-7" d="M70.43,27.44c-.35,0-.46.12-.48.38s0,.42,0,.92V31H69.6l-2.4-2.87v1.3c0,.5,0,.72,0,.89s.15.38.57.41V31H66.38v-.21c.32,0,.47-.12.5-.39a6,6,0,0,0,0-.91V28.09a.7.7,0,0,0-.12-.47c-.11-.14-.24-.16-.48-.18v-.21h1.11l2.19,2.54v-1c0-.5,0-.69,0-.9s-.11-.37-.59-.4v-.21h1.42Z"/><path class="cls-7" d="M74.37,30a6.46,6.46,0,0,1-.33.92A4.39,4.39,0,0,1,73,31a1.94,1.94,0,0,1-2.18-1.9,2,2,0,0,1,2.28-2,5.92,5.92,0,0,1,1.09.14c0,.27.07.69.11.94l-.23,0a1,1,0,0,0-.6-.78,1.64,1.64,0,0,0-.5-.08c-.83,0-1.25.7-1.25,1.6s.54,1.76,1.32,1.76c.49,0,.81-.25,1.12-.89Z"/><path class="cls-7" d="M78.33,27.44a.75.75,0,0,0-.7.47c-.21.36-.39.67-.67,1.25a.64.64,0,0,0-.06.3v.71c0,.5,0,.52.52.58V31H75.6v-.21c.46-.06.5-.08.5-.58v-.66a.5.5,0,0,0-.07-.26c-.16-.34-.38-.72-.72-1.33-.21-.37-.3-.44-.63-.48v-.21h1.68v.21c-.38,0-.37.13-.28.33.19.37.44.83.66,1.25.17-.32.45-.87.61-1.22s.06-.31-.35-.36v-.21h1.33Z"/><path class="cls-7" d="M78.54,31.33h-.39l1.53-4.21h.41Z"/><path d="M82.74,28.9c.6.11,1,.4,1,.94a1,1,0,0,1-.55.88,2.28,2.28,0,0,1-1.09.24H80.52v-.21c.44-.05.49-.08.49-.56V28c0-.48-.07-.53-.48-.56v-.21h1.74a1.71,1.71,0,0,1,.94.2.73.73,0,0,1,.35.64A.93.93,0,0,1,82.74,28.9ZM82,28.83c.55,0,.75-.24.75-.66a.62.62,0,0,0-.64-.69.5.5,0,0,0-.27.05c-.07,0-.06.09-.06.21v1.09Zm-.22,1.35c0,.41.19.54.5.53s.62-.28.62-.81-.28-.82-.92-.82h-.2Z"/><path d="M87.24,30c0,.25-.21.85-.26,1H84.13v-.21c.51,0,.55-.08.55-.56V28c0-.48-.05-.52-.48-.56v-.21H86v.21c-.45,0-.51.08-.51.56v2.23c0,.31,0,.46.33.46h.3a.6.6,0,0,0,.55-.22,2.49,2.49,0,0,0,.36-.6Z"/><path d="M89.58,27.15a1.87,1.87,0,0,1,1.93,1.9,2,2,0,0,1-3.94.05A1.92,1.92,0,0,1,89.58,27.15Zm-.08.25c-.59,0-1,.57-1,1.59s.39,1.8,1.16,1.8c.55,0,1-.53,1-1.58S90.16,27.4,89.5,27.4Z"/><path d="M95.66,30a8.08,8.08,0,0,1-.32.92,4.59,4.59,0,0,1-1.06.15,1.94,1.94,0,0,1-2.18-1.9,2,2,0,0,1,2.29-2,5.64,5.64,0,0,1,1.08.14c0,.27.07.69.11.94l-.23,0a1,1,0,0,0-.6-.78,1.57,1.57,0,0,0-.49-.08c-.84,0-1.26.7-1.26,1.6s.54,1.76,1.33,1.76c.48,0,.8-.25,1.11-.89Z"/><path d="M96.15,27.23h1.73v.21c-.41,0-.47.08-.47.56v1a1.29,1.29,0,0,0,.45-.31,8.32,8.32,0,0,0,.81-.91c.14-.18.1-.26-.16-.3H98.4v-.21h1.5v.21a1.28,1.28,0,0,0-1,.47c-.22.24-.5.52-.75.8.36.5.81,1.12,1.25,1.67a.69.69,0,0,0,.58.37V31H98.87c-.25-.33-.75-1-1.16-1.6-.12-.17-.21-.21-.3-.19v1c0,.49,0,.51.48.57V31H96.15v-.21c.43-.05.48-.08.48-.57V28c0-.48,0-.52-.48-.56Z"/><path d="M103.61,30a8.08,8.08,0,0,1-.32.92,4.59,4.59,0,0,1-1.06.15,1.94,1.94,0,0,1-2.18-1.9,2,2,0,0,1,2.28-2,5.92,5.92,0,0,1,1.09.14c0,.27.07.69.11.94l-.23,0a1,1,0,0,0-.6-.78,1.64,1.64,0,0,0-.5-.08c-.83,0-1.25.7-1.25,1.6s.54,1.76,1.33,1.76c.48,0,.8-.25,1.11-.89Z"/><path d="M108.21,27.44c-.45,0-.49.08-.49.56v2.2c0,.47,0,.51.49.55V31h-1.77v-.21c.45-.06.49-.08.49-.55V29.12h-1.55V30.2c0,.47.05.5.48.55V31h-1.77v-.21c.43-.05.49-.08.49-.55V28c0-.48,0-.52-.49-.56v-.21h1.77v.21c-.44,0-.48.08-.48.56v.82h1.55V28c0-.48-.06-.51-.49-.56v-.21h1.77Z"/><path d="M110.6,31v-.21c.36-.06.36-.12.28-.37l-.23-.66h-1.12l-.2.58c-.12.36,0,.41.47.45V31h-1.42v-.21c.36-.05.45-.1.65-.58l1.19-3,.28-.05c.37,1,.76,2,1.13,3,.21.53.26.57.64.62V31Zm-.5-2.74c-.17.41-.33.79-.47,1.21h.91Z"/><path d="M112.47,31v-.21c.43,0,.49-.08.49-.56V28c0-.48-.06-.52-.49-.56v-.21h1.77v.21c-.43,0-.49.08-.49.56v2.19c0,.48.06.51.49.56V31Z"/><path d="M118.73,27.44c-.35,0-.46.12-.48.38a9.2,9.2,0,0,0,0,.92V31h-.32l-2.4-2.87v1.3a7.85,7.85,0,0,0,0,.89c0,.25.14.38.57.41V31h-1.42v-.21c.32,0,.47-.12.5-.39a7.84,7.84,0,0,0,0-.91V28.09a.75.75,0,0,0-.12-.47c-.11-.14-.25-.16-.49-.18v-.21h1.12l2.19,2.54v-1c0-.5,0-.69,0-.9s-.11-.37-.59-.4v-.21h1.42Z"/><path d="M124.29,27.44c-.35,0-.45.12-.47.38a8.35,8.35,0,0,0,0,.92V31h-.32l-2.39-2.87v1.3a7.85,7.85,0,0,0,0,.89c0,.25.14.38.57.41V31h-1.43v-.21c.33,0,.47-.12.51-.39a8.69,8.69,0,0,0,0-.91V28.09a.7.7,0,0,0-.12-.47c-.1-.14-.24-.16-.48-.18v-.21h1.12l2.18,2.54v-1c0-.5,0-.69,0-.9s-.11-.37-.58-.4v-.21h1.41Z"/><path d="M127.8,30c0,.16-.19.82-.24,1h-3v-.21c.52-.05.55-.08.55-.56V28c0-.49-.06-.52-.45-.56v-.21h2.74c0,.1,0,.57.06.93l-.22,0a1.43,1.43,0,0,0-.25-.54c-.1-.11-.18-.15-.47-.15h-.37c-.22,0-.24,0-.24.21v1.2h.56c.32,0,.38-.09.46-.49h.23v1.27H127c-.09-.42-.13-.49-.47-.49h-.55v1c0,.39,0,.51.36.52h.41c.32,0,.41,0,.53-.2a2.08,2.08,0,0,0,.35-.57Z"/><path d="M133.41,27.44c-.41,0-.49.14-.65.61s-.58,1.8-.94,3h-.32c-.29-.82-.62-1.67-.95-2.53-.29.86-.58,1.7-.85,2.53h-.33c-.23-.81-.6-2-.92-3-.15-.44-.23-.53-.58-.57v-.21h1.73v.21c-.43,0-.44.13-.36.43.19.66.39,1.33.58,1.95.29-.81.57-1.67.83-2.56H131c.31.88.64,1.73.95,2.57.22-.62.49-1.58.57-1.91s0-.44-.47-.48v-.21h1.4Z"/><path d="M135.71,28.18c-.11-.37-.27-.79-.8-.79a.53.53,0,0,0-.55.56c0,.31.21.5.72.75s1,.61,1,1.17A1.23,1.23,0,0,1,134.7,31a3.37,3.37,0,0,1-1-.17c0-.14-.13-.73-.17-1l.23-.05c.11.36.43,1,1,1a.53.53,0,0,0,.57-.58c0-.34-.21-.53-.69-.79s-1-.61-1-1.2.47-1.08,1.33-1.08a4,4,0,0,1,.82.1c0,.21.07.51.11.87Z"/></g></g></svg>