<svg xmlns="http://www.w3.org/2000/svg" viewBox="1700 -1724 24 22.515"><defs><style>.a{fill:#fff;}</style></defs><g transform="translate(1700.017 -1743.059)"><g transform="translate(-0.017 19.059)"><g transform="translate(0 0)"><path class="a" d="M21.156,31.612l-.216.781A8.569,8.569,0,0,1,10.731,38.5a8.442,8.442,0,0,1-6.307-9.445l1.29.361a.4.4,0,0,0,.5-.49l-1.4-5.468a.4.4,0,0,0-.675-.188L.106,27.226a.4.4,0,0,0,.173.679l1.4.392a11.275,11.275,0,0,0,8.241,12.92,11.416,11.416,0,0,0,13.744-8.1l.208-.745a.407.407,0,0,0-.278-.5l-1.942-.541A.4.4,0,0,0,21.156,31.612Zm2.295-3.4-2.04.267a.405.405,0,0,0-.349.451l.078.62a.405.405,0,0,0,.451.349l2.04-.267a.405.405,0,0,0,.349-.451l-.078-.62A.4.4,0,0,0,23.451,28.207Zm-1.569-3.852-1.792,1.008a.4.4,0,0,0-.153.549l.306.541a.4.4,0,0,0,.549.153L22.584,25.6a.4.4,0,0,0,.153-.549l-.306-.541A.4.4,0,0,0,21.882,24.355Zm-2.9-2.985L17.7,22.979a.409.409,0,0,0,.063.569l.486.388a.409.409,0,0,0,.569-.063L20.1,22.265a.409.409,0,0,0-.063-.569l-.486-.388A.405.405,0,0,0,18.983,21.371Zm-3.8-1.683-.588,1.969a.406.406,0,0,0,.271.5l.6.177a.406.406,0,0,0,.5-.271l.588-1.969a.406.406,0,0,0-.271-.5l-.6-.177A.4.4,0,0,0,15.183,19.688Zm-4.158-.129.192,2.047a.4.4,0,0,0,.439.365l.62-.059a.4.4,0,0,0,.365-.439l-.192-2.047a.4.4,0,0,0-.439-.365l-.62.059A.4.4,0,0,0,11.025,19.558ZM7.119,20.99l.945,1.824a.406.406,0,0,0,.545.173l.553-.286a.406.406,0,0,0,.173-.545l-.945-1.824a.406.406,0,0,0-.545-.173l-.553.286A.408.408,0,0,0,7.119,20.99Z" transform="translate(0.017 -19.059)"/></g></g><g transform="translate(7.976 25.645)"><g transform="translate(0 0)"><path class="a" d="M207.25,190.337a2.543,2.543,0,0,0,2.318,0,.711.711,0,0,0-.008-1.345,2.543,2.543,0,0,0-2.318,0A.712.712,0,0,0,207.25,190.337Zm.294-.643.145-.047a.1.1,0,0,1,.075,0,.056.056,0,0,1,.024.027.5.5,0,0,0,.153.165l.035.024a.467.467,0,0,0,.126.047c.126.027.235-.02.224-.1a.146.146,0,0,0-.035-.075,1.428,1.428,0,0,1-.126-.188c-.047-.106-.024-.2.122-.278a.762.762,0,0,1,.553-.039c.078.024.078.024.145-.012l.063-.035a.089.089,0,0,1,.114,0l.043.024c.1.059.1.059,0,.118-.071.039-.071.039-.012.086a.516.516,0,0,1,.11.118c.016.024,0,.039-.031.051-.055.016-.11.035-.165.055-.035.008-.055.012-.071,0a.067.067,0,0,1-.024-.024.447.447,0,0,0-.165-.153.232.232,0,0,0-.031-.016.363.363,0,0,0-.078-.031c-.106-.024-.2.016-.188.082a.179.179,0,0,0,.047.094,1.258,1.258,0,0,1,.106.161c.09.18-.106.357-.416.373a.931.931,0,0,1-.318-.039.133.133,0,0,0-.11.008c-.031.02-.071.039-.1.059a.09.09,0,0,1-.094,0l-.067-.035a.293.293,0,0,1-.047-.027c-.031-.02-.027-.039,0-.059s.051-.027.075-.043c.055-.031.055-.035.008-.071a.559.559,0,0,1-.141-.149C207.474,189.725,207.478,189.718,207.544,189.694Zm2.236.761a.714.714,0,0,1,.643,0,.2.2,0,0,1,0,.373.714.714,0,0,1-.643,0A.2.2,0,0,1,209.78,190.455ZM206.4,188.5a.714.714,0,0,1,.643,0,.2.2,0,0,1,0,.373.714.714,0,0,1-.643,0C206.219,188.768,206.215,188.6,206.4,188.5Zm-2.408.8,5.071,2.926a1.172,1.172,0,0,0,1.059,0l2.714-1.577a.324.324,0,0,0,0-.612L207.76,187.1a1.171,1.171,0,0,0-1.059,0l-2.714,1.581C203.693,188.851,203.7,189.125,203.987,189.3Zm1.1-.624a.822.822,0,0,0-.1-.051l1.624-.941a.82.82,0,0,0,.086.059,1.184,1.184,0,0,0,1.071,0,.377.377,0,0,0,.086-.063l3.946,2.283a.859.859,0,0,0-.149.067c-.3.173-.294.447,0,.62a.858.858,0,0,0,.149.067l-1.639.953a.571.571,0,0,0-.118-.086,1.172,1.172,0,0,0-1.071,0,.355.355,0,0,0-.063.043l-3.938-2.275a.664.664,0,0,0,.106-.051A.329.329,0,0,0,205.089,188.674Zm-1.236,1.208a.507.507,0,0,1,.451.016l5.3,3.059,2.863-1.663a.483.483,0,0,1,.451,0c.126.075.126.188,0,.263l-3.04,1.765a.6.6,0,0,1-.541,0l-.106-.063-.075-.043-5.311-3.067C203.716,190.075,203.716,189.953,203.853,189.882Zm9.076,2.628-3.044,1.769a.6.6,0,0,1-.541,0l-.106-.063-.075-.043-5.311-3.067c-.129-.075-.126-.2.012-.271a.507.507,0,0,1,.451.016l5.3,3.059,2.863-1.663a.483.483,0,0,1,.451,0A.14.14,0,0,1,212.929,192.51Zm-9.076-.718a.507.507,0,0,1,.451.016l5.3,3.059,2.863-1.667a.483.483,0,0,1,.451,0c.126.075.126.188,0,.263l-3.04,1.769a.6.6,0,0,1-.541,0l-.106-.063-.075-.043-5.311-3.067C203.716,191.989,203.716,191.867,203.853,191.792Zm9.076,2.628-3.044,1.773a.6.6,0,0,1-.541,0l-.106-.063-.075-.043-5.311-3.067c-.129-.075-.126-.2.012-.271a.507.507,0,0,1,.451.016l5.3,3.059,2.863-1.663a.483.483,0,0,1,.451,0A.137.137,0,0,1,212.929,194.42Z" transform="translate(-203.749 -186.975)"/></g></g></g></svg>