<svg xmlns="http://www.w3.org/2000/svg" viewBox="564 -1703 23.883 24"><defs><style>.a{fill:#a7a7a7;}</style></defs><g transform="translate(562.827 -1703)"><g transform="translate(1.173)"><g transform="translate(0)"><path class="a" d="M22.464,346.907l.913.913h-6.2v.8h6.2l-.913.913.563.563,1.874-1.874-1.874-1.874Z" transform="translate(-16.377 -329.111)"/><path class="a" d="M7.735,242.344l-1.874,1.874,1.874,1.874.563-.563-.913-.913h6.2v-.8h-6.2l.913-.913Z" transform="translate(-5.628 -230.286)"/><path class="a" d="M17.891,8.778V1.194A1.194,1.194,0,0,0,16.7,0H2.367A1.194,1.194,0,0,0,1.173,1.194V9.951a1.194,1.194,0,0,0,1.194,1.194h9.623c-.043.045-.09.086-.132.133A7.563,7.563,0,1,0,22.919,21.6q.107-.115.209-.233A7.553,7.553,0,0,0,17.891,8.778Zm-5.63,3.264a9.332,9.332,0,0,0,1.725.643,13.274,13.274,0,0,0-.464,3.236H10.745A6.755,6.755,0,0,1,12.262,12.043Zm.562-.606c.024-.024.046-.049.07-.072.07-.065.143-.125.215-.187.1-.086.2-.171.309-.251.077-.059.157-.114.237-.169.107-.074.215-.145.326-.213.083-.051.167-.1.252-.146.114-.063.23-.119.347-.178.087-.04.174-.083.262-.119.119-.052.245-.1.369-.143.051-.018.1-.036.152-.053a6.8,6.8,0,0,0-1.128,2.026A8.834,8.834,0,0,1,12.824,11.436Zm-2.079,5.282h2.778a13.274,13.274,0,0,0,.464,3.236,9.3,9.3,0,0,0-1.725.643A6.757,6.757,0,0,1,10.745,16.718Zm4.469,5.965c-.126-.046-.249-.092-.369-.144-.089-.038-.177-.08-.264-.119-.116-.056-.231-.114-.344-.176q-.129-.071-.255-.148c-.109-.067-.217-.137-.323-.21-.08-.056-.162-.112-.239-.172-.1-.08-.2-.162-.3-.246-.074-.063-.15-.126-.222-.192-.024-.022-.045-.047-.069-.069a8.823,8.823,0,0,1,1.412-.5,6.8,6.8,0,0,0,1.128,2.026Zm1.882.342a3.791,3.791,0,0,1-2.07-2.492,13.094,13.094,0,0,1,2.07-.221Zm0-3.508a13.83,13.83,0,0,0-2.321.255,12.473,12.473,0,0,1-.455-3.054H17.1Zm0-3.595H14.319a12.47,12.47,0,0,1,.455-3.053h0a13.732,13.732,0,0,0,2.321.256v2.8Zm0-3.594a13.112,13.112,0,0,1-2.07-.221A3.791,3.791,0,0,1,17.1,9.615Zm0-3.549a7.3,7.3,0,0,0-4.228,1.571H2.367a.4.4,0,0,1-.4-.4V4.777H17.1Zm0-4.8H1.969v-.8H17.1Zm0-1.592H1.969V1.194a.4.4,0,0,1,.4-.4H16.7a.4.4,0,0,1,.4.4Zm7.147,13.534H21.463A13.274,13.274,0,0,0,21,12.686a9.291,9.291,0,0,0,1.725-.643A6.757,6.757,0,0,1,24.242,15.922ZM19.774,9.957c.125.046.248.092.369.144h0c.089.038.177.08.264.119q.174.084.344.176c.086.047.171.1.255.148.11.066.217.137.323.21.08.056.162.112.239.172.1.08.2.162.3.246.074.063.15.126.222.192.024.022.045.047.069.069a8.823,8.823,0,0,1-1.412.5A6.8,6.8,0,0,0,19.621,9.9Zm-1.882-.342a3.791,3.791,0,0,1,2.07,2.492,13.094,13.094,0,0,1-2.07.221Zm0,3.51a13.716,13.716,0,0,0,2.321-.256,12.467,12.467,0,0,1,.455,3.053H17.891v-2.8Zm0,3.593h2.776a12.471,12.471,0,0,1-.455,3.054,13.846,13.846,0,0,0-2.321-.255v-2.8Zm0,6.307V20.313a13.112,13.112,0,0,1,2.07.221A3.8,3.8,0,0,1,17.891,23.025Zm4.2-1.749c-.07.065-.143.125-.215.187-.1.086-.2.171-.309.251-.077.058-.157.113-.236.168-.107.074-.216.146-.327.213-.083.05-.167.1-.252.146-.114.063-.23.119-.347.178-.087.04-.174.083-.262.119-.119.052-.245.1-.369.143-.051.018-.1.036-.152.053a6.8,6.8,0,0,0,1.128-2.026,8.833,8.833,0,0,1,1.411.5C22.139,21.228,22.117,21.253,22.092,21.276Zm.633-.678A9.3,9.3,0,0,0,21,19.954h0a13.274,13.274,0,0,0,.464-3.236h2.778A6.755,6.755,0,0,1,22.725,20.6Z" transform="translate(-1.173)"/><path class="a" d="M34.977,146.172a1.2,1.2,0,0,0,.341-.341,1.193,1.193,0,1,0,0-1.314,1.194,1.194,0,1,0-.341,1.654Zm1.336-1.395a.4.4,0,1,1-.4.4A.4.4,0,0,1,36.313,144.777Zm-1.99,0a.4.4,0,1,1-.4.4A.4.4,0,0,1,34.323,144.777Z" transform="translate(-31.536 -136.816)"/></g></g></g></svg>