<svg xmlns="http://www.w3.org/2000/svg" viewBox="1132.019 -1821.374 68.449 12.531"><defs><style>.a{fill:#2c92ff;}</style></defs><g transform="translate(1132.019 -1821.374)"><path class="a" d="M19.673,1.454l-3.849,10.82v.086L15.1,10.906l-1.454.684L17.492.727,18.946,0Zm9.58.257L25.4,12.531l-.727-1.454-1.454.684.086-.257L27.115.684,28.654,0l.684,1.454Zm-8.211,9.366L23.351,4.7l-1.5.684-.727-1.454L18.86,10.307l.684,1.454ZM8.81,4.79H2.1L3.25,5.9,2.1,7.014H8.853L10.008,5.9Zm-7.655,4.7H12.06l-1.155,1.112,1.155,1.112H1.155L0,10.649ZM4.491.086H15.4L14.242,1.2,15.4,2.352H4.491L3.336,1.2Z"/><path class="a" d="M104.6,9.562a4.3,4.3,0,0,1,.342-1.668,4.163,4.163,0,0,1,2.309-2.352,4.971,4.971,0,0,1,1.8-.342,5.344,5.344,0,0,1,1.8.342,3.968,3.968,0,0,1,2.267,2.352,4.609,4.609,0,0,1,0,3.379,4.163,4.163,0,0,1-2.309,2.352,4.971,4.971,0,0,1-1.8.342,4.6,4.6,0,0,1-2.267-.6,4.668,4.668,0,0,1-1.582-1.582,4.1,4.1,0,0,1-.556-2.224Zm-24.377-.77h4.448v1.454H80.225V12.3h4.662v1.5H78.6V5.371h6.244V6.825H80.225Zm5.474,5,2.951-4.32L85.828,5.328h1.925l2.053,2.994,2.053-2.994H93.74L90.917,9.477l2.951,4.32H91.943l-2.138-3.165L87.624,13.8Zm9.109,0V5.371h1.753l2.566,3.764,2.566-3.764h1.753v8.468H101.78V7.98l-2.652,3.635h-.043L96.434,7.98V13.8Zm11.419-4.234a3.308,3.308,0,0,0,.342,1.454,2.626,2.626,0,0,0,.984,1.069,2.844,2.844,0,0,0,1.454.385,2.628,2.628,0,0,0,2.395-1.454,3.075,3.075,0,0,0,.342-1.5,3.308,3.308,0,0,0-.342-1.454A2.626,2.626,0,0,0,110.419,7a2.844,2.844,0,0,0-1.454-.385,2.628,2.628,0,0,0-2.395,1.454,3.807,3.807,0,0,0-.342,1.5Z" transform="translate(-44.985 -2.976)"/></g></svg>