<svg xmlns="http://www.w3.org/2000/svg" viewBox="1753.984 -1819 30 30.002"><defs><style>.a{fill:#fff;}</style></defs><g transform="translate(434 -1834)"><path class="a" d="M15.017,30a15,15,0,1,1,15-15,1.95,1.95,0,1,1-3.9,0,11.085,11.085,0,1,0-5.549,9.618A1.95,1.95,0,0,1,22.523,28,14.988,14.988,0,0,1,15.017,30Z" transform="translate(1319.967 15)"/><path class="a" d="M101.3,109.8a8.476,8.476,0,1,1,8.479-8.476A8.485,8.485,0,0,1,101.3,109.8Zm0-13.053a4.576,4.576,0,1,0,4.578,4.576A4.58,4.58,0,0,0,101.3,96.743Z" transform="translate(1233.685 -71.314)"/><path class="a" d="M283.655,196.082a5.181,5.181,0,0,1-3.679-1.523,5.128,5.128,0,0,1-1.533-3.689v-3.264a1.95,1.95,0,0,1,3.9,0v3.264a1.256,1.256,0,0,0,.374.915,1.314,1.314,0,0,0,1.871.012,1.3,1.3,0,0,0,.376-.926v-3.264a1.95,1.95,0,1,1,3.9,0v3.264a5.2,5.2,0,0,1-5.21,5.212Z" transform="translate(1061.12 -157.601)"/></g></svg>