<svg xmlns="http://www.w3.org/2000/svg" viewBox="969 -897 12 12.011"><defs><style>.a{fill:#ffb300;}</style></defs><g transform="translate(968.988 -897)"><g transform="translate(0.012)"><rect class="a" width="4.637" height="0.927" transform="translate(4.173 5.564)"/><path class="a" d="M6.044,10.2H1.4a.464.464,0,0,1-.464-.464V1.855h9.273V5.766a1.366,1.366,0,0,1,.927-.115V1.391A1.391,1.391,0,0,0,9.749,0H1.4A1.391,1.391,0,0,0,.012,1.391V9.737A1.392,1.392,0,0,0,1.4,11.128h4.37Z" transform="translate(-0.012)"/><rect class="a" width="4.637" height="0.927" transform="translate(4.173 3.709)"/><path class="a" d="M9.012,16.927H12.3L13.234,16H9.012Z" transform="translate(-4.839 -8.581)"/><rect class="a" width="0.927" height="0.927" transform="translate(2.318 5.564)"/><rect class="a" width="0.927" height="0.927" transform="translate(2.318 3.709)"/><rect class="a" width="0.927" height="0.927" transform="translate(2.318 7.419)"/></g><g transform="translate(6.559 6.536)"><path class="a" d="M23.3,14.948l-.7-.7a.493.493,0,0,0-.7,0l-.566.569,1.4,1.411.566-.57A.5.5,0,0,0,23.3,14.948Z" transform="translate(-17.993 -14.096)"/><path class="a" d="M14.7,18.87a.2.2,0,0,0-.07.1l-.49,1.676a.207.207,0,0,0,.2.266A.194.194,0,0,0,14.4,20.9l1.67-.492a.2.2,0,0,0,.095-.064l2.29-2.279L16.986,16.6Zm.222,1.445-.2-.2L15,19.169l.71.147.14.724Z" transform="translate(-14.131 -15.436)"/></g></g></svg>