<svg xmlns="http://www.w3.org/2000/svg" viewBox="-425.611 615.617 18 17.213"><defs><style>.a{fill:#303030;}</style></defs><g transform="translate(-425.611 604.426)"><g transform="translate(1.218 24.601)"><g transform="translate(0 0)"><path class="a" d="M37.107,393.376a1.294,1.294,0,1,0,.04.99A1.286,1.286,0,0,0,37.107,393.376Zm-.436.814a.786.786,0,1,1-.025-.6A.787.787,0,0,1,36.671,394.19Z" transform="translate(-34.638 -392.625)"/></g></g><g transform="translate(0 11.192)"><g transform="translate(0 0)"><path class="a" d="M17.746,19.541A.254.254,0,0,0,18,19.287V13.734a.666.666,0,0,0-.665-.665H9.862a1.713,1.713,0,0,0-1.126-1.863.254.254,0,0,0-.322.151l-.638,1.712H4.061l-.638-1.712a.254.254,0,0,0-.322-.151,1.713,1.713,0,0,0-1.126,1.863H1.451a.666.666,0,0,0-.665.665v7.939a.666.666,0,0,0,.665.665H4.325l-.522,1.4A2.511,2.511,0,1,0,1.641,28.25,2.47,2.47,0,0,0,2.5,28.4a2.5,2.5,0,0,0,1.05-.233,2.548,2.548,0,0,0,1.333-1.445L5.919,23.9l1.037,2.822a2.548,2.548,0,0,0,1.333,1.445,2.5,2.5,0,0,0,1.05.233,2.509,2.509,0,0,0,2.317-3.443,2.511,2.511,0,0,0-3.621-1.22l-.522-1.4h9.822A.666.666,0,0,0,18,21.674V20.9a.254.254,0,1,0-.508,0v.769a.157.157,0,0,1-.157.157H6.681l3.033-8.254h7.621a.157.157,0,0,1,.157.157v5.553A.254.254,0,0,0,17.746,19.541ZM2.58,12.308a1.194,1.194,0,0,1,.463-.516l.476,1.277H2.491A1.194,1.194,0,0,1,2.58,12.308ZM1.451,21.831h0a.157.157,0,0,1-.157-.157V13.734a.157.157,0,0,1,.157-.157h4.08v.677a.254.254,0,0,0,.508,0v-.677H7.588l-1.549,4.16V15.85a.254.254,0,1,0-.508,0V19.1L4.514,21.831Zm5.52.508h0l.7,1.887a.254.254,0,0,0,.4.109,2,2,0,1,1,1.95,3.439A1.97,1.97,0,0,1,8.5,27.711a2.044,2.044,0,0,1-1.069-1.159L6.19,23.169l.3-.83Zm2.328-9.1L4.405,26.551a2.044,2.044,0,0,1-1.069,1.159A2,2,0,0,1,.653,25.15a2,2,0,0,1,3.114-.815.254.254,0,0,0,.4-.109l.764-2.052h0L8.794,11.792a1.2,1.2,0,0,1,.5,1.443Z" transform="translate(0 -11.192)"/></g></g><g transform="translate(8.031 24.601)"><g transform="translate(0 0)"><path class="a" d="M230.955,393.472a1.294,1.294,0,1,0-.04.99A1.3,1.3,0,0,0,230.955,393.472Zm-.5.776a.786.786,0,1,1,.025-.6A.781.781,0,0,1,230.454,394.248Z" transform="translate(-228.447 -392.624)"/></g></g><g transform="translate(2.161 15.463)"><path class="a" d="M63,134.693v-1.171c.4.029.554.213.692.213.173,0,.254-.219.254-.329,0-.283-.554-.4-.946-.415v-.156c0-.069-.087-.133-.173-.133a.152.152,0,0,0-.167.133V133a1.071,1.071,0,0,0-1.1,1.073c0,.738.577.946,1.1,1.131v1.355c-.588-.046-.744-.45-.934-.45-.144,0-.265.19-.265.329,0,.283.485.669,1.2.681v.179a.152.152,0,0,0,.167.133c.087,0,.173-.063.173-.133v-.2a1.117,1.117,0,0,0,1.05-1.188C64.046,135.131,63.5,134.878,63,134.693Zm-.306-.11c-.306-.115-.554-.236-.554-.565,0-.3.231-.444.554-.484Zm.271,1.967v-1.217a.675.675,0,0,1,.508.646A.549.549,0,0,1,62.961,136.55Z" transform="translate(-61.456 -132.703)"/></g><g transform="translate(9 16.538)"><path class="a" d="M257.664,163.268h-1.5c-.109,0-.167.107-.167.213,0,.126.07.217.167.217h.519v2.12c0,.1.1.167.231.167.115,0,.232-.057.232-.167V163.7h.515c.1,0,.167-.091.167-.221C257.831,163.377,257.779,163.268,257.664,163.268Z" transform="translate(-256.001 -163.268)"/></g><g transform="translate(11.558 16.516)"><path class="a" d="M330.764,165.148l-.715-2.338a.28.28,0,0,0-.284-.157.277.277,0,0,0-.28.158l-.717,2.336a.136.136,0,0,0-.006.045c0,.117.147.2.278.2a.158.158,0,0,0,.172-.108l.139-.483h.83l.14.484a.159.159,0,0,0,.168.108c.133,0,.282-.085.282-.2A.138.138,0,0,0,330.764,165.148Zm-1.3-.736.307-1.053.307,1.053Z" transform="translate(-328.763 -162.652)"/></g><g transform="translate(14.688 16.527)"><path class="a" d="M419.653,165.376l-.612-1.048.595-1.041a.237.237,0,0,0,.034-.113c0-.126-.147-.213-.278-.213a.2.2,0,0,0-.18.129l-.469.858-.462-.858a.2.2,0,0,0-.18-.13c-.133,0-.282.088-.282.213a.238.238,0,0,0,.034.114l.594,1.04-.614,1.05a.212.212,0,0,0-.026.094c0,.126.156.228.286.228a.19.19,0,0,0,.158-.107l.491-.9.5.894a.183.183,0,0,0,.155.109c.134,0,.289-.1.289-.228A.222.222,0,0,0,419.653,165.376Z" transform="translate(-417.807 -162.961)"/></g></g></svg>