<svg xmlns="http://www.w3.org/2000/svg" viewBox="4713.003 1014 20 14.929"><defs><style>.a{fill:#fff;}</style></defs><g transform="translate(4733.1 1028.929) rotate(180)"><path class="a" d="M3.475,151.147a.748.748,0,0,0,.531-1.278l-1.447-1.444h9.91a.75.75,0,0,0,0-1.5H2.562l1.444-1.444a.751.751,0,0,0-1.062-1.062l-2.72,2.722a.733.733,0,0,0-.169.252.765.765,0,0,0-.055.282.683.683,0,0,0,.058.285.746.746,0,0,0,.16.243l2.725,2.725a.745.745,0,0,0,.531.219Zm0,0" transform="translate(0.097 -140.21)"/><path class="a" d="M197.675,0H183.853a.555.555,0,0,0-.553.553V6.006h1.383V1.383h12.165V13.548H184.683V8.922H183.3v5.453a.555.555,0,0,0,.553.553h13.822a.555.555,0,0,0,.553-.553V.553A.555.555,0,0,0,197.675,0Zm0,0" transform="translate(-178.132)"/></g></svg>