<?xml version="1.0" encoding="UTF-8" standalone="no"?>
<svg
   xmlns:dc="http://purl.org/dc/elements/1.1/"
   xmlns:cc="http://creativecommons.org/ns#"
   xmlns:rdf="http://www.w3.org/1999/02/22-rdf-syntax-ns#"
   xmlns:svg="http://www.w3.org/2000/svg"
   xmlns="http://www.w3.org/2000/svg"
   xmlns:sodipodi="http://sodipodi.sourceforge.net/DTD/sodipodi-0.dtd"
   xmlns:inkscape="http://www.inkscape.org/namespaces/inkscape"
   viewBox="564 -1389 24 24"
   version="1.1"
   id="svg30"
   sodipodi:docname="icon-menu-3-white.svg"
   inkscape:version="0.92.1 r15371">
  <metadata
     id="metadata34">
    <rdf:RDF>
      <cc:Work
         rdf:about="">
        <dc:format>image/svg+xml</dc:format>
        <dc:type
           rdf:resource="http://purl.org/dc/dcmitype/StillImage" />
        <dc:title></dc:title>
      </cc:Work>
    </rdf:RDF>
  </metadata>
  <sodipodi:namedview
     pagecolor="#ffffff"
     bordercolor="#666666"
     borderopacity="1"
     objecttolerance="10"
     gridtolerance="10"
     guidetolerance="10"
     inkscape:pageopacity="0"
     inkscape:pageshadow="2"
     inkscape:window-width="1920"
     inkscape:window-height="1001"
     id="namedview32"
     showgrid="false"
     inkscape:zoom="9.8333333"
     inkscape:cx="12"
     inkscape:cy="12"
     inkscape:window-x="-9"
     inkscape:window-y="41"
     inkscape:window-maximized="1"
     inkscape:current-layer="svg30" />
  <defs
     id="defs4">
    <style
       id="style2">.a{fill:#303030;}</style>
  </defs>
  <g
     transform="translate(564 -1389)"
     id="g28"
     style="fill:#ffffff">
    <path
       class="a"
       d="M168,171.871A3.871,3.871,0,1,0,171.871,168,3.875,3.875,0,0,0,168,171.871Zm3.871-3.1a3.088,3.088,0,0,1,2.918,4.123l-2.63-1.315-1.315-2.63A3.079,3.079,0,0,1,171.871,168.774Zm-1.719.523,1.431,2.862,2.862,1.431a3.1,3.1,0,1,1-4.293-4.293Z"
       transform="translate(-159.871 -159.871)"
       id="path6"
       style="fill:#ffffff" />
    <path
       class="a"
       d="M219.311,41.273l.248-.734a10.158,10.158,0,0,0-4.831-.4l.123.765A9.385,9.385,0,0,1,219.311,41.273Z"
       transform="translate(-204.338 -38.078)"
       id="path8"
       style="fill:#ffffff" />
    <path
       class="a"
       d="M42.685,106.552a10.067,10.067,0,0,0-.96,12.481l.641-.434a9.293,9.293,0,0,1,.886-11.52Z"
       transform="translate(-38.065 -101.396)"
       id="path10"
       style="fill:#ffffff" />
    <path
       class="a"
       d="M202.354,434.523a9.419,9.419,0,0,1-4.089-.083l-.185.751a10.15,10.15,0,0,0,4.428.091Z"
       transform="translate(-188.495 -413.419)"
       id="path12"
       style="fill:#ffffff" />
    <path
       class="a"
       d="M421.167,165.337a10.085,10.085,0,0,0,0-8.857l-.695.341a9.314,9.314,0,0,1,0,8.175Z"
       transform="translate(-400.127 -148.908)"
       id="path14"
       style="fill:#ffffff" />
    <path
       class="a"
       d="M297.677,6.194c-.617,0-1.078-1.248-1.524-2.455C295.505,1.986,294.77,0,293.032,0s-2.473,1.986-3.121,3.739c-.446,1.207-.907,2.455-1.524,2.455H288v.774h10.065V6.194Zm-8.035,0a10.156,10.156,0,0,0,.995-2.186c.588-1.589,1.2-3.233,2.395-3.233s1.807,1.644,2.395,3.233a10.158,10.158,0,0,0,.995,2.186Z"
       transform="translate(-274.065)"
       id="path16"
       style="fill:#ffffff" />
    <rect
       class="a"
       width="0.774"
       height="0.774"
       transform="translate(18.581 4.645)"
       id="rect18"
       style="fill:#ffffff" />
    <rect
       class="a"
       width="0.774"
       height="0.774"
       transform="translate(18.581 3.097)"
       id="rect20"
       style="fill:#ffffff" />
    <path
       class="a"
       d="M297.29,352.774h-.774v5.419h-.774V352h-.774v6.194h-.774v-3.871h-.774v3.871h-.774v-4.645h-.774v4.645H291.1v-5.419h-.774v5.419h-.774v-3.1h-.774v3.1H288v.774h10.065v-.774h-.774Z"
       transform="translate(-274.065 -334.968)"
       id="path22"
       style="fill:#ffffff" />
    <path
       class="a"
       d="M7.486,359.808l-1.712,2.139-1.235-1.235-1.205,2.411-1.161-.774L.535,365.624H0v.774H10.065v-.774h-.5ZM1.4,365.624l1.072-2.145,1.161.774,1.118-2.234,1.087,1.087,1.385-1.731,1.517,4.248Z"
       transform="translate(0 -342.398)"
       id="path24"
       style="fill:#ffffff" />
    <path
       class="a"
       d="M1.161,6.968A1.163,1.163,0,0,0,2.323,5.806a1.151,1.151,0,0,0-.256-.718l.779-1.246a1.168,1.168,0,0,0,.251.029,1.154,1.154,0,0,0,.883-.417l1.054.4c0,.007,0,.014,0,.021a1.161,1.161,0,1,0,2.323,0,1.142,1.142,0,0,0-.117-.5L8.405,2.206a1.15,1.15,0,0,0,.5.116A1.161,1.161,0,1,0,7.742,1.161a1.142,1.142,0,0,0,.117.5L6.691,2.826a1.138,1.138,0,0,0-1.381.3l-1.054-.4c0-.007,0-.014,0-.021a1.161,1.161,0,0,0-2.323,0,1.151,1.151,0,0,0,.256.718L1.413,4.674a1.161,1.161,0,1,0-.251,2.294ZM8.9.774a.387.387,0,1,1-.387.387A.387.387,0,0,1,8.9.774Zm-2.71,2.71a.387.387,0,1,1-.387.387A.387.387,0,0,1,6.194,3.484ZM3.1,2.323a.387.387,0,1,1-.387.387A.387.387,0,0,1,3.1,2.323Zm-1.935,3.1a.387.387,0,1,1-.387.387A.387.387,0,0,1,1.161,5.419Z"
       id="path26"
       style="fill:#ffffff" />
  </g>
</svg>
