<svg xmlns="http://www.w3.org/2000/svg" viewBox="564 -1245 24 23.778"><defs><style>.a{fill:#303030;}</style></defs><g transform="translate(564 -1247.286)"><g transform="translate(11.042 7.622)"><path class="a" d="M234.178,113.406a3.807,3.807,0,0,0-6.479,2.74.291.291,0,1,0,.582,0,3.227,3.227,0,0,1,.926-2.289,3.181,3.181,0,0,1,2.274-.96,3.227,3.227,0,0,1,2.289.926,3.181,3.181,0,0,1,.96,2.274,3.227,3.227,0,0,1-.926,2.289,3.181,3.181,0,0,1-2.274.96.291.291,0,0,0,0,.582,3.81,3.81,0,0,0,2.648-6.523Z" transform="translate(-227.699 -112.31)"/></g><g transform="translate(5.708 2.286)"><g transform="translate(0 0)"><path class="a" d="M135.33,13.053l-.9-.373a7.561,7.561,0,0,0,0-2.517l.9-.373a1.021,1.021,0,0,0,.572-.572,1.057,1.057,0,0,0,0-.824l-.5-1.222a1.07,1.07,0,0,0-.582-.582,1.057,1.057,0,0,0-.824,0l-.9.373a7.562,7.562,0,0,0-1.78-1.78l.373-.9a1.077,1.077,0,0,0-.582-1.406l-1.217-.5a1.077,1.077,0,0,0-1.406.582l-.373.9a7.56,7.56,0,0,0-2.517,0l-.373-.9a1.07,1.07,0,0,0-.582-.582,1.057,1.057,0,0,0-.824,0l-1.217.5a1.07,1.07,0,0,0-.582.582,1.057,1.057,0,0,0,0,.824l.373.9a7.563,7.563,0,0,0-1.78,1.78l-.9-.373a1.057,1.057,0,0,0-.824,0,1.07,1.07,0,0,0-.582.582l-.509,1.217a1.077,1.077,0,0,0,.582,1.406l1.12.466a.289.289,0,1,0,.223-.533l-1.12-.466a.492.492,0,0,1-.267-.645l.5-1.217a.49.49,0,0,1,.645-.267l1.12.466a.291.291,0,0,0,.354-.107A7.039,7.039,0,0,1,122.9,5.541.289.289,0,0,0,123,5.187l-.466-1.12a.51.51,0,0,1,0-.378.48.48,0,0,1,.267-.267l1.222-.5a.51.51,0,0,1,.378,0,.48.48,0,0,1,.267.267l.466,1.12a.3.3,0,0,0,.325.175,6.955,6.955,0,0,1,2.759,0,.286.286,0,0,0,.325-.175l.466-1.12a.492.492,0,0,1,.645-.267l1.217.5a.492.492,0,0,1,.267.645l-.456,1.111a.291.291,0,0,0,.107.354,7.039,7.039,0,0,1,1.949,1.949.289.289,0,0,0,.354.107l1.12-.466a.51.51,0,0,1,.378,0,.48.48,0,0,1,.267.267l.5,1.222a.51.51,0,0,1,0,.378.48.48,0,0,1-.267.267l-1.12.466a.3.3,0,0,0-.175.325,7.046,7.046,0,0,1,0,2.759.286.286,0,0,0,.175.325l1.12.466a.492.492,0,0,1,.267.645l-.5,1.217a.492.492,0,0,1-.645.267l-1.12-.466a.291.291,0,0,0-.354.107,7.039,7.039,0,0,1-1.949,1.949.289.289,0,0,0-.107.354l.466,1.12a.51.51,0,0,1,0,.378.48.48,0,0,1-.267.267l-1.222.5a.51.51,0,0,1-.378,0,.48.48,0,0,1-.267-.267l-.466-1.12a.289.289,0,0,0-.533.223l.466,1.12a1.07,1.07,0,0,0,.582.582,1.072,1.072,0,0,0,.824,0l1.222-.5a1.07,1.07,0,0,0,.582-.582,1.058,1.058,0,0,0,0-.824l-.373-.9a7.563,7.563,0,0,0,1.78-1.78l.9.373a1.057,1.057,0,0,0,.824,0,1.07,1.07,0,0,0,.582-.582l.5-1.217A1.077,1.077,0,0,0,135.33,13.053Z" transform="translate(-117.702 -2.286)"/></g></g><g transform="translate(4.287 16.322)"><g transform="translate(0 0)"><path class="a" d="M91.125,291.711a2.725,2.725,0,1,0,2.725,2.725A2.732,2.732,0,0,0,91.125,291.711Zm0,4.874a2.143,2.143,0,1,1,2.143-2.143A2.144,2.144,0,0,1,91.125,296.585Z" transform="translate(-88.4 -291.711)"/></g></g><g transform="translate(0 12.025)"><g transform="translate(0 0)"><path class="a" d="M13.162,208.785h-.645a5.51,5.51,0,0,0-.664-1.6l.456-.456a.866.866,0,0,0,0-1.222l-.679-.679a.866.866,0,0,0-1.222,0l-.456.456a5.647,5.647,0,0,0-1.6-.664v-.645a.865.865,0,0,0-.863-.863h-.96a.865.865,0,0,0-.863.863v.645a5.51,5.51,0,0,0-1.6.664l-.456-.456a.866.866,0,0,0-1.222,0l-.679.679a.866.866,0,0,0,0,1.222l.456.456a5.646,5.646,0,0,0-.664,1.6H.863a.865.865,0,0,0-.863.863v.96a.866.866,0,0,0,.863.868h.645a5.509,5.509,0,0,0,.664,1.6l-.456.456a.866.866,0,0,0,0,1.222l.679.679a.866.866,0,0,0,1.222,0l.456-.456a5.646,5.646,0,0,0,1.6.664v.645a.865.865,0,0,0,.863.863H7.5a.865.865,0,0,0,.863-.863v-.65a5.509,5.509,0,0,0,1.6-.664l.456.456a.866.866,0,0,0,1.222,0l.679-.679a.866.866,0,0,0,0-1.222l-.456-.456a5.646,5.646,0,0,0,.664-1.6h.635a.865.865,0,0,0,.863-.863v-.96A.865.865,0,0,0,13.162,208.785Zm.281,1.833a.281.281,0,0,1-.281.281h-.883a.291.291,0,0,0-.286.233,4.989,4.989,0,0,1-.757,1.823.293.293,0,0,0,.034.369l.626.626a.275.275,0,0,1,.082.2.283.283,0,0,1-.082.2l-.679.679a.281.281,0,0,1-.4,0l-.626-.626a.293.293,0,0,0-.369-.034A5.024,5.024,0,0,1,8,215.123a.291.291,0,0,0-.233.286v.883a.281.281,0,0,1-.281.281h-.96a.281.281,0,0,1-.281-.281v-.883a.291.291,0,0,0-.233-.286,4.989,4.989,0,0,1-1.823-.757.284.284,0,0,0-.364.039l-.626.626a.275.275,0,0,1-.2.082.283.283,0,0,1-.2-.082l-.679-.679a.275.275,0,0,1-.082-.2.283.283,0,0,1,.082-.2l.626-.626a.293.293,0,0,0,.034-.369,5.024,5.024,0,0,1-.757-1.823.291.291,0,0,0-.286-.233H.863a.281.281,0,0,1-.281-.281v-.965h0a.281.281,0,0,1,.281-.281h.883a.291.291,0,0,0,.286-.233,4.989,4.989,0,0,1,.757-1.823.293.293,0,0,0-.034-.369l-.63-.626a.275.275,0,0,1-.082-.2.283.283,0,0,1,.082-.2l.679-.679a.275.275,0,0,1,.2-.082.283.283,0,0,1,.2.082l.626.626a.293.293,0,0,0,.369.034,5.024,5.024,0,0,1,1.823-.757.291.291,0,0,0,.233-.286v-.883a.281.281,0,0,1,.281-.281H7.5a.281.281,0,0,1,.281.281v.887a.291.291,0,0,0,.233.286,4.989,4.989,0,0,1,1.823.757.293.293,0,0,0,.369-.034l.626-.626a.281.281,0,0,1,.4,0l.679.679a.275.275,0,0,1,.082.2.283.283,0,0,1-.082.2l-.635.621a.293.293,0,0,0-.034.369,5.024,5.024,0,0,1,.757,1.823.291.291,0,0,0,.286.233h.883a.281.281,0,0,1,.281.281Z" transform="translate(0 -203.111)"/></g></g></g></svg>