<?xml version="1.0" encoding="UTF-8" standalone="no"?>
<svg
   xmlns:dc="http://purl.org/dc/elements/1.1/"
   xmlns:cc="http://creativecommons.org/ns#"
   xmlns:rdf="http://www.w3.org/1999/02/22-rdf-syntax-ns#"
   xmlns:svg="http://www.w3.org/2000/svg"
   xmlns="http://www.w3.org/2000/svg"
   xmlns:sodipodi="http://sodipodi.sourceforge.net/DTD/sodipodi-0.dtd"
   xmlns:inkscape="http://www.inkscape.org/namespaces/inkscape"
   viewBox="564 -1437 24 24"
   version="1.1"
   id="svg40"
   sodipodi:docname="icon-menu-2-white.svg"
   inkscape:version="0.92.1 r15371">
  <metadata
     id="metadata44">
    <rdf:RDF>
      <cc:Work
         rdf:about="">
        <dc:format>image/svg+xml</dc:format>
        <dc:type
           rdf:resource="http://purl.org/dc/dcmitype/StillImage" />
        <dc:title></dc:title>
      </cc:Work>
    </rdf:RDF>
  </metadata>
  <sodipodi:namedview
     pagecolor="#ffffff"
     bordercolor="#666666"
     borderopacity="1"
     objecttolerance="10"
     gridtolerance="10"
     guidetolerance="10"
     inkscape:pageopacity="0"
     inkscape:pageshadow="2"
     inkscape:window-width="1920"
     inkscape:window-height="1001"
     id="namedview42"
     showgrid="false"
     inkscape:zoom="9.8333333"
     inkscape:cx="12"
     inkscape:cy="12"
     inkscape:window-x="-9"
     inkscape:window-y="41"
     inkscape:window-maximized="1"
     inkscape:current-layer="svg40" />
  <defs
     id="defs4">
    <style
       id="style2">.a{fill:none;stroke:#fff;stroke-linecap:round;stroke-linejoin:round;stroke-miterlimit:10;}.b{fill:#303030;}</style>
  </defs>
  <g
     transform="translate(565.947 -1434.163)"
     id="g38"
     style="fill:#ffffff">
    <path
       class="a"
       d="M1,1V16.907H19"
       id="path6"
       style="fill:#ffffff" />
    <g
       transform="translate(-1.947 -2.837)"
       id="g36"
       style="fill:#ffffff">
      <path
         class="b"
         d="M182.85,198.112h2.218a.9.9,0,0,0,.909-.909V193.93h.909a.344.344,0,0,0,.364-.364v-4.8a1.954,1.954,0,0,0-1.855-2.036H182.56a1.954,1.954,0,0,0-1.855,2.036v4.8a.344.344,0,0,0,.364.364h.873V197.2A.924.924,0,0,0,182.85,198.112Zm-.909-7.2V193.2h-.473v-4.436a1.229,1.229,0,0,1,1.127-1.309h2.836a1.229,1.229,0,0,1,1.127,1.309V193.2h-.509v-2.291a.364.364,0,0,0-.727,0V197.2a.172.172,0,0,1-.182.182h-.8v-3.673a.364.364,0,0,0-.727,0v3.636h-.764a.172.172,0,0,1-.182-.182v-6.255a.364.364,0,0,0-.727,0Z"
         transform="translate(-171.978 -177.712)"
         id="path8"
         style="fill:#ffffff" />
      <path
         class="b"
         d="M210.378,95.4a2.036,2.036,0,1,0-2.036,2.036A2.033,2.033,0,0,0,210.378,95.4Zm-3.345,0a1.309,1.309,0,1,1,1.309,1.309A1.3,1.3,0,0,1,207.032,95.4Z"
         transform="translate(-196.341 -88.855)"
         id="path10"
         style="fill:#ffffff" />
      <path
         class="b"
         d="M30.118,326.626a2.142,2.142,0,0,0,2.145,2.109,2.119,2.119,0,0,0,2.145-2.109,2.142,2.142,0,0,0-2.145-2.109A2.119,2.119,0,0,0,30.118,326.626Zm2.145-1.382a1.389,1.389,0,0,1,1.418,1.382,1.413,1.413,0,0,1-1.418,1.382,1.382,1.382,0,1,1,0-2.764Z"
         transform="translate(-28.663 -308.844)"
         id="path12"
         style="fill:#ffffff" />
      <path
         class="b"
         d="M5.345,417.882H1.818A1.823,1.823,0,0,0,0,419.7v1.636a.344.344,0,0,0,.364.364H6.8a.344.344,0,0,0,.364-.364v-1.6A1.831,1.831,0,0,0,5.345,417.882Zm1.091,3.091H.727v-1.236a1.094,1.094,0,0,1,1.091-1.091H5.345a1.094,1.094,0,0,1,1.091,1.091v1.236Z"
         transform="translate(0 -397.7)"
         id="path14"
         style="fill:#ffffff" />
      <path
         class="b"
         d="M377.976,326.626a2.142,2.142,0,0,0,2.146,2.109,2.119,2.119,0,0,0,2.145-2.109,2.146,2.146,0,0,0-4.291,0Zm3.564,0a1.413,1.413,0,0,1-1.418,1.382,1.39,1.39,0,0,1-1.418-1.382,1.413,1.413,0,0,1,1.418-1.382A1.389,1.389,0,0,1,381.54,326.626Z"
         transform="translate(-359.721 -308.844)"
         id="path16"
         style="fill:#ffffff" />
      <path
         class="b"
         d="M353.957,417.882H350.43a1.823,1.823,0,0,0-1.818,1.818v1.636a.344.344,0,0,0,.364.364h6.436a.344.344,0,0,0,.364-.364v-1.6A1.855,1.855,0,0,0,353.957,417.882Zm1.091,3.091h-5.709v-1.236a1.094,1.094,0,0,1,1.091-1.091h3.527a1.094,1.094,0,0,1,1.091,1.091Z"
         transform="translate(-331.776 -397.7)"
         id="path18"
         style="fill:#ffffff" />
      <path
         class="b"
         d="M32.263,4.218a2.119,2.119,0,0,0,2.145-2.109A2.142,2.142,0,0,0,32.263,0a2.109,2.109,0,1,0,0,4.218Zm0-3.491a1.389,1.389,0,0,1,1.418,1.382,1.413,1.413,0,0,1-1.418,1.382,1.382,1.382,0,1,1,0-2.764Z"
         transform="translate(-28.663)"
         id="path20"
         style="fill:#ffffff" />
      <path
         class="b"
         d="M5.345,93.365H1.818A1.823,1.823,0,0,0,0,95.183v1.6a.344.344,0,0,0,.364.364H6.8a.344.344,0,0,0,.364-.364v-1.6A1.823,1.823,0,0,0,5.345,93.365Zm1.091,3.091H.727V95.22a1.094,1.094,0,0,1,1.091-1.091H5.345A1.094,1.094,0,0,1,6.436,95.22v1.236Z"
         transform="translate(0 -88.856)"
         id="path22"
         style="fill:#ffffff" />
      <path
         class="b"
         d="M380.121,4.218a2.109,2.109,0,1,0-2.145-2.109A2.142,2.142,0,0,0,380.121,4.218Zm0-3.491a1.39,1.39,0,0,1,1.418,1.382,1.413,1.413,0,0,1-1.418,1.382A1.39,1.39,0,0,1,378.7,2.109,1.413,1.413,0,0,1,380.121.727Z"
         transform="translate(-359.721)"
         id="path24"
         style="fill:#ffffff" />
      <path
         class="b"
         d="M353.957,93.365H350.43a1.823,1.823,0,0,0-1.818,1.818v1.6a.344.344,0,0,0,.364.364h6.436a.344.344,0,0,0,.364-.364v-1.6A1.848,1.848,0,0,0,353.957,93.365Zm1.091,3.091h-5.709V95.22a1.094,1.094,0,0,1,1.091-1.091h3.527a1.094,1.094,0,0,1,1.091,1.091Z"
         transform="translate(-331.776 -88.856)"
         id="path26"
         style="fill:#ffffff" />
      <path
         class="b"
         d="M169.091,444.56a10.049,10.049,0,0,1-7.273-.109.368.368,0,1,0-.255.691,11.024,11.024,0,0,0,7.782.109.378.378,0,0,0,.218-.473A.364.364,0,0,0,169.091,444.56Z"
         transform="translate(-153.527 -422.96)"
         id="path28"
         style="fill:#ffffff" />
      <path
         class="b"
         d="M442.716,193.214a.374.374,0,0,0,.436-.255,10.516,10.516,0,0,0-.182-5.709.368.368,0,0,0-.691.255,9.781,9.781,0,0,1,.182,5.309C442.389,192.959,442.535,193.178,442.716,193.214Z"
         transform="translate(-420.898 -177.978)"
         id="path30"
         style="fill:#ffffff" />
      <path
         class="b"
         d="M136.1,42.516a9.859,9.859,0,0,1,9.818,0,.374.374,0,0,0,.364-.655,10.689,10.689,0,0,0-10.545,0,.4.4,0,0,0-.145.509A.368.368,0,0,0,136.1,42.516Z"
         transform="translate(-129.008 -38.516)"
         id="path32"
         style="fill:#ffffff" />
      <path
         class="b"
         d="M27.172,187.786A.378.378,0,0,0,26.7,188c-.036.145-.109.327-.145.509a10.76,10.76,0,0,0-.109,5.164.345.345,0,0,0,.436.255.4.4,0,0,0,.291-.436,9.775,9.775,0,0,1,.109-4.8c.036-.145.109-.327.145-.473A.374.374,0,0,0,27.172,187.786Z"
         transform="translate(-24.918 -178.695)"
         id="path34"
         style="fill:#ffffff" />
    </g>
  </g>
</svg>
