<svg xmlns="http://www.w3.org/2000/svg" viewBox="3905.5 300.277 19 17.642"><defs><style>.a{fill:#303030;}.b{fill:none;stroke:#303030;}</style></defs><g transform="translate(3906 300.277)"><path class="a" d="M123.016,9.622A4.811,4.811,0,1,0,118.2,4.8,4.817,4.817,0,0,0,123.016,9.622Zm0-8.367A3.547,3.547,0,1,1,119.469,4.8,3.557,3.557,0,0,1,123.016,1.255Z" transform="translate(-114.045)"/><path class="b" d="M0,303.643a.632.632,0,0,0,.636.636H17.364a.632.632,0,0,0,.636-.636,6.05,6.05,0,0,0-6.043-6.043H6.043A6.05,6.05,0,0,0,0,303.643" transform="translate(0 -287.138)"/></g></svg>