<svg xmlns="http://www.w3.org/2000/svg" viewBox="1361 -16 12 12"><g transform="translate(1361 -16)"><path d="M3.75,0H0V3.75H3.75ZM3,3H.75V.75H3Z"/><rect width="0.75" height="0.75" transform="translate(1.5 1.5)"/><path d="M352,0V3.75h3.75V0Zm3,3h-2.25V.75H355Z" transform="translate(-343.75)"/><rect width="0.75" height="0.75" transform="translate(9.75 1.5)"/><path d="M0,355.75H3.75V352H0Zm.75-3H3V355H.75Z" transform="translate(0 -343.75)"/><rect width="0.75" height="0.75" transform="translate(1.5 9.75)"/><rect width="1.5" height="0.75" transform="translate(6)"/><path d="M193.5,34.25h.75V33.5H195v-.75h-2.25V32H192v1.5h1.5Z" transform="translate(-187.5 -31.25)"/><rect width="0.75" height="0.75" transform="translate(4.5 3)"/><path d="M195,160h-.75v.75H192v.75h3Z" transform="translate(-187.5 -156.25)"/><path d="M.75,194.25H1.5v-.75H.75V192H0v3H.75Z" transform="translate(0 -187.5)"/><rect width="0.75" height="0.75" transform="translate(1.5 4.5)"/><path d="M98.25,195h1.5v-.75H99v-.75H97.5V192h-.75v1.5H96V195h.75v-.75h1.5Z" transform="translate(-93.75 -187.5)"/><rect width="0.75" height="1.5" transform="translate(6.75 6)"/><path d="M194.25,352H192v.75h1.5V355H192v.75h2.25V355h1.5v-.75h-1.5Z" transform="translate(-187.5 -343.75)"/><rect width="0.75" height="0.75" transform="translate(4.5 9.75)"/><rect width="0.75" height="1.5" transform="translate(7.5 8.25)"/><path d="M386.25,416H384v2.25h.75v-1.5h1.5Z" transform="translate(-375 -406.25)"/><rect width="1.5" height="0.75" transform="translate(10.5 11.25)"/><rect width="0.75" height="0.75" transform="translate(11.25 8.25)"/><path d="M352.75,290.25h.75V288H352v.75h.75Z" transform="translate(-343.75 -281.25)"/><path d="M354.25,192.75h-.75V192h-.75v.75H352v.75h3v-.75h.75V192h-1.5Z" transform="translate(-343.75 -187.5)"/><rect width="1.5" height="0.75" transform="translate(10.5 6.75)"/></g></svg>