<svg xmlns="http://www.w3.org/2000/svg" viewBox="564 -1341 24 23.955"><defs><style>.a{fill:#303030;}</style></defs><g transform="translate(564 -1341.464)"><g transform="translate(0.027 13.593)"><path class="a" d="M12.784,272.182a.387.387,0,0,0-.334-.068l-7.3,1.921H2.5a1.935,1.935,0,0,0-1.933,1.933v2.32a.387.387,0,0,0,.387.387h.387v2.32a1.935,1.935,0,0,0,1.933,1.933h1.16a.387.387,0,0,0,.387-.387v-3.867h.337l7.3,1.921a.387.387,0,0,0,.485-.374v-7.733A.386.386,0,0,0,12.784,272.182Zm-8.742,9.973H3.269a1.161,1.161,0,0,1-1.16-1.16v-2.32H4.042Zm.773-4.253H1.335v-1.933a1.161,1.161,0,0,1,1.16-1.16h2.32Zm7.347,1.818-6.573-1.73v-3.27l6.573-1.73Z" transform="translate(-0.562 -272.102)"/></g><g transform="translate(13.174 12.432)"><path class="a" d="M283.307,253.258l-.8-.964.214-1.237a.387.387,0,0,0-.248-.429l-1.178-.432-.432-1.178a.387.387,0,0,0-.429-.248l-1.237.214-.964-.8a.386.386,0,0,0-.495,0l-.964.8-1.237-.214a.386.386,0,0,0-.429.248l-.432,1.178-1.178.432a.386.386,0,0,0-.248.429l.214,1.237-.8.964a.387.387,0,0,0,0,.495l.8.964-.214,1.236a.386.386,0,0,0,.248.429l1.178.432.432,1.178a.388.388,0,0,0,.429.248l1.237-.214.964.8a.386.386,0,0,0,.495,0l.964-.8,1.237.214a.389.389,0,0,0,.429-.248l.432-1.178,1.178-.432a.386.386,0,0,0,.248-.429l-.214-1.236.8-.964A.388.388,0,0,0,283.307,253.258Zm-1.512,1.1a.387.387,0,0,0-.084.314l.189,1.095-1.044.382a.386.386,0,0,0-.23.23l-.382,1.043-1.095-.189a.389.389,0,0,0-.314.084l-.854.711-.854-.711a.389.389,0,0,0-.247-.09.377.377,0,0,0-.066.006l-1.095.189-.382-1.043a.387.387,0,0,0-.23-.23l-1.043-.382.189-1.095a.386.386,0,0,0-.084-.314l-.711-.854.711-.854a.387.387,0,0,0,.084-.314l-.189-1.095,1.044-.382a.387.387,0,0,0,.23-.23l.382-1.043,1.095.189a.387.387,0,0,0,.314-.084l.854-.711.854.711a.387.387,0,0,0,.314.084l1.095-.189.382,1.044a.387.387,0,0,0,.23.23l1.043.382-.189,1.095a.387.387,0,0,0,.084.314l.711.853Z" transform="translate(-272.57 -248.092)"/></g><g transform="translate(16.367 15.266)"><rect class="a" width="5.748" height="0.773" transform="matrix(0.673, -0.74, 0.74, 0.673, 0, 4.253)"/></g><g transform="translate(16.267 15.526)"><path class="a" d="M337.529,312.1a.967.967,0,1,0,.967.967A.968.968,0,0,0,337.529,312.1Zm0,1.16a.193.193,0,1,1,.193-.193A.193.193,0,0,1,337.529,313.258Z" transform="translate(-336.562 -312.098)"/></g><g transform="translate(18.974 17.846)"><path class="a" d="M393.529,360.1a.967.967,0,1,0,.967.967A.968.968,0,0,0,393.529,360.1Zm0,1.16a.193.193,0,1,1,.193-.193A.193.193,0,0,1,393.529,361.258Z" transform="translate(-392.562 -360.098)"/></g><g transform="translate(0 1.049)"><g transform="translate(0)"><path class="a" d="M7,15.093a.387.387,0,0,0-.312-.263l-1.955-.284-.874-1.772a.4.4,0,0,0-.694,0l-.874,1.772L.332,14.83a.387.387,0,0,0-.215.66l1.415,1.379L1.2,18.815a.387.387,0,0,0,.561.408L3.507,18.3l1.748.919a.387.387,0,0,0,.561-.408l-.334-1.947L6.9,15.489A.387.387,0,0,0,7,15.093ZM4.8,16.456a.388.388,0,0,0-.111.342l.236,1.375-1.235-.649a.386.386,0,0,0-.36,0l-1.235.649L2.328,16.8a.387.387,0,0,0-.111-.342l-1-.974,1.381-.2a.387.387,0,0,0,.291-.212l.617-1.251.617,1.251a.387.387,0,0,0,.291.212l1.381.2Z" transform="translate(0 -12.576)"/></g></g><g transform="translate(17.135 0.464)"><g transform="translate(0 0)"><path class="a" d="M358.952,2.05a.387.387,0,0,0-.312-.263l-1.069-.155-.478-.969a.4.4,0,0,0-.694,0l-.478.969-1.069.155a.387.387,0,0,0-.214.66l.774.754-.182,1.065a.386.386,0,0,0,.561.408l.957-.5.957.5a.386.386,0,0,0,.561-.408L358.08,3.2l.774-.754A.386.386,0,0,0,358.952,2.05Zm-1.557.738a.386.386,0,0,0-.111.342l.085.493-.443-.233a.388.388,0,0,0-.18-.044.383.383,0,0,0-.18.044l-.443.233.085-.493a.386.386,0,0,0-.111-.342l-.358-.349.495-.072a.387.387,0,0,0,.291-.212l.221-.449.221.449a.387.387,0,0,0,.291.212l.5.072Z" transform="translate(-354.52 -0.464)"/></g></g><g transform="translate(10.687 5.643)"><path class="a" d="M224.519,108.829a.387.387,0,0,0-.312-.263l-.715-.1-.32-.648a.4.4,0,0,0-.694,0l-.32.648-.715.1a.387.387,0,0,0-.215.66l.518.5-.122.712a.387.387,0,0,0,.561.408l.64-.336.64.336a.387.387,0,0,0,.561-.408l-.122-.712.517-.5A.386.386,0,0,0,224.519,108.829Zm-1.3.489a.387.387,0,0,0-.111.342l.024.14-.126-.066a.386.386,0,0,0-.36,0l-.126.066.024-.14a.387.387,0,0,0-.111-.342l-.1-.1.142-.02a.387.387,0,0,0,.291-.212l.063-.128.063.128a.387.387,0,0,0,.291.212l.141.02Z" transform="translate(-221.112 -107.616)"/></g><g transform="translate(6.601 5.86)"><path class="a" d="M136.562,112.1v.773c2.132,0,3.867,2.6,3.867,5.8h.773C141.2,115.047,139.121,112.1,136.562,112.1Z" transform="translate(-136.562 -112.098)"/></g><g transform="translate(3.121 7.793)"><path class="a" d="M64.562,152.1v.773c2.132,0,3.867,2.255,3.867,5.027H69.2C69.2,154.7,67.121,152.1,64.562,152.1Z" transform="translate(-64.562 -152.098)"/></g><g transform="translate(14.72 2.766)"><path class="a" d="M304.562,50.418h.773a1.548,1.548,0,0,1,1.547-1.547V48.1A2.322,2.322,0,0,0,304.562,50.418Z" transform="translate(-304.562 -48.098)"/></g><g transform="translate(15.107 6.633)"><path class="a" d="M312.562,133.125h.773a4.078,4.078,0,0,1,3.867-4.253V128.1A4.85,4.85,0,0,0,312.562,133.125Z" transform="translate(-312.562 -128.098)"/></g><g transform="translate(12.014 9.726)"><path class="a" d="M248.562,192.1v.773a1.775,1.775,0,0,1,1.547,1.933h.773A2.538,2.538,0,0,0,248.562,192.1Z" transform="translate(-248.562 -192.098)"/></g></g></svg>