<svg xmlns="http://www.w3.org/2000/svg" viewBox="845.054 857.054 11.946 11.946"><defs><style>.a{fill:#fe5461;}</style></defs><g transform="translate(868.054 844.054)"><path class="a" d="M5.973,0a5.973,5.973,0,1,0,5.973,5.973A5.973,5.973,0,0,0,5.973,0Zm0,10.826a4.853,4.853,0,1,1,4.853-4.853A4.853,4.853,0,0,1,5.973,10.826Zm0-8.207c-.428,0-.751.223-.751.584V6.511c0,.361.324.583.751.583s.751-.232.751-.583V3.2C6.725,2.851,6.391,2.62,5.973,2.62Zm0,5.22a.746.746,0,1,0,.745.746A.747.747,0,0,0,5.973,7.84Z" transform="translate(-23 13)"/></g></svg>