<svg xmlns="http://www.w3.org/2000/svg" viewBox="-5234 2483 19 24"><g transform="translate(-5287.333 2483)"><g transform="translate(56.333 3)"><rect width="5" height="1"/></g><g transform="translate(56.333 5)"><rect width="1" height="1"/></g><g transform="translate(58.333 5)"><rect width="1" height="1"/></g><g transform="translate(53.333)"><path d="M72.187,4.147l-4-4A.5.5,0,0,0,67.833,0h-13a1.5,1.5,0,0,0-1.5,1.5v21a1.5,1.5,0,0,0,1.5,1.5h16a1.5,1.5,0,0,0,1.5-1.5V4.5A.5.5,0,0,0,72.187,4.147ZM71.333,22.5a.5.5,0,0,1-.5.5h-16a.5.5,0,0,1-.5-.5V1.5a.5.5,0,0,1,.5-.5H67.626l3.707,3.707Z" transform="translate(-53.333)"/></g><g transform="translate(67.333 0.5)"><path d="M353.5,14.166a.5.5,0,0,1-.5-.5v-3h-1v3a1.5,1.5,0,0,0,1.5,1.5h1v-1Z" transform="translate(-352 -10.666)"/></g><g transform="translate(56.333 8.5)"><path d="M128.833,181.333h-10a1.5,1.5,0,0,0-1.5,1.5v7h1v-7a.5.5,0,0,1,.5-.5h10a.5.5,0,0,1,.5.5v7h1v-7A1.5,1.5,0,0,0,128.833,181.333Z" transform="translate(-117.333 -181.333)"/></g><g transform="translate(56.333 18.5)"><rect width="9" height="1"/></g><g transform="translate(68.333 18.5)"><rect width="1" height="1"/></g><g transform="translate(66.333 18.5)"><rect width="1" height="1"/></g><g transform="translate(60.833 17.5)"><rect width="1" height="3"/></g><g transform="translate(61.333 11.5)"><path d="M227.724,246.881l-3-1.5a.5.5,0,0,0-.724.448v3a.5.5,0,0,0,.724.448l3-1.5a.5.5,0,0,0,0-.9ZM225,248.019v-1.382l1.382.691Z" transform="translate(-224 -245.328)"/></g></g></svg>