<?xml version="1.0" encoding="UTF-8" standalone="no"?>
<svg
   xmlns:dc="http://purl.org/dc/elements/1.1/"
   xmlns:cc="http://creativecommons.org/ns#"
   xmlns:rdf="http://www.w3.org/1999/02/22-rdf-syntax-ns#"
   xmlns:svg="http://www.w3.org/2000/svg"
   xmlns="http://www.w3.org/2000/svg"
   xmlns:sodipodi="http://sodipodi.sourceforge.net/DTD/sodipodi-0.dtd"
   xmlns:inkscape="http://www.inkscape.org/namespaces/inkscape"
   viewBox="564 -1293 24 24"
   version="1.1"
   id="svg90"
   sodipodi:docname="icon-menu-5-white.svg"
   inkscape:version="0.92.1 r15371">
  <metadata
     id="metadata94">
    <rdf:RDF>
      <cc:Work
         rdf:about="">
        <dc:format>image/svg+xml</dc:format>
        <dc:type
           rdf:resource="http://purl.org/dc/dcmitype/StillImage" />
        <dc:title></dc:title>
      </cc:Work>
    </rdf:RDF>
  </metadata>
  <sodipodi:namedview
     pagecolor="#ffffff"
     bordercolor="#666666"
     borderopacity="1"
     objecttolerance="10"
     gridtolerance="10"
     guidetolerance="10"
     inkscape:pageopacity="0"
     inkscape:pageshadow="2"
     inkscape:window-width="1920"
     inkscape:window-height="1001"
     id="namedview92"
     showgrid="false"
     inkscape:zoom="9.8333333"
     inkscape:cx="12"
     inkscape:cy="12"
     inkscape:window-x="-9"
     inkscape:window-y="41"
     inkscape:window-maximized="1"
     inkscape:current-layer="svg90" />
  <defs
     id="defs4">
    <style
       id="style2">.a{fill:#303030;}</style>
  </defs>
  <g
     transform="translate(564 -1293)"
     id="g88"
     style="fill:#ffffff">
    <g
       transform="translate(0 13.6)"
       id="g10"
       style="fill:#ffffff">
      <g
         transform="translate(0)"
         id="g8"
         style="fill:#ffffff">
        <path
           class="a"
           d="M5.345,277.218A2.777,2.777,0,0,0,6.4,275.2c0-2.645-1.523-3.2-2.8-3.2s-2.8.555-2.8,3.2a2.777,2.777,0,0,0,1.055,2.02A2.113,2.113,0,0,0,0,279.32v3.08H.8v-3.08A1.32,1.32,0,0,1,2.12,278h.888l-.58,1.451a.4.4,0,0,0,.089.432l.8.8a.4.4,0,0,0,.566,0l.8-.8a.4.4,0,0,0,.089-.432L4.191,278H5.08a1.32,1.32,0,0,1,1.32,1.32v3.08h.8v-3.08A2.113,2.113,0,0,0,5.345,277.218Zm-3.724-2.442c.108-1.34.739-1.977,1.979-1.977a1.748,1.748,0,0,1,1.939,1.657l-1.333-.8a.4.4,0,0,0-.585.216C3.418,274.48,2.326,274.71,1.621,274.777ZM3.6,279.833l-.331-.331.331-.826.331.827Zm0-2.633a2.52,2.52,0,0,1-1.944-1.621,3.636,3.636,0,0,0,2.5-1.022l1.43.858A2.477,2.477,0,0,1,3.6,277.2Z"
           transform="translate(0 -272)"
           id="path6"
           style="fill:#ffffff" />
      </g>
    </g>
    <g
       transform="translate(1.6 22.4)"
       id="g14"
       style="fill:#ffffff">
      <rect
         class="a"
         width="0.8"
         height="1.6"
         id="rect12"
         style="fill:#ffffff" />
    </g>
    <g
       transform="translate(4.8 22.4)"
       id="g18"
       style="fill:#ffffff">
      <rect
         class="a"
         width="0.8"
         height="1.6"
         id="rect16"
         style="fill:#ffffff" />
    </g>
    <g
       transform="translate(8.4 13.6)"
       id="g22"
       style="fill:#ffffff">
      <path
         class="a"
         d="M173.345,277.218A2.777,2.777,0,0,0,174.4,275.2c0-2.645-1.523-3.2-2.8-3.2s-2.8.555-2.8,3.2a2.777,2.777,0,0,0,1.055,2.02,2.113,2.113,0,0,0-1.855,2.1v3.08h.8v-3.08a1.32,1.32,0,0,1,1.32-1.32h.888l-.58,1.451a.4.4,0,0,0,.089.432l.8.8a.4.4,0,0,0,.566,0l.8-.8a.4.4,0,0,0,.089-.432l-.58-1.451h.889a1.32,1.32,0,0,1,1.32,1.32v3.08h.8v-3.08A2.113,2.113,0,0,0,173.345,277.218Zm-3.724-2.442c.108-1.34.739-1.977,1.979-1.977a1.748,1.748,0,0,1,1.939,1.657l-1.333-.8a.4.4,0,0,0-.585.216C171.418,274.48,170.326,274.71,169.621,274.777Zm1.979,5.056-.331-.331.331-.826.331.827Zm0-2.633a2.52,2.52,0,0,1-1.944-1.621,3.636,3.636,0,0,0,2.5-1.022l1.43.858A2.477,2.477,0,0,1,171.6,277.2Z"
         transform="translate(-168 -272)"
         id="path20"
         style="fill:#ffffff" />
    </g>
    <g
       transform="translate(10 22.4)"
       id="g26"
       style="fill:#ffffff">
      <rect
         class="a"
         width="0.8"
         height="1.6"
         id="rect24"
         style="fill:#ffffff" />
    </g>
    <g
       transform="translate(13.2 22.4)"
       id="g30"
       style="fill:#ffffff">
      <rect
         class="a"
         width="0.8"
         height="1.6"
         id="rect28"
         style="fill:#ffffff" />
    </g>
    <g
       transform="translate(16.8 13.6)"
       id="g34"
       style="fill:#ffffff">
      <path
         class="a"
         d="M342.256,277.556a2.114,2.114,0,0,0-.91-.337,2.777,2.777,0,0,0,1.055-2.02c0-2.645-1.523-3.2-2.8-3.2s-2.8.555-2.8,3.2a2.777,2.777,0,0,0,1.055,2.02,2.113,2.113,0,0,0-1.855,2.1v3.08h.8v-3.08a1.32,1.32,0,0,1,1.32-1.32h.888l-.58,1.451a.4.4,0,0,0,.089.432l.8.8a.4.4,0,0,0,.566,0l.8-.8a.4.4,0,0,0,.089-.432l-.58-1.451h.889a1.32,1.32,0,0,1,1.32,1.32v3.08h.8v-3.08A2.117,2.117,0,0,0,342.256,277.556Zm-4.635-2.78c.108-1.34.739-1.977,1.979-1.977a1.748,1.748,0,0,1,1.939,1.657l-1.333-.8a.4.4,0,0,0-.585.216C339.418,274.48,338.326,274.71,337.621,274.777Zm1.979,5.058-.331-.331.331-.827.331.827Zm0-2.634a2.52,2.52,0,0,1-1.944-1.621,3.636,3.636,0,0,0,2.5-1.022l1.43.858A2.477,2.477,0,0,1,339.6,277.2Z"
         transform="translate(-336 -272)"
         id="path32"
         style="fill:#ffffff" />
    </g>
    <g
       transform="translate(18.4 22.4)"
       id="g38"
       style="fill:#ffffff">
      <rect
         class="a"
         width="0.8"
         height="1.6"
         id="rect36"
         style="fill:#ffffff" />
    </g>
    <g
       transform="translate(21.6 22.4)"
       id="g42"
       style="fill:#ffffff">
      <rect
         class="a"
         width="0.8"
         height="1.6"
         id="rect40"
         style="fill:#ffffff" />
    </g>
    <g
       transform="translate(0 1.2)"
       id="g46"
       style="fill:#ffffff">
      <path
         class="a"
         d="M22.8,26.8H16.4A1.2,1.2,0,0,0,15.2,28v.4H12V25.2A1.2,1.2,0,0,0,10.8,24H1.2A1.2,1.2,0,0,0,0,25.2V30a1.2,1.2,0,0,0,1.2,1.2h.88l1.214,1.456a.4.4,0,0,0,.614,0L5.12,31.2H6.8v1.6A1.2,1.2,0,0,0,8,34h2.48l1.214,1.456a.4.4,0,0,0,.614,0L13.52,34H16a1.2,1.2,0,0,0,1.2-1.2v-.4h2.08l1.214,1.456a.4.4,0,0,0,.614,0L22.32,32.4h.48A1.2,1.2,0,0,0,24,31.2V28A1.2,1.2,0,0,0,22.8,26.8ZM4.933,30.4a.4.4,0,0,0-.307.144L3.6,31.775,2.574,30.544a.4.4,0,0,0-.307-.144H1.2A.4.4,0,0,1,.8,30V25.2a.4.4,0,0,1,.4-.4h9.6a.4.4,0,0,1,.4.4V30a.4.4,0,0,1-.4.4ZM16.4,32.8a.4.4,0,0,1-.4.4H13.333a.4.4,0,0,0-.307.144L12,34.575l-1.026-1.231a.4.4,0,0,0-.307-.144H8a.4.4,0,0,1-.4-.4V31.2h3.2A1.2,1.2,0,0,0,12,30v-.8h4a.4.4,0,0,1,.4.4Zm6.8-1.6a.4.4,0,0,1-.4.4h-.667a.4.4,0,0,0-.307.144L20.8,32.975l-1.026-1.231a.4.4,0,0,0-.307-.144H17.2v-2A1.2,1.2,0,0,0,16,28.4V28a.4.4,0,0,1,.4-.4h6.4a.4.4,0,0,1,.4.4Z"
         transform="translate(0 -24)"
         id="path44"
         style="fill:#ffffff" />
    </g>
    <g
       transform="translate(1.6 2.8)"
       id="g50"
       style="fill:#ffffff">
      <rect
         class="a"
         width="0.8"
         height="0.8"
         id="rect48"
         style="fill:#ffffff" />
    </g>
    <g
       transform="translate(3.2 2.8)"
       id="g54"
       style="fill:#ffffff">
      <rect
         class="a"
         width="0.8"
         height="0.8"
         id="rect52"
         style="fill:#ffffff" />
    </g>
    <g
       transform="translate(4.8 2.8)"
       id="g58"
       style="fill:#ffffff">
      <rect
         class="a"
         width="0.8"
         height="0.8"
         id="rect56"
         style="fill:#ffffff" />
    </g>
    <g
       transform="translate(12.8 7.2)"
       id="g62"
       style="fill:#ffffff">
      <rect
         class="a"
         width="0.8"
         height="0.8"
         id="rect60"
         style="fill:#ffffff" />
    </g>
    <g
       transform="translate(14.4 7.2)"
       id="g66"
       style="fill:#ffffff">
      <rect
         class="a"
         width="0.8"
         height="0.8"
         id="rect64"
         style="fill:#ffffff" />
    </g>
    <g
       transform="translate(18.4 5.6)"
       id="g70"
       style="fill:#ffffff">
      <rect
         class="a"
         width="0.8"
         height="0.8"
         id="rect68"
         style="fill:#ffffff" />
    </g>
    <g
       transform="translate(20 5.6)"
       id="g74"
       style="fill:#ffffff">
      <rect
         class="a"
         width="0.8"
         height="0.8"
         id="rect72"
         style="fill:#ffffff" />
    </g>
    <g
       transform="translate(21.6 5.6)"
       id="g78"
       style="fill:#ffffff">
      <rect
         class="a"
         width="0.8"
         height="0.8"
         id="rect76"
         style="fill:#ffffff" />
    </g>
    <g
       transform="translate(14)"
       id="g82"
       style="fill:#ffffff">
      <path
         class="a"
         d="M280,0V.8a2.4,2.4,0,0,1,2.4,2.4h.8A3.2,3.2,0,0,0,280,0Z"
         transform="translate(-280)"
         id="path80"
         style="fill:#ffffff" />
    </g>
    <g
       transform="translate(4.8 10.4)"
       id="g86"
       style="fill:#ffffff">
      <path
         class="a"
         d="M96.8,208H96a3.2,3.2,0,0,0,3.2,3.2v-.8A2.4,2.4,0,0,1,96.8,208Z"
         transform="translate(-96 -208)"
         id="path84"
         style="fill:#ffffff" />
    </g>
  </g>
</svg>
