<svg xmlns="http://www.w3.org/2000/svg" viewBox="1269.16 -1647.037 33.032 28.46"><defs><style>.a{fill:#fff;}</style></defs><g transform="translate(1269.16 -1647.037)"><path class="a" d="M31.663,49.006H7.894V29.043a1.287,1.287,0,1,0-2.574,0V49.007H1.287a1.287,1.287,0,1,0,0,2.574H5.32v3.348a1.287,1.287,0,1,0,2.574,0V51.581H31.663a1.287,1.287,0,0,0,0-2.574Z" transform="translate(0 -27.756)"/><path class="a" d="M128.412,154.028h3.542a.412.412,0,0,0,.412-.412v-8.2a.412.412,0,0,0-.412-.412h-3.542a.412.412,0,0,0-.412.412v8.2A.412.412,0,0,0,128.412,154.028Z" transform="translate(-117.456 -135.342)"/><path class="a" d="M198.412,115.489h3.542a.412.412,0,0,0,.412-.412v-3.613a6.424,6.424,0,0,1-.979-.8,6.365,6.365,0,0,1-1.023-7.66h-1.952a.412.412,0,0,0-.412.412v11.664A.412.412,0,0,0,198.412,115.489Z" transform="translate(-181.69 -96.803)"/><path class="a" d="M268,213.7v2.913a.412.412,0,0,0,.412.412h3.542a.412.412,0,0,0,.412-.412v-2.96A6.4,6.4,0,0,1,268,213.7Z" transform="translate(-245.924 -198.343)"/><path class="a" d="M236.167,88.988a5.128,5.128,0,0,0,2.964-.935l4.343,4.343a.9.9,0,0,0,1.267-1.267L240.4,86.786a5.167,5.167,0,1,0-4.232,2.2Zm-2.6-7.765a3.674,3.674,0,1,1-1.076,2.6A3.65,3.65,0,0,1,233.569,81.223Z" transform="translate(-211.971 -74.461)"/><path class="a" d="M275.356,110.876v.7a.134.134,0,0,0,.134.134h.485a.134.134,0,0,0,.134-.134V110.9c.755-.093,1.223-.533,1.223-1.152,0-.819-.708-1.022-1.277-1.185-.44-.126-.708-.219-.708-.451,0-.16.142-.251.391-.251a2.682,2.682,0,0,1,1.089.332.133.133,0,0,0,.1.009.134.134,0,0,0,.079-.069l.264-.548a.134.134,0,0,0-.054-.174,2.914,2.914,0,0,0-1.112-.354v-.635a.134.134,0,0,0-.134-.134h-.485a.134.134,0,0,0-.134.134v.663A1.15,1.15,0,0,0,274.3,108.2c0,.8.7.988,1.261,1.142.45.123.723.216.723.457,0,.265-.292.3-.466.3a2.3,2.3,0,0,1-1.239-.473.134.134,0,0,0-.2.046l-.267.529a.134.134,0,0,0,.039.167A2.748,2.748,0,0,0,275.356,110.876Z" transform="translate(-251.519 -99.818)"/></g></svg>