<svg xmlns="http://www.w3.org/2000/svg" viewBox="3913 -1241 29 27"><defs><style>.a{fill:#303030;}.b{fill:#ffb300;}.c{fill:#fff;}</style></defs><g transform="translate(3826 -1491.907)"><g transform="translate(87 218.907)"><g transform="translate(3 35)"><path class="a" d="M83.5,96h-18A1.5,1.5,0,0,0,64,97.5v15a1.5,1.5,0,0,0,1.5,1.5h18a1.5,1.5,0,0,0,1.5-1.5v-15A1.5,1.5,0,0,0,83.5,96Zm.5,16.5a.5.5,0,0,1-.5.5h-18a.5.5,0,0,1-.5-.5v-15a.5.5,0,0,1,.5-.5h18a.5.5,0,0,1,.5.5Z" transform="translate(-64 -96)"/></g><g transform="translate(0 32)"><path class="a" d="M20.5,32H1.5A1.5,1.5,0,0,0,0,33.5v16A1.5,1.5,0,0,0,1.5,51H2V50H1.5a.5.5,0,0,1-.5-.5v-16a.5.5,0,0,1,.5-.5h19a.5.5,0,0,1,.5.5V34h1v-.5A1.5,1.5,0,0,0,20.5,32Z" transform="translate(0 -32)"/></g><g transform="translate(3.146 42)"><path class="a" d="M75.332,245.482a.5.5,0,0,0-.707,0l-7.5,7.5.707.707,7.147-7.146,7.646,7.646.707-.707Z" transform="translate(-67.125 -245.336)"/></g><g transform="translate(15.146 42)"><path class="a" d="M326.332,245.482a.5.5,0,0,0-.707,0l-2.5,2.5.707.707,2.146-2.146,5.146,5.146.707-.707Z" transform="translate(-323.125 -245.336)"/></g><g transform="translate(12 37)"><path class="a" d="M258.5,138.667a2.5,2.5,0,1,0,2.5,2.5A2.5,2.5,0,0,0,258.5,138.667Zm0,4a1.5,1.5,0,1,1,1.5-1.5A1.5,1.5,0,0,1,258.5,142.667Z" transform="translate(-256 -138.667)"/></g></g><g transform="translate(26 -14)"><circle class="b" cx="6" cy="6" r="6" transform="translate(78 279.907)"/><path class="c" d="M2.761,6.284A1.576,1.576,0,0,1,1.647,3.6L4.906.336A1.167,1.167,0,0,1,6.591.385a1.167,1.167,0,0,1,.049,1.685L3.579,5.132A.738.738,0,1,1,2.536,4.089L4.61,2.015a.179.179,0,0,1,.253.253L2.789,4.342a.38.38,0,0,0,.537.537L6.388,1.817A.817.817,0,0,0,6.338.639.817.817,0,0,0,5.159.589L1.9,3.848A1.218,1.218,0,0,0,3.622,5.57L6.881,2.311a.179.179,0,0,1,.253.253L3.875,5.824A1.565,1.565,0,0,1,2.761,6.284Z" transform="translate(79.678 282.907)"/></g></g></svg>