<svg xmlns="http://www.w3.org/2000/svg" viewBox="3908.542 902.556 13.643 18"><defs><style>.a{fill:#303030;}</style></defs><g transform="translate(3908.542 902.556)"><path class="a" d="M12.46,6.844H11.8V4.985a4.981,4.981,0,1,0-9.962,0V6.84H1.179A1.181,1.181,0,0,0,0,8.019v8.8A1.181,1.181,0,0,0,1.179,18H12.464a1.181,1.181,0,0,0,1.179-1.179v-8.8A1.185,1.185,0,0,0,12.46,6.844ZM3.336,4.981a3.482,3.482,0,0,1,6.965,0V6.836H3.336V4.981Zm8.8,11.52H1.5V8.342H12.141V16.5Z"/><path class="a" d="M165.949,328.731a.748.748,0,0,0,.749-.749v-1.932a.749.749,0,1,0-1.5,0v1.932A.75.75,0,0,0,165.949,328.731Z" transform="translate(-159.131 -313.35)"/></g></svg>