<?xml version="1.0" encoding="UTF-8" standalone="no"?>
<svg
   xmlns:dc="http://purl.org/dc/elements/1.1/"
   xmlns:cc="http://creativecommons.org/ns#"
   xmlns:rdf="http://www.w3.org/1999/02/22-rdf-syntax-ns#"
   xmlns:svg="http://www.w3.org/2000/svg"
   xmlns="http://www.w3.org/2000/svg"
   xmlns:sodipodi="http://sodipodi.sourceforge.net/DTD/sodipodi-0.dtd"
   xmlns:inkscape="http://www.inkscape.org/namespaces/inkscape"
   viewBox="564 -1486 24 23.987"
   version="1.1"
   id="svg82"
   sodipodi:docname="icon-menu-1-white.svg"
   inkscape:version="0.92.1 r15371">
  <metadata
     id="metadata86">
    <rdf:RDF>
      <cc:Work
         rdf:about="">
        <dc:format>image/svg+xml</dc:format>
        <dc:type
           rdf:resource="http://purl.org/dc/dcmitype/StillImage" />
        <dc:title></dc:title>
      </cc:Work>
    </rdf:RDF>
  </metadata>
  <sodipodi:namedview
     pagecolor="#ffffff"
     bordercolor="#666666"
     borderopacity="1"
     objecttolerance="10"
     gridtolerance="10"
     guidetolerance="10"
     inkscape:pageopacity="0"
     inkscape:pageshadow="2"
     inkscape:window-width="1920"
     inkscape:window-height="1001"
     id="namedview84"
     showgrid="false"
     inkscape:zoom="27.827941"
     inkscape:cx="10.479375"
     inkscape:cy="10.738582"
     inkscape:window-x="-9"
     inkscape:window-y="41"
     inkscape:window-maximized="1"
     inkscape:current-layer="svg82" />
  <defs
     id="defs4">
    <style
       id="style2">.a{fill:#fff;}</style>
  </defs>
  <g
     transform="translate(564 -1486.133)"
     id="g80"
     style="fill:#ffffff">
    <g
       transform="translate(9.782 6.476)"
       id="g8"
       style="fill:#ffffff">
      <path
         class="a"
         d="M212.506,139.8a3.6,3.6,0,0,0-.828-.28q-.442-.093-.828-.187a2.379,2.379,0,0,1-.641-.243.508.508,0,0,1-.255-.473.43.43,0,0,1,.255-.436,1.528,1.528,0,0,1,.616-.112,2.8,2.8,0,0,1,2.029.772v-1.432a2.593,2.593,0,0,0-1.456-.486v-1.432q0-.037-.05-.037h-1.083a.044.044,0,0,0-.05.05v1.407a3.413,3.413,0,0,0-.778.42,1.719,1.719,0,0,0-.56.607,1.8,1.8,0,0,0-.168.822,1.383,1.383,0,0,0,.255.84,2.389,2.389,0,0,0,1.475.847l.834.187a2.714,2.714,0,0,1,.64.217.42.42,0,0,1,.257.393q0,.466-.593.647a2.776,2.776,0,0,1-.751.075,2.486,2.486,0,0,1-1.282-.336,2.2,2.2,0,0,1-.871-.934v1.681a6.654,6.654,0,0,0,1.593.71l.012,1.27a.033.033,0,0,0,.037.037H211.4a.044.044,0,0,0,.05-.05v-1.17a3.207,3.207,0,0,0,1.551-.976,1.625,1.625,0,0,0,.4-1A1.452,1.452,0,0,0,212.506,139.8Z"
         transform="translate(-208.672 -135.452)"
         id="path6"
         style="fill:#ffffff" />
    </g>
    <g
       transform="translate(0 0.133)"
       id="g14"
       style="fill:#ffffff">
      <g
         transform="translate(0 0)"
         id="g12"
         style="fill:#ffffff">
        <path
           class="a"
           d="M18.8,13.056l-1.84,2.4V12.4h3.852L12.08.133,2.856,12.4H7.181v2.988L5.487,13.056,0,20.221H2.585v3.9H21.69v-3.9H24ZM7.682,23.429H3.277v-3.9H1.4l4.071-5.316,3.855,5.316H7.682v3.9Zm8.219,0H8.374V20.221h2.31L7.873,16.345V11.71H4.242L12.064,1.3,19.473,11.71h-3.2v4.652l-2.955,3.859H15.9Zm5.1-3.9v3.9H16.593v-3.9H14.717l4.071-5.316,3.855,5.316Z"
           transform="translate(0 -0.133)"
           id="path10"
           style="fill:#ffffff" />
      </g>
    </g>
    <g
       transform="translate(19.08 20.885)"
       id="g18"
       style="fill:#ffffff">
      <path
         class="a"
         d="M407.8,442.84v1.4h-.771v.692h1.463V442.84Z"
         transform="translate(-407.03 -442.84)"
         id="path16"
         style="fill:#ffffff" />
    </g>
    <g
       transform="translate(17.677 22.281)"
       id="g22"
       style="fill:#ffffff">
      <rect
         class="a"
         width="0.665"
         height="0.692"
         id="rect20"
         style="fill:#ffffff" />
    </g>
    <g
       transform="translate(22.975 12.033)"
       id="g26"
       style="fill:#ffffff">
      <rect
         class="a"
         width="0.692"
         height="0.735"
         id="rect24"
         style="fill:#ffffff" />
    </g>
    <g
       transform="translate(21.583 4.787)"
       id="g32"
       style="fill:#ffffff">
      <g
         transform="translate(0 0)"
         id="g30"
         style="fill:#ffffff">
        <rect
           class="a"
           width="0.692"
           height="0.735"
           id="rect28"
           style="fill:#ffffff" />
      </g>
    </g>
    <g
       transform="translate(22.287 1.128)"
       id="g36"
       style="fill:#ffffff">
      <rect
         class="a"
         width="0.692"
         height="0.735"
         id="rect34"
         style="fill:#ffffff" />
    </g>
    <g
       transform="translate(19.798 7.407)"
       id="g42"
       style="fill:#ffffff">
      <g
         transform="translate(0 0)"
         id="g40"
         style="fill:#ffffff">
        <rect
           class="a"
           width="0.692"
           height="0.735"
           id="rect38"
           style="fill:#ffffff" />
      </g>
    </g>
    <g
       transform="translate(17.466 3.096)"
       id="g46"
       style="fill:#ffffff">
      <rect
         class="a"
         width="0.692"
         height="0.735"
         id="rect44"
         style="fill:#ffffff" />
    </g>
    <g
       transform="translate(0.353 12.033)"
       id="g50"
       style="fill:#ffffff">
      <rect
         class="a"
         width="0.692"
         height="0.735"
         id="rect48"
         style="fill:#ffffff" />
    </g>
    <g
       transform="translate(1.841 4.787)"
       id="g56"
       style="fill:#ffffff">
      <g
         transform="translate(0 0)"
         id="g54"
         style="fill:#ffffff">
        <rect
           class="a"
           width="0.692"
           height="0.735"
           id="rect52"
           style="fill:#ffffff" />
      </g>
    </g>
    <g
       transform="translate(1.137 1.128)"
       id="g60"
       style="fill:#ffffff">
      <rect
         class="a"
         width="0.692"
         height="0.735"
         id="rect58"
         style="fill:#ffffff" />
    </g>
    <g
       transform="translate(3.626 7.407)"
       id="g66"
       style="fill:#ffffff">
      <g
         transform="translate(0 0)"
         id="g64"
         style="fill:#ffffff">
        <rect
           class="a"
           width="0.692"
           height="0.735"
           id="rect62"
           style="fill:#ffffff" />
      </g>
    </g>
    <g
       transform="translate(5.958 3.096)"
       id="g70"
       style="fill:#ffffff">
      <rect
         class="a"
         width="0.692"
         height="0.735"
         id="rect68"
         style="fill:#ffffff" />
    </g>
    <g
       transform="translate(5.705 20.885)"
       id="g74"
       style="fill:#ffffff">
      <path
         class="a"
         d="M122.486,442.84v1.4h-.771v.692h1.463V442.84Z"
         transform="translate(-121.715 -442.84)"
         id="path72"
         style="fill:#ffffff" />
    </g>
    <g
       transform="translate(4.303 22.281)"
       id="g78"
       style="fill:#ffffff">
      <rect
         class="a"
         width="0.665"
         height="0.692"
         id="rect76"
         style="fill:#ffffff" />
    </g>
  </g>
</svg>
