<svg xmlns="http://www.w3.org/2000/svg" viewBox="1328.535 1095.563 13.716 14"><defs><style>.a{fill:#ffb300;}</style></defs><g transform="translate(1328.535 1095.563)"><rect class="a" width="1.714" height="2.857" transform="translate(7.714 1.427)"/><path class="a" d="M11.26,0H0V14H13.716V2.453Zm-8.4.571h7.429V5.143H2.857Zm8.285,12.857H2.286v-6h8.857Z"/><path class="a" d="M125.782,314.169h2a.284.284,0,0,0,0-.569h-2a.284.284,0,0,0,0,.569Z" transform="translate(-122.068 -305.025)"/><path class="a" d="M125.684,355.969h2.857a.284.284,0,0,0,0-.569h-2.857a.284.284,0,1,0,0,.569Z" transform="translate(-121.971 -345.682)"/><path class="a" d="M261.584,356.042a.292.292,0,0,0,.2-.082.291.291,0,0,0,0-.4.293.293,0,0,0-.4,0,.283.283,0,0,0-.085.2.28.28,0,0,0,.284.284Z" transform="translate(-254.155 -345.755)"/></g></svg>