<svg xmlns="http://www.w3.org/2000/svg" viewBox="2425 -1630 32 27.57"><defs><style>.a{fill:#a7a7a7;}</style></defs><g transform="translate(2425 -1657.756)"><path class="a" d="M30.673,48.342H7.648V29a1.247,1.247,0,1,0-2.494,0v19.34H1.247a1.247,1.247,0,1,0,0,2.494H5.154v3.243a1.247,1.247,0,1,0,2.494,0V50.836H30.673a1.247,1.247,0,0,0,0-2.494Z" transform="translate(0 0)"/><path class="a" d="M128.4,153.746h3.431a.4.4,0,0,0,.4-.4V145.4a.4.4,0,0,0-.4-.4H128.4a.4.4,0,0,0-.4.4v7.948A.4.4,0,0,0,128.4,153.746Z" transform="translate(-117.786 -107.888)"/><path class="a" d="M198.4,115.1h3.431a.4.4,0,0,0,.4-.4v-3.5a6.223,6.223,0,0,1-.948-.778,6.166,6.166,0,0,1-.991-7.42H198.4a.4.4,0,0,0-.4.4v11.3A.4.4,0,0,0,198.4,115.1Z" transform="translate(-182.199 -69.24)"/><path class="a" d="M268,213.7v2.822a.4.4,0,0,0,.4.4h3.431a.4.4,0,0,0,.4-.4v-2.868A6.2,6.2,0,0,1,268,213.7Z" transform="translate(-246.613 -171.066)"/><path class="a" d="M236.006,88.665a4.968,4.968,0,0,0,2.872-.906l4.207,4.207a.868.868,0,0,0,1.228-1.228L240.1,86.531a5.005,5.005,0,1,0-4.1,2.134Zm-2.517-7.522a3.559,3.559,0,1,1-1.042,2.517A3.536,3.536,0,0,1,233.489,81.143Z" transform="translate(-212.566 -46.836)"/><path class="a" d="M275.316,110.733v.679a.13.13,0,0,0,.13.13h.47a.13.13,0,0,0,.13-.13v-.657c.731-.09,1.184-.516,1.184-1.116,0-.794-.686-.99-1.237-1.148-.427-.122-.686-.213-.686-.437,0-.155.138-.243.378-.243a2.6,2.6,0,0,1,1.055.322.129.129,0,0,0,.1.009.13.13,0,0,0,.077-.067l.256-.531a.13.13,0,0,0-.052-.169,2.823,2.823,0,0,0-1.078-.343v-.615a.13.13,0,0,0-.13-.13h-.47a.13.13,0,0,0-.13.13v.643a1.114,1.114,0,0,0-1.023,1.078c0,.771.677.957,1.222,1.106.436.119.7.209.7.442,0,.257-.283.3-.451.3a2.232,2.232,0,0,1-1.2-.458.13.13,0,0,0-.195.045l-.258.513a.13.13,0,0,0,.037.162A2.662,2.662,0,0,0,275.316,110.733Z" transform="translate(-252.225 -72.264)"/></g></svg>