<svg xmlns="http://www.w3.org/2000/svg" viewBox="5161 -1306 18 18"><defs><style>.a{fill:#303030;}</style></defs><g transform="translate(5161 -1306)"><g transform="translate(0 10.617)"><path class="a" d="M16.418,302H1.582A1.584,1.584,0,0,0,0,303.582V307.8a1.584,1.584,0,0,0,1.582,1.582H16.418A1.584,1.584,0,0,0,18,307.8v-4.219A1.584,1.584,0,0,0,16.418,302Zm.527,5.8a.528.528,0,0,1-.527.527H1.582a.528.528,0,0,1-.527-.527v-4.219a.528.528,0,0,1,.527-.527H16.418a.528.528,0,0,1,.527.527Z" transform="translate(0 -302)"/></g><g transform="translate(2.109 12.727)"><path class="a" d="M62.351,363.582l.69-.679a.527.527,0,1,0-.74-.752l-.7.691-.7-.691a.527.527,0,1,0-.74.752l.69.679-.69.679a.527.527,0,1,0,.74.752l.7-.691.7.691a.527.527,0,1,0,.74-.752Z" transform="translate(-60 -362)"/></g><g transform="translate(7.418 12.727)"><path class="a" d="M214.009,364.263l-.682-.682.682-.682a.527.527,0,1,0-.746-.746l-.682.682-.682-.682a.527.527,0,1,0-.746.746l.682.682-.682.682a.527.527,0,0,0,.746.746l.682-.682.682.682a.527.527,0,0,0,.746-.746Z" transform="translate(-211 -361.999)"/></g><g transform="translate(12.691 12.727)"><path class="a" d="M364.009,364.263l-.682-.682.682-.682a.527.527,0,0,0-.746-.746l-.682.682-.682-.682a.527.527,0,1,0-.746.746l.682.682-.682.682a.527.527,0,0,0,.746.746l.682-.682.682.682a.527.527,0,0,0,.746-.746Z" transform="translate(-360.999 -361.999)"/></g><g transform="translate(5.309)"><path class="a" d="M157.328,4.38V2.637a2.637,2.637,0,0,0-5.273,0V4.38A1.585,1.585,0,0,0,151,5.871V7.98a1.584,1.584,0,0,0,1.582,1.582H156.8a1.584,1.584,0,0,0,1.582-1.582V5.871A1.585,1.585,0,0,0,157.328,4.38Zm-4.219-1.743a1.582,1.582,0,0,1,3.164,0V4.289h-3.164Zm4.219,5.344a.528.528,0,0,1-.527.527h-4.219a.528.528,0,0,1-.527-.527V5.871a.528.528,0,0,1,.527-.527H156.8a.528.528,0,0,1,.527.527Z" transform="translate(-151)"/></g><g transform="translate(7.418 6.398)"><path class="a" d="M213.637,182h-2.109a.527.527,0,0,0,0,1.055h2.109a.527.527,0,0,0,0-1.055Z" transform="translate(-211 -182)"/></g></g></svg>