<svg xmlns="http://www.w3.org/2000/svg" viewBox="845 -1724 24 21"><defs><style>.a{fill:#fff;}</style></defs><g transform="translate(845 -1756)"><g transform="translate(14.5 43.5)"><path class="a" d="M313.837,279.833H310.83a.5.5,0,0,1-.5-.5v-.5a.5.5,0,0,1,.5-.5h3a.5.5,0,0,1,.5.5h1a1.5,1.5,0,0,0-1.5-1.5h-3a1.5,1.5,0,0,0-1.5,1.5v.5a1.5,1.5,0,0,0,1.5,1.5h3.007a.5.5,0,0,1,.5.5v.5a.5.5,0,0,1-.5.5h-3a.5.5,0,0,1-.5-.5h-1a1.5,1.5,0,0,0,1.5,1.5h3a1.5,1.5,0,0,0,1.5-1.5v-.5A1.5,1.5,0,0,0,313.837,279.833Z" transform="translate(-309.333 -277.333)"/></g><g transform="translate(17 42.5)"><rect class="a" width="1" height="2"/></g><g transform="translate(17 49)"><rect class="a" width="1" height="1.5"/></g><g transform="translate(0 32)"><path class="a" d="M21.5,32H2.5A2.5,2.5,0,0,0,0,34.5v16A2.5,2.5,0,0,0,2.5,53H13V52H2.5A1.5,1.5,0,0,1,1,50.5v-16A1.5,1.5,0,0,1,2.5,33h19A1.5,1.5,0,0,1,23,34.5v7h1v-7A2.5,2.5,0,0,0,21.5,32Z" transform="translate(0 -32)"/></g><g transform="translate(0.5 34)"><rect class="a" width="21.5" height="1"/></g><g transform="translate(11 40)"><path class="a" d="M241.166,202.667a6.5,6.5,0,1,0,6.5,6.5A6.5,6.5,0,0,0,241.166,202.667Zm0,12a5.5,5.5,0,1,1,5.5-5.5A5.5,5.5,0,0,1,241.166,214.667Z" transform="translate(-234.666 -202.667)"/></g><g transform="translate(2 47.5)"><path class="a" d="M44.167,362.667a1.5,1.5,0,1,0,1.5,1.5A1.5,1.5,0,0,0,44.167,362.667Zm0,2a.5.5,0,1,1,.5-.5A.5.5,0,0,1,44.167,364.667Z" transform="translate(-42.667 -362.667)"/></g><g transform="translate(11 36.5)"><path class="a" d="M236.167,128a1.5,1.5,0,1,0,1.5,1.5A1.5,1.5,0,0,0,236.167,128Zm0,2a.5.5,0,1,1,.5-.5A.5.5,0,0,1,236.167,130Z" transform="translate(-234.667 -128)"/></g><g transform="translate(3.541 38.776)"><path class="a" d="M83.543,176.565l-2.158,4.316-2.01-2.413a.5.5,0,0,0-.844.123l-3,7,.919.394,2.678-6.25,1.978,2.373a.493.493,0,0,0,.442.176.5.5,0,0,0,.39-.273l2.5-5Z" transform="translate(-75.531 -176.565)"/></g><g transform="translate(2.5 36)"><rect class="a" width="4.5" height="1"/></g><g transform="translate(8 36)"><rect class="a" width="1" height="1"/></g><g transform="translate(2.5 38)"><rect class="a" width="3.5" height="1"/></g><g transform="translate(2.5 40)"><rect class="a" width="1" height="1"/></g><g transform="translate(19 36)"><rect class="a" width="3" height="1"/></g><g transform="translate(17 36)"><rect class="a" width="1" height="1"/></g><g transform="translate(19 38)"><rect class="a" width="3" height="1"/></g></g></svg>