<svg xmlns="http://www.w3.org/2000/svg" viewBox="-4648.262 2188.938 25.586 18"><defs><style>.a{fill:#fff;}.b{fill:#ffb300;}</style></defs><g transform="translate(-4648.262 2188.938)"><rect class="a" width="11.581" height="7.721" rx="3.86" transform="translate(6.52 5.091)"/><path class="b" d="M24.586,1.544C23.667.45,21.958,0,18.7,0H6.881C3.553,0,1.819.475.9,1.644,0,2.783,0,4.463,0,6.786v4.428C0,15.716,1.064,18,6.881,18H18.7c2.823,0,4.388-.395,5.4-1.364,1.039-.994,1.479-2.614,1.479-5.422V6.786C25.586,4.338,25.516,2.649,24.586,1.544Zm-8.16,8.071-5.367,2.8a.793.793,0,0,1-.38.095.829.829,0,0,1-.83-.825V6.1a.822.822,0,0,1,1.2-.73l5.367,2.788a.819.819,0,0,1,.445.73A.806.806,0,0,1,16.426,9.615Z" transform="translate(0 0)"/></g></svg>