<svg xmlns="http://www.w3.org/2000/svg" viewBox="4474.942 299.943 20.115 21.115"><defs><style>.a{fill:#303030;}.b{fill:none;stroke:#303030;}</style></defs><g transform="translate(4475.443 300.443)"><path class="a" d="M110.508,229.316h-5.055V228.2h-.8v1.116H99.6a.378.378,0,0,0-.4.4v1.512h.8v-1.116H110.15v1.116h.8v-1.512A.432.432,0,0,0,110.508,229.316Z" transform="translate(-95.497 -219.681)"/><circle class="b" cx="4.42" cy="4.42" r="4.42" transform="translate(5.137 0)"/><g transform="translate(6.892 2.031)"><path class="a" d="M187.266,139.042a3.425,3.425,0,0,0,2.669-1.314v-.119a1.037,1.037,0,0,0-.676-.956,6.219,6.219,0,0,0-3.983,0,.992.992,0,0,0-.676.956v.119A3.412,3.412,0,0,0,187.266,139.042Z" transform="translate(-184.6 -133.266)"/><circle class="a" cx="1.314" cy="1.314" r="1.314" transform="translate(1.351)"/></g><circle class="b" cx="4.103" cy="4.103" r="4.103" transform="translate(0 11.909)"/><g transform="translate(1.59 12.861)"><path class="a" d="M45.113,423.266a3.149,3.149,0,0,0,2.468-1.195v-.119a.9.9,0,0,0-.638-.877,5.873,5.873,0,0,0-3.7,0,.949.949,0,0,0-.638.877v.119A3.245,3.245,0,0,0,45.113,423.266Z" transform="translate(-42.6 -416.927)"/><circle class="a" cx="1.195" cy="1.195" r="1.195" transform="translate(1.318 1)"/></g><circle class="b" cx="4.103" cy="4.103" r="4.103" transform="translate(10.909 11.909)"/><g transform="translate(12.499 12.861)"><path class="a" d="M337.313,423.266a3.149,3.149,0,0,0,2.468-1.195v-.119a.9.9,0,0,0-.638-.877,5.873,5.873,0,0,0-3.7,0,.949.949,0,0,0-.638.877v.119A3.383,3.383,0,0,0,337.313,423.266Z" transform="translate(-334.8 -416.927)"/><circle class="a" cx="1.195" cy="1.195" r="1.195" transform="translate(1.318 1)"/></g></g></svg>