<svg xmlns="http://www.w3.org/2000/svg" xmlns:xlink="http://www.w3.org/1999/xlink" viewBox="-1183.955 1851.761 12 10.064"><defs><style>.a,.b,.c{fill-rule:evenodd;}.a{fill:url(#a);}.b{fill:#a9c9dd;}.c{fill:url(#b);}</style><linearGradient id="a" x1="0.5" x2="0.5" y2="1" gradientUnits="objectBoundingBox"><stop offset="0" stop-color="#c8daea"/><stop offset="1" stop-color="#1e96c8"/></linearGradient><linearGradient id="b" x1="0.5" x2="0.5" y2="1" gradientUnits="objectBoundingBox"><stop offset="0" stop-color="#37aee2"/><stop offset="1" stop-color="#1e96c8"/></linearGradient></defs><g transform="translate(-1185.2 1847.302)"><path class="a" d="M21.971,28.736c-.358,0-.3-.135-.42-.475L20.5,24.8,28.592,20" transform="translate(-16.213 -14.822)"/><path class="b" d="M24.5,38.915a.707.707,0,0,0,.552-.276l1.471-1.431L24.688,36.1" transform="translate(-18.742 -25.001)"/><path class="c" d="M16.931,24.687l4.447,3.285c.507.28.874.135,1-.471l1.81-8.53c.185-.743-.283-1.08-.769-.86l-10.63,4.1c-.726.291-.721.7-.132.876l2.728.851L21.7,19.954c.3-.181.572-.084.347.116" transform="translate(-10.985 -13.586)"/></g></svg>