<svg xmlns="http://www.w3.org/2000/svg" viewBox="564 -1586 22.566 24"><defs><style>.a{fill:#a7a7a7;}</style></defs><g transform="translate(562.207 -1586)"><path class="a" d="M29.33,28.4a1.423,1.423,0,0,0,1.042-.584l3.745-5.178a.4.4,0,0,0-.559-.559L28.38,25.822a1.425,1.425,0,0,0,.838,2.578C29.255,28.4,29.292,28.4,29.33,28.4Zm-.734-1.47a.624.624,0,0,1,.255-.457l3.159-2.285-2.284,3.158a.625.625,0,0,1-1.129-.416Z" transform="translate(-15.6 -13.2)"/><path class="a" d="M35.889,7.826c0-.008,0-.017-.008-.026s-.012-.012-.018-.02a10.874,10.874,0,0,0-1.426-1.924L35.3,5l.566.566,1.7-1.7-1.7-1.7-1.7,1.7.566.566-.859.859a10.862,10.862,0,0,0-1.924-1.426c-.008-.005-.012-.013-.02-.018s-.017,0-.026-.009a10.724,10.724,0,0,0-4.109-1.362V2h.6a1,1,0,1,0,0-2h-3.6a1,1,0,0,0,0,2h.6v.462a11,11,0,0,0-1.29.214.4.4,0,0,0,.179.78,10.172,10.172,0,0,1,1.112-.191l.429-.033c.131-.01.252-.017.37-.023V4a.4.4,0,1,0,.8,0V3.212A9.922,9.922,0,0,1,31.175,4.35l-.394.683a.4.4,0,1,0,.693.4l.393-.681A10.078,10.078,0,0,1,34.975,7.86l-.681.393a.4.4,0,0,0,.4.693l.683-.394a9.928,9.928,0,0,1,1.14,4.248h-.79a.4.4,0,1,0,0,.8h.79a9.928,9.928,0,0,1-1.14,4.248l-.683-.394a.4.4,0,0,0-.4.693l.681.393a10.078,10.078,0,0,1-3.109,3.109l-.393-.681a.4.4,0,0,0-.693.4l.394.683a9.922,9.922,0,0,1-4.182,1.138V22.4a.4.4,0,1,0-.8,0v.79a10.094,10.094,0,0,1-1.91-.247.4.4,0,1,0-.179.78A10.808,10.808,0,0,0,26.527,24l.058,0,.007,0,.009,0a10.73,10.73,0,0,0,5.288-1.429.339.339,0,0,0,.038-.016c.008,0,.012-.012.02-.018a10.879,10.879,0,0,0,3.909-3.9.379.379,0,0,0,.024-.031c0-.008,0-.017.008-.026a10.758,10.758,0,0,0,0-10.749ZM35.861,3.3l.566.566-.566.566L35.3,3.866Zm-9.669-.892V1.2h-1.4a.2.2,0,0,1,0-.4h3.6a.2.2,0,0,1,0,.4h-1.4V2.408c-.139-.006-.272-.008-.4-.008h-.065c-.066,0-.131,0-.2.006C26.284,2.407,26.241,2.406,26.193,2.408Z" transform="translate(-13.2)"/><path class="a" d="M18.193,14h-2a.4.4,0,0,0,0,.8h2a.4.4,0,0,0,0-.8Z" transform="translate(-8.4 -8.4)"/><path class="a" d="M15.193,21h-4a.4.4,0,1,0,0,.8h4a.4.4,0,1,0,0-.8Z" transform="translate(-5.4 -12.6)"/><path class="a" d="M12.193,28h-6a.4.4,0,1,0,0,.8h6a.4.4,0,0,0,0-.8Z" transform="translate(-2.4 -16.8)"/><path class="a" d="M9.793,35h-7.6a.4.4,0,1,0,0,.8h7.6a.4.4,0,1,0,0-.8Z" transform="translate(0 -21)"/><path class="a" d="M13.393,42h-5.2a.4.4,0,0,0,0,.8h5.2a.4.4,0,0,0,0-.8Z" transform="translate(-3.6 -25.2)"/><path class="a" d="M16.993,49h-2.8a.4.4,0,1,0,0,.8h2.8a.4.4,0,1,0,0-.8Z" transform="translate(-7.2 -29.4)"/></g></svg>