<svg xmlns="http://www.w3.org/2000/svg" viewBox="4938.303 385.166 13.394 12.839"><defs><style>.a{fill:#303030;}</style></defs><g transform="translate(4773 341)"><g transform="translate(165.303 44.166)"><path class="a" d="M391.155,1.381l-1.2-1.2a.634.634,0,0,0-.45-.186.643.643,0,0,0-.45.186l-.957.955,2.1,2.093.957-.955A.631.631,0,0,0,391.155,1.381Z" transform="translate(-377.948)"/><path class="a" d="M150.3,66.463l2.1,2.093,5.773-5.763-2.1-2.093Z" transform="translate(-146.368 -59.112)"/><path class="a" d="M116.347,298.1l-.447,2.537,2.543-.445Z" transform="translate(-112.868 -290.302)"/><path class="a" d="M9.273,93.27h-7.9v-7.9H6.948L8.321,84H.887A.885.885,0,0,0,0,84.884v8.871a.891.891,0,0,0,.887.887H9.757a.891.891,0,0,0,.887-.887V87.411L9.273,88.779V93.27Z" transform="translate(0 -81.802)"/></g></g></svg>