<svg xmlns="http://www.w3.org/2000/svg" viewBox="3905.119 381.119 19.761 19.761"><defs><style>.a{fill:#303030;}</style></defs><g transform="translate(3905.119 381.119)"><path class="a" d="M16.867,2.895a9.877,9.877,0,0,0-13.972,0,9.877,9.877,0,0,0,0,13.972,9.879,9.879,0,0,0,11.6,1.752.729.729,0,0,0-.679-1.289A8.423,8.423,0,1,1,18.3,9.881a4.613,4.613,0,0,1-.807,2.926,1.879,1.879,0,0,1-1.447.8c-.733,0-1.474-.583-1.474-1.887V6.04a.729.729,0,0,0-1.459,0v.32a5,5,0,1,0-3.543,8.526A4.818,4.818,0,0,0,11,14.674a.729.729,0,0,0-.417-1.4,3.611,3.611,0,0,1-1.015.151,3.543,3.543,0,1,1,3.543-3.543v1.829a3.047,3.047,0,0,0,2.933,3.346,3.336,3.336,0,0,0,2.6-1.355,6.185,6.185,0,0,0,1.115-3.825A9.809,9.809,0,0,0,16.867,2.895Z" transform="translate(0 0)"/></g></svg>