<svg xmlns="http://www.w3.org/2000/svg" viewBox="-2730 2324 200 200"><g transform="translate(-2730 2324)"><path d="M62.5,0H0V62.5H62.5ZM50,50H12.5V12.5H50Z"/><rect width="12.5" height="12.5" transform="translate(25 25)"/><path d="M352,0V62.5h62.5V0Zm50,50H364.5V12.5H402Z" transform="translate(-214.5)"/><rect width="12.5" height="12.5" transform="translate(162.5 25)"/><path d="M0,414.5H62.5V352H0Zm12.5-50H50V402H12.5Z" transform="translate(0 -214.5)"/><rect width="12.5" height="12.5" transform="translate(25 162.5)"/><rect width="25" height="12.5" transform="translate(100)"/><path d="M217,69.5h12.5V57H242V44.5H204.5V32H192V57h25Z" transform="translate(-117 -19.5)"/><rect width="12.5" height="12.5" transform="translate(75 50)"/><path d="M242,160H229.5v12.5H192V185h50Z" transform="translate(-117 -97.5)"/><path d="M12.5,229.5H25V217H12.5V192H0v50H12.5Z" transform="translate(0 -117)"/><rect width="12.5" height="12.5" transform="translate(25 75)"/><path d="M133.5,242h25V229.5H146V217H121V192H108.5v25H96v25h12.5V229.5h25Z" transform="translate(-58.5 -117)"/><rect width="12.5" height="25" transform="translate(112.5 100)"/><path d="M229.5,352H192v12.5h25V402H192v12.5h37.5V402h25V389.5h-25Z" transform="translate(-117 -214.5)"/><rect width="12.5" height="12.5" transform="translate(75 162.5)"/><rect width="12.5" height="25" transform="translate(125 137.5)"/><path d="M421.5,416H384v37.5h12.5v-25h25Z" transform="translate(-234 -253.5)"/><rect width="25" height="12.5" transform="translate(175 187.5)"/><rect width="12.5" height="12.5" transform="translate(187.5 137.5)"/><path d="M364.5,325.5H377V288H352v12.5h12.5Z" transform="translate(-214.5 -175.5)"/><path d="M389.5,204.5H377V192H364.5v12.5H352V217h50V204.5h12.5V192h-25Z" transform="translate(-214.5 -117)"/><rect width="25" height="12.5" transform="translate(175 112.5)"/></g></svg>