<svg xmlns="http://www.w3.org/2000/svg" xmlns:xlink="http://www.w3.org/1999/xlink" viewBox="1691.23 -1815.955 32.623 27.362"><defs><style>.a{fill:#c8daea;}.a,.b,.c{fill-rule:evenodd;}.b{fill:#a9c9dd;}.c{fill:url(#a);}</style><linearGradient id="a" x1="0.612" y1="0.437" x2="0.747" y2="0.802" gradientUnits="objectBoundingBox"><stop offset="0" stop-color="#eff7fc"/><stop offset="1" stop-color="#fff"/></linearGradient></defs><g transform="translate(1679 -1834)"><path class="a" d="M24.5,43.75c-.972,0-.807-.367-1.142-1.292L20.5,33.051,42.5,20"/><path class="b" d="M24.5,43.75A1.922,1.922,0,0,0,26,43l4-3.889L25.011,36.1" transform="translate(0 0)"/><path class="c" d="M25.01,36.1,37.1,45.035c1.38.761,2.375.367,2.719-1.281L44.74,20.563c.5-2.02-.77-2.936-2.09-2.337l-28.9,11.143c-1.973.791-1.961,1.892-.36,2.382l7.416,2.315L37.977,23.234c.81-.491,1.554-.227.944.315" transform="translate(0 0)"/></g></svg>