<svg xmlns="http://www.w3.org/2000/svg" xmlns:xlink="http://www.w3.org/1999/xlink" width="415.438" height="405.15" viewBox="0 0 415.438 405.15"><defs><linearGradient id="a" x1="0.146" y1="0.146" x2="0.952" y2="0.974" gradientUnits="objectBoundingBox"><stop offset="0" stop-color="#565a6f"/><stop offset="1" stop-color="#3e4257"/></linearGradient><filter id="b" x="0" y="0" width="415.438" height="405.15" filterUnits="userSpaceOnUse"><feOffset dy="10" input="SourceAlpha"/><feGaussianBlur stdDeviation="15" result="c"/><feFlood flood-opacity="0.302"/><feComposite operator="in" in2="c"/><feComposite in="SourceGraphic"/></filter></defs><g transform="translate(30.567 26.66)"><path d="M93.148,517.474l205.213-13.8c17.024-1.145,31.259-13.088,33.835-28.528l38.174-248.819c4.169-25.007-16.725-46.091-42.307-42.264L55.606,224.833C35.7,227.811,22.46,245.451,25.229,264.991L54.042,488.42C56.515,505.867,73.975,518.761,93.148,517.474Z" transform="translate(-24.863 -183.612)" fill="#b58a11"/><path d="M94.338,508.66l205.213-13.8c17.024-1.145,31.259-13.087,33.835-28.528l38.174-238.823c4.169-25-16.725-46.087-42.307-42.26L56.8,226.023C36.887,229,23.65,246.641,26.419,266.181L55.232,479.61C57.7,497.057,75.165,509.951,94.338,508.66Z" transform="translate(-22.093 -180.843)" fill="#e4b940"/><g transform="matrix(1, 0, 0, 1, -30.57, -26.66)" filter="url(#b)"><path d="M294.007,503.77,77.46,488.792a34.162,34.162,0,0,1-31.416-30.481L22.558,227.532a34.159,34.159,0,0,1,39.059-37.359l256.075,36.021a34.153,34.153,0,0,1,28.96,36.48L330.613,472.414A34.157,34.157,0,0,1,294.007,503.77Z" transform="translate(23.16 -154.23)" stroke="#e4b940" stroke-width="1" fill="url(#a)"/></g></g></svg>