<svg xmlns="http://www.w3.org/2000/svg" viewBox="0 0 160 20.73"><defs><style>.cls-1{fill:#fe005b;}.cls-2{fill:#f1f1f1;}.cls-3{fill:#f1f0f0;}.cls-4{fill:#fe015b;}.cls-5{fill:#f2dfe6;}.cls-6{fill:#fd0961;}.cls-7{fill:#0be5ae;}.cls-8{fill:#0be6af;}</style></defs><title>009Asset 8</title><g id="Layer_2" data-name="Layer 2"><g id="Layer_1-2" data-name="Layer 1"><path class="cls-1" d="M63.62,0H150.7A9.3,9.3,0,0,1,160,9.3v2.09a9.3,9.3,0,0,1-9.3,9.3H63.62a0,0,0,0,1,0,0V0a0,0,0,0,1,0,0Z"/><path class="cls-2" d="M97.12,18.23c-.53,0-5.12.07-5.12.07l-2.84-4.85H86.54s0,.13,0,1.68c0,1.36,0,3.22,0,3.22h-4.8l0-2.15V4.08l0-1.86,7.1,0c2.79,0,4.89.44,6,2.82A4.7,4.7,0,0,1,94,10.64c-.54.57-.31,1,0,1.5C95,14.09,96,16.06,97.12,18.23Z"/><path class="cls-2" d="M149.55,18.3a8,8,0,0,1-8.14-8.13,8.24,8.24,0,0,1,16.47.15A8,8,0,0,1,149.55,18.3Z"/><path class="cls-2" d="M111.64,10.23c0-2.17,0-6.53,0-6.53V2.21l7.27,0a6.69,6.69,0,0,1,4.19,1.28,5.19,5.19,0,0,1,2.19,5.56,5.61,5.61,0,0,1-4.63,4.31,19.15,19.15,0,0,1-3.07.2h-1.22v1.5c0,1.82,0,3.12,0,3.12h-4.68V16.94S111.64,12.47,111.64,10.23Z"/><path class="cls-2" d="M79.43,4.66c-.68.6-3,2.26-3,2.26a12.19,12.19,0,0,0-2.29-.63,3.42,3.42,0,0,0-3.66,2c-.85,1.53-.66,4.12,1,5.13a4.18,4.18,0,0,0,4.29.21,7.66,7.66,0,0,0,1.15-1l3.23,2.5a8.36,8.36,0,0,1-.59.76,9.09,9.09,0,0,1-3,1.95c-.46.2-1.47.52-1.47.52v1.54H73.6l0-1.56h-1v1.55H71l-.12-1.73a2.69,2.69,0,0,1-.62-.44c-5.56-3.26-6-11.25-.41-14.48L71,2.68v-2h1.56V2.26h.89l0-1.57h1.53l0,1.81a8.08,8.08,0,0,1,1.35.29A8.56,8.56,0,0,1,79.43,4.66Z"/><path class="cls-2" d="M109.79,2.24c-1.22,2.43-5,10.17-5,10.17l-.09,5.93h-4.68l0-6L95.26,3.42l-.69-1.18h5.34l2.44,4.69,2.47-4.7Z"/><path class="cls-3" d="M141.11,2.22s-.05,3.8,0,4.14l-4.74,0,.07,12.06h-4.67v-12h-4.56V2.21Z"/><path class="cls-4" d="M86.55,9l0-1.4,0-1.49s3.79-.47,3.81,1.42S86.55,9,86.55,9Z"/><path class="cls-4" d="M153.17,10.24a3.31,3.31,0,0,1-3.27,3.47,3.46,3.46,0,0,1-3.48-3.33,3.36,3.36,0,0,1,3.33-3.44A3.26,3.26,0,0,1,153.17,10.24Z"/><path class="cls-5" d="M149.48,6.55l-.32-.17a1.49,1.49,0,0,1,.4-.15c.09,0,.18.08.27.13Z"/><path class="cls-6" d="M116.35,9.24l.05-1.61.06-1.46s4-.52,4,1.65S116.35,9.24,116.35,9.24Z"/><path class="cls-7" d="M12.81,0H7.86C5.52,6.15,2.38,14.41,0,20.65H6.13l1.5-2.81h5.18l1.59,2.81h6.19Q16.86,10.75,13.13.83ZM8.76,12.77s.2-.7.31-1.06c.34-1.11.69-2.23,1-3.34h.37c.35,1.13.72,2.26,1,3.39.1.35.28,1,.28,1Z"/><path class="cls-7" d="M36.77,0,31.64,8.27C30,5.4,28.37,2.7,26.79,0H21.28a69.11,69.11,0,0,0-.14,8.87c0,3.93-.24,7.86.14,11.78h5.16c.43-3.27,0-6.58.29-10.3,1.4,2.27,2.58,4.2,3.78,6.11,1,1.55,1.4,1.54,2.38,0a43.66,43.66,0,0,1,3.88-5.6v9.81h5.51V0Z"/><path class="cls-8" d="M58.85,10.41s3.61-4.91.07-8.47A6.5,6.5,0,0,0,54.3.08H43.54V20.73H55.12a6,6,0,0,0,4.14-1.62C61,17.45,62.48,14.55,58.85,10.41Zm-5,6a1.48,1.48,0,0,1-.93.32h-4V12.58h3.8a2,2,0,0,1,1.32.48C55.72,14.55,54.58,15.84,53.86,16.42Zm0-8.3a1.48,1.48,0,0,1-.93.32h-4V4.28h3.8A2,2,0,0,1,54,4.76C55.72,6.25,54.58,7.54,53.86,8.12Z"/></g></g></svg>