<svg xmlns="http://www.w3.org/2000/svg" width="860" height="108.602" viewBox="0 0 860 108.602"><g transform="translate(0.044 110.016)"><path d="M114.889.6H63.107s-50.125.829-58,33.969V35.4L.14,66.881c0,1.243-.414,2.486,0,4.143C.554,76,2.625,86.766,11.739,92.566a50.436,50.436,0,0,0,24.856,9.528h.414a71.83,71.83,0,0,0,19.47.829H81.334s8.7-.414,10.771-1.657c0,0,5.385-2.071,8.285-9.114,0,0,2.486-6.214,2.486-7.871H54.408s-17.813,0-21.127-9.528a8.076,8.076,0,0,1-.414-3.314V61.082a51,51,0,0,1,.829-8.285l1.243-9.114A27.5,27.5,0,0,1,37.423,35.4a21.723,21.723,0,0,1,4.143-7.457s7.042-8.7,22.784-8.7H94.591s9.942,0,14.085-5.385C108.676,13.856,114.061,7.642,114.889.6Z" transform="translate(0 -108.064)" fill="#333441"/><path d="M155.721,34.434c0-3.728,0-15.328-15.742-25.27C126.723.465,106.01.05,100.21.05H97.724C93.168-.364,79.5,1.293,79.5,1.293,65.412,3.365,57.541,7.921,54.642,9.578c-.829.414-1.243.829-2.071,1.243-9.114,4.971-14.5,16.156-14.5,16.156a34.754,34.754,0,0,0-2.9,7.871c-1.243,4.557-2.071,9.114-2.9,13.671-.829,6.628-2.486,19.056-2.486,19.056v.414A32.668,32.668,0,0,0,40.557,95.33a21.41,21.41,0,0,0,2.9,2.486,83.3,83.3,0,0,0,14.913,6.628c.829.414,1.657.414,2.486.829a141.217,141.217,0,0,0,26.927,2.9c22.784,0,34.8-5.8,34.8-5.8,6.214-2.486,18.227-8.7,24.027-19.47a62.412,62.412,0,0,0,6.628-20.3,2.491,2.491,0,0,1,.414-1.657C156.964,35.677,155.721,37.748,155.721,34.434ZM118.852,70.06c0,.414,0,.414-.414.829-.829,1.657-2.9,7.871-7.871,11.6-5.8,4.143-12.014,5.8-14.5,5.8-2.486.414-11.185,0-15.328,0a14.892,14.892,0,0,1-4.557-.829c-2.9-.829-8.285-2.486-9.942-4.971C63.755,78.76,62.1,75.86,62.1,71.717c0-3.728.414-6.214.414-8.285V61.775l2.9-18.227s.414-7.042,6.214-14.913c0,0,4.143-5.8,10.771-7.871a40.675,40.675,0,0,1,15.742-2.486s13.671,0,17.813,3.314c.414,0,.414.414.829.414,1.243.829,5.385,3.728,7.042,11.6C124.651,42.3,119.68,66.746,118.852,70.06Z" transform="translate(93.389 -110)" fill="#333441"/><path d="M232.221,34.22c0-3.728,0-15.328-15.742-25.27C203.223.25,182.51.25,176.71.25h-2.486C169.668-.164,156,1.493,156,1.493c-14.085,2.071-21.956,6.628-24.856,8.285-.829.414-1.243.829-2.071,1.243-9.114,4.971-14.5,16.156-14.5,16.156-1.243,1.657-2.071,4.557-2.9,7.457-1.243,4.557-2.071,9.114-2.9,13.671-.829,6.628-2.486,19.056-2.486,19.056v.414a32.668,32.668,0,0,0,10.771,27.341,21.412,21.412,0,0,0,2.9,2.486,83.3,83.3,0,0,0,14.913,6.628c.828.414,1.657.414,2.486.829a141.217,141.217,0,0,0,26.927,2.9c22.784,0,34.8-5.8,34.8-5.8,6.214-2.486,18.227-8.7,24.027-19.47a62.416,62.416,0,0,0,6.628-20.3,2.491,2.491,0,0,1,.414-1.657C233.463,35.462,232.221,37.534,232.221,34.22ZM195.352,69.846c0,.414,0,.414-.414.829-.828,1.657-2.9,7.871-7.871,11.6-5.8,4.143-12.014,5.8-14.5,5.8-2.486.414-11.185,0-15.328,0a14.892,14.892,0,0,1-4.557-.829c-2.9-.829-8.285-2.486-9.942-4.971-2.486-3.728-4.143-6.628-4.143-10.771,0-3.728.414-6.214.414-8.285V61.561l2.9-18.227s.414-7.042,6.214-14.913c0,0,4.143-5.8,10.771-7.871a40.675,40.675,0,0,1,15.742-2.486s13.671,0,17.813,3.314c.414,0,.414.414.828.414,1.243.829,5.385,3.728,7.042,11.6C201.151,42.091,195.766,66.532,195.352,69.846Z" transform="translate(333.797 -109.371)" fill="#333441"/><path d="M303.121,34.22c0-3.728,0-15.328-15.742-25.27C274.123.25,253.41.25,247.61.25h-2.486C240.568-.164,226.9,1.493,226.9,1.493c-14.085,2.071-21.956,6.628-24.856,8.285-.828.414-1.243.829-2.071,1.243-9.114,4.971-14.5,16.156-14.5,16.156-1.243,1.657-2.071,4.557-2.9,7.457-1.243,4.557-2.071,9.114-2.9,13.671-.829,6.628-2.486,19.056-2.486,19.056v.414a32.668,32.668,0,0,0,10.771,27.341,21.412,21.412,0,0,0,2.9,2.486,83.3,83.3,0,0,0,14.913,6.628c.828.414,1.657.414,2.486.829a141.217,141.217,0,0,0,26.927,2.9c22.784,0,34.8-5.8,34.8-5.8,6.214-2.486,18.227-8.7,24.027-19.47a62.414,62.414,0,0,0,6.628-20.3,2.49,2.49,0,0,1,.414-1.657C304.364,35.462,303.121,37.534,303.121,34.22ZM266.252,69.846c0,.414,0,.414-.414.829-.828,1.657-2.9,7.871-7.871,11.6-5.8,4.143-12.013,5.8-14.5,5.8-2.486.414-11.185,0-15.328,0a14.892,14.892,0,0,1-4.557-.829c-2.9-.829-8.285-2.486-9.942-4.971-2.486-3.728-4.143-6.628-4.143-10.771,0-3.728.414-6.214.414-8.285V61.561l2.9-18.227s.414-7.042,6.214-14.913c0,0,4.143-5.8,10.771-7.871a40.675,40.675,0,0,1,15.742-2.486s13.671,0,17.813,3.314c.414,0,.414.414.828.414,1.243.829,5.385,3.728,7.042,11.6C272.466,42.091,267.08,66.532,266.252,69.846Z" transform="translate(556.607 -109.371)" fill="#333441"/><path d="M78.456.6,65.2,102.922H82.185S97.1,104.579,100,87.594s5.8-43.911,5.8-43.911l21.956,37.7s5.385,11.185,15.328,1.243l34.384-39.355-7.871,59.653h16.57s15.742.414,17.813-14.913L215.576.6H199.834s-11.185,0-15.742,4.971L140.181,51.14,109.111,6.4A17.992,17.992,0,0,0,95.855,1.014h-17.4Z" transform="translate(205.037 -108.064)" fill="#333441"/><path d="M154.442.6H205.4s26.1-.414,37.7,6.628a30.363,30.363,0,0,1,18.642,19.056,47.138,47.138,0,0,1,.828,16.985l-2.9,21.541s-1.243,13.671-9.114,21.541c0,0-5.385,7.042-17.4,12.014a69.373,69.373,0,0,1-24.441,4.557H161.07s-9.114.829-15.328-2.486c0,0-4.143-.829-4.143-9.942l8.7-60.482h16.985s13.671.829,13.671,12.014L175.569,84.7l20.713.414s29.412-.414,30.655-19.47l3.728-21.956s8.285-23.2-26.927-24.027H171.427C171.012,19.245,153.2,22.145,154.442.6Z" transform="translate(445.131 -108.067)" fill="#333441"/></g></svg>