<svg xmlns="http://www.w3.org/2000/svg" xmlns:xlink="http://www.w3.org/1999/xlink" width="273" height="106" viewBox="0 0 273 106"><defs><filter id="a" x="0" y="0" width="273" height="106" filterUnits="userSpaceOnUse"><feOffset dy="20" input="SourceAlpha"/><feGaussianBlur stdDeviation="12.5" result="b"/><feFlood flood-opacity="0.506"/><feComposite operator="in" in2="b"/><feComposite in="SourceGraphic"/></filter><linearGradient id="c" y1="0.5" x2="1" y2="0.5" gradientUnits="objectBoundingBox"><stop offset="0" stop-color="#cea637"/><stop offset="1" stop-color="#644b04"/></linearGradient><linearGradient id="d" y1="0.5" x2="1" y2="0.5" gradientUnits="objectBoundingBox"><stop offset="0" stop-color="#fdcd46"/><stop offset="1" stop-color="#ad8100"/></linearGradient><linearGradient id="e" y1="0.5" x2="1" y2="0.5" gradientUnits="objectBoundingBox"><stop offset="0" stop-color="#e4b940"/><stop offset="1" stop-color="#8e6f16"/></linearGradient></defs><g transform="translate(-201.5 8.5)"><g transform="matrix(1, 0, 0, 1, 201.5, -8.5)" filter="url(#a)"><rect width="198" height="31" rx="15.5" transform="translate(37.5 17.5)" fill="#fff"/></g><path d="M4,0H194a4,4,0,0,1,4,4V41a4,4,0,0,1-4,4L104.923,59A33.683,33.683,0,0,1,91.33,59C84.44,57.417,4,45,4,45a4,4,0,0,1-4-4V4A4,4,0,0,1,4,0Z" transform="translate(239 5)" fill="url(#c)"/><path d="M4,0H194a4,4,0,0,1,4,4V37a4,4,0,0,1-4,4L104.923,55A33.683,33.683,0,0,1,91.33,55C84.44,53.417,4,41,4,41a4,4,0,0,1-4-4V4A4,4,0,0,1,4,0Z" transform="translate(239 5)" fill="url(#d)"/><path d="M4,4H194a4,4,0,0,1,4,4V37a4,4,0,0,1-4,4L104.923,55A33.683,33.683,0,0,1,91.33,55C84.44,53.417,4,41,4,41a4,4,0,0,1-4-4V8A4,4,0,0,1,4,4Z" transform="translate(239 5)" fill="url(#e)"/></g></svg>