<svg xmlns="http://www.w3.org/2000/svg" width="227" height="35.825" viewBox="0 0 227 35.825"><g transform="translate(-911 -6409.161)"><g transform="translate(713.847 6480.629)"><g transform="translate(197.153 -71.468)"><path d="M217.487-49.733v4.55c0,6.44-3.439,9.539-10.216,9.539-5.325,0-10.118-2.179-10.118-10.071V-61.4c0-7.892,4.793-10.071,10.118-10.071,5.857,0,10.216,1.745,10.216,9.2v3.776h-8.037V-63.24c0-1.4-.434-2.708-2.179-2.708-1.647,0-2.082,1.307-2.082,2.708v19.364c0,1.4.434,2.712,2.082,2.712,1.745,0,2.179-1.307,2.179-2.712l.051-5.857Z" transform="translate(-197.153 71.468)" fill="#e4b940"/><path d="M221.388-48.642c0,5.133-4.359,7.36-9.246,7.36s-9.246-2.226-9.246-7.36V-61.855c0-4.989,3.291-7.794,9.246-7.794s9.246,2.805,9.246,7.794Zm-10.842.387c0,1.017.387,1.937,1.6,1.937s1.6-.919,1.6-1.937V-62.68c0-1.013-.387-1.933-1.6-1.933s-1.6.919-1.6,1.933Z" transform="translate(-180.422 76.766)" fill="#e4b940"/><path d="M215.823-65.873h.094c.724-2.422,2.567-3.776,5.568-3.776,3.435,0,5.18,2.371,5.18,6.343v21.684h-7.649V-60.838c0-1.213-.094-2.52-1.549-2.52s-1.643,1.307-1.643,2.52v19.215H208.17v-27.69h7.653Z" transform="translate(-165.064 76.766)" fill="#e4b940"/><path d="M213.271-60.817v-5.036h2.567v-4.985h7.649v4.985h3.338v5.036h-3.338v15.1c0,1.647.047,2.52,1.839,2.52h1.5v5.032h-6.241c-3.831,0-4.746-2.129-4.746-5.76v-16.9Z" transform="translate(-150.206 73.306)" fill="#e4b940"/><path d="M227.95-44.866h-.094a5.418,5.418,0,0,1-5.376,3.584c-3.337,0-5.372-2.035-5.372-5.666V-51.06c0-7.262,10.842-6.389,10.842-11.523,0-1.111-.336-2.031-1.6-2.031s-1.6.919-1.6,2.031v3.052h-7.649V-62.1c0-5.568,4.648-7.552,9.246-7.552s9.25,1.984,9.25,7.552v20.475H227.95Zm-3.193-3.874a1.362,1.362,0,0,0,1.4,1.456c1.6,0,1.788-1.064,1.788-3.533v-4.8c-1.5,1.068-3.193,1.7-3.193,3.874Z" transform="translate(-139.03 76.766)" fill="#e4b940"/><path d="M233.224-62.68c0-1.013-.383-1.933-1.6-1.933s-1.6.919-1.6,1.933v14.426c0,1.017.387,1.937,1.6,1.937s1.6-.919,1.6-1.937v-4.308h7.653V-48.5c0,5.231-3.878,7.215-9.3,7.215-5.716,0-9.2-2.375-9.2-7.7V-61.906c0-4.55,3.388-7.743,9.2-7.743,4.934,0,9.3,1.839,9.3,7.794v2.324h-7.653Z" transform="translate(-123.668 76.766)" fill="#e4b940"/><path d="M227.481-60.817v-5.036h2.567v-4.985H237.7v4.985h3.338v5.036H237.7v15.1c0,1.647.047,2.52,1.835,2.52h1.5v5.032h-6.245c-3.827,0-4.746-2.129-4.746-5.76v-16.9Z" transform="translate(-108.816 73.306)" fill="#e4b940"/><path d="M234-59.485v-5.036h1.7v-1.792a4.809,4.809,0,0,1,4.934-4.981h4.891v5.032c-1.886,0-2.179.63-2.179,1.741h2.179v5.036h-2.179v22.655H235.7V-59.485Z" transform="translate(-89.814 71.975)" fill="#e4b940"/><path d="M255.891-48.642c0,5.133-4.359,7.36-9.246,7.36s-9.25-2.226-9.25-7.36V-61.855c0-4.989,3.295-7.794,9.25-7.794s9.246,2.805,9.246,7.794Zm-10.842.387c0,1.017.383,1.937,1.6,1.937s1.6-.919,1.6-1.937V-62.68c0-1.013-.387-1.933-1.6-1.933s-1.6.919-1.6,1.933Z" transform="translate(-79.937 76.766)" fill="#e4b940"/><path d="M250.323-65.682h.141c1.017-2.418,2.711-3.967,5.521-3.967,3.87,0,5.18,2.563,5.18,5.419v9.876h-7.649V-61.08c0-1.115-.34-2.277-1.6-2.277s-1.6,1.162-1.6,2.277v19.458H242.67v-27.69h7.653Z" transform="translate(-64.575 76.766)" fill="#e4b940"/><path d="M255.329-65.631h.094a5.6,5.6,0,0,1,1.89-2.954,5.285,5.285,0,0,1,3.435-1.064,4.591,4.591,0,0,1,4.989,4.018h.1a4.781,4.781,0,0,1,1.788-2.954,5.846,5.846,0,0,1,3.486-1.064c3.823,0,5.032,2.469,5.032,5.857v22.169h-7.356V-60.838c0-1.213-.1-2.52-1.549-2.52s-1.5,1.307-1.5,2.52v19.215h-7.36V-60.838c0-1.213-.094-2.52-1.549-2.52s-1.5,1.307-1.5,2.52v19.215h-7.36v-27.69h7.36Z" transform="translate(-49.141 76.766)" fill="#e4b940"/></g><g transform="translate(197.153 -71.468)"><path d="M216.861-50.4v4.41c0,6.245-3.33,9.246-9.9,9.246-5.161,0-9.809-2.109-9.809-9.758v-15.2c0-7.649,4.648-9.762,9.809-9.762,5.677,0,9.9,1.69,9.9,8.917v3.658h-7.786v-4.6c0-1.362-.423-2.629-2.113-2.629-1.6,0-2.015,1.268-2.015,2.629v18.769c0,1.362.419,2.629,2.015,2.629,1.69,0,2.113-1.268,2.113-2.629l.047-5.677Z" transform="translate(-197.153 71.468)" fill="#fff"/><path d="M220.649-49.339c0,4.973-4.226,7.133-8.964,7.133s-8.964-2.16-8.964-7.133V-62.15c0-4.832,3.189-7.555,8.964-7.555s8.964,2.723,8.964,7.555Zm-10.513.376c0,.986.376,1.878,1.549,1.878s1.546-.892,1.546-1.878V-62.948c0-.982-.372-1.878-1.546-1.878s-1.549.9-1.549,1.878Z" transform="translate(-180.935 76.603)" fill="#fff"/><path d="M215.252-66.047h.09c.7-2.344,2.488-3.658,5.4-3.658,3.326,0,5.02,2.3,5.02,6.147v21.023h-7.415V-61.164c0-1.174-.094-2.442-1.5-2.442s-1.592,1.268-1.592,2.442v18.628h-7.419V-69.376h7.419Z" transform="translate(-166.045 76.603)" fill="#fff"/><path d="M212.777-61.145v-4.879h2.488v-4.832h7.419v4.832h3.236v4.879h-3.236V-46.5c0,1.6.043,2.442,1.78,2.442h1.456v4.879h-6.053c-3.709,0-4.6-2.066-4.6-5.583V-61.145Z" transform="translate(-151.645 73.251)" fill="#fff"/><path d="M227.01-45.677h-.094a5.254,5.254,0,0,1-5.212,3.471c-3.236,0-5.208-1.972-5.208-5.49v-3.991c0-7.035,10.513-6.194,10.513-11.167,0-1.076-.329-1.972-1.549-1.972s-1.545.9-1.545,1.972V-59.9H216.5v-2.488c0-5.4,4.5-7.321,8.964-7.321s8.964,1.925,8.964,7.321v19.849H227.01Zm-3.095-3.756a1.317,1.317,0,0,0,1.358,1.409c1.549,0,1.737-1.033,1.737-3.428V-56.1c-1.456,1.033-3.095,1.643-3.095,3.752Z" transform="translate(-140.81 76.603)" fill="#fff"/><path d="M232.123-62.948c0-.982-.376-1.878-1.549-1.878s-1.546.9-1.546,1.878v13.984c0,.986.376,1.878,1.546,1.878s1.549-.892,1.549-1.878v-4.175h7.415v3.94c0,5.071-3.756,6.992-9.007,6.992-5.54,0-8.921-2.3-8.921-7.462V-62.2c0-4.414,3.287-7.508,8.921-7.508,4.781,0,9.007,1.784,9.007,7.555V-59.9h-7.415Z" transform="translate(-125.92 76.603)" fill="#fff"/><path d="M226.553-61.145v-4.879h2.485v-4.832h7.419v4.832h3.236v4.879h-3.236V-46.5c0,1.6.047,2.442,1.78,2.442h1.456v4.879h-6.053c-3.709,0-4.6-2.066-4.6-5.583V-61.145Z" transform="translate(-111.519 73.251)" fill="#fff"/><path d="M232.877-59.851v-4.879h1.643v-1.737a4.668,4.668,0,0,1,4.785-4.832h4.738v4.879c-1.827,0-2.113.61-2.113,1.69h2.113v4.879h-2.113v21.962H234.52V-59.851Z" transform="translate(-93.099 71.957)" fill="#fff"/><path d="M254.092-49.339c0,4.973-4.226,7.133-8.964,7.133s-8.964-2.16-8.964-7.133V-62.15c0-4.832,3.189-7.555,8.964-7.555s8.964,2.723,8.964,7.555Zm-10.51.376c0,.986.372,1.878,1.546,1.878s1.549-.892,1.549-1.878V-62.948c0-.982-.376-1.878-1.549-1.878s-1.546.9-1.546,1.878Z" transform="translate(-83.525 76.603)" fill="#fff"/><path d="M248.695-65.859h.137c.986-2.344,2.629-3.846,5.353-3.846,3.752,0,5.02,2.488,5.02,5.255v9.574h-7.415V-61.4c0-1.08-.329-2.207-1.549-2.207s-1.546,1.127-1.546,2.207v18.863h-7.419V-69.376h7.419Z" transform="translate(-68.635 76.603)" fill="#fff"/><path d="M253.546-65.808h.094a5.414,5.414,0,0,1,1.831-2.864,5.123,5.123,0,0,1,3.33-1.033,4.445,4.445,0,0,1,4.832,3.9h.1a4.656,4.656,0,0,1,1.733-2.864,5.668,5.668,0,0,1,3.381-1.033c3.705,0,4.879,2.395,4.879,5.677v21.493h-7.133V-61.164c0-1.174-.094-2.442-1.5-2.442s-1.459,1.268-1.459,2.442v18.628H256.5V-61.164c0-1.174-.09-2.442-1.5-2.442s-1.452,1.268-1.452,2.442v18.628h-7.133V-69.376h7.133Z" transform="translate(-53.673 76.603)" fill="#fff"/></g></g></g></svg>