<svg xmlns="http://www.w3.org/2000/svg" xmlns:xlink="http://www.w3.org/1999/xlink" width="245.722" height="280.075" viewBox="0 0 245.722 280.075"><defs><linearGradient id="a" x1="0.5" x2="0.5" y2="1" gradientUnits="objectBoundingBox"><stop offset="0" stop-color="#e4b940"/><stop offset="1" stop-color="#8e6f16"/></linearGradient><filter id="b" x="2.848" y="2.848" width="240.026" height="240.026" filterUnits="userSpaceOnUse"><feOffset dy="10" input="SourceAlpha"/><feGaussianBlur stdDeviation="10" result="c"/><feFlood flood-opacity="0.4"/><feComposite operator="in" in2="c"/><feComposite in="SourceGraphic"/></filter><linearGradient id="d" x1="0.146" y1="0.146" x2="0.952" y2="0.974" gradientUnits="objectBoundingBox"><stop offset="0" stop-color="#565a6f"/><stop offset="1" stop-color="#3e4257"/></linearGradient><filter id="e" x="35.996" y="7.713" width="173.731" height="272.362" filterUnits="userSpaceOnUse"><feOffset dy="10" input="SourceAlpha"/><feGaussianBlur stdDeviation="15" result="f"/><feFlood flood-opacity="0.302"/><feComposite operator="in" in2="f"/><feComposite in="SourceGraphic"/></filter><filter id="h" x="59.676" y="87.886" width="126.372" height="168.51" filterUnits="userSpaceOnUse"><feOffset dy="10" input="SourceAlpha"/><feGaussianBlur stdDeviation="10" result="i"/><feFlood flood-opacity="0.4"/><feComposite operator="in" in2="i"/><feComposite in="SourceGraphic"/></filter><filter id="k" x="0" y="0" width="245.722" height="245.722" filterUnits="userSpaceOnUse"><feOffset dy="10" input="SourceAlpha"/><feGaussianBlur stdDeviation="15" result="l"/><feFlood flood-opacity="0.302"/><feComposite operator="in" in2="l"/><feComposite in="SourceGraphic"/></filter><filter id="n" x="61.082" y="158.547" width="123.938" height="106.401" filterUnits="userSpaceOnUse"><feOffset dy="10" input="SourceAlpha"/><feGaussianBlur stdDeviation="15" result="o"/><feFlood flood-opacity="0.302"/><feComposite operator="in" in2="o"/><feComposite in="SourceGraphic"/></filter><filter id="q" x="37.376" y="37.376" width="170.971" height="170.971" filterUnits="userSpaceOnUse"><feOffset dy="10" input="SourceAlpha"/><feGaussianBlur stdDeviation="10" result="r"/><feFlood flood-opacity="0.4"/><feComposite operator="in" in2="r"/><feComposite in="SourceGraphic"/></filter></defs><g transform="translate(5.956 -159.544)"><g transform="translate(26.892 182.392)"><g transform="translate(0 0)"><g transform="matrix(1, 0, 0, 1, -32.85, -22.85)" filter="url(#b)"><g transform="translate(32.85 112.86) rotate(-45)" stroke="#e4b940" stroke-width="2" fill="url(#a)"><rect width="127.298" height="127.298" rx="10" stroke="none"/><rect x="1" y="1" width="125.298" height="125.298" rx="9" fill="none"/></g></g></g></g><g transform="matrix(1, 0, 0, 1, -5.96, 159.54)" filter="url(#e)"><path d="M139.6,334.94V211.265a16.323,16.323,0,0,0-16.324-16.322H73.2a16.323,16.323,0,0,0-16.324,16.322V334.94a41.366,41.366,0,0,0,41.366,41.366h0A41.366,41.366,0,0,0,139.6,334.94Z" transform="translate(24.62 -151.73)" stroke="#e4b940" stroke-width="1" fill="url(#d)"/></g><g transform="matrix(1, 0, 0, 1, -5.96, 159.54)" filter="url(#h)"><g transform="translate(27.76 -126.91)" fill="url(#a)"><path d="M 95.09986114501953 342.3096008300781 C 77.35251617431641 342.3096008300781 62.91400527954102 327.87109375 62.91400527954102 310.1237487792969 L 62.91400527954102 235.7999877929688 L 127.2857513427734 235.7999877929688 L 127.2857513427734 310.1237487792969 C 127.2857513427734 327.87109375 112.8472213745117 342.3096008300781 95.09986114501953 342.3096008300781 Z" stroke="none"/><path d="M 63.91400146484375 236.7999877929688 L 63.91400146484375 310.1237487792969 C 63.91400146484375 327.3197021484375 77.90392303466797 341.3096008300781 95.09986114501953 341.3096008300781 C 112.2958145141602 341.3096008300781 126.2857513427734 327.3197021484375 126.2857513427734 310.1237487792969 L 126.2857513427734 236.7999877929688 L 63.91400146484375 236.7999877929688 M 61.91400146484375 234.7999877929688 L 128.2857513427734 234.7999877929688 L 128.2857513427734 310.1237487792969 C 128.2857513427734 328.4219970703125 113.3981857299805 343.3096008300781 95.09986114501953 343.3096008300781 C 76.80153656005859 343.3096008300781 61.91400146484375 328.4219970703125 61.91400146484375 310.1237487792969 L 61.91400146484375 234.7999877929688 Z" stroke="none" fill="#e4b940"/></g></g><g transform="matrix(1, 0, 0, 1, -5.96, 159.54)" filter="url(#k)"><rect width="109.112" height="109.112" rx="4.102" transform="translate(122.86 35.71) rotate(45)" stroke="#e4b940" stroke-width="1" fill="url(#d)"/></g><g transform="translate(101.333 353.591)"><g transform="matrix(1, 0, 0, 1, -107.29, -194.05)" filter="url(#n)"><path d="M94.142,287.9l-5.611,5.613L82.918,287.9H72.769l15.142,15.144a.875.875,0,0,0,1.238,0L104.293,287.9Z" transform="translate(34.52 -93.85)" stroke="#e4b940" stroke-width="1" fill="url(#d)"/></g></g><g transform="matrix(1, 0, 0, 1, -5.96, 159.54)" filter="url(#q)"><g transform="translate(67.38 112.86) rotate(-45)" stroke="#e4b940" stroke-width="2" fill="url(#a)"><rect width="78.468" height="78.468" rx="7.191" stroke="none"/><rect x="1" y="1" width="76.468" height="76.468" rx="6.191" fill="none"/></g></g><g transform="translate(86.176 221.166)"><path d="M297.87,335.6h.648a6.554,6.554,0,0,0-1.534-2.435l-.992,1.063a5.083,5.083,0,0,1,1.219,2.03Z" transform="translate(-261.864 -281.111)" fill="#fff"/><path d="M276.237,249.368a2.942,2.942,0,0,0-1.167.671l-7.054,6.584a5.041,5.041,0,0,1,1.38.524l6.17-6.611a2.957,2.957,0,0,0,.671-1.169Z" transform="translate(-236.426 -204.921)" fill="#fff"/><path d="M116.306,200H90.177A2.18,2.18,0,0,0,88,202.177v13.79h7.3a7.968,7.968,0,0,1,9.889-7.015l5.211-4.864A4.391,4.391,0,0,1,113.4,202.9h.726v.726a4.394,4.394,0,0,1-1.186,3.008l-4.09,4.382a8,8,0,0,1,2.068,3.5h7.563V202.177A2.18,2.18,0,0,0,116.306,200ZM90.9,211.613H89.452v-1.452H90.9Zm2.9,0H92.355v-1.452h1.452Zm2.9,0H95.258v-1.452H96.71Zm2.9-2.9H89.452v-1.452H99.613Zm0-2.9H89.452v-1.452H99.613Zm0-2.9H89.452v-1.452H99.613Zm17.419,10.161h-1.452v-1.452h1.452Zm0-2.9h-1.452V208.71h1.452Zm0-2.9h-1.452v-1.452h1.452Z" transform="translate(-72.742 -160.032)" fill="#fff"/><path d="M184.472,317.806h1.467a5.089,5.089,0,0,1,4-4.252l1.618-1.51c-.2-.019-.4-.045-.6-.045a6.54,6.54,0,0,0-6.489,5.806Z" transform="translate(-160.461 -261.871)" fill="#fff"/><path d="M107.9,377.452H88v.726a2.18,2.18,0,0,0,2.177,2.177h26.129a2.18,2.18,0,0,0,2.177-2.177V376h-9.135Zm7.683,0h1.452V378.9h-1.452Zm-2.9,0h1.452V378.9h-1.452Zm-2.9,0h1.452V378.9h-1.452Z" transform="translate(-72.742 -320.064)" fill="#fff"/><path d="M176.486,442.9h-2.177V440H165.6v2.9h-2.177a2.182,2.182,0,0,0-2.053,1.452h17.17A2.18,2.18,0,0,0,176.486,442.9Z" transform="translate(-139.454 -378.258)" fill="#fff"/><path d="M216.808,346.9h7.111a3.629,3.629,0,0,0-7.111,0Z" transform="translate(-189.864 -290.968)" fill="#fff"/><path d="M66.1,38.516a5.806,5.806,0,0,0-10.134-3.871l-1.081-.968a7.262,7.262,0,0,1,3.056-2.021,9.432,9.432,0,0,0-17.374-3.039,7.943,7.943,0,0,1,2.994,5.472l-1.444.143a6.533,6.533,0,0,0-13-.018,5.817,5.817,0,0,1,4,2.434l-1.191.831a4.355,4.355,0,1,0-3.575,6.843V42.145a3.633,3.633,0,0,1,3.629-3.629H58.113a3.633,3.633,0,0,1,3.629,3.629v1.989A5.792,5.792,0,0,0,66.1,38.516ZM39.242,34.887a3.633,3.633,0,0,0-3.629-3.629V29.806a5.086,5.086,0,0,1,5.081,5.081ZM48.677,26.9a6.483,6.483,0,0,0-5.227,2.614l-1.161-.872a7.925,7.925,0,0,1,6.388-3.194Zm11.613,8.71V34.161a4.359,4.359,0,0,1,4.355,4.355H63.194A2.906,2.906,0,0,0,60.29,35.613Z" transform="translate(-14.548 0)" fill="#fff"/><path d="M458.9,339.746V328h-1.452v11.746a2.177,2.177,0,1,0,1.452,0Z" transform="translate(-407.355 -276.419)" fill="#fff"/><path d="M472,296h1.452v1.452H472Z" transform="translate(-421.903 -247.323)" fill="#fff"/><path d="M472,264h1.452v1.452H472Z" transform="translate(-421.903 -218.226)" fill="#fff"/><path d="M10.9,339.746V328H9.452v11.746a2.177,2.177,0,1,0,1.452,0Z" transform="translate(0 -276.419)" fill="#fff"/><path d="M24,296h1.452v1.452H24Z" transform="translate(-14.548 -247.323)" fill="#fff"/><path d="M24,264h1.452v1.452H24Z" transform="translate(-14.548 -218.226)" fill="#fff"/></g></g></svg>