<svg xmlns="http://www.w3.org/2000/svg" xmlns:xlink="http://www.w3.org/1999/xlink" width="245.722" height="280.076" viewBox="0 0 245.722 280.076"><defs><linearGradient id="a" x1="0.5" x2="0.5" y2="1" gradientUnits="objectBoundingBox"><stop offset="0" stop-color="#e4b940"/><stop offset="1" stop-color="#8e6f16"/></linearGradient><filter id="b" x="2.848" y="2.848" width="240.026" height="240.026" filterUnits="userSpaceOnUse"><feOffset dy="10" input="SourceAlpha"/><feGaussianBlur stdDeviation="10" result="c"/><feFlood flood-opacity="0.4"/><feComposite operator="in" in2="c"/><feComposite in="SourceGraphic"/></filter><linearGradient id="d" x1="0.146" y1="0.146" x2="0.952" y2="0.974" gradientUnits="objectBoundingBox"><stop offset="0" stop-color="#565a6f"/><stop offset="1" stop-color="#3e4257"/></linearGradient><filter id="e" x="35.996" y="7.713" width="173.731" height="272.362" filterUnits="userSpaceOnUse"><feOffset dy="10" input="SourceAlpha"/><feGaussianBlur stdDeviation="15" result="f"/><feFlood flood-opacity="0.302"/><feComposite operator="in" in2="f"/><feComposite in="SourceGraphic"/></filter><filter id="h" x="59.676" y="87.886" width="126.372" height="168.51" filterUnits="userSpaceOnUse"><feOffset dy="10" input="SourceAlpha"/><feGaussianBlur stdDeviation="10" result="i"/><feFlood flood-opacity="0.4"/><feComposite operator="in" in2="i"/><feComposite in="SourceGraphic"/></filter><filter id="k" x="0" y="0" width="245.722" height="245.722" filterUnits="userSpaceOnUse"><feOffset dy="10" input="SourceAlpha"/><feGaussianBlur stdDeviation="15" result="l"/><feFlood flood-opacity="0.302"/><feComposite operator="in" in2="l"/><feComposite in="SourceGraphic"/></filter><filter id="n" x="61.082" y="158.547" width="123.938" height="106.401" filterUnits="userSpaceOnUse"><feOffset dy="10" input="SourceAlpha"/><feGaussianBlur stdDeviation="15" result="o"/><feFlood flood-opacity="0.302"/><feComposite operator="in" in2="o"/><feComposite in="SourceGraphic"/></filter><filter id="q" x="37.376" y="37.376" width="170.971" height="170.971" filterUnits="userSpaceOnUse"><feOffset dy="10" input="SourceAlpha"/><feGaussianBlur stdDeviation="10" result="r"/><feFlood flood-opacity="0.4"/><feComposite operator="in" in2="r"/><feComposite in="SourceGraphic"/></filter></defs><g transform="translate(5.956 -159.544)"><g transform="translate(26.892 182.392)"><g transform="translate(0 0)"><g transform="matrix(1, 0, 0, 1, -32.85, -22.85)" filter="url(#b)"><g transform="translate(32.85 112.86) rotate(-45)" stroke="#e4b940" stroke-width="2" fill="url(#a)"><rect width="127.298" height="127.298" rx="10" stroke="none"/><rect x="1" y="1" width="125.298" height="125.298" rx="9" fill="none"/></g></g></g></g><g transform="matrix(1, 0, 0, 1, -5.96, 159.54)" filter="url(#e)"><path d="M139.6,334.94V211.265a16.323,16.323,0,0,0-16.324-16.322H73.2a16.323,16.323,0,0,0-16.324,16.322V334.94a41.366,41.366,0,0,0,41.366,41.366h0A41.366,41.366,0,0,0,139.6,334.94Z" transform="translate(24.62 -151.73)" stroke="#e4b940" stroke-width="1" fill="url(#d)"/></g><g transform="matrix(1, 0, 0, 1, -5.96, 159.54)" filter="url(#h)"><g transform="translate(27.76 -126.91)" fill="url(#a)"><path d="M 95.09986114501953 342.3096008300781 C 77.35251617431641 342.3096008300781 62.91400527954102 327.87109375 62.91400527954102 310.1237487792969 L 62.91400527954102 235.7999877929688 L 127.2857513427734 235.7999877929688 L 127.2857513427734 310.1237487792969 C 127.2857513427734 327.87109375 112.8472213745117 342.3096008300781 95.09986114501953 342.3096008300781 Z" stroke="none"/><path d="M 63.91400146484375 236.7999877929688 L 63.91400146484375 310.1237487792969 C 63.91400146484375 327.3197021484375 77.90392303466797 341.3096008300781 95.09986114501953 341.3096008300781 C 112.2958145141602 341.3096008300781 126.2857513427734 327.3197021484375 126.2857513427734 310.1237487792969 L 126.2857513427734 236.7999877929688 L 63.91400146484375 236.7999877929688 M 61.91400146484375 234.7999877929688 L 128.2857513427734 234.7999877929688 L 128.2857513427734 310.1237487792969 C 128.2857513427734 328.4219970703125 113.3981857299805 343.3096008300781 95.09986114501953 343.3096008300781 C 76.80153656005859 343.3096008300781 61.91400146484375 328.4219970703125 61.91400146484375 310.1237487792969 L 61.91400146484375 234.7999877929688 Z" stroke="none" fill="#e4b940"/></g></g><g transform="matrix(1, 0, 0, 1, -5.96, 159.54)" filter="url(#k)"><rect width="109.112" height="109.112" rx="4.102" transform="translate(122.86 35.71) rotate(45)" stroke="#e4b940" stroke-width="1" fill="url(#d)"/></g><g transform="translate(101.333 353.591)"><g transform="matrix(1, 0, 0, 1, -107.29, -194.05)" filter="url(#n)"><path d="M94.142,287.9l-5.611,5.613L82.918,287.9H72.769l15.142,15.144a.875.875,0,0,0,1.238,0L104.293,287.9Z" transform="translate(34.52 -93.85)" stroke="#e4b940" stroke-width="1" fill="url(#d)"/></g></g><g transform="matrix(1, 0, 0, 1, -5.96, 159.54)" filter="url(#q)"><g transform="translate(67.38 112.86) rotate(-45)" stroke="#e4b940" stroke-width="2" fill="url(#a)"><rect width="78.468" height="78.468" rx="7.191" stroke="none"/><rect x="1" y="1" width="76.468" height="76.468" rx="6.191" fill="none"/></g></g><g transform="translate(94.905 250.659)"><path d="M39.973,9.767c-.465-.089-.96-.078-1.449-.127a2.368,2.368,0,0,1-1.575-.855,2.521,2.521,0,0,1-.359-.587l.357.044a24.719,24.719,0,0,0,2.687.2,6.243,6.243,0,0,1,.089-1.074,6,6,0,0,1,.215-.777,4.413,4.413,0,0,0,.294-1.138l.025-.057c.21.406.249.908.469,1.347a3.61,3.61,0,0,1,0,3.287A2.524,2.524,0,0,0,39.973,9.767ZM38.961,7.949c.871-2.034-.2-3.652-.911-5.5l-.017.074A8.386,8.386,0,0,0,37.71,6.2l-.8-.231-.745-.224-1.106-.322a2.764,2.764,0,0,0,.956,1.748.8.8,0,0,0,.168.11,2.934,2.934,0,0,0,.745.32C37.574,7.778,38.3,7.827,38.961,7.949Zm-2.05-2.4c.121.038.232.085.353.134a4.268,4.268,0,0,0-.367-1.62,5.7,5.7,0,0,0-.717-1.248.123.123,0,0,1-.04-.038,5.092,5.092,0,0,0-1.846-1.193,2.475,2.475,0,0,0-.359-.061c.133.3.253.636.37.979a8.7,8.7,0,0,0,.712,1.664,2.557,2.557,0,0,0,1.147,1.05A6.979,6.979,0,0,0,36.911,5.547Zm5.718,7.606a3.585,3.585,0,0,0,.508-2.269,10.611,10.611,0,0,0-.554-1.777c-.134-.326-.256-.635-.373-.955l-.045.057c-.121.882-.74,1.749-.583,2.691-.391-.05-.979-.251-1.6-.4a5,5,0,0,0-1.155-.18A2.767,2.767,0,0,0,40,12.013a.608.608,0,0,0,.1.065c.741.5,1.74.594,2.3,1.325A1.936,1.936,0,0,0,42.629,13.153Zm1.245,10A4.579,4.579,0,0,0,45,20.139l-2.147,2.328c-.041-.056-.082-.11-.125-.175a13.849,13.849,0,0,1-1.847-2.576h-.037c-.469,1.9.626,3.473,1.479,4.867a3.643,3.643,0,0,0,.426-.332C43.145,23.9,43.419,23.516,43.874,23.158ZM44.9,16.98c-.085-.142-.03-.215-.088-.317-.495.81-1.354,1.286-1.814,2.2a4.467,4.467,0,0,0-.314-.621,20.614,20.614,0,0,0-1.619-2.03.165.165,0,0,0-.049-.126l-.015.04a7.7,7.7,0,0,0,1.713,5.122c.057.085.121.183.19.268A5.53,5.53,0,0,0,44.9,16.98Zm-.6-2.311c-.114-.735-.194-1.372-.342-2.034l-1.155,2.053c-.057-.073-.114-.142-.168-.206a6.654,6.654,0,0,0-2.631-1.506.1.1,0,0,1-.049-.016c.021.064.033.129.052.192a6.355,6.355,0,0,0,1.933,2.81,5.674,5.674,0,0,1,.723.831,3.138,3.138,0,0,1,.354.724A3.123,3.123,0,0,0,44.305,14.669ZM10.641,2.1c.052-.057.1-.113.143-.162L10.7,1.9c-.017.008-.032.009-.057.019A4.84,4.84,0,0,0,8.647,2.995a4.222,4.222,0,0,0-.875,1.124,5.468,5.468,0,0,0-.3,2.073,2.132,2.132,0,0,0,1.2-.684c.141-.138.277-.276.426-.406a12.7,12.7,0,0,0,.6-1.132A6.551,6.551,0,0,1,10.641,2.1ZM2.279,15.74.922,13.572l-.086-.015-.04.016a5.788,5.788,0,0,0,1.2,4.978,5.514,5.514,0,0,1,.431-.621c.861-1.05,2.1-1.864,2.4-3.212a2.458,2.458,0,0,0,.066-.487.216.216,0,0,0-.072.008,6.138,6.138,0,0,0-1.273.581,11.885,11.885,0,0,0-1.151.821C2.359,15.677,2.317,15.707,2.279,15.74Zm-.1,3.743L0,17.853A6.6,6.6,0,0,0,2.279,22.29c.056-.186.119-.353.188-.522.375-.869.96-1.506,1.342-2.389a3.49,3.49,0,0,0,.354-2.155l-.113.025c-.289.635-1.132,1.148-1.612,1.786A1.773,1.773,0,0,0,2.179,19.484Zm2.79-9.843a5.511,5.511,0,0,0-.22-1.9,2.286,2.286,0,0,0-.622-1,6.234,6.234,0,0,0-.249,4.833,7.324,7.324,0,0,1,.91-.394A11.854,11.854,0,0,0,6.738,10.4,3.1,3.1,0,0,0,7.947,9.24a10.134,10.134,0,0,0-1.223,0A4.768,4.768,0,0,0,4.969,9.641Zm2.1-2.757a6.944,6.944,0,0,0-.4-2.677,3.226,3.226,0,0,0-.415-.745h-.04a8.671,8.671,0,0,0-.606,5.1,1.981,1.981,0,0,0-.049.377,3.952,3.952,0,0,1,1.16-.381c.194-.042.394-.076.59-.119A3.451,3.451,0,0,0,8.7,7.768a5.074,5.074,0,0,0,1.069-1.2c.013-.154.07-.154.117-.257l-1.2.245ZM4.792,11.842,3.4,12.3A8.311,8.311,0,0,0,2.326,9.485V9.479L2.3,9.534a5.8,5.8,0,0,0,.088,5.291.4.4,0,0,0,.058.082c.454-.253.955-.643,1.447-.912a11.89,11.89,0,0,0,.916-.85c.085-.073.175-.146.261-.219a5.822,5.822,0,0,0,.967-1.482ZM2,28.9a3.351,3.351,0,0,0,.552.823,6.741,6.741,0,0,0,2.458,1.481c.088.041.176.073.263.111a2.5,2.5,0,0,1,1.346.513c-.753-1.616,1.028-3.657-.211-5.111a1.015,1.015,0,0,0-.235-.259l-.019.054-1.05,3.111A.547.547,0,0,0,5,29.561a5.974,5.974,0,0,0-2.449-.614c-.094-.005-.183-.013-.278-.013A.352.352,0,0,0,2,28.9ZM9.68,38a2.25,2.25,0,0,0,1.375.964c.138.028.274.06.412.09a7.684,7.684,0,0,0,2.761-.484,5.619,5.619,0,0,1,1.2-.215c-.43-.829-.78-1.742-1.236-2.554a4.411,4.411,0,0,0-2.1-2.065l-.025.016c.871.9.332,2.494,1.094,3.434a.286.286,0,0,1,.038.119,10.279,10.279,0,0,0-2.163.513c-.068.027-.147.049-.22.081A6.629,6.629,0,0,1,9.68,38ZM43.162,26.66a6.255,6.255,0,0,0,1.172-3.051,5.431,5.431,0,0,1-1.575,1.347c-.269.168-.537.35-.808.541-.318-.611-.7-1.134-1.059-1.707-.194-.3-.231-.644-.4-.964l-.045.028a6.512,6.512,0,0,0,.485,4.8,4.476,4.476,0,0,0,1.848-.679A3.463,3.463,0,0,0,43.162,26.66ZM5.023,32.271c-.207-.024-.416-.044-.609-.068a3.191,3.191,0,0,0,.619.837A4.984,4.984,0,0,0,7,34.14c.408.135.85.241,1.3.342A6.114,6.114,0,0,1,9,34.539c.217.027.424.057.64.1a8.2,8.2,0,0,1-.666-2.266,4.349,4.349,0,0,0-1.415-2.826l-.016.041c.065,1.049-.416,2.071-.054,3.123-.16-.057-.326-.1-.5-.15A16.947,16.947,0,0,0,5.023,32.271ZM.175,21.258a3.444,3.444,0,0,0,.949,2.6c.484.394.936.847,1.379,1.256.236.22.471.427.712.614.1-1.815,2.05-3.2,1.044-5.247H4.2L2.513,23.133a.125.125,0,0,0-.033-.038A6.661,6.661,0,0,0,.513,21.518,1.852,1.852,0,0,0,.175,21.258Zm2.338,4.556c-.415-.2-.869-.365-1.325-.56A3.784,3.784,0,0,0,2.339,27.6c.069.049.131.088.194.135A13.241,13.241,0,0,1,4.709,29c.1-.217.19-.432.273-.66a5.752,5.752,0,0,0,.149-4.375,1.175,1.175,0,0,1-.2-.277.036.036,0,0,0-.019-.028l-.07-.042-.029.041a8.857,8.857,0,0,1-1.058,3.035A3.77,3.77,0,0,0,2.513,25.814ZM6.964,35.48a.356.356,0,0,0,.057.215,2.813,2.813,0,0,0,.792.655,3.284,3.284,0,0,0,1.212.386,9.336,9.336,0,0,0,2.008-.07,8.993,8.993,0,0,1,1.375-.057c-.581-1.1-.72-2.626-1.419-3.685a2.567,2.567,0,0,0-.935-.886c-.233-.036-.321-.174-.529-.168.61.873.171,2.277.827,3.225a.363.363,0,0,1,0,.192,3.318,3.318,0,0,0-1.345-.041,8.808,8.808,0,0,1-1.988.247A.12.12,0,0,0,6.964,35.48Zm33.243-5a6.908,6.908,0,0,0,2.6-1.559,3.326,3.326,0,0,0,.526-.782,1,1,0,0,0,.213-.28c-.224.027-.479.052-.751.093a7.325,7.325,0,0,0-2.233.642l-.389-1.2-.56-1.728h-.037c-1.1,1.435-.537,3.323-.121,4.983a.379.379,0,0,1,.028.122C39.716,30.675,39.969,30.575,40.208,30.478ZM14.239,39.525a4.43,4.43,0,0,1-1.2.508,3.129,3.129,0,0,0,1.215.508,4.324,4.324,0,0,0,1.87-.028c.91-.244,1.355-1.038,2.293-1.033a19.893,19.893,0,0,1,3.135.862c-.769.521-2.136.487-2.835,1.158l.468.875c.016.046.131.07.249.117,1.31-.487,2.633-1.663,4.083-1.748,1.077.57,2.329,1,3.407,1.546.406-.2.485-.694.619-1.079,0-.073,0-.16,0-.16l-2.871-.862a6.166,6.166,0,0,1,2.956-.823,5.4,5.4,0,0,0,4.141.691,3.612,3.612,0,0,0,1.014-.5.77.77,0,0,1,.406-.269,3.967,3.967,0,0,1-1.424-.13c-.8-.2-1.575-.549-2.4-.741a7.839,7.839,0,0,0,1.318-3.076.314.314,0,0,0,.125-.267.069.069,0,0,1-.057-.016c-1.823.606-2.275,2.489-3.717,3.682a9.644,9.644,0,0,1-8.768-.256c-.894-1.239-1.781-2.649-3.3-3.121a13.422,13.422,0,0,1,.526,2.155,3.906,3.906,0,0,0,.822,1.109.2.2,0,0,1-.03.142A4.152,4.152,0,0,0,14.239,39.525Zm25.246-6.333a3.731,3.731,0,0,0,.744-.758A4.786,4.786,0,0,1,41.3,31.279l-1.077.2-1.586.3-.389-3.266-.084,0a3.116,3.116,0,0,0-.967,1.559c-.324,1.036-.391,2.287-.705,3.339-.024.062-.036.127-.061.194h.064c.225.021.479.041.744.054A3.606,3.606,0,0,0,39.485,33.192Zm-4.8,3a6.488,6.488,0,0,0,1.829-.259c.253-.076.5-.158.743-.256a5.606,5.606,0,0,0,1.677-1.067,8.4,8.4,0,0,1-1.689-.277,5.14,5.14,0,0,0-.747-.127,3.068,3.068,0,0,0-.748,0,7.974,7.974,0,0,1,.407-2.942,3.416,3.416,0,0,0-1.5,1.451,26.07,26.07,0,0,0-1.276,3.31A4.728,4.728,0,0,0,34.681,36.192Zm-2.934,2.193a3.5,3.5,0,0,0,2.956-.138,1.837,1.837,0,0,0,.184-.13,8.828,8.828,0,0,0,1.12-.837,2.843,2.843,0,0,1-1.313.078,13.316,13.316,0,0,1-2.013-.538c.313-1.073.111-2.23.695-3.237l-.04,0a3.22,3.22,0,0,0-1.63,1.4c-.565.894-.9,2.016-1.388,2.973C30.781,38.085,31.262,38.246,31.746,38.385ZM24.13,18.843A1.549,1.549,0,0,0,24.9,18.3a1.392,1.392,0,0,0,.256-.838,1.409,1.409,0,0,0-.247-.841,1.315,1.315,0,0,0-.711-.5,6.228,6.228,0,0,0-1.664-.149H21.173V19.02H22.54A5.106,5.106,0,0,0,24.13,18.843Zm.912,4.847a1.73,1.73,0,0,0,.365-1.115,1.646,1.646,0,0,0-.257-.94,1.605,1.605,0,0,0-.778-.581,4.74,4.74,0,0,0-1.579-.2H21.175v2.706a3.537,3.537,0,0,0,.044.671.3.3,0,0,0,.146.176,1.945,1.945,0,0,0,.557.049h.912a4.944,4.944,0,0,0,1.315-.147A1.731,1.731,0,0,0,25.042,23.69Zm12.565-3.676A15.108,15.108,0,1,1,22.5,4.908,15.114,15.114,0,0,1,37.607,20.014ZM33.14,14.085a12.224,12.224,0,0,1,1.231,2.927.54.54,0,0,0,.524.4.48.48,0,0,0,.141-.02.538.538,0,0,0,.377-.664,13.156,13.156,0,0,0-1.337-3.188.54.54,0,0,0-.741-.194A.547.547,0,0,0,33.14,14.085ZM28.675,9.651A12.118,12.118,0,0,1,31.2,11.577a.551.551,0,0,0,.383.155.54.54,0,0,0,.379-.924,13.28,13.28,0,0,0-2.749-2.1.542.542,0,0,0-.739.2A.55.55,0,0,0,28.675,9.651ZM22.068,7.5a.558.558,0,0,0,.564.541,12.258,12.258,0,0,1,3.111.4.556.556,0,0,0,.138.019A.542.542,0,0,0,26.021,7.4a13.258,13.258,0,0,0-3.388-.438h-.038A.529.529,0,0,0,22.068,7.5Zm-6.291,1.99a.541.541,0,0,0,.741.195,12.116,12.116,0,0,1,2.927-1.223.541.541,0,0,0-.28-1.045,13.171,13.171,0,0,0-3.19,1.333A.54.54,0,0,0,15.777,9.492Zm-4.438,4.857a.532.532,0,0,0,.269.072.54.54,0,0,0,.469-.272A12.135,12.135,0,0,1,14,11.627a.541.541,0,0,0-.766-.762,13.321,13.321,0,0,0-2.1,2.745A.544.544,0,0,0,11.339,14.349ZM9.924,20.761a.55.55,0,0,0,.54-.553,12.163,12.163,0,0,1,.406-3.123.541.541,0,0,0-1.046-.277,13.2,13.2,0,0,0-.44,3.4v.027A.525.525,0,0,0,9.924,20.761ZM12.1,26.309a12.122,12.122,0,0,1-1.221-2.929.541.541,0,1,0-1.045.282,13.221,13.221,0,0,0,1.33,3.19.541.541,0,0,0,.936-.544Zm4.459,4.446a12.282,12.282,0,0,1-2.519-1.932.541.541,0,1,0-.762.766,13.4,13.4,0,0,0,2.744,2.1.559.559,0,0,0,.269.07.539.539,0,0,0,.269-1.008Zm6.617,2.16a.545.545,0,0,0-.545-.541,12.3,12.3,0,0,1-3.14-.407.54.54,0,1,0-.274,1.044,13.255,13.255,0,0,0,3.415.443h.013A.532.532,0,0,0,23.176,32.915Zm.13-6.467V28.5h2.115v-2.23a5.321,5.321,0,0,0,.934-.261,3.679,3.679,0,0,0,1.691-1.277,3.064,3.064,0,0,0,.6-1.829A2.949,2.949,0,0,0,28.25,21.4a2.792,2.792,0,0,0-1.063-1.052,5.421,5.421,0,0,0-1.343-.492,4,4,0,0,0,1.313-.7,2.954,2.954,0,0,0,.762-.979,2.717,2.717,0,0,0-.235-2.737,3.141,3.141,0,0,0-1.433-1.089,4.423,4.423,0,0,0-.837-.235v-2.2H23.3v2.055H21.94V11.912H19.827v2.055H16.6v1.726H17.1a1.664,1.664,0,0,1,.667.09.519.519,0,0,1,.247.241,2.062,2.062,0,0,1,.072.705v6.962a2.1,2.1,0,0,1-.072.7.5.5,0,0,1-.247.241,1.69,1.69,0,0,1-.667.085H16.6v1.725h3.228V28.5h2.114V26.448h1.2C23.205,26.451,23.252,26.448,23.306,26.448Zm6.151,4.489a.539.539,0,0,0-.741-.194,12.05,12.05,0,0,1-2.932,1.217.54.54,0,0,0-.383.663.548.548,0,0,0,.525.4.5.5,0,0,0,.138-.019,13.308,13.308,0,0,0,3.193-1.326A.548.548,0,0,0,29.458,30.937Zm4.449-4.845a.547.547,0,0,0-.74.194A12.172,12.172,0,0,1,31.232,28.8a.541.541,0,0,0,.765.766A13.459,13.459,0,0,0,34.1,26.826.535.535,0,0,0,33.906,26.091Zm1.968-5.914-.54-.021h.54a.521.521,0,0,0-.537-.517.562.562,0,0,0-.541.569,12.075,12.075,0,0,1-.414,3.148.539.539,0,0,0,.383.663.5.5,0,0,0,.138.021.544.544,0,0,0,.525-.4A13.234,13.234,0,0,0,35.874,20.177Z" transform="translate(0 0)" fill="#fff"/></g></g></svg>