<svg xmlns="http://www.w3.org/2000/svg" xmlns:xlink="http://www.w3.org/1999/xlink" width="159.276" height="37.59" viewBox="0 0 159.276 37.59"><defs><linearGradient id="a" x1="0.488" y1="0.157" x2="0.516" y2="0.952" gradientUnits="objectBoundingBox"><stop offset="0" stop-color="#e4b940"/><stop offset="0.31" stop-color="#e1b73f"/><stop offset="0.5" stop-color="#d9af3a"/><stop offset="0.67" stop-color="#caa233"/><stop offset="0.81" stop-color="#b59029"/><stop offset="0.95" stop-color="#9a791c"/><stop offset="1" stop-color="#8e6f16"/></linearGradient><linearGradient id="b" x1="0.094" y1="0.346" x2="0.901" y2="0.652" xlink:href="#a"/><linearGradient id="c" x1="-0.197" y1="0.254" x2="1.197" y2="0.746" xlink:href="#a"/></defs><g transform="translate(0 0.985)"><g transform="translate(0 0.015)"><g transform="translate(0 -1)"><path d="M6.175,63.968l.019-.011L0,60.38V72.357a1.33,1.33,0,0,0,2,1.151L5.509,71.48a1.328,1.328,0,0,0,.665-1.153Z" transform="translate(0 -54.24)" fill="#8e6f16"/><path d="M0,6.181,6.194,9.758l5.493-3.17a1.334,1.334,0,0,0,.665-1.153V1.376a1.332,1.332,0,0,0-2-1.154Z" transform="translate(0 -0.04)" fill="#e4b940"/><path d="M78.245,269.7l-5.509-3.181a1.328,1.328,0,0,0-1.331,0l-3.513,2.024a1.331,1.331,0,0,0,0,2.305l10.376,5.99v-7.152Z" transform="translate(-60.387 -239.253)" fill="#e4b940"/><path d="M186.115,270.822a1.331,1.331,0,0,0,0-2.3l-3.518-2.034a1.328,1.328,0,0,0-1.331,0l-5.487,3.168v7.156Z" transform="translate(-157.899 -239.217)" fill="#8e6f16"/><path d="M242.1,6.155,231.7.191a1.331,1.331,0,0,0-1.993,1.155V5.41a1.332,1.332,0,0,0,.665,1.153l5.509,3.181h0Z" transform="translate(-206.343 -0.015)" fill="#8e6f16"/><path d="M290.41,63.987v6.359a1.329,1.329,0,0,0,.67,1.153l3.52,2.034a1.331,1.331,0,0,0,2-1.148l.036-11.984Z" transform="translate(-260.869 -54.257)" fill="#e4b940"/><path d="M111.915,78.066l6.612-3.815a.664.664,0,0,0,0-1.151l-6.612-3.808a.662.662,0,0,0-.664,0l-6.6,3.808a.665.665,0,0,0,0,1.153l6.6,3.814A.664.664,0,0,0,111.915,78.066Z" transform="translate(-93.706 -62.164)" fill="url(#a)"/><path d="M179.05,128.947v7.629a.665.665,0,0,0,1,.576l6.6-3.811a.667.667,0,0,0,.329-.584v-7.629a.665.665,0,0,0-1-.576l-6.6,3.814A.666.666,0,0,0,179.05,128.947Z" transform="translate(-160.836 -111.805)" fill="url(#b)"/><path d="M94.5,125.152v7.629a.667.667,0,0,0,.333.577l2.086,1.2,4.516,2.606a.665.665,0,0,0,1-.577v-7.629a.666.666,0,0,0-.333-.576l-6.6-3.814a.665.665,0,0,0-1,.579Z" transform="translate(-84.887 -111.822)" fill="url(#c)"/></g><g transform="translate(47.49 11.321)"><path d="M472.036,114.27h4.858l5.125,11.92h-4.26l-.712-1.933h-5.211l-.718,1.933H466.86Zm2.421,3h-.034l-1.649,4.507h3.34Z" transform="translate(-466.86 -113.969)" fill="#e4b940"/><path d="M621.13,140.433h3.489v1.787h.034a4.239,4.239,0,0,1,3.689-2.02,7.076,7.076,0,0,1,1.2.1v3.306a6.574,6.574,0,0,0-1.953-.305c-2.02,0-2.922,1.036-2.922,2.671v3.506H621.13Z" transform="translate(-605.437 -137.261)" fill="#e4b940"/><path d="M717.3,114.27h9.867c2.888,0,3.389,1.786,3.389,2.938a2.518,2.518,0,0,1-1.47,2.4v.034a2.738,2.738,0,0,1,2.07,2.989c0,1.419-.667,3.56-4.323,3.56H717.3Zm3.973,4.591h3.957c.851,0,1.221-.468,1.221-1.017,0-.534-.367-1-1.221-1h-3.957Zm4.272,4.758a1.233,1.233,0,0,0,1.4-1.235c0-.784-.568-1.185-1.4-1.185h-4.272v2.42Z" transform="translate(-691.825 -113.969)" fill="#fff"/><path d="M870.26,111.31H873.8v2.136H870.26Zm0,3.172H873.8v9.053H870.26Z" transform="translate(-829.225 -111.31)" fill="#fff"/><path d="M924.08,140.433h3.439v1.3h.034a4.77,4.77,0,0,1,3.806-1.536c2.221,0,3.84,1.068,3.84,3.322v5.96H931.66V144.59c0-1.152-.651-1.719-1.837-1.719a2.008,2.008,0,0,0-2.2,2.17v4.441h-3.54Z" transform="translate(-877.57 -137.261)" fill="#fff"/><path d="M1047.627,143.272c.334-2.689,2.888-3.072,5.66-3.072,3.289,0,5.76.534,5.76,3.072v4.578a2.866,2.866,0,0,0,.367,1.636h-3.539a2.611,2.611,0,0,1-.184-.835c-1.017.968-2.471,1.2-4.257,1.2-2.888,0-4.424-.935-4.424-2.822,0-2.053,1.369-2.788,3.906-2.95l3.519-.239c.916-.067,1.069-.268,1.069-.735,0-.634-.685-.967-2.238-.967-1.3,0-1.933.367-2.1,1.135Zm7.98,1.987a8.635,8.635,0,0,1-1.352.25l-2.387.284c-.718.083-1.017.367-1.017.915,0,.7.634,1.1,1.586,1.1,2.034,0,3.172-.768,3.172-2Z" transform="translate(-987.995 -137.261)" fill="#fff"/><path d="M1185.36,140.433h3.439v1.3h.033a4.762,4.762,0,0,1,3.807-1.536c2.22,0,3.839,1.068,3.839,3.322v5.96h-3.539V144.59c0-1.152-.651-1.719-1.831-1.719a2.008,2.008,0,0,0-2.2,2.17v4.441h-3.539Z" transform="translate(-1112.272 -137.261)" fill="#fff"/><path d="M1321.685,144.607c-.535,2.588-2.288,4.057-6.261,4.057-4.007,0-6.344-1.552-6.344-4.892,0-3.272,2.454-4.892,6.344-4.892,3.372,0,5.777,1.017,6.094,3.89h-3.638c-.168-.985-.9-1.552-2.4-1.552a2.556,2.556,0,1,0,.017,5.109,2.19,2.19,0,0,0,2.454-1.719Z" transform="translate(-1223.407 -136.076)" fill="#fff"/><path d="M1455.045,145.552c-.434,1.5-2.155,3.052-6.011,3.052-4.069,0-6.344-1.552-6.344-4.908,0-3.205,2.488-4.876,6.245-4.876,3.873,0,6.277,1.687,6.277,5.459v.268h-8.883c.184,1.169,1.017,2.02,2.838,2.02a2.472,2.472,0,0,0,2.136-1.017Zm-3.474-2.836a2.781,2.781,0,0,0-5.243,0Z" transform="translate(-1343.426 -136.022)" fill="#fff"/></g></g></g></svg>