<svg xmlns="http://www.w3.org/2000/svg" xmlns:xlink="http://www.w3.org/1999/xlink" width="766.649" height="1037.079" viewBox="0 0 766.649 1037.079"><defs><linearGradient id="a" x1="0.528" y1="0.674" x2="0.181" y2="0.269" gradientUnits="objectBoundingBox"><stop offset="0" stop-color="#f7991e"/><stop offset="0.5" stop-color="#f38112"/><stop offset="0.756" stop-color="#f06606"/><stop offset="1" stop-color="#f06606"/></linearGradient><linearGradient id="b" x1="0.202" y1="0.723" x2="0.467" y2="0.287" xlink:href="#a"/><linearGradient id="c" x1="0.042" y1="0.633" x2="0.715" y2="0.405" gradientUnits="objectBoundingBox"><stop offset="0" stop-color="#f25b5b"/><stop offset="0.5" stop-color="#b11414"/><stop offset="1" stop-color="#700"/></linearGradient><linearGradient id="d" x1="0.838" y1="0.853" x2="0.307" y2="0.238" xlink:href="#c"/><linearGradient id="e" x1="-0.197" y1="0.254" x2="1.197" y2="0.746" gradientUnits="objectBoundingBox"><stop offset="0" stop-color="#fff"/><stop offset="1" stop-color="#9f9f9f"/></linearGradient><linearGradient id="h" x1="0.549" y1="-0.082" x2="0.431" y2="0.863" gradientUnits="objectBoundingBox"><stop offset="0" stop-color="#f6d822"/><stop offset="0.414" stop-color="#f6c020"/><stop offset="0.999" stop-color="#f7991e"/></linearGradient><linearGradient id="i" x1="0.674" y1="0.136" x2="0.623" y2="0.429" gradientUnits="objectBoundingBox"><stop offset="0" stop-color="#f25b5b"/><stop offset="0.5" stop-color="#d60a0a"/><stop offset="1" stop-color="#be0606"/></linearGradient><linearGradient id="j" x1="0.042" y1="0.633" x2="0.971" y2="0.363" xlink:href="#i"/></defs><g transform="translate(-47.396 151.806)"><g transform="translate(53.476 67.965)" opacity="0.1"><path d="M410.313,102.805l21.411-28.656,4.8,20.825Z" transform="translate(239.707 -8.064)"/><path d="M115.646,121.157l-35.39-5.213,16.037-14.127Z" transform="translate(-26.93 14.289)"/><path d="M468.728,284.718l-28.322-19.992,6.664,33.7Z" transform="translate(264.018 145.894)"/><path d="M405.11,74.986l.7-31.433,15.029,11.44Z" transform="translate(235.504 -32.78)"/><path d="M82.445,87.219,56.113,104.4l.949-18.864Z" transform="translate(-46.434 1.134)"/><path d="M126.183,84.243,82.2,37.595,87.435,68.36Z" transform="translate(-25.36 -37.595)"/><path d="M91.9,354.3l-29.61,21.992,24.6,7.83Z" transform="translate(-41.441 218.257)"/><path d="M74.115,221.418l-19.992-10.88v29.847Z" transform="translate(-48.042 102.119)"/><path d="M413.957,354.3l14.824,29.822,9.9-22.6Z" transform="translate(242.651 218.257)"/><path d="M492.552,94.116,440.405,122.66h34.154Z" transform="translate(264.018 8.067)"/><path d="M87.959,300.113l-37.2,20.363H75.123Z" transform="translate(-50.759 174.482)"/><path d="M480.4,200.852,460.4,202.376,476.4,218.364Z" transform="translate(280.173 94.293)"/></g><g transform="translate(94.383 465.07)"><path d="M55.53,348.829l194.323,60.85V318.051Z" transform="translate(-42.045 -318.051)" fill="url(#a)"/><path d="M254.893,387.6,47.084,452.351l103.9-97.292Z" transform="translate(-47.084 -319.968)" fill="url(#b)"/><path d="M478.085,320.158l-115.654,59.59-4.409-40.574Z" transform="translate(138.454 -316.794)" fill="url(#c)"/><path d="M360.784,365.4l82.3,16.687L401.936,344.2Z" transform="translate(140.101 -302.448)" fill="url(#d)"/></g><path d="M576.52,839.468S357.143,737.978,355.1,736.8s-5.1-.659-6.477,0-221.31,102.668-221.31,102.668V-110H576.52Z" transform="translate(46.728 2)" opacity="0.301"/><path d="M566.52,799.468S357.143,697.978,355.1,696.8s-5.1-.659-6.477,0-211.31,102.668-211.31,102.668V-110H566.52Z" transform="translate(46.727 2)" fill="#e4b940"/><g transform="translate(204.49)"><path d="M160.363,879.258V0h-12.3V883.873Z" transform="translate(-148.06 -88.854)" fill="#2e2f3b"/><path d="M357.954,883.873V0h-12.3V879.258Z" transform="translate(30.353 -88.854)" fill="#2e2f3b"/></g><g transform="translate(47.396 58.011)"><path d="M406.949,97.3l21.412-28.656,4.8,20.825Z" transform="translate(243.071 -2.558)" fill="#f25b5b"/><path d="M112.282,115.651l-35.39-5.213L92.93,96.312Z" transform="translate(-23.567 19.795)" fill="#f25b5b"/><path d="M465.364,279.212l-28.322-19.992,6.664,33.7Z" transform="translate(267.381 151.4)" fill="#f25b5b"/><path d="M401.747,69.481l.7-31.433,15.029,11.44Z" transform="translate(238.868 -27.274)" fill="#41bf50"/><path d="M79.081,81.713,52.75,98.893,53.7,80.029Z" transform="translate(-43.07 6.64)" fill="#b464ab"/><path d="M122.819,78.737,78.836,32.089l5.236,30.766Z" transform="translate(-21.997 -32.089)" fill="#c77581"/><path d="M88.541,348.794,58.93,370.786l24.6,7.83Z" transform="translate(-38.077 223.763)" fill="#f25b5b"/><path d="M70.751,215.912l-19.992-10.88V234.88Z" transform="translate(-44.678 107.625)" fill="#e4b940"/><path d="M410.593,348.794l14.824,29.822,9.9-22.6Z" transform="translate(246.015 223.763)" fill="#41bf50"/><path d="M489.188,88.61l-52.146,28.544H471.2Z" transform="translate(267.381 13.573)" fill="#e4b940"/><path d="M84.6,294.607,47.4,314.97H71.76Z" transform="translate(-47.396 179.988)" fill="#41bf50"/><path d="M477.032,195.346l-19.992,1.524,15.993,15.988Z" transform="translate(283.536 99.799)" fill="#e4b940"/></g><g transform="translate(371.654 97.627)"><path d="M11.658,67.154l.036-.021L0,60.38V82.992a2.51,2.51,0,0,0,3.768,2.174L10.4,81.337a2.508,2.508,0,0,0,1.256-2.176Z" transform="translate(-6.936 -48.787)" fill="#adadad"/><path d="M0,11.631l11.694,6.753L22.065,12.4a2.518,2.518,0,0,0,1.256-2.176V2.559A2.514,2.514,0,0,0,19.549.381Z" transform="translate(-6.936 -0.038)" fill="#fff"/><path d="M88.03,272.687l-10.4-6.005a2.509,2.509,0,0,0-2.512,0L68.483,270.5a2.512,2.512,0,0,0,0,4.352l19.589,11.31v-13.5Z" transform="translate(-61.251 -215.196)" fill="#fff"/><path d="M195.292,274.833a2.512,2.512,0,0,0,0-4.35l-6.641-3.841a2.508,2.508,0,0,0-2.512,0l-10.359,5.98v13.511Z" transform="translate(-148.957 -215.163)" fill="#adadad"/><path d="M253.1,11.608,233.472.348a2.512,2.512,0,0,0-3.762,2.18V10.2a2.514,2.514,0,0,0,1.256,2.176l10.4,6.005h0Z" transform="translate(-192.53 -0.015)" fill="#adadad"/><path d="M290.41,67.172V79.177a2.508,2.508,0,0,0,1.266,2.176l6.645,3.841a2.512,2.512,0,0,0,3.768-2.168l.067-22.626Z" transform="translate(-241.572 -48.803)" fill="#fff"/><path d="M118.661,85.937l12.483-7.2a1.254,1.254,0,0,0,0-2.174l-12.483-7.19a1.25,1.25,0,0,0-1.254,0l-12.46,7.19a1.256,1.256,0,0,0,0,2.176l12.47,7.2A1.254,1.254,0,0,0,118.661,85.937Z" transform="translate(-91.219 -55.915)" fill="url(#e)"/><path d="M179.05,132.929v14.4a1.256,1.256,0,0,0,1.884,1.087l12.466-7.194a1.26,1.26,0,0,0,.62-1.1v-14.4a1.256,1.256,0,0,0-1.884-1.087l-12.466,7.2A1.258,1.258,0,0,0,179.05,132.929Z" transform="translate(-151.599 -100.563)" fill="url(#e)"/><path d="M94.5,125.745v14.4a1.26,1.26,0,0,0,.628,1.089l3.939,2.274,8.527,4.92a1.256,1.256,0,0,0,1.884-1.089v-14.4a1.258,1.258,0,0,0-.628-1.087l-12.466-7.2a1.256,1.256,0,0,0-1.884,1.093Z" transform="translate(-83.287 -100.579)" fill="url(#e)"/><g transform="translate(-63.913 86.647)"><path d="M613.053,173.577h7.971l8.409,19.557h-6.985l-1.178-3.177h-8.546l-1.178,3.177h-6.985Zm3.972,4.93h-.055l-2.712,7.4h5.478Z" transform="translate(-604.562 -173.084)" fill="#e4b940" stroke="#fff" stroke-width="1"/><path d="M758.832,199.892h5.725v2.931h.055a6.956,6.956,0,0,1,6.053-3.314,11.487,11.487,0,0,1,1.972.164V205.1a10.789,10.789,0,0,0-3.2-.493c-3.314,0-4.793,1.7-4.793,4.383v5.752h-5.807Z" transform="translate(-733.085 -194.688)" fill="#e4b940" stroke="#fff" stroke-width="1"/><path d="M855,173.577h16.188c4.739,0,5.56,2.931,5.56,4.821a4.132,4.132,0,0,1-2.41,3.944v.055c2.054.466,3.4,2.136,3.4,4.9,0,2.328-1.1,5.834-7.094,5.834H855Zm6.519,7.533h6.492c1.4,0,2-.767,2-1.671,0-.877-.6-1.644-2-1.644h-6.492Zm7.012,7.806a2.024,2.024,0,0,0,2.3-2.027c0-1.287-.931-1.945-2.3-1.945h-7.012v3.972Z" transform="translate(-813.207 -173.084)" fill="#fff"/><path d="M1007.959,170.623h5.807v3.506h-5.807Zm0,5.2h5.807v14.846h-5.807Z" transform="translate(-940.635 -170.623)" fill="#fff"/><path d="M1061.787,199.892h5.642v2.137h.055a7.827,7.827,0,0,1,6.245-2.52c3.643,0,6.3,1.753,6.3,5.451v9.778h-5.807v-8.025c0-1.89-1.068-2.821-3.013-2.821a3.294,3.294,0,0,0-3.616,3.561v7.286h-5.807Z" transform="translate(-985.48 -194.688)" fill="#fff"/><path d="M1185.724,204.549c.548-4.41,4.739-5.04,9.286-5.04,5.4,0,9.45.877,9.45,5.04v7.505a4.706,4.706,0,0,0,.6,2.684h-5.807a4.26,4.26,0,0,1-.3-1.37c-1.671,1.589-4.054,1.972-6.985,1.972-4.739,0-7.258-1.534-7.258-4.629,0-3.369,2.246-4.575,6.409-4.848l5.78-.384c1.506-.109,1.753-.438,1.753-1.205,0-1.041-1.123-1.588-3.67-1.588-2.137,0-3.178.6-3.451,1.863Zm13.093,3.259a14.167,14.167,0,0,1-2.219.411l-3.917.466c-1.178.137-1.671.6-1.671,1.507,0,1.15,1.041,1.808,2.6,1.808,3.342,0,5.2-1.26,5.2-3.287Z" transform="translate(-1087.889 -194.688)" fill="#fff"/><path d="M1323.061,199.892h5.642v2.137h.055a7.827,7.827,0,0,1,6.245-2.52c3.643,0,6.3,1.753,6.3,5.451v9.778H1335.5v-8.025c0-1.89-1.068-2.821-3.013-2.821a3.294,3.294,0,0,0-3.615,3.561v7.286h-5.807Z" transform="translate(-1203.149 -194.688)" fill="#fff"/><path d="M1467.486,207.591c-.876,4.246-3.753,6.656-10.272,6.656-6.574,0-10.409-2.547-10.409-8.026,0-5.369,4.026-8.026,10.409-8.026,5.533,0,9.477,1.671,10,6.382h-5.971c-.274-1.616-1.479-2.547-3.944-2.547-2.712,0-4.355,1.507-4.355,4.191s1.589,4.191,4.383,4.191c2.191,0,3.643-.931,4.026-2.821Z" transform="translate(-1306.242 -193.594)" fill="#fff"/><path d="M1600.665,209.235c-.712,2.465-3.533,5.012-9.861,5.012-6.684,0-10.409-2.547-10.409-8.053,0-5.259,4.081-8,10.244-8,6.355,0,10.3,2.766,10.3,8.957v.438h-14.572c.3,1.917,1.671,3.314,4.656,3.314a4.058,4.058,0,0,0,3.506-1.671Zm-5.7-4.657c-.329-1.643-1.561-3.04-4.3-3.04s-3.972,1.4-4.3,3.04Z" transform="translate(-1417.537 -193.594)" fill="#fff"/></g></g><path d="M534.963,161.769,121.1,238.411,534.059,173Z" transform="translate(91.464 68.765)" opacity="0.299"/><g transform="translate(107.868 215.534)"><path d="M595.07,353.724,55.53,439.179l30-94.191-30-92.9,539.54-85.455,94.967,75.088Z" transform="translate(-55.53 -158.865)" fill="url(#h)"/><path d="M62.53,258.549l525.347-84.79,91.411,66.9-92,103.813-524.76,84.7,30-85.542Z" transform="translate(-54.337 -157.598)" fill="#43475a"/><path d="M613.193,351.178,131.6,427.455V344.449l481.594-76.277Z" transform="translate(-10.14 -84.277)" fill="url(#i)"/><path d="M133.6,345.779l475.207-75.265v76.539L133.6,422.318Z" transform="translate(-8.946 -82.88)" fill="url(#j)"/><g transform="translate(248.132 -339.534)"><path d="M480.594,148.531l-151.008,1.584-.69,68.038L445.426,240.8Z" transform="translate(-216.999 281.693) rotate(-11)" opacity="0.4"/><path d="M364.469,143.918l123.194-.27L448.591,224.26l-119.309.04Z" transform="translate(-217.308 266.751) rotate(-9)" fill="#eebe2d"/></g></g></g></svg>