<svg xmlns="http://www.w3.org/2000/svg" xmlns:xlink="http://www.w3.org/1999/xlink" width="466.743" height="458.03" viewBox="0 0 466.743 458.03"><defs><linearGradient id="a" x1="0.146" y1="0.146" x2="0.952" y2="0.974" gradientUnits="objectBoundingBox"><stop offset="0" stop-color="#565a6f"/><stop offset="1" stop-color="#3e4257"/></linearGradient><filter id="b" x="58.322" y="41.5" width="350.1" height="312.038" filterUnits="userSpaceOnUse"><feOffset dy="5" input="SourceAlpha"/><feGaussianBlur stdDeviation="5" result="c"/><feFlood flood-opacity="0.294"/><feComposite operator="in" in2="c"/><feComposite in="SourceGraphic"/></filter></defs><g transform="translate(919.59 1588.092) rotate(180)"><path d="M160.684,9.963a20,20,0,0,1,34.632,0l123.342,238.03A20,20,0,0,1,301.342,278H54.658a20,20,0,0,1-17.316-30.007Z" transform="translate(508.219 1220.092)" opacity="0.3"/><path d="M160.684,29.963a20,20,0,0,1,34.632,0l143.342,248.03A20,20,0,0,1,321.342,308H34.658a20,20,0,0,1-17.316-30.007Z" transform="translate(508.219 1220.092)" fill="#e4b940"/><g transform="matrix(-1, 0, 0, -1, 919.59, 1588.09)" filter="url(#b)"><path d="M156.685,29.953a20,20,0,0,1,34.63,0L330.652,270.991A20,20,0,0,1,313.337,301H34.663a20,20,0,0,1-17.315-30.009Z" transform="translate(407.37 353) rotate(180)" stroke="#e4b940" stroke-width="1" fill="url(#a)"/></g></g></svg>