<svg xmlns="http://www.w3.org/2000/svg" xmlns:xlink="http://www.w3.org/1999/xlink" width="108.031" height="99.99" viewBox="0 0 108.031 99.99"><defs><linearGradient id="a" x1="0.146" y1="0.146" x2="0.952" y2="0.974" gradientUnits="objectBoundingBox"><stop offset="0" stop-color="#565a6f"/><stop offset="1" stop-color="#3e4257"/></linearGradient><filter id="b" x="0" y="0" width="108.031" height="99.99" filterUnits="userSpaceOnUse"><feOffset dy="5" input="SourceAlpha"/><feGaussianBlur stdDeviation="5" result="c"/><feFlood flood-opacity="0.294"/><feComposite operator="in" in2="c"/><feComposite in="SourceGraphic"/></filter></defs><g transform="translate(-1010.203 -1260.602)"><g transform="matrix(1, 0, 0, 1, 1010.2, 1260.6)" filter="url(#b)"><path d="M37.2,13.512a9,9,0,0,1,15.591,0L82.213,64.5a9,9,0,0,1-7.8,13.5H15.583a9,9,0,0,1-7.8-13.5Z" transform="translate(9.02 1.49)" stroke="#e4b940" stroke-width="1" fill="url(#a)"/></g><g transform="translate(1049.006 1292.898)"><path d="M8.116,12.974c-.268-.909-.526-1.819-.72-2.691a4.326,4.326,0,1,1,6.386-2.758,21.126,21.126,0,0,1,1.04,2.976,6.562,6.562,0,1,0-6.706,2.473Z" transform="translate(0.033)" fill="#fff"/><path d="M3.608,26.48c1.621-1.752,3.439-1.066,5.874-.7,2.092.322,4.151-.265,4.014-1.395a26.182,26.182,0,0,0-1.215-5.013c-.553-1.883-1.6-5.276-2.56-8.521C8.441,6.516,8.07,4.5,9.774,4c1.837-.535,2.891,2.075,3.845,5.694,1.087,4.119,1.659,5.938,1.979,5.842.564-.162-.207-1.924,1.268-2.358,1.845-.537,2.2.906,2.718.761s.341-1.616,1.813-2.046,2.221,1.393,2.831,1.212.59-.835,1.5-1.1,4.349,1.267,6.316,7.985c2.468,8.447-.313,10.018.531,12.878L21.559,37.059c-.892-2.145-3.654-2.3-6.1-3.671C13,32,11.326,29.3,4.91,29.433,2.5,29.482,2.611,27.558,3.608,26.48Z" transform="translate(0 2.061)" fill="#fff"/></g></g></svg>