<svg xmlns="http://www.w3.org/2000/svg" width="16" height="16" viewBox="0 0 16 16"><g transform="translate(0)"><path d="M503.31,197.214h-1.882a.286.286,0,0,1-.286-.286.286.286,0,0,0-.286-.286.286.286,0,0,1-.286-.286v-7.429a.286.286,0,0,1,.286-.286.286.286,0,0,0,.286-.286.286.286,0,0,1,.286-.286h2.286a.286.286,0,0,1,.286.286.286.286,0,0,0,.286.286.286.286,0,0,1,.286.286v6.453l.571.571V187.5H500v10.286h3.881Z" transform="translate(-490.858 -184.071)" fill="#fff"/><path d="M565.357,407.393a1.464,1.464,0,1,0-1.429,1.143A1.31,1.31,0,0,0,565.357,407.393Z" transform="translate(-552.215 -398.821)" fill="#fff"/><path d="M565.357,250.523a.862.862,0,0,1-.523-.523h-1.812a.862.862,0,0,1-.523.523v2.28a2.233,2.233,0,0,1,2.857,0Zm-1.143.906h-.571v-.571h.571Z" transform="translate(-552.215 -245.429)" fill="#fff"/><path d="M565.357,535.251v-1.016a2.232,2.232,0,0,1-2.857,0v2.28a.862.862,0,0,1,.523.523H564.1l-.084-.084a1.092,1.092,0,0,1,1.345-1.7Z" transform="translate(-552.215 -524.466)" fill="#fff"/><path d="M500,844.321h3.736a3.2,3.2,0,0,1,.116-.571H500Z" transform="translate(-490.858 -828.321)" fill="#fff"/><path d="M504.453,781.25H500v.571h4.086a3.2,3.2,0,0,1,.375-.563Z" transform="translate(-490.858 -766.964)" fill="#fff"/><path d="M662.716,600.776l-.557-.557V601.7l.488.488-.4.4-2-2a.523.523,0,0,0-.739.739l2,2a.286.286,0,0,1,0,.4,2.617,2.617,0,0,0-.747,1.512H663.3V602.19A1.987,1.987,0,0,0,662.716,600.776Z" transform="translate(-647.302 -589.244)" fill="#fff"/><path d="M93.75,656.25h5.143v.571H93.75Z" transform="translate(-92.036 -644.25)" fill="#fff"/><path d="M179.309,125.523a.861.861,0,0,1-.522-.523h-1.813a.863.863,0,0,1-.146.257l.767.767v-.167h.571v.571h-.213a1.091,1.091,0,0,1,.119.865,2.144,2.144,0,0,1,1.237.509Z" transform="translate(-173.595 -122.714)" fill="#fff"/><path d="M94.431,63.063l.429.429a.284.284,0,0,0,.033-.134.286.286,0,0,1,.286-.286h2.286a.286.286,0,0,1,.286.286.286.286,0,0,0,.286.286.286.286,0,0,1,.286.286v7.429a.286.286,0,0,1-.286.286.286.286,0,0,0-.286.286.286.286,0,0,1-.286.286H95.179a.286.286,0,0,1-.286-.286.286.286,0,0,0-.286-.286.286.286,0,0,1-.286-.286v-5.31l-.571-.571v7.31h5.143V62.5H94.807A3.2,3.2,0,0,1,94.431,63.063Z" transform="translate(-92.036 -61.357)" fill="#fff"/><path d="M93.75,718.75h5.143v.571H93.75Z" transform="translate(-92.036 -705.607)" fill="#fff"/><path d="M156.25,409.235v2.28a.862.862,0,0,1,.523.523h1.812a.861.861,0,0,1,.522-.523v-2.28A2.233,2.233,0,0,1,156.25,409.235Zm1.714,1.945h-.571v-.571h.571Z" transform="translate(-153.393 -401.752)" fill="#fff"/><path d="M157.679,281.25a1.756,1.756,0,0,0-.2.014,1.092,1.092,0,0,1-.654.222h0a1.081,1.081,0,0,0-.566.907,1.464,1.464,0,1,0,1.429-1.143Z" transform="translate(-153.393 -276.107)" fill="#fff"/><path d="M1.059,2.655l2,2A.523.523,0,0,0,3.8,3.916l-2-2a.286.286,0,0,1,0-.4A2.618,2.618,0,0,0,2.545,0H0V3.054A1.988,1.988,0,0,0,.585,4.467l.557.557V3.547L.655,3.059Z" fill="#fff"/></g></svg>