<svg xmlns="http://www.w3.org/2000/svg" width="36" height="49.631" viewBox="0 0 36 49.631"><g transform="translate(-70.022)"><path d="M88.021,49.631a2.961,2.961,0,0,1-1.307-.306A53.775,53.775,0,0,1,77.148,43.3c-4.728-3.837-7.126-7.689-7.126-11.449V8.861a2.953,2.953,0,0,1,1.887-2.766L86.936.205a2.972,2.972,0,0,1,2.17,0l15.028,5.89a2.954,2.954,0,0,1,1.888,2.766v10.9a.969.969,0,1,1-1.939,0V8.861a1.027,1.027,0,0,0-.657-.961L88.4,2.01a1.04,1.04,0,0,0-.757,0L72.617,7.9a1.026,1.026,0,0,0-.656.961V31.855c0,3.147,2.156,6.492,6.408,9.943a51.761,51.761,0,0,0,9.2,5.787,1.018,1.018,0,0,0,.905,0,51.741,51.741,0,0,0,9.2-5.787c4.252-3.451,6.408-6.8,6.408-9.944V19.05a.969.969,0,0,1,1.939,0v12.8c0,3.76-2.4,7.612-7.125,11.449a53.737,53.737,0,0,1-9.567,6.021A2.963,2.963,0,0,1,88.021,49.631Z" transform="translate(0 0)" fill="#fff"/><path d="M124.629,83.852a.969.969,0,0,1-.446-.109,48.937,48.937,0,0,1-7.951-5.105c-3.712-3.012-5.673-5.916-5.673-8.4V48.557a.969.969,0,0,1,.616-.9l13.1-5.134a.97.97,0,0,1,.707,0l13.1,5.134a.969.969,0,0,1,.616.9v21.68c0,2.484-1.962,5.389-5.673,8.4a48.914,48.914,0,0,1-7.951,5.105A.97.97,0,0,1,124.629,83.852ZM112.5,49.218V70.238c0,1.825,1.806,4.339,4.956,6.895a46.261,46.261,0,0,0,7.175,4.655,46.255,46.255,0,0,0,7.176-4.655c3.15-2.556,4.956-5.069,4.956-6.9V49.218l-12.132-4.754Z" transform="translate(-36.607 -38.338)" fill="#fff"/><path d="M227.893,258.568a2.984,2.984,0,0,0-.969,5.806v1.039a.969.969,0,1,0,1.939,0v-1.039a2.984,2.984,0,0,0-.969-5.806Zm0,4.029a1.045,1.045,0,1,1,1.047-1.045A1.047,1.047,0,0,1,227.893,262.6Z" transform="translate(-139.871 -233.502)" fill="#fff"/><path d="M174.69,96.62a8.7,8.7,0,0,0-8.657,7.863.969.969,0,0,0,.965,1.061h3.8a.969.969,0,0,0,.952-.79,2.989,2.989,0,0,1,5.925.557v3.358H166.962a.969.969,0,0,0-.969.969v10.595a3.554,3.554,0,0,0,3.55,3.55h10.293a3.554,3.554,0,0,0,3.55-3.55V105.311A8.7,8.7,0,0,0,174.69,96.62Zm0,3.767a4.931,4.931,0,0,0-4.624,3.218h-1.919a6.761,6.761,0,0,1,13.3,1.706v3.358h-1.831v-3.358A4.931,4.931,0,0,0,174.69,100.387Zm5.146,21.458H169.543a1.613,1.613,0,0,1-1.612-1.612v-9.625h13.516v9.625A1.613,1.613,0,0,1,179.836,121.845Z" transform="translate(-86.668 -87.254)" fill="#fff"/></g></svg>