<svg xmlns="http://www.w3.org/2000/svg" width="17.494" height="14.478" viewBox="0 0 17.494 14.478"><path d="M249.548,271.27a.944.944,0,0,0-.481-1l-3.34-1.778a.908.908,0,0,0-1.12.2l-.886,1.024a1.1,1.1,0,0,1-1.2.311,20.012,20.012,0,0,1-3.911-3.02.991.991,0,0,1-.066-1.1l.69-1.2a.954.954,0,0,0-.183-1.182l-2.9-2.525a.774.774,0,0,0-.9-.1,8.929,8.929,0,0,0-2.794,2.27c-2.208,3.093,5.619,8.859,5.619,8.859,4.179,3.371,9.2,3.969,10.26,2.494A8.626,8.626,0,0,0,249.548,271.27Z" transform="translate(-232.069 -260.809)" fill="#fff"/></svg>