<svg xmlns="http://www.w3.org/2000/svg" xmlns:xlink="http://www.w3.org/1999/xlink" width="164.387" height="17.791" viewBox="0 0 164.387 17.791"><defs><linearGradient id="a" y1="0.5" x2="1.087" y2="0.5" gradientUnits="objectBoundingBox"><stop offset="0" stop-color="#ffc16f"/><stop offset="1" stop-color="#ff7d77"/></linearGradient></defs><g transform="translate(2.387 2.602)"><g transform="translate(2 0)"><g transform="translate(24.204 0.777)"><path d="M7.616,7.66,9.751,9.3a5.362,5.362,0,1,1,0-6.17L7.616,4.765a2.681,2.681,0,1,0,0,2.895Z" transform="translate(0 -0.556)" fill="#fff"/><path d="M96.268,3.534v8.038H93.579V3.534H90.1V.844h9.651V3.534Z" transform="translate(-33.338 -0.554)" fill="#fff" fill-rule="evenodd"/><g transform="translate(126.145 0.291)"><path d="M6.195,2.683v8.038H3.505V2.683H.024V-.007H9.675V2.683Z" transform="translate(-0.024 0.007)" fill="#fff" fill-rule="evenodd"/></g><g transform="translate(27.336 0.295)"><path d="M3.371,0,5.986,4.168,8.6,0h3.095L7.363,6.9v3.819H4.674V7.01L.276,0Z" transform="translate(-0.276 0)" fill="#fff" fill-rule="evenodd"/></g><g transform="translate(14.522 0.295)"><path d="M7.066,7.894l1.966,2.829H5.866L4.223,8.31H2.689v2.413H0V0H5.244A4.154,4.154,0,0,1,7.066,7.894ZM2.689,2.681V5.63H5.244a1.474,1.474,0,1,0,0-2.949Z" transform="translate(0 0)" fill="#fff" fill-rule="evenodd"/></g><g transform="translate(43.298 0.295)"><path d="M2.689,0H5.244a4.155,4.155,0,1,1,0,8.31H2.689v2.413H0V0Zm0,2.681V5.63H5.244a1.474,1.474,0,1,0,0-2.949Z" transform="translate(0 0)" fill="#fff" fill-rule="evenodd"/></g><path d="M117.224,11.574A5.362,5.362,0,1,1,122.6,6.213,5.37,5.37,0,0,1,117.224,11.574Zm0-2.681a2.681,2.681,0,1,0-2.689-2.681A2.685,2.685,0,0,0,117.224,8.893Z" transform="translate(-41.385 -0.556)" fill="#fff"/><path d="M144.969.851l-5.822,10.723L133.617.851h3.177l2.415,5.06L141.75.851Z" transform="translate(-49.441 -0.556)" fill="#fff"/><g transform="translate(100.043 0.295)"><path d="M2.689,2.681v1.34H5.917V6.7H2.689v1.34H8.068v2.681H0V0H8.068V2.681Z" fill="#fff" fill-rule="evenodd"/></g><path d="M185.57,3.457l-.1-.05a5.205,5.205,0,0,0-.616-.241,2.107,2.107,0,0,0-.659-.105,1.772,1.772,0,0,0-.936.2.5.5,0,0,0-.255.464.3.3,0,0,0,.075.2,1.14,1.14,0,0,0,.306.248,3.357,3.357,0,0,0,.514.241c.2.078.421.15.66.222a13.208,13.208,0,0,1,1.726.715,5.025,5.025,0,0,1,1.171.8,2.642,2.642,0,0,1,.665.964,3.064,3.064,0,0,1,.195,1.1,2.986,2.986,0,0,1-.333,1.381,3.447,3.447,0,0,1-.9,1.108,4.314,4.314,0,0,1-1.344.726,5.156,5.156,0,0,1-1.674.264,5.939,5.939,0,0,1-1.564-.206,6.125,6.125,0,0,1-1.428-.587,6.049,6.049,0,0,1-.825-.585q-.227-.194-.367-.323l-.258-.237,2.267-1.739.182.15q.074.061.171.131a4.347,4.347,0,0,0,.555.337,4.419,4.419,0,0,0,.658.274,1.963,1.963,0,0,0,.609.105,2.44,2.44,0,0,0,.507-.054,1.6,1.6,0,0,0,.437-.158.836.836,0,0,0,.285-.25.593.593,0,0,0,.1-.354.234.234,0,0,0-.045-.1,1.007,1.007,0,0,0-.244-.23,3.579,3.579,0,0,0-.577-.324c-.257-.12-.582-.25-.973-.386a13.962,13.962,0,0,1-1.331-.529,4.853,4.853,0,0,1-1.111-.7,3.026,3.026,0,0,1-.757-.948,2.729,2.729,0,0,1-.274-1.244,3.078,3.078,0,0,1,.3-1.335,3.161,3.161,0,0,1,.837-1.076,3.91,3.91,0,0,1,1.282-.7,5.141,5.141,0,0,1,2.643-.137,8.523,8.523,0,0,1,1.03.28,7.161,7.161,0,0,1,.95.4,4.994,4.994,0,0,1,.612.365l.326.231-.317.243-1.847,1.416-.149.114Z" transform="translate(-66.462 -0.383)" fill="#fff"/></g><g transform="translate(-4.387 -2.602)"><path d="M14.337,0a3.1,3.1,0,0,0-2.175.883h0A4.712,4.712,0,0,1,8.715,2.371,4.709,4.709,0,0,1,5.426,1.04,3.106,3.106,0,0,0,0,3.077,3.107,3.107,0,0,0,5.5,5.034a4.73,4.73,0,0,1,6.485.043,3.106,3.106,0,0,0,5.458-2A3.089,3.089,0,0,0,14.337,0ZM5.721,8.852a3.106,3.106,0,0,0,5.21,2.344h0a4.73,4.73,0,0,1,6.735.037,3.077,3.077,0,1,0,.047-3.994,4.729,4.729,0,0,1-6.481-.229A3.1,3.1,0,0,0,8.912,5.865H8.82A3.09,3.09,0,0,0,5.721,8.852Zm6.221,3.9a4.73,4.73,0,0,1-6.485-.043,3.078,3.078,0,1,0-.182,4.193h0a4.73,4.73,0,0,1,6.734-.156,3.077,3.077,0,1,0-.07-3.994Z" fill="url(#a)"/></g></g></g></svg>