<svg xmlns="http://www.w3.org/2000/svg" xmlns:xlink="http://www.w3.org/1999/xlink" width="18.927" height="18.927" viewBox="0 0 18.927 18.927"><defs><clipPath id="a"><ellipse cx="8.462" cy="8.462" rx="8.462" ry="8.462" fill="#fff"/></clipPath></defs><g transform="translate(-105.992 -58.543)"><ellipse cx="8.964" cy="8.963" rx="8.964" ry="8.963" transform="translate(106.492 59.043)" fill="none" stroke="#fff" stroke-miterlimit="10" stroke-width="1"/><g transform="translate(106.994 60.386)"><g transform="translate(0)" clip-path="url(#a)"><g transform="translate(2.545 0.392)"><path d="M159.474,212.163a12.518,12.518,0,0,0,5.788-1.359,6.408,6.408,0,0,0,.123-1.236,5.917,5.917,0,0,0-11.834,0,7.084,7.084,0,0,0,.123,1.236A12.612,12.612,0,0,0,159.474,212.163Z" transform="translate(-153.55 -196.024)" fill="#fff"/><ellipse cx="3.12" cy="3.12" rx="3.12" ry="3.12" transform="translate(2.803)" fill="#fff"/></g></g></g></g></svg>