<svg xmlns="http://www.w3.org/2000/svg" width="20" height="18.131" viewBox="0 0 20 18.131"><g transform="translate(0 0)"><g transform="translate(0 -20)"><path d="M20,49H32.991v.841H20Z" transform="translate(-19.066 -27.648)" fill="#3a3d4d"/><path d="M.645,123.929h18.71A.63.63,0,0,0,20,123.3V110H0V123.3a.63.63,0,0,0,.645.634Zm12.372-9.953h2.911a.291.291,0,0,1,0,.561H13.017a.291.291,0,0,1,0-.561Zm0,1.4h5.041a.291.291,0,0,1,0,.561H13.017a.291.291,0,0,1,0-.561Zm0,1.4h5.041a.291.291,0,0,1,0,.561H13.017a.291.291,0,0,1,0-.561Zm0,1.4h5.041a.291.291,0,0,1,0,.561H13.017a.291.291,0,0,1,0-.561Zm0,1.4h5.041a.291.291,0,0,1,0,.561H13.017a.291.291,0,0,1,0-.561Z" transform="translate(0 -85.798)" fill="#fff"/><path d="M20,20.635A.63.63,0,0,0,19.355,20H.645A.63.63,0,0,0,0,20.635v3.011H20Zm-5.514,1.843a.28.28,0,0,1-.28.28H.654a.28.28,0,0,1-.28-.28v-1.4a.28.28,0,0,1,.28-.28H14.205a.28.28,0,0,1,.28.28Zm2.71,0a.28.28,0,0,1-.28.28h-1.4a.28.28,0,0,1-.28-.28v-1.4a.28.28,0,0,1,.28-.28h1.4a.28.28,0,0,1,.28.28Zm2.43,0a.28.28,0,0,1-.28.28h-1.4a.28.28,0,0,1-.28-.28v-1.4a.28.28,0,0,1,.28-.28h1.4a.28.28,0,0,1,.28.28Z" transform="translate(0)" fill="#fff"/><path d="M390,49h.841v.841H390Z" transform="translate(-371.776 -27.648)" fill="#3a3d4d"/><path d="M338,49h.841v.841H338Z" transform="translate(-322.206 -27.648)" fill="#3a3d4d"/><g transform="translate(1.962 25.094)"><path d="M47.206,133.184h.232a.232.232,0,0,0,.232-.232v-3.719A.232.232,0,0,1,47.9,129h.93a.232.232,0,0,1,.232.232v3.719a.232.232,0,0,0,.232.232h0a.232.232,0,0,0,.232-.232v-1.859a.232.232,0,0,1,.232-.232h.93a.232.232,0,0,1,.232.232v1.859a.232.232,0,0,0,.232.232h0a.232.232,0,0,0,.232-.232v-3.021a.232.232,0,0,1,.232-.232h.93a.232.232,0,0,1,.232.232v3.021a.232.232,0,0,0,.232.232h0a.232.232,0,0,0,.232-.232V131.79a.232.232,0,0,1,.232-.232h.93a.232.232,0,0,1,.232.232v1.162a.232.232,0,0,0,.232.232h.232a.232.232,0,0,1,.232.232h0a.232.232,0,0,1-.232.232h-.7a.232.232,0,0,1-.232-.232v-1.162a.232.232,0,0,0-.232-.232h0a.232.232,0,0,0-.232.232v1.162a.232.232,0,0,1-.232.232h-.93a.232.232,0,0,1-.232-.232V130.4a.232.232,0,0,0-.232-.232h0a.232.232,0,0,0-.232.232v3.021a.232.232,0,0,1-.232.232h-.93a.232.232,0,0,1-.232-.232v-1.859a.232.232,0,0,0-.232-.232h0a.232.232,0,0,0-.232.232v1.859a.232.232,0,0,1-.232.232h-.93a.232.232,0,0,1-.232-.232V129.7a.232.232,0,0,0-.232-.232h0a.232.232,0,0,0-.232.232v3.719a.232.232,0,0,1-.232.232h-.7a.232.232,0,0,1-.232-.232h0A.232.232,0,0,1,47.206,133.184Z" transform="translate(-46.742 -129.001)" fill="#3a3d4d"/><rect width="1.627" height="0.465" rx="0.232" transform="translate(5.113 6.508)" fill="#3a3d4d"/><rect width="2.092" height="0.465" rx="0.232" transform="translate(0 6.508)" fill="#3a3d4d"/><rect width="2.092" height="0.465" rx="0.232" transform="translate(0 7.437)" fill="#3a3d4d"/><rect width="2.092" height="0.465" rx="0.232" transform="translate(0 10.226)" fill="#3a3d4d"/><rect width="4.648" height="0.465" rx="0.232" transform="translate(0 11.156)" fill="#3a3d4d"/><rect width="2.092" height="0.465" rx="0.232" transform="translate(2.557 10.226)" fill="#3a3d4d"/><rect width="4.648" height="0.465" rx="0.232" transform="translate(0 9.297)" fill="#3a3d4d"/><rect width="4.648" height="0.465" rx="0.232" transform="translate(0 8.367)" fill="#3a3d4d"/><rect width="2.092" height="0.465" rx="0.232" transform="translate(2.557 7.437)" fill="#3a3d4d"/><rect width="2.092" height="0.465" rx="0.232" transform="translate(2.557 6.508)" fill="#3a3d4d"/><rect width="4.648" height="0.465" rx="0.232" transform="translate(0 5.578)" fill="#3a3d4d"/><path d="M168.663,314.421H168.2a0,0,0,0,1,0,0v-.11a.352.352,0,0,0-.352-.352h-.679a.359.359,0,0,0-.361.306.349.349,0,0,0,.346.392h.671a.824.824,0,0,1,.837.88.814.814,0,0,1-.811.747h-.113a0,0,0,0,0,0,0v.458a0,0,0,0,1,0,0h-.458a0,0,0,0,1,0,0v-.458a0,0,0,0,0,0,0h-.11a.817.817,0,0,1-.817-.817v-.11a0,0,0,0,1,0,0h.458a0,0,0,0,1,0,0v.11a.352.352,0,0,0,.352.352h.679a.359.359,0,0,0,.361-.306.349.349,0,0,0-.346-.392h-.671a.824.824,0,0,1-.837-.88.814.814,0,0,1,.811-.747h.113a0,0,0,0,0,0,0v-.458a0,0,0,0,1,0,0h.458a0,0,0,0,1,0,0v.458a0,0,0,0,0,0,0h.11a.817.817,0,0,1,.817.817v.11A0,0,0,0,1,168.663,314.421Z" transform="translate(-160.531 -304.428)" fill="#3a3d4d"/><rect width="3.719" height="0.465" rx="0.232" transform="translate(5.113 7.437)" fill="#3a3d4d"/><rect width="1.627" height="0.465" rx="0.232" transform="translate(7.205 6.508)" fill="#3a3d4d"/><rect width="3.719" height="0.465" rx="0.232" transform="translate(5.113 5.578)" fill="#3a3d4d"/></g></g></g></svg>