<svg xmlns="http://www.w3.org/2000/svg" width="58.546" height="41.816" viewBox="0 0 58.546 41.816"><g transform="translate(-66.362 -1277.668)" opacity="0.15"><g transform="translate(83 1277.667)"><g transform="translate(-16.638 0)"><path d="M85.186,1302.758h6.822a2.186,2.186,0,0,1,1.955,3.164l-5.2,10.4a2.186,2.186,0,0,0,1.955,3.164h7.657a2.186,2.186,0,0,0,1.955-1.208l7.529-15.057a2.188,2.188,0,0,0,.231-.978v-22.389a2.186,2.186,0,0,0-2.186-2.186H85.186A2.186,2.186,0,0,0,83,1279.853v20.719A2.186,2.186,0,0,0,85.186,1302.758Z" transform="translate(-83 -1277.667)" fill="#fff"/><path d="M253.667,1279.853v20.719a2.186,2.186,0,0,0,2.186,2.186h6.822a2.186,2.186,0,0,1,1.955,3.164l-5.2,10.4a2.186,2.186,0,0,0,1.955,3.164h7.657a2.186,2.186,0,0,0,1.955-1.208l7.529-15.057a2.187,2.187,0,0,0,.231-.978v-22.389a2.186,2.186,0,0,0-2.186-2.186H255.853A2.186,2.186,0,0,0,253.667,1279.853Z" transform="translate(-220.212 -1277.667)" fill="#fff"/></g></g></g></svg>