<svg xmlns="http://www.w3.org/2000/svg" width="12" height="15.143" viewBox="0 0 12 15.143"><g transform="translate(-50.85)"><g transform="translate(50.85)"><path d="M108.307,112.715a4.357,4.357,0,1,0-4.357-4.361A4.358,4.358,0,0,0,108.307,112.715Zm-1.52-2.633c.04-.142.077-.287.124-.426.053-.164.1-.185.247-.105a2.394,2.394,0,0,0,.819.247,1.029,1.029,0,0,0,.538-.071.419.419,0,0,0,.1-.736,1.222,1.222,0,0,0-.306-.179,6.8,6.8,0,0,1-.838-.377,1.183,1.183,0,0,1-.671-1.134,1.251,1.251,0,0,1,.915-1.159c.223-.08.226-.077.226-.312v-.238c0-.176.034-.207.21-.213.056,0,.108,0,.164,0,.374,0,.374,0,.377.374,0,.266,0,.266.266.306a2.247,2.247,0,0,1,.581.173.171.171,0,0,1,.111.226c-.046.161-.09.324-.142.485s-.1.173-.241.1a1.832,1.832,0,0,0-.921-.182.691.691,0,0,0-.247.049.349.349,0,0,0-.087.621,1.638,1.638,0,0,0,.4.226,7.028,7.028,0,0,1,.729.331,1.31,1.31,0,0,1,.423,1.99,1.42,1.42,0,0,1-.726.467.2.2,0,0,0-.176.232c.006.13,0,.257,0,.386a.16.16,0,0,1-.173.179c-.139,0-.278,0-.414,0a.167.167,0,0,1-.179-.189c0-.093,0-.189,0-.281,0-.207-.009-.216-.207-.247a2.537,2.537,0,0,1-.739-.213C106.753,110.32,106.734,110.273,106.787,110.082Z" transform="translate(-102.309 -100.786)" fill="#fff"/><path d="M61.567,377.74A6.687,6.687,0,0,1,52.4,378h.841v-.9H50.85v2.386h.9v-.868a7.58,7.58,0,0,0,10.455-.244l.318-.318-.634-.634Z" transform="translate(-50.85 -365.446)" fill="#fff"/><path d="M72.32,1.1v.868a7.58,7.58,0,0,0-10.455.244l-.315.315.634.634.318-.318a6.687,6.687,0,0,1,9.172-.257h-.841v.9h2.386V1.1Z" transform="translate(-61.219)" fill="#fff"/></g></g></svg>