<svg xmlns="http://www.w3.org/2000/svg" width="24" height="24" viewBox="0 0 24 24"><g transform="translate(-14 8.437)"><rect width="24" height="24" transform="translate(14 -8.437)" fill="none"/><g transform="translate(-4.481 -8.437)"><g transform="translate(20.481)"><path d="M46.545,37.427a2.234,2.234,0,0,0-3.488,2.631A10.86,10.86,0,0,1,46.545,37.427Z" transform="translate(-41.157 -34.092)" fill="#fff"/><path d="M30.481,23.1A10,10,0,0,0,32.173,3.245V1.371h.867A.62.62,0,0,0,33.56.686.62.62,0,0,0,33.04,0H27.922a.62.62,0,0,0-.52.686.62.62,0,0,0,.52.686h.867V3.245a9.92,9.92,0,0,0-2.4.733,10,10,0,0,0,4.1,19.122ZM24.59,7.256A8.341,8.341,0,0,1,26.5,5.815,8.327,8.327,0,1,1,24.59,7.256Z" transform="translate(-20.481)" fill="#fff"/><path d="M60.888,91.411a7.136,7.136,0,0,0,1.051.867c.189.127.384.246.585.355a7.068,7.068,0,0,0,3.384.857q.23,0,.456-.015a7.051,7.051,0,0,0,2.929-.843q.3-.164.585-.355a7.1,7.1,0,0,0,0-11.775q-.283-.191-.585-.356a7.058,7.058,0,0,0-2.929-.843q-.226-.015-.456-.015a7.069,7.069,0,0,0-3.384.857q-.3.164-.585.356a7.1,7.1,0,0,0-1.051,10.909Zm5.021-10.671v5.32l-5.348,2.055A5.775,5.775,0,0,1,65.908,80.741Z" transform="translate(-55.908 -73.291)" fill="#fff"/></g></g></g></svg>