<svg xmlns="http://www.w3.org/2000/svg" width="20" height="20" viewBox="0 0 20 20"><path d="M198.344,0A2.38,2.38,0,0,0,196,2.383a2.344,2.344,0,0,0,4.688,0A2.38,2.38,0,0,0,198.344,0Z" transform="translate(-188.344)" fill="#fff"/><path d="M30,273.344a2.38,2.38,0,0,0,2.383,2.344,2.344,2.344,0,0,0,0-4.687A2.38,2.38,0,0,0,30,273.344Z" transform="translate(-28.828 -260.414)" fill="#fff"/><path d="M363.344,271a2.344,2.344,0,1,0,2.344,2.344A2.346,2.346,0,0,0,363.344,271Z" transform="translate(-346.898 -260.414)" fill="#fff"/><path d="M18.381,146.547a3.492,3.492,0,0,1-3.872,0,3.528,3.528,0,0,0-.31.264l-3.613-2.89V140.1h2.93V138.93A3.512,3.512,0,0,0,11.936,136a3.492,3.492,0,0,1-3.872,0,3.512,3.512,0,0,0-1.579,2.93V140.1h2.93v3.82L5.8,146.811a3.528,3.528,0,0,0-.31-.264,3.491,3.491,0,0,1-1.936.586,3.621,3.621,0,0,1-1.975-.586A3.582,3.582,0,0,0,0,149.516v1.172H7.07v-1.172a3.608,3.608,0,0,0-.5-1.818L10,144.953l3.43,2.744a3.608,3.608,0,0,0-.5,1.818v1.172H20v-1.172A3.617,3.617,0,0,0,18.381,146.547Z" transform="translate(0 -130.688)" fill="#fff"/></svg>