<svg xmlns="http://www.w3.org/2000/svg" width="29.852" height="21.125" viewBox="0 0 29.852 21.125"><path d="M-9.566-12.114V-21.2l7.729,4.54-7.729,4.542m17.929-7.8c-.012-.353-.03-.706-.058-1.059a7.767,7.767,0,0,0-1.27-4.406,4.831,4.831,0,0,0-3.4-1.4c-1.576-.178-3.158-.286-4.742-.346-3.208-.123-6.42-.052-9.628.019-1.649.037-3.3.074-4.942.2-2.019.161-4.094.457-5.034,2.474-.844,1.81-.739,4.109-.75,6.057-.009,1.746-.015,3.493.055,5.239.091,2.265.225,5.215,2.67,6.208a14.078,14.078,0,0,0,4.275.74c1.478.1,2.959.084,4.439.106,3.1.046,6.206-.06,9.308-.122a21.051,21.051,0,0,0,6.429-.771C7.494-7.572,7.958-9.5,8.2-11.175A34.841,34.841,0,0,0,8.374-16.2c0-1.237.031-2.476-.012-3.713" transform="translate(21.467 27.185)" fill="#fff"/></svg>