<svg xmlns="http://www.w3.org/2000/svg" width="44" height="44" viewBox="0 0 44 44"><path d="M48,160h2.839v1.419H48Z" transform="translate(-43.742 -145.806)" fill="#fff"/><path d="M41.871,11.355A2.132,2.132,0,0,0,44,9.226v-7.1A2.132,2.132,0,0,0,41.871,0H31.935a2.132,2.132,0,0,0-2.129,2.129v7.1a2.132,2.132,0,0,0,2.129,2.129h2.129v1.419H32.645v1.419h3.548v7.1H33.265a4.962,4.962,0,0,0-2.044-1.209c0-.072,0-.141,0-.211A5.673,5.673,0,0,0,20.767,16.82a5.649,5.649,0,0,0-2.315-.5,5.709,5.709,0,0,0-5.306,3.662,4.934,4.934,0,0,0-1.5.6H6.387V18.452H9.226a2.132,2.132,0,0,0,2.129-2.129V2.129A2.132,2.132,0,0,0,9.226,0h-7.1A2.132,2.132,0,0,0,0,2.129V16.323a2.132,2.132,0,0,0,2.129,2.129H4.968V22h5.171a4.94,4.94,0,0,0-.69,1.419H6.387v7.806H3.548a2.132,2.132,0,0,0-2.129,2.129v6.387H0v2.129A2.132,2.132,0,0,0,2.129,44H13.484a2.132,2.132,0,0,0,2.129-2.129V39.742H14.194V33.355a2.132,2.132,0,0,0-2.129-2.129H7.806V24.839H9.226a4.974,4.974,0,0,0,4.968,4.968H29.806a4.971,4.971,0,0,0,4.911-4.258h2.9v5.677H32.645V44H44V31.226H39.032v-7.1H34.715a4.912,4.912,0,0,0-.441-1.419h3.34V14.194h3.548V12.774H39.742V11.355Zm-31.935,0H1.419v-7.1H9.935ZM2.129,1.419h7.1a.71.71,0,0,1,.71.71v.71H1.419v-.71A.71.71,0,0,1,2.129,1.419Zm-.71,14.9V12.774H9.935v3.548a.71.71,0,0,1-.71.71h-7.1A.71.71,0,0,1,1.419,16.323ZM14.194,41.871a.71.71,0,0,1-.71.71H2.129a.71.71,0,0,1-.71-.71v-.71H14.194Zm-1.419-8.516v6.387H2.839V33.355a.71.71,0,0,1,.71-.71h8.516A.71.71,0,0,1,12.774,33.355Zm21.29,9.226V38.323h8.516v4.258ZM42.581,36.9H34.065V32.645h8.516ZM29.806,28.387H14.194a3.547,3.547,0,0,1-.426-7.068l.466-.056.131-.451a4.246,4.246,0,0,1,6.314-2.435l.677.418.338-.722a4.248,4.248,0,0,1,8.056,2.454l-.107.7.7.106a3.546,3.546,0,0,1-.538,7.051ZM31.935,1.419h9.935a.71.71,0,0,1,.71.71V7.1H31.226V2.129A.71.71,0,0,1,31.935,1.419Zm-.71,7.806v-.71H42.581v.71a.71.71,0,0,1-.71.71H31.935A.71.71,0,0,1,31.226,9.226Zm7.1,3.548H35.484V11.355h2.839Z" fill="#fff"/><path d="M400,384h1.419v1.419H400Z" transform="translate(-364.516 -349.935)" fill="#fff"/><path d="M448,448h1.419v1.419H448Z" transform="translate(-408.258 -408.258)" fill="#fff"/><path d="M432,384h2.839v1.419H432Z" transform="translate(-393.677 -349.935)" fill="#fff"/><path d="M400,448h2.839v1.419H400Z" transform="translate(-364.516 -408.258)" fill="#fff"/></svg>