<svg xmlns="http://www.w3.org/2000/svg" xmlns:xlink="http://www.w3.org/1999/xlink" width="22.661" height="19.823" viewBox="0 0 22.661 19.823"><defs><linearGradient id="a" y1="0.5" x2="1" y2="0.5" gradientUnits="objectBoundingBox"><stop offset="0" stop-color="#a57d24"/><stop offset="0.211" stop-color="#d8bd62"/><stop offset="0.328" stop-color="#f1dd80"/><stop offset="0.524" stop-color="#fbf2a8"/><stop offset="0.73" stop-color="#f1dd80"/><stop offset="1" stop-color="#a57d24"/></linearGradient><linearGradient id="c" x1="0" y1="0.5" x2="1" y2="0.5" xlink:href="#a"/><linearGradient id="bj" x1="0.5" y1="1" x2="0.5" y2="0" xlink:href="#a"/></defs><g transform="translate(0 0)"><g transform="translate(0 0)"><g transform="translate(0 0)"><g transform="translate(11.139)"><path d="M818.314,177.127a2.152,2.152,0,0,1,.6,1.188,1.864,1.864,0,0,1-1.836-1.675A2.154,2.154,0,0,1,818.314,177.127Z" transform="translate(-811.71 -176.629)" fill="url(#a)"/><g transform="translate(2.576)"><g transform="translate(0 16.658)"><path d="M700.686,875.839a2.257,2.257,0,0,0-.457,1.224,2.577,2.577,0,0,0,1.328-.866,1.583,1.583,0,0,0,.217-1.24A3.741,3.741,0,0,0,700.686,875.839Z" transform="translate(-700.223 -874.956)" fill="url(#a)"/><path d="M701.108,955.766a1.558,1.558,0,0,1-1.106-.74,5.048,5.048,0,0,1,1.616-.159,2.057,2.057,0,0,1,1.192.563A3.043,3.043,0,0,1,701.108,955.766Z" transform="translate(-700.002 -952.944)" fill="url(#c)"/></g><g transform="translate(1.845 15.804)"><path d="M777.624,840.155a2.218,2.218,0,0,0-.187,1.257,2.4,2.4,0,0,0,1.078-1.059,1.587,1.587,0,0,0-.032-1.236A3.43,3.43,0,0,0,777.624,840.155Z" transform="translate(-777.414 -839.118)" fill="url(#c)"/><path d="M779.134,917.5a1.534,1.534,0,0,1-1.181-.53,4.6,4.6,0,0,1,1.487-.424,2.023,2.023,0,0,1,1.24.343A2.846,2.846,0,0,1,779.134,917.5Z" transform="translate(-777.94 -914.697)" fill="url(#c)"/></g><g transform="translate(3.367 14.742)"><path d="M841.3,795.727a2.2,2.2,0,0,0,.062,1.248,2.31,2.31,0,0,0,.829-1.208,1.588,1.588,0,0,0-.258-1.193A3.253,3.253,0,0,0,841.3,795.727Z" transform="translate(-841.24 -794.574)" fill="url(#c)"/><path d="M847.108,865.518a1.507,1.507,0,0,1-1.226-.312,4.3,4.3,0,0,1,1.341-.664,1.993,1.993,0,0,1,1.258.119A2.744,2.744,0,0,1,847.108,865.518Z" transform="translate(-845.771 -862.824)" fill="url(#c)"/></g><g transform="translate(4.573 13.51)"><path d="M891.838,744.123a2.181,2.181,0,0,0,.287,1.2,2.276,2.276,0,0,0,.583-1.316,1.575,1.575,0,0,0-.462-1.115A3.161,3.161,0,0,0,891.838,744.123Z" transform="translate(-891.833 -742.892)" fill="url(#c)"/><path d="M904.6,801.869a1.482,1.482,0,0,1-1.241-.092,4.133,4.133,0,0,1,1.177-.876,1.97,1.97,0,0,1,1.244-.1A2.711,2.711,0,0,1,904.6,801.869Z" transform="translate(-903.082 -799.364)" fill="url(#c)"/></g><g transform="translate(5.477 12.145)"><path d="M929.789,686.918a2.146,2.146,0,0,0,.49,1.118,2.272,2.272,0,0,0,.34-1.384,1.551,1.551,0,0,0-.641-1.007A3.107,3.107,0,0,0,929.789,686.918Z" transform="translate(-929.779 -685.645)" fill="url(#c)"/><path d="M951.17,728.487a1.466,1.466,0,0,1-1.225.128,4.077,4.077,0,0,1,1-1.06,1.965,1.965,0,0,1,1.2-.321A2.715,2.715,0,0,1,951.17,728.487Z" transform="translate(-949.465 -726.237)" fill="url(#c)"/></g><g transform="translate(6.068 10.685)"><path d="M954.644,625.694a2.1,2.1,0,0,0,.669,1.005,2.277,2.277,0,0,0,.1-1.414,1.52,1.52,0,0,0-.8-.873A3.09,3.09,0,0,0,954.644,625.694Z" transform="translate(-954.56 -624.413)" fill="url(#c)"/><path d="M986.39,648.28a1.462,1.462,0,0,1-1.176.342,4.079,4.079,0,0,1,.8-1.213,1.975,1.975,0,0,1,1.121-.528A2.739,2.739,0,0,1,986.39,648.28Z" transform="translate(-984.483 -646.345)" fill="url(#c)"/></g><g transform="translate(6.318 9.168)"><path d="M965.309,562.038a2.053,2.053,0,0,0,.822.867,2.278,2.278,0,0,0-.138-1.407,1.49,1.49,0,0,0-.926-.717A3.1,3.1,0,0,0,965.309,562.038Z" transform="translate(-965.068 -560.782)" fill="url(#c)"/><path d="M1009.821,564.922a1.468,1.468,0,0,1-1.1.546,4.146,4.146,0,0,1,.578-1.333,1.992,1.992,0,0,1,1.009-.722A2.769,2.769,0,0,1,1009.821,564.922Z" transform="translate(-1007.685 -563.35)" fill="url(#c)"/></g><g transform="translate(6.251 7.222)"><path d="M962.709,497.545a2.007,2.007,0,0,0,.95.708,2.28,2.28,0,0,0-.372-1.364,1.464,1.464,0,0,0-1.029-.544A3.148,3.148,0,0,0,962.709,497.545Z" transform="translate(-962.258 -495.934)" fill="url(#c)"/><path d="M1021.024,480.726a1.476,1.476,0,0,1-.981.735,4.273,4.273,0,0,1,.341-1.421,2.013,2.013,0,0,1,.864-.9A2.8,2.8,0,0,1,1021.024,480.726Z" transform="translate(-1018.666 -479.145)" fill="url(#c)"/></g><g transform="translate(5.913 5.244)"><path d="M948.726,433.521a1.969,1.969,0,0,0,1.053.531,2.3,2.3,0,0,0-.6-1.288,1.445,1.445,0,0,0-1.105-.358A3.251,3.251,0,0,0,948.726,433.521Z" transform="translate(-948.071 -431.536)" fill="url(#c)"/><path d="M1018.484,397.792a1.48,1.48,0,0,1-.833.905,4.467,4.467,0,0,1,.085-1.472,2.033,2.033,0,0,1,.683-1.048A2.844,2.844,0,0,1,1018.484,397.792Z" transform="translate(-1015.967 -396.178)" fill="url(#c)"/></g><g transform="translate(5.294 3.348)"><path d="M922.962,370.2a1.94,1.94,0,0,0,1.128.342,2.35,2.35,0,0,0-.829-1.18,1.431,1.431,0,0,0-1.154-.164A3.422,3.422,0,0,0,922.962,370.2Z" transform="translate(-922.107 -367.886)" fill="url(#c)"/><path d="M996.916,318.227a1.482,1.482,0,0,1-.649,1.052,4.755,4.755,0,0,1-.19-1.486,2.05,2.05,0,0,1,.467-1.172A2.923,2.923,0,0,1,996.916,318.227Z" transform="translate(-994.307 -316.622)" fill="url(#c)"/></g><g transform="translate(4.385 1.583)"><path d="M885.017,309.106a1.914,1.914,0,0,0,1.175.145,2.458,2.458,0,0,0-1.051-1.041,1.414,1.414,0,0,0-1.174.034A3.7,3.7,0,0,0,885.017,309.106Z" transform="translate(-883.967 -306.537)" fill="url(#c)"/><path d="M956.281,244.142a1.478,1.478,0,0,1-.43,1.172,5.2,5.2,0,0,1-.485-1.461,2.086,2.086,0,0,1,.214-1.264A3.082,3.082,0,0,1,956.281,244.142Z" transform="translate(-953.646 -242.588)" fill="url(#c)"/></g><g transform="translate(3.176)"><path d="M834.493,252.14a1.883,1.883,0,0,0,1.194-.056,2.646,2.646,0,0,0-1.269-.874,1.387,1.387,0,0,0-1.165.232A4.091,4.091,0,0,0,834.493,252.14Z" transform="translate(-833.253 -249.383)" fill="url(#c)"/><path d="M896.276,177.653a1.486,1.486,0,0,1-.174,1.259,5.909,5.909,0,0,1-.8-1.4,2.173,2.173,0,0,1-.075-1.32A3.376,3.376,0,0,1,896.276,177.653Z" transform="translate(-893.685 -176.196)" fill="url(#c)"/></g></g><g transform="translate(0 1.192)"><path d="M591.953,243.993l.013-.142a8.738,8.738,0,0,0,3.477-.389,9.207,9.207,0,0,0,3.04-1.665,9.673,9.673,0,0,0,3.439-6.253,11.719,11.719,0,0,0-.4-5.37,7.164,7.164,0,0,0-3.032-3.836l.075-.121a7.3,7.3,0,0,1,3.091,3.91,11.857,11.857,0,0,1,.411,5.435,9.816,9.816,0,0,1-3.489,6.344,9.349,9.349,0,0,1-3.087,1.69A8.879,8.879,0,0,1,591.953,243.993Z" transform="translate(-591.953 -226.218)" fill="url(#c)"/></g></g><path d="M306.488,177.127a2.153,2.153,0,0,0-.6,1.188,1.864,1.864,0,0,0,1.836-1.675A2.153,2.153,0,0,0,306.488,177.127Z" transform="translate(-301.57 -176.629)" fill="url(#c)"/><g transform="translate(6.138 16.658)"><path d="M434.227,875.839a2.255,2.255,0,0,1,.457,1.224,2.577,2.577,0,0,1-1.328-.866,1.583,1.583,0,0,1-.217-1.24A3.741,3.741,0,0,1,434.227,875.839Z" transform="translate(-431.881 -874.956)" fill="url(#c)"/><path d="M383.87,955.766a1.558,1.558,0,0,0,1.106-.74,5.048,5.048,0,0,0-1.616-.159,2.057,2.057,0,0,0-1.192.563A3.043,3.043,0,0,0,383.87,955.766Z" transform="translate(-382.167 -952.944)" fill="url(#c)"/></g><g transform="translate(4.361 15.804)"><path d="M372.7,840.155a2.216,2.216,0,0,1,.187,1.257,2.4,2.4,0,0,1-1.077-1.059,1.586,1.586,0,0,1,.032-1.236A3.434,3.434,0,0,1,372.7,840.155Z" transform="translate(-370.169 -839.118)" fill="url(#c)"/><path d="M309.161,917.5a1.535,1.535,0,0,0,1.181-.53,4.6,4.6,0,0,0-1.487-.424,2.023,2.023,0,0,0-1.24.343A2.845,2.845,0,0,0,309.161,917.5Z" transform="translate(-307.614 -914.697)" fill="url(#c)"/></g><g transform="translate(2.87 14.742)"><path d="M318.416,795.727a2.2,2.2,0,0,1-.062,1.248,2.31,2.31,0,0,1-.829-1.208,1.587,1.587,0,0,1,.259-1.193A3.255,3.255,0,0,1,318.416,795.727Z" transform="translate(-315.769 -794.574)" fill="url(#c)"/><path d="M246.457,865.518a1.507,1.507,0,0,0,1.226-.312,4.3,4.3,0,0,0-1.341-.664,1.992,1.992,0,0,0-1.258.119A2.743,2.743,0,0,0,246.457,865.518Z" transform="translate(-245.084 -862.824)" fill="url(#c)"/></g><g transform="translate(1.678 13.51)"><path d="M272.3,744.123a2.179,2.179,0,0,1-.287,1.2,2.278,2.278,0,0,1-.583-1.316,1.575,1.575,0,0,1,.462-1.115A3.157,3.157,0,0,1,272.3,744.123Z" transform="translate(-269.604 -742.892)" fill="url(#c)"/><path d="M196.232,801.869a1.482,1.482,0,0,0,1.241-.092,4.136,4.136,0,0,0-1.177-.876,1.971,1.971,0,0,0-1.244-.1A2.711,2.711,0,0,0,196.232,801.869Z" transform="translate(-195.051 -799.364)" fill="url(#c)"/></g><g transform="translate(0.794 12.145)"><path d="M235.1,686.918a2.146,2.146,0,0,1-.49,1.118,2.273,2.273,0,0,1-.34-1.384,1.552,1.552,0,0,1,.642-1.007A3.11,3.11,0,0,1,235.1,686.918Z" transform="translate(-232.433 -685.645)" fill="url(#c)"/><path d="M158.96,728.487a1.466,1.466,0,0,0,1.225.128,4.073,4.073,0,0,0-1-1.06,1.965,1.965,0,0,0-1.2-.321A2.716,2.716,0,0,0,158.96,728.487Z" transform="translate(-157.99 -726.237)" fill="url(#c)"/></g><g transform="translate(0.231 10.685)"><path d="M207.3,625.694a2.1,2.1,0,0,1-.668,1.005,2.274,2.274,0,0,1-.1-1.414,1.52,1.52,0,0,1,.8-.873A3.091,3.091,0,0,1,207.3,625.694Z" transform="translate(-204.732 -624.413)" fill="url(#c)"/><path d="M135.119,648.28a1.462,1.462,0,0,0,1.176.342,4.082,4.082,0,0,0-.8-1.213,1.975,1.975,0,0,0-1.121-.528A2.74,2.74,0,0,0,135.119,648.28Z" transform="translate(-134.378 -646.345)" fill="url(#c)"/></g><g transform="translate(0 9.168)"><path d="M188.912,562.038a2.054,2.054,0,0,1-.822.867,2.277,2.277,0,0,1,.138-1.407,1.49,1.49,0,0,1,.926-.717A3.1,3.1,0,0,1,188.912,562.038Z" transform="translate(-186.525 -560.782)" fill="url(#c)"/><path d="M125.167,564.922a1.467,1.467,0,0,0,1.1.546,4.151,4.151,0,0,0-.578-1.333,1.992,1.992,0,0,0-1.009-.722A2.769,2.769,0,0,0,125.167,564.922Z" transform="translate(-124.675 -563.35)" fill="url(#c)"/></g><g transform="translate(0.083 7.222)"><path d="M179.776,497.545a2.006,2.006,0,0,1-.95.708,2.281,2.281,0,0,1,.372-1.364,1.464,1.464,0,0,1,1.029-.544A3.149,3.149,0,0,1,179.776,497.545Z" transform="translate(-177.614 -495.934)" fill="url(#c)"/><path d="M128.425,480.726a1.476,1.476,0,0,0,.981.735,4.272,4.272,0,0,0-.341-1.421,2.013,2.013,0,0,0-.864-.9A2.8,2.8,0,0,0,128.425,480.726Z" transform="translate(-128.172 -479.145)" fill="url(#c)"/></g><g transform="translate(0.421 5.244)"><path d="M181.336,433.521a1.969,1.969,0,0,1-1.053.531,2.3,2.3,0,0,1,.6-1.288,1.445,1.445,0,0,1,1.105-.358A3.246,3.246,0,0,1,181.336,433.521Z" transform="translate(-179.379 -431.536)" fill="url(#c)"/><path d="M142.431,397.792a1.481,1.481,0,0,0,.832.905,4.46,4.46,0,0,0-.085-1.472,2.032,2.032,0,0,0-.683-1.048A2.843,2.843,0,0,0,142.431,397.792Z" transform="translate(-142.336 -396.178)" fill="url(#c)"/></g><g transform="translate(1.027 3.348)"><path d="M195.839,370.2a1.94,1.94,0,0,1-1.128.342,2.352,2.352,0,0,1,.829-1.18,1.431,1.431,0,0,1,1.154-.164A3.421,3.421,0,0,1,195.839,370.2Z" transform="translate(-194.069 -367.886)" fill="url(#c)"/><path d="M167.755,318.227a1.482,1.482,0,0,0,.649,1.052,4.753,4.753,0,0,0,.19-1.486,2.05,2.05,0,0,0-.467-1.172A2.925,2.925,0,0,0,167.755,318.227Z" transform="translate(-167.738 -316.622)" fill="url(#c)"/></g><g transform="translate(1.924 1.583)"><path d="M223.852,309.106a1.914,1.914,0,0,1-1.175.145,2.457,2.457,0,0,1,1.051-1.041,1.414,1.414,0,0,1,1.174.034A3.7,3.7,0,0,1,223.852,309.106Z" transform="translate(-222.264 -306.537)" fill="url(#c)"/><path d="M205.372,244.142a1.479,1.479,0,0,0,.43,1.172,5.2,5.2,0,0,0,.485-1.461,2.087,2.087,0,0,0-.215-1.264A3.084,3.084,0,0,0,205.372,244.142Z" transform="translate(-205.369 -242.588)" fill="url(#c)"/></g><g transform="translate(3.116)"><path d="M265.817,252.14a1.883,1.883,0,0,1-1.194-.056,2.645,2.645,0,0,1,1.269-.874,1.387,1.387,0,0,1,1.165.232A4.09,4.09,0,0,1,265.817,252.14Z" transform="translate(-264.403 -249.383)" fill="url(#c)"/><path d="M255.456,177.653a1.486,1.486,0,0,0,.174,1.259,5.91,5.91,0,0,0,.8-1.4,2.173,2.173,0,0,0,.075-1.32A3.376,3.376,0,0,0,255.456,177.653Z" transform="translate(-255.392 -176.196)" fill="url(#c)"/></g><g transform="translate(1.28 1.192)"><path d="M188.6,243.993l-.013-.142a8.738,8.738,0,0,1-3.477-.389,9.206,9.206,0,0,1-3.04-1.665,9.673,9.673,0,0,1-3.439-6.253,11.719,11.719,0,0,1,.4-5.37,7.164,7.164,0,0,1,3.032-3.836l-.075-.121a7.3,7.3,0,0,0-3.091,3.91,11.859,11.859,0,0,0-.411,5.435,9.815,9.815,0,0,0,3.489,6.344,9.349,9.349,0,0,0,3.087,1.69A8.879,8.879,0,0,0,188.6,243.993Z" transform="translate(-178.358 -226.218)" fill="url(#c)"/></g><path d="M554.214,941.433l-1.075.79,1.075.791,1.075-.791Z" transform="translate(-542.925 -923.19)" fill="url(#c)"/></g><g transform="translate(5.316 11.118)"><g transform="translate(0)"><path d="M348.28,644.137h-.568l0,0,.007-.042.012-.009c.019,0,.04,0,.065,0a.125.125,0,0,0,.058-.018.132.132,0,0,0,.035-.044.262.262,0,0,0,.023-.091c0-.011,0-.024,0-.038s0-.033,0-.055,0-.048,0-.079v-.831q0-.06,0-.118a.2.2,0,0,0-.022-.089.2.2,0,0,0-.036-.044.183.183,0,0,0-.043-.018.373.373,0,0,0-.081-.006l-.012-.009-.007-.042,0-.009.043,0,.056,0,.06,0,.056,0h.318a1,1,0,0,1,.265.03.473.473,0,0,1,.176.086.337.337,0,0,1,.1.134.456.456,0,0,1,.032.172.408.408,0,0,1-.056.223.412.412,0,0,1-.144.138.593.593,0,0,1-.2.069,1.248,1.248,0,0,1-.211.019h-.131v.133q0,.07,0,.133t0,.115c0,.034,0,.059,0,.075a.2.2,0,0,0,.023.095.2.2,0,0,0,.033.039.188.188,0,0,0,.043.018.389.389,0,0,0,.083.006l.009.009.007.042Zm.012-.769a.374.374,0,0,0,.28-.089.342.342,0,0,0,.084-.245.293.293,0,0,0-.1-.241.406.406,0,0,0-.265-.079h-.2q0,.068-.006.114c0,.031,0,.059,0,.082s0,.044,0,.063v.309a.388.388,0,0,0,0,.048.04.04,0,0,0,.012.026.05.05,0,0,0,.027.01l.048,0Z" transform="translate(-347.707 -642.587)" fill="url(#c)"/><path d="M411.9,644.137h-.568l0,0,.007-.042.012-.009c.019,0,.04,0,.065,0a.125.125,0,0,0,.058-.018.131.131,0,0,0,.035-.044.26.26,0,0,0,.023-.091c0-.011,0-.024,0-.038s0-.033,0-.055,0-.048,0-.079v-.725q0-.047,0-.106t-.006-.118a.23.23,0,0,0-.021-.085.164.164,0,0,0-.035-.048.184.184,0,0,0-.043-.018.372.372,0,0,0-.081-.006l-.012-.009-.007-.042,0-.009.043,0,.056,0,.06,0,.056,0h.318a1,1,0,0,1,.265.03.508.508,0,0,1,.176.083.315.315,0,0,1,.1.126.4.4,0,0,1,.031.158.391.391,0,0,1-.036.174.432.432,0,0,1-.092.126.459.459,0,0,1-.126.084.786.786,0,0,1-.138.048q.075.105.154.208t.164.2c.031.036.06.068.086.1a.5.5,0,0,0,.085.072.421.421,0,0,0,.1.049.675.675,0,0,0,.135.028l.014.009,0,.042,0,.014h-.22a.356.356,0,0,1-.105-.014.308.308,0,0,1-.087-.044.522.522,0,0,1-.085-.079c-.029-.033-.062-.071-.1-.116,0,0-.018-.023-.041-.055l-.082-.114-.1-.142-.1-.141H411.7v.138c0,.05,0,.1,0,.143s0,.086,0,.123,0,.063,0,.078a.163.163,0,0,0,.056.133.184.184,0,0,0,.043.018.386.386,0,0,0,.083.006l.009.009.007.042Zm.012-.795a.371.371,0,0,0,.279-.09.337.337,0,0,0,.085-.242.264.264,0,0,0-.1-.22.415.415,0,0,0-.265-.077h-.2q0,.068-.006.114c0,.031,0,.059,0,.082s0,.044,0,.063v.283a.377.377,0,0,0,0,.048.041.041,0,0,0,.012.026.05.05,0,0,0,.027.01l.048,0Z" transform="translate(-409.815 -642.587)" fill="url(#c)"/><path d="M484.354,642.881h.393l.012.021-.009.254h-.058l-.009-.01a.524.524,0,0,0-.013-.085.068.068,0,0,0-.047-.045.356.356,0,0,0-.116-.014h-.442l0,.09q0,.037,0,.062t0,.062q0,.037,0,.089v.251h.268a.487.487,0,0,0,.1-.008.1.1,0,0,0,.054-.025.36.36,0,0,0,.033-.038.09.09,0,0,0,.014-.055l.012-.011.04,0,.009,0-.008.093c0,.026,0,.057,0,.091s0,.072,0,.1.005.067.008.1l-.009,0-.042,0-.009-.007a.173.173,0,0,0-.014-.07.2.2,0,0,0-.033-.053.1.1,0,0,0-.054-.021.552.552,0,0,0-.1-.007h-.269v.362q0,.052,0,.093t0,.075q0,.034.007.078c0,.029.016.044.047.044h.2q.14,0,.221-.006a.383.383,0,0,0,.123-.025.113.113,0,0,0,.06-.057.63.63,0,0,0,.034-.1l.009-.009h.061l-.042.295-.019.023h-1.07l0,0,.007-.042.012-.009a.65.65,0,0,0,.07,0,.1.1,0,0,0,.054-.02.219.219,0,0,0,.036-.042.2.2,0,0,0,.022-.091q0-.016,0-.039c0-.015,0-.033,0-.055s0-.048,0-.079v-.825c0-.026,0-.049,0-.068s0-.037,0-.056a.2.2,0,0,0-.022-.09.211.211,0,0,0-.036-.043.1.1,0,0,0-.054-.02.65.65,0,0,0-.07,0l-.012-.009-.007-.042,0,0h.668Z" transform="translate(-480.44 -642.874)" fill="url(#c)"/><path d="M549.682,644.329h-.568l-.007,0,.007-.042.009-.009a.663.663,0,0,0,.071,0,.092.092,0,0,0,.053-.02.215.215,0,0,0,.032-.042.193.193,0,0,0,.015-.091v-.039c0-.015,0-.033,0-.055s0-.048,0-.079,0-.07-.007-.117q-.019-.245-.029-.392t-.018-.228q-.007-.082-.01-.117l-.006-.058-.051.13-.081.2-.1.242-.1.255-.1.238-.078.192h-.11l-.467-1.253c0,.016,0,.032,0,.049s0,.038,0,.062,0,.052-.006.084-.005.071-.008.118l-.033.43c0,.053-.008.1-.009.131s0,.064,0,.089,0,.046,0,.063v.054a.193.193,0,0,0,.015.091.169.169,0,0,0,.034.042.081.081,0,0,0,.043.02.436.436,0,0,0,.062,0l.009.009.007.042,0,.009h-.048l-.064,0-.064,0H547.7l0,0,.007-.042.014-.009a.606.606,0,0,0,.068,0,.117.117,0,0,0,.056-.02.3.3,0,0,0,.039-.042.2.2,0,0,0,.029-.091c0-.011,0-.024,0-.039l.006-.055c0-.022.005-.048.008-.079s.006-.07.009-.117l.033-.475c0-.054.008-.1.01-.138s0-.069,0-.1,0-.049,0-.068,0-.037,0-.056a.162.162,0,0,0-.02-.092.2.2,0,0,0-.039-.041.1.1,0,0,0-.054-.02.651.651,0,0,0-.07,0l-.012-.009-.007-.042,0,0h.4l.055,0,.012.007a.393.393,0,0,0,.018.081q.015.05.037.113l.048.134.051.141.159.432q.04.112.072.19l.058.139c0-.008.018-.038.04-.09l.081-.194q.048-.116.1-.254t.1-.27q.049-.132.084-.244a1.206,1.206,0,0,0,.044-.178l.012-.009.04,0h.386l0,0-.007.042-.012.009a.675.675,0,0,0-.071,0,.093.093,0,0,0-.053.02.188.188,0,0,0-.038.042.161.161,0,0,0-.02.091q0,.033,0,.061c0,.019,0,.041,0,.065s0,.055,0,.091.006.082.01.138l.028.43c0,.056.008.1.011.137s0,.064.007.088,0,.043.007.06.005.034.008.053a.212.212,0,0,0,.028.091.254.254,0,0,0,.037.042.105.105,0,0,0,.055.02.662.662,0,0,0,.071,0l.012.009.007.042Z" transform="translate(-542.931 -642.779)" fill="url(#c)"/><path d="M648.173,642.883l-.007.042-.009.009a.682.682,0,0,0-.071,0,.1.1,0,0,0-.055.02A.191.191,0,0,0,648,643a.211.211,0,0,0-.021.091c0,.022,0,.042,0,.061s0,.041,0,.065,0,.055,0,.091v.7c0,.035,0,.064,0,.088s0,.043,0,.06,0,.034,0,.053a.211.211,0,0,0,.021.091.188.188,0,0,0,.035.042.1.1,0,0,0,.055.02.682.682,0,0,0,.071,0l.009.009.007.042,0,0H647.6l0,0,.007-.042.012-.009a.649.649,0,0,0,.07,0,.1.1,0,0,0,.054-.02.217.217,0,0,0,.036-.042.2.2,0,0,0,.022-.091c0-.011,0-.024,0-.039s0-.033,0-.055,0-.048,0-.079v-.729c0-.037,0-.069,0-.1s0-.049,0-.068,0-.037,0-.056a.219.219,0,0,0-.021-.089.179.179,0,0,0-.035-.044.1.1,0,0,0-.054-.02.649.649,0,0,0-.07,0l-.012-.009-.007-.042,0,0h.568Z" transform="translate(-640.448 -642.874)" fill="url(#c)"/><path d="M689.946,642.6l-.007.042-.009.009a.677.677,0,0,0-.071,0,.1.1,0,0,0-.055.02.191.191,0,0,0-.035.042.208.208,0,0,0-.021.091c0,.019,0,.037,0,.056s0,.041,0,.068,0,.058,0,.1v.587a.66.66,0,0,1-.034.214.467.467,0,0,1-.1.173.486.486,0,0,1-.177.116.674.674,0,0,1-.249.042.8.8,0,0,1-.277-.042.476.476,0,0,1-.183-.116.441.441,0,0,1-.1-.173.7.7,0,0,1-.031-.214v-.682c0-.026,0-.049,0-.068s0-.037,0-.056a.2.2,0,0,0-.022-.09.207.207,0,0,0-.036-.043.1.1,0,0,0-.054-.02.649.649,0,0,0-.07,0l-.012-.009-.007-.042,0,0h.568l0,0-.007.042-.009.009a.677.677,0,0,0-.071,0,.1.1,0,0,0-.055.02.191.191,0,0,0-.035.042.21.21,0,0,0-.021.091c0,.022,0,.042,0,.061s0,.041,0,.065,0,.055,0,.091v.524a.488.488,0,0,0,.113.362.507.507,0,0,0,.63,0,.486.486,0,0,0,.115-.362v-.524c0-.036,0-.066,0-.091s0-.047,0-.065,0-.039,0-.061a.2.2,0,0,0-.022-.091.214.214,0,0,0-.036-.042.091.091,0,0,0-.053-.02.682.682,0,0,0-.071,0l-.012-.009-.007-.042,0-.009.049,0a.606.606,0,0,0,.069,0h.419Z" transform="translate(-680.257 -642.587)" fill="url(#c)"/><path d="M770.947,644.329h-.568l-.007,0,.007-.042.009-.009a.663.663,0,0,0,.071,0,.092.092,0,0,0,.053-.02.215.215,0,0,0,.031-.042.2.2,0,0,0,.015-.091v-.039q0-.022,0-.055c0-.022,0-.048,0-.079s0-.07-.007-.117q-.019-.245-.029-.392t-.018-.228c0-.055-.008-.094-.01-.117l-.006-.058-.051.13-.081.2-.1.242-.1.255-.1.238-.078.192h-.11l-.467-1.253c0,.016,0,.032,0,.049s0,.038,0,.062,0,.052-.006.084-.005.071-.008.118l-.033.43c0,.053-.008.1-.009.131s0,.064,0,.089,0,.046,0,.063v.054a.193.193,0,0,0,.015.091.173.173,0,0,0,.034.042.081.081,0,0,0,.043.02.435.435,0,0,0,.062,0l.009.009.007.042,0,.009h-.048l-.064,0-.064,0h-.352l0,0,.007-.042.014-.009a.612.612,0,0,0,.068,0,.117.117,0,0,0,.056-.02.3.3,0,0,0,.039-.042.2.2,0,0,0,.029-.091c0-.011,0-.024,0-.039l.006-.055q0-.033.008-.079c0-.031.006-.07.009-.117l.033-.475c0-.054.008-.1.01-.138s0-.069,0-.1,0-.049,0-.068,0-.037,0-.056a.161.161,0,0,0-.02-.092.205.205,0,0,0-.039-.041.1.1,0,0,0-.054-.02.651.651,0,0,0-.07,0l-.012-.009-.007-.042,0,0h.4l.055,0,.012.007a.4.4,0,0,0,.018.081c.01.033.023.071.037.113l.048.134.051.141.159.432q.04.112.072.19l.058.139c0-.008.018-.038.04-.09l.081-.194q.048-.116.1-.254t.1-.27q.049-.132.084-.244a1.206,1.206,0,0,0,.044-.178l.012-.009.04,0h.385l0,0-.007.042-.012.009a.681.681,0,0,0-.071,0,.092.092,0,0,0-.053.02.186.186,0,0,0-.039.042.162.162,0,0,0-.02.091c0,.022,0,.042,0,.061s0,.041,0,.065,0,.055,0,.091.006.082.011.138l.028.43c0,.056.008.1.01.137s0,.064.007.088,0,.043.007.06.005.034.008.053a.213.213,0,0,0,.028.091.246.246,0,0,0,.037.042.1.1,0,0,0,.055.02.668.668,0,0,0,.071,0l.012.009.007.042Z" transform="translate(-758.922 -642.779)" fill="url(#c)"/></g></g><g transform="translate(7.832 3.383)"><path d="M463.71,324.425l-2.515-.125-.9-2.354-.9,2.354-2.515.125,1.962,1.58-.659,2.431,2.108-1.378,2.108,1.378L461.748,326Zm-1.411,3.862,0,0-2-2.69v1.385h0l-2,1.306,2-2.69-1.376.387v0l-1.858-1.5L460.3,325.6l-.851-1.232h0l.85-2.233h0V325.6l.851-1.232,2.386.118,0,0L460.3,325.6l1.376.387Z" transform="translate(-456.8 -321.854)" fill="url(#c)"/><path d="M458.888,324.754l-2.162-1.413-2.162,1.413.675-2.493-2.012-1.62,2.58-.128.919-2.414.919,2.414,2.58.128-2.012,1.62Zm-.108-.148h0Zm0,0-.4-1.481Zm-4.109,0,2.055-1.342,1.984,1.3-.008-.005-1.943-2.616v1.3Zm-.59-3.361,1.232.992-.006.021-.613,2.262,1.948-2.622-1.339.376.01-.036Zm2.612.694-1.83,2.464,1.83-1.2Zm.116-.041,1.841,2.479-.575-2.123Zm.026-.06,1.293.363.01.037.017-.013,1.82-1.466-.005,0Zm-3.177-1.016,1.7,1.37,1.257-.353Zm-.169-.127.014,0,3.139,1.079-.828-1.2Zm4.1-.052-.785,1.136,2.987-1.026Zm-.835-2.273v3.367l.8-1.161.038,0-.008-.02Zm-.847,2.236.781,1.131v-3.184Zm4.138.094-.07.056.07-.056Z" transform="translate(-453.227 -318.099)" fill="url(#bj)"/></g></g></g></svg>