<svg xmlns="http://www.w3.org/2000/svg" width="50" height="47.886" viewBox="0 0 50 47.886"><g transform="translate(-1 -12)"><path d="M219.19,352H216.6v3.451h2.588a1.726,1.726,0,0,0,0-3.451Z" transform="translate(-192.349 -303.331)" fill="#fff"/><path d="M216.6,304v3.451h2.588a1.726,1.726,0,0,0,0-3.451Z" transform="translate(-192.349 -260.507)" fill="#fff"/><path d="M24.826,172.274a12.142,12.142,0,0,0,.3-2.647h-6.37l-2.319,4.638-2.5-5.835L10.265,177.6l-2.671-10.68-1.783,3.567h-4.8a11.978,11.978,0,0,0,.819,3.563V189.04a.863.863,0,0,0,.863.863h0a.863.863,0,0,0,.863-.863V177.056a12.14,12.14,0,0,0,1.726,1.79v13.644a.863.863,0,0,0,.863.863h0A.863.863,0,0,0,7,192.491V180.062a11.98,11.98,0,0,0,1.726.829v15.914a.863.863,0,0,0,.863.863h0a.863.863,0,0,0,.863-.863V181.414a12,12,0,0,0,2.429.284A13.824,13.824,0,0,1,24.826,172.274Z" transform="translate(-0.007 -138.213)" fill="#fff"/><path d="M8.13,23.764l2.506,10.028,3.234-8.084,2.676,6.244,1.132-2.264h7.3a12.008,12.008,0,0,0-1.587-4.446V12.863A.863.863,0,0,0,22.526,12h0a.863.863,0,0,0-.863.863V22.984a12.188,12.188,0,0,0-1.726-1.463V14.588a.863.863,0,0,0-.863-.863h0a.863.863,0,0,0-.863.863v5.92A12.052,12.052,0,0,0,1,30.55H4.737Z" fill="#fff"/><path d="M132.681,232a12.079,12.079,0,1,0,12.079,12.079A12.092,12.092,0,0,0,132.681,232Zm0,22.433a10.352,10.352,0,0,1-7.954-16.979l1.325,1.105A8.626,8.626,0,0,0,138.2,250.709l1.105,1.325A10.356,10.356,0,0,1,132.681,254.433ZM137,241.491a3.443,3.443,0,0,1-1.171,2.588,3.45,3.45,0,0,1-2.28,6.04v1.726h-1.726v-1.726H129.23V238.04h2.588v-1.726h1.726v1.726A3.455,3.455,0,0,1,137,241.491Zm3.64,9.213-1.325-1.105a8.626,8.626,0,0,0-12.148-12.149l-1.105-1.325A10.351,10.351,0,0,1,140.635,250.7Z" transform="translate(-106.703 -196.273)" fill="#fff"/><path d="M320.032,151.87v-5.444l-2.97,4.454Z" transform="translate(-281.974 -119.928)" fill="#fff"/><path d="M326.392,210.263V207.7l-2.2-.734Z" transform="translate(-288.335 -173.934)" fill="#fff"/><path d="M360.6,146.426v5.444l2.97-.99Z" transform="translate(-320.819 -119.928)" fill="#fff"/><path d="M264.761,31.413a12.051,12.051,0,0,0-17.256-10.9V14.588a.863.863,0,0,0-.863-.863h0a.863.863,0,0,0-.863.863v6.926a12.121,12.121,0,0,0-1.726,1.461V12.863A.863.863,0,0,0,243.19,12h0a.863.863,0,0,0-.863.863V25.224a11.984,11.984,0,0,0-1.726,6.19,12.124,12.124,0,0,0,.3,2.647,13.824,13.824,0,0,1,11.942,9.424,12.112,12.112,0,0,0,2.429-.28V58.591a.863.863,0,0,0,.863.863h0a.863.863,0,0,0,.863-.863V42.674a12.03,12.03,0,0,0,1.726-.819V54.278a.863.863,0,0,0,.863.863h0a.863.863,0,0,0,.863-.863V40.652a12.213,12.213,0,0,0,1.726-1.792V50.826a.863.863,0,0,0,.863.863h0a.863.863,0,0,0,.863-.863V35.873A12.005,12.005,0,0,0,264.761,31.413Zm-12.079,9.321-6.214-9.321,6.214-9.32,6.214,9.321Z" transform="translate(-213.761)" fill="#fff"/><path d="M360.6,210.263l2.2-3.3-2.2.734Z" transform="translate(-320.819 -173.934)" fill="#fff"/></g></svg>