<svg xmlns="http://www.w3.org/2000/svg" width="12.929" height="7" viewBox="0 0 12.929 7"><g transform="translate(-606.516 -2939.007)"><g transform="translate(606.516 2939.007)"><path d="M12.707,3.22A9.621,9.621,0,0,0,10.98,1.611,7.684,7.684,0,0,0,6.465,0,7.684,7.684,0,0,0,1.95,1.611,9.621,9.621,0,0,0,.222,3.22L0,3.5l.222.28A9.621,9.621,0,0,0,1.95,5.389,7.673,7.673,0,0,0,6.465,7,7.684,7.684,0,0,0,10.98,5.389,9.733,9.733,0,0,0,12.707,3.78l.222-.28ZM6.465,5.952A2.451,2.451,0,0,1,4.091,2.886L3.53,2.793a2.978,2.978,0,0,0-.083.707,3.011,3.011,0,0,0,.967,2.212A8,8,0,0,1,2.505,4.674,9.449,9.449,0,0,1,1.179,3.5,9.449,9.449,0,0,1,2.505,2.326,8,8,0,0,1,4.414,1.288l.376.424a2.451,2.451,0,1,1,1.674,4.24Zm3.96-1.278A8,8,0,0,1,8.515,5.712a3.013,3.013,0,0,0,0-4.424,8,8,0,0,1,1.909,1.038A9.449,9.449,0,0,1,11.75,3.5,9.449,9.449,0,0,1,10.424,4.674Z" fill="#e4b940"/><path d="M191.471,75.154a1.653,1.653,0,0,0-.071.477,1.629,1.629,0,1,0,.5-1.177l.806.907Z" transform="translate(-186.567 -72.131)" fill="#e4b940"/></g></g></svg>