<svg xmlns="http://www.w3.org/2000/svg" xmlns:xlink="http://www.w3.org/1999/xlink" width="202.867" height="103.771" viewBox="0 0 202.867 103.771"><defs><linearGradient id="a" x1="0.146" y1="0.146" x2="0.952" y2="0.974" gradientUnits="objectBoundingBox"><stop offset="0" stop-color="#565a6f"/><stop offset="1" stop-color="#3e4257"/></linearGradient><filter id="b" x="0" y="0" width="202.867" height="103.771" filterUnits="userSpaceOnUse"><feOffset dy="5" input="SourceAlpha"/><feGaussianBlur stdDeviation="5" result="c"/><feFlood flood-opacity="0.294"/><feComposite operator="in" in2="c"/><feComposite in="SourceGraphic"/></filter></defs><g transform="translate(-6.531 -584.376)"><g transform="matrix(1, 0, 0, 1, 6.53, 584.38)" filter="url(#b)"><path d="M566.022,425.192,519.2,356.032a17.246,17.246,0,0,0-14.522-7.873h-9.584l.2,172.867h9.584a17.287,17.287,0,0,0,14.2-7.388l46.626-69.018A17.228,17.228,0,0,0,566.022,425.192Z" transform="translate(536.03 -485.09) rotate(90)" fill="url(#a)"/></g><g transform="translate(39.265 373.741)"><g transform="translate(-0.462)"><g transform="translate(42.666 234.647)"><g transform="translate(0 0)"><path d="M51,234.668a1.192,1.192,0,0,0-1.191,1.191v3.573H45.048v-3.573a1.191,1.191,0,0,0-2.382,0v9.529a1.191,1.191,0,0,0,2.382,0v-3.573h4.765v3.573a1.191,1.191,0,1,0,2.382,0v-9.529A1.192,1.192,0,0,0,51,234.668Z" transform="translate(-42.666 -234.668)" fill="#e4b940"/></g></g><g transform="translate(54.577 234.647)"><g transform="translate(0 0)"><path d="M155.289,234.668h-4.765a1.191,1.191,0,1,0,0,2.382h1.191v8.338a1.191,1.191,0,1,0,2.382,0V237.05h1.191a1.191,1.191,0,1,0,0-2.382Z" transform="translate(-149.333 -234.668)" fill="#e4b940"/></g></g><g transform="translate(64.107 234.647)"><g transform="translate(0 0)"><path d="M240.622,234.668h-4.765a1.191,1.191,0,1,0,0,2.382h1.191v8.338a1.191,1.191,0,1,0,2.382,0V237.05h1.191a1.191,1.191,0,1,0,0-2.382Z" transform="translate(-234.666 -234.668)" fill="#e4b940"/></g></g><g transform="translate(73.636 234.647)"><g transform="translate(0 0)"><path d="M323.573,234.668h-2.382A1.192,1.192,0,0,0,320,235.859v9.529a1.191,1.191,0,0,0,2.382,0v-3.573h1.191a3.573,3.573,0,0,0,0-7.147Zm0,4.764h-1.191V237.05h1.191a1.191,1.191,0,1,1,0,2.382Z" transform="translate(-320 -234.668)" fill="#e4b940"/></g></g><g transform="translate(90.312 234.645)"><g transform="translate(0 0)"><path d="M473.194,234.683a1.178,1.178,0,0,0-1.444.867l-2.382,9.529a1.188,1.188,0,0,0,.867,1.444,1.211,1.211,0,0,0,.288.036,1.187,1.187,0,0,0,1.155-.9l2.382-9.529A1.188,1.188,0,0,0,473.194,234.683Z" transform="translate(-469.332 -234.645)" fill="#e4b940"/></g></g><g transform="translate(85.547 234.645)"><g transform="translate(0 0)"><path d="M430.527,234.683a1.177,1.177,0,0,0-1.444.867l-2.382,9.529a1.189,1.189,0,0,0,.867,1.444,1.211,1.211,0,0,0,.288.036,1.187,1.187,0,0,0,1.155-.9l2.382-9.529A1.188,1.188,0,0,0,430.527,234.683Z" transform="translate(-426.665 -234.645)" fill="#e4b940"/></g></g><g transform="translate(83.165 237.03)"><g transform="translate(0 0)"><circle cx="1.191" cy="1.191" r="1.191" fill="#e4b940"/></g></g><g transform="translate(83.165 241.794)"><g transform="translate(0 0)"><circle cx="1.191" cy="1.191" r="1.191" fill="#e4b940"/></g></g></g><g transform="translate(58.204 255.384)"><rect width="1.759" height="11.203" transform="translate(14.211 6.289) rotate(45)" fill="#e4b940"/><path d="M332.447,38.81,331.2,40.054a4.067,4.067,0,0,1,0,5.752L326.78,50.23l1.244,1.244,4.424-4.424a5.827,5.827,0,0,0,0-8.24Z" transform="translate(-312.41 -37.103)" fill="#e4b940"/><path d="M176.224,0a5.788,5.788,0,0,0-4.12,1.707L167.68,6.13l1.244,1.244,4.423-4.424a4.067,4.067,0,0,1,5.752,0l1.244-1.244A5.788,5.788,0,0,0,176.224,0Z" transform="translate(-160.306 0)" fill="#e4b940"/><path d="M45.807,331.2a4.067,4.067,0,0,1-5.752,0l-1.244,1.244a5.826,5.826,0,0,0,8.24,0l4.424-4.424L50.23,326.78Z" transform="translate(-37.103 -312.41)" fill="#e4b940"/><path d="M2.95,179.1a4.068,4.068,0,0,1,0-5.752l4.423-4.423L6.13,167.68,1.707,172.1a5.826,5.826,0,0,0,0,8.24Z" transform="translate(0 -160.306)" fill="#e4b940"/></g></g></g></svg>