<svg xmlns="http://www.w3.org/2000/svg" xmlns:xlink="http://www.w3.org/1999/xlink" width="202.867" height="103.771" viewBox="0 0 202.867 103.771"><defs><linearGradient id="a" x1="0.146" y1="0.146" x2="0.952" y2="0.974" gradientUnits="objectBoundingBox"><stop offset="0" stop-color="#565a6f"/><stop offset="1" stop-color="#3e4257"/></linearGradient><filter id="b" x="0" y="0" width="202.867" height="103.771" filterUnits="userSpaceOnUse"><feOffset dy="5" input="SourceAlpha"/><feGaussianBlur stdDeviation="5" result="c"/><feFlood flood-opacity="0.294"/><feComposite operator="in" in2="c"/><feComposite in="SourceGraphic"/></filter></defs><g transform="translate(-6.531 -584.376)"><g transform="matrix(1, 0, 0, 1, 6.53, 584.38)" filter="url(#b)"><path d="M566.022,425.192,519.2,356.032a17.246,17.246,0,0,0-14.522-7.873h-9.584l.2,172.867h9.584a17.287,17.287,0,0,0,14.2-7.388l46.626-69.018A17.228,17.228,0,0,0,566.022,425.192Z" transform="translate(536.03 -485.09) rotate(90)" fill="url(#a)"/></g><g transform="translate(44.289 562.821)"><g transform="translate(42.667 42.665)"><g transform="translate(0 0)"><path d="M131.6,63.6c.027.027.058.045.085.069a12.419,12.419,0,0,0,1.728,1.418c.071.049.149.087.223.136a12.263,12.263,0,0,0,1.873,1c.078.033.158.056.236.087a12.274,12.274,0,0,0,2.075.629c.045.009.089.011.132.02a11.979,11.979,0,0,0,4.624,0c.045-.009.089-.011.132-.02a12.123,12.123,0,0,0,2.08-.629c.076-.031.154-.054.23-.085a12.23,12.23,0,0,0,1.886-1.008c.067-.045.138-.08.205-.125a12.425,12.425,0,0,0,1.759-1.445c.018-.018.04-.031.06-.049,0,0,0-.009.007-.011a12.263,12.263,0,1,0-17.342-.006S131.594,63.6,131.6,63.6Zm14.686-.707c-.234.176-.466.354-.713.506-.2.125-.415.227-.624.339a10.4,10.4,0,0,1-9.372,0c-.21-.111-.424-.214-.624-.339-.247-.152-.479-.33-.713-.506-.176-.134-.343-.276-.51-.421a7.181,7.181,0,0,1,13.07,0C146.63,62.619,146.461,62.762,146.285,62.9Zm-9.367-10.2a3.344,3.344,0,1,1,3.344,3.344A3.348,3.348,0,0,1,136.917,52.7Zm3.344-7.8a10,10,0,0,1,8.132,15.859,9.54,9.54,0,0,0-4.432-3.921,5.573,5.573,0,1,0-7.4,0,9.495,9.495,0,0,0-4.432,3.921,10,10,0,0,1,8.132-15.859Z" transform="translate(-119.083 -42.665)" fill="#e4b940"/><path d="M91.689,341.675a1.115,1.115,0,0,0-1.576,0l-1.44,1.44-1.44-1.44a1.115,1.115,0,1,0-1.576,1.576l1.438,1.44-1.44,1.44a1.115,1.115,0,0,0,1.576,1.578l1.442-1.44,1.44,1.44a1.114,1.114,0,0,0,1.576-1.576l-1.44-1.442,1.44-1.44A1.115,1.115,0,0,0,91.689,341.675Z" transform="translate(-80.87 -310.137)" fill="#e4b940"/><path d="M79.45,298.667H48.24a5.581,5.581,0,0,0-5.573,5.573V308.7a5.581,5.581,0,0,0,5.573,5.573H79.45a5.581,5.581,0,0,0,5.573-5.573V304.24A5.581,5.581,0,0,0,79.45,298.667ZM82.794,308.7a3.348,3.348,0,0,1-3.344,3.344H48.24A3.348,3.348,0,0,1,44.9,308.7V304.24A3.348,3.348,0,0,1,48.24,300.9H79.45a3.348,3.348,0,0,1,3.344,3.344Z" transform="translate(-42.667 -271.915)" fill="#e4b940"/><path d="M347.689,341.675a1.115,1.115,0,0,0-1.576,0l-1.44,1.44-1.44-1.44a1.115,1.115,0,0,0-1.576,1.576l1.438,1.44-1.44,1.44a1.115,1.115,0,0,0,1.576,1.578l1.442-1.44,1.44,1.44a1.115,1.115,0,0,0,1.576-1.576l-1.44-1.442,1.44-1.44A1.115,1.115,0,0,0,347.689,341.675Z" transform="translate(-310.119 -310.137)" fill="#e4b940"/><path d="M177.023,341.675a1.115,1.115,0,0,0-1.576,0l-1.44,1.44-1.44-1.44a1.115,1.115,0,0,0-1.576,1.576l1.438,1.44-1.44,1.44a1.115,1.115,0,0,0,1.576,1.578l1.442-1.44,1.44,1.44a1.114,1.114,0,0,0,1.576-1.576l-1.44-1.442,1.44-1.44A1.115,1.115,0,0,0,177.023,341.675Z" transform="translate(-157.287 -310.137)" fill="#e4b940"/><path d="M262.356,341.675a1.115,1.115,0,0,0-1.576,0l-1.44,1.44-1.44-1.44a1.115,1.115,0,0,0-1.576,1.576l1.438,1.44-1.44,1.44a1.115,1.115,0,0,0,1.576,1.578l1.442-1.44,1.44,1.44a1.114,1.114,0,0,0,1.576-1.576l-1.44-1.442,1.44-1.44A1.115,1.115,0,0,0,262.356,341.675Z" transform="translate(-233.703 -310.137)" fill="#e4b940"/></g></g></g></g></svg>