<svg xmlns="http://www.w3.org/2000/svg" xmlns:xlink="http://www.w3.org/1999/xlink" width="220" height="196.657" viewBox="0 0 220 196.657"><defs><linearGradient id="a" x1="0.5" x2="0.5" y2="1" gradientUnits="objectBoundingBox"><stop offset="0" stop-color="#e4b940"/><stop offset="1" stop-color="#8e6f16"/></linearGradient><filter id="b" x="0" y="0" width="220" height="196.657" filterUnits="userSpaceOnUse"><feOffset dy="10" input="SourceAlpha"/><feGaussianBlur stdDeviation="10" result="c"/><feFlood flood-opacity="0.4"/><feComposite operator="in" in2="c"/><feComposite in="SourceGraphic"/></filter></defs><g transform="matrix(1, 0, 0, 1, 0, 0)" filter="url(#b)"><g transform="translate(-87.61 -75.09)" fill="url(#a)"><path d="M 197.6080169677734 230.7490539550781 C 195.620361328125 230.7490539550781 193.6598815917969 230.2238311767578 191.9385375976563 229.2301940917969 L 124.2773971557617 190.1654205322266 C 120.7803802490234 188.1467742919922 118.608024597168 184.3842315673828 118.608024597168 180.3460388183594 L 118.608024597168 107.4308395385742 C 118.608024597168 104.4023208618164 119.7872924804688 101.5550231933594 121.9286041259766 99.41339874267578 C 124.0701446533203 97.27156829833984 126.9177551269531 96.09200286865234 129.9468383789063 96.09200286865234 L 265.2691650390625 96.09200286865234 C 268.2982788085938 96.09200286865234 271.1458740234375 97.27156829833984 273.2874450683594 99.41339874267578 C 275.4287414550781 101.5550079345703 276.6080017089844 104.4023208618164 276.6080017089844 107.4308395385742 L 276.6080017089844 180.3460388183594 C 276.6080017089844 184.3842620849609 274.4356384277344 188.1467895507813 270.9386901855469 190.1653747558594 L 203.2774047851563 229.2302398681641 C 201.55615234375 230.2238311767578 199.5956726074219 230.7490539550781 197.6080169677734 230.7490539550781 Z" stroke="none"/><path d="M 129.9468383789063 97.09197998046875 C 124.2460021972656 97.09197998046875 119.6080322265625 101.7299652099609 119.6080322265625 107.4308319091797 L 119.6080322265625 180.3460235595703 C 119.6080322265625 184.0280914306641 121.5887756347656 187.4587860107422 124.7774353027344 189.2993927001953 L 192.4384765625 228.3641052246094 C 194.0080108642578 229.2701416015625 195.7956237792969 229.7490234375 197.6080169677734 229.7490234375 C 199.4203796386719 229.7490234375 201.2079925537109 229.2701416015625 202.7773895263672 228.3641967773438 L 270.4387512207031 189.29931640625 C 273.6272583007813 187.4587860107422 275.6080017089844 184.0280914306641 275.6080017089844 180.3460235595703 L 275.6080017089844 107.4308319091797 C 275.6080017089844 101.7299652099609 270.9700317382813 97.09197998046875 265.2691650390625 97.09197998046875 L 129.9468383789063 97.09197998046875 M 129.9468383789063 95.09197998046875 L 265.2691650390625 95.09197998046875 C 272.0851745605469 95.09197998046875 277.6080017089844 100.6173095703125 277.6080017089844 107.4308319091797 L 277.6080017089844 180.3460235595703 C 277.6080017089844 184.7534790039063 275.2562561035156 188.8277740478516 271.4385986328125 191.0314331054688 L 203.7774047851563 230.0962524414063 C 201.8686065673828 231.1981048583984 199.7383117675781 231.7490234375 197.6080169677734 231.7490234375 C 195.4777221679688 231.7490234375 193.347412109375 231.1981048583984 191.4385986328125 230.0962524414063 L 123.7774047851563 191.0314331054688 C 119.9598083496094 188.8277740478516 117.6080322265625 184.7534790039063 117.6080322265625 180.3460235595703 L 117.6080322265625 107.4308319091797 C 117.6080322265625 100.6173095703125 123.1308898925781 95.09197998046875 129.9468383789063 95.09197998046875 Z" stroke="none" fill="#e4b940"/></g></g></svg>