<svg xmlns="http://www.w3.org/2000/svg" xmlns:xlink="http://www.w3.org/1999/xlink" width="14.48" height="91.96" viewBox="0 0 14.48 91.96"><defs><clipPath id="a"><rect width="13.579" height="35.5" transform="translate(0)" fill="#fff"/></clipPath><clipPath id="b"><rect width="13.579" height="17.802" transform="translate(0 0)" fill="#fff"/></clipPath></defs><g transform="translate(-976.021 -5216.093)"><g transform="translate(976.092 5262.957)" clip-path="url(#a)"><g transform="translate(40.584 -1.66) rotate(90)"><line x2="38.769" y2="38.667" transform="translate(4.433 1.509)" fill="none" stroke="#f25b5b" stroke-width="1"/><line x2="38.769" y2="38.667" transform="translate(7.433 0.509)" fill="none" stroke="#f25b5b" stroke-width="1"/><line x2="43.202" y2="43.175" transform="translate(-1)" fill="none" stroke="#f25b5b" stroke-width="1"/><line x2="39.202" y2="39.951" transform="translate(0 4.225)" fill="none" stroke="#f25b5b" stroke-width="1"/><line x2="34.202" y2="34.726" transform="translate(0 8.449)" fill="none" stroke="#f25b5b" stroke-width="1"/><line x2="31.202" y2="31.502" transform="translate(0 12.674)" fill="none" stroke="#f25b5b" stroke-width="1"/><line x2="22.929" y2="22.931" transform="translate(0 16.898)" fill="none" stroke="#f25b5b" stroke-width="1"/><line x2="22.929" y2="22.931" transform="translate(0 21.425)" fill="none" stroke="#f25b5b" stroke-width="1"/><line x2="22.929" y2="22.931" transform="translate(0 25.649)" fill="none" stroke="#f25b5b" stroke-width="1"/><line x2="22.929" y2="22.931" transform="translate(0 29.874)" fill="none" stroke="#f25b5b" stroke-width="1"/><line x2="22.929" y2="22.931" transform="translate(0 34.4)" fill="none" stroke="#f25b5b" stroke-width="1"/><line x2="22.929" y2="22.931" transform="translate(0 38.625)" fill="none" stroke="#f25b5b" stroke-width="1"/></g></g><g transform="translate(976.092 5280.457)" clip-path="url(#b)"><g transform="translate(-5.66 -16.298)"><line y1="0.001" x2="24.743" transform="translate(5.435 1.508) rotate(45)" fill="none" stroke="#fff500" stroke-width="1"/><line x2="22.931" y2="22.929" fill="none" stroke="#fff500" stroke-width="1"/><line x2="22.931" y2="22.929" transform="translate(0 4.224)" fill="none" stroke="#fff500" stroke-width="1"/><line x2="22.931" y2="22.929" transform="translate(0 8.448)" fill="none" stroke="#fff500" stroke-width="1"/><line x2="22.931" y2="22.929" transform="translate(0 12.673)" fill="none" stroke="#fff500" stroke-width="1"/><line x2="22.931" y2="22.929" transform="translate(0 16.897)" fill="none" stroke="#fff500" stroke-width="1"/><line x2="22.931" y2="22.929" transform="translate(0 21.423)" fill="none" stroke="#fff500" stroke-width="1"/><line x2="22.931" y2="22.929" transform="translate(0 25.647)" fill="none" stroke="#fff500" stroke-width="1"/><line x2="22.931" y2="22.929" transform="translate(0 29.871)" fill="none" stroke="#fff500" stroke-width="1"/><line x2="22.931" y2="22.929" transform="translate(0 34.397)" fill="none" stroke="#fff500" stroke-width="1"/><line x2="22.931" y2="22.929" transform="translate(0 38.621)" fill="none" stroke="#fff500" stroke-width="1"/></g></g><path d="M840.343,428.277h-5.669V417.031h-2.142v11.246h-5.669v70.2h5.669v9.518h2.142v-9.518h5.669Z" transform="translate(149.657 4799.562)" fill="none" stroke="#41bf50" stroke-width="1"/></g></svg>