<svg xmlns="http://www.w3.org/2000/svg" viewBox="0 0 160 34.6"><defs><style>.cls-1{fill:#fff;}.cls-2{fill:#0b4d79;}.cls-3{fill:#2597ce;}.cls-4{fill:#0a4975;}.cls-5{fill:#2699d1;}.cls-6{fill:#09446f;}.cls-7{fill:#094772;}.cls-8{fill:#2494cb;}.cls-9{fill:#176fa0;}.cls-10{fill:#279cd4;}.cls-11{fill:#1873a4;}.cls-12{fill:#0d527f;}.cls-13{fill:#2390c7;}.cls-14{fill:#0c507c;}.cls-15{fill:#105987;}.cls-16{fill:#0f5683;}.cls-17{fill:#228dc3;}.cls-18{fill:#2088bd;}.cls-19{fill:#279ed7;}.cls-20{fill:#0e5482;}.cls-21{fill:#28a0d9;}.cls-22{fill:#105988;}.cls-23{fill:#0f5785;}.cls-24{fill:#218ac0;}.cls-25{fill:#2493ca;}.cls-26{fill:#2495cc;}.cls-27{fill:#218bc0;}.cls-28{fill:#115c8a;}.cls-29{fill:#2087bc;}.cls-30{fill:#115d8b;}.cls-31{fill:#12608f;}.cls-32{fill:#1f84b9;}.cls-33{fill:#1a76a9;}.cls-34{fill:#166b9c;}.cls-35{fill:#125e8d;}.cls-36{fill:#2aa3dc;}.cls-37{fill:#1b7baf;}.cls-38{fill:#146595;}.cls-39{fill:#1d7fb3;}.cls-40{fill:#1d81b6;}.cls-41{fill:#1b79ac;}.cls-42{fill:#136392;}.cls-43{fill:#15699a;}.cls-44{fill:#fefefe;}.cls-45{fill:#176c9d;}.cls-46{fill:#1974a6;}.cls-47{fill:#1871a3;}.cls-48{fill:#1e84b9;}.cls-49{fill:#176e9f;}.cls-50{fill:#136291;}.cls-51{fill:#156899;}.cls-52{fill:#1c7db1;}.cls-53{fill:#146494;}.cls-54{fill:#1d81b5;}.cls-55{fill:#1a77aa;}.cls-56{fill:#1b7aad;}.cls-57{fill:#1e81b6;}.cls-58{fill:#126190;}.cls-59{fill:#115d8c;}.cls-60{fill:#105a88;}.cls-61{fill:#1c7eb1;}.cls-62{fill:#1d7eb2;}.cls-63{fill:#1c7caf;}.cls-64{fill:#1872a4;}.cls-65{fill:#1a77a9;}.cls-66{fill:#156999;}.cls-67{fill:#1b7bae;}.cls-68{fill:#1b77aa;}.cls-69{fill:#2087bd;}.cls-70{fill:#146695;}.cls-71{fill:#146696;}</style></defs><title>008Asset 1</title><g id="Layer_2" data-name="Layer 2"><g id="Layer_1-2" data-name="Layer 1"><path class="cls-1" d="M144.68,15c2.42-2.26,6.19-1.53,7.2.71a.43.43,0,0,0,.13-.09,4.71,4.71,0,0,1,5.25-1.8,3.68,3.68,0,0,1,2.7,3.54c.07,2.23,0,4.46,0,6.7,0,.37-.19.52-.55.52-2.12,0-1.79.27-1.81-1.7,0-1.48,0-3,0-4.45A2.25,2.25,0,0,0,156.08,16,2.81,2.81,0,0,0,152.92,17a3.6,3.6,0,0,0-.6,2.14c0,1.54,0,3.09,0,4.63,0,.59-.21.77-.77.75-1.84,0-1.59.21-1.6-1.6,0-1.42,0-2.84,0-4.26,0-1.81-.7-2.74-2.13-2.84a2.84,2.84,0,0,0-3.14,2.57,26.25,26.25,0,0,0-.07,3.32c0,.69,0,1.38,0,2.06,0,.15,0,.34,0,.43-.53.64-1.24.21-1.86.3-.39.05-.45-.28-.45-.6,0-1.74,0-3.47,0-5.21,0-1.46,0-2.92,0-4.38,0-.49.17-.71.66-.66h.12C144.47,13.66,144.47,13.66,144.68,15Z"/><path class="cls-1" d="M50.29,15c1.87-2,5.88-2,7.24.68a4.48,4.48,0,0,1,4.78-2,3.65,3.65,0,0,1,3.27,3.69c.08,2.21,0,4.42,0,6.64,0,.37-.16.54-.53.54s-.79,0-1.19,0-.65-.2-.65-.68c0-1.69,0-3.38,0-5.07,0-2-.72-2.91-2.27-2.95a2.84,2.84,0,0,0-3,2.92c-.06,1.65,0,3.3,0,4.95,0,.79,0,.83-.8.82-1.79,0-1.55.21-1.56-1.57,0-1.5,0-3,0-4.51S55,16.22,54,15.93a2.84,2.84,0,0,0-3.25,1.28,4,4,0,0,0-.48,2.05c0,1.53,0,3,0,4.58,0,.5-.15.71-.68.7-1.91,0-1.64.23-1.65-1.61,0-2.84,0-5.68,0-8.52,0-.58.19-.82.76-.74h.13C50.14,13.66,50.14,13.66,50.29,15Z"/><path class="cls-1" d="M39.78,24.64a8.41,8.41,0,0,1-5.4-2c-.29-.24-.37-.44-.15-.78a6.23,6.23,0,0,0,.52-1c.23-.51.51-.53.91-.17a6.43,6.43,0,0,0,3.59,1.62A4,4,0,0,0,41.52,22a1.52,1.52,0,0,0,.26-2.7,6,6,0,0,0-1.83-.8,25.2,25.2,0,0,1-2.77-1,3.52,3.52,0,0,1-2.29-3.41,3.47,3.47,0,0,1,2.29-3.41,8,8,0,0,1,7.37.73c.28.16.27.31.14.55a8.79,8.79,0,0,0-.5,1.08c-.2.54-.47.65-1,.34a6.51,6.51,0,0,0-3.52-.94,3.78,3.78,0,0,0-1,.17,1.37,1.37,0,0,0-1.11,1.06,1.49,1.49,0,0,0,.66,1.52,3.76,3.76,0,0,0,1.06.53c1.06.37,2.14.71,3.18,1.12a3.61,3.61,0,0,1,2.63,3.63,3.89,3.89,0,0,1-2.7,3.69A7.07,7.07,0,0,1,39.78,24.64Z"/><path class="cls-1" d="M136.29,23.14a4.77,4.77,0,0,1-4.66,1.33,3.66,3.66,0,0,1-2.93-3.73c-.08-2.17,0-4.34,0-6.51,0-.36.15-.56.52-.56,2.2,0,1.84-.28,1.85,1.65,0,1.5,0,3,0,4.51a2.25,2.25,0,0,0,1.4,2.36,2.86,2.86,0,0,0,3.14-.8,3.5,3.5,0,0,0,.76-2.33c0-1.54,0-3.09,0-4.63,0-.57.18-.78.76-.77,1.86,0,1.6-.2,1.61,1.59,0,2.82,0,5.64,0,8.46,0,.81,0,.82-.85.82h-.07C136.43,24.54,136.43,24.54,136.29,23.14Z"/><path class="cls-1" d="M89.15,19.11c0-.87,0-1.75,0-2.63,0-.42-.09-.6-.54-.56s-.76.14-.89-.25a2.34,2.34,0,0,1,0-1.41c.11-.34.49-.28.77-.25.51.07.71-.09.66-.63s0-1,0-1.56.18-.6.6-.59c2,0,1.74-.27,1.76,1.69,0,1.09,0,1.09,1.06,1.09.48,0,1,0,1.44,0s.67.16.68.65c0,1.28,0,1.28-1.24,1.28-.48,0-1,0-1.44,0s-.52.05-.51.47c0,1.56,0,3.13,0,4.69,0,1.21.54,1.57,1.69,1.22s1.07-.33,1.51.78c.21.55.05.78-.42,1a4.68,4.68,0,0,1-2.54.52,2.74,2.74,0,0,1-2.58-2.73c0-.92,0-1.84,0-2.76Z"/><path class="cls-1" d="M111.4,15.1a4.3,4.3,0,0,1,2.9-1.48c.51-.06.72.12.72.65,0,1.42,0,1.42-1.33,1.7a3,3,0,0,0-2.34,3c0,1.61,0,3.22,0,4.82,0,.54-.17.75-.72.74-1.88,0-1.64.22-1.64-1.62,0-2.82,0-5.64,0-8.46,0-.59.17-.87.78-.79h.06C111.23,13.66,111.23,13.66,111.4,15.1Z"/><path class="cls-1" d="M83.18,15.1A4.25,4.25,0,0,1,86,13.63c.7-.09.83,0,.84.71v.06c0,1.31,0,1.31-1.27,1.56a3,3,0,0,0-2.4,3c0,1.61,0,3.21,0,4.82,0,.53-.16.75-.72.74-1.89,0-1.63.23-1.63-1.62,0-2.82,0-5.63,0-8.45,0-.77,0-.8.82-.8C83,13.66,83,13.66,83.18,15.1Z"/><path class="cls-1" d="M125.34,20.08c1.22,0,1.22,0,1.19-1.23-.08-3.45-2.1-5.38-5.47-5.24a5.19,5.19,0,0,0-5,4.2c-.54,2.75.57,5.28,2.85,6.26a6.07,6.07,0,0,0,6-.53c1.2-.78,1.16-.79.21-1.82-.38-.4-.64-.39-1,0a3.8,3.8,0,0,1-2.73.9,3,3,0,0,1-3-2.51h6.88Zm-6.9-2.27a3,3,0,0,1,2.88-2.18,2.77,2.77,0,0,1,2.93,1.95c.12.41.08.59-.42.57-.83,0-1.67,0-2.5,0h-2.57C118.54,18.14,118.36,18.17,118.44,17.81Z"/><path class="cls-1" d="M104.9,20.08c1.7,0,1.72,0,1.55-1.72-.22-2-1-3.72-3.1-4.45a5.72,5.72,0,0,0-6.1,1.45,6,6,0,0,0-.74,6.41c1.45,2.9,5.56,3.77,8.42,1.78,1.18-.82,1.16-.8.21-1.83-.38-.4-.64-.39-1,0a3.78,3.78,0,0,1-2.66.9,3,3,0,0,1-3-2.51h6.51Zm-6.53-2.25a3,3,0,0,1,2.87-2.2,2.79,2.79,0,0,1,3,1.93c.14.48,0,.62-.47.59-.81,0-1.63,0-2.44,0H98.71C98.51,18.14,98.29,18.2,98.37,17.83Z"/><path class="cls-1" d="M77.48,17.21a3.49,3.49,0,0,0-3.14-3.5,7.21,7.21,0,0,0-4.79.79c-1.1.61-1.08.59-.46,1.67.3.52.57.6,1.09.27a4.52,4.52,0,0,1,3.52-.71,1.78,1.78,0,0,1,1.46,1.59c0,.43,0,.58-.51.58a22.26,22.26,0,0,0-3.56.08A3.24,3.24,0,0,0,68,21.1a3.34,3.34,0,0,0,3,3.44,5.27,5.27,0,0,0,4.14-.95c.11.94.11.94,1,.94H77c.4,0,.57-.17.57-.56C77.5,21.72,77.55,19.46,77.48,17.21ZM75,21.08a2.89,2.89,0,0,1-2.74,1.52,2.43,2.43,0,0,1-1.58-.47,1.31,1.31,0,0,1-.43-1.3,1.07,1.07,0,0,1,.88-.86,6,6,0,0,1,1.74-.14h1.37C75.23,19.82,75.45,20.17,75,21.08Z"/><path class="cls-2" d="M25,29.74a11.09,11.09,0,0,1-1.76,1,5.23,5.23,0,0,0-1.12-.05c-4.7,0-9.4,0-14.11,0a.57.57,0,0,0-.18,0l-1.65-.94c-.13-.33.1-.41.33-.46a3.15,3.15,0,0,1,.75,0h6.12a3.33,3.33,0,0,0,1.17-.14,6.22,6.22,0,0,0,2.15-.09,1.7,1.7,0,0,0,1.08.23H24a2.57,2.57,0,0,1,.68.05C24.9,29.42,25.1,29.47,25,29.74Z"/><path class="cls-3" d="M5.69,5.07A6.27,6.27,0,0,1,7,4.31,3.61,3.61,0,0,1,8.2,4.25c5,0,10.08,0,15.12,0a1.53,1.53,0,0,1,.79.09,9.39,9.39,0,0,1,1.66,1c-.1.48-.5.36-.79.36-1.91,0-3.82,0-5.72,0a9.89,9.89,0,0,0-2.11.1.79.79,0,0,1-.7-.15,1.48,1.48,0,0,0-1.51-.19.59.59,0,0,1-.37,0c-2.5,0-5,0-7.52,0A1.84,1.84,0,0,1,5.69,5.07Z"/><path class="cls-4" d="M7.83,30.76c.13-.26.36-.24.59-.24H22.76c.19,0,.44-.06.48.25a8.35,8.35,0,0,1-1.75,1,8.54,8.54,0,0,0-1.43,0H10.24c-.27,0-.54,0-.81,0Z"/><path class="cls-5" d="M24.11,4.33a7.22,7.22,0,0,1-1.86.12H8.13A3.76,3.76,0,0,1,7,4.31a6,6,0,0,1,1.29-.75,2.59,2.59,0,0,1,1.11-.08c4.23,0,8.45,0,12.68,0a1.43,1.43,0,0,1,.68.09A6.31,6.31,0,0,1,24.11,4.33Z"/><path class="cls-6" d="M19.73,32.76a11.82,11.82,0,0,1-2.81,1.59,4,4,0,0,1-3.22-.19c-.81-.42-1.59-.91-2.37-1.36-.12-.25,0-.34.23-.41a2.1,2.1,0,0,1,.56-.07h6.93a1.29,1.29,0,0,1,.67.11C19.9,32.54,19.9,32.65,19.73,32.76Z"/><path class="cls-7" d="M19.73,32.76c.1-.22,0-.24-.2-.24h-7.8c-.2,0-.38,0-.4.28l-1.9-1.11c.12-.2.32-.17.5-.17H21.16c.12,0,.44-.17.33.22A6.55,6.55,0,0,1,19.73,32.76Z"/><path class="cls-8" d="M17,5.69a1,1,0,0,1,.86-.24h7.24c.24,0,.51.09.69-.17a15.42,15.42,0,0,1,2,1.16c-.28.39-.7.33-1.09.33H20.27a7,7,0,0,0-1.12,0c-.09,0-.2.11-.29.07A3.79,3.79,0,0,1,17,5.69Z"/><path class="cls-9" d="M0,19.11a4.76,4.76,0,0,1,0-1.25,1.36,1.36,0,0,1,1-.2H6a14,14,0,0,0,1.94-.09,2.46,2.46,0,0,1,1.75,1.05c0,.47-.34.52-.69.54-.68,0-1.37,0-2.06,0a2.06,2.06,0,0,0-2,0c-1.43.15-2.86.05-4.29.07A.78.78,0,0,1,0,19.11Z"/><path class="cls-10" d="M22.78,3.56a6.84,6.84,0,0,1-1.86.14h-9.5a15.4,15.4,0,0,1-3.11-.13,6,6,0,0,1,1.28-.74,1.26,1.26,0,0,1,.66-.12c3.53.08,7.05.06,10.57,0a1.6,1.6,0,0,1,.68.11A5.68,5.68,0,0,1,22.78,3.56Z"/><path class="cls-11" d="M8.1,17.73c-2.68.29-5.37.06-8.06.13a6.37,6.37,0,0,1,0-1.38,1.4,1.4,0,0,1,1-.19c1.5,0,3,.07,4.5-.08A5.12,5.12,0,0,1,8.1,17.73Z"/><path class="cls-12" d="M28.39,27.79a7,7,0,0,1-1.76,1c-2.31-.11-4.62,0-6.92-.05-.31,0-.63,0-.94,0a.77.77,0,0,1-.66-.28.28.28,0,0,1,.06-.39A3.1,3.1,0,0,1,20,27.19a4.2,4.2,0,0,0,1.17.12h6.16a3.12,3.12,0,0,1,.75.05C28.32,27.42,28.52,27.51,28.39,27.79Z"/><path class="cls-13" d="M19,6.84c.07-.38.38-.26.6-.26h7.16a3.35,3.35,0,0,0,1-.14,6.55,6.55,0,0,1,1.64,1c-.28.39-.7.33-1.08.33-2.11,0-4.21,0-6.31,0a5.27,5.27,0,0,0-1.12.07A2.37,2.37,0,0,1,19,6.84Z"/><path class="cls-14" d="M14.74,29.26a1.34,1.34,0,0,1-.93.26h-7c-.25,0-.58-.12-.64.3l-1.76-1c0-.47.43-.45.75-.47.77,0,1.54,0,2.31,0,1.41,0,2.83,0,4.25,0a3.12,3.12,0,0,0,1-.12A2.36,2.36,0,0,1,14.74,29.26Z"/><path class="cls-15" d="M30.64,25.63a2.22,2.22,0,0,1-.76,1.09c-2.41,0-4.82,0-7.22,0-.38,0-.83.08-1-.45a.35.35,0,0,1,.13-.33,11.71,11.71,0,0,1,1.64-1,.45.45,0,0,1,.42,0,1.57,1.57,0,0,0,1,.22h4.82a2.14,2.14,0,0,1,.62,0C30.52,25.28,30.77,25.32,30.64,25.63Z"/><path class="cls-14" d="M18.08,28.25a.89.89,0,0,0,.78.27h7.05c.27,0,.56-.08.72.24a6.15,6.15,0,0,1-1.63,1c-.11-.36-.41-.22-.63-.22h-7.1c-.34,0-.59-.05-.71-.4A1.78,1.78,0,0,1,18.08,28.25Z"/><path class="cls-16" d="M21.74,26.13c.05.42.35.38.65.38h6.75c.26,0,.56-.08.74.21a3.87,3.87,0,0,1-1.49,1.07c-.07-.41-.41-.27-.65-.27-2.33,0-4.66,0-7,0a1.44,1.44,0,0,1-.93-.27A2.76,2.76,0,0,1,21.74,26.13Z"/><path class="cls-17" d="M20.72,7.87c.15-.37.47-.29.75-.29h6.85a3.44,3.44,0,0,0,1.1-.15,2.57,2.57,0,0,1,1,1.13c-.27.28-.62.21-.95.21H23.74a5.35,5.35,0,0,0-1.06.07A2.2,2.2,0,0,1,20.72,7.87Z"/><path class="cls-18" d="M30.88,9.59a2.78,2.78,0,0,1,.22,1.27q0,6.44,0,12.86a1,1,0,0,1-.08.55c-.25-.2-.2-.49-.21-.76s0-.75,0-1.13,0-.75,0-1.13,0-.74,0-1.12,0-.59,0-.89,0-.75,0-1.12,0-.67,0-1,0-.67,0-1,0-.67,0-1,0-.68,0-1,0-.75,0-1.13,0-.75,0-1.13c0-.08,0-.16,0-.25,0-.77-.05-.81-.81-.81-1.39,0-2.77,0-4.16,0A3.47,3.47,0,0,1,24,9.93a.33.33,0,0,1-.1-.39c.19-.3.5-.27.78-.27h5.33C30.36,9.27,30.69,9.26,30.88,9.59Z"/><path class="cls-17" d="M.67,8.58a2.6,2.6,0,0,1,1-1.13,1,1,0,0,1,.55-.08c2.38,0,4.77,0,7.16,0,.33,0,.68,0,.93.25a.27.27,0,0,1,0,.39c-.51.4-1,.9-1.73.83A3.38,3.38,0,0,0,7.5,8.79H1.62C1.29,8.78.94,8.84.67,8.58Z"/><path class="cls-19" d="M21.5,2.82c-3.62.28-7.25.05-10.87.12-.35,0-.68-.19-1-.12a10.59,10.59,0,0,1,1.6-.93A7.93,7.93,0,0,0,12.81,2c2.39,0,4.78,0,7.17-.06A8.23,8.23,0,0,1,21.5,2.82Z"/><path class="cls-13" d="M10.33,7.83c-.16-.32-.45-.25-.71-.25H2.71a3.31,3.31,0,0,1-1-.14,5.06,5.06,0,0,1,1.4-.87,1,1,0,0,1,.61-.08c2.38,0,4.76,0,7.14,0a1.22,1.22,0,0,1,1,.24.3.3,0,0,1,0,.29A1.9,1.9,0,0,1,10.33,7.83Z"/><path class="cls-20" d="M2.92,27.93a4.74,4.74,0,0,1-1.25-.77c.09-.54.54-.45.88-.46,1.23,0,2.46,0,3.69,0H9.11a3.2,3.2,0,0,0,.92-.13c.65.06,1.23.21,1.48.92-.14.47-.55.47-.92.47C8,28,5.48,28,2.92,27.93Z"/><path class="cls-21" d="M20,1.94a1.19,1.19,0,0,1-.8.26H11.87c-.27,0-.56,0-.68-.3a5.69,5.69,0,0,1,1.25-.71A3.09,3.09,0,0,1,13.72,1c1.59,0,3.17-.09,4.75.08A8.7,8.7,0,0,1,20,1.94Z"/><path class="cls-22" d="M.81,26.25a2,2,0,0,1-.51-1c-.12-.3.1-.36.3-.41a3.15,3.15,0,0,1,.75,0c1.86,0,3.71,0,5.56,0,.71,0,1.19.44,1.73.78a.22.22,0,0,1,0,.33c-.27.35-.66.32-1,.32-1.72,0-3.44,0-5.17,0C1.92,26.19,1.37,26.25.81,26.25Z"/><path class="cls-23" d="M.81,26.25C1,26,1.36,26,1.67,26c2.05,0,4.1,0,6.15,0a1.17,1.17,0,0,0,.87-.25,1.81,1.81,0,0,1,1.51.88,1.21,1.21,0,0,1-.87.25H2.52c-.32,0-.63,0-.85.28A2.68,2.68,0,0,1,.81,26.25Z"/><path class="cls-24" d="M.67,8.58H8c.26,0,.55-.08.72.23a2.32,2.32,0,0,1-1.79,1h-6a1.32,1.32,0,0,1-.68-.07A2.17,2.17,0,0,1,.67,8.58Z"/><path class="cls-12" d="M2.92,27.93c.18-.26.45-.16.69-.16h7.06c.34,0,.66,0,.81-.38a1.76,1.76,0,0,1,1.51.87.89.89,0,0,1-.78.27H5.27c-.32,0-.64,0-.85.29A9,9,0,0,1,2.92,27.93Z"/><path class="cls-25" d="M11.84,7c-.16-.32-.45-.24-.72-.24H4.87a6.82,6.82,0,0,1-1.8-.12,6.81,6.81,0,0,1,1.34-.76,4.31,4.31,0,0,1,1.24-.07H12.4a2.22,2.22,0,0,1,1,.13.2.2,0,0,1,.09.21A2.14,2.14,0,0,1,11.84,7Z"/><path class="cls-26" d="M13.46,6.05C13.26,5.89,13,6,12.8,6H5.51a3.73,3.73,0,0,1-1.1-.14,5.88,5.88,0,0,1,1.28-.75c2.77.28,5.54.06,8.31.13.24,0,.5-.08.72.11C14.4,5.73,14.07,6.12,13.46,6.05Z"/><path class="cls-27" d="M30.88,9.59a1,1,0,0,0-.54-.13H24.5c-.22,0-.48-.05-.52.29a1.91,1.91,0,0,1-1.5-.87c.14-.37.46-.29.74-.29l7.21,0A1.93,1.93,0,0,1,30.88,9.59Z"/><path class="cls-28" d="M30.64,25.63c-.08-.38-.39-.24-.61-.24-1.89,0-3.78,0-5.67,0-.32,0-.55-.05-.64-.39a1.93,1.93,0,0,1,1.7-.93,5,5,0,0,0,1.54.11c1.12,0,2.24,0,3.36,0,.59,0,.64.11.58.73A1.17,1.17,0,0,1,30.64,25.63Z"/><path class="cls-29" d="M.18,9.71a1,1,0,0,1,.54-.12h6c.15,0,.3,0,.4.12a2.21,2.21,0,0,1-1.91,1.08H.94a1.27,1.27,0,0,1-.89-.19A1.49,1.49,0,0,1,.18,9.71Z"/><path class="cls-30" d="M7.12,24.86a1.52,1.52,0,0,1-.84.15Q3.6,25,.91,25c-.23,0-.53-.13-.61.25a.59.59,0,0,1-.13-.46c-.1-.82,0-1,.83-1,1.41,0,2.84.06,4.25-.08A2.86,2.86,0,0,1,7.12,24.86Z"/><path class="cls-31" d="M5.43,23.88A26.47,26.47,0,0,1,1,24c-.63,0-.88.2-.81.82A4.66,4.66,0,0,1,0,22.87a.79.79,0,0,1,.51-.18c1.32,0,2.64-.06,4,0a.71.71,0,0,1,.29.14A3.17,3.17,0,0,1,5.43,23.88Z"/><path class="cls-32" d="M.05,10.59H4.67c.22,0,.46-.08.65.13A9.28,9.28,0,0,0,5,14.2a1.63,1.63,0,0,1-.16,1c-.45-.09-.27-.46-.33-.73s0-.68,0-1,0-.68,0-1c0-.51-.23-.68-.72-.67-1,0-1.94,0-2.91,0A1.16,1.16,0,0,1,0,11.59,3.05,3.05,0,0,1,.05,10.59Z"/><path class="cls-33" d="M5.72,16.35A51.29,51.29,0,0,1,0,16.48a3.35,3.35,0,0,1,0-1,.88.88,0,0,1,.58-.19c1.34,0,2.67-.06,4,0A2,2,0,0,1,5.72,16.35Z"/><path class="cls-34" d="M4.81,23l-.12-.13c-.25-.29-.16-.65-.18-1s0-.68,0-1-.17-.58-.6-.57c-1,0-2,0-3,0A1.15,1.15,0,0,1,0,20.12a3.42,3.42,0,0,1,0-1c1.59,0,3.19.06,4.78,0,0,0,.1.06.15.1a26.58,26.58,0,0,1,0,3.57A.41.41,0,0,1,4.81,23Z"/><path class="cls-35" d="M30.9,24.92c.05-.45-.17-.56-.59-.55-1.45,0-2.9,0-4.36,0a.81.81,0,0,1-.72-.26,1.86,1.86,0,0,1,1.19-.93,23,23,0,0,0,3.62.12c.33,0,.67-.06.95.19,0,.26,0,.51.05.77A1.15,1.15,0,0,1,30.9,24.92Z"/><path class="cls-36" d="M18.47,1.07a1.12,1.12,0,0,1-.6.12H12.44C14.59-.36,16.4-.39,18.47,1.07Z"/><path class="cls-37" d="M4.69,13.47v1a.61.61,0,0,1-.58.3c-1.18,0-2.37,0-3.55,0A.89.89,0,0,1,0,14.6a3.35,3.35,0,0,1,0-1,.88.88,0,0,1,.58-.19c1.26,0,2.52,0,3.78,0A.44.44,0,0,1,4.69,13.47Z"/><path class="cls-38" d="M4.69,20.87v1a.63.63,0,0,1-.58.31c-1.18,0-2.37,0-3.55,0A.82.82,0,0,1,0,22a3.42,3.42,0,0,1,0-1,.94.94,0,0,1,.58-.19c1.28,0,2.56,0,3.84,0A.48.48,0,0,1,4.69,20.87Z"/><path class="cls-39" d="M4.69,13.47A11.26,11.26,0,0,1,2,13.59c-.64,0-1.29,0-1.93,0a3.35,3.35,0,0,1,0-1,.83.83,0,0,1,.58-.19c1.28,0,2.56,0,3.84,0a.48.48,0,0,1,.23.07Z"/><path class="cls-40" d="M4.69,12.47A1.27,1.27,0,0,1,4,12.6H0v-1H3.83C4.69,11.59,4.69,11.59,4.69,12.47Z"/><path class="cls-41" d="M0,14.6H4a1.27,1.27,0,0,0,.72-.12c0,.25-.09.52.11.75a.17.17,0,0,1,0,.24H0A2.6,2.6,0,0,1,0,14.6Z"/><path class="cls-42" d="M0,22C1.35,22,2.66,22,4,22a1.27,1.27,0,0,0,.72-.13v1H0A2.54,2.54,0,0,1,0,22Z"/><path class="cls-43" d="M4.69,20.87A1.27,1.27,0,0,1,4,21H0a2.54,2.54,0,0,1,0-.87c1.29,0,2.59,0,3.88,0C4.56,20.07,4.82,20.23,4.69,20.87Z"/><path class="cls-44" d="M26.23,23.24c-.21.44-.65.6-1,.88a8.15,8.15,0,0,0-1.51.88,13.85,13.85,0,0,0-2,1.13,13.17,13.17,0,0,0-1.92,1.12,11.54,11.54,0,0,0-1.74,1,8.79,8.79,0,0,0-1.52.87,1.6,1.6,0,0,1-1.82.14,9.82,9.82,0,0,0-1.75-1,7.31,7.31,0,0,0-1.51-.87,5.62,5.62,0,0,0-1.28-.74,8.15,8.15,0,0,0-1.51-.88,9.38,9.38,0,0,0-1.57-.9,9.79,9.79,0,0,0-1.69-1A1.63,1.63,0,0,1,4.81,23c0-.95,0-1.91,0-2.86a2.86,2.86,0,0,1,.15-1c.7-.64,1.13-.65,1.84,0,.31.18.3.48.31.77,0,.71,0,1.42,0,2.12.35.54,1,.66,1.46,1l2,1.15c.58.36,1.17.7,1.77,1,.89.53,1.79,1,2.68,1.58a.92.92,0,0,0,1-.05c1-.55,1.91-1.09,2.83-1.7a9.5,9.5,0,0,0,1.76-1,17,17,0,0,0,1.75-1,4.18,4.18,0,0,0,1.44-.94A3.13,3.13,0,0,0,23.72,20a10.93,10.93,0,0,0-1.8-1c-.65-.51-1.41-.84-2.09-1.28-.47-.25-.9-.55-1.38-.77a15.22,15.22,0,0,0-1.51-.88,12.67,12.67,0,0,0-1.54-.83c-.3-.29-.7-.44-1-.7A1.14,1.14,0,0,1,14,13.9a1.45,1.45,0,0,1,.11-1c.75-.74,1-.75,2.27-.07.62.42,1.29.76,1.92,1.15s1.45.81,2.15,1.24c.54.31,1.06.63,1.61.91s1.27.75,1.9,1.12,1.23.75,1.89,1.07a1.09,1.09,0,0,1,.59.91,37.25,37.25,0,0,1,0,3.81A.62.62,0,0,1,26.23,23.24Z"/><path class="cls-44" d="M4.84,15.47l0-.24c0-1.1,0-2.2,0-3.3a1.42,1.42,0,0,1,.5-1.21,5.56,5.56,0,0,0,1.75-1c.64-.13,1.06-.64,1.63-.89a7,7,0,0,0,1.63-1A4.17,4.17,0,0,0,11.84,7a5.84,5.84,0,0,0,1.62-.9,5.15,5.15,0,0,0,1.26-.74c.86-.54,1.54,0,2.26.38a15.24,15.24,0,0,0,2,1.15l1.74,1,1.76,1,1.5.87,1.76,1c.55.14.67.59.67,1.06,0,1.07,0,2.13,0,3.19a1.17,1.17,0,0,1-.79,1,1.42,1.42,0,0,1-.84,0A1.21,1.21,0,0,1,24,15c-.06-.82,0-1.65-.06-2.47-.35-.53-1-.64-1.45-1s-1.16-.69-1.76-1-1.29-.74-1.92-1.12c-.9-.56-1.86-1-2.8-1.5a1,1,0,0,0-1.06,0c-.79.45-1.61.86-2.39,1.35l-2.16,1.24c-.53.26-1,.6-1.52.89a7.6,7.6,0,0,0-1.68,1.07,6.24,6.24,0,0,0,0,1.88.92.92,0,0,0,.23.25c.49.29,1,.56,1.48.86s.89.53,1.35.76,1.14.72,1.75,1,1,.6,1.51.87,1.15.72,1.76,1A6.51,6.51,0,0,1,17,20.37a1.42,1.42,0,0,1,.11,1.07,1.18,1.18,0,0,1-.33.5,1.37,1.37,0,0,1-1.54,0c-.71-.44-1.44-.84-2.16-1.27l-1.76-1c-.54-.41-1.24-.57-1.69-1.11a7.88,7.88,0,0,0-1.51-.87,18.87,18.87,0,0,0-2.38-1.38A2.26,2.26,0,0,1,4.84,15.47Z"/><path class="cls-45" d="M9.61,18.6a10.1,10.1,0,0,1,1.74,1,.38.38,0,0,1-.39.51,24.89,24.89,0,0,1-3.56,0A.27.27,0,0,1,7.2,20c0,.12,0,.21,0,.31,0,.3,0,.59,0,.88s.11.79-.19,1.12a7.89,7.89,0,0,1-.08-2,2.75,2.75,0,0,0-.17-1.14A5.76,5.76,0,0,1,9,19C9.28,19,9.51,18.93,9.61,18.6Z"/><path class="cls-46" d="M24.74,15.86h.88a17.69,17.69,0,0,1,1.92.07c.87,0,1.75,0,2.63,0a1.09,1.09,0,0,1,.82.2v1a1.27,1.27,0,0,1-.95.19c-2.06.05-4.12-.08-6.18.09L22,16.28c0-.27.18-.32.34-.33C23.12,15.93,23.93,15.84,24.74,15.86Z"/><path class="cls-47" d="M23.86,17.39c.21-.31.53-.28.84-.28H31v1a1.17,1.17,0,0,1-.89.19c-1.49,0-3-.05-4.49.08Z"/><path class="cls-48" d="M26.25,15.1c0-1,0-2.07,0-3.1a1.49,1.49,0,0,0-.53-1.26c.16-.23.41-.15.63-.15,1.3,0,2.61,0,3.91,0,.62,0,.82.19.73.77a4.13,4.13,0,0,0,0,.5,1.17,1.17,0,0,1-.83.18c-1.06,0-2.12,0-3.18,0-.4,0-.46.14-.43.46s0,.74,0,1.1,0,.67,0,1S26.58,15.06,26.25,15.1Z"/><path class="cls-49" d="M25.61,18.38a1.29,1.29,0,0,1,1-.27H31v1.13a1,1,0,0,1-.77.18h-3c-.22,0-.47-.07-.62.17a5.63,5.63,0,0,0,0,1.16c0,.38,0,.75,0,1.13s0,.49,0,.73,0,.47-.3.51c0-1.12,0-2.24,0-3.36A1.41,1.41,0,0,0,25.61,18.38Z"/><path class="cls-50" d="M26.25,23.12c.25-.39.07-.83.13-1.24a2.57,2.57,0,0,0,1.61.3h2.24a1,1,0,0,1,.76.19V23.5c-1.28,0-2.56,0-3.84,0a1.29,1.29,0,0,1-.92-.27A.11.11,0,0,1,26.25,23.12Z"/><path class="cls-51" d="M26.38,20.75V19.5c.46.51,1.07.42,1.66.42h2.19a1,1,0,0,1,.76.19v1.13a.87.87,0,0,1-.64.19H27.18C26.69,21.45,26.38,21.29,26.38,20.75Z"/><path class="cls-52" d="M26.38,13.6V12.48a2.57,2.57,0,0,0,1.61.3h2.24A1.1,1.1,0,0,1,31,13V14.1a.84.84,0,0,1-.64.19H27.18C26.69,14.3,26.38,14.14,26.38,13.6Z"/><path class="cls-53" d="M26.38,20.75c.12.41.39.52.82.51,1.26,0,2.53,0,3.79,0v1.12c-1.26,0-2.53,0-3.79,0-.43,0-.7-.09-.82-.5Z"/><path class="cls-54" d="M31,13c-1.27,0-2.54,0-3.8,0-.43,0-.7-.09-.82-.5v-.63H31Z"/><path class="cls-55" d="M26.25,15.1c.18-.13.11-.32.13-.49a3.5,3.5,0,0,0,1.86.31c.7,0,1.41,0,2.12,0a.84.84,0,0,1,.63.18v1c-1.2,0-2.4,0-3.61,0a3.78,3.78,0,0,1-1.76-.26A1.7,1.7,0,0,0,26.25,15.1Z"/><path class="cls-56" d="M31,15.1c-1.25,0-2.5,0-3.74,0a.78.78,0,0,1-.87-.5v-1c.12.42.39.52.82.51,1.26,0,2.53,0,3.8,0C31,14.44,31,14.77,31,15.1Z"/><path class="cls-34" d="M31,20.12c-1.22,0-2.44,0-3.66,0-.52,0-.87-.07-.95-.63,0-.2,0-.4.28-.35,1.44.2,2.89,0,4.33.09Z"/><path class="cls-57" d="M7.06,12.34a9.17,9.17,0,0,1,1.74-1c2.66.14,5.32,0,8,.06,1.71,0,3.41,0,5.12,0a1.42,1.42,0,0,1,.61.09,6.86,6.86,0,0,1,1.5.88.59.59,0,0,1-.52.6,2.58,2.58,0,0,1-.62.09c-2.18,0-4.36,0-6.54,0a2.81,2.81,0,0,1-.39-.19,1.22,1.22,0,0,0-1.72.11A8.89,8.89,0,0,0,12,12.79c-1.36,0-2.72,0-4.07,0C7.57,12.78,7.16,12.83,7.06,12.34Z"/><path class="cls-42" d="M7.06,22.27l0-1.14h.06c.31.83,1,.66,1.66.66,1.94,0,3.88,0,5.82,0a1.64,1.64,0,0,1,.62.09,1.37,1.37,0,0,0,1.42,0,2.65,2.65,0,0,1,1-.05c1.71,0,3.42,0,5.13,0a2.71,2.71,0,0,0,1.09-.21c.2.2.12.42,0,.64a4.37,4.37,0,0,1-1.5.88c-1.77-.08-3.54,0-5.31,0H9.81a5.71,5.71,0,0,0-1.24.08Z"/><path class="cls-58" d="M8.57,23.15c.12-.3.37-.28.63-.28H21.89c.24,0,.47,0,.6.24a5.72,5.72,0,0,1-1.76,1,8,8,0,0,1-1.3.08H11.81a5.76,5.76,0,0,0-1.24.09Z"/><path class="cls-59" d="M10.57,24.29c0-.25.19-.29.4-.29h9.49a.77.77,0,0,1,.27.11,5.56,5.56,0,0,1-1.75,1c-1.79.15-3.57,0-5.36.07a4.7,4.7,0,0,0-1.3.11Z"/><path class="cls-34" d="M16.85,20.36c-.47-.47-1.14-.66-1.65-1.08.08-.55.52-.47.87-.48,1.39,0,2.78,0,4.18,0a5,5,0,0,1,1.73.06,8.92,8.92,0,0,1,1.78,1c-.1.49-.5.44-.84.44-1.5,0-3,0-4.51,0C17.89,20.31,17.37,20.32,16.85,20.36Z"/><path class="cls-60" d="M12.32,25.31c0-.23.16-.31.38-.31l6.07,0c.07,0,.14.07.21.11-1,.76-2.13,1.28-3.19,1.94a.5.5,0,0,1-.57-.06Z"/><path class="cls-9" d="M22,18.86a57.57,57.57,0,0,1-5.87.13c-.33,0-.68,0-.91.29l-1.75-1c-.13-.44.21-.44.46-.47.54,0,1.08,0,1.62,0H18.4a4,4,0,0,0,1.46-.18A11.92,11.92,0,0,1,22,18.86Z"/><path class="cls-61" d="M16.33,13c.24-.29.6-.21.88-.2,1.87.09,3.75,0,5.63,0a1.15,1.15,0,0,0,1.17-.5,15,15,0,0,1,.1,2.76c-.32,0-.24-.32-.3-.52a3.18,3.18,0,0,1,0-.62c-1.87.21-3.76-.07-5.63.16Z"/><path class="cls-62" d="M7.06,12.34a.79.79,0,0,0,.73.26h5.64c.3,0,.64-.06.79.33a1.7,1.7,0,0,0-.13,1,1,1,0,0,0-.83-.2c-1.82,0-3.64,0-5.45,0-.26,0-.55,0-.65-.24,0,.27.24.68-.09,1A4.84,4.84,0,0,1,7.06,12.34Z"/><path class="cls-63" d="M7.07,14.58V13.09c.15.4.3.52.59.52,1.91,0,3.82,0,5.73,0,.35,0,.66-.1.7.38l.38.51a1.38,1.38,0,0,1-1.05.31c-2,0-4.07.07-6.1,0Z"/><path class="cls-46" d="M11.94,17.4l-1.75-1c.09-.44.46-.34.74-.35,1.3,0,2.61,0,3.92,0,.72,0,1.44-.07,2.16-.08a8.35,8.35,0,0,1,1.51.87c-.17.48-.59.46-1,.47h-4.3A7.12,7.12,0,0,0,11.94,17.4Z"/><path class="cls-64" d="M11.94,17.4c.13-.33.41-.29.68-.29h4.92a1.36,1.36,0,0,0,1-.28,6.18,6.18,0,0,1,1.34.78c-.14.39-.47.38-.8.38H14c-.24,0-.53-.09-.58.29Z"/><path class="cls-65" d="M17,16a2.09,2.09,0,0,1-1.13.28c-1.68,0-3.37,0-5.06,0-.22,0-.47-.08-.63.16l-1.37-.77c0-.49.43-.44.74-.45,1.12,0,2.24,0,3.36,0,.85,0,1.7,0,2.54-.06A6.9,6.9,0,0,1,17,16Z"/><path class="cls-66" d="M16.85,20.36c.09-.38.4-.24.61-.24,1.86,0,3.72,0,5.57,0a.82.82,0,0,0,.73-.26c.15,0,.33.09.33.23a6.16,6.16,0,0,1-.1,2.14v-.61c-.13-.35-.31-.48-.76-.47-1.77.07-3.54,0-5.31,0a.9.9,0,0,1-.7-.2c0,.19.12.5-.26.51A1.48,1.48,0,0,0,16.85,20.36Z"/><path class="cls-67" d="M18.22,14.12c.21-.3.53-.27.85-.27h4.24c.3,0,.56,0,.68-.36v1.12c0,.5-.35.68-.84.68-.93,0-1.86,0-2.79.05Z"/><path class="cls-41" d="M15.46,15.1c-.17.27-.44.26-.71.26H9.52c-.26,0-.56-.06-.7.27l-1.5-.88c.17-.22.41-.13.63-.14h4.54a10,10,0,0,0,2-.12A2.91,2.91,0,0,1,15.46,15.1Z"/><path class="cls-68" d="M20.36,15.34c.13-.26.36-.24.59-.24.73,0,1.46,0,2.18,0a.75.75,0,0,0,.86-.5c0,.16,0,.36.12.49a1.73,1.73,0,0,0,.63.76,4.83,4.83,0,0,1-2.1.25c-.24,0-.51-.09-.68.17Z"/><path class="cls-32" d="M22.51,11.46a7.26,7.26,0,0,1-1.86.13h-11a.93.93,0,0,1-.84-.27,8.07,8.07,0,0,1,1.5-.88,3.17,3.17,0,0,1,1.3-.06c2.83,0,5.66,0,8.49,0a1.88,1.88,0,0,1,.67.1A10.47,10.47,0,0,1,22.51,11.46Z"/><path class="cls-69" d="M20.76,10.45a79.37,79.37,0,0,1-10.46,0,21,21,0,0,1,2.15-1.24,30.4,30.4,0,0,0,5.05.19c.45,0,.88-.28,1.34-.06A13.5,13.5,0,0,1,20.76,10.45Z"/><path class="cls-70" d="M15.25,21.86a37.78,37.78,0,0,1-5.1.13c-.74,0-1.49,0-2.24,0-.51,0-.81-.08-.72-.67,0-.06-.07-.14-.1-.21v-.88c.44.62,1.08.58,1.74.56.93,0,1.87,0,2.81,0a3.77,3.77,0,0,0,1.45-.19A16.53,16.53,0,0,1,15.25,21.86Z"/><path class="cls-27" d="M18.84,9.34c-1.77.47-3.58.16-5.38.24a1.27,1.27,0,0,1-1-.37c.86-.57,1.77-1.06,2.68-1.54a.64.64,0,0,1,.64,0A29.58,29.58,0,0,1,18.84,9.34Z"/><path class="cls-71" d="M17,21.49c.26-.18.08-.46.16-.69a34.68,34.68,0,0,0,6.87.08v.74a.66.66,0,0,1-.68.39c-1.93,0-3.86,0-5.79,0a4,4,0,0,1-.85-.15Z"/><path class="cls-43" d="M13.09,20.62a.44.44,0,0,1-.51.38c-1.64,0-3.28,0-4.92,0-.66,0-.33-.55-.57-.76v-.61a.56.56,0,0,0,.58.36c1,0,2.07,0,3.1,0,.32,0,.51-.09.58-.39A10.1,10.1,0,0,1,13.09,20.62Z"/></g></g></svg>