<svg xmlns="http://www.w3.org/2000/svg" width="40" height="40" viewBox="0 0 40 40">
    <g fill="none" fill-rule="evenodd">
        <circle cx="20" cy="20" r="20" fill="#3C5998"/>
        <path fill="#FFF" fill-rule="nonzero" d="M23.23 13.003L21.43 13c-2.02 0-3.327 1.34-3.327 3.414v1.574h-1.809a.283.283 0 0 0-.283.284v2.28c0 .157.127.283.283.283h1.809v5.756c0 .156.126.282.283.282h2.36a.283.283 0 0 0 .283-.282v-5.756h2.115a.283.283 0 0 0 .283-.283v-2.28a.283.283 0 0 0-.283-.284H21.03v-1.334c0-.641.153-.967.988-.967h1.212a.283.283 0 0 0 .283-.283v-2.118a.283.283 0 0 0-.283-.283z"/>
    </g>
</svg>
