<svg xmlns="http://www.w3.org/2000/svg" width="40" height="40" viewBox="0 0 40 40">
    <g fill="none" fill-rule="evenodd">
        <circle cx="20" cy="20" r="20" fill="#7790A9"/>
        <path fill="#FFF" fill-rule="nonzero" d="M20.318 24.962h1.016s.307-.031.463-.188c.145-.144.14-.414.14-.414s-.02-1.265.613-1.452c.624-.183 1.425 1.223 2.274 1.764.642.41 1.13.32 1.13.32l2.27-.03s1.188-.068.624-.934c-.046-.071-.328-.641-1.688-1.813-1.423-1.226-1.232-1.027.482-3.148 1.045-1.292 1.462-2.08 1.332-2.418-.125-.322-.893-.237-.893-.237l-2.556.015s-.19-.024-.33.054a.671.671 0 0 0-.226.254s-.404 1-.944 1.85c-1.138 1.793-1.593 1.888-1.78 1.777-.432-.26-.324-1.043-.324-1.6 0-1.738.284-2.462-.553-2.65-.278-.062-.483-.103-1.193-.11-.912-.009-1.684.003-2.121.201-.291.132-.515.427-.379.444.17.02.552.096.755.352.262.33.252 1.073.252 1.073s.151 2.046-.351 2.3c-.345.175-.817-.181-1.832-1.808-.52-.834-.913-1.755-.913-1.755s-.075-.172-.21-.265c-.164-.111-.393-.147-.393-.147l-2.429.015s-.364.01-.498.157c-.12.13-.01.401-.01.401s1.902 4.129 4.055 6.21c1.975 1.907 4.217 1.782 4.217 1.782"/>
    </g>
</svg>
