<svg xmlns="http://www.w3.org/2000/svg" width="40" height="40" viewBox="0 0 40 40">
    <defs>
        <linearGradient id="a" x1="100%" x2="0%" y1="0%" y2="100%">
            <stop offset="0%" stop-color="#F1AC2E"/>
            <stop offset="100%" stop-color="#933AAC"/>
        </linearGradient>
    </defs>
    <g fill="none" fill-rule="evenodd">
        <circle cx="20" cy="20" r="20" fill="url(#a)"/>
        <path fill="#FFF" d="M17 12h6a5 5 0 0 1 5 5v6a5 5 0 0 1-5 5h-6a5 5 0 0 1-5-5v-6a5 5 0 0 1 5-5zm7 5a1 1 0 1 0 0-2 1 1 0 0 0 0 2zm-4 5a2 2 0 1 0 0-4 2 2 0 0 0 0 4zm0 1a3 3 0 1 1 0-6 3 3 0 0 1 0 6z"/>
    </g>
</svg>
