<svg xmlns="http://www.w3.org/2000/svg" width="14" height="14" viewBox="0 0 14 14">
    <path fill="#FFF" fill-rule="nonzero" d="M7.656 8.446h3.41a4.338 4.338 0 0 1-4.117 2.891 4.344 4.344 0 0 1-4.296-4.16 4.336 4.336 0 0 1 4.328-4.502c1.118 0 2.138.426 2.908 1.124a.47.47 0 0 0 .638-.003l1.253-1.178a.468.468 0 0 0 0-.68A6.955 6.955 0 0 0 7.12.025C3.271-.049.027 3.106 0 6.956a6.981 6.981 0 0 0 13.95.443c.006-.047.01-1.603.01-1.603H7.656a.468.468 0 0 0-.468.468v1.714c0 .259.21.468.468.468z"/>
</svg>
