<svg xmlns="http://www.w3.org/2000/svg" width="65" height="65" viewBox="0 0 65 65">
    <defs>
        <linearGradient id="a" x1="0%" y1="0%" y2="100%">
            <stop offset="0%" stop-color="#ED1556"/>
            <stop offset="100%" stop-color="#F23B33"/>
        </linearGradient>
    </defs>
    <g fill="none" fill-rule="evenodd" opacity=".9">
        <circle cx="32.5" cy="32.5" r="32.5" fill="#F6F6F6"/>
        <path fill="url(#a)" fill-rule="nonzero" d="M11 0C8.8 0 7 1.805 7 4v1h2V4c0-1.117.883-2 2-2h4c1.117 0 2 .883 2 2v1h2V4c0-2.195-1.8-4-4-4h-4zM4.875 6A4.876 4.876 0 0 0 0 10.875v9.25A4.876 4.876 0 0 0 4.875 25h16.25A4.876 4.876 0 0 0 26 20.125v-9.25A4.876 4.876 0 0 0 21.125 6H4.875zM13 13c1.108 0 2 .892 2 2s-.892 2-2 2-2-.892-2-2 .892-2 2-2z" transform="translate(20 20)"/>
    </g>
</svg>
