<?xml version="1.0" encoding="UTF-8" standalone="no"?>
<svg
   xmlns:dc="http://purl.org/dc/elements/1.1/"
   xmlns:cc="http://creativecommons.org/ns#"
   xmlns:rdf="http://www.w3.org/1999/02/22-rdf-syntax-ns#"
   xmlns:svg="http://www.w3.org/2000/svg"
   xmlns="http://www.w3.org/2000/svg"
   xmlns:sodipodi="http://sodipodi.sourceforge.net/DTD/sodipodi-0.dtd"
   xmlns:inkscape="http://www.inkscape.org/namespaces/inkscape"
   width="19"
   height="21"
   viewBox="0 0 19 21"
   version="1.1"
   id="svg4"
   sodipodi:docname="ico_andr.svg"
   inkscape:version="0.92.1 r15371">
  <metadata
     id="metadata10">
    <rdf:RDF>
      <cc:Work
         rdf:about="">
        <dc:format>image/svg+xml</dc:format>
        <dc:type
           rdf:resource="http://purl.org/dc/dcmitype/StillImage" />
      </cc:Work>
    </rdf:RDF>
  </metadata>
  <defs
     id="defs8" />
  <sodipodi:namedview
     pagecolor="#ffffff"
     bordercolor="#666666"
     borderopacity="1"
     objecttolerance="10"
     gridtolerance="10"
     guidetolerance="10"
     inkscape:pageopacity="0"
     inkscape:pageshadow="2"
     inkscape:window-width="1920"
     inkscape:window-height="1001"
     id="namedview6"
     showgrid="false"
     inkscape:zoom="11.238095"
     inkscape:cx="-5.1822034"
     inkscape:cy="10.5"
     inkscape:window-x="-9"
     inkscape:window-y="-9"
     inkscape:window-maximized="1"
     inkscape:current-layer="svg4" />
  <path
     d="M 1.5000001,7.088983 C 0.672,7.088983 0,7.587983 0,8.203983 v 4.77 c 0,0.615 0.672,1.115 1.5000001,1.115 0.828,0 1.5,-0.5 1.5,-1.116 v -4.769 c 0,-0.616 -0.672,-1.115 -1.5,-1.115 z m 4.705,-4 c -1.338,0.91 -2.205,2.356 -2.205,3.989 0,0.024 10.9999999,0.001 10.9999999,0 0,-1.938 -1.22,-3.613 -3,-4.44 v -1.549 a 1.0000001,1.0000001 0 1 0 -2,0 v 1.02 a 5.995,5.995 0 0 0 -1.9999999,0.171 v -1.191 a 1,1 0 1 0 -2,0 v 2 z m 1.795,4 a 1,1 0 1 1 0,-2 1,1 0 1 1 0,2 z m 2.9999999,0 a 1,1 0 1 1 0,-2 1,1 0 1 1 0,2 z m 6.5,0 c -0.828,0 -1.5,0.499 -1.5,1.115 v 4.77 c 0,0.615 0.672,1.115 1.5,1.115 0.83,0 1.5,-0.5 1.5,-1.116 v -4.769 c 0,-0.616 -0.672,-1.115 -1.5,-1.115 z m -13.4999999,7.634 c 0,1.052 0.866,1.904 1.935,1.908 v 3.342 c 0,0.617 0.579,1.116 1.293,1.116 0.714,0 1.293,-0.5 1.293,-1.116 v -3.342 H 10.464 v 3.342 c 0,0.617 0.58,1.116 1.294,1.116 0.713,0 1.293,-0.5 1.293,-1.116 v -3.342 h 0.008 c 1.072,0 1.941,-0.855 1.941,-1.908 v -7.634 H 4.0000001 Z"
     id="path2"
     inkscape:connector-curvature="0"
     style="opacity:1;fill:#ffffff;fill-rule:nonzero;fill-opacity:1" />
</svg>
