<svg xmlns="http://www.w3.org/2000/svg" width="17" height="22" viewBox="0 0 17 22">
    <path fill="#FFF" fill-rule="nonzero" d="M.055 11.451a8.09 8.09 0 0 1 .277-3.237 8.238 8.238 0 0 1 7.802-5.873V.145c0-.122.153-.188.254-.114l4.556 3.32c.075.057.075.17 0 .223l-4.551 3.32c-.106.074-.255.009-.255-.113V4.589a5.963 5.963 0 0 0-5.394 3.625 5.794 5.794 0 0 0-.462 2.588 5.862 5.862 0 0 0 1.3 3.368 1.118 1.118 0 0 1-.215 1.612 1.15 1.15 0 0 1-1.572-.217 8.023 8.023 0 0 1-1.74-4.114zM13.426 7.83a5.79 5.79 0 0 1 1.301 3.368 5.83 5.83 0 0 1-.461 2.588 5.96 5.96 0 0 1-5.397 3.625V15.22c0-.122-.154-.187-.255-.113l-4.558 3.32c-.075.057-.075.17 0 .223l4.553 3.32c.106.074.255.008.255-.114V19.66c3.697-.039 6.817-2.51 7.806-5.873a8.165 8.165 0 0 0 .277-3.237 7.979 7.979 0 0 0-1.736-4.114 1.15 1.15 0 0 0-1.574-.217 1.121 1.121 0 0 0-.21 1.612z"/>
</svg>
