<?xml version="1.0" encoding="UTF-8" standalone="no"?>
<svg
   xmlns:dc="http://purl.org/dc/elements/1.1/"
   xmlns:cc="http://creativecommons.org/ns#"
   xmlns:rdf="http://www.w3.org/1999/02/22-rdf-syntax-ns#"
   xmlns:svg="http://www.w3.org/2000/svg"
   xmlns="http://www.w3.org/2000/svg"
   xmlns:sodipodi="http://sodipodi.sourceforge.net/DTD/sodipodi-0.dtd"
   xmlns:inkscape="http://www.inkscape.org/namespaces/inkscape"
   width="16"
   height="20"
   viewBox="0 0 16 20"
   version="1.1"
   id="svg4"
   sodipodi:docname="ico_apl.svg"
   inkscape:version="0.92.1 r15371">
  <metadata
     id="metadata10">
    <rdf:RDF>
      <cc:Work
         rdf:about="">
        <dc:format>image/svg+xml</dc:format>
        <dc:type
           rdf:resource="http://purl.org/dc/dcmitype/StillImage" />
      </cc:Work>
    </rdf:RDF>
  </metadata>
  <defs
     id="defs8" />
  <sodipodi:namedview
     pagecolor="#ffffff"
     bordercolor="#666666"
     borderopacity="1"
     objecttolerance="10"
     gridtolerance="10"
     guidetolerance="10"
     inkscape:pageopacity="0"
     inkscape:pageshadow="2"
     inkscape:window-width="1920"
     inkscape:window-height="1001"
     id="namedview6"
     showgrid="false"
     inkscape:zoom="11.8"
     inkscape:cx="-5.9830508"
     inkscape:cy="10"
     inkscape:window-x="-9"
     inkscape:window-y="-9"
     inkscape:window-maximized="1"
     inkscape:current-layer="svg4" />
  <path
     fill="#FFF"
     fill-rule="nonzero"
     d="M9.073 1.64C9.784.726 10.987.046 11.979 0c.127 1.27-.339 2.542-1.028 3.459-.69.915-1.818 1.628-2.926 1.532-.15-1.242.407-2.538 1.048-3.35zm5.566 15.906c-.82 1.205-1.668 2.402-3.007 2.427-1.317.025-1.74-.784-3.243-.784-1.505 0-1.976.76-3.22.81-1.292.048-2.275-1.302-3.102-2.501C.38 15.045-.91 10.563.823 7.538c.858-1.502 2.396-2.452 4.063-2.477 1.27-.024 2.468.86 3.244.86.776 0 2.232-1.061 3.762-.905.64.026 2.438.259 3.592 1.957-.091.06-2.145 1.262-2.12 3.764.024 2.99 2.606 3.983 2.636 3.997-.024.07-.413 1.419-1.36 2.812z"
     opacity=".5"
     id="path2"
     style="opacity:1" />
</svg>
