<svg xmlns="http://www.w3.org/2000/svg" width="65" height="65" viewBox="0 0 65 65">
    <defs>
        <linearGradient id="a" x1="0%" y1="0%" y2="100%">
            <stop offset="0%" stop-color="#ED1556"/>
            <stop offset="100%" stop-color="#F23B33"/>
        </linearGradient>
    </defs>
    <g fill="none" fill-rule="evenodd">
        <circle cx="32.5" cy="32.5" r="32.5" fill="#F6F6F6"/>
        <path fill="url(#a)" fill-rule="nonzero" d="M25 15.742c0 .54-.453.982-1.01.983-2.346.006-6.278.483-8.99 3.254V4.535c0-.183.048-.356.138-.498C17.365.537 21.643.005 23.995 0h.002c.266 0 .517.101.706.286A.968.968 0 0 1 25 .984v14.758zM4.005 0c2.352.005 6.63.537 8.856 4.037.091.142.139.315.139.498v15.444c-2.712-2.77-6.644-3.248-8.99-3.254-.557-.001-1.01-.442-1.01-.984V.984c0-.264.105-.512.297-.698C3.486.1 3.737 0 4.003 0h.002zM1.753 15.597c0 1.41 1.162 2.561 2.59 2.564 2.007.005 5.314.624 7.657 2.817H1c-.304.069-.375-.028-.618-.22A.995.995 0 0 1 0 19.973V4.002c0-.554.456-1.005 1.016-1.005h.737v12.6zm25.231-12.6h-.737v12.6c0 1.41-1.162 2.56-2.59 2.564-2.007.005-5.314.624-7.657 2.817h10.757c.304.068.618-.028.861-.22a.995.995 0 0 0 .382-.785V4.002c0-.554-.456-1.005-1.016-1.005z" transform="translate(19 22)"/>
    </g>
</svg>
