<?xml version="1.0" encoding="UTF-8"?>
<svg width="14px" height="14px" viewBox="0 0 14 14" version="1.1" xmlns="http://www.w3.org/2000/svg" xmlns:xlink="http://www.w3.org/1999/xlink">
    <!-- Generator: Sketch 48 (47235) - http://www.bohemiancoding.com/sketch -->
    <title>LinkedIn</title>
    <desc>Created with Sketch.</desc>
    <defs></defs>
    <g id="about" stroke="none" stroke-width="1" fill="none" fill-rule="evenodd" transform="translate(-403.000000, -1076.000000)">
        <g id="Bitmap" transform="translate(340.000000, 762.000000)" fill="#FFFFFF" fill-rule="nonzero">
            <g id="Group-10" transform="translate(50.000000, 302.000000)">
                <g id="linkedin-logo" transform="translate(13.000000, 12.000000)">
                    <path d="M14,8.16125501 L14,13.3114754 L10.9993467,13.3114754 L10.9993467,8.50618572 C10.9993467,7.29905778 10.5653345,6.47524016 9.47919752,6.47524016 C8.65006963,6.47524016 8.15665505,7.03043286 7.93958388,7.56748836 C7.86042402,7.7594836 7.84004817,8.02671584 7.84004817,8.2954703 L7.84004817,13.3114754 L4.83838583,13.3114754 C4.83838583,13.3114754 4.87881204,5.1728919 4.83838583,4.32967396 L7.83975523,4.32967396 L7.83975523,5.60280836 C7.83366851,5.61233039 7.82575904,5.62259735 7.82003036,5.63182789 L7.83975523,5.63182789 L7.83975523,5.60280836 C8.2385165,4.99168182 8.95066226,4.11866705 10.5446658,4.11866705 C12.5195284,4.11863466 14,5.40239228 14,8.16125501 Z M1.69851924,0 C0.671654457,0 0,0.670201996 0,1.55154045 C0,2.41367291 0.652222535,3.10421448 1.65867892,3.10421448 L1.67872928,3.10421448 C2.72548167,3.10421448 3.37646733,2.41380246 3.37646733,1.55154045 C3.35674247,0.670201996 2.72548167,0 1.69851924,0 Z M0.178272424,13.3114754 L3.17879554,13.3114754 L3.17879554,4.32967396 L0.178272424,4.32967396 L0.178272424,13.3114754 Z" id="LinkedIn"></path>
                </g>
            </g>
        </g>
    </g>
</svg>