<svg xmlns="http://www.w3.org/2000/svg" width="108" height="174" viewBox="0 0 108 174">
    <g fill="none" fill-rule="nonzero">
        <path fill="#FFDC64" d="M40.436 173.088L107.5 57.526c1.518-2.616-.636-5.836-3.631-5.428l-44.61 6.068 10.658-56c.36-1.888-2.072-2.97-3.232-1.438L.746 87.833c-1.92 2.537.114 6.144 3.277 5.811l49.182-5.18L37.08 171.83c-.388 2.01 2.327 3.03 3.355 1.258z"/>
        <path fill="#FFC850" d="M21.283 81.688c-1.227.098-2.042-1.25-1.39-2.299L69 .416c-.73-.58-1.88-.618-2.577.306L.743 87.862c-1.913 2.54.113 6.148 3.264 5.815l48.988-5.183-16.06 83.4c-.217 1.125.538 1.917 1.42 2.106l27.52-87.528c1.29-4.102-1.964-8.212-6.231-7.869l-38.361 3.085z"/>
    </g>
</svg>
