<?xml version="1.0" encoding="UTF-8"?>
<svg width="169px" height="133px" viewBox="0 0 169 133" version="1.1" xmlns="http://www.w3.org/2000/svg" xmlns:xlink="http://www.w3.org/1999/xlink">
    <!-- Generator: Sketch 49.3 (51167) - http://www.bohemiancoding.com/sketch -->
    <title>Group</title>
    <desc>Created with Sketch.</desc>
    <defs>
        <linearGradient x1="0%" y1="0%" x2="100%" y2="100%" id="linearGradient-1">
            <stop stop-color="#ED1556" offset="0%"></stop>
            <stop stop-color="#F23B33" offset="100%"></stop>
        </linearGradient>
    </defs>
    <g id="eng" stroke="none" stroke-width="1" fill="none" fill-rule="evenodd">
        <g id="form" transform="translate(-498.000000, -180.000000)">
            <g id="Group" transform="translate(498.000000, 180.000000)">
                <rect id="Rectangle-Copy" stroke="#181818" stroke-width="2" opacity="0.804744112" x="1" y="1" width="148" height="108" rx="8"></rect>
                <circle id="Oval-4" fill="#FF6158" cx="13.5" cy="12.5" r="2.5"></circle>
                <circle id="Oval-4-Copy" fill="#FFC12F" cx="21.5" cy="12.5" r="2.5"></circle>
                <circle id="Oval-4-Copy-2" fill="#2ACE42" cx="29.5" cy="12.5" r="2.5"></circle>
                <rect id="Rectangle-25" fill="url(#linearGradient-1)" x="48" y="40" width="121" height="80" rx="7"></rect>
                <rect id="Rectangle" fill="#FFFFFF" x="68" y="65" width="72" height="2"></rect>
                <rect id="Rectangle-Copy-2" fill="#FFFFFF" x="68" y="79" width="52" height="2"></rect>
                <rect id="Rectangle-Copy-3" fill="#FFFFFF" x="68" y="93" width="81" height="2"></rect>
                <path d="M129,120 L145.8,132.6 C146.683656,133.262742 147.937258,133.083656 148.6,132.2 C148.859644,131.853808 149,131.43274 149,131 L149,120 L129,120 Z" id="Path-3" fill="#F23637"></path>
            </g>
        </g>
    </g>
</svg>