<svg xmlns="http://www.w3.org/2000/svg" width="15" height="12" viewBox="0 0 15 12">
    <path fill="#FFF" fill-rule="nonzero" d="M14.617 1.502c-.538.239-1.115.4-1.721.473.619-.371 1.093-.96 1.318-1.658a6.045 6.045 0 0 1-1.906.728 2.999 2.999 0 0 0-5.11 2.734A8.513 8.513 0 0 1 1.019.645a2.997 2.997 0 0 0 .928 4.003 2.999 2.999 0 0 1-1.358-.376v.037a3.002 3.002 0 0 0 2.405 2.94 3.037 3.037 0 0 1-.79.106c-.193 0-.38-.02-.564-.056a3 3 0 0 0 2.8 2.082 6.016 6.016 0 0 1-3.724 1.282c-.242 0-.48-.015-.715-.041a8.476 8.476 0 0 0 4.596 1.349c5.516 0 8.532-4.569 8.532-8.531l-.01-.389a5.988 5.988 0 0 0 1.5-1.549z"/>
</svg>
