<svg xmlns="http://www.w3.org/2000/svg" width="17" height="9" viewBox="0 0 17 9">
    <path fill="#FFF" fill-rule="nonzero" d="M8.318 8.962h1.016s.307-.031.463-.188c.145-.144.14-.414.14-.414s-.02-1.265.613-1.452c.624-.183 1.425 1.223 2.274 1.764.642.41 1.13.32 1.13.32l2.27-.03s1.188-.068.624-.934c-.046-.071-.328-.641-1.688-1.813-1.423-1.226-1.232-1.027.482-3.148 1.045-1.292 1.462-2.08 1.332-2.418-.125-.322-.893-.237-.893-.237l-2.556.015s-.19-.024-.33.054c-.137.076-.226.254-.226.254s-.404 1-.944 1.85c-1.138 1.793-1.593 1.888-1.78 1.777-.432-.26-.324-1.043-.324-1.6 0-1.738.284-2.462-.553-2.65C9.09.05 8.885.01 8.175.002 7.263-.007 6.49.005 6.054.203c-.291.132-.515.427-.379.444.17.02.552.096.755.352.262.33.252 1.073.252 1.073s.151 2.046-.351 2.3c-.345.175-.817-.181-1.832-1.808A14.674 14.674 0 0 1 3.586.809s-.075-.172-.21-.265C3.212.433 2.983.397 2.983.397L.554.412S.19.422.056.57c-.12.13-.01.401-.01.401S1.948 5.1 4.101 7.18c1.975 1.907 4.217 1.782 4.217 1.782"/>
</svg>
