<?xml version="1.0" encoding="UTF-8" standalone="no"?>
<!-- Created with Inkscape (http://www.inkscape.org/) -->

<svg
   xmlns:dc="http://purl.org/dc/elements/1.1/"
   xmlns:cc="http://creativecommons.org/ns#"
   xmlns:rdf="http://www.w3.org/1999/02/22-rdf-syntax-ns#"
   xmlns:svg="http://www.w3.org/2000/svg"
   xmlns="http://www.w3.org/2000/svg"
   xmlns:sodipodi="http://sodipodi.sourceforge.net/DTD/sodipodi-0.dtd"
   xmlns:inkscape="http://www.inkscape.org/namespaces/inkscape"
   version="1.1"
   id="svg2"
   width="183"
   height="64.496117"
   viewBox="0 0 183 64.496117"
   sodipodi:docname="candy-button-bg.svg"
   inkscape:version="0.92.1 r15371">
  <metadata
     id="metadata8">
    <rdf:RDF>
      <cc:Work
         rdf:about="">
        <dc:format>image/svg+xml</dc:format>
        <dc:type
           rdf:resource="http://purl.org/dc/dcmitype/StillImage" />
        <dc:title></dc:title>
      </cc:Work>
    </rdf:RDF>
  </metadata>
  <defs
     id="defs6" />
  <sodipodi:namedview
     pagecolor="#ffffff"
     bordercolor="#666666"
     borderopacity="1"
     objecttolerance="10"
     gridtolerance="10"
     guidetolerance="10"
     inkscape:pageopacity="0"
     inkscape:pageshadow="2"
     inkscape:window-width="1920"
     inkscape:window-height="1001"
     id="namedview4"
     showgrid="false"
     inkscape:zoom="2.579235"
     inkscape:cx="76.379237"
     inkscape:cy="20.394382"
     inkscape:window-x="-9"
     inkscape:window-y="41"
     inkscape:window-maximized="1"
     inkscape:current-layer="svg2"
     fit-margin-top="0"
     fit-margin-left="0"
     fit-margin-right="0"
     fit-margin-bottom="0" />
  <g
     id="g12"
     transform="translate(0,0.47038176)">
    <path
       style="fill:#ae9493"
       d="m 3.8125,63.316886 c 0.721875,-0.288871 1.584375,-0.253344 1.9166667,0.07895 0.3322916,0.332292 -0.2583334,0.568641 -1.3125,0.52522 C 3.2517237,63.873069 3.0147673,63.636112 3.8125,63.316886 Z M 177,63.606989 c 0,-0.216156 0.69837,-0.661002 1.55194,-0.988546 0.88992,-0.341496 1.29132,-0.173849 0.94098,0.393011 C 178.90566,63.961658 177,64.416902 177,63.606989 Z M 33,56.5 C 32.315311,55.675 31.980111,55 32.255111,55 c 0.275,0 1.0602,0.675 1.744889,1.5 0.684689,0.825 1.019889,1.5 0.744889,1.5 -0.275,0 -1.0602,-0.675 -1.744889,-1.5 z M 26.078947,44.416667 c 0.04798,-1.164943 0.284941,-1.4019 0.604167,-0.604167 0.288871,0.721875 0.253344,1.584375 -0.07895,1.916667 -0.332292,0.332291 -0.568641,-0.258334 -0.52522,-1.3125 z m 1,-5 c 0.04798,-1.164943 0.284941,-1.4019 0.604167,-0.604167 0.288871,0.721875 0.253344,1.584375 -0.07895,1.916667 -0.332292,0.332291 -0.568641,-0.258334 -0.52522,-1.3125 z M 156.41714,38.644673 c -0.28605,-0.74543 -0.37842,-4.23293 -0.20527,-7.75 L 156.52668,24.5 l 0.48666,7.752328 c 0.48701,7.757829 0.37766,8.930184 -0.5962,6.392345 z M 25.299664,31 c 0,-3.025 0.187466,-4.2625 0.41659,-2.75 0.229125,1.5125 0.229125,3.9875 0,5.5 -0.229124,1.5125 -0.41659,0.275 -0.41659,-2.75 z m 1.858231,-10 c 0,-1.375 0.226973,-1.9375 0.504386,-1.25 0.277412,0.6875 0.277412,1.8125 0,2.5 -0.277413,0.6875 -0.504386,0.125 -0.504386,-1.25 z M 154.07895,18.416667 c 0.048,-1.164943 0.28494,-1.4019 0.60416,-0.604167 0.28887,0.721875 0.25335,1.584375 -0.0789,1.916667 -0.3323,0.332291 -0.56864,-0.258334 -0.52522,-1.3125 z M 154,12.059017 c 0,-0.517541 0.44485,-1.215913 0.98855,-1.551938 0.56686,-0.350339 0.7345,0.05106 0.39301,0.940983 C 154.71677,13.180479 154,13.497449 154,12.059017 Z M 1.0789474,1.4166667 C 1.1269313,0.25172368 1.3638877,0.0147673 1.683114,0.8125 1.9719846,1.534375 1.9364583,2.396875 1.6041667,2.7291667 1.271875,3.0614583 1.0355263,2.4708333 1.0789474,1.4166667 Z"
       id="path26"
       inkscape:connector-curvature="0" />
    <path
       style="fill:#886161"
       d="m 27.078947,36.416667 c 0.04798,-1.164943 0.284941,-1.4019 0.604167,-0.604167 0.288871,0.721875 0.253344,1.584375 -0.07895,1.916667 -0.332292,0.332291 -0.568641,-0.258334 -0.52522,-1.3125 z m 0,-12 c 0.04798,-1.164943 0.284941,-1.4019 0.604167,-0.604167 0.288871,0.721875 0.253344,1.584375 -0.07895,1.916667 -0.332292,0.332291 -0.568641,-0.258334 -0.52522,-1.3125 z M 67.25,2.2508844 c 13.0625,-0.157895 34.4375,-0.157895 47.5,0 13.0625,0.157895 2.375,0.2870818 -23.75,0.2870818 -26.125,0 -36.8125,-0.1291868 -23.75,-0.2870818 z"
       id="path24"
       inkscape:connector-curvature="0" />
    <path
       style="fill:#764a48"
       d="m 68.31886,61.250722 c 13.100372,-0.157985 34.25037,-0.157819 47,3.68e-4 C 128.06849,61.409277 117.35,61.538536 91.5,61.538334 65.65,61.538132 55.218487,61.408706 68.31886,61.250722 Z M 27.286014,30.5 c 0.0075,-2.75 0.201713,-3.756313 0.431567,-2.23625 0.229855,1.520062 0.223712,3.770062 -0.01365,5 C 27.466569,34.493687 27.278507,33.25 27.286014,30.5 Z M 154.07895,23.416667 c 0.048,-1.164943 0.28494,-1.4019 0.60416,-0.604167 0.28887,0.721875 0.25335,1.584375 -0.0789,1.916667 -0.3323,0.332291 -0.56864,-0.258334 -0.52522,-1.3125 z"
       id="path22"
       inkscape:connector-curvature="0" />
    <path
       style="fill:#5e2420"
       d="m 179.45888,48.933469 c -0.36253,-0.586592 -0.44468,-1.281 -0.18255,-1.543128 0.26212,-0.262129 0.74306,0.21781 1.06875,1.066531 0.67618,1.762107 0.0999,2.072058 -0.8862,0.476597 z M 118,47.940983 c 0,-0.582459 0.45,-0.780902 1,-0.440983 0.55,0.339919 1,0.816476 1,1.059017 C 120,48.801558 119.55,49 119,49 c -0.55,0 -1,-0.476558 -1,-1.059017 z M 148.5,48 c 0.33992,-0.55 0.81648,-1 1.05902,-1 0.24254,0 0.44098,0.45 0.44098,1 0,0.55 -0.47656,1 -1.05902,1 -0.58246,0 -0.7809,-0.45 -0.44098,-1 z M 42.5,34 c 0.339919,-0.55 0.816476,-1 1.059017,-1 C 43.801558,33 44,33.45 44,34 44,34.55 43.523442,35 42.940983,35 42.358524,35 42.160081,34.55 42.5,34 Z m 40,0 c 0.339919,-0.55 0.816476,-1 1.059017,-1 C 83.801558,33 84,33.45 84,34 84,34.55 83.523442,35 82.940983,35 82.358524,35 82.160081,34.55 82.5,34 Z M 123,33.94098 c 0,-0.582459 0.45,-0.780902 1,-0.440983 0.55,0.339919 1,0.816476 1,1.059017 C 125,34.801558 124.55,35 124,35 c -0.55,0 -1,-0.476558 -1,-1.059017 z m -5,-14 c 0,-0.582459 0.45,-0.780902 1,-0.440983 0.55,0.339919 1,0.816476 1,1.059017 C 120,20.801558 119.55,21 119,21 c -0.55,0 -1,-0.476558 -1,-1.059017 z M 148.5,20 c 0.33992,-0.55 0.81648,-1 1.05902,-1 0.24254,0 0.44098,0.45 0.44098,1 0,0.55 -0.47656,1 -1.05902,1 -0.58246,0 -0.7809,-0.45 -0.44098,-1 z M 42.5,6 C 42.839919,5.45 43.316476,5 43.559017,5 43.801558,5 44,5.45 44,6 44,6.55 43.523442,7 42.940983,7 42.358524,7 42.160081,6.55 42.5,6 Z m 40,0 C 82.839919,5.45 83.316476,5 83.559017,5 83.801558,5 84,5.45 84,6 84,6.55 83.523442,7 82.940983,7 82.358524,7 82.160081,6.55 82.5,6 Z M 123,5.940983 c 0,-0.5824593 0.45,-0.7809017 1,-0.440983 0.55,0.3399187 1,0.8164763 1,1.059017 C 125,6.8015576 124.55,7 124,7 123.45,7 123,6.5234424 123,5.940983 Z m 10,0 c 0,-0.5824593 0.45,-0.7809017 1,-0.440983 0.55,0.3399187 1,0.8164763 1,1.059017 C 135,6.8015576 134.55,7 134,7 133.45,7 133,6.5234424 133,5.940983 Z M 178.5,1 C 178.16008,0.45 178.35852,0 178.94098,0 179.52344,0 180,0.45 180,1 c 0,0.55 -0.19844,1 -0.44098,1 -0.24254,0 -0.7191,-0.45 -1.05902,-1 z"
       id="path20"
       inkscape:connector-curvature="0" />
    <path
       style="fill:#5c211d"
       d="m 12.5,53 c 0.339919,-0.55 0.816476,-1 1.059017,-1 C 13.801558,52 14,52.45 14,53 14,53.55 13.523442,54 12.940983,54 12.358524,54 12.160081,53.55 12.5,53 Z M 22,52.94098 c 0,-0.582459 0.45,-0.780902 1,-0.440983 0.55,0.339919 1,0.816476 1,1.059017 C 24,53.801558 23.55,54 23,54 22.45,54 22,53.523442 22,52.940983 Z m 10,0 c 0,-0.582459 0.45,-0.780902 1,-0.440983 0.55,0.339919 1,0.816476 1,1.059017 C 34,53.801558 33.55,54 33,54 32.45,54 32,53.523442 32,52.940983 Z m 10,0 c 0,-0.582459 0.45,-0.780902 1,-0.440983 0.55,0.339919 1,0.816476 1,1.059017 C 44,53.801558 43.55,54 43,54 42.45,54 42,53.523442 42,52.940983 Z m 40,0 c 0,-0.582459 0.45,-0.780902 1,-0.440983 0.55,0.339919 1,0.816476 1,1.059017 C 84,53.801558 83.55,54 83,54 82.45,54 82,53.523442 82,52.940983 Z M 133.5,53 c 0.33992,-0.55 0.81648,-1 1.05902,-1 0.24254,0 0.44098,0.45 0.44098,1 0,0.55 -0.47656,1 -1.05902,1 -0.58246,0 -0.7809,-0.45 -0.44098,-1 z m 10,0 c 0.33992,-0.55 0.81648,-1 1.05902,-1 0.24254,0 0.44098,0.45 0.44098,1 0,0.55 -0.47656,1 -1.05902,1 -0.58246,0 -0.7809,-0.45 -0.44098,-1 z M 163,52.94098 c 0,-0.582459 0.45,-0.780902 1,-0.440983 0.55,0.339919 1,0.816476 1,1.059017 C 165,53.801558 164.55,54 164,54 c -0.55,0 -1,-0.476558 -1,-1.059017 z m -146,-14 c 0,-0.582459 0.45,-0.780902 1,-0.440983 0.55,0.339919 1,0.816476 1,1.059017 C 19,39.801558 18.55,40 18,40 17.45,40 17,39.523442 17,38.940983 Z M 108.5,39 c 0.33992,-0.55 0.81648,-1 1.05902,-1 0.24254,0 0.44098,0.45 0.44098,1 0,0.55 -0.47656,1 -1.05902,1 -0.58246,0 -0.7809,-0.45 -0.44098,-1 z m 10,0 c 0.33992,-0.55 0.81648,-1 1.05902,-1 0.24254,0 0.44098,0.45 0.44098,1 0,0.55 -0.47656,1 -1.05902,1 -0.58246,0 -0.7809,-0.45 -0.44098,-1 z m 10,0 c 0.33992,-0.55 0.81648,-1 1.05902,-1 0.24254,0 0.44098,0.45 0.44098,1 0,0.55 -0.47656,1 -1.05902,1 -0.58246,0 -0.7809,-0.45 -0.44098,-1 z M 148,38.94098 c 0,-0.582459 0.45,-0.780902 1,-0.440983 0.55,0.339919 1,0.816476 1,1.059017 C 150,39.801558 149.55,40 149,40 c -0.55,0 -1,-0.476558 -1,-1.059017 z M 87.613087,28.817021 c 0.28881,-0.467304 0.944015,-0.590747 1.456011,-0.274316 1.308382,0.808625 1.161058,1.123962 -0.525109,1.123962 -0.800807,0 -1.219712,-0.382341 -0.930902,-0.849646 z M 2.5,25 C 2.8399187,24.45 3.3164763,24 3.559017,24 3.8015576,24 4,24.45 4,25 4,25.55 3.5234424,26 2.940983,26 2.3585237,26 2.1600813,25.55 2.5,25 Z m 10,0 c 0.339919,-0.55 0.816476,-1 1.059017,-1 C 13.801558,24 14,24.45 14,25 14,25.55 13.523442,26 12.940983,26 12.358524,26 12.160081,25.55 12.5,25 Z M 32,24.940983 c 0,-0.582459 0.45,-0.780902 1,-0.440983 0.55,0.339919 1,0.816476 1,1.059017 C 34,25.801558 33.55,26 33,26 32.45,26 32,25.523442 32,24.940983 Z m 10,0 c 0,-0.582459 0.45,-0.780902 1,-0.440983 0.55,0.339919 1,0.816476 1,1.059017 C 44,25.801558 43.55,26 43,26 42.45,26 42,25.523442 42,24.940983 Z m 40,0 c 0,-0.582459 0.45,-0.780902 1,-0.440983 0.55,0.339919 1,0.816476 1,1.059017 C 84,25.801558 83.55,26 83,26 82.45,26 82,25.523442 82,24.940983 Z M 123.5,25 c 0.33992,-0.55 0.81648,-1 1.05902,-1 0.24254,0 0.44098,0.45 0.44098,1 0,0.55 -0.47656,1 -1.05902,1 -0.58246,0 -0.7809,-0.45 -0.44098,-1 z m 10,0 c 0.33992,-0.55 0.81648,-1 1.05902,-1 0.24254,0 0.44098,0.45 0.44098,1 0,0.55 -0.47656,1 -1.05902,1 -0.58246,0 -0.7809,-0.45 -0.44098,-1 z M 163,24.94098 c 0,-0.582459 0.45,-0.780902 1,-0.440983 0.55,0.339919 1,0.816476 1,1.059017 C 165,25.801558 164.55,26 164,26 c -0.55,0 -1,-0.476558 -1,-1.059017 z m 10,0 c 0,-0.582459 0.45,-0.780902 1,-0.440983 0.55,0.339919 1,0.816476 1,1.059017 C 175,25.801558 174.55,26 174,26 c -0.55,0 -1,-0.476558 -1,-1.059017 z M 108.56429,10.293128 c -0.54268,-1.4251984 -0.42782,-1.5400619 0.5598,-0.5597947 0.68342,0.6783337 0.99067,1.4852407 0.68278,1.7931277 -0.30789,0.307888 -0.86705,-0.247112 -1.24258,-1.233333 z M 118.5,11 c 0.33992,-0.55 0.81648,-1 1.05902,-1 0.24254,0 0.44098,0.45 0.44098,1 0,0.55 -0.47656,1 -1.05902,1 -0.58246,0 -0.7809,-0.45 -0.44098,-1 z M 148,10.94098 c 0,-0.582459 0.45,-0.780902 1,-0.440983 0.55,0.339919 1,0.816476 1,1.059017 C 150,11.801558 149.55,12 149,12 c -0.55,0 -1,-0.476558 -1,-1.059017 z"
       id="path18"
       inkscape:connector-curvature="0" />
    <path
       style="fill:#541a17"
       d="m 37,58.606989 c 0,-0.216156 0.675,-0.652033 1.5,-0.968615 C 39.325,57.321791 40,57.498646 40,58.031385 40,58.564123 39.325,59 38.5,59 37.675,59 37,58.823145 37,58.606989 Z m 10,0 c 0,-0.216156 0.675,-0.652033 1.5,-0.968615 C 49.325,57.321791 50,57.498646 50,58.031385 50,58.564123 49.325,59 48.5,59 47.675,59 47,58.823145 47,58.606989 Z m 10,-0.575604 c 0,-0.532739 0.675,-0.709594 1.5,-0.393011 0.825,0.316582 1.5,0.752459 1.5,0.968615 C 60,58.823145 59.325,59 58.5,59 57.675,59 57,58.564123 57,58.031385 Z m 10,0 c 0,-0.532739 0.675,-0.709594 1.5,-0.393011 0.825,0.316582 1.5,0.752459 1.5,0.968615 C 70,58.823145 69.325,59 68.5,59 67.675,59 67,58.564123 67,58.031385 Z m 10,0.135282 c 0,-0.458334 0.675,-0.833334 1.5,-0.833334 0.825,0 1.5,0.375 1.5,0.833334 C 80,58.625 79.325,59 78.5,59 77.675,59 77,58.625 77,58.166667 Z m 10,0.440322 c 0,-0.216156 0.675,-0.652033 1.5,-0.968615 C 89.325,57.321791 90,57.498646 90,58.031385 90,58.564123 89.325,59 88.5,59 87.675,59 87,58.823145 87,58.606989 Z m 10,-0.575604 c 0,-0.532739 0.675,-0.709594 1.5,-0.393011 0.825,0.316582 1.5,0.752459 1.5,0.968615 C 100,58.823145 99.325,59 98.5,59 97.675,59 97,58.564123 97,58.031385 Z m 10,0 c 0,-0.532739 0.675,-0.709594 1.5,-0.393011 0.825,0.316582 1.5,0.752459 1.5,0.968615 C 110,58.823145 109.325,59 108.5,59 107.675,59 107,58.564123 107,58.031385 Z m 10,0 c 0,-0.532739 0.675,-0.709594 1.5,-0.393011 0.825,0.316582 1.5,0.752459 1.5,0.968615 C 120,58.823145 119.325,59 118.5,59 117.675,59 117,58.564123 117,58.031385 Z M 127.22917,57.8125 c 0.21771,-0.653125 1.0427,-1.328125 1.83333,-1.5 1.13054,-0.24577 1.14642,-0.179883 0.0744,0.308551 -1.15087,0.524335 -1.15087,0.755544 0,1.484687 1.05326,0.667306 0.94638,0.867118 -0.47018,0.878949 -1.00834,0.0084 -1.65521,-0.519062 -1.4375,-1.172187 z m 11.63398,0.566449 c 1.15087,-0.524335 1.15087,-0.769784 0,-1.576131 C 137.94567,56.159995 137.90868,55.954364 138.75,56.173869 139.4375,56.353241 140,56.95 140,57.5 c 0,0.55 -0.5625,1.1125 -1.25,1.25 -0.74019,0.148039 -0.69404,-0.0033 0.11315,-0.371051 z M 167,58.616631 c 0,-0.210852 0.9,-0.618724 2,-0.90638 1.1,-0.287656 2,-0.115141 2,0.383369 C 171,58.592129 170.1,59 169,59 c -1.1,0 -2,-0.172516 -2,-0.383369 z M 54,53.10765 c 0,-0.674126 -0.519529,-0.904598 -1.154508,-0.512158 -0.744214,0.459948 -0.881795,0.272264 -0.387133,-0.528116 0.54526,-0.882249 1.077221,-0.931796 1.837842,-0.171175 0.588756,0.588756 0.762966,1.377966 0.387132,1.753799 C 54.3075,54.025833 54,53.781776 54,53.10765 Z M 62.25,53.25 C 62.3875,52.5625 62.95,52 63.5,52 c 0.55,0 1.146759,0.5625 1.326131,1.25 0.219505,0.841321 0.01387,0.804327 -0.628949,-0.113153 -0.806347,-1.15087 -1.051796,-1.15087 -1.576131,0 C 62.253293,53.944044 62.101961,53.990193 62.25,53.25 Z m 9.828947,0.05902 c -0.114073,-1.720881 1.655607,-2.547535 2.506463,-1.17082 0.431292,0.697845 0.291725,0.903902 -0.345491,0.510081 -0.588004,-0.363407 -1.297007,-0.09543 -1.575561,0.595491 -0.362499,0.899142 -0.528904,0.917689 -0.585411,0.06525 z M 94,53.10765 c 0,-0.674126 -0.519529,-0.904598 -1.154508,-0.512158 -0.744214,0.459948 -0.881795,0.272264 -0.387133,-0.528116 0.54526,-0.882249 1.077221,-0.931796 1.837842,-0.171175 0.588756,0.588756 0.762966,1.377966 0.387132,1.753799 C 94.3075,54.025833 94,53.781776 94,53.10765 Z m 8.25,0.14235 c 0.1375,-0.6875 0.7,-1.25 1.25,-1.25 0.55,0 1.14676,0.5625 1.32613,1.25 0.21951,0.841321 0.0139,0.804327 -0.62895,-0.113153 -0.80634,-1.15087 -1.05179,-1.15087 -1.57613,0 -0.36776,0.807197 -0.51909,0.853346 -0.37105,0.113153 z m 9.82895,0.05902 c -0.11408,-1.720881 1.6556,-2.547535 2.50646,-1.17082 0.43129,0.697845 0.29172,0.903902 -0.34549,0.510081 -0.58801,-0.363407 -1.29701,-0.09543 -1.57556,0.595491 -0.3625,0.899142 -0.52891,0.917689 -0.58541,0.06525 z M 175,53.10765 c 0,-0.674126 -0.51953,-0.904598 -1.15451,-0.512158 -0.74421,0.459948 -0.88179,0.272264 -0.38713,-0.528116 0.54526,-0.882249 1.07722,-0.931796 1.83784,-0.171175 0.58876,0.588756 0.76297,1.377966 0.38713,1.753799 C 175.3075,54.025833 175,53.781776 175,53.10765 Z M 47.613087,46.817021 c 0.28881,-0.467304 0.944015,-0.590747 1.456011,-0.274316 1.308382,0.808625 1.161058,1.123962 -0.525109,1.123962 -0.800807,0 -1.219712,-0.382341 -0.930902,-0.849646 z m 40,0 c 0.28881,-0.467304 0.944015,-0.590747 1.456011,-0.274316 1.308382,0.808625 1.161058,1.123962 -0.525109,1.123962 -0.800807,0 -1.219712,-0.382341 -0.930902,-0.849646 z m 10,0 c 0.28881,-0.467304 0.944015,-0.590747 1.456011,-0.274316 1.308382,0.808625 1.161062,1.123962 -0.525109,1.123962 -0.800807,0 -1.219712,-0.382341 -0.930902,-0.849646 z m 81.000003,0 c 0.28881,-0.467304 0.94401,-0.590747 1.45601,-0.274316 1.30838,0.808625 1.16106,1.123962 -0.52511,1.123962 -0.80081,0 -1.21971,-0.382341 -0.9309,-0.849646 z M 1,44.031385 C 1,43.498646 1.675,43.321791 2.5,43.638374 3.325,43.954956 4,44.390833 4,44.606989 4,44.823145 3.325,45 2.5,45 1.675,45 1,44.564123 1,44.031385 Z M 11.229167,43.8125 c 0.217708,-0.653125 1.042708,-1.328125 1.833333,-1.5 1.130541,-0.24577 1.146417,-0.179883 0.07435,0.308551 -1.15087,0.524335 -1.15087,0.755544 0,1.484687 1.053268,0.667306 0.946381,0.867118 -0.47018,0.878949 -1.008334,0.0084 -1.655209,-0.519062 -1.4375,-1.172187 z M 21.75,44.337719 c 0.6875,-0.277412 1.8125,-0.277412 2.5,0 0.6875,0.277413 0.125,0.504386 -1.25,0.504386 -1.375,0 -1.9375,-0.226973 -1.25,-0.504386 z m 11.113153,-0.03772 c 1.15087,-0.457682 1.15087,-0.690837 0,-1.497184 -1.126882,-0.789539 -1.113996,-0.88772 0.07435,-0.566449 2.170611,0.586829 2.493238,2.775002 0.395833,2.684684 -1.233587,-0.05312 -1.387399,-0.256288 -0.47018,-0.621051 z M 42,44.606989 c 0,-0.216156 0.675,-0.652033 1.5,-0.968615 C 44.325,43.321791 45,43.498646 45,44.031385 45,44.564123 44.325,45 43.5,45 42.675,45 42,44.823145 42,44.606989 Z m 10,0 c 0,-0.216156 0.675,-0.652033 1.5,-0.968615 C 54.325,43.321791 55,43.498646 55,44.031385 55,44.564123 54.325,45 53.5,45 52.675,45 52,44.823145 52,44.606989 Z m 10,0 c 0,-0.216156 0.675,-0.652033 1.5,-0.968615 C 64.325,43.321791 65,43.498646 65,44.031385 65,44.564123 64.325,45 63.5,45 62.675,45 62,44.823145 62,44.606989 Z m 10,-0.575604 c 0,-0.532739 0.675,-0.709594 1.5,-0.393011 0.825,0.316582 1.5,0.752459 1.5,0.968615 C 75,44.823145 74.325,45 73.5,45 72.675,45 72,44.564123 72,44.031385 Z m 10,0.575604 c 0,-0.216156 0.675,-0.652033 1.5,-0.968615 C 84.325,43.321791 85,43.498646 85,44.031385 85,44.564123 84.325,45 83.5,45 82.675,45 82,44.823145 82,44.606989 Z m 10,0 c 0,-0.216156 0.675,-0.652033 1.5,-0.968615 C 94.325,43.321791 95,43.498646 95,44.031385 95,44.564123 94.325,45 93.5,45 92.675,45 92,44.823145 92,44.606989 Z m 10,-0.440322 c 0,-0.458334 0.675,-0.833334 1.5,-0.833334 0.825,0 1.5,0.375 1.5,0.833334 C 105,44.625 104.325,45 103.5,45 102.675,45 102,44.625 102,44.166667 Z m 10,-0.135282 c 0,-0.532739 0.675,-0.709594 1.5,-0.393011 0.825,0.316582 1.5,0.752459 1.5,0.968615 C 115,44.823145 114.325,45 113.5,45 112.675,45 112,44.564123 112,44.031385 Z m 10,0 c 0,-0.532739 0.675,-0.709594 1.5,-0.393011 0.825,0.316582 1.5,0.752459 1.5,0.968615 C 125,44.823145 124.325,45 123.5,45 122.675,45 122,44.564123 122,44.031385 Z m 10,0 c 0,-0.532739 0.675,-0.709594 1.5,-0.393011 0.825,0.316582 1.5,0.752459 1.5,0.968615 C 135,44.823145 134.325,45 133.5,45 132.675,45 132,44.564123 132,44.031385 Z m 10.75,0.306334 c 0.6875,-0.277412 1.8125,-0.277412 2.5,0 0.6875,0.277413 0.125,0.504386 -1.25,0.504386 -1.375,0 -1.9375,-0.226973 -1.25,-0.504386 z m 21.0625,-0.02083 c 0.72187,-0.288871 1.58437,-0.253344 1.91667,0.07895 0.33229,0.332292 -0.25834,0.568641 -1.3125,0.52522 -1.16495,-0.04798 -1.4019,-0.284941 -0.60417,-0.604167 z m 9.1875,0.2901 c 0,-0.216156 0.675,-0.652033 1.5,-0.968615 0.825,-0.316583 1.5,-0.139728 1.5,0.393011 C 176,44.564123 175.325,45 174.5,45 173.675,45 173,44.823145 173,44.606989 Z M 28.564293,38.293128 c -0.542685,-1.425198 -0.427821,-1.540062 0.559795,-0.559795 0.683418,0.678334 0.990671,1.485241 0.682784,1.793128 -0.307887,0.307888 -0.867048,-0.247112 -1.242579,-1.233333 z M 39,39.10765 c 0,-0.674126 -0.519529,-0.904598 -1.154508,-0.512158 -0.744214,0.459948 -0.881795,0.272264 -0.387133,-0.528116 0.54526,-0.882249 1.077221,-0.931796 1.837842,-0.171175 0.588756,0.588756 0.762966,1.377966 0.387132,1.753799 C 39.3075,40.025833 39,39.781776 39,39.10765 Z M 47.25,39.25 C 47.3875,38.5625 47.95,38 48.5,38 c 0.55,0 1.146759,0.5625 1.326131,1.25 0.219505,0.841321 0.01387,0.804327 -0.628949,-0.113153 -0.806347,-1.15087 -1.051796,-1.15087 -1.576131,0 C 47.253293,39.944044 47.101961,39.990193 47.25,39.25 Z m 9.828947,0.05902 c -0.114073,-1.720881 1.655607,-2.547535 2.506463,-1.17082 0.431292,0.697845 0.291725,0.903902 -0.345491,0.510081 -0.588004,-0.363407 -1.297007,-0.09543 -1.575561,0.595491 -0.362499,0.899142 -0.528904,0.917689 -0.585411,0.06525 z m 10,0 c -0.114073,-1.720881 1.655607,-2.547535 2.506463,-1.17082 0.431292,0.697845 0.291725,0.903902 -0.345491,0.510081 -0.588004,-0.363407 -1.297007,-0.09543 -1.575561,0.595491 -0.362499,0.899142 -0.528904,0.917689 -0.585411,0.06525 z M 77.25,39.25 C 77.3875,38.5625 77.95,38 78.5,38 c 0.55,0 1.146759,0.5625 1.326131,1.25 0.219505,0.841321 0.01387,0.804327 -0.628949,-0.113153 -0.806347,-1.15087 -1.051796,-1.15087 -1.576131,0 C 77.253293,39.944044 77.101961,39.990193 77.25,39.25 Z M 89,39.10765 c 0,-0.674126 -0.519529,-0.904598 -1.154508,-0.512158 -0.744214,0.459948 -0.881795,0.272264 -0.387133,-0.528116 0.54526,-0.882249 1.077221,-0.931796 1.837842,-0.171175 0.588756,0.588756 0.762966,1.377966 0.387132,1.753799 C 89.3075,40.025833 89,39.781776 89,39.10765 Z m 8.078947,0.201367 c -0.114073,-1.720881 1.655607,-2.547535 2.506463,-1.17082 0.43129,0.697845 0.291725,0.903902 -0.345491,0.510081 -0.588004,-0.363407 -1.297007,-0.09543 -1.575561,0.595491 -0.362499,0.899142 -0.528904,0.917689 -0.585411,0.06525 z M 107,39.059017 c 0,-0.517541 0.44485,-1.215913 0.98855,-1.551938 0.56686,-0.350339 0.7345,0.05106 0.39301,0.940983 C 107.71677,40.180479 107,40.497449 107,39.059017 Z m 52.56429,-0.765889 c -0.54268,-1.425198 -0.42782,-1.540062 0.5598,-0.559795 0.68342,0.678334 0.99067,1.485241 0.68278,1.793128 -0.30789,0.307888 -0.86705,-0.247112 -1.24258,-1.233333 z M 170,39.10765 c 0,-0.674126 -0.51953,-0.904598 -1.15451,-0.512158 -0.74421,0.459948 -0.88179,0.272264 -0.38713,-0.528116 0.54526,-0.882249 1.07722,-0.931796 1.83784,-0.171175 0.58876,0.588756 0.76297,1.377966 0.38713,1.753799 C 170.3075,40.025833 170,39.781776 170,39.10765 Z M 17,30.606989 c 0,-0.216156 0.698372,-0.661002 1.551938,-0.988546 0.889925,-0.341496 1.291322,-0.173849 0.940983,0.393011 C 18.905663,30.961658 17,31.416902 17,30.606989 Z M 28.5,30 c 0.339919,-0.55 0.816476,-1 1.059017,-1 C 29.801558,29 30,29.45 30,30 30,30.55 29.523442,31 28.940983,31 28.358524,31 28.160081,30.55 28.5,30 Z m 8.5,0.606989 c 0,-0.216156 0.675,-0.652033 1.5,-0.968615 C 39.325,29.321791 40,29.498646 40,30.031385 40,30.564123 39.325,31 38.5,31 37.675,31 37,30.823145 37,30.606989 Z m 10,0 c 0,-0.216156 0.675,-0.652033 1.5,-0.968615 C 49.325,29.321791 50,29.498646 50,30.031385 50,30.564123 49.325,31 48.5,31 47.675,31 47,30.823145 47,30.606989 Z m 10,-0.575604 c 0,-0.532739 0.675,-0.709594 1.5,-0.393011 0.825,0.316582 1.5,0.752459 1.5,0.968615 C 60,30.823145 59.325,31 58.5,31 57.675,31 57,30.564123 57,30.031385 Z m 10,0 c 0,-0.532739 0.675,-0.709594 1.5,-0.393011 0.825,0.316582 1.5,0.752459 1.5,0.968615 C 70,30.823145 69.325,31 68.5,31 67.675,31 67,30.564123 67,30.031385 Z m 10,0.135282 c 0,-0.458334 0.675,-0.833334 1.5,-0.833334 0.825,0 1.5,0.375 1.5,0.833334 C 80,30.625 79.325,31 78.5,31 77.675,31 77,30.625 77,30.166667 Z m 10.8125,0.150219 c 0.721875,-0.288871 1.584375,-0.253344 1.916667,0.07895 0.332291,0.332292 -0.258334,0.568641 -1.3125,0.52522 -1.164943,-0.04798 -1.4019,-0.284941 -0.604167,-0.604167 z M 97,30.031385 c 0,-0.532739 0.675,-0.709594 1.5,-0.393011 0.825,0.316582 1.5,0.752459 1.5,0.968615 C 100,30.823145 99.325,31 98.5,31 97.675,31 97,30.564123 97,30.031385 Z m 10,0 c 0,-0.532739 0.675,-0.709594 1.5,-0.393011 0.825,0.316582 1.5,0.752459 1.5,0.968615 C 110,30.823145 109.325,31 108.5,31 107.675,31 107,30.564123 107,30.031385 Z m 10,0 c 0,-0.532739 0.675,-0.709594 1.5,-0.393011 0.825,0.316582 1.5,0.752459 1.5,0.968615 C 120,30.823145 119.325,31 118.5,31 117.675,31 117,30.564123 117,30.031385 Z m 10.54271,0.03771 c -0.66498,-1.075947 1.29228,-2.567445 2.19049,-1.669234 0.33007,0.330075 -0.0374,0.607027 -0.81653,0.615449 -1.16647,0.01261 -1.15175,0.186521 0.0833,0.98469 0.90129,0.58246 1.02463,0.975486 0.30902,0.984687 -0.65504,0.0084 -1.44988,-0.403593 -1.76631,-0.915589 z m 11.32044,0.309851 c 1.15087,-0.524335 1.15087,-0.769784 0,-1.576131 -0.91748,-0.64282 -0.95447,-0.848451 -0.11315,-0.628946 C 139.4375,28.353241 140,28.95 140,29.5 c 0,0.55 -0.5625,1.1125 -1.25,1.25 -0.74019,0.148039 -0.69404,-0.0033 0.11315,-0.371051 z M 148,30.606989 c 0,-0.216156 0.675,-0.652033 1.5,-0.968615 0.825,-0.316583 1.5,-0.139728 1.5,0.393011 C 151,30.564123 150.325,31 149.5,31 148.675,31 148,30.823145 148,30.606989 Z m 10,0 c 0,-0.216156 0.675,-0.652033 1.5,-0.968615 0.825,-0.316583 1.5,-0.139728 1.5,0.393011 C 161,30.564123 160.325,31 159.5,31 158.675,31 158,30.823145 158,30.606989 Z m 10,0 c 0,-0.216156 0.675,-0.652033 1.5,-0.968615 0.825,-0.316583 1.5,-0.139728 1.5,0.393011 C 171,30.564123 170.325,31 169.5,31 168.675,31 168,30.823145 168,30.606989 Z M 43.564293,24.293128 c -0.542685,-1.425198 -0.427821,-1.540062 0.559795,-0.559795 0.683418,0.678334 0.990671,1.485241 0.682784,1.793128 -0.307887,0.307888 -0.867048,-0.247112 -1.242579,-1.233333 z M 54,25.10765 c 0,-0.674126 -0.519529,-0.904598 -1.154508,-0.512158 -0.744214,0.459948 -0.881795,0.272264 -0.387133,-0.528116 0.54526,-0.882249 1.077221,-0.931796 1.837842,-0.171175 0.588756,0.588756 0.762966,1.377966 0.387132,1.753799 C 54.3075,26.025833 54,25.781776 54,25.10765 Z M 62.25,25.25 C 62.3875,24.5625 62.95,24 63.5,24 c 0.55,0 1.146759,0.5625 1.326131,1.25 0.219505,0.841321 0.01387,0.804327 -0.628949,-0.113153 -0.806347,-1.15087 -1.051796,-1.15087 -1.576131,0 C 62.253293,25.944044 62.101961,25.990193 62.25,25.25 Z m 9.828947,0.05902 c -0.114073,-1.720881 1.655607,-2.547535 2.506463,-1.17082 0.431292,0.697845 0.291725,0.903902 -0.345491,0.510081 -0.588004,-0.363407 -1.297007,-0.09544 -1.575561,0.595491 -0.362499,0.899142 -0.528904,0.917689 -0.585411,0.06525 z M 94,25.10765 c 0,-0.674126 -0.519529,-0.904598 -1.154508,-0.512158 -0.744214,0.459948 -0.881795,0.272264 -0.387133,-0.528116 0.54526,-0.882249 1.077221,-0.931796 1.837842,-0.171175 0.588756,0.588756 0.762966,1.377966 0.387132,1.753799 C 94.3075,26.025833 94,25.781776 94,25.10765 Z m 8.25,0.14235 c 0.1375,-0.6875 0.7,-1.25 1.25,-1.25 0.55,0 1.14676,0.5625 1.32613,1.25 0.21951,0.841321 0.0139,0.804327 -0.62895,-0.113153 -0.80634,-1.15087 -1.05179,-1.15087 -1.57613,0 -0.36776,0.807197 -0.51909,0.853346 -0.37105,0.113153 z m 9.82895,0.05902 c -0.11408,-1.720881 1.6556,-2.547535 2.50646,-1.17082 0.43129,0.697845 0.29172,0.903902 -0.34549,0.510081 -0.58801,-0.363407 -1.29701,-0.09544 -1.57556,0.595491 -0.3625,0.899142 -0.52891,0.917689 -0.58541,0.06525 z M 122,25.05902 c 0,-0.517541 0.44485,-1.215913 0.98855,-1.551938 0.56686,-0.350339 0.7345,0.05106 0.39301,0.940983 C 122.71677,26.180479 122,26.497449 122,25.059017 Z m 52.56429,-0.765889 c -0.54268,-1.425198 -0.42782,-1.540062 0.5598,-0.559795 0.68342,0.678334 0.99067,1.485241 0.68278,1.793128 -0.30789,0.307888 -0.86705,-0.247112 -1.24258,-1.233333 z M 170,20.10765 c 0,-0.674126 -0.51953,-0.904598 -1.15451,-0.512158 -0.74421,0.459948 -0.88179,0.272264 -0.38713,-0.528116 0.54526,-0.882249 1.07722,-0.931796 1.83784,-0.171175 0.58876,0.588756 0.76297,1.377966 0.38713,1.753799 C 170.3075,21.025833 170,20.781776 170,20.10765 Z M 47.613087,18.817021 c 0.28881,-0.467304 0.944015,-0.590747 1.456011,-0.274316 1.308382,0.808625 1.161058,1.123962 -0.525109,1.123962 -0.800807,0 -1.219712,-0.382341 -0.930902,-0.849646 z m 10,0 c 0.28881,-0.467304 0.944015,-0.590747 1.456011,-0.274316 1.308382,0.808625 1.161058,1.123962 -0.525109,1.123962 -0.800807,0 -1.219712,-0.382341 -0.930902,-0.849646 z m 30,0 c 0.28881,-0.467304 0.944015,-0.590747 1.456011,-0.274316 1.308382,0.808625 1.161058,1.123962 -0.525109,1.123962 -0.800807,0 -1.219712,-0.382341 -0.930902,-0.849646 z m 10,0 c 0.28881,-0.467304 0.944015,-0.590747 1.456011,-0.274316 1.308382,0.808625 1.161062,1.123962 -0.525109,1.123962 -0.800807,0 -1.219712,-0.382341 -0.930902,-0.849646 z m 81.000003,0 c 0.28881,-0.467304 0.94401,-0.590747 1.45601,-0.274316 1.30838,0.808625 1.16106,1.123962 -0.52511,1.123962 -0.80081,0 -1.21971,-0.382341 -0.9309,-0.849646 z M 11,16.031385 c 0,-0.532739 0.675,-0.709594 1.5,-0.393011 0.825,0.316582 1.5,0.752459 1.5,0.968615 C 14,16.823145 13.325,17 12.5,17 11.675,17 11,16.564123 11,16.031385 Z m 10.75,0.306334 c 0.6875,-0.277412 1.8125,-0.277412 2.5,0 0.6875,0.277413 0.125,0.504386 -1.25,0.504386 -1.375,0 -1.9375,-0.226973 -1.25,-0.504386 z M 32,16.606989 c 0,-0.216156 0.675,-0.652033 1.5,-0.968615 C 34.325,15.321791 35,15.498646 35,16.031385 35,16.564123 34.325,17 33.5,17 32.675,17 32,16.823145 32,16.606989 Z m 10,0 c 0,-0.216156 0.675,-0.652033 1.5,-0.968615 C 44.325,15.321791 45,15.498646 45,16.031385 45,16.564123 44.325,17 43.5,17 42.675,17 42,16.823145 42,16.606989 Z m 10,0 c 0,-0.216156 0.675,-0.652033 1.5,-0.968615 C 54.325,15.321791 55,15.498646 55,16.031385 55,16.564123 54.325,17 53.5,17 52.675,17 52,16.823145 52,16.606989 Z m 10,0 c 0,-0.216156 0.675,-0.652033 1.5,-0.968615 C 64.325,15.321791 65,15.498646 65,16.031385 65,16.564123 64.325,17 63.5,17 62.675,17 62,16.823145 62,16.606989 Z m 10,-0.575604 c 0,-0.532739 0.675,-0.709594 1.5,-0.393011 0.825,0.316582 1.5,0.752459 1.5,0.968615 C 75,16.823145 74.325,17 73.5,17 72.675,17 72,16.564123 72,16.031385 Z m 10,0.575604 c 0,-0.216156 0.675,-0.652033 1.5,-0.968615 C 84.325,15.321791 85,15.498646 85,16.031385 85,16.564123 84.325,17 83.5,17 82.675,17 82,16.823145 82,16.606989 Z m 10,0 c 0,-0.216156 0.675,-0.652033 1.5,-0.968615 C 94.325,15.321791 95,15.498646 95,16.031385 95,16.564123 94.325,17 93.5,17 92.675,17 92,16.823145 92,16.606989 Z m 10,-0.440322 c 0,-0.458334 0.675,-0.833334 1.5,-0.833334 0.825,0 1.5,0.375 1.5,0.833334 C 105,16.625 104.325,17 103.5,17 102.675,17 102,16.625 102,16.166667 Z m 10,-0.135282 c 0,-0.532739 0.675,-0.709594 1.5,-0.393011 0.825,0.316582 1.5,0.752459 1.5,0.968615 C 115,16.823145 114.325,17 113.5,17 112.675,17 112,16.564123 112,16.031385 Z m 10,0 c 0,-0.532739 0.675,-0.709594 1.5,-0.393011 0.825,0.316582 1.5,0.752459 1.5,0.968615 C 125,16.823145 124.325,17 123.5,17 122.675,17 122,16.564123 122,16.031385 Z m 10,0 c 0,-0.532739 0.675,-0.709594 1.5,-0.393011 0.825,0.316582 1.5,0.752459 1.5,0.968615 C 135,16.823145 134.325,17 133.5,17 132.675,17 132,16.564123 132,16.031385 Z M 142.22917,15.8125 c 0.2177,-0.653125 1.0427,-1.328125 1.83333,-1.5 1.13054,-0.24577 1.14642,-0.179883 0.0744,0.308551 -1.15087,0.524335 -1.15087,0.755544 0,1.484687 1.05326,0.667306 0.94638,0.867118 -0.47018,0.878949 -1.00834,0.0084 -1.65521,-0.519062 -1.4375,-1.172187 z M 163,16.606989 c 0,-0.216156 0.675,-0.652033 1.5,-0.968615 0.825,-0.316583 1.5,-0.139728 1.5,0.393011 C 166,16.564123 165.325,17 164.5,17 163.675,17 163,16.823145 163,16.606989 Z m 10,0 c 0,-0.216156 0.675,-0.652033 1.5,-0.968615 0.825,-0.316583 1.5,-0.139728 1.5,0.393011 C 176,16.564123 175.325,17 174.5,17 173.675,17 173,16.823145 173,16.606989 Z m -134.666667,-6.063 c 0,-0.8008066 0.375,-1.2242489 0.833334,-0.9409833 C 39.625,9.8862712 40,10.541476 40,11.059017 40,11.576558 39.625,12 39.166667,12 38.708333,12 38.333333,11.344795 38.333333,10.543989 Z M 47,11.166667 c 0,-0.458334 0.675,-0.833334 1.5,-0.833334 0.825,0 1.5,0.375 1.5,0.833334 C 50,11.625 49.325,12 48.5,12 47.675,12 47,11.625 47,11.166667 Z m 10,0 c 0,-0.458334 0.675,-0.833334 1.5,-0.833334 0.825,0 1.5,0.375 1.5,0.833334 C 60,11.625 59.325,12 58.5,12 57.675,12 57,11.625 57,11.166667 Z m 10,-0.10765 c 0,-0.517541 0.519529,-1.2620695 1.154508,-1.6545085 0.682383,-0.4217358 0.884306,-0.2763276 0.49377,0.3555728 -0.363407,0.5880037 -0.09544,1.2970067 0.595491,1.5755607 0.757865,0.305542 0.561979,0.537783 -0.493769,0.585411 C 67.7875,11.964474 67,11.576558 67,11.059017 Z M 77.25,11.25 C 77.3875,10.5625 77.95,10 78.5,10 c 0.55,0 1.146759,0.5625 1.326131,1.25 0.219505,0.841321 0.01387,0.804327 -0.628949,-0.113153 -0.806347,-1.1508697 -1.051796,-1.1508697 -1.576131,0 C 77.253293,11.944044 77.101961,11.990193 77.25,11.25 Z M 87,11.166667 c 0,-0.458334 0.675,-0.833334 1.5,-0.833334 0.825,0 1.5,0.375 1.5,0.833334 C 90,11.625 89.325,12 88.5,12 87.675,12 87,11.625 87,11.166667 Z m 10,0 c 0,-0.458334 0.675,-0.833334 1.5,-0.833334 0.825,0 1.5,0.375 1.5,0.833334 C 100,11.625 99.325,12 98.5,12 97.675,12 97,11.625 97,11.166667 Z m 10,-0.225684 c 0,-0.582459 0.45,-0.780902 1,-0.440983 0.55,0.339919 1,0.816476 1,1.059017 C 109,11.801558 108.55,12 108,12 c -0.55,0 -1,-0.476558 -1,-1.059017 z M 159.5,11 c 0.33992,-0.55 0.81648,-1 1.05902,-1 0.24254,0 0.44098,0.45 0.44098,1 0,0.55 -0.47656,1 -1.05902,1 -0.58246,0 -0.7809,-0.45 -0.44098,-1 z m 8.66667,0 C 168.35,10.45 168.95,10 169.5,10 c 0.55,0 1.15,0.45 1.33333,1 0.18334,0.55 -0.41666,1 -1.33333,1 -0.91667,0 -1.51667,-0.45 -1.33333,-1 z M 62.613087,4.8170214 c 0.28881,-0.4673048 0.944015,-0.5907472 1.456011,-0.2743163 1.308382,0.8086245 1.161058,1.1239616 -0.525109,1.1239616 -0.800807,0 -1.219712,-0.3823404 -0.930902,-0.8496453 z"
       id="path16"
       inkscape:connector-curvature="0" />
    <path
       style="fill:#470c0b"
       d="M 4.4487517,59.421485 C 4.9456688,56.772689 4.5848738,54.816144 3.0600426,51.890691 0.62032009,47.209981 0.44070334,45 2.5,45 3.325,45 4,44.276855 4,43.393011 4,42.375419 3.4498434,41.997137 2.5,42.361626 0.55784559,43.106901 0.60349372,42.732546 3,38.261185 5.3930495,33.796273 5.4502084,32.771287 3.5148529,29.028722 2.3733794,26.821356 2.3155276,26.051849 3.2648529,25.703382 4.2415356,25.344874 4.2384276,24.972733 3.25,23.925 2.2153583,22.82828 1.9878908,22.849816 1.9297147,24.05 1.8857262,24.957492 1.5764315,24.777425 1.1030401,23.568722 0.09104115,20.9848 0.92674598,17 2.4806532,17 4.5279332,17 5.2530974,8.2137122 3.4964427,4.6924146 2.6686293,3.0330232 2.1909385,1.4757281 2.4349077,1.231759 2.6788769,0.98778977 4.9523579,1.5801967 7.4870878,2.5482189 c 3.1729562,1.211763 4.4392252,2.2014229 4.0648862,3.176935 -0.385996,1.0058887 0.107757,1.3322905 1.702156,1.1252318 1.235229,-0.1604146 4.843207,0.7638815 8.01773,2.0539913 l 5.77186,2.345654 -0.609179,3.624985 c -1.131596,6.733687 -1.431791,7.257172 -3.765192,6.565799 -1.193142,-0.353521 -2.657508,-1.256667 -3.254147,-2.006992 -0.825733,-1.038432 -1.363064,-1.085961 -2.25,-0.199025 -1.838008,1.838008 -1.392014,2.790174 1.833611,3.914633 1.649348,0.574966 2.74779,1.451557 2.440983,1.94798 C 21.13299,25.593835 21.808524,26 22.940983,26 24.673789,26 25,26.62875 25,29.968615 c 0,2.989273 -0.345197,3.836151 -1.398849,3.431827 -0.769368,-0.295234 -1.695925,-0.05611 -2.059017,0.531384 C 21.155577,34.557287 21.735341,35 22.940983,35 24.303493,35 25,35.648354 25,36.916667 25,38.28268 23.778986,39.240338 20.75,40.25 c -4.402256,1.467419 -5.022294,3.478726 -0.90875,2.947846 1.440953,-0.185965 2.091198,0.102438 1.690983,0.75 C 21.158898,44.551915 21.745483,45 22.909598,45 c 1.391497,0 1.847046,-0.470599 1.452028,-1.5 -0.316582,-0.825 -0.07746,-1.5 0.531385,-1.5 0.608844,0 1.111942,0.7875 1.117995,1.75 0.0061,0.9625 0.289932,3.4375 0.630842,5.5 0.493367,2.984859 0.304087,3.75 -0.927672,3.75 -0.85113,0 -1.77575,-0.5625 -2.054712,-1.25 -0.383591,-0.945362 -0.756602,-0.890866 -1.530547,0.223607 -0.705187,1.015463 -0.687777,1.680998 0.056,2.140676 0.61914,0.38265 0.06367,0.961941 -1.302786,1.35865 -1.31017,0.380368 -5.372933,2.229564 -9.028361,4.109323 C 8.1983383,61.462015 4.8857574,63 4.4924757,63 4.0991941,63 4.0795183,61.389668 4.4487517,59.421485 Z M 9,57.5 C 9,56.675 8.55,56 8,56 7.45,56 7,56.675 7,57.5 7,58.325 7.45,59 8,59 8.55,59 9,58.325 9,57.5 Z m 5.361626,-5 C 14.045044,51.675 13.432312,51 13,51 12.567688,51 11.954956,51.675 11.638374,52.5 11.248798,53.515217 11.68886,54 13,54 c 1.31114,0 1.751202,-0.484783 1.361626,-1.5 z M 9.2,47.8 C 8.2666667,46.866667 7.7333333,46.866667 6.8,47.8 5.8666667,48.733333 6.1333333,49 8,49 9.8666667,49 10.133333,48.733333 9.2,47.8 Z M 19.351832,47.474477 C 18.90041,46.298089 18.449867,46.211681 17.383217,47.096921 15.526151,48.638149 15.637459,49 17.968615,49 c 1.353676,0 1.785754,-0.47653 1.383217,-1.525523 z M 14,43.416667 C 14,41.65074 11.847241,41.958277 11.229167,43.8125 11.011458,44.465625 11.545833,45 12.416667,45 13.2875,45 14,44.2875 14,43.416667 Z M 9.3616264,38.5 C 9.0450442,37.675 8.4323123,37 8,37 7.5676877,37 6.9549558,37.675 6.6383736,38.5 6.2487982,39.515217 6.6888601,40 8,40 9.3111399,40 9.7512018,39.515217 9.3616264,38.5 Z m 9.9999996,0 C 19.045044,37.675 18.432312,37 18,37 17.567688,37 16.954956,37.675 16.638374,38.5 16.248798,39.515217 16.68886,40 18,40 c 1.31114,0 1.751202,-0.484783 1.361626,-1.5 z M 14,34.059017 C 14,32.382594 12.226456,31.967482 11.63617,33.505744 11.287868,34.413403 11.639301,35 12.531385,35 13.339123,35 14,34.576558 14,34.059017 Z M 9,29.5 C 9,28.675 8.55,28 8,28 7.45,28 7,28.675 7,29.5 7,30.325 7.45,31 8,31 8.55,31 9,30.325 9,29.5 Z m 10,0 c 0,-0.55 -0.45,-1.15 -1,-1.333333 -0.55,-0.183334 -1,0.416666 -1,1.333333 0,0.916667 0.45,1.516667 1,1.333333 C 18.55,30.65 19,30.05 19,29.5 Z m -4.638374,-5 C 14.045044,23.675 13.432312,23 13,23 12.567688,23 11.954956,23.675 11.638374,24.5 11.248798,25.515217 11.68886,26 13,26 c 1.31114,0 1.751202,-0.484783 1.361626,-1.5 z M 10,20.622445 C 10,20.414789 9.3775524,19.728304 8.616783,19.096921 7.5501333,18.211681 7.0995901,18.298089 6.6481678,19.474477 6.2456313,20.52347 6.6777087,21 8.0313848,21 9.1141232,21 10,20.8301 10,20.622445 Z m 4,-5.205778 C 14,13.65074 11.847241,13.958277 11.229167,15.8125 11.011458,16.465625 11.545833,17 12.416667,17 13.2875,17 14,16.2875 14,15.416667 Z M 24.361626,15.5 C 24.045044,14.675 23.432312,14 23,14 22.567688,14 21.954956,14.675 21.638374,15.5 21.248798,16.515217 21.68886,17 23,17 c 1.31114,0 1.751202,-0.484783 1.361626,-1.5 z M 9.3616264,10.5 C 9.0450442,9.675 8.4323123,9 8,9 7.5676877,9 6.9549558,9.675 6.6383736,10.5 6.2487982,11.515217 6.6888601,12 8,12 9.3111399,12 9.7512018,11.515217 9.3616264,10.5 Z m 9.9999996,0 C 19.045044,9.675 18.432312,9 18,9 17.567688,9 16.954956,9.675 16.638374,10.5 16.248798,11.515217 16.68886,12 18,12 c 1.31114,0 1.751202,-0.484783 1.361626,-1.5 z M 175.36383,61.505744 c -0.31537,-0.821841 -0.93564,-1.270382 -1.37837,-0.996756 -1.215,0.75091 -4.0543,-0.58858 -3.4207,-1.613773 1.01246,-1.638194 -0.62469,-3.090369 -2.10188,-1.864404 -1.03697,0.860606 -2.80244,0.480182 -7.4492,-1.605159 l -6.09012,-2.733085 0.65507,-4.596283 c 0.36029,-2.527956 0.9874,-4.958694 1.39358,-5.401639 C 157.89094,41.692746 163,42.89103 163,44.108408 163,44.598784 163.675,45 164.5,45 c 2.38513,0 1.73787,-2.959064 -0.86362,-3.948147 -1.29998,-0.494254 -2.65531,-1.658797 -3.01183,-2.587873 -0.52653,-1.372113 -0.92759,-1.457372 -2.13638,-0.454159 C 157.19463,39.08336 157,38.326169 157,32.22027 c 0,-6.980033 0.02,-7.031588 3.14922,-8.122445 3.96402,-1.381862 3.90008,-1.389867 3.21241,0.402175 -0.33753,0.87959 -0.0143,1.499057 0.78138,1.49772 0.8236,-0.0014 1.4003,-1.209409 1.46718,-3.073318 0.0988,-2.754685 -0.1352,-3.009449 -2.27196,-2.473157 -1.62037,0.406688 -2.56853,0.112184 -2.96497,-0.920938 -0.32056,-0.835351 -1.01635,-1.250887 -1.54622,-0.923413 -0.52986,0.327474 -0.72183,1.224889 -0.4266,1.994257 C 158.69568,21.370518 158.56098,22 158.10113,22 c -1.45433,0 -3.08184,-10.39324 -1.75656,-11.217384 0.63549,-0.395188 1.30543,-0.282945 1.48876,0.24943 C 158.01667,11.564421 158.85231,12 159.69032,12 c 0.8836,0 1.30151,-0.578897 0.99485,-1.378061 -0.36724,-0.9569979 2.1752,-2.6097315 8.32091,-5.4090785 9.45388,-4.30620615 11.02811,-4.0631869 8.95755,1.3828036 -0.75411,1.9834437 -0.51692,3.6257759 1.02805,7.1184339 2.34442,5.299937 2.35549,5.36305 0.88332,5.035902 -0.61875,-0.1375 -1.354,0.380739 -1.63388,1.151642 -0.36913,1.016705 0.0772,1.248391 1.625,0.84362 2.75195,-0.719652 2.68798,0.227754 -0.43094,6.382657 -2.0945,4.133286 -2.38453,5.578609 -1.58166,7.881744 0.54075,1.551172 0.71527,3.088218 0.38783,3.415658 -0.32744,0.327439 0.13467,1.153194 1.02692,1.835011 0.89224,0.681818 1.93925,2.551159 2.32667,4.154093 0.58712,2.429155 0.43506,2.811066 -0.91324,2.293674 -1.91167,-0.733577 -3.45836,1.193866 -1.78695,2.226854 0.84399,0.521616 0.72246,1.736949 -0.45567,4.556602 -1.23766,2.962132 -1.35774,4.39155 -0.52286,6.223904 C 179.31972,62.79581 179.29189,63 177.46862,63 c -0.84227,0 -1.78942,-0.672415 -2.10479,-1.494256 z m -10,-9 C 165.04846,51.683903 164.38758,51.26046 163.89522,51.564761 162.48329,52.437377 162.85123,54 164.46862,54 c 0.89208,0 1.24351,-0.586597 0.89521,-1.494256 z M 175.83333,53 C 175.65,52.45 175.05,52 174.5,52 c -0.55,0 -1.15,0.45 -1.33333,1 -0.18334,0.55 0.41666,1 1.33333,1 0.91667,0 1.51667,-0.45 1.33333,-1 z m -15.4695,-5.494256 C 160.04846,46.683903 159.38758,46.26046 158.89522,46.564761 157.48329,47.437377 157.85123,49 159.46862,49 c 0.89208,0 1.24351,-0.586597 0.89521,-1.494256 z m 10,0 C 170.04846,46.683903 169.38758,46.26046 168.89522,46.564761 167.48329,47.437377 167.85123,49 169.46862,49 c 0.89208,0 1.24351,-0.586597 0.89521,-1.494256 z m 5.407,-3.693244 C 175.15276,41.958277 173,41.65074 173,43.416667 173,44.2875 173.7125,45 174.58333,45 c 0.87084,0 1.40521,-0.534375 1.1875,-1.1875 z M 170.83333,39 C 170.65,38.45 170.05,38 169.5,38 c -0.55,0 -1.15,0.45 -1.33333,1 -0.18334,0.55 0.41666,1 1.33333,1 0.91667,0 1.51667,-0.45 1.33333,-1 z m -5.4695,-5.494256 C 165.04846,32.683903 164.38758,32.26046 163.89522,32.564761 162.48329,33.437377 162.85123,35 164.46862,35 c 0.89208,0 1.24351,-0.586597 0.89521,-1.494256 z m 10,0 C 175.04846,32.683903 174.38758,32.26046 173.89522,32.564761 172.48329,33.437377 172.85123,35 174.46862,35 c 0.89208,0 1.24351,-0.586597 0.89521,-1.494256 z M 160.77083,29.8125 C 160.15276,27.958277 158,27.65074 158,29.416667 158,30.2875 158.7125,31 159.58333,31 c 0.87084,0 1.40521,-0.534375 1.1875,-1.1875 z M 170.83333,30 C 170.65,29.45 170.05,29 169.5,29 c -0.55,0 -1.15,0.45 -1.33333,1 -0.18334,0.55 0.41666,1 1.33333,1 0.91667,0 1.51667,-0.45 1.33333,-1 z m 5,-5 C 175.65,24.45 175.05,24 174.5,24 c -0.55,0 -1.15,0.45 -1.33333,1 -0.18334,0.55 0.41666,1 1.33333,1 0.91667,0 1.51667,-0.45 1.33333,-1 z m -5,-5 C 170.65,19.45 170.05,19 169.5,19 c -0.55,0 -1.15,0.45 -1.33333,1 -0.18334,0.55 0.41666,1 1.33333,1 0.91667,0 1.51667,-0.45 1.33333,-1 z m -5.0625,-4.1875 C 165.15276,13.958277 163,13.65074 163,15.416667 163,16.2875 163.7125,17 164.58333,17 c 0.87084,0 1.40521,-0.534375 1.1875,-1.1875 z m 10,0 C 175.15276,13.958277 173,13.65074 173,15.416667 173,16.2875 173.7125,17 174.58333,17 c 0.87084,0 1.40521,-0.534375 1.1875,-1.1875 z M 170.83333,11 C 170.65,10.45 170.05,10 169.5,10 c -0.55,0 -1.15,0.45 -1.33333,1 -0.18334,0.55 0.41666,1 1.33333,1 0.91667,0 1.51667,-0.45 1.33333,-1 z m 4.5305,-5.4942564 C 175.04846,4.6839025 174.38758,4.2604602 173.89522,4.5647606 172.48329,5.437377 172.85123,7 174.46862,7 c 0.89208,0 1.24351,-0.5865969 0.89521,-1.4942564 z M 40.306177,60.317602 c -0.656603,-0.245749 -0.963424,-1.047226 -0.681826,-1.781059 0.650382,-1.694869 -1.611955,-3.174633 -2.545126,-1.664732 -0.498091,0.805928 -1.25143,0.705163 -2.638196,-0.352882 -1.409785,-1.075606 -1.613361,-1.698616 -0.743815,-2.276319 0.797707,-0.529976 0.881131,-1.287134 0.25,-2.269003 -0.812322,-1.263752 -1.077069,-1.271901 -1.859062,-0.05722 -0.667137,1.036271 -1.33806,-0.01882 -2.5,-3.931501 -1.915338,-6.449642 -1.965599,-7.67982 -0.338152,-8.276551 1,-0.366666 1,-0.723333 0,-1.783333 -1.617393,-1.714436 -1.617393,-6.623623 0,-7.216667 1,-0.366666 1,-0.723333 0,-1.783333 C 27.881414,27.474299 27.513134,21 28.799199,21 c 0.43956,0 0.630569,-1.4625 0.424464,-3.25 -0.486746,-4.221449 3.008146,-9.4677676 8.305908,-12.4683219 3.96678,-2.2467104 4.01562,-2.2487924 53.138642,-2.2652277 27.042517,-0.00905 49.905877,0.2666187 50.807467,0.6125919 0.91348,0.3505333 1.39427,1.2674812 1.08592,2.0710243 -0.39689,1.0342806 0.0816,1.3599401 1.69253,1.1518117 3.08931,-0.399144 4.65391,0.7837544 4.05681,3.0670937 -0.37334,1.427655 0.0888,2.001732 1.81032,2.249004 2.94865,0.423521 4.73016,6.738018 3.11113,11.027313 C 152.3834,25.444513 152.45361,26 153.58686,26 154.53521,26 155,27.151174 155,29.5 c 0,1.925 -0.43875,3.5 -0.975,3.5 -0.53625,0 -0.73042,1.2375 -0.43149,2.75 0.84992,4.300392 -1.26718,14.982968 -3.62582,18.295377 -1.17487,1.649946 -3.8517,3.875126 -5.94852,4.944846 -3.63118,1.852486 -6.15854,1.940885 -53.16579,1.85957 -27.144359,-0.04695 -49.8906,-0.286441 -50.547203,-0.532191 z M 49.833333,58 C 49.65,57.45 49.05,57 48.5,57 c -0.55,0 -1.15,0.45 -1.333333,1 -0.183334,0.55 0.416666,1 1.333333,1 0.916667,0 1.516667,-0.45 1.333333,-1 z m 10,0 C 59.65,57.45 59.05,57 58.5,57 c -0.55,0 -1.15,0.45 -1.333333,1 -0.183334,0.55 0.416666,1 1.333333,1 0.916667,0 1.516667,-0.45 1.333333,-1 z M 70,57.416667 c 0,-0.870834 -0.534375,-1.405209 -1.1875,-1.1875 C 66.958277,56.847241 66.65074,59 68.416667,59 69.2875,59 70,58.2875 70,57.416667 Z M 79.833333,58 C 79.65,57.45 79.05,57 78.5,57 c -0.55,0 -1.15,0.45 -1.333333,1 -0.183334,0.55 0.416666,1 1.333333,1 0.916667,0 1.516667,-0.45 1.333333,-1 z m 10,0 C 89.65,57.45 89.05,57 88.5,57 c -0.55,0 -1.15,0.45 -1.333333,1 -0.183334,0.55 0.416666,1 1.333333,1 0.916667,0 1.516667,-0.45 1.333333,-1 z m 10,0 C 99.65,57.45 99.05,57 98.5,57 c -0.55,0 -1.15,0.45 -1.333333,1 -0.183334,0.55 0.416666,1 1.333333,1 0.916667,0 1.51667,-0.45 1.333333,-1 z M 110,57.416667 c 0,-0.870834 -0.53437,-1.405209 -1.1875,-1.1875 C 106.95828,56.847241 106.65074,59 108.41667,59 109.2875,59 110,58.2875 110,57.416667 Z m 10,0 c 0,-0.870834 -0.53437,-1.405209 -1.1875,-1.1875 C 116.95828,56.847241 116.65074,59 118.41667,59 119.2875,59 120,58.2875 120,57.416667 Z m 10,0 c 0,-0.870834 -0.53438,-1.405209 -1.1875,-1.1875 C 126.95828,56.847241 126.65074,59 128.41667,59 129.2875,59 130,58.2875 130,57.416667 Z M 140,57.5 c 0,-0.55 -0.45,-1.15 -1,-1.333333 -0.55,-0.183334 -1,0.416666 -1,1.333333 0,0.916667 0.45,1.516667 1,1.333333 C 139.55,58.65 140,58.05 140,57.5 Z M 44.36383,52.505744 C 44.04846,51.683903 43.387584,51.26046 42.895215,51.564761 41.483292,52.437377 41.851226,54 43.468615,54 c 0.892084,0 1.243517,-0.586597 0.895215,-1.494256 z M 54.833333,53 C 54.65,52.45 54.05,52 53.5,52 c -0.55,0 -1.15,0.45 -1.333333,1 -0.183334,0.55 0.416666,1 1.333333,1 0.916667,0 1.516667,-0.45 1.333333,-1 z m 10,0 C 64.65,52.45 64.05,52 63.5,52 c -0.55,0 -1.15,0.45 -1.333333,1 -0.183334,0.55 0.416666,1 1.333333,1 0.916667,0 1.516667,-0.45 1.333333,-1 z m 10,0 C 74.65,52.45 74.05,52 73.5,52 c -0.55,0 -1.15,0.45 -1.333333,1 -0.183334,0.55 0.416666,1 1.333333,1 0.916667,0 1.516667,-0.45 1.333333,-1 z M 84.36383,52.505744 C 84.04846,51.683903 83.387584,51.26046 82.895215,51.564761 81.483292,52.437377 81.851226,54 83.468615,54 c 0.892084,0 1.243517,-0.586597 0.895215,-1.494256 z M 94.833333,53 C 94.65,52.45 94.05,52 93.5,52 c -0.55,0 -1.15,0.45 -1.333333,1 -0.183334,0.55 0.416666,1 1.333333,1 0.916667,0 1.516667,-0.45 1.333333,-1 z m 9.999997,0 C 104.65,52.45 104.05,52 103.5,52 c -0.55,0 -1.15,0.45 -1.33333,1 -0.18334,0.55 0.41666,1 1.33333,1 0.91667,0 1.51667,-0.45 1.33333,-1 z m 10,0 C 114.65,52.45 114.05,52 113.5,52 c -0.55,0 -1.15,0.45 -1.33333,1 -0.18334,0.55 0.41666,1 1.33333,1 0.91667,0 1.51667,-0.45 1.33333,-1 z M 125,53.059017 c 0,-1.676423 -1.77354,-2.091535 -2.36383,-0.553273 C 122.28787,53.413403 122.6393,54 123.53138,54 124.33912,54 125,53.576558 125,53.059017 Z m 10,0 c 0,-1.676423 -1.77354,-2.091535 -2.36383,-0.553273 C 132.28787,53.413403 132.6393,54 133.53138,54 134.33912,54 135,53.576558 135,53.059017 Z M 145.36163,52.5 C 145.04504,51.675 144.43231,51 144,51 c -0.43231,0 -1.04504,0.675 -1.36163,1.5 -0.38957,1.015217 0.0505,1.5 1.36163,1.5 1.31114,0 1.7512,-0.484783 1.36163,-1.5 z M 39.36383,47.505744 C 39.04846,46.683903 38.387584,46.26046 37.895215,46.564761 36.483292,47.437377 36.851226,49 38.468615,49 c 0.892084,0 1.243517,-0.586597 0.895215,-1.494256 z M 49.833333,48 C 49.65,47.45 49.05,47 48.5,47 c -0.55,0 -1.15,0.45 -1.333333,1 -0.183334,0.55 0.416666,1 1.333333,1 0.916667,0 1.516667,-0.45 1.333333,-1 z M 60,48.059017 C 60,46.382594 58.226456,45.967482 57.63617,47.505744 57.287868,48.413403 57.639301,49 58.531385,49 59.339123,49 60,48.576558 60,48.059017 Z m 10,0 C 70,46.382594 68.226456,45.967482 67.63617,47.505744 67.287868,48.413403 67.639301,49 68.531385,49 69.339123,49 70,48.576558 70,48.059017 Z M 79.361626,47.5 C 79.045044,46.675 78.657312,46 78.5,46 c -0.157312,0 -0.545044,0.675 -0.861626,1.5 -0.347108,0.904548 -0.0051,1.5 0.861626,1.5 0.866695,0 1.208734,-0.595452 0.861626,-1.5 z M 89.833333,48 C 89.65,47.45 89.05,47 88.5,47 c -0.55,0 -1.15,0.45 -1.333333,1 -0.183334,0.55 0.416666,1 1.333333,1 0.916667,0 1.516667,-0.45 1.333333,-1 z m 10,0 C 99.65,47.45 99.05,47 98.5,47 c -0.55,0 -1.15,0.45 -1.333333,1 -0.183334,0.55 0.416666,1 1.333333,1 0.916667,0 1.51667,-0.45 1.333333,-1 z M 110,48.059017 c 0,-1.676423 -1.77354,-2.091535 -2.36383,-0.553273 C 107.28787,48.413403 107.6393,49 108.53138,49 109.33912,49 110,48.576558 110,48.059017 Z m 10,0 c 0,-1.676423 -1.77354,-2.091535 -2.36383,-0.553273 C 117.28787,48.413403 117.6393,49 118.53138,49 119.33912,49 120,48.576558 120,48.059017 Z M 130.2,47.8 c -0.93333,-0.933333 -1.46667,-0.933333 -2.4,0 -0.93333,0.933333 -0.66667,1.2 1.2,1.2 1.86667,0 2.13333,-0.266667 1.2,-1.2 z m 10,0 c -0.93333,-0.933333 -1.46667,-0.933333 -2.4,0 -0.93333,0.933333 -0.66667,1.2 1.2,1.2 1.86667,0 2.13333,-0.266667 1.2,-1.2 z m 10.16383,-0.294256 C 150.04846,46.683903 149.38758,46.26046 148.89522,46.564761 147.48329,47.437377 147.85123,49 149.46862,49 c 0.89208,0 1.24351,-0.586597 0.89521,-1.494256 z M 34.770833,43.8125 C 34.152759,41.958277 32,41.65074 32,43.416667 32,44.2875 32.7125,45 33.583333,45 c 0.870834,0 1.405209,-0.534375 1.1875,-1.1875 z m 10,0 C 44.152759,41.958277 42,41.65074 42,43.416667 42,44.2875 42.7125,45 43.583333,45 c 0.870834,0 1.405209,-0.534375 1.1875,-1.1875 z M 54.833333,44 C 54.65,43.45 54.05,43 53.5,43 c -0.55,0 -1.15,0.45 -1.333333,1 -0.183334,0.55 0.416666,1 1.333333,1 0.916667,0 1.516667,-0.45 1.333333,-1 z m 10,0 C 64.65,43.45 64.05,43 63.5,43 c -0.55,0 -1.15,0.45 -1.333333,1 -0.183334,0.55 0.416666,1 1.333333,1 0.916667,0 1.516667,-0.45 1.333333,-1 z m 10,0 C 74.65,43.45 74.05,43 73.5,43 c -0.55,0 -1.15,0.45 -1.333333,1 -0.183334,0.55 0.416666,1 1.333333,1 0.916667,0 1.516667,-0.45 1.333333,-1 z m 9.9375,-0.1875 C 84.152759,41.958277 82,41.65074 82,43.416667 82,44.2875 82.7125,45 83.583333,45 c 0.870834,0 1.405209,-0.534375 1.1875,-1.1875 z M 94.833333,44 C 94.65,43.45 94.05,43 93.5,43 c -0.55,0 -1.15,0.45 -1.333333,1 -0.183334,0.55 0.416666,1 1.333333,1 0.916667,0 1.516667,-0.45 1.333333,-1 z m 9.999997,0 C 104.65,43.45 104.05,43 103.5,43 c -0.55,0 -1.15,0.45 -1.33333,1 -0.18334,0.55 0.41666,1 1.33333,1 0.91667,0 1.51667,-0.45 1.33333,-1 z m 10,0 C 114.65,43.45 114.05,43 113.5,43 c -0.55,0 -1.15,0.45 -1.33333,1 -0.18334,0.55 0.41666,1 1.33333,1 0.91667,0 1.51667,-0.45 1.33333,-1 z M 125,43.416667 c 0,-0.870834 -0.53437,-1.405209 -1.1875,-1.1875 C 121.95828,42.847241 121.65074,45 123.41667,45 124.2875,45 125,44.2875 125,43.416667 Z m 10,0 c 0,-1.765927 -2.15276,-1.45839 -2.77083,0.395833 C 132.01146,44.465625 132.54583,45 133.41667,45 134.2875,45 135,44.2875 135,43.416667 Z M 145.36163,43.5 C 145.04504,42.675 144.43231,42 144,42 c -0.43231,0 -1.04504,0.675 -1.36163,1.5 -0.38957,1.015217 0.0505,1.5 1.36163,1.5 1.31114,0 1.7512,-0.484783 1.36163,-1.5 z M 39.833333,39 C 39.65,38.45 39.05,38 38.5,38 c -0.55,0 -1.15,0.45 -1.333333,1 -0.183334,0.55 0.416666,1 1.333333,1 0.916667,0 1.516667,-0.45 1.333333,-1 z m 10,0 C 49.65,38.45 49.05,38 48.5,38 c -0.55,0 -1.15,0.45 -1.333333,1 -0.183334,0.55 0.416666,1 1.333333,1 0.916667,0 1.516667,-0.45 1.333333,-1 z m 10,0 C 59.65,38.45 59.05,38 58.5,38 c -0.55,0 -1.15,0.45 -1.333333,1 -0.183334,0.55 0.416666,1 1.333333,1 0.916667,0 1.516667,-0.45 1.333333,-1 z m 10,0 C 69.65,38.45 69.05,38 68.5,38 c -0.55,0 -1.15,0.45 -1.333333,1 -0.183334,0.55 0.416666,1 1.333333,1 0.916667,0 1.516667,-0.45 1.333333,-1 z m 10,0 C 79.65,38.45 79.05,38 78.5,38 c -0.55,0 -1.15,0.45 -1.333333,1 -0.183334,0.55 0.416666,1 1.333333,1 0.916667,0 1.516667,-0.45 1.333333,-1 z m 10,0 C 89.65,38.45 89.05,38 88.5,38 c -0.55,0 -1.15,0.45 -1.333333,1 -0.183334,0.55 0.416666,1 1.333333,1 0.916667,0 1.516667,-0.45 1.333333,-1 z m 10,0 C 99.65,38.45 99.05,38 98.5,38 c -0.55,0 -1.15,0.45 -1.333333,1 -0.183334,0.55 0.416666,1 1.333333,1 0.916667,0 1.51667,-0.45 1.333333,-1 z m 9.999997,0 C 109.65,38.45 109.05,38 108.5,38 c -0.55,0 -1.15,0.45 -1.33333,1 -0.18334,0.55 0.41666,1 1.33333,1 0.91667,0 1.51667,-0.45 1.33333,-1 z M 120,39.059017 c 0,-1.676423 -1.77354,-2.091535 -2.36383,-0.553273 C 117.28787,39.413403 117.6393,40 118.53138,40 119.33912,40 120,39.576558 120,39.059017 Z M 130.36163,38.5 C 130.04504,37.675 129.43231,37 129,37 c -0.43231,0 -1.04504,0.675 -1.36163,1.5 -0.38957,1.015217 0.0505,1.5 1.36163,1.5 1.31114,0 1.7512,-0.484783 1.36163,-1.5 z m 10,0 C 140.04504,37.675 139.43231,37 139,37 c -0.43231,0 -1.04504,0.675 -1.36163,1.5 -0.38957,1.015217 0.0505,1.5 1.36163,1.5 1.31114,0 1.7512,-0.484783 1.36163,-1.5 z m 10,0 C 150.04504,37.675 149.38417,37 148.89301,37 148.40186,37 148,37.675 148,38.5 c 0,0.825 0.66088,1.5 1.46862,1.5 0.89459,0 1.24363,-0.586289 0.89301,-1.5 z M 34.5,34 C 34.160081,33.45 33.458524,33 32.940983,33 32.423442,33 32,33.45 32,34 c 0,0.55 0.701558,1 1.559017,1 0.857459,0 1.280902,-0.45 0.940983,-1 z m 9.86383,-0.494256 C 44.04846,32.683903 43.387584,32.26046 42.895215,32.564761 41.483292,33.437377 41.851226,35 43.468615,35 c 0.892084,0 1.243517,-0.586597 0.895215,-1.494256 z m 10,0 C 54.04846,32.683903 53.387584,32.26046 52.895215,32.564761 51.483292,33.437377 51.851226,35 53.468615,35 c 0.892084,0 1.243517,-0.586597 0.895215,-1.494256 z m 10,0 C 64.04846,32.683903 63.387584,32.26046 62.895215,32.564761 61.483292,33.437377 61.851226,35 63.468615,35 c 0.892084,0 1.243517,-0.586597 0.895215,-1.494256 z M 75,34.059017 C 75,32.382594 73.226456,31.967482 72.63617,33.505744 72.287868,34.413403 72.639301,35 73.531385,35 74.339123,35 75,34.576558 75,34.059017 Z m 9.36383,-0.553273 C 84.04846,32.683903 83.387584,32.26046 82.895215,32.564761 81.483292,33.437377 81.851226,35 83.468615,35 c 0.892084,0 1.243517,-0.586597 0.895215,-1.494256 z m 10,0 C 94.04846,32.683903 93.387584,32.26046 92.895215,32.564761 91.483292,33.437377 91.851226,35 93.468615,35 c 0.892084,0 1.243517,-0.586597 0.895215,-1.494256 z m 10,0 C 104.04846,32.683903 103.38758,32.26046 102.89522,32.564761 101.48329,33.437377 101.85123,35 103.46862,35 c 0.89208,0 1.24351,-0.586597 0.89521,-1.494256 z M 115,34.059017 c 0,-1.676423 -1.77354,-2.091535 -2.36383,-0.553273 C 112.28787,34.413403 112.6393,35 113.53138,35 114.33912,35 115,34.576558 115,34.059017 Z m 10,0 c 0,-1.676423 -1.77354,-2.091535 -2.36383,-0.553273 C 122.28787,34.413403 122.6393,35 123.53138,35 124.33912,35 125,34.576558 125,34.059017 Z m 10,0 c 0,-1.676423 -1.77354,-2.091535 -2.36383,-0.553273 C 132.28787,34.413403 132.6393,35 133.53138,35 134.33912,35 135,34.576558 135,34.059017 Z M 145.2,33.8 c -0.93333,-0.933333 -1.46667,-0.933333 -2.4,0 -0.93333,0.933333 -0.66667,1.2 1.2,1.2 1.86667,0 2.13333,-0.266667 1.2,-1.2 z M 39.770833,29.8125 C 39.152759,27.958277 37,27.65074 37,29.416667 37,30.2875 37.7125,31 38.583333,31 c 0.870834,0 1.405209,-0.534375 1.1875,-1.1875 z M 49.833333,30 C 49.65,29.45 49.05,29 48.5,29 c -0.55,0 -1.15,0.45 -1.333333,1 -0.183334,0.55 0.416666,1 1.333333,1 0.916667,0 1.516667,-0.45 1.333333,-1 z m 10,0 C 59.65,29.45 59.05,29 58.5,29 c -0.55,0 -1.15,0.45 -1.333333,1 -0.183334,0.55 0.416666,1 1.333333,1 0.916667,0 1.516667,-0.45 1.333333,-1 z M 70,29.416667 c 0,-0.870834 -0.534375,-1.405209 -1.1875,-1.1875 C 66.958277,28.847241 66.65074,31 68.416667,31 69.2875,31 70,30.2875 70,29.416667 Z M 79.833333,30 C 79.65,29.45 79.05,29 78.5,29 c -0.55,0 -1.15,0.45 -1.333333,1 -0.183334,0.55 0.416666,1 1.333333,1 0.916667,0 1.516667,-0.45 1.333333,-1 z m 10,0 C 89.65,29.45 89.05,29 88.5,29 c -0.55,0 -1.15,0.45 -1.333333,1 -0.183334,0.55 0.416666,1 1.333333,1 0.916667,0 1.516667,-0.45 1.333333,-1 z m 10,0 C 99.65,29.45 99.05,29 98.5,29 c -0.55,0 -1.15,0.45 -1.333333,1 -0.183334,0.55 0.416666,1 1.333333,1 0.916667,0 1.51667,-0.45 1.333333,-1 z M 110,29.416667 c 0,-1.765927 -2.15276,-1.45839 -2.77083,0.395833 C 107.01146,30.465625 107.54583,31 108.41667,31 109.2875,31 110,30.2875 110,29.416667 Z m 10,0 c 0,-0.870834 -0.53437,-1.405209 -1.1875,-1.1875 C 116.95828,28.847241 116.65074,31 118.41667,31 119.2875,31 120,30.2875 120,29.416667 Z M 130,29.5 c 0,-0.825 -0.42344,-1.5 -0.94098,-1.5 -1.26098,0 -2.1641,1.561589 -1.36517,2.36052 C 128.82004,31.486704 130,31.04641 130,29.5 Z m 10,0 c 0,-0.55 -0.45,-1.15 -1,-1.333333 -0.55,-0.183334 -1,0.416666 -1,1.333333 0,0.916667 0.45,1.516667 1,1.333333 C 139.55,30.65 140,30.05 140,29.5 Z m 10.77083,0.3125 C 150.15276,27.958277 148,27.65074 148,29.416667 148,30.2875 148.7125,31 149.58333,31 c 0.87084,0 1.40521,-0.534375 1.1875,-1.1875 z M 34.361626,24.5 C 34.045044,23.675 33.384167,23 32.893011,23 32.401855,23 32,23.675 32,24.5 c 0,0.825 0.660877,1.5 1.468615,1.5 0.894593,0 1.243635,-0.586289 0.893011,-1.5 z M 44.833333,25 C 44.65,24.45 44.05,24 43.5,24 c -0.55,0 -1.15,0.45 -1.333333,1 -0.183334,0.55 0.416666,1 1.333333,1 0.916667,0 1.516667,-0.45 1.333333,-1 z m 10,0 C 54.65,24.45 54.05,24 53.5,24 c -0.55,0 -1.15,0.45 -1.333333,1 -0.183334,0.55 0.416666,1 1.333333,1 0.916667,0 1.516667,-0.45 1.333333,-1 z m 10,0 C 64.65,24.45 64.05,24 63.5,24 c -0.55,0 -1.15,0.45 -1.333333,1 -0.183334,0.55 0.416666,1 1.333333,1 0.916667,0 1.516667,-0.45 1.333333,-1 z m 10,0 C 74.65,24.45 74.05,24 73.5,24 c -0.55,0 -1.15,0.45 -1.333333,1 -0.183334,0.55 0.416666,1 1.333333,1 0.916667,0 1.516667,-0.45 1.333333,-1 z M 84.36383,24.505744 C 84.04846,23.683903 83.387584,23.26046 82.895215,23.564761 81.483292,24.437377 81.851226,26 83.468615,26 c 0.892084,0 1.243517,-0.586597 0.895215,-1.494256 z M 94.833333,25 C 94.65,24.45 94.05,24 93.5,24 c -0.55,0 -1.15,0.45 -1.333333,1 -0.183334,0.55 0.416666,1 1.333333,1 0.916667,0 1.516667,-0.45 1.333333,-1 z m 9.999997,0 C 104.65,24.45 104.05,24 103.5,24 c -0.55,0 -1.15,0.45 -1.33333,1 -0.18334,0.55 0.41666,1 1.33333,1 0.91667,0 1.51667,-0.45 1.33333,-1 z m 10,0 C 114.65,24.45 114.05,24 113.5,24 c -0.55,0 -1.15,0.45 -1.33333,1 -0.18334,0.55 0.41666,1 1.33333,1 0.91667,0 1.51667,-0.45 1.33333,-1 z m 10,0 C 124.65,24.45 124.05,24 123.5,24 c -0.55,0 -1.15,0.45 -1.33333,1 -0.18334,0.55 0.41666,1 1.33333,1 0.91667,0 1.51667,-0.45 1.33333,-1 z M 135,24.5 c 0,-0.825 -0.40186,-1.5 -0.89301,-1.5 -0.49116,0 -1.15203,0.675 -1.46862,1.5 -0.35062,0.913711 -0.002,1.5 0.89301,1.5 C 134.33912,26 135,25.325 135,24.5 Z m 10.36163,0 C 145.04504,23.675 144.43231,23 144,23 c -0.43231,0 -1.04504,0.675 -1.36163,1.5 -0.38957,1.015217 0.0505,1.5 1.36163,1.5 1.31114,0 1.7512,-0.484783 1.36163,-1.5 z M 39.36383,19.505744 C 39.04846,18.683903 38.387584,18.26046 37.895215,18.564761 36.483292,19.437377 36.851226,21 38.468615,21 c 0.892084,0 1.243517,-0.586597 0.895215,-1.494256 z M 49.833333,20 C 49.65,19.45 49.05,19 48.5,19 c -0.55,0 -1.15,0.45 -1.333333,1 -0.183334,0.55 0.416666,1 1.333333,1 0.916667,0 1.516667,-0.45 1.333333,-1 z m 10,0 C 59.65,19.45 59.05,19 58.5,19 c -0.55,0 -1.15,0.45 -1.333333,1 -0.183334,0.55 0.416666,1 1.333333,1 0.916667,0 1.516667,-0.45 1.333333,-1 z M 70,20.059017 C 70,18.382594 68.226456,17.967482 67.63617,19.505744 67.287868,20.413403 67.639301,21 68.531385,21 69.339123,21 70,20.576558 70,20.059017 Z M 79.361626,19.5 C 79.045044,18.675 78.657312,18 78.5,18 c -0.157312,0 -0.545044,0.675 -0.861626,1.5 -0.347108,0.904548 -0.0051,1.5 0.861626,1.5 0.866695,0 1.208734,-0.595452 0.861626,-1.5 z M 89.833333,20 C 89.65,19.45 89.05,19 88.5,19 c -0.55,0 -1.15,0.45 -1.333333,1 -0.183334,0.55 0.416666,1 1.333333,1 0.916667,0 1.516667,-0.45 1.333333,-1 z m 10,0 C 99.65,19.45 99.05,19 98.5,19 c -0.55,0 -1.15,0.45 -1.333333,1 -0.183334,0.55 0.416666,1 1.333333,1 0.916667,0 1.51667,-0.45 1.333333,-1 z M 110,20.059017 c 0,-1.676423 -1.77354,-2.091535 -2.36383,-0.553273 C 107.28787,20.413403 107.6393,21 108.53138,21 109.33912,21 110,20.576558 110,20.059017 Z m 10,0 c 0,-1.676423 -1.77354,-2.091535 -2.36383,-0.553273 C 117.28787,20.413403 117.6393,21 118.53138,21 119.33912,21 120,20.576558 120,20.059017 Z m 11,0.563428 c 0,-0.207656 -0.62245,-0.894141 -1.38322,-1.525524 -1.06665,-0.88524 -1.51719,-0.798832 -1.96861,0.377556 C 127.24563,20.52347 127.67771,21 129.03138,21 130.11412,21 131,20.8301 131,20.622445 Z M 140.2,19.8 c -0.93333,-0.933333 -1.46667,-0.933333 -2.4,0 -0.93333,0.933333 -0.66667,1.2 1.2,1.2 1.86667,0 2.13333,-0.266667 1.2,-1.2 z m 10.16383,-0.294256 C 150.04846,18.683903 149.38758,18.26046 148.89522,18.564761 147.48329,19.437377 147.85123,21 149.46862,21 c 0.89208,0 1.24351,-0.586597 0.89521,-1.494256 z M 34.770833,15.8125 C 34.152759,13.958277 32,13.65074 32,15.416667 32,16.2875 32.7125,17 33.583333,17 c 0.870834,0 1.405209,-0.534375 1.1875,-1.1875 z m 10,0 C 44.152759,13.958277 42,13.65074 42,15.416667 42,16.2875 42.7125,17 43.583333,17 c 0.870834,0 1.405209,-0.534375 1.1875,-1.1875 z m 10,0 C 54.152759,13.958277 52,13.65074 52,15.416667 52,16.2875 52.7125,17 53.583333,17 c 0.870834,0 1.405209,-0.534375 1.1875,-1.1875 z M 64.833333,16 C 64.65,15.45 64.05,15 63.5,15 c -0.55,0 -1.15,0.45 -1.333333,1 -0.183334,0.55 0.416666,1 1.333333,1 0.916667,0 1.516667,-0.45 1.333333,-1 z m 10,0 C 74.65,15.45 74.05,15 73.5,15 c -0.55,0 -1.15,0.45 -1.333333,1 -0.183334,0.55 0.416666,1 1.333333,1 0.916667,0 1.516667,-0.45 1.333333,-1 z m 9.9375,-0.1875 C 84.152759,13.958277 82,13.65074 82,15.416667 82,16.2875 82.7125,17 83.583333,17 c 0.870834,0 1.405209,-0.534375 1.1875,-1.1875 z M 94.833333,16 C 94.65,15.45 94.05,15 93.5,15 c -0.55,0 -1.15,0.45 -1.333333,1 -0.183334,0.55 0.416666,1 1.333333,1 0.916667,0 1.516667,-0.45 1.333333,-1 z m 9.999997,0 C 104.65,15.45 104.05,15 103.5,15 c -0.55,0 -1.15,0.45 -1.33333,1 -0.18334,0.55 0.41666,1 1.33333,1 0.91667,0 1.51667,-0.45 1.33333,-1 z m 10,0 C 114.65,15.45 114.05,15 113.5,15 c -0.55,0 -1.15,0.45 -1.33333,1 -0.18334,0.55 0.41666,1 1.33333,1 0.91667,0 1.51667,-0.45 1.33333,-1 z M 125,15.416667 c 0,-1.765927 -2.15276,-1.45839 -2.77083,0.395833 C 122.01146,16.465625 122.54583,17 123.41667,17 124.2875,17 125,16.2875 125,15.416667 Z m 10,0 c 0,-1.765927 -2.15276,-1.45839 -2.77083,0.395833 C 132.01146,16.465625 132.54583,17 133.41667,17 134.2875,17 135,16.2875 135,15.416667 Z m 10,0 c 0,-1.765927 -2.15276,-1.45839 -2.77083,0.395833 C 142.01146,16.465625 142.54583,17 143.41667,17 144.2875,17 145,16.2875 145,15.416667 Z M 39.833333,11 C 39.65,10.45 39.05,10 38.5,10 c -0.55,0 -1.15,0.45 -1.333333,1 -0.183334,0.55 0.416666,1 1.333333,1 0.916667,0 1.516667,-0.45 1.333333,-1 z m 10,0 C 49.65,10.45 49.05,10 48.5,10 c -0.55,0 -1.15,0.45 -1.333333,1 -0.183334,0.55 0.416666,1 1.333333,1 0.916667,0 1.516667,-0.45 1.333333,-1 z m 10,0 C 59.65,10.45 59.05,10 58.5,10 c -0.55,0 -1.15,0.45 -1.333333,1 -0.183334,0.55 0.416666,1 1.333333,1 0.916667,0 1.516667,-0.45 1.333333,-1 z m 10,0 C 69.65,10.45 69.05,10 68.5,10 c -0.55,0 -1.15,0.45 -1.333333,1 -0.183334,0.55 0.416666,1 1.333333,1 0.916667,0 1.516667,-0.45 1.333333,-1 z m 10,0 C 79.65,10.45 79.05,10 78.5,10 c -0.55,0 -1.15,0.45 -1.333333,1 -0.183334,0.55 0.416666,1 1.333333,1 0.916667,0 1.516667,-0.45 1.333333,-1 z m 10,0 C 89.65,10.45 89.05,10 88.5,10 c -0.55,0 -1.15,0.45 -1.333333,1 -0.183334,0.55 0.416666,1 1.333333,1 0.916667,0 1.516667,-0.45 1.333333,-1 z m 10,0 C 99.65,10.45 99.05,10 98.5,10 c -0.55,0 -1.15,0.45 -1.333333,1 -0.183334,0.55 0.416666,1 1.333333,1 0.916667,0 1.51667,-0.45 1.333333,-1 z m 9.999997,0 C 109.65,10.45 109.05,10 108.5,10 c -0.55,0 -1.15,0.45 -1.33333,1 -0.18334,0.55 0.41666,1 1.33333,1 0.91667,0 1.51667,-0.45 1.33333,-1 z M 120,10.5 C 120,9.675 119.59814,9 119.10699,9 c -0.49116,0 -1.15203,0.675 -1.46862,1.5 -0.35062,0.913711 -0.002,1.5 0.89301,1.5 C 119.33912,12 120,11.325 120,10.5 Z m 10.36163,0 C 130.04504,9.675 129.43231,9 129,9 c -0.43231,0 -1.04504,0.675 -1.36163,1.5 -0.38957,1.015217 0.0505,1.5 1.36163,1.5 1.31114,0 1.7512,-0.484783 1.36163,-1.5 z m 10,0 C 140.04504,9.675 139.43231,9 139,9 c -0.43231,0 -1.04504,0.675 -1.36163,1.5 -0.38957,1.015217 0.0505,1.5 1.36163,1.5 1.31114,0 1.7512,-0.484783 1.36163,-1.5 z M 44.36383,5.5057436 C 44.04846,4.6839025 43.387584,4.2604602 42.895215,4.5647606 41.483292,5.437377 41.851226,7 43.468615,7 44.360699,7 44.712132,6.4134031 44.36383,5.5057436 Z m 10,0 C 54.04846,4.6839025 53.387584,4.2604602 52.895215,4.5647606 51.483292,5.437377 51.851226,7 53.468615,7 54.360699,7 54.712132,6.4134031 54.36383,5.5057436 Z M 64.833333,6 C 64.65,5.45 64.05,5 63.5,5 62.95,5 62.35,5.45 62.166667,6 61.983333,6.55 62.583333,7 63.5,7 64.416667,7 65.016667,6.55 64.833333,6 Z M 75,6.059017 C 75,4.3825943 73.226456,3.9674821 72.63617,5.5057436 72.287868,6.4134031 72.639301,7 73.531385,7 74.339123,7 75,6.5765576 75,6.059017 Z M 84.36383,5.5057436 C 84.04846,4.6839025 83.387584,4.2604602 82.895215,4.5647606 81.483292,5.437377 81.851226,7 83.468615,7 84.360699,7 84.712132,6.4134031 84.36383,5.5057436 Z m 10,0 C 94.04846,4.6839025 93.387584,4.2604602 92.895215,4.5647606 91.483292,5.437377 91.851226,7 93.468615,7 94.360699,7 94.712132,6.4134031 94.36383,5.5057436 Z m 10,0 C 104.04846,4.6839025 103.38758,4.2604602 102.89522,4.5647606 101.48329,5.437377 101.85123,7 103.46862,7 c 0.89208,0 1.24351,-0.5865969 0.89521,-1.4942564 z M 115,6.059017 C 115,4.3825943 113.22646,3.9674821 112.63617,5.5057436 112.28787,6.4134031 112.6393,7 113.53138,7 114.33912,7 115,6.5765576 115,6.059017 Z m 10,0 C 125,4.3825943 123.22646,3.9674821 122.63617,5.5057436 122.28787,6.4134031 122.6393,7 123.53138,7 124.33912,7 125,6.5765576 125,6.059017 Z m 10,0 C 135,4.3825943 133.22646,3.9674821 132.63617,5.5057436 132.28787,6.4134031 132.6393,7 133.53138,7 134.33912,7 135,6.5765576 135,6.059017 Z"
       id="path14"
       inkscape:connector-curvature="0" />
  </g>
</svg>
