<?xml version="1.0" encoding="UTF-8" standalone="no"?>
<!-- Created with Inkscape (http://www.inkscape.org/) -->

<svg
   xmlns:dc="http://purl.org/dc/elements/1.1/"
   xmlns:cc="http://creativecommons.org/ns#"
   xmlns:rdf="http://www.w3.org/1999/02/22-rdf-syntax-ns#"
   xmlns:svg="http://www.w3.org/2000/svg"
   xmlns="http://www.w3.org/2000/svg"
   xmlns:sodipodi="http://sodipodi.sourceforge.net/DTD/sodipodi-0.dtd"
   xmlns:inkscape="http://www.inkscape.org/namespaces/inkscape"
   version="1.1"
   id="svg2"
   width="182.4216"
   height="64"
   viewBox="0 0 182.4216 64"
   sodipodi:docname="candy-button-bg-2.svg"
   inkscape:version="0.92.1 r15371">
  <metadata
     id="metadata8">
    <rdf:RDF>
      <cc:Work
         rdf:about="">
        <dc:format>image/svg+xml</dc:format>
        <dc:type
           rdf:resource="http://purl.org/dc/dcmitype/StillImage" />
        <dc:title></dc:title>
      </cc:Work>
    </rdf:RDF>
  </metadata>
  <defs
     id="defs6" />
  <sodipodi:namedview
     pagecolor="#ffffff"
     bordercolor="#666666"
     borderopacity="1"
     objecttolerance="10"
     gridtolerance="10"
     guidetolerance="10"
     inkscape:pageopacity="0"
     inkscape:pageshadow="2"
     inkscape:window-width="1920"
     inkscape:window-height="1001"
     id="namedview4"
     showgrid="false"
     fit-margin-top="0"
     fit-margin-left="0"
     fit-margin-right="0"
     fit-margin-bottom="0"
     inkscape:zoom="2.579235"
     inkscape:cx="70.79948"
     inkscape:cy="17.654662"
     inkscape:window-x="-9"
     inkscape:window-y="41"
     inkscape:window-maximized="1"
     inkscape:current-layer="svg2" />
  <g
     id="g148"
     transform="translate(0.23592058,-0.77542371)">
    <path
       style="fill:#ae9493"
       d="M 3.5310942,60.41664 C 4.0370909,57.042412 3.7121133,55.131443 2.0923671,51.956478 -0.51219862,46.851108 -0.52827318,44.731249 2,39.775424 4.5126446,34.850234 4.513372,32.665771 2.0037381,28.549594 -0.52789454,24.397336 -0.52896694,20.732609 2,15.775424 4.3739716,11.122055 4.537826,7.8687526 2.5318034,5.2165533 0.6768742,2.7641175 0.59807407,0.77542371 2.3558278,0.77542371 c 2.0996031,0 25.1486712,10.69663229 25.1090882,11.65264729 -0.0193,0.466044 -0.404101,3.246764 -0.85512,6.179378 -0.738816,4.803926 -1.032469,5.275153 -2.964915,4.757816 -5.4766,-1.466146 -6.697057,-1.419024 -2.394881,0.09247 L 26,25.126561 v 7.349183 c 0,7.110366 -0.08936,7.381389 -2.75,8.34025 -1.5125,0.545087 -3.65,1.443303 -4.75,1.996035 -1.776871,0.89285 -1.721089,0.94774 0.5,0.491999 1.375,-0.282133 3.469118,-0.782626 4.653596,-1.112207 2.360414,-0.656784 2.726814,0.03446 3.849108,7.26173 l 0.648805,4.178126 -11.721999,5.571874 C 9.9824099,62.26808 4.2957475,64.775424 3.7924821,64.775424 c -0.5133918,0 -0.6281237,-1.913215 -0.2613879,-4.358784 z M 166.5,59.647378 c -6.05,-2.806481 -11.34,-5.413276 -11.75556,-5.792879 -0.41555,-0.379602 -0.23458,-3.284285 0.40216,-6.45485 1.03141,-5.135756 1.38658,-5.703308 3.25555,-5.202261 1.15382,0.309322 3.22285,0.802676 4.59785,1.096342 2.21714,0.473528 2.27371,0.41963 0.5,-0.476366 -1.1,-0.555668 -3.2375,-1.456285 -4.75,-2.001372 -2.64621,-0.953662 -2.75,-1.257128 -2.75,-8.040568 0,-6.78344 0.10379,-7.086906 2.75,-8.040568 1.5125,-0.545087 3.65,-1.445704 4.75,-2.001372 1.77371,-0.895996 1.71714,-0.949894 -0.5,-0.476366 -1.375,0.293666 -3.45024,0.788579 -4.61164,1.099805 -1.85406,0.496841 -2.18444,0.03846 -2.7084,-3.757816 -0.32822,-2.378026 -0.72798,-5.101425 -0.88836,-6.051999 -0.22371,-1.325932 2.49139,-3.013867 11.66185,-7.2500004 6.5744,-3.0369261 12.58938,-5.52168389 13.36663,-5.52168389 1.48072,0 1.33802,1.05034649 -0.89656,6.59907269 -1.08931,2.7048856 -0.97303,3.6672096 0.91421,7.5657246 2.68612,5.548779 2.7244,8.813006 0.16227,13.835203 -1.1,2.156178 -2,4.507415 -2,5.224971 0,0.717556 0.9,2.983852 2,5.036214 2.5699,4.794883 2.52981,8.660773 -0.14302,13.788701 -1.78627,3.427026 -1.97118,4.67139 -1.11076,7.474886 0.95963,3.126756 0.75662,4.493399 -0.66289,4.462551 C 177.7625,64.755775 172.55,62.453859 166.5,59.647378 Z M 38.168273,60.629697 C 29.969279,56.5713 27.011805,48.524985 27.011369,30.275424 27.011018,15.597511 30.209841,8.4005367 38.383912,4.6885393 42.219675,2.9466485 45.788241,2.817852 90.782119,2.7973857 143.34252,2.7734777 143.24522,2.7639877 149.23225,8.498555 c 5.03654,4.824162 6.07348,9.572061 5.56981,25.502822 -0.4737,14.982924 -1.75034,19.706811 -6.48225,23.985909 -5.18718,4.690806 -6.35755,4.788185 -57.537691,4.787349 -47.3498,-7.73e-4 -48.365764,-0.04219 -52.613846,-2.144938 z"
       id="path158"
       inkscape:connector-curvature="0" />
    <path
       style="fill:#886161"
       d="M 3.7282973,59.764452 C 4.1354476,56.72892 3.6880296,54.663464 1.8885322,51.271378 -0.48903591,46.789618 -0.48907703,46.788913 1.3494306,42.03235 4.2558292,34.512953 4.366643,32.414428 2.0926825,27.957097 -0.50608541,22.863091 -0.51943461,21.214958 2,16.514239 4.3028194,12.217677 4.4785315,9.740775 2.8081999,5.1215551 2.1527099,3.3088296 1.8777976,1.5642927 2.1972839,1.2448065 2.5167701,0.92532031 8.4044884,3.2239104 15.281102,6.3527845 l 12.502935,5.6888625 -0.892019,3.110287 C 26.401408,16.862591 26,19.502691 26,21.018822 c 0,3.231726 0.340509,3.140843 -4.874273,1.300961 C 18.856577,21.51918 17,21.25668 17,21.73645 c 0,0.479769 1.824578,1.4805 4.054618,2.223847 l 4.054617,1.351539 0.232495,7.224501 0.232494,7.224501 -3.537112,1.128096 C 17.299271,42.399979 15.510296,44.22537 19.5,43.477692 c 1.65,-0.309214 3.726058,-0.843288 4.613462,-1.186831 1.257727,-0.486909 1.753687,0.214207 2.249465,3.179969 0.349802,2.092527 0.892418,4.735601 1.205812,5.873499 0.499328,1.812996 -0.807031,2.70977 -10.561298,7.25 -6.122109,2.849602 -11.7354622,5.181095 -12.4741178,5.181095 -0.9902096,0 -1.201685,-1.053658 -0.8050259,-4.010972 z M 165,58.599973 c -5.775,-2.751914 -10.56355,-5.07572 -10.64122,-5.164014 -0.14722,-0.167348 1.91112,-10.964625 2.17728,-11.421212 0.0836,-0.143373 2.05711,0.411499 4.38563,1.233049 2.93526,1.035618 4.11467,1.136694 3.84562,0.329571 -0.21342,-0.640286 -1.93588,-1.683917 -3.82768,-2.319181 L 157.5,40.10316 l -0.28872,-7.478044 -0.28872,-7.478044 3.71277,-0.935824 c 2.04203,-0.514703 3.89441,-1.490696 4.1164,-2.168873 0.30241,-0.923816 -0.62969,-0.868471 -3.71668,0.220683 -4.72241,1.666164 -4.81086,1.569361 -5.24964,-5.745981 L 155.5,11.758729 167.34293,6.2654917 c 6.51361,-3.0212806 12.24946,-5.2419864 12.74633,-4.9349019 0.49833,0.3079864 0.23247,1.8557763 -0.59293,3.4519247 -1.99837,3.8644201 -1.88641,6.3079675 0.50367,10.9929095 1.1,2.156178 2,4.856178 2,6 0,1.143822 -0.9,3.843822 -2,6 -1.1,2.156178 -2,4.856178 -2,6 0,1.143822 0.9,3.843822 2,6 2.53014,4.959487 2.51243,7.07524 -0.10216,12.200246 -1.55386,3.045818 -1.94202,5.122036 -1.48818,7.960162 0.8119,5.077336 -0.15304,4.98121 -13.40966,-1.335859 z M 40.5,61.273276 C 35.365855,59.457892 30.46019,54.114091 28.871104,48.605778 28.174431,46.190874 27.598698,38.525122 27.569515,31.275424 27.522572,19.613813 27.757833,17.784942 29.854641,13.51129 31.539932,10.07638 33.490581,7.9838303 36.846049,6.0112893 L 41.5,3.2754237 88,2.9554089 c 52.95257,-0.3644217 55.01216,-0.1678267 61.00292,5.8229355 5.10437,5.1043686 6.43854,11.4836786 5.71667,27.3342036 -0.69392,15.236613 -2.69845,19.741244 -10.62816,23.88377 l -5.31981,2.779106 -47.135812,-0.04389 C 53.644003,62.696153 43.724029,62.413262 40.5,61.273276 Z"
       id="path156"
       inkscape:connector-curvature="0" />
    <path
       style="fill:#764a48"
       d="m 3,63.340524 c 0,-0.239196 0.4583861,-1.640548 1.0186358,-3.114116 0.8279503,-2.177674 0.5471547,-3.675845 -1.5,-8.003174 C 1.1333861,49.295056 0,46.475788 0,45.958192 0,45.440597 1.1482479,42.509006 2.551662,39.443546 L 5.1033239,33.869982 2.551662,28.476212 C -0.51811599,21.987234 -0.53002328,21.734679 2,16.775424 4.2596711,12.346103 4.5471491,8.0703911 2.8375594,4.3182506 2.1982171,2.9150471 1.8994698,1.5426206 2.1736765,1.2684138 2.4478832,0.99420714 8.0334815,3.2370343 14.586117,6.2524742 c 9.603347,4.4193388 11.90003,5.8744018 11.842454,7.5027838 -0.3386,9.57641 -0.240733,9.308073 -3.178571,8.715197 -1.5125,-0.305233 -3.598902,-0.88319 -4.63645,-1.28435 -1.344468,-0.519827 -1.758078,-0.344264 -1.439631,0.611076 0.24575,0.737251 1.994653,1.85944 3.88645,2.493753 3.418466,1.146201 3.442708,1.197399 3.939631,8.320456 l 0.5,7.167159 -3.9375,1.310937 c -5.674642,1.889296 -5.89691,3.891801 -0.243108,2.190256 l 4.432122,-1.333872 0.577043,4.209989 c 0.317374,2.315494 0.832071,4.874579 1.14377,5.686855 0.420119,1.094811 -2.34862,2.831195 -10.7028,6.712143 C 6.4980735,63.326477 3,64.542249 3,63.340524 Z m 161.93818,-4.902546 c -9.98325,-4.879753 -10.52281,-5.299502 -9.84968,-7.662554 0.39168,-1.375 0.757,-3.9625 0.81182,-5.75 0.0548,-1.7875 0.2681,-3.25 0.47395,-3.25 0.20585,0 2.21918,0.650919 4.47406,1.446487 2.25488,0.795568 4.33926,1.059003 4.63196,0.585411 0.29269,-0.473593 -1.38313,-1.499512 -3.72406,-2.279821 L 157.5,40.108757 v -7.333333 -7.333333 l 4.25623,-1.418744 c 5.10268,-1.700893 4.76987,-3.508084 -0.38398,-2.085038 -4.35334,1.202015 -4.94335,0.660581 -5.69832,-5.229203 l -0.58532,-4.566318 12.12442,-5.6816281 c 6.66843,-3.1248953 12.3598,-5.4462422 12.64749,-5.1585486 0.28769,0.2876936 -0.0132,2.0062183 -0.66872,3.8189438 -1.67033,4.6192199 -1.49462,7.0961219 0.8082,11.3926839 2.51126,4.685469 2.51051,6.911615 -0.004,11.035355 -2.52945,4.148673 -2.52836,7.762658 0.004,12.487015 2.53066,4.721672 2.51277,6.813385 -0.10216,11.939061 -1.55386,3.045818 -1.94202,5.122036 -1.48818,7.960162 0.81597,5.102773 -0.19829,4.990001 -13.47148,-1.497854 z M 42.5,61.846711 C 35.707117,60.207385 30.801245,55.389557 28.888973,48.479955 27.360323,42.956497 27.39821,19.182318 28.941888,15.275424 30.381547,11.63179 34.543123,7.0967667 38.20034,5.1861473 c 2.220791,-1.1601954 11.632979,-1.4090435 53,-1.4012631 l 50.29966,0.00946 4.16316,2.4954366 c 2.81186,1.6854518 4.92167,4.0356322 6.5,7.2405392 2.09964,4.263445 2.33672,6.115439 2.33564,18.245103 -9.5e-4,10.640154 -0.38542,14.49637 -1.81491,18.203401 -2.13918,5.547414 -7.13371,10.272189 -12.40656,11.736471 -4.29908,1.193866 -92.881508,1.312924 -97.77733,0.131416 z"
       id="path154"
       inkscape:connector-curvature="0" />
    <path
       style="fill:#5e2420"
       d="M 3,63.322477 C 3,63.073356 3.5273607,61.712099 4.1719126,60.297462 5.1755465,58.094725 4.9432185,56.887228 2.5539523,51.888305 L -0.23592058,46.051216 2.541511,39.862275 5.3189425,33.673334 2.5666295,27.914829 -0.18568364,22.156324 2.409188,15.991184 C 4.9278196,10.007181 4.9562506,9.706556 3.3768503,5.7592461 2.4818851,3.522508 1.9587384,1.483352 2.214302,1.2277884 2.4698656,0.97222479 8.1658844,3.3268161 14.872122,6.4602136 L 27.06528,12.1573 26.405226,16.716362 c -0.36303,2.507484 -0.876811,4.933024 -1.141735,5.390089 -0.463606,0.799844 -3.177423,0.406703 -6.80704,-0.986112 -1.188389,-0.456028 -1.589581,-0.244304 -1.282532,0.676842 0.24575,0.737251 1.994653,1.861607 3.88645,2.498569 L 24.5,25.453863 v 7.397086 c 0,6.602294 -0.214893,7.438384 -2,7.781456 -4.27459,0.821515 -6.828006,2.215013 -5.85029,3.192729 0.633852,0.633852 2.354106,0.498014 4.912839,-0.387936 L 25.5,42.073873 l 1.131368,5.600775 c 0.660504,3.269791 0.752705,5.743454 0.221537,5.943597 -0.500406,0.188551 -5.425427,2.551051 -10.944491,5.25 C 6.8670047,63.289701 3,64.624066 3,63.322477 Z m 163.153,-4.47415 c -5.68729,-2.709903 -10.5458,-5.132371 -10.79669,-5.383262 -0.25089,-0.250891 -0.14495,-2.802198 0.23542,-5.669572 l 0.69158,-5.213407 3.10834,0.685935 c 4.81797,1.063207 5.07564,1.067376 5.60835,0.09074 0.275,-0.504166 -1.43133,-1.560443 -3.79185,-2.347282 l -4.29184,-1.430615 0.29184,-7.123901 0.29185,-7.123901 3.67835,-1.028817 c 2.02309,-0.565849 3.59809,-1.478817 3.5,-2.028817 -0.1942,-1.088895 -0.82662,-1.093448 -4.82766,-0.03475 -2.53119,0.669768 -2.6993,0.467894 -3.77074,-4.528041 -0.61678,-2.875985 -0.9996,-5.330986 -0.85069,-5.455558 0.47376,-0.396341 24.04789,-11.48165529 24.41698,-11.48165529 0.83004,0 0.26464,3.93704309 -0.64624,4.49999999 -1.66989,1.0320484 -1.12119,7.3421313 1,11.5000003 2.52832,4.955915 2.50769,6.442476 -0.14907,10.741207 -2.64073,4.272778 -2.61917,7.832585 0.0794,13.122305 2.55849,5.015058 2.56247,5.746567 0.0567,10.421727 -2.24677,4.191975 -2.69291,7.122904 -1.59293,10.464761 1.07698,3.271973 -0.46234,2.935329 -12.24118,-2.677097 z M 38.179627,60.093668 C 34.03253,58.050059 30.52682,53.485049 29.103779,48.275424 c -0.600944,-2.2 -1.085252,-9.85 -1.07624,-17 0.01324,-10.503093 0.370969,-13.768279 1.862504,-17 2.135787,-4.6276258 5.421883,-7.9166265 9.425057,-9.4333879 1.855917,-0.703188 19.675862,-1.0666124 52.29966,-1.0666124 54.56986,0 52.32644,-0.2478137 58.18747,6.4275363 3.9019,4.444015 4.66394,8.219014 4.55659,22.572464 -0.0984,13.162206 -1.29209,18.57881 -5.08843,23.090506 -5.01495,5.959933 -4.53525,5.911652 -58.488271,5.886724 -43.580217,-0.02014 -49.666284,-0.212079 -52.602492,-1.658986 z"
       id="path152"
       inkscape:connector-curvature="0" />
    <path
       style="fill:#480d0c"
       d="M 4.4487517,60.196909 C 4.9456688,57.548113 4.5848738,55.591568 3.0600426,52.666115 0.42392001,47.608603 0.4576528,43.945241 3.1921735,38.316773 5.2847687,34.009582 5.3096726,33.648026 3.7404217,30.357272 2.6028701,27.971802 2.4441983,26.794025 3.2252992,26.533658 3.8781258,26.316049 4.0159054,25.610177 3.552051,24.859644 2.9001416,23.804833 2.589069,23.815881 1.8903128,24.918661 1.2377056,25.948609 0.99919882,25.793667 0.90015831,24.275424 0.64011405,20.28907 1.1774644,18.250571 2.8226119,16.982377 3.7451754,16.271201 4.3533906,15.476209 4.1742013,15.215729 3.995012,14.955248 4.1360529,13.432464 4.4876255,11.831765 4.8946942,9.9783928 4.5369827,7.780727 3.5026879,5.7806215 2.6093996,4.0531925 2.0183587,2.2664204 2.1892637,1.810017 2.6862567,0.48279202 12,5.0008228 12,6.5691356 c 0,0.8530533 0.600423,1.1898617 1.503424,0.8433478 0.826883,-0.3173048 4.235206,0.6078227 7.574051,2.0558389 5.167348,2.2410157 5.987243,2.9433177 5.510231,4.7199297 -0.308218,1.147944 -0.573432,2.987172 -0.589364,4.087172 -0.05853,4.041323 -1.454429,4.917823 -5.008427,3.144855 -1.778062,-0.887014 -3.628182,-1.368418 -4.111378,-1.069787 -1.716473,1.060839 -0.836511,2.543621 2.121463,3.574777 1.65,0.575193 3,1.499929 3,2.054969 0,0.55504 0.675,0.750142 1.5,0.43356 1.243829,-0.477302 1.5,0.60027 1.5,6.309677 v 6.885282 l -4.25,1.416667 c -4.354041,1.451347 -5.038497,3.478808 -1,2.962151 1.2375,-0.158317 2.25,0.179183 2.25,0.75 0,1.916156 1.759161,1.061276 2.49435,-1.212151 0.568726,-1.758676 0.936526,-0.961826 1.684327,3.649145 0.747958,4.611941 0.669191,6.07781 -0.360981,6.717954 -0.735627,0.457115 -1.46494,0.391233 -1.651029,-0.149145 -0.183334,-0.532375 -0.793979,-0.967954 -1.356989,-0.967954 -0.563011,0 -0.766394,0.670413 -0.451963,1.489807 0.392078,1.021738 -0.281215,1.698475 -2.143011,2.153972 C 18.721617,56.784494 17.275,57.389992 17,57.764754 c -0.496913,0.67718 -11.7946082,6.01067 -12.7321338,6.01067 -0.2697464,0 -0.1883479,-1.610332 0.1808855,-3.578515 z M 9,57.775424 c 0,-0.55 -0.45,-1 -1,-1 -0.55,0 -1,0.45 -1,1 0,0.55 0.45,1 1,1 0.55,0 1,-0.45 1,-1 z m 5,-4 c 0,-0.55 -0.45,-1 -1,-1 -0.55,0 -1,0.45 -1,1 0,0.55 0.45,1 1,1 0.55,0 1,-0.45 1,-1 z m -5,-5 c 0,-0.55 -0.45,-1 -1,-1 -0.55,0 -1,0.45 -1,1 0,0.55 0.45,1 1,1 0.55,0 1,-0.45 1,-1 z m 10,0 c 0,-0.55 -0.45,-1 -1,-1 -0.55,0 -1,0.45 -1,1 0,0.55 0.45,1 1,1 0.55,0 1,-0.45 1,-1 z M 4,44.834441 C 4,44.3169 3.55,43.615343 3,43.275424 c -0.55,-0.339919 -1,0.08352 -1,0.940983 0,0.857459 0.45,1.559017 1,1.559017 0.55,0 1,-0.423442 1,-0.940983 z m 10,0 c 0,-0.517541 -0.45,-1.219098 -1,-1.559017 -0.55,-0.339919 -1,0.08352 -1,0.940983 0,0.857459 0.45,1.559017 1,1.559017 0.55,0 1,-0.423442 1,-0.940983 z M 9,39.775424 c 0,-0.55 -0.45,-1 -1,-1 -0.55,0 -1,0.45 -1,1 0,0.55 0.45,1 1,1 0.55,0 1,-0.45 1,-1 z m 10,-0.559017 c 0,-0.857459 -0.45,-1.280902 -1,-0.940983 -0.55,0.339919 -1,1.041476 -1,1.559017 0,0.517541 0.45,0.940983 1,0.940983 0.55,0 1,-0.701558 1,-1.559017 z m -5,-4.440983 c 0,-0.55 -0.45,-1 -1,-1 -0.55,0 -1,0.45 -1,1 0,0.55 0.45,1 1,1 0.55,0 1,-0.45 1,-1 z m 10,0 c 0,-0.55 -0.45,-1 -1,-1 -0.55,0 -1,0.45 -1,1 0,0.55 0.45,1 1,1 0.55,0 1,-0.45 1,-1 z m -15,-5 c 0,-0.55 -0.45,-1 -1,-1 -0.55,0 -1,0.45 -1,1 0,0.55 0.45,1 1,1 0.55,0 1,-0.45 1,-1 z m 10,0 c 0,-0.55 -0.45,-1 -1,-1 -0.55,0 -1,0.45 -1,1 0,0.55 0.45,1 1,1 0.55,0 1,-0.45 1,-1 z m -5,-3.940983 c 0,-0.517541 -0.45,-1.219098 -1,-1.559017 -0.55,-0.339919 -1,0.08352 -1,0.940983 0,0.857459 0.45,1.559017 1,1.559017 0.55,0 1,-0.423442 1,-0.940983 z M 9,20.775424 c 0,-0.55 -0.45,-1 -1,-1 -0.55,0 -1,0.45 -1,1 0,0.55 0.45,1 1,1 0.55,0 1,-0.45 1,-1 z m 5,-5 c 0,-0.55 -0.45,-1 -1,-1 -0.55,0 -1,0.45 -1,1 0,0.55 0.45,1 1,1 0.55,0 1,-0.45 1,-1 z m 10,0 c 0,-0.55 -0.45,-1 -1,-1 -0.55,0 -1,0.45 -1,1 0,0.55 0.45,1 1,1 0.55,0 1,-0.45 1,-1 z m -15,-4 c 0,-0.55 -0.45,-1 -1,-1 -0.55,0 -1,0.45 -1,1 0,0.55 0.45,1 1,1 0.55,0 1,-0.45 1,-1 z m 10,-0.559017 c 0,-0.85746 -0.45,-1.280902 -1,-0.940983 -0.55,0.339918 -1,1.041476 -1,1.559017 0,0.517541 0.45,0.940983 1,0.940983 0.55,0 1,-0.701558 1,-1.559017 z m 156,51.510655 c -0.825,-0.511911 -5.67931,-2.807242 -10.78735,-5.100735 l -9.28735,-4.169987 0.66477,-4.590458 c 0.36562,-2.524752 0.88151,-4.96442 1.14644,-5.421485 0.60752,-1.048134 5.52452,0.13535 6.39167,1.538426 0.72498,1.173038 2.87182,0.20782 2.87182,-1.291167 0,-0.531153 -1.13653,-1.397842 -2.52563,-1.925975 -1.38909,-0.528133 -2.79164,-1.65348 -3.11678,-2.500772 -0.45619,-1.188807 -0.90696,-1.278435 -1.97437,-0.392564 C 157.22792,39.831156 157,38.862827 157,32.995694 c 0,-6.980033 0.02,-7.031588 3.14922,-8.122445 3.96402,-1.381862 3.90008,-1.389867 3.21241,0.402175 -0.31659,0.825 -0.0775,1.5 0.53138,1.5 0.60885,0 1.10699,-0.638196 1.10699,-1.418213 0,-0.780016 0.3009,-2.202349 0.66867,-3.160739 0.55254,-1.439884 0.25763,-1.635038 -1.69796,-1.123639 -1.30165,0.340389 -2.96343,0.123597 -3.69284,-0.481761 -0.72941,-0.605357 -1.6398,-0.787056 -2.02308,-0.403776 -0.38328,0.383281 -0.0349,1.115515 0.77417,1.627188 1.2688,0.802411 1.25406,0.93242 -0.10721,0.945627 -2.17245,0.02108 -4.58763,-9.952963 -2.69492,-11.129305 0.70024,-0.43521 1.42317,-0.355711 1.6065,0.176664 0.18334,0.532375 0.95671,0.967954 1.71862,0.967954 0.7619,0 1.15414,-0.602338 0.87164,-1.338529 -0.57208,-1.4908052 16.20861,-9.7266932 18.24391,-8.9540306 0.86257,0.3274598 0.79387,1.337441 -0.26305,3.86701 -1.32859,3.1797425 -1.24481,3.8651096 1.17534,9.6151206 l 2.60589,6.191329 -2.66051,5.566448 c -2.16026,4.519779 -2.47177,6.062904 -1.65669,8.206727 0.55211,1.452154 0.72791,2.916199 0.39068,3.253435 -0.33724,0.337235 0.15433,1.174354 1.09237,1.860265 2.03335,1.486824 2.72284,7.113681 0.89847,7.33238 -2.55139,0.305851 -2.72157,0.448515 -1.47713,1.238307 1.01377,0.643403 0.94583,1.590528 -0.33379,4.653093 -1.23766,2.962132 -1.35774,4.39155 -0.52286,6.223904 0.59608,1.308256 1.08378,2.582473 1.08378,2.831594 0,0.753379 -2.40265,0.395735 -4,-0.595415 z m -4,-4.392621 c 0,-1.055475 -1.91911,-1.498911 -2.48992,-0.575329 -0.34546,0.558972 0.0734,1.016312 0.9309,1.016312 0.85746,0 1.55902,-0.198442 1.55902,-0.440983 z m -6,-5.118034 c 0,-0.857459 -0.45,-1.280902 -1,-0.940983 -0.55,0.339919 -1,1.041476 -1,1.559017 0,0.517541 0.45,0.940983 1,0.940983 0.55,0 1,-0.701558 1,-1.559017 z m 10.36383,0.06476 c -0.31537,-0.82184 -0.97625,-1.245283 -1.46861,-0.940982 -1.41193,0.872616 -1.04399,2.435239 0.5734,2.435239 0.89208,0 1.24351,-0.586597 0.89521,-1.494257 z M 160.5,48.775424 c -0.33992,-0.55 -1.04148,-1 -1.55902,-1 -0.51754,0 -0.94098,0.45 -0.94098,1 0,0.55 0.70156,1 1.55902,1 0.85746,0 1.2809,-0.45 0.94098,-1 z m 10.5,0.559017 c 0,-1.055475 -1.91911,-1.498911 -2.48992,-0.575329 -0.34546,0.558972 0.0734,1.016312 0.9309,1.016312 0.85746,0 1.55902,-0.198442 1.55902,-0.440983 z m 4,-5.118034 c 0,-0.857459 -0.45,-1.280902 -1,-0.940983 -0.55,0.339919 -1,1.041476 -1,1.559017 0,0.517541 0.45,0.940983 1,0.940983 0.55,0 1,-0.701558 1,-1.559017 z m -4.63617,-4.935239 c -0.31537,-0.821841 -0.97625,-1.245284 -1.46861,-0.940983 -1.41193,0.872616 -1.04399,2.435239 0.5734,2.435239 0.89208,0 1.24351,-0.586597 0.89521,-1.494256 z M 165,34.775424 c 0,-0.55 -0.45,-1 -1,-1 -0.55,0 -1,0.45 -1,1 0,0.55 0.45,1 1,1 0.55,0 1,-0.45 1,-1 z m 11,0.559017 c 0,-1.055475 -1.91911,-1.498911 -2.48992,-0.575329 -0.34546,0.558972 0.0734,1.016312 0.9309,1.016312 0.85746,0 1.55902,-0.198442 1.55902,-0.440983 z m -15,-5 c 0,-1.055475 -1.91911,-1.498911 -2.48992,-0.575329 -0.34546,0.558972 0.0734,1.016312 0.9309,1.016312 0.85746,0 1.55902,-0.198442 1.55902,-0.440983 z m 10,0 c 0,-1.055475 -1.91911,-1.498911 -2.48992,-0.575329 -0.34546,0.558972 0.0734,1.016312 0.9309,1.016312 0.85746,0 1.55902,-0.198442 1.55902,-0.440983 z m 4.36383,-5.053273 c -0.31537,-0.821841 -0.97625,-1.245284 -1.46861,-0.940983 -1.41193,0.872616 -1.04399,2.435239 0.5734,2.435239 0.89208,0 1.24351,-0.586597 0.89521,-1.494256 z M 171,21.334441 c 0,-1.055475 -1.91911,-1.498911 -2.48992,-0.575329 -0.34546,0.558972 0.0734,1.016312 0.9309,1.016312 0.85746,0 1.55902,-0.198442 1.55902,-0.440983 z m 10,0 c 0,-1.055475 -1.91911,-1.498911 -2.48992,-0.575329 -0.34546,0.558972 0.0734,1.016312 0.9309,1.016312 0.85746,0 1.55902,-0.198442 1.55902,-0.440983 z m -16,-5.559017 c 0,-0.55 -0.19844,-1 -0.44098,-1 -0.24254,0 -0.7191,0.45 -1.05902,1 -0.33992,0.55 -0.14148,1 0.44098,1 0.58246,0 1.05902,-0.45 1.05902,-1 z m 11,0.559017 c 0,-1.055475 -1.91911,-1.498911 -2.48992,-0.575329 -0.34546,0.558972 0.0734,1.016312 0.9309,1.016312 0.85746,0 1.55902,-0.198442 1.55902,-0.440983 z m -5.63617,-5.053273 c -0.31537,-0.821842 -0.97625,-1.245284 -1.46861,-0.940984 -1.41193,0.872617 -1.04399,2.43524 0.5734,2.43524 0.89208,0 1.24351,-0.586597 0.89521,-1.494256 z M 175.5,6.7754237 c -0.33992,-0.55 -1.04148,-1 -1.55902,-1 -0.51754,0 -0.94098,0.45 -0.94098,1 0,0.55 0.70156,1 1.55902,1 0.85746,0 1.2809,-0.45 0.94098,-1 z M 37.208463,59.184514 c -3.482337,-2.087022 -4.167667,-2.962268 -3.6346,-4.641811 0.5132,-1.616952 0.30927,-1.936411 -0.932053,-1.46007 -1.228443,0.471398 -1.935335,-0.556523 -3.115399,-4.53023 -1.793869,-6.04061 -1.903545,-7.776979 -0.491227,-7.776979 0.675947,0 0.710227,-0.607297 0.09878,-1.75 -1.316064,-2.459534 -1.267194,-17.25 0.057,-17.25 0.682673,0 0.64095,-0.497609 -0.118445,-1.412623 -0.906436,-1.092189 -0.812141,-2.274779 0.415694,-5.213402 2.034685,-4.869688 4.111863,-7.1274904 8.721952,-9.480385 3.490102,-1.7812763 6.593695,-1.8935903 52.325909,-1.8935903 26.738656,0 49.676626,0.2662647 50.973266,0.5916992 1.6349,0.4103345 2.17145,1.0765786 1.75048,2.1736088 -0.46206,1.2040957 -0.17705,1.4169082 1.19332,0.8910477 2.38286,-0.9143884 4.74538,1.1428025 4.00205,3.4848276 -0.32448,1.022349 -0.10964,1.858817 0.47742,1.858817 0.58707,0 1.06739,-0.550128 1.06739,-1.222506 0,-0.672379 0.7735,-0.118186 1.71888,1.23154 1.13026,1.613678 1.72954,4.429016 1.75,8.22136 0.0171,3.172022 0.36862,5.767829 0.78112,5.768459 0.4125,6.31e-4 0.75,1.576147 0.75,3.501147 0,1.925 -0.3375,3.501184 -0.75,3.502632 -0.4125,0.0014 -0.80357,3.638905 -0.86904,8.083238 -0.10601,7.19541 -0.43465,8.525722 -3,12.143906 -5.71305,8.057675 -3.52346,7.771433 -59.365355,7.760764 L 41.5,61.756503 Z M 79.457295,58.844522 C 79.773726,58.332526 79.575283,57.630969 79.016312,57.285505 78.45734,56.940042 78,57.358948 78,58.216407 c 0,1.756526 0.600055,2.015159 1.457295,0.628115 z M 40,58.334441 c 0,-1.055475 -1.919113,-1.498911 -2.489919,-0.575329 -0.345463,0.558972 0.07344,1.016312 0.930902,1.016312 C 39.298442,58.775424 40,58.576982 40,58.334441 Z m 10,0 c 0,-1.055475 -1.919113,-1.498911 -2.489919,-0.575329 -0.345463,0.558972 0.07344,1.016312 0.930902,1.016312 C 49.298442,58.775424 50,58.576982 50,58.334441 Z m 10,0 c 0,-1.055475 -1.919113,-1.498911 -2.489919,-0.575329 -0.345463,0.558972 0.07344,1.016312 0.930902,1.016312 C 59.298442,58.775424 60,58.576982 60,58.334441 Z m 10,0 c 0,-1.055475 -1.919113,-1.498911 -2.489919,-0.575329 -0.345463,0.558972 0.07344,1.016312 0.930902,1.016312 C 69.298442,58.775424 70,58.576982 70,58.334441 Z m 20,0 c 0,-1.055475 -1.919113,-1.498911 -2.489919,-0.575329 -0.345463,0.558972 0.07344,1.016312 0.930902,1.016312 C 89.298442,58.775424 90,58.576982 90,58.334441 Z m 10,0 c 0,-1.055475 -1.919113,-1.498911 -2.489919,-0.575329 -0.345463,0.558972 0.07344,1.016312 0.930902,1.016312 0.857459,0 1.559017,-0.198442 1.559017,-0.440983 z m 10,0 c 0,-1.055475 -1.91911,-1.498911 -2.48992,-0.575329 -0.34546,0.558972 0.0734,1.016312 0.9309,1.016312 0.85746,0 1.55902,-0.198442 1.55902,-0.440983 z m 10,0 c 0,-0.242541 -0.45,-0.719098 -1,-1.059017 -0.55,-0.339919 -1,-0.141476 -1,0.440983 0,0.582459 0.45,1.059017 1,1.059017 0.55,0 1,-0.198442 1,-0.440983 z m 10,-0.559017 c 0,-0.55 -0.45,-1 -1,-1 -0.55,0 -1,0.45 -1,1 0,0.55 0.45,1 1,1 0.55,0 1,-0.45 1,-1 z m 10,0 c 0,-0.55 -0.45,-1 -1,-1 -0.55,0 -1,0.45 -1,1 0,0.55 0.45,1 1,1 0.55,0 1,-0.45 1,-1 z M 44.36383,53.281168 c -0.31537,-0.821841 -0.976246,-1.245284 -1.468615,-0.940983 -1.411923,0.872616 -1.043989,2.435239 0.5734,2.435239 0.892084,0 1.243517,-0.586597 0.895215,-1.494256 z m 10,0 c -0.31537,-0.821841 -0.976246,-1.245284 -1.468615,-0.940983 -1.411923,0.872616 -1.043989,2.435239 0.5734,2.435239 0.892084,0 1.243517,-0.586597 0.895215,-1.494256 z m 9.997796,-0.0057 c -0.316582,-0.825 -0.704314,-1.5 -0.861626,-1.5 -0.157312,0 -0.545044,0.675 -0.861626,1.5 -0.347108,0.904548 -0.0051,1.5 0.861626,1.5 0.866695,0 1.208734,-0.595452 0.861626,-1.5 z M 75,53.834441 c 0,-1.676423 -1.773544,-2.091535 -2.36383,-0.553273 -0.348302,0.907659 0.0031,1.494256 0.895215,1.494256 C 74.339123,54.775424 75,54.351982 75,53.834441 Z m 9.36383,-0.553273 c -0.31537,-0.821841 -0.976246,-1.245284 -1.468615,-0.940983 -1.411923,0.872616 -1.043989,2.435239 0.5734,2.435239 0.892084,0 1.243517,-0.586597 0.895215,-1.494256 z m 10,0 c -0.31537,-0.821841 -0.976246,-1.245284 -1.468615,-0.940983 -1.411923,0.872616 -1.043989,2.435239 0.5734,2.435239 0.892084,0 1.243517,-0.586597 0.895215,-1.494256 z m 9.9978,-0.0057 c -0.31659,-0.825 -0.70432,-1.5 -0.86163,-1.5 -0.15731,0 -0.54504,0.675 -0.86163,1.5 -0.3471,0.904548 -0.005,1.5 0.86163,1.5 0.8667,0 1.20873,-0.595452 0.86163,-1.5 z M 115,53.834441 c 0,-1.676423 -1.77354,-2.091535 -2.36383,-0.553273 -0.3483,0.907659 0.003,1.494256 0.89521,1.494256 0.80774,0 1.46862,-0.423442 1.46862,-0.940983 z m 10,0 c 0,-1.676423 -1.77354,-2.091535 -2.36383,-0.553273 -0.3483,0.907659 0.003,1.494256 0.89521,1.494256 0.80774,0 1.46862,-0.423442 1.46862,-0.940983 z m 10,-0.05902 c 0,-0.55 -0.45,-1 -1,-1 -0.55,0 -1,0.45 -1,1 0,0.55 0.45,1 1,1 0.55,0 1,-0.45 1,-1 z m 10,0 c 0,-0.55 -0.45,-1 -1,-1 -0.55,0 -1,0.45 -1,1 0,0.55 0.45,1 1,1 0.55,0 1,-0.45 1,-1 z M 40,49.334441 c 0,-1.055475 -1.919113,-1.498911 -2.489919,-0.575329 -0.345463,0.558972 0.07344,1.016312 0.930902,1.016312 C 39.298442,49.775424 40,49.576982 40,49.334441 Z m 10,0 c 0,-1.055475 -1.919113,-1.498911 -2.489919,-0.575329 -0.345463,0.558972 0.07344,1.016312 0.930902,1.016312 C 49.298442,49.775424 50,49.576982 50,49.334441 Z m 10,0 c 0,-1.055475 -1.919113,-1.498911 -2.489919,-0.575329 -0.345463,0.558972 0.07344,1.016312 0.930902,1.016312 C 59.298442,49.775424 60,49.576982 60,49.334441 Z m 10,-0.559017 c 0,-0.55 -0.423442,-1 -0.940983,-1 -0.517541,0 -1.219098,0.45 -1.559017,1 -0.339919,0.55 0.08352,1 0.940983,1 0.857459,0 1.559017,-0.45 1.559017,-1 z m 10,0.559017 c 0,-1.055475 -1.919113,-1.498911 -2.489919,-0.575329 -0.345463,0.558972 0.07344,1.016312 0.930902,1.016312 C 79.298442,49.775424 80,49.576982 80,49.334441 Z m 10,0 c 0,-1.055475 -1.919113,-1.498911 -2.489919,-0.575329 -0.345463,0.558972 0.07344,1.016312 0.930902,1.016312 C 89.298442,49.775424 90,49.576982 90,49.334441 Z m 10,0 c 0,-1.055475 -1.919113,-1.498911 -2.489919,-0.575329 -0.345463,0.558972 0.07344,1.016312 0.930902,1.016312 0.857459,0 1.559017,-0.198442 1.559017,-0.440983 z m 10,-0.559017 c 0,-0.55 -0.42344,-1 -0.94098,-1 -0.51754,0 -1.2191,0.45 -1.55902,1 -0.33992,0.55 0.0835,1 0.94098,1 0.85746,0 1.55902,-0.45 1.55902,-1 z m 10,0 c 0,-0.55 -0.42344,-1 -0.94098,-1 -0.51754,0 -1.2191,0.45 -1.55902,1 -0.33992,0.55 0.0835,1 0.94098,1 0.85746,0 1.55902,-0.45 1.55902,-1 z m 10,0 c 0,-0.55 -0.45,-1 -1,-1 -0.55,0 -1,0.45 -1,1 0,0.55 0.45,1 1,1 0.55,0 1,-0.45 1,-1 z m 10,0 c 0,-0.55 -0.45,-1 -1,-1 -0.55,0 -1,0.45 -1,1 0,0.55 0.45,1 1,1 0.55,0 1,-0.45 1,-1 z m 10,0 c 0,-0.55 -0.45,-1 -1,-1 -0.55,0 -1,0.45 -1,1 0,0.55 0.45,1 1,1 0.55,0 1,-0.45 1,-1 z M 34,44.216407 c 0,-0.857459 -0.45,-1.280902 -1,-0.940983 -0.55,0.339919 -1,1.041476 -1,1.559017 0,0.517541 0.45,0.940983 1,0.940983 0.55,0 1,-0.701558 1,-1.559017 z m 10,0 c 0,-0.857459 -0.45,-1.280902 -1,-0.940983 -0.55,0.339919 -1,1.041476 -1,1.559017 0,0.517541 0.45,0.940983 1,0.940983 0.55,0 1,-0.701558 1,-1.559017 z m 10,0.309017 c 0,-1.171088 -1.456754,-0.879737 -1.875,0.375 -0.20625,0.61875 0.13125,0.95625 0.75,0.75 0.61875,-0.20625 1.125,-0.7125 1.125,-1.125 z m 10,0 c 0,-1.171088 -1.456754,-0.879737 -1.875,0.375 -0.20625,0.61875 0.13125,0.95625 0.75,0.75 0.61875,-0.20625 1.125,-0.7125 1.125,-1.125 z m 11,0.309017 c 0,-1.357254 -1.764533,-2.249028 -2.403715,-1.214809 -0.597651,0.967019 0.268308,2.155792 1.570382,2.155792 C 74.625,45.775424 75,45.351982 75,44.834441 Z m 9,-0.618034 c 0,-0.857459 -0.45,-1.280902 -1,-0.940983 -0.55,0.339919 -1,1.041476 -1,1.559017 0,0.517541 0.45,0.940983 1,0.940983 0.55,0 1,-0.701558 1,-1.559017 z m 10,0.309017 c 0,-1.171088 -1.456754,-0.879737 -1.875,0.375 -0.20625,0.61875 0.13125,0.95625 0.75,0.75 0.61875,-0.20625 1.125,-0.7125 1.125,-1.125 z m 10.83333,0.25 c -0.18333,-0.55 -0.78333,-1 -1.33333,-1 -0.55,0 -1.15,0.45 -1.33333,1 -0.18334,0.55 0.41666,1 1.33333,1 0.91667,0 1.51667,-0.45 1.33333,-1 z M 115,44.834441 c 0,-1.357254 -1.76453,-2.249028 -2.40372,-1.214809 -0.59765,0.967019 0.26831,2.155792 1.57039,2.155792 0.45833,0 0.83333,-0.423442 0.83333,-0.940983 z m 10,0 c 0,-0.517541 -0.45,-1.219098 -1,-1.559017 -0.55,-0.339919 -1,0.08352 -1,0.940983 0,0.857459 0.45,1.559017 1,1.559017 0.55,0 1,-0.423442 1,-0.940983 z m 10,0 c 0,-0.517541 -0.45,-1.219098 -1,-1.559017 -0.55,-0.339919 -1,0.08352 -1,0.940983 0,0.857459 0.45,1.559017 1,1.559017 0.55,0 1,-0.423442 1,-0.940983 z m 10,-0.559017 c 0,-0.825 -0.45,-1.5 -1,-1.5 -0.55,0 -1,0.675 -1,1.5 0,0.825 0.45,1.5 1,1.5 0.55,0 1,-0.675 1,-1.5 z M 39.36383,39.281168 c -0.31537,-0.821841 -0.976246,-1.245284 -1.468615,-0.940983 -1.411923,0.872616 -1.043989,2.435239 0.5734,2.435239 0.892084,0 1.243517,-0.586597 0.895215,-1.494256 z m 10,0 c -0.31537,-0.821841 -0.976246,-1.245284 -1.468615,-0.940983 -1.411923,0.872616 -1.043989,2.435239 0.5734,2.435239 0.892084,0 1.243517,-0.586597 0.895215,-1.494256 z M 60,39.834441 c 0,-1.676423 -1.773544,-2.091535 -2.36383,-0.553273 -0.348302,0.907659 0.0031,1.494256 0.895215,1.494256 C 59.339123,40.775424 60,40.351982 60,39.834441 Z m 10,0 c 0,-1.676423 -1.773544,-2.091535 -2.36383,-0.553273 -0.348302,0.907659 0.0031,1.494256 0.895215,1.494256 C 69.339123,40.775424 70,40.351982 70,39.834441 Z m 9.361626,-0.559017 c -0.316582,-0.825 -0.704314,-1.5 -0.861626,-1.5 -0.157312,0 -0.545044,0.675 -0.861626,1.5 -0.347108,0.904548 -0.0051,1.5 0.861626,1.5 0.866695,0 1.208734,-0.595452 0.861626,-1.5 z m 10.471707,0.5 c -0.183333,-0.55 -0.783333,-1 -1.333333,-1 -0.55,0 -1.15,0.45 -1.333333,1 -0.183334,0.55 0.416666,1 1.333333,1 0.916667,0 1.516667,-0.45 1.333333,-1 z M 100,39.834441 c 0,-1.676423 -1.773544,-2.091535 -2.36383,-0.553273 -0.348302,0.907659 0.0031,1.494256 0.895215,1.494256 0.807738,0 1.468615,-0.423442 1.468615,-0.940983 z m 10,0 c 0,-1.676423 -1.77354,-2.091535 -2.36383,-0.553273 -0.3483,0.907659 0.003,1.494256 0.89521,1.494256 0.80774,0 1.46862,-0.423442 1.46862,-0.940983 z m 10,0 c 0,-1.676423 -1.77354,-2.091535 -2.36383,-0.553273 -0.3483,0.907659 0.003,1.494256 0.89521,1.494256 0.80774,0 1.46862,-0.423442 1.46862,-0.940983 z m 10,-0.05902 c 0,-0.55 -0.45,-1 -1,-1 -0.55,0 -1,0.45 -1,1 0,0.55 0.45,1 1,1 0.55,0 1,-0.45 1,-1 z m 10,0 c 0,-0.55 -0.45,-1 -1,-1 -0.55,0 -1,0.45 -1,1 0,0.55 0.45,1 1,1 0.55,0 1,-0.45 1,-1 z m 10.36383,-0.494256 c -0.31537,-0.821841 -0.97625,-1.245284 -1.46861,-0.940983 -1.41193,0.872616 -1.04399,2.435239 0.5734,2.435239 0.89208,0 1.24351,-0.586597 0.89521,-1.494256 z M 34,34.775424 c 0,-0.55 -0.45,-1 -1,-1 -0.55,0 -1,0.45 -1,1 0,0.55 0.45,1 1,1 0.55,0 1,-0.45 1,-1 z m 10.5,0 c -0.339919,-0.55 -1.041476,-1 -1.559017,-1 -0.517541,0 -0.940983,0.45 -0.940983,1 0,0.55 0.701558,1 1.559017,1 0.857459,0 1.280902,-0.45 0.940983,-1 z M 55,35.334441 c 0,-1.055475 -1.919113,-1.498911 -2.489919,-0.575329 -0.345463,0.558972 0.07344,1.016312 0.930902,1.016312 C 54.298442,35.775424 55,35.576982 55,35.334441 Z m 10,0 c 0,-1.055475 -1.919113,-1.498911 -2.489919,-0.575329 -0.345463,0.558972 0.07344,1.016312 0.930902,1.016312 C 64.298442,35.775424 65,35.576982 65,35.334441 Z m 10,0 c 0,-1.055475 -1.919113,-1.498911 -2.489919,-0.575329 -0.345463,0.558972 0.07344,1.016312 0.930902,1.016312 C 74.298442,35.775424 75,35.576982 75,35.334441 Z m 9.5,-0.559017 c -0.339919,-0.55 -1.041476,-1 -1.559017,-1 -0.517541,0 -0.940983,0.45 -0.940983,1 0,0.55 0.701558,1 1.559017,1 0.857459,0 1.280902,-0.45 0.940983,-1 z M 95,35.334441 c 0,-1.055475 -1.919113,-1.498911 -2.489919,-0.575329 -0.345463,0.558972 0.07344,1.016312 0.930902,1.016312 C 94.298442,35.775424 95,35.576982 95,35.334441 Z m 10,0 c 0,-1.055475 -1.91911,-1.498911 -2.48992,-0.575329 -0.34546,0.558972 0.0734,1.016312 0.9309,1.016312 0.85746,0 1.55902,-0.198442 1.55902,-0.440983 z m 10,0 c 0,-1.055475 -1.91911,-1.498911 -2.48992,-0.575329 -0.34546,0.558972 0.0734,1.016312 0.9309,1.016312 0.85746,0 1.55902,-0.198442 1.55902,-0.440983 z m 10,-0.559017 c 0,-0.55 -0.42344,-1 -0.94098,-1 -0.51754,0 -1.2191,0.45 -1.55902,1 -0.33992,0.55 0.0835,1 0.94098,1 0.85746,0 1.55902,-0.45 1.55902,-1 z m 10,0 c 0,-0.55 -0.42344,-1 -0.94098,-1 -0.51754,0 -1.2191,0.45 -1.55902,1 -0.33992,0.55 0.0835,1 0.94098,1 0.85746,0 1.55902,-0.45 1.55902,-1 z m 10,0 c 0,-0.55 -0.45,-1 -1,-1 -0.55,0 -1,0.45 -1,1 0,0.55 0.45,1 1,1 0.55,0 1,-0.45 1,-1 z M 79.457295,30.844522 C 79.773726,30.332526 79.575283,29.630969 79.016312,29.285505 78.45734,28.940042 78,29.358948 78,30.216407 c 0,1.756526 0.600055,2.015159 1.457295,0.628115 z M 40,30.334441 c 0,-1.055475 -1.919113,-1.498911 -2.489919,-0.575329 -0.345463,0.558972 0.07344,1.016312 0.930902,1.016312 C 39.298442,30.775424 40,30.576982 40,30.334441 Z m 10,0 c 0,-1.055475 -1.919113,-1.498911 -2.489919,-0.575329 -0.345463,0.558972 0.07344,1.016312 0.930902,1.016312 C 49.298442,30.775424 50,30.576982 50,30.334441 Z m 10,0 c 0,-1.055475 -1.919113,-1.498911 -2.489919,-0.575329 -0.345463,0.558972 0.07344,1.016312 0.930902,1.016312 C 59.298442,30.775424 60,30.576982 60,30.334441 Z m 10,0 c 0,-1.055475 -1.919113,-1.498911 -2.489919,-0.575329 -0.345463,0.558972 0.07344,1.016312 0.930902,1.016312 C 69.298442,30.775424 70,30.576982 70,30.334441 Z m 20,0 c 0,-1.055475 -1.919113,-1.498911 -2.489919,-0.575329 -0.345463,0.558972 0.07344,1.016312 0.930902,1.016312 C 89.298442,30.775424 90,30.576982 90,30.334441 Z m 10,0 c 0,-1.055475 -1.919113,-1.498911 -2.489919,-0.575329 -0.345463,0.558972 0.07344,1.016312 0.930902,1.016312 0.857459,0 1.559017,-0.198442 1.559017,-0.440983 z m 10,0 c 0,-1.055475 -1.91911,-1.498911 -2.48992,-0.575329 -0.34546,0.558972 0.0734,1.016312 0.9309,1.016312 0.85746,0 1.55902,-0.198442 1.55902,-0.440983 z m 10,0 c 0,-0.242541 -0.45,-0.719098 -1,-1.059017 -0.55,-0.339919 -1,-0.141476 -1,0.440983 0,0.582459 0.45,1.059017 1,1.059017 0.55,0 1,-0.198442 1,-0.440983 z m 10,-0.559017 c 0,-0.55 -0.45,-1 -1,-1 -0.55,0 -1,0.45 -1,1 0,0.55 0.45,1 1,1 0.55,0 1,-0.45 1,-1 z m 10,0 c 0,-0.55 -0.45,-1 -1,-1 -0.55,0 -1,0.45 -1,1 0,0.55 0.45,1 1,1 0.55,0 1,-0.45 1,-1 z m 10,0 c 0,-0.55 -0.19844,-1 -0.44098,-1 -0.24254,0 -0.7191,0.45 -1.05902,1 -0.33992,0.55 -0.14148,1 0.44098,1 0.58246,0 1.05902,-0.45 1.05902,-1 z M 34,25.216407 c 0,-0.857459 -0.45,-1.280902 -1,-0.940983 -0.55,0.339919 -1,1.041476 -1,1.559017 0,0.517541 0.45,0.940983 1,0.940983 0.55,0 1,-0.701558 1,-1.559017 z m 10.36383,0.06476 c -0.31537,-0.82184 -0.976246,-1.245283 -1.468615,-0.940982 -1.411923,0.872616 -1.043989,2.435239 0.5734,2.435239 0.892084,0 1.243517,-0.586597 0.895215,-1.494257 z m 10,0 c -0.31537,-0.82184 -0.976246,-1.245283 -1.468615,-0.940982 -1.411923,0.872616 -1.043989,2.435239 0.5734,2.435239 0.892084,0 1.243517,-0.586597 0.895215,-1.494257 z m 10,0 c -0.31537,-0.82184 -0.976246,-1.245283 -1.468615,-0.940982 -1.411923,0.872616 -1.043989,2.435239 0.5734,2.435239 0.892084,0 1.243517,-0.586597 0.895215,-1.494257 z M 75,25.834441 c 0,-1.676423 -1.773544,-2.091535 -2.36383,-0.553273 -0.348302,0.907659 0.0031,1.494256 0.895215,1.494256 C 74.339123,26.775424 75,26.351982 75,25.834441 Z m 9.36383,-0.553273 c -0.31537,-0.821841 -0.976246,-1.245284 -1.468615,-0.940983 -1.411923,0.872616 -1.043989,2.435239 0.5734,2.435239 0.892084,0 1.243517,-0.586597 0.895215,-1.494256 z m 10,0 c -0.31537,-0.821841 -0.976246,-1.245284 -1.468615,-0.940983 -1.411923,0.872616 -1.043989,2.435239 0.5734,2.435239 0.892084,0 1.243517,-0.586597 0.895215,-1.494256 z m 10,0 c -0.31537,-0.821841 -0.97625,-1.245284 -1.46861,-0.940983 -1.41193,0.872616 -1.04399,2.435239 0.5734,2.435239 0.89208,0 1.24351,-0.586597 0.89521,-1.494256 z M 115,25.834441 c 0,-1.676423 -1.77354,-2.091535 -2.36383,-0.553273 -0.3483,0.907659 0.003,1.494256 0.89521,1.494256 0.80774,0 1.46862,-0.423442 1.46862,-0.940983 z m 10,0 c 0,-1.676423 -1.77354,-2.091535 -2.36383,-0.553273 -0.3483,0.907659 0.003,1.494256 0.89521,1.494256 0.80774,0 1.46862,-0.423442 1.46862,-0.940983 z m 10,0 c 0,-0.517541 -0.45,-1.219098 -1,-1.559017 -0.55,-0.339919 -1,0.08352 -1,0.940983 0,0.857459 0.45,1.559017 1,1.559017 0.55,0 1,-0.423442 1,-0.940983 z m 10,-0.05902 c 0,-0.55 -0.45,-1 -1,-1 -0.55,0 -1,0.45 -1,1 0,0.55 0.45,1 1,1 0.55,0 1,-0.45 1,-1 z m -105.5,-5 c -0.339919,-0.55 -1.041476,-1 -1.559017,-1 -0.517541,0 -0.940983,0.45 -0.940983,1 0,0.55 0.701558,1 1.559017,1 0.857459,0 1.280902,-0.45 0.940983,-1 z m 10.5,0.55902 c 0,-1.055475 -1.919113,-1.498911 -2.489919,-0.575329 -0.345463,0.558972 0.07344,1.016312 0.930902,1.016312 C 49.298442,21.775424 50,21.576982 50,21.334441 Z m 10,0 c 0,-1.055475 -1.919113,-1.498911 -2.489919,-0.575329 -0.345463,0.558972 0.07344,1.016312 0.930902,1.016312 C 59.298442,21.775424 60,21.576982 60,21.334441 Z m 10,-0.559017 c 0,-0.55 -0.423442,-1 -0.940983,-1 -0.517541,0 -1.219098,0.45 -1.559017,1 -0.339919,0.55 0.08352,1 0.940983,1 0.857459,0 1.559017,-0.45 1.559017,-1 z m 10,0.559017 c 0,-1.055475 -1.919113,-1.498911 -2.489919,-0.575329 -0.345463,0.558972 0.07344,1.016312 0.930902,1.016312 C 79.298442,21.775424 80,21.576982 80,21.334441 Z m 10,0 c 0,-1.055475 -1.919113,-1.498911 -2.489919,-0.575329 -0.345463,0.558972 0.07344,1.016312 0.930902,1.016312 C 89.298442,21.775424 90,21.576982 90,21.334441 Z m 10,0 c 0,-1.055475 -1.919113,-1.498911 -2.489919,-0.575329 -0.345463,0.558972 0.07344,1.016312 0.930902,1.016312 0.857459,0 1.559017,-0.198442 1.559017,-0.440983 z m 10,-0.559017 c 0,-0.55 -0.42344,-1 -0.94098,-1 -0.51754,0 -1.2191,0.45 -1.55902,1 -0.33992,0.55 0.0835,1 0.94098,1 0.85746,0 1.55902,-0.45 1.55902,-1 z m 10,0 c 0,-0.55 -0.42344,-1 -0.94098,-1 -0.51754,0 -1.2191,0.45 -1.55902,1 -0.33992,0.55 0.0835,1 0.94098,1 0.85746,0 1.55902,-0.45 1.55902,-1 z m 10,0 c 0,-0.55 -0.45,-1 -1,-1 -0.55,0 -1,0.45 -1,1 0,0.55 0.45,1 1,1 0.55,0 1,-0.45 1,-1 z m 10,0 c 0,-0.55 -0.45,-1 -1,-1 -0.55,0 -1,0.45 -1,1 0,0.55 0.45,1 1,1 0.55,0 1,-0.45 1,-1 z m 10.5,0 c -0.33992,-0.55 -1.04148,-1 -1.55902,-1 -0.51754,0 -0.94098,0.45 -0.94098,1 0,0.55 0.70156,1 1.55902,1 0.85746,0 1.2809,-0.45 0.94098,-1 z m -116.5,-5 c 0,-0.55 -0.45,-1 -1,-1 -0.55,0 -1,0.45 -1,1 0,0.55 0.45,1 1,1 0.55,0 1,-0.45 1,-1 z m 10,0 c 0,-0.55 -0.198442,-1 -0.440983,-1 -0.242541,0 -0.719098,0.45 -1.059017,1 -0.339919,0.55 -0.141476,1 0.440983,1 0.582459,0 1.059017,-0.45 1.059017,-1 z m 11,0.559017 c 0,-1.055475 -1.919113,-1.498911 -2.489919,-0.575329 -0.345463,0.558972 0.07344,1.016312 0.930902,1.016312 C 54.298442,16.775424 55,16.576982 55,16.334441 Z m 10,0 c 0,-1.055475 -1.919113,-1.498911 -2.489919,-0.575329 -0.345463,0.558972 0.07344,1.016312 0.930902,1.016312 C 64.298442,16.775424 65,16.576982 65,16.334441 Z m 10,0 c 0,-1.055475 -1.919113,-1.498911 -2.489919,-0.575329 -0.345463,0.558972 0.07344,1.016312 0.930902,1.016312 C 74.298442,16.775424 75,16.576982 75,16.334441 Z m 9,-0.559017 c 0,-0.55 -0.198442,-1 -0.440983,-1 -0.242541,0 -0.719098,0.45 -1.059017,1 -0.339919,0.55 -0.141476,1 0.440983,1 0.582459,0 1.059017,-0.45 1.059017,-1 z m 11,0.559017 c 0,-1.055475 -1.919113,-1.498911 -2.489919,-0.575329 -0.345463,0.558972 0.07344,1.016312 0.930902,1.016312 C 94.298442,16.775424 95,16.576982 95,16.334441 Z m 10,0 c 0,-1.055475 -1.91911,-1.498911 -2.48992,-0.575329 -0.34546,0.558972 0.0734,1.016312 0.9309,1.016312 0.85746,0 1.55902,-0.198442 1.55902,-0.440983 z m 10,0 c 0,-1.055475 -1.91911,-1.498911 -2.48992,-0.575329 -0.34546,0.558972 0.0734,1.016312 0.9309,1.016312 0.85746,0 1.55902,-0.198442 1.55902,-0.440983 z m 10,0 c 0,-0.242541 -0.45,-0.719098 -1,-1.059017 -0.55,-0.339919 -1,-0.141476 -1,0.440983 0,0.582459 0.45,1.059017 1,1.059017 0.55,0 1,-0.198442 1,-0.440983 z m 10,0 c 0,-0.242541 -0.45,-0.719098 -1,-1.059017 -0.55,-0.339919 -1,-0.141476 -1,0.440983 0,0.582459 0.45,1.059017 1,1.059017 0.55,0 1,-0.198442 1,-0.440983 z m 10,-0.559017 c 0,-0.55 -0.45,-1 -1,-1 -0.55,0 -1,0.45 -1,1 0,0.55 0.45,1 1,1 0.55,0 1,-0.45 1,-1 z M 39.36383,11.281168 c -0.31537,-0.821842 -0.976246,-1.245284 -1.468615,-0.940984 -1.411923,0.872617 -1.043989,2.43524 0.5734,2.43524 0.892084,0 1.243517,-0.586597 0.895215,-1.494256 z m 10.469503,0.494256 c -0.183333,-0.55 -0.783333,-1 -1.333333,-1 -0.55,0 -1.15,0.45 -1.333333,1 -0.183334,0.55 0.416666,1 1.333333,1 0.916667,0 1.516667,-0.45 1.333333,-1 z M 60,11.834441 c 0,-1.676423 -1.773544,-2.0915352 -2.36383,-0.553273 -0.348302,0.907659 0.0031,1.494256 0.895215,1.494256 C 59.339123,12.775424 60,12.351982 60,11.834441 Z m 10,0 c 0,-1.676423 -1.773544,-2.0915352 -2.36383,-0.553273 -0.348302,0.907659 0.0031,1.494256 0.895215,1.494256 C 69.339123,12.775424 70,12.351982 70,11.834441 Z m 9.361626,-0.559017 C 79.045044,10.450424 78.657312,9.7754237 78.5,9.7754237 c -0.157312,0 -0.545044,0.6750003 -0.861626,1.5000003 -0.347108,0.904548 -0.0051,1.5 0.861626,1.5 0.866695,0 1.208734,-0.595452 0.861626,-1.5 z m 10.471707,0.5 c -0.183333,-0.55 -0.783333,-1 -1.333333,-1 -0.55,0 -1.15,0.45 -1.333333,1 -0.183334,0.55 0.416666,1 1.333333,1 0.916667,0 1.516667,-0.45 1.333333,-1 z m 10,0 c -0.183333,-0.55 -0.783333,-1 -1.333333,-1 -0.55,0 -1.15,0.45 -1.333333,1 -0.183334,0.55 0.416666,1 1.333333,1 0.916667,0 1.51667,-0.45 1.333333,-1 z M 110,11.834441 c 0,-1.676423 -1.77354,-2.0915352 -2.36383,-0.553273 -0.3483,0.907659 0.003,1.494256 0.89521,1.494256 0.80774,0 1.46862,-0.423442 1.46862,-0.940983 z m 10,0 c 0,-1.676423 -1.77354,-2.0915352 -2.36383,-0.553273 -0.3483,0.907659 0.003,1.494256 0.89521,1.494256 0.80774,0 1.46862,-0.423442 1.46862,-0.940983 z m 10,0 c 0,-0.517541 -0.45,-1.219099 -1,-1.559017 -0.55,-0.339919 -1,0.08352 -1,0.940983 0,0.857459 0.45,1.559017 1,1.559017 0.55,0 1,-0.423442 1,-0.940983 z m 10,-0.618034 c 0,-0.85746 -0.45,-1.280902 -1,-0.940983 -0.55,0.339918 -1,1.041476 -1,1.559017 0,0.517541 0.45,0.940983 1,0.940983 0.55,0 1,-0.701558 1,-1.559017 z M 44.5,6.7754237 c -0.339919,-0.55 -1.041476,-1 -1.559017,-1 -0.517541,0 -0.940983,0.45 -0.940983,1 0,0.55 0.701558,1 1.559017,1 0.857459,0 1.280902,-0.45 0.940983,-1 z M 55,7.3344407 C 55,6.2789659 53.080887,5.8355292 52.510081,6.7591118 52.164618,7.3180833 52.583524,7.7754237 53.440983,7.7754237 54.298442,7.7754237 55,7.5769813 55,7.3344407 Z m 10,0 C 65,6.2789659 63.080887,5.8355292 62.510081,6.7591118 62.164618,7.3180833 62.583524,7.7754237 63.440983,7.7754237 64.298442,7.7754237 65,7.5769813 65,7.3344407 Z m 10,0 C 75,6.2789659 73.080887,5.8355292 72.510081,6.7591118 72.164618,7.3180833 72.583524,7.7754237 73.440983,7.7754237 74.298442,7.7754237 75,7.5769813 75,7.3344407 Z m 9.5,-0.559017 c -0.339919,-0.55 -1.041476,-1 -1.559017,-1 -0.517541,0 -0.940983,0.45 -0.940983,1 0,0.55 0.701558,1 1.559017,1 0.857459,0 1.280902,-0.45 0.940983,-1 z M 95,7.3344407 C 95,6.2789659 93.080887,5.8355292 92.510081,6.7591118 92.164618,7.3180833 92.583524,7.7754237 93.440983,7.7754237 94.298442,7.7754237 95,7.5769813 95,7.3344407 Z m 10,0 c 0,-1.0554748 -1.91911,-1.4989115 -2.48992,-0.5753289 -0.34546,0.5589715 0.0734,1.0163119 0.9309,1.0163119 0.85746,0 1.55902,-0.1984424 1.55902,-0.440983 z m 10,0 c 0,-1.0554748 -1.91911,-1.4989115 -2.48992,-0.5753289 -0.34546,0.5589715 0.0734,1.0163119 0.9309,1.0163119 0.85746,0 1.55902,-0.1984424 1.55902,-0.440983 z m 10,-0.559017 c 0,-0.55 -0.42344,-1 -0.94098,-1 -0.51754,0 -1.2191,0.45 -1.55902,1 -0.33992,0.55 0.0835,1 0.94098,1 0.85746,0 1.55902,-0.45 1.55902,-1 z m 10,0 c 0,-0.55 -0.42344,-1 -0.94098,-1 -0.51754,0 -1.2191,0.45 -1.55902,1 -0.33992,0.55 0.0835,1 0.94098,1 0.85746,0 1.55902,-0.45 1.55902,-1 z"
       id="path150"
       inkscape:connector-curvature="0" />
  </g>
</svg>
