<?xml version="1.0" encoding="UTF-8" standalone="no"?>
<!-- Created with Inkscape (http://www.inkscape.org/) -->

<svg
   xmlns:dc="http://purl.org/dc/elements/1.1/"
   xmlns:cc="http://creativecommons.org/ns#"
   xmlns:rdf="http://www.w3.org/1999/02/22-rdf-syntax-ns#"
   xmlns:svg="http://www.w3.org/2000/svg"
   xmlns="http://www.w3.org/2000/svg"
   xmlns:sodipodi="http://sodipodi.sourceforge.net/DTD/sodipodi-0.dtd"
   xmlns:inkscape="http://www.inkscape.org/namespaces/inkscape"
   version="1.1"
   id="svg2"
   width="27.557783"
   height="62.589119"
   viewBox="0 0 27.557783 62.589119"
   sodipodi:docname="candy-button-bg-2-left.svg"
   inkscape:version="0.92.1 r15371">
  <metadata
     id="metadata8">
    <rdf:RDF>
      <cc:Work
         rdf:about="">
        <dc:format>image/svg+xml</dc:format>
        <dc:type
           rdf:resource="http://purl.org/dc/dcmitype/StillImage" />
        <dc:title></dc:title>
      </cc:Work>
    </rdf:RDF>
  </metadata>
  <defs
     id="defs6" />
  <sodipodi:namedview
     pagecolor="#ffffff"
     bordercolor="#666666"
     borderopacity="1"
     objecttolerance="10"
     gridtolerance="10"
     guidetolerance="10"
     inkscape:pageopacity="0"
     inkscape:pageshadow="2"
     inkscape:window-width="1920"
     inkscape:window-height="1001"
     id="namedview4"
     showgrid="false"
     fit-margin-top="0"
     fit-margin-left="0"
     fit-margin-right="0"
     fit-margin-bottom="0"
     inkscape:zoom="3.6475891"
     inkscape:cx="36.251758"
     inkscape:cy="27.023519"
     inkscape:window-x="-9"
     inkscape:window-y="41"
     inkscape:window-maximized="1"
     inkscape:current-layer="svg2"
     inkscape:snap-global="false" />
  <g
     id="g148"
     transform="matrix(1.004561,0,0,1,0.23699661,-1.2088009)">
    <path
       style="fill:#886161"
       d="M 3.7282973,59.764452 C 4.1354476,56.72892 3.6880296,54.663464 1.8885322,51.271378 -0.48903591,46.789618 -0.48907703,46.788913 1.3494306,42.03235 4.2558292,34.512953 4.366643,32.414428 2.0926825,27.957097 -0.50608541,22.863091 -0.51943461,21.214958 2,16.514239 4.3028194,12.217677 4.4785315,9.740775 2.8081999,5.1215551 2.1527099,3.3088296 1.8777976,1.5642927 2.1972839,1.2448065 2.5167701,0.92532031 8.4044884,3.2239104 15.281102,6.3527845 l 12.502935,5.6888625 -0.892019,3.110287 C 26.401408,16.862591 26,19.502691 26,21.018822 c 0,3.231726 0.340509,3.140843 -4.874273,1.300961 C 18.856577,21.51918 17,21.25668 17,21.73645 c 0,0.479769 1.824578,1.4805 4.054618,2.223847 l 4.054617,1.351539 0.232495,7.224501 0.232494,7.224501 -3.537112,1.128096 C 17.299271,42.399979 15.510296,44.22537 19.5,43.477692 c 1.65,-0.309214 3.726058,-0.843288 4.613462,-1.186831 1.257727,-0.486909 1.753687,0.214207 2.249465,3.179969 0.349802,2.092527 0.892418,4.735601 1.205812,5.873499 0.499328,1.812996 -0.807031,2.70977 -10.561298,7.25 -6.122109,2.849602 -11.7354622,5.181095 -12.4741178,5.181095 -0.9902096,0 -1.201685,-1.053658 -0.8050259,-4.010972 z M 180.08926,1.3305898 c -120.216787,42.2965562 -60.10839,21.1482782 0,0 z M 41.5,3.2754237 c -27.823947,41.0000003 -13.911974,20.5000003 0,0 z"
       id="path156"
       inkscape:connector-curvature="0"
       sodipodi:nodetypes="sssssssscssssscccsscscssscccc" />
    <path
       style="fill:#764a48"
       d="m 3,63.340524 c 0,-0.239196 0.4583861,-1.640548 1.0186358,-3.114116 0.8279503,-2.177674 0.5471547,-3.675845 -1.5,-8.003174 C 1.1333861,49.295056 0,46.475788 0,45.958192 0,45.440597 1.1482479,42.509006 2.551662,39.443546 L 5.1033239,33.869982 2.551662,28.476212 C -0.51811599,21.987234 -0.53002328,21.734679 2,16.775424 4.2596711,12.346103 4.5471491,8.0703911 2.8375594,4.3182506 2.1982171,2.9150471 1.8994698,1.5426206 2.1736765,1.2684138 2.4478832,0.99420714 8.0334815,3.2370343 14.586117,6.2524742 c 9.603347,4.4193388 11.90003,5.8744018 11.842454,7.5027838 -0.3386,9.57641 -0.240733,9.308073 -3.178571,8.715197 -1.5125,-0.305233 -3.598902,-0.88319 -4.63645,-1.28435 -1.344468,-0.519827 -1.758078,-0.344264 -1.439631,0.611076 0.24575,0.737251 1.994653,1.85944 3.88645,2.493753 3.418466,1.146201 3.442708,1.197399 3.939631,8.320456 l 0.5,7.167159 -3.9375,1.310937 c -5.674642,1.889296 -5.89691,3.891801 -0.243108,2.190256 l 4.432122,-1.333872 0.577043,4.209989 c 0.317374,2.315494 0.832071,4.874579 1.14377,5.686855 0.420119,1.094811 -2.34862,2.831195 -10.7028,6.712143 C 6.4980735,63.326477 3,64.542249 3,63.340524 Z M 179.86052,1.3026113 c -120.064294,42.3152087 -60.03215,21.1576037 0,0 z"
       id="path154"
       inkscape:connector-curvature="0"
       sodipodi:nodetypes="ssssscssssssssssscsscscsscc" />
    <path
       style="fill:#5e2420"
       d="M 3,63.322477 C 3,63.073356 3.5273607,61.712099 4.1719126,60.297462 5.1755465,58.094725 4.9432185,56.887228 2.5539523,51.888305 L -0.23592058,46.051216 2.541511,39.862275 5.3189425,33.673334 2.5666295,27.914829 -0.18568364,22.156324 2.409188,15.991184 C 4.9278196,10.007181 4.9562506,9.706556 3.3768503,5.7592461 2.4818851,3.522508 1.9587384,1.483352 2.214302,1.2277884 2.4698656,0.97222479 8.1658844,3.3268161 14.872122,6.4602136 L 27.06528,12.1573 26.405226,16.716362 c -0.36303,2.507484 -0.876811,4.933024 -1.141735,5.390089 -0.463606,0.799844 -3.177423,0.406703 -6.80704,-0.986112 -1.188389,-0.456028 -1.589581,-0.244304 -1.282532,0.676842 0.24575,0.737251 1.994653,1.861607 3.88645,2.498569 L 24.5,25.453863 v 7.397086 c 0,6.602294 -0.214893,7.438384 -2,7.781456 -4.27459,0.821515 -6.828006,2.215013 -5.85029,3.192729 0.633852,0.633852 2.354106,0.498014 4.912839,-0.387936 L 25.5,42.073873 l 1.131368,5.600775 c 0.660504,3.269791 0.752705,5.743454 0.221537,5.943597 -0.500406,0.188551 -5.425427,2.551051 -10.944491,5.25 C 6.8670047,63.289701 3,64.624066 3,63.322477 Z"
       id="path152"
       inkscape:connector-curvature="0"
       sodipodi:nodetypes="ssscccccsssscssssscsssscscss" />
    <path
       id="path150"
       transform="translate(-0.23592058,0.77542371)"
       style="fill:#480d0c"
       d="m 2.9902344,0.79296875 c -0.3022365,4.1656e-4 -0.502329,0.0762844 -0.5644532,0.24218745 -0.1709049,0.4564034 0.4192117,2.2432742 1.3125,3.9707032 1.0342948,2.0001055 1.3914439,4.1974082 0.984375,6.0507816 -0.3515724,1.600699 -0.4916891,3.122331 -0.3125,3.382812 0.1791893,0.26048 -0.428999,1.056402 -1.3515624,1.767578 C 1.413446,17.475225 0.87667439,19.513646 1.1367188,23.5 c 0.099041,1.518243 0.3376271,1.672526 0.9902343,0.642578 0.6987562,-1.10278 1.0082469,-1.113413 1.6601563,-0.05859 0.4638544,0.750533 0.3266547,1.45622 -0.3261719,1.673828 -0.7811009,0.260368 -0.6219266,1.438749 0.515625,3.824219 1.5692509,3.290754 1.5437671,3.651794 -0.5488281,7.958985 -2.73452078,5.628468 -2.76698199,9.292097 -0.1308594,14.349609 1.5248312,2.925453 1.885589,4.882454 1.3886719,7.53125 C 4.3163135,61.39005 4.2341599,63 4.5039062,63 5.441432,63 16.739415,57.667414 17.236328,56.990234 c 0.275,-0.374762 1.721757,-0.980412 3.214844,-1.345703 1.861796,-0.455497 2.534656,-1.132559 2.142578,-2.154297 C 22.279319,52.67084 22.481911,52 23.044922,52 c 0.56301,0 1.174088,0.436375 1.357422,0.96875 0.186089,0.540378 0.914763,0.605551 1.65039,0.148438 1.030172,-0.640144 1.109287,-2.10681 0.361328,-6.71875 -0.7478,-4.610974 -1.114867,-5.407114 -1.683593,-3.648438 -0.735189,2.273427 -2.494141,3.129047 -2.494141,1.212891 0,-0.570817 -1.0125,-0.908317 -2.25,-0.75 -4.038497,0.516657 -3.354041,-1.511544 1,-2.962891 l 4.25,-1.416016 v -6.886718 c 0,-5.709407 -0.256171,-6.785896 -1.5,-6.308594 -0.825,0.316582 -1.5,0.121446 -1.5,-0.433594 0,-0.55504 -1.35,-1.479494 -3,-2.054687 -2.957974,-1.031156 -3.837567,-2.515333 -2.121094,-3.576172 0.483196,-0.298631 2.333267,0.183298 4.111328,1.070312 3.553998,1.772968 4.949283,0.896792 5.007813,-3.144531 0.01593,-1.1 0.281626,-2.939947 0.589844,-4.087891 C 27.301231,11.635497 26.479848,10.934375 21.3125,8.6933594 17.973655,7.2453432 14.567117,6.319414 13.740234,6.6367188 c -0.903001,0.3465138 -1.503906,0.0093 -1.503906,-0.84375 0,-1.3722739 -7.1304385,-5.00291599 -9.2460936,-5.00000005 z M 18.625,9.3828125 c 0.358594,0.015883 0.611328,0.4154992 0.611328,1.0585935 0,0.857459 -0.45,1.558594 -1,1.558594 -0.55,0 -1,-0.423865 -1,-0.941406 0,-0.517541 0.45,-1.218676 1,-1.558594 0.1375,-0.08498 0.269141,-0.1224819 0.388672,-0.1171875 z M 8.2363281,10 c 0.55,0 1,0.45 1,1 0,0.55 -0.45,1 -1,1 -0.55,0 -1,-0.45 -1,-1 0,-0.55 0.45,-1 1,-1 z m 4.9999999,4 c 0.55,0 1,0.45 1,1 0,0.55 -0.45,1 -1,1 -0.55,0 -1,-0.45 -1,-1 0,-0.55 0.45,-1 1,-1 z m 10,0 c 0.55,0 1,0.45 1,1 0,0.55 -0.45,1 -1,1 -0.55,0 -1,-0.45 -1,-1 0,-0.55 0.45,-1 1,-1 z M 8.2363281,19 c 0.55,0 1,0.45 1,1 0,0.55 -0.45,1 -1,1 -0.55,0 -1,-0.45 -1,-1 0,-0.55 0.45,-1 1,-1 z m 4.6113279,4.382812 c 0.119531,-0.0053 0.251172,0.03221 0.388672,0.117188 0.55,0.339919 1,1.041053 1,1.558594 0,0.517541 -0.45,0.941406 -1,0.941406 -0.55,0 -1,-0.701135 -1,-1.558594 0,-0.643097 0.252734,-1.04271 0.611328,-1.058594 z M 8.2363281,28 c 0.55,0 1,0.45 1,1 0,0.55 -0.45,1 -1,1 -0.55,0 -1,-0.45 -1,-1 0,-0.55 0.45,-1 1,-1 z m 9.9999999,0 c 0.55,0 1,0.45 1,1 0,0.55 -0.45,1 -1,1 -0.55,0 -1,-0.45 -1,-1 0,-0.55 0.45,-1 1,-1 z m -5,5 c 0.55,0 1,0.45 1,1 0,0.55 -0.45,1 -1,1 -0.55,0 -1,-0.45 -1,-1 0,-0.55 0.45,-1 1,-1 z m 10,0 c 0.55,0 1,0.45 1,1 0,0.55 -0.45,1 -1,1 -0.55,0 -1,-0.45 -1,-1 0,-0.55 0.45,-1 1,-1 z M 18.625,37.382812 c 0.358594,0.01588 0.611328,0.4155 0.611328,1.058594 0,0.857459 -0.45,1.558594 -1,1.558594 -0.55,0 -1,-0.423865 -1,-0.941406 0,-0.517541 0.45,-1.218675 1,-1.558594 0.1375,-0.08498 0.269141,-0.122481 0.388672,-0.117188 z M 8.2363281,38 c 0.55,0 1,0.45 1,1 0,0.55 -0.45,1 -1,1 -0.55,0 -1,-0.45 -1,-1 0,-0.55 0.45,-1 1,-1 z m -5.3886719,4.382812 c 0.1195313,-0.0053 0.2511719,0.03221 0.3886719,0.117188 0.55,0.339919 1,1.041053 1,1.558594 0,0.517541 -0.45,0.941406 -1,0.941406 -0.55,0 -1,-0.701135 -1,-1.558594 0,-0.643097 0.2527344,-1.04271 0.6113281,-1.058594 z m 9.9999998,0 c 0.119531,-0.0053 0.251172,0.03221 0.388672,0.117188 0.55,0.339919 1,1.041053 1,1.558594 0,0.517541 -0.45,0.941406 -1,0.941406 -0.55,0 -1,-0.701135 -1,-1.558594 0,-0.643097 0.252734,-1.04271 0.611328,-1.058594 z M 8.2363281,47 c 0.55,0 1,0.45 1,1 0,0.55 -0.45,1 -1,1 -0.55,0 -1,-0.45 -1,-1 0,-0.55 0.45,-1 1,-1 z m 9.9999999,0 c 0.55,0 1,0.45 1,1 0,0.55 -0.45,1 -1,1 -0.55,0 -1,-0.45 -1,-1 0,-0.55 0.45,-1 1,-1 z m -5,5 c 0.55,0 1,0.45 1,1 0,0.55 -0.45,1 -1,1 -0.55,0 -1,-0.45 -1,-1 0,-0.55 0.45,-1 1,-1 z m -4.9999999,4 c 0.55,0 1,0.45 1,1 0,0.55 -0.45,1 -1,1 -0.55,0 -1,-0.45 -1,-1 0,-0.55 0.45,-1 1,-1 z"
       inkscape:connector-curvature="0"
       sodipodi:nodetypes="sssscsssccssscsssssccssssccsssssscssssssssscsssssssssssssssssssssccssscsssssssssssssssssssscsssccsssssccssscccssscssssssssssssssssssss" />
  </g>
</svg>
