<?xml version="1.0" encoding="UTF-8" standalone="no"?>
<!-- Created with Inkscape (http://www.inkscape.org/) -->

<svg
   xmlns:dc="http://purl.org/dc/elements/1.1/"
   xmlns:cc="http://creativecommons.org/ns#"
   xmlns:rdf="http://www.w3.org/1999/02/22-rdf-syntax-ns#"
   xmlns:svg="http://www.w3.org/2000/svg"
   xmlns="http://www.w3.org/2000/svg"
   xmlns:sodipodi="http://sodipodi.sourceforge.net/DTD/sodipodi-0.dtd"
   xmlns:inkscape="http://www.inkscape.org/namespaces/inkscape"
   version="1.1"
   id="svg2"
   width="1558"
   height="122"
   viewBox="0 0 1558 122"
   sodipodi:docname="text-wave.svg"
   inkscape:version="0.92.1 r15371">
  <metadata
     id="metadata8">
    <rdf:RDF>
      <cc:Work
         rdf:about="">
        <dc:format>image/svg+xml</dc:format>
        <dc:type
           rdf:resource="http://purl.org/dc/dcmitype/StillImage" />
        <dc:title></dc:title>
      </cc:Work>
    </rdf:RDF>
  </metadata>
  <defs
     id="defs6" />
  <sodipodi:namedview
     pagecolor="#ffffff"
     bordercolor="#666666"
     borderopacity="1"
     objecttolerance="10"
     gridtolerance="10"
     guidetolerance="10"
     inkscape:pageopacity="0"
     inkscape:pageshadow="2"
     inkscape:window-width="1920"
     inkscape:window-height="1001"
     id="namedview4"
     showgrid="false"
     fit-margin-top="0"
     fit-margin-left="0"
     fit-margin-right="0"
     fit-margin-bottom="0"
     inkscape:zoom="1.7137582"
     inkscape:cx="120.59143"
     inkscape:cy="43.566035"
     inkscape:window-x="-9"
     inkscape:window-y="41"
     inkscape:window-maximized="1"
     inkscape:current-layer="svg2" />
  <g
     id="g12">
    <path
       style="fill:#fdfaf9"
       d="m 1073.25,115.28375 c 1.5125,-0.22913 3.9875,-0.22913 5.5,0 1.5125,0.22912 0.275,0.41659 -2.75,0.41659 -3.025,0 -4.2625,-0.18747 -2.75,-0.41659 z m 52.5,-0.007 c 1.7875,-0.22182 4.7125,-0.22182 6.5,0 1.7875,0.22183 0.325,0.40333 -3.25,0.40333 -3.575,0 -5.0375,-0.1815 -3.25,-0.40333 z m -94,-0.93888 c 0.6875,-0.27741 1.8125,-0.27741 2.5,0 0.6875,0.27741 0.125,0.50439 -1.25,0.50439 -1.375,0 -1.9375,-0.22698 -1.25,-0.50439 z m 143.981,0.006 c 0.677,-0.27392 2.027,-0.29059 3,-0.037 0.9729,0.25354 0.419,0.47766 -1.231,0.49804 -1.65,0.0204 -2.4461,-0.18706 -1.769,-0.46099 z m -167.9185,-1.02717 c 0.7219,-0.28887 1.5844,-0.25335 1.9167,0.0789 0.3323,0.3323 -0.2584,0.56864 -1.3125,0.52522 -1.165,-0.048 -1.4019,-0.28494 -0.6042,-0.60416 z m 197,0 c 0.7219,-0.28887 1.5844,-0.25335 1.9167,0.0789 0.3323,0.3323 -0.2584,0.56864 -1.3125,0.52522 -1.165,-0.048 -1.4019,-0.28494 -0.6042,-0.60416 z m -936,-113.00000404 c 0.72187,-0.28887061 1.58438,-0.25334429 1.91667,0.0789474 0.33229,0.33229167 -0.25834,0.56864035 -1.3125,0.5252193 -1.16495,-0.0479839 -1.4019,-0.2849403 -0.60417,-0.6041667 z m 79,0 c 0.72187,-0.28887061 1.58438,-0.25334429 1.91667,0.0789474 0.33229,0.33229167 -0.25834,0.56864035 -1.3125,0.5252193 -1.16495,-0.0479839 -1.4019,-0.2849403 -0.60417,-0.6041667 z"
       id="path26"
       inkscape:connector-curvature="0" />
    <path
       style="fill:#fcf8f6"
       d="m 1065.7617,115.29274 c 1.2439,-0.23919 3.0439,-0.23011 4,0.0202 0.956,0.25029 -0.062,0.446 -2.2617,0.4349 -2.2,-0.0111 -2.9823,-0.21589 -1.7383,-0.45508 z m 71,0 c 1.2439,-0.23919 3.0439,-0.23011 4,0.0202 0.956,0.25029 -0.062,0.446 -2.2617,0.4349 -2.2,-0.0111 -2.9823,-0.21589 -1.7383,-0.45508 z m -107.9492,-0.97585 c 0.7219,-0.28887 1.5844,-0.25335 1.9167,0.0789 0.3323,0.3323 -0.2584,0.56864 -1.3125,0.52522 -1.165,-0.048 -1.4019,-0.28494 -0.6042,-0.60416 z m 152,0 c 0.7219,-0.28887 1.5844,-0.25335 1.9167,0.0789 0.3323,0.3323 -0.2584,0.56864 -1.3125,0.52522 -1.165,-0.048 -1.4019,-0.28494 -0.6042,-0.60416 z"
       id="path24"
       inkscape:connector-curvature="0" />
    <path
       style="fill:#fcf6f4"
       d="m 1059.731,115.34406 c 0.677,-0.27392 2.027,-0.29059 3,-0.037 0.9729,0.25354 0.419,0.47766 -1.231,0.49804 -1.65,0.0204 -2.4461,-0.18706 -1.769,-0.46099 z m 84.0307,-0.0513 c 1.2439,-0.23919 3.0439,-0.23011 4,0.0202 0.956,0.25029 -0.062,0.446 -2.2617,0.4349 -2.2,-0.0111 -2.9823,-0.21589 -1.7383,-0.45508 z m -117.9492,-0.97585 c 0.7219,-0.28887 1.5844,-0.25335 1.9167,0.0789 0.3323,0.3323 -0.2584,0.56864 -1.3125,0.52522 -1.165,-0.048 -1.4019,-0.28494 -0.6042,-0.60416 z m 158,0 c 0.7219,-0.28887 1.5844,-0.25335 1.9167,0.0789 0.3323,0.3323 -0.2584,0.56864 -1.3125,0.52522 -1.165,-0.048 -1.4019,-0.28494 -0.6042,-0.60416 z m 26,-1 c 0.7219,-0.28887 1.5844,-0.25335 1.9167,0.0789 0.3323,0.3323 -0.2584,0.56864 -1.3125,0.52522 -1.165,-0.048 -1.4019,-0.28494 -0.6042,-0.60416 z m -936,-113.00000404 c 0.72187,-0.28887061 1.58438,-0.25334429 1.91667,0.0789474 0.33229,0.33229167 -0.25834,0.56864035 -1.3125,0.5252193 -1.16495,-0.0479839 -1.4019,-0.2849403 -0.60417,-0.6041667 z M 341.75,0.3377193 c 0.6875,-0.27741228 1.8125,-0.27741228 2.5,0 0.6875,0.27741228 0.125,0.50438596 -1.25,0.50438596 -1.375,0 -1.9375,-0.22697368 -1.25,-0.50438596 z"
       id="path22"
       inkscape:connector-curvature="0" />
    <path
       style="fill:#fbf4f1"
       d="m 1054.25,115.31067 c 0.9625,-0.25152 2.5375,-0.25152 3.5,0 0.9625,0.25153 0.175,0.45733 -1.75,0.45733 -1.925,0 -2.7125,-0.2058 -1.75,-0.45733 z m 96,0 c 0.9625,-0.25152 2.5375,-0.25152 3.5,0 0.9625,0.25153 0.175,0.45733 -1.75,0.45733 -1.925,0 -2.7125,-0.2058 -1.75,-0.45733 z m -127.4375,-0.99378 c 0.7219,-0.28887 1.5844,-0.25335 1.9167,0.0789 0.3323,0.3323 -0.2584,0.56864 -1.3125,0.52522 -1.165,-0.048 -1.4019,-0.28494 -0.6042,-0.60416 z m 163.9375,0.0208 c 0.6875,-0.27741 1.8125,-0.27741 2.5,0 0.6875,0.27741 0.125,0.50439 -1.25,0.50439 -1.375,0 -1.9375,-0.22698 -1.25,-0.50439 z m -185.9375,-1.02083 c 0.7219,-0.28887 1.5844,-0.25335 1.9167,0.0789 0.3323,0.3323 -0.2584,0.56864 -1.3125,0.52522 -1.165,-0.048 -1.4019,-0.28494 -0.6042,-0.60416 z m 212,0 c 0.7219,-0.28887 1.5844,-0.25335 1.9167,0.0789 0.3323,0.3323 -0.2584,0.56864 -1.3125,0.52522 -1.165,-0.048 -1.4019,-0.28494 -0.6042,-0.60416 z m 20,-1 c 0.7219,-0.28887 1.5844,-0.25335 1.9167,0.0789 0.3323,0.3323 -0.2584,0.56864 -1.3125,0.52522 -1.165,-0.048 -1.4019,-0.28494 -0.6042,-0.60416 z m -871,-111.000004 c 0.72187,-0.2888706 1.58438,-0.2533443 1.91667,0.078947 0.33229,0.3322917 -0.25834,0.5686404 -1.3125,0.5252193 -1.16495,-0.047984 -1.4019,-0.2849403 -0.60417,-0.6041663 z M 276.75,0.3377193 c 0.6875,-0.27741228 1.8125,-0.27741228 2.5,0 0.6875,0.27741228 0.125,0.50438596 -1.25,0.50438596 -1.375,0 -1.9375,-0.22697368 -1.25,-0.50438596 z m 61,0 c 0.6875,-0.27741228 1.8125,-0.27741228 2.5,0 0.6875,0.27741228 0.125,0.50438596 -1.25,0.50438596 -1.375,0 -1.9375,-0.22697368 -1.25,-0.50438596 z"
       id="path20"
       inkscape:connector-curvature="0" />
    <path
       style="fill:#faf1ed"
       d="m 1048.731,115.34406 c 0.677,-0.27392 2.027,-0.29059 3,-0.037 0.9729,0.25354 0.419,0.47766 -1.231,0.49804 -1.65,0.0204 -2.4461,-0.18706 -1.769,-0.46099 z m 107.519,-0.0334 c 0.9625,-0.25152 2.5375,-0.25152 3.5,0 0.9625,0.25153 0.175,0.45733 -1.75,0.45733 -1.925,0 -2.7125,-0.2058 -1.75,-0.45733 z m -137.5,-0.97295 c 0.6875,-0.27741 1.8125,-0.27741 2.5,0 0.6875,0.27741 0.125,0.50439 -1.25,0.50439 -1.375,0 -1.9375,-0.22698 -1.25,-0.50439 z m 172,0 c 0.6875,-0.27741 1.8125,-0.27741 2.5,0 0.6875,0.27741 0.125,0.50439 -1.25,0.50439 -1.375,0 -1.9375,-0.22698 -1.25,-0.50439 z m -192.9375,-1.02083 c 0.72187,-0.28887 1.58438,-0.25335 1.91667,0.0789 0.33233,0.3323 -0.25834,0.56864 -1.3125,0.52522 -1.16495,-0.048 -1.4019,-0.28494 -0.60417,-0.60416 z m 218,0 c 0.7219,-0.28887 1.5844,-0.25335 1.9167,0.0789 0.3323,0.3323 -0.2584,0.56864 -1.3125,0.52522 -1.165,-0.048 -1.4019,-0.28494 -0.6042,-0.60416 z m -958,-112.000004 c 0.72187,-0.2888706 1.58438,-0.2533443 1.91667,0.078947 0.33229,0.3322917 -0.25834,0.5686404 -1.3125,0.5252193 -1.16495,-0.047984 -1.4019,-0.2849403 -0.60417,-0.6041663 z m 22.91847,-0.97282274 c 0.67703,-0.2739231 2.02703,-0.29059739 3,-0.037054 0.97297,0.25354341 0.41903,0.47766231 -1.23097,0.498042 -1.65,0.0203797 -2.44606,-0.18706492 -1.76903,-0.460988 z m 52,0 c 0.67703,-0.2739231 2.02703,-0.29059739 3,-0.037054 0.97297,0.25354341 0.41903,0.47766231 -1.23097,0.498042 -1.65,0.0203797 -2.44606,-0.18706492 -1.76903,-0.460988 z"
       id="path18"
       inkscape:connector-curvature="0" />
    <path
       style="fill:#f9eee9"
       d="m 1042.7617,115.29274 c 1.2439,-0.23919 3.0439,-0.23011 4,0.0202 0.956,0.25029 -0.062,0.446 -2.2617,0.4349 -2.2,-0.0111 -2.9823,-0.21589 -1.7383,-0.45508 z m 120,0 c 1.2439,-0.23919 3.0439,-0.23011 4,0.0202 0.956,0.25029 -0.062,0.446 -2.2617,0.4349 -2.2,-0.0111 -2.9823,-0.21589 -1.7383,-0.45508 z M 1014.75,114.33772 c 0.6875,-0.27741 1.8125,-0.27741 2.5,0 0.6875,0.27741 0.125,0.50439 -1.25,0.50439 -1.375,0 -1.9375,-0.22698 -1.25,-0.50439 z m 179.981,0.006 c 0.677,-0.27392 2.027,-0.29059 3,-0.037 0.9729,0.25354 0.419,0.47766 -1.231,0.49804 -1.65,0.0204 -2.4461,-0.18706 -1.769,-0.46099 z m -199.9185,-1.02717 c 0.72187,-0.28887 1.58438,-0.25335 1.91667,0.0789 0.33229,0.3323 -0.25834,0.56864 -1.3125,0.52522 -1.16495,-0.048 -1.4019,-0.28494 -0.60417,-0.60416 z m 224,0 c 0.7219,-0.28887 1.5844,-0.25335 1.9167,0.0789 0.3323,0.3323 -0.2584,0.56864 -1.3125,0.52522 -1.165,-0.048 -1.4019,-0.28494 -0.6042,-0.60416 z m -241,-1 c 0.72187,-0.28887 1.58438,-0.25335 1.91667,0.0789 0.33229,0.3323 -0.25834,0.56864 -1.3125,0.52522 -1.16495,-0.048 -1.4019,-0.28494 -0.60417,-0.60416 z m 259.9375,0.0208 c 0.6875,-0.27741 1.8125,-0.27741 2.5,0 0.6875,0.27741 0.125,0.50439 -1.25,0.50439 -1.375,0 -1.9375,-0.22698 -1.25,-0.50439 z m -274.9375,-1.02083 c 0.72187,-0.28887 1.58438,-0.25335 1.91667,0.0789 0.33229,0.3323 -0.25834,0.56864 -1.3125,0.52522 -1.16495,-0.048 -1.4019,-0.28494 -0.60417,-0.60416 z m 292,0 c 0.7219,-0.28887 1.5844,-0.25335 1.9167,0.0789 0.3323,0.3323 -0.2584,0.56864 -1.3125,0.52522 -1.165,-0.048 -1.4019,-0.28494 -0.6042,-0.60416 z m -318,-2 c 0.72187,-0.28887 1.58438,-0.25335 1.91667,0.0789 0.33229,0.3323 -0.25834,0.56864 -1.3125,0.52522 -1.16495,-0.048 -1.4019,-0.28494 -0.60417,-0.60416 z m -549,-106.000004 c 0.72187,-0.2888706 1.58438,-0.2533443 1.91667,0.078947 0.33229,0.3322917 -0.25834,0.5686404 -1.3125,0.5252193 -1.16495,-0.047984 -1.4019,-0.2849403 -0.60417,-0.6041663 z m -143,-1 c 0.72187,-0.2888706 1.58437,-0.2533443 1.91667,0.078947 0.33229,0.3322917 -0.25834,0.5686404 -1.3125,0.5252193 -1.16495,-0.047984 -1.4019,-0.2849403 -0.60417,-0.6041663 z m 129,0 c 0.72187,-0.2888706 1.58438,-0.2533443 1.91667,0.078947 0.33229,0.3322917 -0.25834,0.5686404 -1.3125,0.5252193 -1.16495,-0.047984 -1.4019,-0.2849403 -0.60417,-0.6041663 z m -113,-1 c 0.72187,-0.2888706 1.58438,-0.2533443 1.91667,0.078947 0.33229,0.3322917 -0.25834,0.5686404 -1.3125,0.5252193 -1.16495,-0.047984 -1.4019,-0.2849403 -0.60417,-0.6041663 z M 355.75,1.337349 c 0.6875,-0.2774123 1.8125,-0.2774123 2.5,0 0.6875,0.2774123 0.125,0.504386 -1.25,0.504386 -1.375,0 -1.9375,-0.2269737 -1.25,-0.504386 z m -68.5,-1.05397374 c 1.5125,-0.22912464 3.9875,-0.22912464 5.5,0 1.5125,0.22912464 0.275,0.41659026 -2.75,0.41659026 -3.025,0 -4.2625,-0.18746562 -2.75,-0.41659026 z m 37,0 c 1.5125,-0.22912464 3.9875,-0.22912464 5.5,0 1.5125,0.22912464 0.275,0.41659026 -2.75,0.41659026 -3.025,0 -4.2625,-0.18746562 -2.75,-0.41659026 z"
       id="path16"
       inkscape:connector-curvature="0" />
    <path
       style="fill:#f8eae4"
       d="M -8.1691807,93.722811 -0.58351291,70.113726 18.25,60.103828 C 81.560998,26.454417 151.57,10.833863 234.5,3.5052711 313.86485,-3.5082653 416.46791,2.1623844 499,18.123615 c 39.92145,7.720579 69.79383,15.472442 119,30.88042 37.13433,11.627912 48.21744,14.762653 79.5,22.485746 98.09298,24.217364 208.97735,38.777659 332,43.595119 38.8438,1.52109 152.1371,0.62583 192,-1.51721 88.4573,-4.7555 163.6726,-12.26778 237,-23.670874 26.8886,-4.181425 72.2495,-12.353351 88,-15.853507 4.95,-1.100013 16.5647,-1.426251 17.2522,-1.438154 0.9672,-0.01675 2.6371,-0.861949 3.0005,17.976203 l 0.5835,30.251612 L 779,122 H -8.7526936 Z"
       id="path14"
       inkscape:connector-curvature="0"
       sodipodi:nodetypes="ccssssssssscscccc" />
  </g>
</svg>
