<?xml version="1.0" encoding="UTF-8" standalone="no"?>
<!-- Created with Inkscape (http://www.inkscape.org/) -->

<svg
   xmlns:dc="http://purl.org/dc/elements/1.1/"
   xmlns:cc="http://creativecommons.org/ns#"
   xmlns:rdf="http://www.w3.org/1999/02/22-rdf-syntax-ns#"
   xmlns:svg="http://www.w3.org/2000/svg"
   xmlns="http://www.w3.org/2000/svg"
   xmlns:sodipodi="http://sodipodi.sourceforge.net/DTD/sodipodi-0.dtd"
   xmlns:inkscape="http://www.inkscape.org/namespaces/inkscape"
   version="1.1"
   id="svg2"
   width="26.00432"
   height="19.332148"
   viewBox="0 0 26.00432 19.332148"
   sodipodi:docname="play.svg"
   inkscape:version="0.92.1 r15371">
  <metadata
     id="metadata8">
    <rdf:RDF>
      <cc:Work
         rdf:about="">
        <dc:format>image/svg+xml</dc:format>
        <dc:type
           rdf:resource="http://purl.org/dc/dcmitype/StillImage" />
        <dc:title></dc:title>
      </cc:Work>
    </rdf:RDF>
  </metadata>
  <defs
     id="defs6" />
     <style>
      svg {
      cursor: pointer;
      }

       svg path {
       fill: #3756a6 !important;
       transition: all 0.25s ease-in-out;
       cursor: pointer;
       }

       svg:hover path {
        fill: #b5373b !important;
        transition: all 0.25s ease-in-out;
       }

     </style>
  <sodipodi:namedview
     pagecolor="#ffffff"
     bordercolor="#666666"
     borderopacity="1"
     objecttolerance="10"
     gridtolerance="10"
     guidetolerance="10"
     inkscape:pageopacity="0"
     inkscape:pageshadow="2"
     inkscape:window-width="1920"
     inkscape:window-height="1001"
     id="namedview4"
     showgrid="false"
     fit-margin-top="0"
     fit-margin-left="0"
     fit-margin-right="0"
     fit-margin-bottom="0"
     inkscape:zoom="11.238095"
     inkscape:cx="14.77848"
     inkscape:cy="9.0279251"
     inkscape:window-x="-9"
     inkscape:window-y="-9"
     inkscape:window-maximized="1"
     inkscape:current-layer="svg2" />
  <g
     id="g12"
     transform="translate(-0.4978395,-0.83392625)">
    <path
       style="fill:#cc2429"
       d="m 1.8724447,18.346305 c -1.83280693,-2.208397 -1.83280693,-13.484213 0,-15.6926103 2.0136983,-2.42635793 21.2414123,-2.42635793 23.2551103,0 1.832807,2.2083973 1.832807,13.4842133 0,15.6926103 -2.013698,2.426358 -21.241412,2.426358 -23.2551103,0 z M 24.076758,16.910043 C 25.260761,15.039704 25.221396,5.8986782 24.021162,4 23.286083,2.8371619 20.921193,2.5 13.5,2.5 2.469351,2.5 2.0306255,2.8060153 2.0306255,10.5 c 0,7.948224 0.9801327,8.544766 13.3114455,8.101793 5.411776,-0.194405 8.118697,-0.718687 8.734687,-1.69175 z M 10,10.549354 V 6.1661578 l 3.930591,2.152997 c 2.161825,1.1841484 3.849325,2.1904612 3.75,2.2362522 -0.09933,0.04579 -1.868091,1.049379 -3.930591,2.230198 L 10,14.932549 Z"
       id="path14"
       inkscape:connector-curvature="0" />
  </g>
</svg>
