<?xml version="1.0" encoding="UTF-8" standalone="no"?>
<!-- Created with Inkscape (http://www.inkscape.org/) -->

<svg
   xmlns:dc="http://purl.org/dc/elements/1.1/"
   xmlns:cc="http://creativecommons.org/ns#"
   xmlns:rdf="http://www.w3.org/1999/02/22-rdf-syntax-ns#"
   xmlns:svg="http://www.w3.org/2000/svg"
   xmlns="http://www.w3.org/2000/svg"
   xmlns:sodipodi="http://sodipodi.sourceforge.net/DTD/sodipodi-0.dtd"
   xmlns:inkscape="http://www.inkscape.org/namespaces/inkscape"
   version="1.1"
   id="svg2"
   width="228.59642"
   height="159.02602"
   viewBox="0 0 228.59642 159.02602"
   sodipodi:docname="youtube.svg"
   inkscape:version="0.92.1 r15371"
  class="btn"
   >
  <metadata
     id="metadata8">
    <rdf:RDF>
      <cc:Work
         rdf:about="">
        <dc:format>image/svg+xml</dc:format>
        <dc:type
           rdf:resource="http://purl.org/dc/dcmitype/StillImage" />
        <dc:title></dc:title>
      </cc:Work>
    </rdf:RDF>
  </metadata>
  <defs
     id="defs6" />
      <style>
      svg {
      cursor: pointer;
      }

       svg path {
       fill: #b5373b !important;
      
       transition: all 0.25s ease-in-out;
       cursor: pointer;
       }

       svg:hover path {
         fill: #3756a6 !important;
        transition: all 0.25s ease-in-out;
       }

         svg:active path {
         opacity: 0.5;
         fill: #3756a6 !important;
        transition: all 0.25s ease-in-out;
       }

     </style>
  <sodipodi:namedview
     pagecolor="#ffffff"
     bordercolor="#666666"
     borderopacity="1"
     objecttolerance="10"
     gridtolerance="10"
     guidetolerance="10"
     inkscape:pageopacity="0"
     inkscape:pageshadow="2"
     inkscape:window-width="1920"
     inkscape:window-height="1001"
     id="namedview4"
     showgrid="false"
     fit-margin-top="0"
     fit-margin-left="0"
     fit-margin-right="0"
     fit-margin-bottom="0"
     inkscape:zoom="0.78666667"
     inkscape:cx="111.67642"
     inkscape:cy="83.881952"
     inkscape:window-x="-9"
     inkscape:window-y="-9"
     inkscape:window-maximized="1"
     inkscape:current-layer="svg2" />
  <path
     style="fill:#000000"
     d="m 57.718797,158.50252 c -21.04588,-0.86921 -31.4952,-2.13802 -37.18437,-4.51511 C 4.299567,147.20406 -0.04970296,131.63882 4.2703907e-4,80.499998 0.05272704,27.185328 3.849557,12.65477 19.816137,4.66536 28.239077,0.45066 37.358027,0 114.2188,0 c 76.86077,0 85.97972,0.45066 94.40266,4.66536 10.17202,5.08991 15.63872,14.35122 17.98182,30.463588 1.65245,11.36311 2.54169,47.31306 1.62476,65.685832 -2.24605,45.00496 -8.51487,54.22742 -38.5373,56.69464 -16.85271,1.38494 -106.204393,2.05732 -131.971943,0.9931 z M 108.6587,100.84939 c 28.99773,-15.495242 30.79175,-16.461512 36.39063,-19.600132 2.9318,-1.64351 4.9568,-3.32676 4.5,-3.74055 -0.94523,-0.85626 -59.161213,-31.00871 -59.869183,-31.00871 -0.25374,0 -0.46135,14.4 -0.46135,32 0,17.6 0.31046,32.000002 0.6899,32.000002 0.37945,0 8.81695,-4.34277 18.750003,-9.65061 z"
     id="path12"
     inkscape:connector-curvature="0" />
</svg>
