<svg xmlns="http://www.w3.org/2000/svg" xmlns:xlink="http://www.w3.org/1999/xlink" width="331" height="357" viewBox="0 0 331 357"><defs><linearGradient id="a" x1="0.146" y1="0.146" x2="0.952" y2="0.974" gradientUnits="objectBoundingBox"><stop offset="0" stop-color="#565a6f"/><stop offset="1" stop-color="#3e4257"/></linearGradient><filter id="b" x="0" y="51" width="331" height="306" filterUnits="userSpaceOnUse"><feOffset dy="10" input="SourceAlpha"/><feGaussianBlur stdDeviation="15" result="c"/><feFlood flood-opacity="0.251"/><feComposite operator="in" in2="c"/><feComposite in="SourceGraphic"/></filter><filter id="d" x="8.357" y="0" width="153.81" height="151" filterUnits="userSpaceOnUse"><feOffset dy="15" input="SourceAlpha"/><feGaussianBlur stdDeviation="12.5" result="e"/><feFlood flood-opacity="0.2"/><feComposite operator="in" in2="e"/><feComposite in="SourceGraphic"/></filter></defs><g transform="translate(-609.5 -5865.5)"><g transform="matrix(1, 0, 0, 1, 609.5, 5865.5)" filter="url(#b)"><rect width="240" height="215" rx="7.488" fill="url(#a)" stroke="#e4b940" stroke-width="1" stroke-dasharray="5" transform="translate(45.5 86.5)"/></g><g transform="matrix(1, 0, 0, 1, 609.5, 5865.5)" filter="url(#d)"><g transform="translate(3025.05 -704.06)" fill="#3a3d4d"><path d="M -2939.79248046875 802.0595092773438 C -2941.96240234375 802.0595092773438 -2944.037353515625 801.3853149414063 -2945.79296875 800.10986328125 L -2974.488525390625 779.2611694335938 C -2976.244140625 777.9857788085938 -2977.5263671875 776.2207641601563 -2978.197021484375 774.1569213867188 C -2978.86767578125 772.0931396484375 -2978.867431640625 769.911376953125 -2978.19677734375 767.84765625 L -2967.236328125 734.1139526367188 C -2966.56591796875 732.0501708984375 -2965.283447265625 730.2850952148438 -2963.52783203125 729.0096435546875 C -2961.7724609375 727.734130859375 -2959.697509765625 727.0599365234375 -2957.52734375 727.0599365234375 L -2922.0576171875 727.0599365234375 C -2919.8876953125 727.0599365234375 -2917.812744140625 727.734130859375 -2916.05712890625 729.0096435546875 C -2914.301513671875 730.28515625 -2913.01904296875 732.0501708984375 -2912.3486328125 734.1139526367188 L -2901.38818359375 767.8475952148438 C -2900.717529296875 769.911376953125 -2900.71728515625 772.0931396484375 -2901.387939453125 774.1569213867188 C -2902.05859375 776.2207641601563 -2903.3408203125 777.9857788085938 -2905.096435546875 779.2611694335938 L -2933.7919921875 800.1099243164063 C -2935.547607421875 801.3853149414063 -2937.62255859375 802.0595092773438 -2939.79248046875 802.0595092773438 Z" stroke="none"/><path d="M -2939.79248046875 801.5595092773438 C -2937.728759765625 801.5595092773438 -2935.75537109375 800.9183349609375 -2934.0859375 799.7053833007813 L -2905.39013671875 778.856689453125 C -2903.720703125 777.6437377929688 -2902.501220703125 775.9651489257813 -2901.863525390625 774.00244140625 C -2901.225830078125 772.0396728515625 -2901.225830078125 769.96484375 -2901.863525390625 768.0021362304688 L -2912.82421875 734.2684936523438 C -2913.4619140625 732.3057861328125 -2914.681396484375 730.627197265625 -2916.35107421875 729.4141235351563 C -2918.0205078125 728.2011108398438 -2919.993896484375 727.5599365234375 -2922.0576171875 727.5599365234375 L -2957.52734375 727.5599365234375 C -2959.591064453125 727.5599365234375 -2961.564453125 728.2011108398438 -2963.234130859375 729.4141235351563 C -2964.903564453125 730.6271362304688 -2966.123046875 732.3057250976563 -2966.7607421875 734.2684936523438 L -2977.721435546875 768.002197265625 C -2978.359130859375 769.96484375 -2978.359130859375 772.0396728515625 -2977.721435546875 774.00244140625 C -2977.083740234375 775.9651489257813 -2975.8642578125 777.6437377929688 -2974.194580078125 778.856689453125 L -2945.499267578125 799.7053833007813 C -2943.82958984375 800.9183349609375 -2941.856201171875 801.5595092773438 -2939.79248046875 801.5595092773438 M -2939.79248046875 802.5595092773438 C -2942.001220703125 802.5595092773438 -2944.210205078125 801.8778076171875 -2946.0869140625 800.514404296875 L -2974.782470703125 779.6657104492188 C -2978.53564453125 776.93896484375 -2980.106201171875 772.1052856445313 -2978.67236328125 767.693115234375 L -2967.7119140625 733.95947265625 C -2966.2783203125 729.5472412109375 -2962.166748046875 726.5599365234375 -2957.52734375 726.5599365234375 L -2922.0576171875 726.5599365234375 C -2917.41845703125 726.5599365234375 -2913.306640625 729.5472412109375 -2911.873046875 733.95947265625 L -2900.91259765625 767.693115234375 C -2899.478759765625 772.1052856445313 -2901.04931640625 776.93896484375 -2904.802490234375 779.6657104492188 L -2933.498046875 800.514404296875 C -2935.374755859375 801.8778076171875 -2937.583740234375 802.5595092773438 -2939.79248046875 802.5595092773438 Z" stroke="none" fill="#e4b940"/></g></g><g transform="translate(678.144 5904.145)"><rect width="16.961" height="16.961" fill="#e4b940"/><rect width="16.961" height="16.961" transform="translate(16.961)" fill="#f25b5b"/><rect width="16.961" height="16.961" transform="translate(0 16.961)" fill="#41bf50"/><rect width="16.961" height="16.961" transform="translate(16.961 16.961)" fill="#556080"/><path d="M42.875,45.212H35.606a.606.606,0,1,1,0-1.212h7.269a.606.606,0,1,1,0,1.212Z" transform="translate(-13.799 -17.347)" fill="#fff"/><path d="M42.875,39.212H35.606a.606.606,0,1,1,0-1.212h7.269a.606.606,0,0,1,0,1.212Z" transform="translate(-13.799 -14.981)" fill="#fff"/><path d="M13.606,40.24a.606.606,0,0,1-.428-1.034l3.029-3.029a.606.606,0,0,1,.857.857l-3.029,3.029A.6.6,0,0,1,13.606,40.24Z" transform="translate(-5.125 -14.193)" fill="#fff"/><path d="M8.606,45.24a.606.606,0,0,1-.428-1.034l3.029-3.029a.606.606,0,0,1,.857.857L9.034,45.063A.6.6,0,0,1,8.606,45.24Z" transform="translate(-3.154 -16.164)" fill="#fff"/><path d="M16.634,45.24a.6.6,0,0,1-.428-.177l-3.029-3.029a.606.606,0,0,1,.857-.857l3.029,3.029a.606.606,0,0,1-.428,1.034Z" transform="translate(-5.125 -16.164)" fill="#fff"/><path d="M11.634,40.24a.6.6,0,0,1-.428-.177L8.177,37.034a.606.606,0,1,1,.857-.857l3.029,3.029a.606.606,0,0,1-.428,1.034Z" transform="translate(-3.154 -14.193)" fill="#fff"/><path d="M14.875,14.212H7.606a.606.606,0,0,1,0-1.212h7.269a.606.606,0,1,1,0,1.212Z" transform="translate(-2.76 -5.125)" fill="#fff"/><path d="M13.606,15.481A.606.606,0,0,1,13,14.875V7.606a.606.606,0,0,1,1.212,0v7.269A.606.606,0,0,1,13.606,15.481Z" transform="translate(-5.125 -2.76)" fill="#fff"/><path d="M42.875,14.212H35.606a.606.606,0,1,1,0-1.212h7.269a.606.606,0,0,1,0,1.212Z" transform="translate(-13.799 -5.125)" fill="#fff"/></g></g></svg>