<svg xmlns="http://www.w3.org/2000/svg" xmlns:xlink="http://www.w3.org/1999/xlink" width="153.81" height="151" viewBox="0 0 153.81 151"><defs><filter id="a" x="0" y="0" width="153.81" height="151" filterUnits="userSpaceOnUse"><feOffset dy="15" input="SourceAlpha"/><feGaussianBlur stdDeviation="12.5" result="b"/><feFlood flood-opacity="0.2"/><feComposite operator="in" in2="b"/><feComposite in="SourceGraphic"/></filter></defs><g transform="translate(-615.857 -5865.5)"><g transform="matrix(1, 0, 0, 1, 615.86, 5865.5)" filter="url(#a)"><g transform="translate(3016.7 -704.06)" fill="#3a3d4d"><path d="M -2939.79248046875 802.0595092773438 C -2941.96240234375 802.0595092773438 -2944.037353515625 801.3853149414063 -2945.79296875 800.10986328125 L -2974.488525390625 779.2611694335938 C -2976.244140625 777.9857788085938 -2977.5263671875 776.2207641601563 -2978.197021484375 774.1569213867188 C -2978.86767578125 772.0931396484375 -2978.867431640625 769.911376953125 -2978.19677734375 767.84765625 L -2967.236328125 734.1139526367188 C -2966.56591796875 732.0501708984375 -2965.283447265625 730.2850952148438 -2963.52783203125 729.0096435546875 C -2961.7724609375 727.734130859375 -2959.697509765625 727.0599365234375 -2957.52734375 727.0599365234375 L -2922.0576171875 727.0599365234375 C -2919.8876953125 727.0599365234375 -2917.812744140625 727.734130859375 -2916.05712890625 729.0096435546875 C -2914.301513671875 730.28515625 -2913.01904296875 732.0501708984375 -2912.3486328125 734.1139526367188 L -2901.38818359375 767.8475952148438 C -2900.717529296875 769.911376953125 -2900.71728515625 772.0931396484375 -2901.387939453125 774.1569213867188 C -2902.05859375 776.2207641601563 -2903.3408203125 777.9857788085938 -2905.096435546875 779.2611694335938 L -2933.7919921875 800.1099243164063 C -2935.547607421875 801.3853149414063 -2937.62255859375 802.0595092773438 -2939.79248046875 802.0595092773438 Z" stroke="none"/><path d="M -2939.79248046875 801.5595092773438 C -2937.728759765625 801.5595092773438 -2935.75537109375 800.9183349609375 -2934.0859375 799.7053833007813 L -2905.39013671875 778.856689453125 C -2903.720703125 777.6437377929688 -2902.501220703125 775.9651489257813 -2901.863525390625 774.00244140625 C -2901.225830078125 772.0396728515625 -2901.225830078125 769.96484375 -2901.863525390625 768.0021362304688 L -2912.82421875 734.2684936523438 C -2913.4619140625 732.3057861328125 -2914.681396484375 730.627197265625 -2916.35107421875 729.4141235351563 C -2918.0205078125 728.2011108398438 -2919.993896484375 727.5599365234375 -2922.0576171875 727.5599365234375 L -2957.52734375 727.5599365234375 C -2959.591064453125 727.5599365234375 -2961.564453125 728.2011108398438 -2963.234130859375 729.4141235351563 C -2964.903564453125 730.6271362304688 -2966.123046875 732.3057250976563 -2966.7607421875 734.2684936523438 L -2977.721435546875 768.002197265625 C -2978.359130859375 769.96484375 -2978.359130859375 772.0396728515625 -2977.721435546875 774.00244140625 C -2977.083740234375 775.9651489257813 -2975.8642578125 777.6437377929688 -2974.194580078125 778.856689453125 L -2945.499267578125 799.7053833007813 C -2943.82958984375 800.9183349609375 -2941.856201171875 801.5595092773438 -2939.79248046875 801.5595092773438 M -2939.79248046875 802.5595092773438 C -2942.001220703125 802.5595092773438 -2944.210205078125 801.8778076171875 -2946.0869140625 800.514404296875 L -2974.782470703125 779.6657104492188 C -2978.53564453125 776.93896484375 -2980.106201171875 772.1052856445313 -2978.67236328125 767.693115234375 L -2967.7119140625 733.95947265625 C -2966.2783203125 729.5472412109375 -2962.166748046875 726.5599365234375 -2957.52734375 726.5599365234375 L -2922.0576171875 726.5599365234375 C -2917.41845703125 726.5599365234375 -2913.306640625 729.5472412109375 -2911.873046875 733.95947265625 L -2900.91259765625 767.693115234375 C -2899.478759765625 772.1052856445313 -2901.04931640625 776.93896484375 -2904.802490234375 779.6657104492188 L -2933.498046875 800.514404296875 C -2935.374755859375 801.8778076171875 -2937.583740234375 802.5595092773438 -2939.79248046875 802.5595092773438 Z" stroke="none" fill="#e4b940"/></g></g><g transform="translate(668.379 5902.987)"><path d="M236.474,419.1h13.46v4.038h-13.46Z" transform="translate(-212.005 -384.11)" fill="#e4b940"/><g transform="translate(26.488 37.006)"><path d="M260.425,443.048h1.346v2.019h-1.346Z" transform="translate(-260.425 -443.048)" fill="#ffda72"/><path d="M292.359,443.048h1.346v2.019h-1.346Z" transform="translate(-289.667 -443.048)" fill="#ffda72"/><path d="M324.293,443.048h1.346v2.019h-1.346Z" transform="translate(-318.909 -443.048)" fill="#ffda72"/><path d="M356.227,443.048h1.346v2.019h-1.346Z" transform="translate(-348.151 -443.048)" fill="#ffda72"/></g><path d="M236.474,379.179h13.46v4.038h-13.46Z" transform="translate(-212.005 -347.557)" fill="#ffda72"/><path d="M260.425,403.13h1.346v2.019h-1.346Z" transform="translate(-233.937 -369.489)" fill="#e4b940"/><path d="M292.359,403.13h1.346v2.019h-1.346Z" transform="translate(-263.179 -369.489)" fill="#e4b940"/><path d="M324.293,403.13h1.346v2.019h-1.346Z" transform="translate(-292.421 -369.489)" fill="#e4b940"/><path d="M356.227,403.13h1.346v2.019h-1.346Z" transform="translate(-321.663 -369.489)" fill="#e4b940"/><path d="M236.474,339.262h13.46V343.3h-13.46Z" transform="translate(-212.005 -311.005)" fill="#e4b940"/><path d="M260.425,363.212h1.346v2.019h-1.346Z" transform="translate(-233.937 -332.936)" fill="#ffda72"/><path d="M292.359,363.212h1.346v2.019h-1.346Z" transform="translate(-263.179 -332.936)" fill="#ffda72"/><path d="M324.293,363.212h1.346v2.019h-1.346Z" transform="translate(-292.421 -332.936)" fill="#ffda72"/><path d="M356.227,363.212h1.346v2.019h-1.346Z" transform="translate(-321.663 -332.936)" fill="#ffda72"/><path d="M236.474,299.344h13.46v4.038h-13.46Z" transform="translate(-212.005 -274.452)" fill="#ffda72"/><path d="M260.425,323.294h1.346v2.019h-1.346Z" transform="translate(-233.937 -296.383)" fill="#e4b940"/><path d="M292.359,323.294h1.346v2.019h-1.346Z" transform="translate(-263.179 -296.383)" fill="#e4b940"/><path d="M324.293,323.294h1.346v2.019h-1.346Z" transform="translate(-292.421 -296.383)" fill="#e4b940"/><path d="M356.227,323.294h1.346v2.019h-1.346Z" transform="translate(-321.663 -296.383)" fill="#e4b940"/><path d="M43.493,50.323l-.18-6.452-6.451.18L34.2,46.867l4.419-.125A49.362,49.362,0,0,1,4.952,60.023v2.692A52.048,52.048,0,0,0,40.7,48.472l.129,4.666Z" transform="translate(0 -40.515)" fill="#f25b5b"/><path d="M236.474,267.41h13.46v3.365h-13.46Z" transform="translate(-212.005 -245.21)" fill="#e4b940"/><path d="M260.425,283.377h1.346V285.4h-1.346Z" transform="translate(-233.937 -259.831)" fill="#ffda72"/><path d="M292.359,283.377h1.346V285.4h-1.346Z" transform="translate(-263.179 -259.831)" fill="#ffda72"/><path d="M324.293,283.377h1.346V285.4h-1.346Z" transform="translate(-292.421 -259.831)" fill="#ffda72"/><path d="M356.227,283.377h1.346V285.4h-1.346Z" transform="translate(-321.663 -259.831)" fill="#ffda72"/><path d="M90.263,314.057a6.73,6.73,0,1,1-6.73-6.73A6.73,6.73,0,0,1,90.263,314.057Z" transform="translate(-68.377 -281.762)" fill="#e4b940"/><path d="M134.707,342.627a.673.673,0,1,1,.673-.673h1.346a2.019,2.019,0,0,0-1.346-1.9v-.8h-1.346v.8a2.014,2.014,0,0,0,.673,3.914.673.673,0,1,1-.673.673h-1.346a2.019,2.019,0,0,0,1.346,1.9v.8h1.346v-.8a2.014,2.014,0,0,0-.673-3.914Z" transform="translate(-119.551 -311.005)" fill="#fff"/><ellipse cx="2.188" cy="2.188" rx="2.188" ry="2.188" transform="translate(17.419 7.746)" fill="#41bf50"/><ellipse cx="2.188" cy="2.188" rx="2.188" ry="2.188" transform="translate(10.13 -2.464)" fill="#41bf50"/><rect width="16.5" height="2.916" rx="1.458" transform="translate(9.099 9.631) rotate(-45)" fill="#41bf50"/></g></g></svg>