<svg xmlns="http://www.w3.org/2000/svg" xmlns:xlink="http://www.w3.org/1999/xlink" width="153.81" height="151" viewBox="0 0 153.81 151"><defs><filter id="a" x="0" y="0" width="153.81" height="151" filterUnits="userSpaceOnUse"><feOffset dy="15" input="SourceAlpha"/><feGaussianBlur stdDeviation="12.5" result="b"/><feFlood flood-opacity="0.2"/><feComposite operator="in" in2="b"/><feComposite in="SourceGraphic"/></filter></defs><g transform="translate(-617.857 -5865.5)"><g transform="matrix(1, 0, 0, 1, 617.86, 5865.5)" filter="url(#a)"><g transform="translate(3016.7 -704.06)" fill="#3a3d4d"><path d="M -2939.79248046875 802.0595092773438 C -2941.96240234375 802.0595092773438 -2944.037353515625 801.3853149414063 -2945.79296875 800.10986328125 L -2974.488525390625 779.2611694335938 C -2976.244140625 777.9857788085938 -2977.5263671875 776.2207641601563 -2978.197021484375 774.1569213867188 C -2978.86767578125 772.0931396484375 -2978.867431640625 769.911376953125 -2978.19677734375 767.84765625 L -2967.236328125 734.1139526367188 C -2966.56591796875 732.0501708984375 -2965.283447265625 730.2850952148438 -2963.52783203125 729.0096435546875 C -2961.7724609375 727.734130859375 -2959.697509765625 727.0599365234375 -2957.52734375 727.0599365234375 L -2922.0576171875 727.0599365234375 C -2919.8876953125 727.0599365234375 -2917.812744140625 727.734130859375 -2916.05712890625 729.0096435546875 C -2914.301513671875 730.28515625 -2913.01904296875 732.0501708984375 -2912.3486328125 734.1139526367188 L -2901.38818359375 767.8475952148438 C -2900.717529296875 769.911376953125 -2900.71728515625 772.0931396484375 -2901.387939453125 774.1569213867188 C -2902.05859375 776.2207641601563 -2903.3408203125 777.9857788085938 -2905.096435546875 779.2611694335938 L -2933.7919921875 800.1099243164063 C -2935.547607421875 801.3853149414063 -2937.62255859375 802.0595092773438 -2939.79248046875 802.0595092773438 Z" stroke="none"/><path d="M -2939.79248046875 801.5595092773438 C -2937.728759765625 801.5595092773438 -2935.75537109375 800.9183349609375 -2934.0859375 799.7053833007813 L -2905.39013671875 778.856689453125 C -2903.720703125 777.6437377929688 -2902.501220703125 775.9651489257813 -2901.863525390625 774.00244140625 C -2901.225830078125 772.0396728515625 -2901.225830078125 769.96484375 -2901.863525390625 768.0021362304688 L -2912.82421875 734.2684936523438 C -2913.4619140625 732.3057861328125 -2914.681396484375 730.627197265625 -2916.35107421875 729.4141235351563 C -2918.0205078125 728.2011108398438 -2919.993896484375 727.5599365234375 -2922.0576171875 727.5599365234375 L -2957.52734375 727.5599365234375 C -2959.591064453125 727.5599365234375 -2961.564453125 728.2011108398438 -2963.234130859375 729.4141235351563 C -2964.903564453125 730.6271362304688 -2966.123046875 732.3057250976563 -2966.7607421875 734.2684936523438 L -2977.721435546875 768.002197265625 C -2978.359130859375 769.96484375 -2978.359130859375 772.0396728515625 -2977.721435546875 774.00244140625 C -2977.083740234375 775.9651489257813 -2975.8642578125 777.6437377929688 -2974.194580078125 778.856689453125 L -2945.499267578125 799.7053833007813 C -2943.82958984375 800.9183349609375 -2941.856201171875 801.5595092773438 -2939.79248046875 801.5595092773438 M -2939.79248046875 802.5595092773438 C -2942.001220703125 802.5595092773438 -2944.210205078125 801.8778076171875 -2946.0869140625 800.514404296875 L -2974.782470703125 779.6657104492188 C -2978.53564453125 776.93896484375 -2980.106201171875 772.1052856445313 -2978.67236328125 767.693115234375 L -2967.7119140625 733.95947265625 C -2966.2783203125 729.5472412109375 -2962.166748046875 726.5599365234375 -2957.52734375 726.5599365234375 L -2922.0576171875 726.5599365234375 C -2917.41845703125 726.5599365234375 -2913.306640625 729.5472412109375 -2911.873046875 733.95947265625 L -2900.91259765625 767.693115234375 C -2899.478759765625 772.1052856445313 -2901.04931640625 776.93896484375 -2904.802490234375 779.6657104492188 L -2933.498046875 800.514404296875 C -2935.374755859375 801.8778076171875 -2937.583740234375 802.5595092773438 -2939.79248046875 802.5595092773438 Z" stroke="none" fill="#e4b940"/></g></g><g transform="translate(614.581 5872.844)"><g transform="translate(66.139 41.508)"><path d="M117.736,253.486h26.578a.462.462,0,0,1,.462.462v3.436a.462.462,0,0,1-.462.462h0a.462.462,0,0,1-.462-.462v-2.511a.462.462,0,0,0-.462-.462H118.661a.462.462,0,0,0-.462.462v2.511a.462.462,0,0,1-.462.462h0a.462.462,0,0,1-.462-.462v-3.436A.462.462,0,0,1,117.736,253.486Z" transform="translate(-117.274 -248.41)" fill="#fff"/><path d="M251.5,211.542h0a.462.462,0,0,1-.462-.462v-8.222a.462.462,0,0,1,.462-.462h0a.462.462,0,0,1,.462.462v8.222A.462.462,0,0,1,251.5,211.542Z" transform="translate(-237.748 -202.395)" fill="#fff"/></g><g transform="translate(60.498 52.235)"><path d="M102.133,400.081l-.559-.35H98.38l-.559.354-.332.495.724.868a8.08,8.08,0,0,0,.849.6c.077,0,.743.1.8.1a2.081,2.081,0,0,0,.753-.039c.174-.1.531-.347.618-.376a6.682,6.682,0,0,0,.714-.637c.029-.039.4-.753.4-.753Z" transform="translate(-93.813 -390.854)" fill="#d0ad9b"/><path d="M106.463,368.534h3.194v4.346h-3.194Z" transform="translate(-101.897 -362.756)" fill="#d0ad9b"/><path d="M71.973,406.882a3.318,3.318,0,0,0-.856-.673l-1.776-.974-.2-.108a.429.429,0,0,1-.025.07,2.667,2.667,0,0,1-5.049-.01l-.087.048-1.778.974a3.287,3.287,0,0,0-1.707,2.882v3.88a1.17,1.17,0,0,0,1.169,1.171h9.989a1.171,1.171,0,0,0,1.171-1.171v-3.88A3.293,3.293,0,0,0,71.973,406.882Z" transform="translate(-60.498 -395.714)" fill="#e4b940"/><path d="M100.653,403.4l-.243-.141a2.181,2.181,0,0,1-4.312,0l-.237.133-.285.157a2.751,2.751,0,0,0,5.359,0Z" transform="translate(-92.09 -394.029)" fill="#fff"/><g transform="translate(3.274 2.453)"><ellipse cx="0.595" cy="0.338" rx="0.595" ry="0.338" transform="translate(4.767 4.19) rotate(-71.456)" fill="#d0ad9b"/><ellipse cx="0.338" cy="0.595" rx="0.338" ry="0.595" transform="translate(0 3.264) rotate(-18.544)" fill="#d0ad9b"/><path d="M98.766,335.07a3.517,3.517,0,0,0-2.507,1.263c-.321.521.123,1.591.123,2.307,0,1.691,1.067,3.061,2.384,3.061s2.384-1.371,2.384-3.061a12.916,12.916,0,0,0,.138-2.57C100.89,334.944,99.684,335.07,98.766,335.07Z" transform="translate(-95.876 -335.066)" fill="#eccdb2"/></g><path d="M96.84,316.212a3.559,3.559,0,0,0-1.863-.314,2.883,2.883,0,0,1,.659-.368c-1.754.027-2.458.794-2.737,1.476a1.775,1.775,0,0,0-.2.627l.022.357c0,.043,0,.067,0,.067s-.687.106-.477.959c.184.75.553,2.331.64,2.7a.1.1,0,0,0,.1.074H93a.1.1,0,0,0,.09-.1,10.223,10.223,0,0,1,.044-1.943,2.954,2.954,0,0,0-.01-.9c-.03-.209.027-.425.38-.454.705-.059.8.187,1.712.179s1.486-.582,1.731-.439.281.632.329,1.164a10.572,10.572,0,0,1,.178,1.107,8.72,8.72,0,0,1-.021,1.281.1.1,0,1,0,.19.023c.018-.187.193-.86.294-1.357a5.584,5.584,0,0,1,.176-1.069A2.629,2.629,0,0,0,96.84,316.212Z" transform="translate(-89.057 -315.017)" fill="#29150d"/><path d="M369.042,400.081l-.559-.35h-3.194l-.559.354-.332.495.724.868a8.077,8.077,0,0,0,.849.6c.077,0,.743.1.8.1a2.081,2.081,0,0,0,.753-.039c.174-.1.531-.347.618-.376a6.67,6.67,0,0,0,.714-.637c.029-.039.4-.753.4-.753Z" transform="translate(-334.206 -390.854)" fill="#d0ad9b"/><path d="M373.372,368.534h3.194v4.346h-3.194Z" transform="translate(-342.289 -362.756)" fill="#d0ad9b"/><path d="M338.881,406.882a3.32,3.32,0,0,0-.856-.673l-1.776-.974-.2-.108a.439.439,0,0,1-.025.07,2.667,2.667,0,0,1-5.049-.01l-.087.048-1.778.974a3.288,3.288,0,0,0-1.707,2.882v3.88a1.171,1.171,0,0,0,1.169,1.171h9.989a1.171,1.171,0,0,0,1.171-1.171v-3.88A3.294,3.294,0,0,0,338.881,406.882Z" transform="translate(-300.889 -395.714)" fill="#e4b940"/><path d="M367.562,403.4l-.243-.141a2.181,2.181,0,0,1-4.312,0l-.237.133-.285.157a2.751,2.751,0,0,0,5.359,0Z" transform="translate(-332.483 -394.029)" fill="#fff"/><g transform="translate(29.607 1.817)"><ellipse cx="0.863" cy="0.361" rx="0.863" ry="0.361" transform="matrix(0.186, -0.983, 0.983, 0.186, 4.991, 4.759)" fill="#d0ad9b"/><ellipse cx="0.361" cy="0.863" rx="0.361" ry="0.863" transform="matrix(0.983, -0.186, 0.186, 0.983, 0, 3.193)" fill="#d0ad9b"/><path d="M364.864,328.672a3.39,3.39,0,0,0-2.5,1.421c-.32.586.122,1.789.122,2.595,0,1.9,1.065,3.443,2.378,3.443s2.378-1.541,2.378-3.443a16.347,16.347,0,0,0,.138-2.891C366.982,328.529,365.78,328.672,364.864,328.672Z" transform="translate(-361.876 -328.667)" fill="#eccdb2"/></g><path d="M363.309,315.566c-.134-1.342-.614-1.591-.614-1.591s0-1.15-.882-1.189-2.8-.173-3.643.537-1.035,1.15-1.093,1.438a9.539,9.539,0,0,0,.383,3.048l.169.547a.137.137,0,0,0,.267-.047,11.225,11.225,0,0,1,.081-2.3c.173-.69.824-.652,1.994-.786s2.358-.518,2.358-.058c0,.435.188,2.22.225,3.1a.152.152,0,0,0,.293.047A6.654,6.654,0,0,0,363.309,315.566Z" transform="translate(-327.601 -312.514)" fill="#29150d"/><path d="M235.587,400.081l-.559-.35h-3.194l-.559.354-.332.495.724.868a8.08,8.08,0,0,0,.849.6c.077,0,.743.1.8.1a2.081,2.081,0,0,0,.753-.039c.174-.1.531-.347.618-.376a6.674,6.674,0,0,0,.714-.637c.029-.039.4-.753.4-.753Z" transform="translate(-214.009 -390.854)" fill="#d0ad9b"/><path d="M239.917,368.534h3.194v4.346h-3.194Z" transform="translate(-222.092 -362.756)" fill="#d0ad9b"/><path d="M205.427,406.882a3.32,3.32,0,0,0-.856-.673l-1.776-.974-.2-.108a.42.42,0,0,1-.025.07,2.667,2.667,0,0,1-5.049-.01l-.087.048-1.778.974a3.288,3.288,0,0,0-1.707,2.882v3.88a1.171,1.171,0,0,0,1.169,1.171h9.989a1.171,1.171,0,0,0,1.171-1.171v-3.88A3.294,3.294,0,0,0,205.427,406.882Z" transform="translate(-180.694 -395.714)" fill="#e4b940"/><path d="M234.108,403.4l-.243-.141a2.181,2.181,0,0,1-4.312,0l-.237.133-.285.157a2.751,2.751,0,0,0,5.359,0Z" transform="translate(-212.287 -394.029)" fill="#fff"/><ellipse cx="0.757" cy="0.389" rx="0.757" ry="0.389" transform="translate(21.576 5.947) rotate(-74.936)" fill="#d0ad9b"/><ellipse cx="0.389" cy="0.757" rx="0.389" ry="0.757" transform="translate(16.141 4.699) rotate(-15.064)" fill="#d0ad9b"/><path d="M232.192,326.3a3.424,3.424,0,0,0-2.51,1.389c-.321.573.123,1.749.123,2.536,0,1.859,1.068,3.365,2.387,3.365s2.387-1.507,2.387-3.365a15.573,15.573,0,0,0,.138-2.826C234.318,326.165,233.111,326.3,232.192,326.3Z" transform="translate(-212.769 -324.718)" fill="#eccdb2"/><path d="M232.4,313.195c-.135-1.347-.616-1.6-.616-1.6s0-1.154-.885-1.193c-.375-.016-.939-.045-1.526-.023-.587-.021-1.151.007-1.526.023-.885.039-.885,1.193-.885,1.193s-.481.25-.616,1.6a6.676,6.676,0,0,0,.461,2.75.152.152,0,0,0,.294-.048c.037-.878.226-2.67.226-3.106,0-.462.833.746,2.007.881l.039,0,.039,0c1.174-.135,2.007-1.342,2.007-.881,0,.436.189,2.228.226,3.106a.152.152,0,0,0,.294.048A6.678,6.678,0,0,0,232.4,313.195Z" transform="translate(-209.855 -310.374)" fill="#7b4f3d"/></g><g transform="translate(67.946 23.761)"><g transform="translate(0)"><circle cx="7.936" cy="7.936" r="7.936" fill="#41bf50"/><path d="M183.061,47.688H181.23a1.526,1.526,0,0,1,0-3.052h1.526a1.834,1.834,0,0,1,1.831,1.831h1.221a3.056,3.056,0,0,0-3.052-3.052V42.194h-1.221v1.221h-.305a2.747,2.747,0,0,0,0,5.494h1.831a1.526,1.526,0,0,1,0,3.052h-1.526A1.834,1.834,0,0,1,179.7,50.13h-1.221a3.056,3.056,0,0,0,3.052,3.052V54.4h1.221V53.182h.305a2.747,2.747,0,1,0,0-5.494Z" transform="translate(-174.21 -40.363)" fill="#fff"/></g><g transform="translate(11.598 9.156)"><circle cx="4.883" cy="4.883" r="4.883" fill="#f25b5b"/><g transform="translate(5.494 6.104)"><circle cx="0.916" cy="0.916" r="0.916" fill="#edeff1"/></g><g transform="translate(2.442 1.831)"><circle cx="0.916" cy="0.916" r="0.916" fill="#edeff1"/></g><g transform="translate(2.01 2.01)"><rect width="6.906" height="1.221" rx="0.61" transform="translate(0 4.884) rotate(-45)" fill="#edeff1"/></g></g></g></g></g></svg>