<svg xmlns="http://www.w3.org/2000/svg" xmlns:xlink="http://www.w3.org/1999/xlink" width="201.404" height="196.897" viewBox="0 0 201.404 196.897"><defs><filter id="a" x="0" y="0" width="201.404" height="196.897" filterUnits="userSpaceOnUse"><feOffset dy="15" input="SourceAlpha"/><feGaussianBlur stdDeviation="12.5" result="b"/><feFlood flood-opacity="0.2"/><feComposite operator="in" in2="b"/><feComposite in="SourceGraphic"/></filter><linearGradient id="c" x1="0.5" x2="0.5" y2="1" gradientUnits="objectBoundingBox"><stop offset="0" stop-color="#e4b940"/><stop offset="1" stop-color="#8e6f16"/></linearGradient></defs><g transform="translate(-239.856 -464.5)"><g transform="matrix(1, 0, 0, 1, 239.86, 464.5)" filter="url(#a)"><g transform="translate(3016.7 -704.06)" fill="#3a3d4d"><path d="M -2915.9951171875 847.9571533203125 C -2919.539794921875 847.9571533203125 -2922.92919921875 846.8558959960938 -2925.796875 844.7724609375 L -2971.822265625 811.3328247070313 C -2974.690185546875 809.2493896484375 -2976.784912109375 806.3662109375 -2977.880126953125 802.9949951171875 C -2978.9755859375 799.623779296875 -2978.975341796875 796.0599365234375 -2977.8798828125 792.688720703125 L -2960.2998046875 738.582763671875 C -2959.20458984375 735.2115478515625 -2957.10986328125 732.3283081054688 -2954.2421875 730.2448120117188 C -2951.37451171875 728.1612548828125 -2947.985107421875 727.0599975585938 -2944.4404296875 727.0599975585938 L -2887.5498046875 727.0599975585938 C -2884.005126953125 727.0599975585938 -2880.61572265625 728.1612548828125 -2877.748046875 730.2448120117188 C -2874.88037109375 732.3283081054688 -2872.78564453125 735.2115478515625 -2871.6904296875 738.5827026367188 L -2854.1103515625 792.6886596679688 C -2853.014892578125 796.0599365234375 -2853.0146484375 799.623779296875 -2854.110107421875 802.9949951171875 C -2855.205322265625 806.3662109375 -2857.300048828125 809.2493896484375 -2860.16796875 811.332763671875 L -2906.193359375 844.7724609375 C -2909.06103515625 846.8558959960938 -2912.450439453125 847.9571533203125 -2915.9951171875 847.9571533203125 Z" stroke="none"/><path d="M -2915.9951171875 847.4571533203125 C -2912.556640625 847.4571533203125 -2909.26904296875 846.388916015625 -2906.4873046875 844.367919921875 L -2860.461669921875 810.9282836914063 C -2857.679931640625 808.9073486328125 -2855.648193359375 806.110595703125 -2854.585693359375 802.8404541015625 C -2853.523193359375 799.5703735351563 -2853.523193359375 796.1133422851563 -2854.5859375 792.8432006835938 L -2872.166015625 738.7372436523438 C -2873.228271484375 735.4671020507813 -2875.26025390625 732.6703491210938 -2878.0419921875 730.6492919921875 C -2880.82373046875 728.6282348632813 -2884.111572265625 727.5599975585938 -2887.5498046875 727.5599975585938 L -2944.4404296875 727.5599975585938 C -2947.87890625 727.5599975585938 -2951.166748046875 728.6282348632813 -2953.948486328125 730.6492919921875 C -2956.72998046875 732.6703491210938 -2958.761962890625 735.4671020507813 -2959.82421875 738.7372436523438 L -2977.404296875 792.8432006835938 C -2978.467041015625 796.1133422851563 -2978.467041015625 799.5703735351563 -2977.404541015625 802.8404541015625 C -2976.342041015625 806.110595703125 -2974.310302734375 808.9073486328125 -2971.5283203125 810.9282836914063 L -2925.5029296875 844.367919921875 C -2922.72119140625 846.388916015625 -2919.43359375 847.4571533203125 -2915.9951171875 847.4571533203125 M -2915.9951171875 848.4571533203125 C -2919.537841796875 848.4571533203125 -2923.080810546875 847.36376953125 -2926.0908203125 845.1769409179688 L -2972.1162109375 811.7373046875 C -2978.13623046875 807.36376953125 -2980.655029296875 799.6110229492188 -2978.35546875 792.5341796875 L -2960.775390625 738.42822265625 C -2958.476318359375 731.3513793945313 -2951.881591796875 726.5599975585938 -2944.4404296875 726.5599975585938 L -2887.5498046875 726.5599975585938 C -2880.10888671875 726.5599975585938 -2873.51416015625 731.3513793945313 -2871.21484375 738.42822265625 L -2853.634765625 792.5341796875 C -2851.335205078125 799.6110229492188 -2853.85400390625 807.36376953125 -2859.8740234375 811.7373046875 L -2905.8994140625 845.1769409179688 C -2908.909423828125 847.36376953125 -2912.452392578125 848.4571533203125 -2915.9951171875 848.4571533203125 Z" stroke="none" fill="#e4b940"/></g></g><g transform="translate(319.305 521.276)"><g transform="translate(-17.883 -19)"><g transform="translate(43.05 12.139)"><path d="M5757.2,4337.2s-2.5-14.451-5.877-22.037a38.874,38.874,0,0,1,11.185-3.121s2.887,15.865,3.357,24.181Z" transform="translate(-5751.32 -4312.039)" fill="#53770c"/></g><path d="M5790.953,4455.279l-6.11,1.957-1.492-5.046c-2.692-.511-4.654-3.49-5.425-6.964l5.891-5.016-.274-2.3c-.46-2.117,1.515-2.328,1.835-1.378l.447,1.164,1.257,3.269a7.11,7.11,0,0,1,2.174,9.378Z" transform="translate(-5731.8 -4409.518)" fill="#ffaf57"/><path d="M5830.745,4584.259l6.056-4.286-.787-2.515-7.136,3.3Z" transform="translate(-5776.862 -4534.631)" fill="#fff"/><g transform="translate(44.756 13.713)"><path d="M5769.971,4350.055s-1.119-14.67-3.895-22.618a43.62,43.62,0,0,1,12.223-1.764s1.374,16.121.985,24.446Z" transform="translate(-5766.077 -4325.659)" fill="#61a30a"/><path d="M5787.883,4342.835s2.489,10,2.58,15.1a2.464,2.464,0,0,1,1.868,2.756l3.76-.1s-.4-2.368,1.3-2.693c0,0-.669-13.685-1.283-16.213,0,0-1.623-.017-1.844-2.275,0,0-3.5.386-4.771.669A2.206,2.206,0,0,1,5787.883,4342.835Z" transform="translate(-5785.362 -4337.814)" fill="#8ac133"/><path d="M5815.353,4414.853a2.743,2.743,0,1,1-2.311-3.116A2.744,2.744,0,0,1,5815.353,4414.853Z" transform="translate(-5804.829 -4401.757)" fill="#53770c"/></g><g transform="translate(45.184 24.741)"><g transform="translate(0 0)"><path d="M5774.275,4426.066l-4.021-2.8c-1.241-.866.2-2.874,1.414-2.027l4.021,2.8C5776.93,4424.9,5775.491,4426.916,5774.275,4426.066Z" transform="translate(-5769.779 -4421.033)" fill="#ffc278"/><path d="M5805.46,4447.393a.585.585,0,0,1-.816.146l-1.011-.706a.587.587,0,0,1-.146-.817l.318-.457a.589.589,0,0,1,.818-.146l1.011.7a.587.587,0,0,1,.144.817Z" transform="translate(-5799.496 -4442.5)" fill="#ffd9b0"/></g><g transform="translate(0 3.013)"><path d="M5774.275,4452.122l-4.021-2.8c-1.241-.867.2-2.874,1.414-2.028l4.021,2.8C5776.93,4450.959,5775.491,4452.971,5774.275,4452.122Z" transform="translate(-5769.779 -4447.087)" fill="#ffc278"/><path d="M5805.46,4473.448a.584.584,0,0,1-.816.146l-1.011-.7a.587.587,0,0,1-.146-.817l.318-.457a.589.589,0,0,1,.818-.146l1.011.706a.585.585,0,0,1,.144.816Z" transform="translate(-5799.496 -4468.557)" fill="#ffd9b0"/></g><g transform="translate(0 6.026)"><path d="M5774.275,4478.183l-4.021-2.8c-1.241-.866.2-2.874,1.414-2.027l4.021,2.8C5776.93,4477.021,5775.491,4479.031,5774.275,4478.183Z" transform="translate(-5769.779 -4473.148)" fill="#ffc278"/><path d="M5805.46,4499.509a.585.585,0,0,1-.816.145l-1.011-.7a.586.586,0,0,1-.146-.817l.318-.458a.588.588,0,0,1,.818-.146l1.011.7a.587.587,0,0,1,.144.817Z" transform="translate(-5799.496 -4494.617)" fill="#ffd9b0"/></g><g transform="translate(0 9.038)"><path d="M5774.275,4504.237l-4.021-2.8c-1.241-.867.2-2.875,1.414-2.028l4.021,2.8C5776.93,4503.074,5775.491,4505.085,5774.275,4504.237Z" transform="translate(-5769.779 -4499.203)" fill="#ffc278"/><path d="M5805.46,4525.568a.586.586,0,0,1-.816.146l-1.011-.7a.588.588,0,0,1-.146-.818l.318-.457a.589.589,0,0,1,.818-.146l1.011.706a.585.585,0,0,1,.144.816Z" transform="translate(-5799.496 -4520.677)" fill="#ffd9b0"/></g></g><g transform="translate(29.147 23.159)"><path d="M5636.96,4432.508s-2.5-14.452-5.878-22.038a38.894,38.894,0,0,1,11.186-3.12s2.887,15.865,3.357,24.181Z" transform="translate(-5631.082 -4407.35)" fill="#53770c"/></g><path d="M5669.145,4551.9l-5.561,1.009-.479-5.411c-2.692-.511-4.655-3.489-5.427-6.963l5.891-5.018-.274-2.3c-.46-2.118,1.516-2.325,1.834-1.377l.448,1.165,1.258,3.268a7.108,7.108,0,0,1,2.172,9.378Z" transform="translate(-5625.456 -4493.812)" fill="#ffaf57"/><g transform="translate(30.853 24.733)"><path d="M5649.732,4445.362s-1.118-14.67-3.893-22.617a43.592,43.592,0,0,1,12.224-1.764s1.374,16.121.984,24.447Z" transform="translate(-5645.839 -4420.967)" fill="#61a30a"/><path d="M5667.632,4438.145s2.491,10,2.582,15.1a2.463,2.463,0,0,1,1.867,2.756l3.76-.1s-.4-2.369,1.3-2.693c0,0-.668-13.685-1.282-16.213,0,0-1.623-.017-1.846-2.275,0,0-3.5.386-4.771.669A2.208,2.208,0,0,1,5667.632,4438.145Z" transform="translate(-5665.113 -4433.122)" fill="#8ac133"/><path d="M5695.114,4510.158a2.743,2.743,0,1,1-2.31-3.117A2.743,2.743,0,0,1,5695.114,4510.158Z" transform="translate(-5684.592 -4497.062)" fill="#53770c"/></g><g transform="translate(31.28 35.761)"><g transform="translate(0 0)"><path d="M5654.024,4521.378l-4.02-2.8c-1.242-.867.2-2.874,1.414-2.028l4.021,2.8C5656.678,4520.215,5655.241,4522.226,5654.024,4521.378Z" transform="translate(-5649.528 -4516.344)" fill="#ffc278"/><path d="M5685.217,4542.7a.588.588,0,0,1-.818.146l-1.01-.7a.589.589,0,0,1-.146-.818l.319-.457a.585.585,0,0,1,.817-.145l1.01.7a.587.587,0,0,1,.146.817Z" transform="translate(-5679.251 -4537.811)" fill="#ffd9b0"/></g><g transform="translate(0 3.013)"><path d="M5654.024,4547.436l-4.02-2.8c-1.242-.866.2-2.873,1.414-2.027l4.021,2.8C5656.678,4546.273,5655.241,4548.284,5654.024,4547.436Z" transform="translate(-5649.528 -4542.402)" fill="#ffc278"/><path d="M5685.217,4568.759a.589.589,0,0,1-.818.147l-1.01-.706a.589.589,0,0,1-.146-.818l.319-.457a.586.586,0,0,1,.817-.146l1.01.7a.587.587,0,0,1,.146.817Z" transform="translate(-5679.251 -4563.869)" fill="#ffd9b0"/></g><g transform="translate(0 6.026)"><path d="M5654.024,4573.493l-4.02-2.8c-1.242-.866.2-2.874,1.414-2.028l4.021,2.8C5656.678,4572.331,5655.241,4574.341,5654.024,4573.493Z" transform="translate(-5649.528 -4568.458)" fill="#ffc278"/><path d="M5685.217,4594.818a.589.589,0,0,1-.818.145l-1.01-.7a.588.588,0,0,1-.146-.817l.319-.457a.586.586,0,0,1,.817-.146l1.01.7a.588.588,0,0,1,.146.817Z" transform="translate(-5679.251 -4589.926)" fill="#ffd9b0"/></g><g transform="translate(0 9.039)"><path d="M5654.024,4599.55l-4.02-2.8c-1.242-.867.2-2.874,1.414-2.028l4.021,2.8C5656.678,4598.388,5655.241,4600.4,5654.024,4599.55Z" transform="translate(-5649.528 -4594.517)" fill="#ffc278"/><path d="M5685.217,4620.874a.589.589,0,0,1-.818.146l-1.01-.705a.588.588,0,0,1-.146-.817l.319-.458a.586.586,0,0,1,.817-.145l1.01.7a.587.587,0,0,1,.146.817Z" transform="translate(-5679.251 -4615.982)" fill="#ffd9b0"/></g></g><path d="M5833.5,4585.948l-8.459,3.909s4.594,14.806,17.078,19.172l6.505-7.128S5836.966,4596.943,5833.5,4585.948Z" transform="translate(-5773.467 -4542.139)" fill="url(#c)"/><path d="M5846.843,4637.184a.909.909,0,1,1-.909-.909A.91.91,0,0,1,5846.843,4637.184Z" transform="translate(-5791.141 -4586.647)" fill="#fff"/><g transform="translate(17.564)"><path d="M5539.571,4232.217s2.505-14.453,5.878-22.039a38.883,38.883,0,0,0-11.185-3.12s-2.887,15.865-3.357,24.18Z" transform="translate(-5530.908 -4207.059)" fill="#53770c"/></g><path d="M5517.4,4350.3l6.109,1.957,1.493-5.047c2.692-.511,4.654-3.488,5.427-6.963l-5.892-5.017.275-2.3c.46-2.117-1.517-2.326-1.835-1.376l-.448,1.164-1.257,3.269a7.107,7.107,0,0,0-2.172,9.378Z" transform="translate(-5501.401 -4316.679)" fill="#ffaf57"/><path d="M5516.663,4479.277l-6.057-4.285.786-2.516,7.138,3.3Z" transform="translate(-5495.389 -4441.788)" fill="#fff"/><g transform="translate(17.124 1.576)"><path d="M5536.48,4245.079s1.118-14.671,3.893-22.618a43.581,43.581,0,0,0-12.224-1.764s-1.373,16.121-.982,24.446Z" transform="translate(-5527.097 -4220.683)" fill="#61a30a"/><path d="M5547.393,4237.857s-2.491,10-2.58,15.1a2.464,2.464,0,0,0-1.869,2.757l-3.759-.106s.4-2.367-1.3-2.693c0,0,.669-13.684,1.283-16.213,0,0,1.624-.017,1.843-2.274,0,0,3.5.386,4.771.668A2.21,2.21,0,0,0,5547.393,4237.857Z" transform="translate(-5536.636 -4232.835)" fill="#8ac133"/><path d="M5550.691,4309.873a2.742,2.742,0,1,0,2.31-3.116A2.742,2.742,0,0,0,5550.691,4309.873Z" transform="translate(-5547.936 -4296.778)" fill="#53770c"/></g><g transform="translate(23.584 12.603)"><g transform="translate(0)"><path d="M5584.89,4321.091l4.02-2.8c1.242-.867-.2-2.874-1.414-2.027l-4.02,2.8C5582.235,4319.928,5583.673,4321.938,5584.89,4321.091Z" transform="translate(-5582.997 -4316.057)" fill="#ffc278"/><path d="M5583.395,4342.413a.587.587,0,0,0,.818.146l1.01-.706a.588.588,0,0,0,.146-.817l-.319-.457a.586.586,0,0,0-.817-.146l-1.01.705a.585.585,0,0,0-.146.816Z" transform="translate(-5582.971 -4337.522)" fill="#ffd9b0"/></g><g transform="translate(0 3.013)"><path d="M5584.89,4347.148l4.02-2.8c1.242-.866-.2-2.874-1.414-2.028l-4.02,2.8C5582.235,4345.987,5583.673,4348,5584.89,4347.148Z" transform="translate(-5582.997 -4342.115)" fill="#ffc278"/><path d="M5583.395,4368.474a.588.588,0,0,0,.818.146l1.01-.705a.589.589,0,0,0,.146-.818l-.319-.457a.588.588,0,0,0-.817-.146l-1.01.705a.587.587,0,0,0-.146.817Z" transform="translate(-5582.971 -4363.583)" fill="#ffd9b0"/></g><g transform="translate(0 6.026)"><path d="M5584.89,4373.207l4.02-2.8c1.242-.866-.2-2.874-1.414-2.026l-4.02,2.8C5582.235,4372.045,5583.673,4374.055,5584.89,4373.207Z" transform="translate(-5582.997 -4368.173)" fill="#ffc278"/><path d="M5583.395,4394.529a.588.588,0,0,0,.818.145l1.01-.705a.588.588,0,0,0,.146-.817l-.319-.458a.587.587,0,0,0-.817-.145l-1.01.705a.586.586,0,0,0-.146.816Z" transform="translate(-5582.971 -4389.637)" fill="#ffd9b0"/></g><g transform="translate(0 9.039)"><path d="M5584.89,4399.263l4.02-2.8c1.242-.866-.2-2.874-1.414-2.028l-4.02,2.8C5582.235,4398.1,5583.673,4400.11,5584.89,4399.263Z" transform="translate(-5582.997 -4394.229)" fill="#ffc278"/><path d="M5583.395,4420.588a.589.589,0,0,0,.818.146l1.01-.705a.588.588,0,0,0,.146-.817l-.319-.458a.587.587,0,0,0-.817-.146l-1.01.705a.586.586,0,0,0-.146.816Z" transform="translate(-5582.971 -4415.696)" fill="#ffd9b0"/></g></g><path d="M5394.125,4480.969l8.459,3.909s-4.595,14.806-17.079,19.173l-6.5-7.128S5390.659,4491.964,5394.125,4480.969Z" transform="translate(-5379 -4449.298)" fill="url(#c)"/><path d="M5547.27,4532.2a.908.908,0,1,0,.908-.908A.908.908,0,0,0,5547.27,4532.2Z" transform="translate(-5527.814 -4493.805)" fill="#fff"/><rect width="7.669" height="2.773" transform="translate(37.087 54.314)" fill="#fff"/><rect width="9.709" height="22.514" transform="translate(36.418 55.742)" fill="url(#c)"/><path d="M5707.339,4706.179a.909.909,0,1,1-.909-.909A.909.909,0,0,1,5707.339,4706.179Z" transform="translate(-5667.768 -4647.664)" fill="#fff"/></g></g></g></svg>