<svg xmlns="http://www.w3.org/2000/svg" xmlns:xlink="http://www.w3.org/1999/xlink" width="94.492" height="90.935" viewBox="0 0 94.492 90.935"><defs><linearGradient id="a" y1="0.5" x2="1" y2="0.5" gradientUnits="objectBoundingBox"><stop offset="0" stop-color="#e0c16a"/><stop offset="1" stop-color="#574000"/></linearGradient><linearGradient id="c" x1="0.5" y1="-0.028" x2="0.5" y2="1.559" gradientUnits="objectBoundingBox"><stop offset="0.019" stop-color="#fff"/><stop offset="0.648" stop-color="#cdcdcd"/></linearGradient><linearGradient id="d" x1="0.5" y1="0.939" x2="0.5" y2="-0.503" xlink:href="#c"/><filter id="e" x="13.2" y="12.134" width="69.69" height="68.583" filterUnits="userSpaceOnUse"><feOffset dx="0.77" dy="1.539" input="SourceAlpha"/><feGaussianBlur stdDeviation="0.77" result="f"/><feFlood flood-opacity="0.302"/><feComposite operator="in" in2="f"/><feComposite in="SourceGraphic"/></filter><clipPath id="g"><ellipse cx="32.536" cy="31.983" rx="32.536" ry="31.983" fill="none"/></clipPath></defs><g transform="translate(0 0)"><ellipse cx="42.642" cy="41.917" rx="42.642" ry="41.917" transform="translate(4.634 2.625)" fill="url(#a)"/><path d="M192.172,411.739c16.907,5.2,29.668,19.615,31.969,36.986a44.793,44.793,0,0,1-18.285,41.98,46.553,46.553,0,0,1-47.351,3.806,45.056,45.056,0,0,1-24.953-38.1c-.817-19.75,11.964-37.729,30.852-44.218,1.059-.364.587-2.024-.482-1.656-16.844,5.786-29.416,20.4-31.747,37.9a46.551,46.551,0,0,0,19.954,44.329,48.344,48.344,0,0,0,49.583,2.555A46.718,46.718,0,0,0,226.27,454.16c-.194-20.287-14.066-38.066-33.648-44.087-1.079-.331-1.524,1.336-.451,1.665Z" transform="translate(-131.781 -410.03)" fill="url(#a)"/><g transform="translate(9.423 7.678)"><ellipse cx="37.852" cy="37.208" rx="37.852" ry="37.208" fill="url(#c)"/><g transform="matrix(1, 0, 0, 1, -9.42, -7.68)" filter="url(#e)"><ellipse cx="32.536" cy="31.983" rx="32.536" ry="31.983" transform="translate(14.74 12.9)" fill="url(#d)"/></g></g><g transform="translate(14.739 12.904)"><g clip-path="url(#g)"><g transform="translate(4.194 9.179)"><g transform="translate(15.619)"><path d="M176.043,466.858v6.172l7.268,6.671,2.316-2.621,3.757-4.249v-6.77Z" transform="translate(-170.618 -437.538)" fill="#d0ad9b"/><path d="M195.055,453.068c-.023-.466-.274-1.249-.881-.8-.275.2-.14.7-.4.872-.618.406-.677-.509-.718-.914-.156-1.54.536-3.018.351-4.53-.257-2.108-2.225-3.537-4.078-4.251a9.51,9.51,0,0,0-6.16-.043c-.1-.034-.209-.061-.313-.092v26.011c.1,0,.21,0,.313-.009a4.953,4.953,0,0,0,2.39-.3,9.41,9.41,0,0,0,2.587-2.27c.836-.917,2.107-1.387,2.839-2.4a5.046,5.046,0,0,0,.763-1.607c.246-.872.136-2.243.8-2.943.6-.63,1.19-.88,1.618-1.752A10.368,10.368,0,0,0,195.055,453.068Z" transform="translate(-171.278 -435.296)" fill="#eccdb2"/><path d="M175.774,443.445c-1.853.714-3.821,2.143-4.079,4.251-.184,1.513.508,2.99.352,4.53-.042.4-.1,1.32-.718.914-.257-.168-.122-.668-.4-.872-.607-.45-.856.333-.881.8a10.358,10.358,0,0,0,.89,4.978c.426.872,1.021,1.122,1.617,1.752.659.7.55,2.07.8,2.943a5.047,5.047,0,0,0,.763,1.607c.732,1.009,2,1.479,2.84,2.4a9.4,9.4,0,0,0,2.587,2.27,4.419,4.419,0,0,0,2.075.308V443.311A9.492,9.492,0,0,0,175.774,443.445Z" transform="translate(-170.036 -435.297)" fill="#eccdb2"/><path d="M170.877,450.168a6.875,6.875,0,0,1,.257,2.394c0,.117-.014.294-.011.486h1.109c.011-.233,0-.452-.006-.587a15.986,15.986,0,0,1,.023-1.777c.044-.851-.061-1.726.024-2.572a4.536,4.536,0,0,1,4.239-3.959c1.552-.122,3.107.2,4.662.2,1.922,0,2.788-.922,4.3-1.865.406-.253.164-.284.588-.177.275.07.628.445.866.591,1.439.882,4.025,1.756,4.44,3.615a18.013,18.013,0,0,1,.22,4.442,16.314,16.314,0,0,0-.14,2.089h.866c.276-.9.647-2.117.738-2.589a24.287,24.287,0,0,0,.367-3.521c.313-2.848.47-5.575-1.285-7.963-1.88-2.558-4.664-4.053-6.152-3.862-.085.01-1.091.1-.964.216a4.825,4.825,0,0,0-2.114-.667c-3.491-.833-7.906,1.338-10.443,3.656-2.677,2.448-2.281,5.6-1.978,8.621A18.558,18.558,0,0,0,170.877,450.168Z" transform="translate(-170.059 -434.48)" fill="#29150d"/></g><g transform="translate(0 33.405)"><path d="M186.052,494.425l3.332-8.913-6.124-6.833h-.824s-6.44,6.766-6.394,7.257l3.535,8.49Z" transform="translate(-154.999 -472.164)" fill="#bfcfdb"/><path d="M179.706,493.067a.257.257,0,0,0,.01.15l.455,1.169h5.773l.455-1.169a.25.25,0,0,0,.01-.15l-2.177-9.883a1.345,1.345,0,0,1,.126-.926l.826-1.553a.251.251,0,0,0-.057-.272q-.477-.476-.955-.949a2.564,2.564,0,0,1-.6-.7c-.089-.2-.337-.654-.624-.462-.25.168-.335.432-.5.655a5.8,5.8,0,0,1-.611.608c-.285.281-.569.564-.854.847a.252.252,0,0,0-.056.272l.827,1.553a1.355,1.355,0,0,1,.126.926Z" transform="translate(-155.353 -472.125)" fill="#d7b74c"/><g transform="translate(0 3.438)"><path d="M178.645,494.1l-3.57-11.854-2.1-6.968-.224.069c-.526.154-1.926.579-3.7,1.112-4.769,1.446-12.206,3.7-12.406,3.837-.17.116-1.962,3.735-3.437,6.758a4.565,4.565,0,0,0-.464,2.009V494.1Z" transform="translate(-152.743 -475.273)" fill="#272425"/><path d="M211.17,494.1v-4.865a6.489,6.489,0,0,0-.661-2.851c-1.4-2.863-2.953-5.982-3.111-6.089-.2-.135-7.641-2.391-12.411-3.837-1.768-.533-3.173-.953-3.7-1.112l-.228-.069-2.929,9.433L185.22,494.1Z" transform="translate(-155.888 -475.273)" fill="#272425"/></g><path d="M189.314,471.466l-6.6,5.958a.265.265,0,0,1-.354,0l-6.6-5.958-1.477,4.324,2.854,9.446,5.187-7.3a.265.265,0,0,1,.433,0l5.188,7.3,2.853-9.446Z" transform="translate(-154.828 -471.466)" fill="#e7f3ff"/><path d="M189.634,494.1l5.948-11.263-3.466-1.462,3.984-1.959a28.089,28.089,0,0,0-1.141-2.957c-1.768-.533-3.173-.953-3.7-1.112l-3.157,9.364-1.013,3.014-2.169,6.376Z" transform="translate(-155.859 -471.842)" fill="#434244"/><path d="M170.058,482.839l5.857,11.263h4.571l-1.94-6.376-1.845-5.479-2.322-6.9c-.526.154-1.926.579-3.7,1.112a29.14,29.14,0,0,0-1.141,2.957l3.984,1.959Z" transform="translate(-154.369 -471.842)" fill="#434244"/></g></g></g></g></g></svg>