<svg xmlns="http://www.w3.org/2000/svg" xmlns:xlink="http://www.w3.org/1999/xlink" width="94.492" height="90.935" viewBox="0 0 94.492 90.935"><defs><linearGradient id="a" y1="0.5" x2="1" y2="0.5" gradientUnits="objectBoundingBox"><stop offset="0" stop-color="#e0c16a"/><stop offset="1" stop-color="#574000"/></linearGradient><linearGradient id="c" x1="0.5" y1="-0.028" x2="0.5" y2="1.559" gradientUnits="objectBoundingBox"><stop offset="0.019" stop-color="#fff"/><stop offset="0.648" stop-color="#cdcdcd"/></linearGradient><linearGradient id="d" x1="0.5" y1="0.939" x2="0.5" y2="-0.503" xlink:href="#c"/><filter id="e" x="13.2" y="12.134" width="69.69" height="68.583" filterUnits="userSpaceOnUse"><feOffset dx="0.77" dy="1.539" input="SourceAlpha"/><feGaussianBlur stdDeviation="0.77" result="f"/><feFlood flood-opacity="0.302"/><feComposite operator="in" in2="f"/><feComposite in="SourceGraphic"/></filter><clipPath id="g"><ellipse cx="32.536" cy="31.983" rx="32.536" ry="31.983" fill="none"/></clipPath></defs><g transform="translate(0 0)"><ellipse cx="42.642" cy="41.917" rx="42.642" ry="41.917" transform="translate(4.634 2.625)" fill="url(#a)"/><path d="M255.148,211.762c16.907,5.2,29.668,19.615,31.969,36.986a44.794,44.794,0,0,1-18.285,41.98,46.556,46.556,0,0,1-47.351,3.806,45.059,45.059,0,0,1-24.953-38.1c-.817-19.75,11.964-37.729,30.852-44.218,1.059-.364.587-2.024-.482-1.657-16.844,5.787-29.416,20.4-31.747,37.9A46.552,46.552,0,0,0,215.106,292.8a48.342,48.342,0,0,0,49.583,2.554,46.716,46.716,0,0,0,24.558-41.168C289.052,233.9,275.18,216.116,255.6,210.1c-1.079-.331-1.524,1.336-.451,1.665Z" transform="translate(-194.757 -210.053)" fill="url(#a)"/><g transform="translate(9.423 7.678)"><ellipse cx="37.852" cy="37.208" rx="37.852" ry="37.208" fill="url(#c)"/><g transform="matrix(1, 0, 0, 1, -9.42, -7.68)" filter="url(#e)"><ellipse cx="32.536" cy="31.983" rx="32.536" ry="31.983" transform="translate(14.74 12.9)" fill="url(#d)"/></g></g><g transform="translate(14.739 12.904)"><g clip-path="url(#g)"><g transform="translate(3.679 8.15)"><g transform="translate(15.747 16.695)"><path d="M235.743,254.757a4.242,4.242,0,0,0-.413-1.867,4.687,4.687,0,0,0-.2-.449,1.065,1.065,0,0,0-.511-.522c-1-.4-1.937.977-2.02,1.811a4.04,4.04,0,0,0-.006.62,4.155,4.155,0,0,0,.253,1.253c.07.2.151.4.241.593.983,1.321.983,4.17,3.119,2.746.712-.712,0-2.849-.465-3.561A1.716,1.716,0,0,1,235.743,254.757Z" transform="translate(-232.584 -251.848)" fill="#eccdb2"/><g transform="translate(20.301)"><path d="M256.95,251.919a1.07,1.07,0,0,0-.512.522,4.692,4.692,0,0,0-.2.449,4.217,4.217,0,0,0-.413,1.867,1.716,1.716,0,0,1,0,.622c-.465.713-1.177,2.849-.465,3.561,2.137,1.424,2.137-1.424,3.119-2.746.089-.2.171-.393.241-.593a4.127,4.127,0,0,0,.252-1.253,3.724,3.724,0,0,0-.006-.62C258.887,252.9,257.946,251.518,256.95,251.919Z" transform="translate(-255.061 -251.848)" fill="#eccdb2"/></g></g><g transform="translate(17.832 5.922)"><g transform="translate(9.512 23.729)"><path d="M252.1,266.193l-.03.026c-.21.225-.427.45-.657.672a9.982,9.982,0,0,1-4.762,2.869,5.553,5.553,0,0,1-.712.032c-.188,0-.371,0-.515-.014v9.448c.116-.007.226-.007.35-.024a2.34,2.34,0,0,0,.356,0c3.62.5,3.656-3.3,6.444-6.487-.237-1.591-.447-1.656-.623-3.385A17.475,17.475,0,0,1,252.1,266.193Z" transform="translate(-245.424 -266.193)" fill="#d0ad9b"/></g><g transform="translate(3.311 23.729)"><path d="M239.731,266.823c-.207-.2-.4-.4-.59-.607l-.026-.023c-.087,1.435.221,1.6.066,3.138-.176,1.73-.387,1.794-.623,3.385,2.691,3.076,2.929,6.712,6.2,6.511v-9.448a1.813,1.813,0,0,1-.2-.018A10.086,10.086,0,0,1,239.731,266.823Z" transform="translate(-238.558 -266.193)" fill="#d0ad9b"/></g><g transform="translate(0 0.034)"><path d="M235.141,246.322a11.617,11.617,0,0,0-.165,1.722,58.838,58.838,0,0,0,.233,7.848,11.144,11.144,0,0,0,2.8,6.918c.237.281.5.573.778.866.191.2.383.4.59.607a10.085,10.085,0,0,0,4.832,2.937,1.813,1.813,0,0,0,.2.018v-27.28C238.708,240.33,235.952,241.593,235.141,246.322Z" transform="translate(-234.892 -239.958)" fill="#eccdb2"/></g><g transform="translate(9.512)"><path d="M245.424,267.235c.144.009.327.014.515.014a5.546,5.546,0,0,0,.712-.032,9.981,9.981,0,0,0,4.762-2.869c.229-.222.446-.447.657-.672.277-.294.542-.587.781-.869a11.147,11.147,0,0,0,2.8-6.918,58.765,58.765,0,0,0,.235-7.848,11.74,11.74,0,0,0-.166-1.722c-.836-4.872-3.726-6.067-9.779-6.4-.177.01-.342.023-.515.034" transform="translate(-245.424 -239.92)" fill="#eccdb2"/></g></g><g transform="translate(15.997 0.715)"><path d="M234.8,238.082c-2.351,2.747-2.18,5.648-1.462,9.054.19.9.692,4.142,1.361,6.74.1.392.61.094.865.132.34-1.059-.01-6.022.255-7.387.253-1.3.545-3.657,1.61-4.507a4.3,4.3,0,0,1,2.859-.776c1.009.039,2,.28,3,.409a5.263,5.263,0,0,0,1.162,0v-7.595c-.438.024-.874.056-1.311.1A12.254,12.254,0,0,0,234.8,238.082Z" transform="translate(-232.861 -234.155)" fill="#7b4f3d"/></g><g transform="translate(27.581)"><path d="M255.059,233.369c-3.05.745-6.233.532-9.372.709v7.595c1.882-.178,3.978-1.081,5.664-.52,1.892.63,2.926,4.222,3.348,5.966a29.733,29.733,0,0,1,.4,6.214l.908-.145c.535-2.965,2.258-5.489,2.4-8.671a13.986,13.986,0,0,0-.05-1.907C258.271,241.744,256.176,233.1,255.059,233.369Z" transform="translate(-245.687 -233.363)" fill="#7b4f3d"/></g><g transform="translate(0 35.146)"><g transform="translate(17.831)"><path d="M238.35,272.277l-3.458,3.009a33.86,33.86,0,0,0,6.556,8.956s.949-3.8,3.441-5.688C241.092,277.256,238.35,272.277,238.35,272.277Z" transform="translate(-234.892 -272.277)" fill="#fff"/></g><g transform="translate(0 1.554)"><path d="M242.983,293.284l-.005-14.565s-1.658,3.553-3.559,2.607L236.484,274l-2.585,1.19-3,1.388-.926.285-2.457.77-6.245,1.936a4.3,4.3,0,0,0-1.844,1.147l-2.4,2.542a4.275,4.275,0,0,0-1.1,2.15c-.176.953-.446,6.084-.777,7.879Z" transform="translate(-215.149 -273.998)" fill="#272425"/></g></g><g transform="translate(27.88 36.7)"><path d="M273.854,293.284c-.331-1.8-.6-6.926-.779-7.879a4.261,4.261,0,0,0-1.1-2.15l-2.4-2.542a4.3,4.3,0,0,0-1.845-1.147l-6.245-1.936-2.457-.77-.926-.285-3-1.388L252.518,274l-2.934,7.328c-1.9.947-3.56-2.607-3.56-2.607l-.006,14.565Z" transform="translate(-246.018 -273.998)" fill="#272425"/></g><g transform="translate(14.365 33.577)"><g transform="translate(6.372 7.063)"><path d="M250.979,293.707l1.593-7.939-6.638-7.408h-.894s-6.981,7.335-6.931,7.867l1.584,7.48Z" transform="translate(-238.109 -278.36)" fill="#bfcfdb"/></g><g transform="translate(10.834 6.669)"><path d="M244.536,283.245l-1.486,10.42h5.518l-1.486-10.42a1.46,1.46,0,0,1,.137-1l.9-1.685a.274.274,0,0,0-.062-.3l-1.035-1.029a2.774,2.774,0,0,1-.653-.757c-.1-.219-.365-.708-.676-.5-.272.182-.363.468-.539.709a6.346,6.346,0,0,1-.663.659q-.462.458-.924.918a.274.274,0,0,0-.062.3l.9,1.685A1.465,1.465,0,0,1,244.536,283.245Z" transform="translate(-243.05 -277.924)" fill="#d7b74c"/></g><g transform="translate(5.256)"><path d="M245.39,277a.254.254,0,0,1-.358,0l-6.669-6.46-1.49,4.688,2.881,10.241,5.238-7.912a.258.258,0,0,1,.436,0l5.238,7.912,2.882-10.241-1.49-4.688Z" transform="translate(-236.873 -270.54)" fill="#e7f3ff"/></g><g transform="translate(0 3.802)"><path d="M231.619,282.87l3.56,10.487h6.1l-.461-1.512-2-9.615-2.516-7.48c-.57.168-2.474,1.011-4.4,1.59a16.6,16.6,0,0,0-.853,2.822l4.319,2.124Z" transform="translate(-231.054 -274.75)" fill="#434244"/><path d="M255.893,293.357l3.6-10.487-3.757-1.585,4.318-2.124a15.243,15.243,0,0,0-.852-2.629c-1.917-.579-3.824-1.61-4.395-1.782L251.383,284.9l-1.1,6.944-.514,1.512Z" transform="translate(-232.866 -274.75)" fill="#434244"/></g></g></g></g></g></g></svg>