<svg xmlns="http://www.w3.org/2000/svg" xmlns:xlink="http://www.w3.org/1999/xlink" width="201.404" height="196.897" viewBox="0 0 201.404 196.897"><defs><filter id="a" x="0" y="0" width="201.404" height="196.897" filterUnits="userSpaceOnUse"><feOffset dy="15" input="SourceAlpha"/><feGaussianBlur stdDeviation="12.5" result="b"/><feFlood flood-opacity="0.2"/><feComposite operator="in" in2="b"/><feComposite in="SourceGraphic"/></filter><linearGradient id="c" x1="0.146" y1="0.146" x2="0.952" y2="0.974" gradientUnits="objectBoundingBox"><stop offset="0" stop-color="#565a6f"/><stop offset="1" stop-color="#3e4257"/></linearGradient><linearGradient id="d" x1="0.027" y1="0.047" x2="0.98" y2="0.966" gradientUnits="objectBoundingBox"><stop offset="0" stop-color="#e4b940"/><stop offset="1" stop-color="#8e6f16"/></linearGradient><linearGradient id="e" x1="0.5" y1="0" x2="0.5" y2="1" xlink:href="#d"/></defs><g transform="translate(-239.856 -464.5)"><g transform="matrix(1, 0, 0, 1, 239.86, 464.5)" filter="url(#a)"><g transform="translate(3016.7 -704.06)" fill="#3a3d4d"><path d="M -2915.9951171875 847.9571533203125 C -2919.539794921875 847.9571533203125 -2922.92919921875 846.8558959960938 -2925.796875 844.7724609375 L -2971.822265625 811.3328247070313 C -2974.690185546875 809.2493896484375 -2976.784912109375 806.3662109375 -2977.880126953125 802.9949951171875 C -2978.9755859375 799.623779296875 -2978.975341796875 796.0599365234375 -2977.8798828125 792.688720703125 L -2960.2998046875 738.582763671875 C -2959.20458984375 735.2115478515625 -2957.10986328125 732.3283081054688 -2954.2421875 730.2448120117188 C -2951.37451171875 728.1612548828125 -2947.985107421875 727.0599975585938 -2944.4404296875 727.0599975585938 L -2887.5498046875 727.0599975585938 C -2884.005126953125 727.0599975585938 -2880.61572265625 728.1612548828125 -2877.748046875 730.2448120117188 C -2874.88037109375 732.3283081054688 -2872.78564453125 735.2115478515625 -2871.6904296875 738.5827026367188 L -2854.1103515625 792.6886596679688 C -2853.014892578125 796.0599365234375 -2853.0146484375 799.623779296875 -2854.110107421875 802.9949951171875 C -2855.205322265625 806.3662109375 -2857.300048828125 809.2493896484375 -2860.16796875 811.332763671875 L -2906.193359375 844.7724609375 C -2909.06103515625 846.8558959960938 -2912.450439453125 847.9571533203125 -2915.9951171875 847.9571533203125 Z" stroke="none"/><path d="M -2915.9951171875 847.4571533203125 C -2912.556640625 847.4571533203125 -2909.26904296875 846.388916015625 -2906.4873046875 844.367919921875 L -2860.461669921875 810.9282836914063 C -2857.679931640625 808.9073486328125 -2855.648193359375 806.110595703125 -2854.585693359375 802.8404541015625 C -2853.523193359375 799.5703735351563 -2853.523193359375 796.1133422851563 -2854.5859375 792.8432006835938 L -2872.166015625 738.7372436523438 C -2873.228271484375 735.4671020507813 -2875.26025390625 732.6703491210938 -2878.0419921875 730.6492919921875 C -2880.82373046875 728.6282348632813 -2884.111572265625 727.5599975585938 -2887.5498046875 727.5599975585938 L -2944.4404296875 727.5599975585938 C -2947.87890625 727.5599975585938 -2951.166748046875 728.6282348632813 -2953.948486328125 730.6492919921875 C -2956.72998046875 732.6703491210938 -2958.761962890625 735.4671020507813 -2959.82421875 738.7372436523438 L -2977.404296875 792.8432006835938 C -2978.467041015625 796.1133422851563 -2978.467041015625 799.5703735351563 -2977.404541015625 802.8404541015625 C -2976.342041015625 806.110595703125 -2974.310302734375 808.9073486328125 -2971.5283203125 810.9282836914063 L -2925.5029296875 844.367919921875 C -2922.72119140625 846.388916015625 -2919.43359375 847.4571533203125 -2915.9951171875 847.4571533203125 M -2915.9951171875 848.4571533203125 C -2919.537841796875 848.4571533203125 -2923.080810546875 847.36376953125 -2926.0908203125 845.1769409179688 L -2972.1162109375 811.7373046875 C -2978.13623046875 807.36376953125 -2980.655029296875 799.6110229492188 -2978.35546875 792.5341796875 L -2960.775390625 738.42822265625 C -2958.476318359375 731.3513793945313 -2951.881591796875 726.5599975585938 -2944.4404296875 726.5599975585938 L -2887.5498046875 726.5599975585938 C -2880.10888671875 726.5599975585938 -2873.51416015625 731.3513793945313 -2871.21484375 738.42822265625 L -2853.634765625 792.5341796875 C -2851.335205078125 799.6110229492188 -2853.85400390625 807.36376953125 -2859.8740234375 811.7373046875 L -2905.8994140625 845.1769409179688 C -2908.909423828125 847.36376953125 -2912.452392578125 848.4571533203125 -2915.9951171875 848.4571533203125 Z" stroke="none" fill="#e4b940"/></g></g><g transform="translate(-2618.803 24.873)"><g transform="translate(2947.345 488.293)"><g transform="translate(0)"><path d="M3200.639,526.764v25.255a1.023,1.023,0,0,1-1,1.039h-43.75a1.025,1.025,0,0,1-1.005-1.03V526.766a1.031,1.031,0,0,1,1.005-1.04h43.75A1.022,1.022,0,0,1,3200.639,526.764Z" transform="translate(-3154.295 -524.698)" fill="url(#c)"/><path d="M3177.715,504.511h-40.84a3.215,3.215,0,0,0-3.211,3.211v24.724a3.215,3.215,0,0,0,3.211,3.211h40.84a3.214,3.214,0,0,0,3.21-3.211V507.722A3.214,3.214,0,0,0,3177.715,504.511Zm-41.779,3.211a.948.948,0,0,1,.939-.939h40.84a.939.939,0,0,1,.938.939v23.822a.939.939,0,0,1-.938.939h-40.84a.94.94,0,0,1-.939-.93V507.722Z" transform="translate(-3133.664 -504.511)" fill="url(#d)"/></g><path d="M3311.509,801.749H3299.84l.824-6.389h10.021Z" transform="translate(-3282.045 -764.213)" fill="url(#e)"/><path d="M3282.959,858.732h-15.237c-2.565,0-2.38-3.706,0-3.706h15.237C3285.336,855.026,3285.524,858.732,3282.959,858.732Z" transform="translate(-3251.71 -817.491)" fill="url(#e)"/></g><g transform="translate(2925 513.344)"><g transform="translate(0 22.744)"><path d="M2966.227,957.02v3.133h3.82a.656.656,0,0,0,.593-.707v-2.383a.216.216,0,0,0,0-.044Z" transform="translate(-2961.812 -956.357)" fill="#fdcd08"/><path d="M2925,951.491h8.825a.644.644,0,0,0-.59-.663h-7.646A.647.647,0,0,0,2925,951.491Z" transform="translate(-2925 -950.828)" fill="#f8ec30"/><path d="M2925,957.064v2.383a.656.656,0,0,0,.589.707h3.826V957.02H2925Z" transform="translate(-2925 -956.357)" fill="#fbae17"/></g><g transform="translate(0 18.948)"><path d="M2966.227,921.568V924.7h3.82a.656.656,0,0,0,.593-.707v-2.383a.216.216,0,0,0,0-.044Z" transform="translate(-2961.812 -920.905)" fill="#fdcd08"/><path d="M2925,916.042h8.825a.644.644,0,0,0-.59-.663h-7.646A.647.647,0,0,0,2925,916.042Z" transform="translate(-2925 -915.379)" fill="#f8ec30"/><path d="M2925,921.612v2.383a.656.656,0,0,0,.589.707h3.826v-3.133H2925Z" transform="translate(-2925 -920.905)" fill="#fbae17"/></g><g transform="translate(0 15.152)"><path d="M2966.227,886.115v3.134h3.82a.656.656,0,0,0,.593-.706v-2.384a.22.22,0,0,0,0-.044Z" transform="translate(-2961.812 -885.453)" fill="#fdcd08"/><path d="M2925,880.592h8.825a.644.644,0,0,0-.59-.662h-7.646A.647.647,0,0,0,2925,880.592Z" transform="translate(-2925 -879.93)" fill="#f8ec30"/><path d="M2925,886.159v2.384a.656.656,0,0,0,.589.706h3.826v-3.134H2925Z" transform="translate(-2925 -885.453)" fill="#fbae17"/></g><g transform="translate(0 11.355)"><path d="M2966.227,850.666V853.8h3.82a.656.656,0,0,0,.593-.706V850.71a.224.224,0,0,0,0-.044Z" transform="translate(-2961.812 -850.004)" fill="#fdcd08"/><path d="M2925,845.142h8.825a.644.644,0,0,0-.59-.662h-7.646A.647.647,0,0,0,2925,845.142Z" transform="translate(-2925 -844.48)" fill="#f8ec30"/><path d="M2925,850.71v2.384a.656.656,0,0,0,.589.706h3.826v-3.134H2925Z" transform="translate(-2925 -850.004)" fill="#fbae17"/></g><g transform="translate(0 7.559)"><path d="M2966.227,815.222v3.133h3.82a.655.655,0,0,0,.593-.706v-2.383a.215.215,0,0,0,0-.044Z" transform="translate(-2961.812 -814.559)" fill="#fdcd08"/><path d="M2925,809.69h8.825a.644.644,0,0,0-.59-.664h-7.646A.648.648,0,0,0,2925,809.69Z" transform="translate(-2925 -809.026)" fill="#f8ec30"/><path d="M2925,815.266v2.383a.655.655,0,0,0,.589.706h3.826v-3.133H2925Z" transform="translate(-2925 -814.559)" fill="#fbae17"/></g><g transform="translate(0 3.763)"><path d="M2966.227,779.773v3.133h3.82a.655.655,0,0,0,.593-.705v-2.383a.216.216,0,0,0,0-.044Z" transform="translate(-2961.812 -779.11)" fill="#fdcd08"/><path d="M2925,774.246h8.825a.643.643,0,0,0-.59-.663h-7.646A.647.647,0,0,0,2925,774.246Z" transform="translate(-2925 -773.583)" fill="#f8ec30"/><path d="M2925,779.817V782.2a.655.655,0,0,0,.589.705h3.826v-3.133H2925Z" transform="translate(-2925 -779.11)" fill="#fbae17"/></g><g transform="translate(0 0)"><path d="M2966.227,744.633v3.133h3.82a.656.656,0,0,0,.593-.706v-2.384a.217.217,0,0,0,0-.043Z" transform="translate(-2961.812 -743.97)" fill="#fdcd08"/><path d="M2925,739.105h8.825a.644.644,0,0,0-.59-.663h-7.646A.647.647,0,0,0,2925,739.105Z" transform="translate(-2925 -738.442)" fill="#f8ec30"/><path d="M2925,744.676v2.384a.656.656,0,0,0,.589.706h3.826v-3.133H2925Z" transform="translate(-2925 -743.97)" fill="#fbae17"/></g></g><g transform="translate(2935.103 524.699)"><g transform="translate(0 11.388)"><path d="M3060.565,957.02v3.133h3.822a.657.657,0,0,0,.592-.707v-2.383a.216.216,0,0,0,0-.044Z" transform="translate(-3056.151 -956.357)" fill="#fdcd08"/><path d="M3019.355,951.491h8.825a.645.645,0,0,0-.589-.663h-7.645A.646.646,0,0,0,3019.355,951.491Z" transform="translate(-3019.354 -950.828)" fill="#f8ec30"/><path d="M3019.342,957.064v2.383a.656.656,0,0,0,.592.707h3.823V957.02h-4.413A.43.43,0,0,0,3019.342,957.064Z" transform="translate(-3019.342 -956.357)" fill="#fbae17"/></g><g transform="translate(0 7.592)"><path d="M3060.565,921.568V924.7h3.822a.657.657,0,0,0,.592-.707v-2.383a.216.216,0,0,0,0-.044Z" transform="translate(-3056.151 -920.905)" fill="#fdcd08"/><path d="M3019.355,916.042h8.825a.645.645,0,0,0-.589-.663h-7.645A.646.646,0,0,0,3019.355,916.042Z" transform="translate(-3019.354 -915.379)" fill="#f8ec30"/><path d="M3019.342,921.612v2.383a.655.655,0,0,0,.592.707h3.823v-3.133h-4.413A.428.428,0,0,0,3019.342,921.612Z" transform="translate(-3019.342 -920.905)" fill="#fbae17"/></g><g transform="translate(0 3.796)"><path d="M3060.565,886.115v3.134h3.822a.657.657,0,0,0,.592-.706v-2.384a.22.22,0,0,0,0-.044Z" transform="translate(-3056.151 -885.453)" fill="#fdcd08"/><path d="M3019.355,880.592h8.825a.645.645,0,0,0-.589-.662h-7.645A.646.646,0,0,0,3019.355,880.592Z" transform="translate(-3019.354 -879.93)" fill="#f8ec30"/><path d="M3019.342,886.159v2.384a.656.656,0,0,0,.592.706h3.823v-3.134h-4.413A.437.437,0,0,0,3019.342,886.159Z" transform="translate(-3019.342 -885.453)" fill="#fbae17"/></g><g transform="translate(0 0)"><path d="M3060.565,850.666V853.8h3.822a.657.657,0,0,0,.592-.706V850.71a.224.224,0,0,0,0-.044Z" transform="translate(-3056.151 -850.004)" fill="#fdcd08"/><path d="M3019.355,845.142h8.825a.645.645,0,0,0-.589-.662h-7.645A.646.646,0,0,0,3019.355,845.142Z" transform="translate(-3019.354 -844.48)" fill="#f8ec30"/><path d="M3019.342,850.71v2.384a.655.655,0,0,0,.592.706h3.823v-3.134h-4.413C3019.342,850.681,3019.342,850.7,3019.342,850.71Z" transform="translate(-3019.342 -850.004)" fill="#fbae17"/></g></g><g transform="translate(2945.204 532.292)"><g transform="translate(0 3.796)"><path d="M3154.906,957.02v3.133h3.821a.656.656,0,0,0,.593-.707v-2.383a.236.236,0,0,0,0-.044Z" transform="translate(-3150.49 -956.357)" fill="#fdcd08"/><path d="M3113.68,951.491h8.825a.644.644,0,0,0-.59-.663h-7.644A.647.647,0,0,0,3113.68,951.491Z" transform="translate(-3113.679 -950.828)" fill="#f8ec30"/><path d="M3113.666,957.064v2.383a.657.657,0,0,0,.593.707h3.824V957.02h-4.415A.369.369,0,0,0,3113.666,957.064Z" transform="translate(-3113.666 -956.357)" fill="#fbae17"/></g><g transform="translate(0 0)"><path d="M3154.906,921.568V924.7h3.821a.655.655,0,0,0,.593-.707v-2.383a.235.235,0,0,0,0-.044Z" transform="translate(-3150.49 -920.905)" fill="#fdcd08"/><path d="M3113.68,916.042h8.825a.645.645,0,0,0-.59-.663h-7.644A.647.647,0,0,0,3113.68,916.042Z" transform="translate(-3113.679 -915.379)" fill="#f8ec30"/><path d="M3113.666,921.612v2.383a.657.657,0,0,0,.593.707h3.824v-3.133h-4.415A.367.367,0,0,0,3113.666,921.612Z" transform="translate(-3113.666 -920.905)" fill="#fbae17"/></g></g><g transform="translate(2926.802 499.713)"><g transform="translate(2.613 2.681)"><path d="M2991.27,660.764l-12.524-9.414-12.519-14.067,1.229-1.094,12.408,13.945,12.391,9.316Z" transform="translate(-2966.227 -636.19)" fill="#fff"/></g><g transform="translate(0 0)"><path d="M2948.284,614.38a3.228,3.228,0,1,1-3.227-3.228A3.229,3.229,0,0,1,2948.284,614.38Z" transform="translate(-2941.828 -611.152)" fill="#e4b940"/></g><g transform="translate(12.462 14.006)"><path d="M3064.661,745.17a3.228,3.228,0,1,1-3.229-3.228A3.228,3.228,0,0,1,3064.661,745.17Z" transform="translate(-3058.205 -741.942)" fill="#e4b940"/></g><g transform="translate(24.921 23.371)"><path d="M3181,832.62a3.228,3.228,0,1,1-3.228-3.228A3.228,3.228,0,0,1,3181,832.62Z" transform="translate(-3174.541 -829.392)" fill="#e4b940"/></g></g><g transform="translate(2964.256 527.837)"><g transform="translate(0 0)"><path d="M3304.948,880.464a6.684,6.684,0,1,1-6.686-6.685A6.685,6.685,0,0,1,3304.948,880.464Z" transform="translate(-3291.58 -873.779)" fill="url(#e)"/><path d="M3317.3,894.493a5,5,0,1,1-5-5A5,5,0,0,1,3317.3,894.493Z" transform="translate(-3305.612 -887.809)" fill="#e4b940"/><path d="M3339.456,910.48a2.327,2.327,0,0,0-1.161-.5l-.54-.108a1.409,1.409,0,0,1-.529-.189.363.363,0,0,1-.148-.307.415.415,0,0,1,.219-.388,1.382,1.382,0,0,1,.669-.125,3.12,3.12,0,0,1,.725.092,4.51,4.51,0,0,1,.788.273v-1.038a7.522,7.522,0,0,0-.882-.183c-.087-.013-.172-.019-.256-.028v-.572h-.95v.559a1.812,1.812,0,0,0-.987.374,1.382,1.382,0,0,0-.473,1.126,1.264,1.264,0,0,0,.341.93,2.108,2.108,0,0,0,1.075.5l.49.109a1.5,1.5,0,0,1,.595.223.476.476,0,0,1-.069.749,1.2,1.2,0,0,1-.633.138,3.064,3.064,0,0,1-.848-.126,4.757,4.757,0,0,1-.908-.376v1.067a5.657,5.657,0,0,0,.941.263c.159.031.318.052.477.068v.56h.95v-.568a1.867,1.867,0,0,0,.978-.367,1.474,1.474,0,0,0,.481-1.208A1.266,1.266,0,0,0,3339.456,910.48Z" transform="translate(-3331.182 -903.808)" fill="#fcee3b"/></g></g><g transform="translate(2955.974 541.348)"><g transform="translate(0 0)"><path d="M3214.842,976.907a4.968,4.968,0,1,1-4.97-4.968A4.969,4.969,0,0,1,3214.842,976.907Z" transform="translate(-3204.906 -971.939)" fill="url(#e)"/><path d="M3224.022,987.337a3.718,3.718,0,1,1-3.719-3.718A3.718,3.718,0,0,1,3224.022,987.337Z" transform="translate(-3215.335 -982.368)" fill="#e4b940"/><path d="M3240.49,999.219a1.737,1.737,0,0,0-.865-.371l-.4-.08a1.038,1.038,0,0,1-.394-.141.267.267,0,0,1-.109-.228.308.308,0,0,1,.162-.288,1.03,1.03,0,0,1,.5-.093,2.317,2.317,0,0,1,.54.068,3.3,3.3,0,0,1,.585.2v-.771a5.5,5.5,0,0,0-.656-.136c-.063-.009-.126-.014-.188-.021v-.425h-.706v.416a1.347,1.347,0,0,0-.734.278,1.027,1.027,0,0,0-.352.837.94.94,0,0,0,.254.691,1.563,1.563,0,0,0,.8.374l.365.081a1.121,1.121,0,0,1,.442.166.354.354,0,0,1-.052.557.884.884,0,0,1-.47.1,2.267,2.267,0,0,1-.63-.094,3.5,3.5,0,0,1-.674-.28v.793a4.154,4.154,0,0,0,.7.2c.118.023.237.039.355.05v.417h.706v-.422a1.392,1.392,0,0,0,.727-.273,1.1,1.1,0,0,0,.358-.9A.943.943,0,0,0,3240.49,999.219Z" transform="translate(-3234.339 -994.259)" fill="#fcee3b"/></g></g><g transform="translate(2927.581 480.348)"><g transform="translate(0 0)"><path d="M3007.418,492.162a5.813,5.813,0,1,1-5.814-5.814A5.813,5.813,0,0,1,3007.418,492.162Z" transform="translate(-2995.792 -486.348)" fill="url(#e)"/><path d="M3018.165,504.362a4.35,4.35,0,1,1-4.351-4.35A4.35,4.35,0,0,1,3018.165,504.362Z" transform="translate(-3008.001 -498.549)" fill="#e4b940"/><path d="M3037.429,518.27a2.024,2.024,0,0,0-1.011-.435l-.469-.094a1.212,1.212,0,0,1-.46-.164.313.313,0,0,1-.129-.267.363.363,0,0,1,.19-.337,1.2,1.2,0,0,1,.582-.109,2.685,2.685,0,0,1,.63.08,3.851,3.851,0,0,1,.684.237v-.9a6.456,6.456,0,0,0-.767-.159c-.075-.011-.148-.017-.22-.024v-.5h-.827v.486a1.579,1.579,0,0,0-.859.325,1.2,1.2,0,0,0-.412.98,1.1,1.1,0,0,0,.3.808,1.828,1.828,0,0,0,.934.437l.426.095a1.308,1.308,0,0,1,.519.194.375.375,0,0,1,.13.309.382.382,0,0,1-.191.343,1.046,1.046,0,0,1-.551.12,2.661,2.661,0,0,1-.737-.11,4.138,4.138,0,0,1-.79-.327v.928a5,5,0,0,0,.818.229c.139.027.277.045.416.058v.487h.827v-.494a1.634,1.634,0,0,0,.851-.319,1.283,1.283,0,0,0,.417-1.05A1.1,1.1,0,0,0,3037.429,518.27Z" transform="translate(-3030.233 -512.467)" fill="#fcee3b"/></g></g><g transform="translate(2960.339 493.537)"><g transform="translate(0 12.503)"><path d="M3264.658,673.672c-.206-.133-.189-.557-.182-1.059.043-3.171-4.022-3.126-3.994-.1,0,.546.038,1.017-.182,1.159A3.705,3.705,0,0,0,3264.658,673.672Z" transform="translate(-3259.732 -670.239)" fill="#2a2b2a"/><rect width="1.937" height="0.602" transform="translate(1.778 3.243)" fill="#3dbfcd"/><path d="M3272.9,698.263h-1.489a1.7,1.7,0,0,1-.274.79,1.032,1.032,0,1,0,2.038,0A1.7,1.7,0,0,1,3272.9,698.263Z" transform="translate(-3269.404 -695.262)" fill="#f39c56"/><path d="M3269.631,672.153l-1.321.816.261,1.857a1.221,1.221,0,0,0,2.121,0l.261-1.857Z" transform="translate(-3266.885 -671.948)" fill="#fab67a"/><g transform="translate(1.299 1.692)"><path d="M3267.414,686.116c-.243-.208-.421.047-.137.482,0,0-.022.143.181.143Z" transform="translate(-3267.132 -686.043)" fill="#fab67a"/><path d="M3291.152,686.116c.243-.208.42.047.136.482,0,0,.022.143-.182.143Z" transform="translate(-3288.54 -686.043)" fill="#fab67a"/></g><path d="M3265.543,704.977l-1.278.071-1.277-.071-.687.43c.23.7,1.616,1.781,1.964,2.112h0c.349-.332,1.735-1.408,1.965-2.113Z" transform="translate(-3261.52 -701.257)" fill="#fff"/><path d="M3260.494,706.962a3.914,3.914,0,0,1-5.494,0l.109-1c.257-.75,1.361-.979,1.361-.979l1.277,2.543,1.278-2.543s1.105.23,1.361.98Z" transform="translate(-3255 -701.257)" fill="#e4b940"/><g transform="translate(1.387 3.243)"><path d="M3268.345,700.519l.968.548-.628.688-.731-.8Z" transform="translate(-3267.954 -700.519)" fill="#fff"/><path d="M3281.614,700.519l-.969.548.628.688.732-.8Z" transform="translate(-3279.285 -700.519)" fill="#fff"/></g><path d="M3268.146,671.087a1.44,1.44,0,0,0-1.475,1.758h2.952A1.441,1.441,0,0,0,3268.146,671.087Z" transform="translate(-3265.4 -670.996)" fill="#2a2b2a"/></g><g transform="translate(14.531 12.503)"><path d="M3400.354,675.06a8.333,8.333,0,0,1-.183-2.447c.043-3.171-4.021-3.126-3.993-.1a8.552,8.552,0,0,1-.182,2.547A3.707,3.707,0,0,0,3400.354,675.06Z" transform="translate(-3395.428 -670.239)" fill="#a44124"/><rect width="1.937" height="0.602" transform="translate(1.778 3.243)" fill="#3dbfcd"/><path d="M3408.59,698.263H3407.1a1.7,1.7,0,0,1-.275.79,1.032,1.032,0,1,0,2.039,0A1.7,1.7,0,0,1,3408.59,698.263Z" transform="translate(-3405.099 -695.262)" fill="#f39c56"/><path d="M3405.327,672.153l-1.321.816.261,1.857a1.221,1.221,0,0,0,2.121,0l.261-1.857Z" transform="translate(-3402.581 -671.948)" fill="#fab67a"/><g transform="translate(1.299 1.692)"><path d="M3403.11,686.116c-.243-.208-.421.047-.137.482,0,0-.022.143.181.143Z" transform="translate(-3402.827 -686.043)" fill="#fab67a"/><path d="M3426.846,686.116c.243-.208.42.047.137.482,0,0,.022.143-.182.143Z" transform="translate(-3424.234 -686.043)" fill="#fab67a"/></g><path d="M3401.239,704.977l-1.278.071-1.277-.071-.687.43c.23.7,1.616,1.781,1.964,2.112h0c.349-.332,1.735-1.408,1.966-2.113Z" transform="translate(-3397.214 -701.257)" fill="#fff"/><path d="M3396.189,706.962a3.914,3.914,0,0,1-5.494,0l.109-1c.257-.75,1.361-.979,1.361-.979l1.277,2.543,1.278-2.543s1.1.23,1.361.98Z" transform="translate(-3390.695 -701.257)" fill="#e4b940"/><g transform="translate(1.387 3.243)"><path d="M3404.04,700.519l.969.548-.628.688-.731-.8Z" transform="translate(-3403.649 -700.519)" fill="#fff"/><path d="M3417.309,700.519l-.969.548.628.688.732-.8Z" transform="translate(-3414.98 -700.519)" fill="#fff"/></g><path d="M3403.842,671.087a1.44,1.44,0,0,0-1.475,1.758h2.952A1.441,1.441,0,0,0,3403.842,671.087Z" transform="translate(-3401.096 -670.996)" fill="#a44124"/></g><g transform="translate(7.266 0)"><rect width="1.937" height="0.602" transform="translate(1.778 3.204)" fill="#3dbfcd"/><path d="M3340.744,581.139h-1.489a1.7,1.7,0,0,1-.275.79,1.032,1.032,0,1,0,2.038,0A1.707,1.707,0,0,1,3340.744,581.139Z" transform="translate(-3337.253 -578.177)" fill="#f39c56"/><path d="M3337.48,555.028l-1.321.816.261,1.857a1.221,1.221,0,0,0,2.121,0l.261-1.857Z" transform="translate(-3334.734 -554.862)" fill="#fab67a"/><g transform="translate(1.299 1.653)"><path d="M3335.264,568.991c-.243-.208-.421.047-.137.482,0,0-.022.143.181.143Z" transform="translate(-3334.981 -568.918)" fill="#fab67a"/><path d="M3359,568.991c.243-.208.42.047.137.482,0,0,.022.143-.182.143Z" transform="translate(-3356.388 -568.918)" fill="#fab67a"/></g><path d="M3333.387,587.853l-1.278.071-1.277-.071-.687.43c.23.7,1.616,1.781,1.964,2.112h0c.349-.332,1.735-1.408,1.966-2.113Z" transform="translate(-3329.364 -584.172)" fill="#fff"/><path d="M3328.343,589.838a3.913,3.913,0,0,1-5.494,0l.109-1.005c.257-.75,1.361-.979,1.361-.979l1.277,2.543,1.278-2.543s1.105.23,1.361.979Z" transform="translate(-3322.849 -584.172)" fill="#e4b940"/><g transform="translate(1.387 3.204)"><path d="M3336.194,583.394l.968.548-.628.688-.731-.8Z" transform="translate(-3335.803 -583.394)" fill="#bedfe1"/><path d="M3349.463,583.394l-.969.548.628.688.732-.8Z" transform="translate(-3347.134 -583.394)" fill="#bedfe1"/></g><path d="M3335.259,553.479a1.525,1.525,0,0,0-1.562,1.862l1.563-.5,1.563.5A1.526,1.526,0,0,0,3335.259,553.479Z" transform="translate(-3332.513 -553.479)" fill="#2a2b2a"/></g><g transform="translate(2.497 8.534)"><rect width="15.032" height="0.5" fill="#e4b940"/><rect width="0.5" height="3.315" transform="translate(14.532)" fill="#e4b940"/><rect width="0.5" height="3.315" fill="#e4b940"/></g><path d="M3339.741,565.578l-.289.74s1.39-.21,1.648-.634A13.015,13.015,0,0,0,3339.741,565.578Z" transform="translate(-3330.408 -564.282)" fill="#2a2b2a"/></g></g></g></svg>