<svg xmlns="http://www.w3.org/2000/svg" xmlns:xlink="http://www.w3.org/1999/xlink" width="59.237" height="66.237" viewBox="0 0 59.237 66.237"><defs><linearGradient id="a" y1="0.5" x2="1" y2="0.5" gradientUnits="objectBoundingBox"><stop offset="0" stop-color="#e0c16a"/><stop offset="1" stop-color="#574000"/></linearGradient><linearGradient id="c" x1="0.5" y1="-0.028" x2="0.5" y2="1.559" gradientUnits="objectBoundingBox"><stop offset="0.019" stop-color="#fff"/><stop offset="0.648" stop-color="#cdcdcd"/></linearGradient><linearGradient id="d" x1="0.5" y1="0.939" x2="0.5" y2="-0.503" xlink:href="#c"/><filter id="e" x="7.701" y="16.55" width="45.412" height="44.717" filterUnits="userSpaceOnUse"><feOffset dx="0.77" dy="1.539" input="SourceAlpha"/><feGaussianBlur stdDeviation="0.77" result="f"/><feFlood flood-opacity="0.302"/><feComposite operator="in" in2="f"/><feComposite in="SourceGraphic"/></filter><clipPath id="g"><ellipse cx="20.397" cy="20.05" rx="20.397" ry="20.05" fill="none"/></clipPath></defs><g transform="translate(0 0.484)"><g transform="translate(0 8.746)"><ellipse cx="26.732" cy="26.278" rx="26.732" ry="26.278" transform="translate(2.905 1.646)" fill="url(#a)"/><path d="M360.617,33.123A28.5,28.5,0,0,1,380.658,56.31,28.083,28.083,0,0,1,369.2,82.627a29.186,29.186,0,0,1-29.684,2.386,27.872,27.872,0,0,1,3.7-51.6c.664-.228.368-1.269-.3-1.039A29.585,29.585,0,0,0,323,56.133a29.185,29.185,0,0,0,12.51,27.789,30.3,30.3,0,0,0,31.083,1.6,29.287,29.287,0,0,0,15.4-25.808C381.871,47,373.175,35.853,360.9,32.079c-.676-.208-.955.837-.282,1.044Z" transform="translate(-322.757 -32.052)" fill="url(#a)"/><g transform="translate(5.908 4.813)"><ellipse cx="23.73" cy="23.326" rx="23.73" ry="23.326" fill="url(#c)"/><g transform="matrix(1, 0, 0, 1, -5.91, -14.04)" filter="url(#e)"><ellipse cx="20.397" cy="20.05" rx="20.397" ry="20.05" transform="translate(9.24 17.32)" fill="url(#d)"/></g></g><g transform="translate(9.24 8.089)"><g clip-path="url(#g)"><g transform="translate(2.728 5.473)"><g transform="translate(9.791)"><path d="M367.194,88.086v3.869l4.556,4.182,1.452-1.643,2.355-2.664V87.587Z" transform="translate(-363.793 -69.705)" fill="#d0ad9b"/><path d="M381.656,70.8c-.015-.292-.172-.784-.552-.5-.172.127-.088.441-.248.546-.387.255-.425-.319-.45-.573-.1-.965.336-1.892.22-2.84a3.675,3.675,0,0,0-2.556-2.665,5.961,5.961,0,0,0-3.862-.027c-.063-.022-.131-.039-.2-.058V80.993l.2-.006a3.1,3.1,0,0,0,1.5-.187,5.9,5.9,0,0,0,1.622-1.423c.524-.575,1.321-.87,1.779-1.5a3.162,3.162,0,0,0,.478-1.007c.154-.547.086-1.406.5-1.845.373-.4.746-.551,1.013-1.1A6.494,6.494,0,0,0,381.656,70.8Z" transform="translate(-366.75 -59.662)" fill="#eccdb2"/><path d="M364.784,64.773a3.674,3.674,0,0,0-2.557,2.665c-.116.948.318,1.875.221,2.84-.026.254-.063.828-.45.573-.161-.105-.076-.419-.249-.546-.38-.283-.537.209-.552.5a6.493,6.493,0,0,0,.558,3.121c.267.547.64.7,1.013,1.1.413.438.345,1.3.5,1.845a3.165,3.165,0,0,0,.478,1.007c.459.632,1.255.927,1.78,1.5a5.889,5.889,0,0,0,1.622,1.423,2.77,2.77,0,0,0,1.3.193V64.688A5.95,5.95,0,0,0,364.784,64.773Z" transform="translate(-361.187 -59.664)" fill="#eccdb2"/><path d="M361.8,65.84a4.308,4.308,0,0,1,.161,1.5c0,.073-.009.185-.007.3h.7c.007-.146,0-.284,0-.369a10.007,10.007,0,0,1,.014-1.114c.028-.533-.038-1.082.015-1.613a2.844,2.844,0,0,1,2.657-2.481c.973-.076,1.948.124,2.923.126,1.2,0,1.748-.578,2.7-1.169.254-.159.1-.178.369-.111.173.044.393.279.543.37.9.553,2.524,1.1,2.783,2.266a11.29,11.29,0,0,1,.138,2.785,10.239,10.239,0,0,0-.088,1.31h.543c.173-.563.405-1.327.463-1.623a15.231,15.231,0,0,0,.23-2.208c.2-1.785.294-3.495-.806-4.992-1.178-1.6-2.924-2.541-3.856-2.421-.053.006-.684.063-.6.135a3.026,3.026,0,0,0-1.326-.418c-2.188-.522-4.956.839-6.546,2.292-1.678,1.535-1.43,3.509-1.24,5.4A11.643,11.643,0,0,0,361.8,65.84Z" transform="translate(-361.289 -56.005)" fill="#29150d"/></g><g transform="translate(0 20.941)"><path d="M373.468,110.075l2.089-5.588-3.839-4.284H371.2s-4.036,4.241-4.008,4.549l2.216,5.323Z" transform="translate(-354.001 -96.12)" fill="#bfcfdb"/><path d="M370.855,109.074a.161.161,0,0,0,.006.094l.285.733h3.619l.285-.733a.162.162,0,0,0,.006-.094l-1.365-6.2a.844.844,0,0,1,.079-.58l.518-.974a.157.157,0,0,0-.036-.17q-.3-.3-.6-.595a1.609,1.609,0,0,1-.378-.438c-.056-.126-.211-.409-.391-.289-.157.105-.21.271-.312.41a3.637,3.637,0,0,1-.383.381l-.535.531a.158.158,0,0,0-.035.17l.518.974a.846.846,0,0,1,.08.58Z" transform="translate(-355.588 -95.946)" fill="#d7b74c"/><g transform="translate(0 2.155)"><path d="M360.132,108.6l-2.238-7.431L356.579,96.8l-.14.044c-.33.1-1.208.363-2.321.7-2.99.906-7.652,2.321-7.777,2.405-.106.072-1.23,2.341-2.155,4.236a2.862,2.862,0,0,0-.291,1.259V108.6Z" transform="translate(-343.894 -96.797)" fill="#272425"/><path d="M392.639,108.6v-3.05a4.067,4.067,0,0,0-.414-1.787c-.879-1.795-1.852-3.75-1.95-3.817-.128-.084-4.79-1.5-7.78-2.405l-2.319-.7-.143-.044-1.836,5.914-1.826,5.886Z" transform="translate(-357.982 -96.797)" fill="#272425"/></g><path d="M374.854,92.991l-4.14,3.735a.166.166,0,0,1-.222,0l-4.14-3.735-.926,2.711,1.789,5.921,3.252-4.574a.166.166,0,0,1,.271,0l3.252,4.574,1.789-5.921Z" transform="translate(-353.235 -92.991)" fill="#e7f3ff"/><path d="M379.027,108.631l3.729-7.061-2.173-.917,2.5-1.228a17.611,17.611,0,0,0-.715-1.854l-2.319-.7-1.979,5.87-.635,1.889-1.359,4Z" transform="translate(-357.853 -94.675)" fill="#434244"/><path d="M361.014,101.569l3.672,7.061h2.866l-1.216-4-1.157-3.435-1.456-4.325c-.33.1-1.208.363-2.321.7a18.249,18.249,0,0,0-.715,1.854l2.5,1.228Z" transform="translate(-351.179 -94.675)" fill="#434244"/></g></g></g></g></g><path d="M364.655,19.1V23.73a.734.734,0,0,0,.74.728H375.71a.734.734,0,0,0,.74-.728V17.716a.742.742,0,0,0-1.294-.482l-1.325,1.473a.748.748,0,0,1-1.113-.005l-1.631-1.846a.749.749,0,0,0-1.115,0l-1.516,1.7a.749.749,0,0,1-1.087.028L365.905,17.1a.742.742,0,0,0-1.271.518Z" transform="translate(-340.924 -16.605)" fill="none" stroke="#e4b940" stroke-miterlimit="10" stroke-width="0.968"/></g></svg>