<svg xmlns="http://www.w3.org/2000/svg" xmlns:xlink="http://www.w3.org/1999/xlink" width="201.404" height="196.897" viewBox="0 0 201.404 196.897"><defs><filter id="a" x="0" y="0" width="201.404" height="196.897" filterUnits="userSpaceOnUse"><feOffset dy="15" input="SourceAlpha"/><feGaussianBlur stdDeviation="12.5" result="b"/><feFlood flood-opacity="0.2"/><feComposite operator="in" in2="b"/><feComposite in="SourceGraphic"/></filter><linearGradient id="c" x1="0.5" x2="0.5" y2="1" gradientUnits="objectBoundingBox"><stop offset="0" stop-color="#e4b940"/><stop offset="1" stop-color="#8e6f16"/></linearGradient></defs><g transform="translate(-239.856 -464.5)"><g transform="matrix(1, 0, 0, 1, 239.86, 464.5)" filter="url(#a)"><g transform="translate(3016.7 -704.06)" fill="#3a3d4d"><path d="M -2915.9951171875 847.9571533203125 C -2919.539794921875 847.9571533203125 -2922.92919921875 846.8558959960938 -2925.796875 844.7724609375 L -2971.822265625 811.3328247070313 C -2974.690185546875 809.2493896484375 -2976.784912109375 806.3662109375 -2977.880126953125 802.9949951171875 C -2978.9755859375 799.623779296875 -2978.975341796875 796.0599365234375 -2977.8798828125 792.688720703125 L -2960.2998046875 738.582763671875 C -2959.20458984375 735.2115478515625 -2957.10986328125 732.3283081054688 -2954.2421875 730.2448120117188 C -2951.37451171875 728.1612548828125 -2947.985107421875 727.0599975585938 -2944.4404296875 727.0599975585938 L -2887.5498046875 727.0599975585938 C -2884.005126953125 727.0599975585938 -2880.61572265625 728.1612548828125 -2877.748046875 730.2448120117188 C -2874.88037109375 732.3283081054688 -2872.78564453125 735.2115478515625 -2871.6904296875 738.5827026367188 L -2854.1103515625 792.6886596679688 C -2853.014892578125 796.0599365234375 -2853.0146484375 799.623779296875 -2854.110107421875 802.9949951171875 C -2855.205322265625 806.3662109375 -2857.300048828125 809.2493896484375 -2860.16796875 811.332763671875 L -2906.193359375 844.7724609375 C -2909.06103515625 846.8558959960938 -2912.450439453125 847.9571533203125 -2915.9951171875 847.9571533203125 Z" stroke="none"/><path d="M -2915.9951171875 847.4571533203125 C -2912.556640625 847.4571533203125 -2909.26904296875 846.388916015625 -2906.4873046875 844.367919921875 L -2860.461669921875 810.9282836914063 C -2857.679931640625 808.9073486328125 -2855.648193359375 806.110595703125 -2854.585693359375 802.8404541015625 C -2853.523193359375 799.5703735351563 -2853.523193359375 796.1133422851563 -2854.5859375 792.8432006835938 L -2872.166015625 738.7372436523438 C -2873.228271484375 735.4671020507813 -2875.26025390625 732.6703491210938 -2878.0419921875 730.6492919921875 C -2880.82373046875 728.6282348632813 -2884.111572265625 727.5599975585938 -2887.5498046875 727.5599975585938 L -2944.4404296875 727.5599975585938 C -2947.87890625 727.5599975585938 -2951.166748046875 728.6282348632813 -2953.948486328125 730.6492919921875 C -2956.72998046875 732.6703491210938 -2958.761962890625 735.4671020507813 -2959.82421875 738.7372436523438 L -2977.404296875 792.8432006835938 C -2978.467041015625 796.1133422851563 -2978.467041015625 799.5703735351563 -2977.404541015625 802.8404541015625 C -2976.342041015625 806.110595703125 -2974.310302734375 808.9073486328125 -2971.5283203125 810.9282836914063 L -2925.5029296875 844.367919921875 C -2922.72119140625 846.388916015625 -2919.43359375 847.4571533203125 -2915.9951171875 847.4571533203125 M -2915.9951171875 848.4571533203125 C -2919.537841796875 848.4571533203125 -2923.080810546875 847.36376953125 -2926.0908203125 845.1769409179688 L -2972.1162109375 811.7373046875 C -2978.13623046875 807.36376953125 -2980.655029296875 799.6110229492188 -2978.35546875 792.5341796875 L -2960.775390625 738.42822265625 C -2958.476318359375 731.3513793945313 -2951.881591796875 726.5599975585938 -2944.4404296875 726.5599975585938 L -2887.5498046875 726.5599975585938 C -2880.10888671875 726.5599975585938 -2873.51416015625 731.3513793945313 -2871.21484375 738.42822265625 L -2853.634765625 792.5341796875 C -2851.335205078125 799.6110229492188 -2853.85400390625 807.36376953125 -2859.8740234375 811.7373046875 L -2905.8994140625 845.1769409179688 C -2908.909423828125 847.36376953125 -2912.452392578125 848.4571533203125 -2915.9951171875 848.4571533203125 Z" stroke="none" fill="#e4b940"/></g></g><g transform="translate(-5096.055 -1171.548)"><g transform="translate(5440.459 1709.921)"><path d="M5831.413,2041.615a15.85,15.85,0,1,1-15.849-15.85A15.849,15.849,0,0,1,5831.413,2041.615Z" transform="translate(-5799.83 -2025.882)" fill="url(#c)"/><path d="M5826.053,2038.935a13.17,13.17,0,1,1-13.169-13.17A13.169,13.169,0,0,1,5826.053,2038.935Z" transform="translate(-5796.831 -2022.882)" fill="#e4b940"/><path d="M5870.9,2071.918V2070.9a2.785,2.785,0,0,0-2.785-2.785h-1.554v-1.435h-1.715v1.435h-1.472v-1.435h-1.716v1.435h-2.866v2.375h1.571v3.065h-1.571v2.293h1.571v3.064h-1.571v2.376h2.866v1.063h1.716v-1.063h1.472v1.063h1.715v-1.063h1.554a2.785,2.785,0,0,0,2.785-2.785v-1.016a2.785,2.785,0,0,1,0-5.571Zm-4.536-1.426a1.532,1.532,0,0,1,0,3.065h-2.989v-3.065Zm0,8.422h-2.989v-3.064h2.989a1.532,1.532,0,1,1,0,3.064Z" transform="translate(-5849.018 -2058.122)" fill="#ffee19" opacity="0.537"/></g><g transform="translate(5420.219 1674.878)"><path d="M5613.95,1690.726a15.848,15.848,0,1,1-15.848-15.848A15.849,15.849,0,0,1,5613.95,1690.726Z" transform="translate(-5582.254 -1674.878)" fill="url(#c)"/><path d="M5632.74,1712.2a13.168,13.168,0,1,1-13.167-13.168A13.166,13.166,0,0,1,5632.74,1712.2Z" transform="translate(-5603.725 -1696.351)" fill="#e4b940"/><path d="M1252.478,1060.367a3.425,3.425,0,0,0-.508.038,1.983,1.983,0,0,1-.844-1.548,1.827,1.827,0,0,1,.559-1.183,3.385,3.385,0,1,0-1.814-1.05,1.494,1.494,0,0,1-.554,1.049,3.239,3.239,0,0,1-1.735.206,3.385,3.385,0,1,0,.1,2.191,1.973,1.973,0,0,1,1.413.142,2.423,2.423,0,0,1,.628,1.577,3.384,3.384,0,1,0,2.757-1.422Z" transform="translate(-1233.346 -1043.817)" fill="#ffee19" opacity="0.537"/></g><g transform="translate(5400 1709.899)"><path d="M5431.7,2006.4a15.848,15.848,0,1,1-15.849-15.848A15.849,15.849,0,0,1,5431.7,2006.4Z" transform="translate(-5400 -1990.556)" fill="url(#c)"/><path d="M5450.485,2027.876a13.168,13.168,0,1,1-13.167-13.168A13.166,13.166,0,0,1,5450.485,2027.876Z" transform="translate(-5421.471 -2012.029)" fill="#e4b940"/><path d="M5506.7,2069.17a6,6,0,0,0-3.019-1.3l-1.4-.283a3.652,3.652,0,0,1-1.38-.49.942.942,0,0,1-.38-.8,1.083,1.083,0,0,1,.565-1.008,3.617,3.617,0,0,1,1.74-.323,8.1,8.1,0,0,1,1.887.239,11.692,11.692,0,0,1,2.05.708v-2.7a19.726,19.726,0,0,0-2.3-.476c-.223-.031-.441-.049-.66-.071v-1.487h-2.465v1.454a4.717,4.717,0,0,0-2.567.97,3.591,3.591,0,0,0-1.229,2.927,3.291,3.291,0,0,0,.883,2.416,5.478,5.478,0,0,0,2.8,1.306l1.271.282a3.976,3.976,0,0,1,1.55.58,1.239,1.239,0,0,1-.185,1.944,3.1,3.1,0,0,1-1.645.359,7.869,7.869,0,0,1-2.2-.328,12.331,12.331,0,0,1-2.361-.977v2.774a15.2,15.2,0,0,0,2.442.682c.415.079.828.136,1.243.173v1.46h2.465v-1.477a4.868,4.868,0,0,0,2.543-.953,3.826,3.826,0,0,0,1.25-3.136A3.286,3.286,0,0,0,5506.7,2069.17Z" transform="translate(-5486.722 -2053.353)" fill="#ffee19" opacity="0.537"/></g><g transform="translate(5423.673 1741.136)"><path d="M5655.074,2289.217c-1.6,8.8-18.157,12.291-22.679,1.459l1.855-.461c3.375,5.259,13.16,5.409,15.217-1.379Z" transform="translate(-5630.287 -2286.983)" fill="url(#c)"/><path d="M5615.565,2272.13l3.9,2.709-6.073,1.508Z" transform="translate(-5613.389 -2272.13)" fill="url(#c)"/></g><g transform="translate(5453.833 1688.467)"><path d="M5885.254,1797.823c8.419-3.016,19.724,9.579,12.6,18.911l-1.327-1.377c2.868-5.552-1.9-14.1-8.8-12.489Z" transform="translate(-5885.254 -1797.368)" fill="url(#c)"/><path d="M5969.728,1950.16l.4-4.729,4.342,4.5Z" transform="translate(-5960.356 -1929.006)" fill="url(#c)"/></g><g transform="translate(5402.945 1687.869)"><path d="M5429.87,1831.354c-7.04-5.515-2.412-21.793,9.28-20.745l-.458,1.856c-6.226.534-10.919,9.122-5.873,14.106Z" transform="translate(-5426.545 -1808.5)" fill="url(#c)"/><path d="M5535.57,1795.872l-4.213,2.184,1.5-6.075Z" transform="translate(-5519.729 -1791.981)" fill="url(#c)"/></g></g></g></svg>