<svg xmlns="http://www.w3.org/2000/svg" xmlns:xlink="http://www.w3.org/1999/xlink" width="29.37" height="30.87" viewBox="0 0 29.37 30.87"><defs><linearGradient id="a" x1="0.488" y1="0.157" x2="0.516" y2="0.952" gradientUnits="objectBoundingBox"><stop offset="0" stop-color="#e4b940"/><stop offset="0.31" stop-color="#e1b73f"/><stop offset="0.5" stop-color="#d9af3a"/><stop offset="0.67" stop-color="#caa233"/><stop offset="0.81" stop-color="#b59029"/><stop offset="0.95" stop-color="#9a791c"/><stop offset="1" stop-color="#8e6f16"/></linearGradient><linearGradient id="b" x1="0.094" y1="0.346" x2="0.901" y2="0.652" xlink:href="#a"/><linearGradient id="c" x1="-0.197" y1="0.254" x2="1.197" y2="0.746" xlink:href="#a"/></defs><g transform="translate(0 0)"><path d="M5.071,63.326l.016-.009L0,60.38v9.836a1.092,1.092,0,0,0,1.639.946L4.524,69.5a1.091,1.091,0,0,0,.546-.946Z" transform="translate(0 -55.337)" fill="#8e6f16"/><path d="M0,5.084,5.087,8.021,9.6,5.418a1.1,1.1,0,0,0,.546-.946V1.137A1.094,1.094,0,0,0,8.5.19Z" transform="translate(0 -0.041)" fill="#e4b940"/><path d="M76.275,269.1l-4.524-2.612a1.091,1.091,0,0,0-1.093,0l-2.885,1.662a1.093,1.093,0,0,0,0,1.893l8.521,4.919v-5.873Z" transform="translate(-61.61 -244.096)" fill="#e4b940"/><path d="M184.268,270.014a1.093,1.093,0,0,0,0-1.892l-2.889-1.671a1.091,1.091,0,0,0-1.093,0l-4.506,2.6v5.877Z" transform="translate(-161.095 -244.059)" fill="#8e6f16"/><path d="M239.886,5.058,231.346.16a1.093,1.093,0,0,0-1.636.948V4.445a1.093,1.093,0,0,0,.546.946L234.781,8h0Z" transform="translate(-210.52 -0.015)" fill="#8e6f16"/><path d="M290.41,63.346v5.222a1.091,1.091,0,0,0,.551.947l2.89,1.671a1.093,1.093,0,0,0,1.639-.943l.029-9.842Z" transform="translate(-266.149 -55.356)" fill="#e4b940"/><path d="M110.557,76.481l5.43-3.133a.545.545,0,0,0,0-.946l-5.43-3.128a.544.544,0,0,0-.545,0l-5.42,3.128a.546.546,0,0,0,0,.946l5.424,3.132A.545.545,0,0,0,110.557,76.481Z" transform="translate(-95.603 -63.422)" fill="url(#a)"/><path d="M179.05,128.146v6.265a.546.546,0,0,0,.82.473l5.423-3.129a.548.548,0,0,0,.27-.479V125.01a.546.546,0,0,0-.82-.473l-5.423,3.132A.547.547,0,0,0,179.05,128.146Z" transform="translate(-164.092 -114.068)" fill="url(#b)"/><path d="M94.5,125.032V131.3a.548.548,0,0,0,.273.474l1.713.989,3.709,2.14a.546.546,0,0,0,.82-.474v-6.265a.547.547,0,0,0-.273-.473l-5.423-3.132a.546.546,0,0,0-.82.475Z" transform="translate(-86.606 -114.086)" fill="url(#c)"/></g></svg>