<svg xmlns="http://www.w3.org/2000/svg" width="131.358" height="14.796" viewBox="0 0 131.358 14.796"><path d="M472.942,114.27h5.709l6.022,14.007h-5.006l-.837-2.271h-6.124l-.844,2.271h-5Zm2.845,3.531h-.039l-1.938,5.3h3.924Z" transform="translate(-466.86 -113.916)" fill="#e4b940"/><path d="M621.13,140.474h4.1v2.1h.039A4.981,4.981,0,0,1,629.6,140.2a8.308,8.308,0,0,1,1.413.119V144.2a7.724,7.724,0,0,0-2.3-.359c-2.374,0-3.434,1.217-3.434,3.139v4.12H621.13Z" transform="translate(-602.69 -136.747)" fill="#e4b940"/><path d="M717.3,114.27h11.595c3.393,0,3.983,2.1,3.983,3.452a2.958,2.958,0,0,1-1.727,2.825v.039c1.471.333,2.432,1.53,2.432,3.512,0,1.667-.784,4.184-5.08,4.184H717.3Zm4.669,5.394h4.65c1,0,1.434-.55,1.434-1.2,0-.628-.432-1.177-1.434-1.177h-4.65Zm5.02,5.59a1.449,1.449,0,0,0,1.647-1.451c0-.922-.667-1.393-1.647-1.393h-5.02v2.844Z" transform="translate(-687.364 -113.916)" fill="#fff"/><path d="M870.26,111.31h4.158v2.51H870.26Zm0,3.727h4.158v10.638H870.26Z" transform="translate(-822.041 -111.31)" fill="#fff"/><path d="M924.08,140.474h4.042V142h.039a5.606,5.606,0,0,1,4.473-1.8c2.609,0,4.512,1.255,4.512,3.9v7h-4.159v-5.748c0-1.353-.765-2.02-2.159-2.02a2.359,2.359,0,0,0-2.589,2.55v5.219h-4.16Z" transform="translate(-869.428 -136.747)" fill="#fff"/><path d="M1047.735,143.81c.392-3.159,3.394-3.61,6.651-3.61,3.865,0,6.768.628,6.768,3.61v5.379a3.37,3.37,0,0,0,.431,1.922h-4.158a3.067,3.067,0,0,1-.217-.981c-1.2,1.138-2.9,1.413-5,1.413-3.394,0-5.2-1.1-5.2-3.316,0-2.412,1.609-3.276,4.59-3.466l4.135-.281c1.076-.079,1.256-.314,1.256-.864,0-.745-.8-1.137-2.63-1.137-1.53,0-2.271.432-2.472,1.334Zm9.377,2.334a10.137,10.137,0,0,1-1.589.294l-2.805.333c-.844.1-1.2.432-1.2,1.076,0,.824.744,1.295,1.863,1.295,2.391,0,3.727-.9,3.727-2.355Z" transform="translate(-977.663 -136.747)" fill="#fff"/><path d="M1185.36,140.474h4.041V142h.039a5.594,5.594,0,0,1,4.473-1.8c2.608,0,4.511,1.255,4.511,3.9v7h-4.159v-5.748c0-1.353-.765-2.02-2.151-2.02a2.36,2.36,0,0,0-2.59,2.55v5.219h-4.159Z" transform="translate(-1099.476 -136.747)" fill="#fff"/><path d="M1323.892,145.61c-.628,3.041-2.688,4.767-7.357,4.767-4.708,0-7.455-1.824-7.455-5.748,0-3.845,2.885-5.748,7.455-5.748,3.962,0,6.788,1.2,7.162,4.571h-4.275c-.2-1.157-1.06-1.824-2.826-1.824a2.8,2.8,0,0,0-3.118,3c0,1.926,1.138,3,3.138,3,1.57,0,2.609-.667,2.883-2.02Z" transform="translate(-1208.408 -135.585)" fill="#fff"/><path d="M1457.208,146.731c-.51,1.765-2.531,3.586-7.063,3.586-4.781,0-7.456-1.824-7.456-5.767,0-3.766,2.924-5.729,7.338-5.729,4.551,0,7.377,1.982,7.377,6.415v.314h-10.437c.216,1.373,1.2,2.374,3.334,2.374a2.906,2.906,0,0,0,2.511-1.2Zm-4.082-3.333c-.24-1.176-1.119-2.177-3.081-2.177s-2.845,1-3.08,2.177Z" transform="translate(-1326.047 -135.532)" fill="#fff"/></svg>