<svg xmlns="http://www.w3.org/2000/svg" xmlns:xlink="http://www.w3.org/1999/xlink" width="766" height="862" viewBox="0 0 766 862"><defs><clipPath id="a"><rect width="766" height="862" transform="translate(600)" fill="#909090"/></clipPath><linearGradient id="b" x1="0.729" y1="0.481" x2="1.402" y2="1.815" gradientUnits="objectBoundingBox"><stop offset="0" stop-color="#3645fd" stop-opacity="0.502"/><stop offset="1"/></linearGradient><linearGradient id="l" x1="-0.018" y1="0.717" x2="0.539" y2="1.928" gradientUnits="objectBoundingBox"><stop offset="0" stop-color="#525fff" stop-opacity="0.608"/><stop offset="1" stop-color="#0be3ff" stop-opacity="0"/></linearGradient></defs><g transform="translate(-600)" clip-path="url(#a)"><g transform="matrix(0.914, -0.407, 0.407, 0.914, -339.464, 619.803)"><rect width="1585.423" height="1670.467" transform="translate(1520.468 -734.88) rotate(69)" opacity="0.5" fill="url(#b)"/><rect width="1827.787" height="1870.541" transform="translate(1701.43 -749.719) rotate(69)" opacity="0.7" fill="url(#b)"/><rect width="1082.088" height="1042.587" transform="translate(1138.803 -475.866) rotate(69)" opacity="0.5" fill="url(#b)"/><rect width="1070.681" height="1130.164" transform="translate(587.267 -441.215) rotate(69)" opacity="0.5" fill="url(#b)"/><rect width="1312.887" height="1310.258" transform="translate(1394.748 -654.998) rotate(69)" opacity="0.5" fill="url(#b)"/><rect width="1280.721" height="1205.618" transform="translate(1725.55 -187.757) rotate(69)" opacity="0.5" fill="url(#b)"/><rect width="779.65" height="643.877" transform="translate(1571.359 -510.273) rotate(69)" opacity="0.5" fill="url(#b)"/><rect width="696.988" height="575.41" transform="translate(1535.911 74.529) rotate(69)" opacity="0.5" fill="url(#b)"/><rect width="754.599" height="780.159" transform="translate(356.861 -574.51) rotate(69)" opacity="0.5" fill="url(#b)"/><rect width="725.049" height="832.398" transform="translate(1466.722 -865.734) rotate(69)" opacity="0.7" fill="url(#b)"/><path d="M0,0H1004.019V861.352H0Z" transform="translate(87.18 -708.444) rotate(-21)" opacity="0.547" fill="url(#l)"/></g></g></svg>