<svg xmlns="http://www.w3.org/2000/svg" width="118.589" height="13.806" viewBox="0 0 118.589 13.806"><path d="M20.115,0H6.9a6.9,6.9,0,0,0,0,13.806H20.088A6.9,6.9,0,0,0,20.115,0Z" fill="#033886"/><circle cx="5.878" cy="5.878" r="5.878" transform="translate(1.025 1.025)" fill="#fff"/><path d="M19.741,14.91h0a1.632,1.632,0,0,0-.189-2.885,2.954,2.954,0,0,0-.7-.162h.162V11H18.15v.836h-.485V11H16.8v.836H15.4v.89h.782v4.665H15.4v.89h1.4v.809h.863v-.782h.485v.782h.863V18.28L19.5,18.2a1.82,1.82,0,0,0,1.294-1.753A1.485,1.485,0,0,0,19.741,14.91Zm-.4-1.267a.744.744,0,0,1-.674.836h-1.24V12.807h1a1.408,1.408,0,0,1,.566.108A.807.807,0,0,1,19.337,13.642Zm-.27,3.64a1.37,1.37,0,0,1-.458.081H17.422V15.449h1.24a.9.9,0,0,1,.944.809v.135A.982.982,0,0,1,19.067,17.283Z" transform="translate(-11.248 -8.034)" fill="#033886"/><path d="M115.153,16.893a.14.14,0,0,1,.108.054l.27.27a5.924,5.924,0,0,1-.62.539,3.85,3.85,0,0,1-.728.4,4.294,4.294,0,0,1-.89.27,4.612,4.612,0,0,1-1.052.081,4.92,4.92,0,0,1-1.753-.324,4.042,4.042,0,0,1-1.375-.944,4.191,4.191,0,0,1-.89-1.483,5.905,5.905,0,0,1,0-3.856,4.22,4.22,0,0,1,2.319-2.454,4.589,4.589,0,0,1,1.807-.351,4.467,4.467,0,0,1,1.672.3,4.228,4.228,0,0,1,1.321.836l-.216.3a.192.192,0,0,1-.162.081.521.521,0,0,1-.243-.135l-.485-.324a3.981,3.981,0,0,0-.782-.324,3.041,3.041,0,0,0-1.106-.135,3.6,3.6,0,0,0-1.51.3,3.318,3.318,0,0,0-1.186.809,3.656,3.656,0,0,0-.782,1.321,5.37,5.37,0,0,0-.27,1.726,5.534,5.534,0,0,0,.27,1.753,3.548,3.548,0,0,0,.782,1.294,3.464,3.464,0,0,0,1.159.809,3.777,3.777,0,0,0,1.456.27c.3,0,.593-.027.89-.054a2.985,2.985,0,0,0,.7-.189,2.537,2.537,0,0,0,.593-.324,4.2,4.2,0,0,0,.539-.431c.027-.027.054-.027.054-.054A.2.2,0,0,1,115.153,16.893Z" transform="translate(-78.806 -6.646)" fill="#fff"/><path d="M148.763,14.054A5.985,5.985,0,0,1,148.44,16a4.191,4.191,0,0,1-.89,1.483,4.042,4.042,0,0,1-1.375.944,4.778,4.778,0,0,1-3.559,0A3.936,3.936,0,0,1,140.324,16a5.905,5.905,0,0,1,0-3.856,4.628,4.628,0,0,1,.89-1.483,4.154,4.154,0,0,1,3.155-1.267,4.957,4.957,0,0,1,1.78.324,3.936,3.936,0,0,1,2.292,2.427A5.71,5.71,0,0,1,148.763,14.054Zm-.7,0a5.37,5.37,0,0,0-.27-1.726,3.385,3.385,0,0,0-1.914-2.1,4.1,4.1,0,0,0-2.993,0,3.571,3.571,0,0,0-1.186.809,3.483,3.483,0,0,0-.755,1.294,5.37,5.37,0,0,0-.27,1.726,5.256,5.256,0,0,0,.27,1.726,3.892,3.892,0,0,0,.755,1.294,3.318,3.318,0,0,0,1.186.809,4.1,4.1,0,0,0,2.993,0,3.464,3.464,0,0,0,1.159-.809,3.893,3.893,0,0,0,.755-1.294A5.256,5.256,0,0,0,148.062,14.054Z" transform="translate(-102.25 -6.854)" fill="#fff"/><path d="M180.974,18.895H180.3V9.7h.674Z" transform="translate(-131.684 -7.084)" fill="#fff"/><path d="M199.992,9.7v9.195h-.324a.2.2,0,0,1-.135-.027.211.211,0,0,1-.108-.108l-5.959-7.981c0,.135.027.243.027.377v7.739H192.9V9.7h.324a.2.2,0,0,1,.135.027.21.21,0,0,1,.108.108l5.959,7.954c0-.135-.027-.243-.027-.377V9.7Z" transform="translate(-140.886 -7.084)" fill="#fff"/><path d="M231.558,10.28a.168.168,0,0,1-.162.108.371.371,0,0,1-.216-.135,2.653,2.653,0,0,0-.917-.539,2.9,2.9,0,0,0-1.726.027,1.64,1.64,0,0,0-.647.4,1.606,1.606,0,0,0-.378.566,2,2,0,0,0-.135.674,1.6,1.6,0,0,0,.189.782,1.853,1.853,0,0,0,.512.512,3,3,0,0,0,.728.351c.27.108.566.189.836.3s.566.216.863.324a2.477,2.477,0,0,1,.728.431,1.71,1.71,0,0,1,.512.647,1.914,1.914,0,0,1,.189.944,2.933,2.933,0,0,1-.189,1.079,2.783,2.783,0,0,1-.566.89,2.815,2.815,0,0,1-.917.593,3.252,3.252,0,0,1-1.24.216,3.467,3.467,0,0,1-1.564-.324,3.706,3.706,0,0,1-1.159-.89l.189-.3a.273.273,0,0,1,.189-.108.233.233,0,0,1,.162.081l.216.189a1.681,1.681,0,0,0,.324.243,1.368,1.368,0,0,0,.431.243,3.173,3.173,0,0,0,.539.189,3.109,3.109,0,0,0,.7.081,2.933,2.933,0,0,0,.971-.162,2.078,2.078,0,0,0,.728-.458,2.3,2.3,0,0,0,.458-.674,2.335,2.335,0,0,0,.162-.863,1.7,1.7,0,0,0-.189-.809,1.962,1.962,0,0,0-.512-.539A4.486,4.486,0,0,0,229.94,14c-.27-.108-.566-.189-.836-.27s-.566-.189-.863-.3a2.477,2.477,0,0,1-.728-.431,1.945,1.945,0,0,1-.512-.647,2.065,2.065,0,0,1-.189-1,2.479,2.479,0,0,1,.162-.89,2.086,2.086,0,0,1,.512-.755,2.478,2.478,0,0,1,.836-.539,2.71,2.71,0,0,1,1.133-.189,4.34,4.34,0,0,1,1.294.216,3.3,3.3,0,0,1,1.025.7Z" transform="translate(-165.28 -6.559)" fill="#fff"/><path d="M263.779,8.7l-2.912,9.464h-2l-1.78-5.878a2.047,2.047,0,0,0-.108-.3c-.027-.108-.054-.216-.081-.351-.027.108-.054.243-.081.351s-.054.216-.081.3l-1.807,5.878h-2L250,8.7h1.834a.832.832,0,0,1,.485.135.53.53,0,0,1,.243.351l1.294,4.934c.027.162.081.324.108.512s.081.377.108.566a7.063,7.063,0,0,1,.3-1.079l1.537-4.934a.736.736,0,0,1,.243-.324.581.581,0,0,1,.458-.135h.647a.706.706,0,0,1,.458.135.876.876,0,0,1,.27.351l1.51,4.934a6.41,6.41,0,0,1,.3,1.025c.027-.189.081-.377.108-.539s.081-.324.108-.485L261.3,9.212a.736.736,0,0,1,.243-.324A.706.706,0,0,1,262,8.754Z" transform="translate(-182.589 -6.354)" fill="#fff"/><path d="M307.6,18.091h-1.7a.706.706,0,0,1-.458-.135.876.876,0,0,1-.27-.351l-.566-1.645H301.02l-.566,1.645a.793.793,0,0,1-.27.324.581.581,0,0,1-.458.135H298L301.667,8.6h2.238Zm-3.478-3.613-.863-2.589c-.054-.162-.135-.351-.216-.593-.081-.216-.135-.458-.216-.728a4.672,4.672,0,0,1-.216.728c-.081.216-.135.431-.216.593l-.863,2.589Z" transform="translate(-217.647 -6.281)" fill="#fff"/><path d="M342.089,16.385v1.753H336.4V8.7h2.184v7.712h3.505Z" transform="translate(-245.692 -6.354)" fill="#fff"/><path d="M367.389,16.385v1.753H361.7V8.7h2.184v7.712h3.505Z" transform="translate(-264.17 -6.354)" fill="#fff"/><path d="M389.184,10.372v2.211h2.966V14.2h-2.966v2.265h3.883v1.7H387V8.7h6.094v1.7h-3.91Z" transform="translate(-282.648 -6.354)" fill="#fff"/><path d="M419.423,10.426h-2.669v7.712h-2.184V10.426H411.9V8.7h7.523Z" transform="translate(-300.834 -6.354)" fill="#fff"/></svg>