<svg xmlns="http://www.w3.org/2000/svg" width="20" height="19.23" viewBox="0 0 20 19.23"><g transform="translate(0 -9.851)"><g transform="translate(0 9.851)"><g transform="translate(0 0)"><circle cx="0.714" cy="0.714" r="0.714" transform="translate(3.571 2.857)" fill="#fff"/><path d="M75.422,133.2a1.375,1.375,0,0,1-1.366,0,1.429,1.429,0,0,0-.739,1.164,2.487,2.487,0,0,0,2.844,0A1.429,1.429,0,0,0,75.422,133.2Z" transform="translate(-70.453 -128.38)" fill="#fff"/><path d="M48.211,46.423a2.5,2.5,0,0,0-2.027,3.957A2.143,2.143,0,0,1,47,49.306a1.414,1.414,0,0,1-.214-.741,1.429,1.429,0,0,1,2.857,0,1.414,1.414,0,0,1-.214.741,2.143,2.143,0,0,1,.812,1.074,2.5,2.5,0,0,0-2.026-3.957Z" transform="translate(-43.925 -44.994)" fill="#fff"/><path d="M283.215,192.709h-8.571a.357.357,0,0,0-.357.357v4.576a7.636,7.636,0,0,0,.648,2.727.35.35,0,0,1,.051.118,8.931,8.931,0,0,0,1.5,2.316.314.314,0,0,1,.036.042,10.18,10.18,0,0,0,2.413,1.951,8.856,8.856,0,0,0,4.643-7.154v-4.576A.357.357,0,0,0,283.215,192.709Zm-6.076,8.816a.358.358,0,0,1-.643.153,7.614,7.614,0,0,1-1.5-4.035v-3.5a.714.714,0,0,1,.714-.714h3.929a.357.357,0,1,1,0,.714h-3.929v3.5a6.954,6.954,0,0,0,1.361,3.616A.357.357,0,0,1,277.139,201.525Zm1.031-2.03a.357.357,0,0,1-.253-.1l-.67-.67a.357.357,0,0,1,.505-.505l.417.417,2.649-2.649a.357.357,0,0,1,.505.505l-2.9,2.9A.357.357,0,0,1,278.17,199.495Zm4.688-1.852a8.126,8.126,0,0,1-3.728,6.179.357.357,0,1,1-.4-.59,7.374,7.374,0,0,0,3.415-5.594v-3.5a.357.357,0,1,1,0-.714.714.714,0,0,1,.714.714Z" transform="translate(-263.572 -185.566)" fill="#fff"/><path d="M126.719,466.994h-7.5a.357.357,0,0,0-.357.357v.357h8.595C127.187,467.474,126.942,467.235,126.719,466.994Z" transform="translate(-114.214 -449.137)" fill="#fff"/><path d="M19.686,10.165a1.071,1.071,0,0,0-.758-.314H1.071A1.071,1.071,0,0,0,0,10.922V21.637H.714V19.851a.714.714,0,0,1,.714-.714H4.286A.714.714,0,0,1,5,19.851v1.786h.714V19.851a.714.714,0,0,1,.714-.714h2.5a.357.357,0,1,1,0,.714h-2.5v1.786H10V18.422H1.429a.357.357,0,1,1,0-.714H10v-.357a1.071,1.071,0,0,1,1.071-1.071h8.571a1.059,1.059,0,0,1,.357.066V10.922A1.072,1.072,0,0,0,19.686,10.165ZM6.307,16.276h0l-.017.013a3.2,3.2,0,0,1-4.018-.006l-.007-.005a3.214,3.214,0,1,1,4.042,0Zm5.835-1.068H8.571a.357.357,0,0,1,0-.714h3.571a.357.357,0,1,1,0,.714Zm6.786-1.429H8.571a.357.357,0,0,1,0-.714H18.929a.357.357,0,1,1,0,.714Zm0-1.429H8.571a.357.357,0,1,1,0-.714H18.929a.357.357,0,1,1,0,.714Z" transform="translate(0 -9.851)" fill="#fff"/><path d="M10.025,329.851H0v1.071a1.071,1.071,0,0,0,1.071,1.071h9.459A8.81,8.81,0,0,1,10.025,329.851Z" transform="translate(0 -317.351)" fill="#fff"/><rect width="2.857" height="1.786" transform="translate(1.429 10)" fill="#fff"/><path d="M196.405,404.781a9.579,9.579,0,0,1-1.078-1.786H192v1.786Z" transform="translate(-184.5 -387.638)" fill="#fff"/></g></g></g></svg>