<svg xmlns="http://www.w3.org/2000/svg" width="18.897" height="19.844" viewBox="0 0 18.897 19.844"><g transform="translate(-14.605 -0.001)"><path d="M31.978,9.139a8.159,8.159,0,0,0-1.588,2.385,1.214,1.214,0,0,1-2.251,0,8.919,8.919,0,0,0-1.88-2.7c-.173-.192-.347-.383-.517-.581l-.024.009a1.435,1.435,0,0,0-.882,1.825c.213.5,1.706.4,1.579,1.478-.106.879,1.043,1.11,1.451,1.068s1.034.669.718.985-.906.328-.815,1.144c.024.237.742.207.742.566s-.371.773-.085,1.189a.968.968,0,0,0,.192.216,7.7,7.7,0,0,1-12.041-9.24,4.5,4.5,0,0,0,1.083,2.88c1.131,1.128,2.771.773,2.981,1.718s-1.125.946-1.037,1.667,1.834.916,1.445,1.582c-.514.885.347.949.1,2.041-.134.6.727.712,1.046.259.243-.347.195-.773.684-1.293.6-.639,1.989-.742,1.834-1.8-.265-1.752-1.968-2.026-2.71-2.436-.842-.462-.636-1.572-.818-2.1-.255-.751-1.122.21-1.585-.228-.76-.718.137-1.734.776-1.712,1.347.043,1.761,1.353,2.257,1.308s.8-.718.882-1.077c.179-.782-.3-.432-.5-.839-.262-.544.919-1.065,1.375-1.466a.613.613,0,0,0,.149-.173c.137-.268-.043-.471-.347-.657-.608-.368-1.718-.66-1.77-1.235-.03-.353.645-.523,1.414-.554.128.006.252.018.38.03a5.14,5.14,0,0,1,.307-1.058A8.551,8.551,0,0,0,23.4,2.259a8.793,8.793,0,1,0,8.793,8.793A8.618,8.618,0,0,0,31.978,9.139ZM28.854.02a4.327,4.327,0,0,0-3.749,5.1c.44,2.494,2.74,3.262,3.881,6.062a.3.3,0,0,0,.561,0C30.812,8.073,33.5,7.467,33.5,4.236A4.236,4.236,0,0,0,28.854.02Zm.412,6.452A2.237,2.237,0,1,1,31.5,4.236,2.237,2.237,0,0,1,29.267,6.472Z" transform="translate(0 0)" fill="#fff"/></g></svg>