<svg xmlns="http://www.w3.org/2000/svg" width="14.254" height="14.254" viewBox="0 0 14.254 14.254"><path d="M7.127,0a7.127,7.127,0,1,0,7.127,7.127A7.127,7.127,0,0,0,7.127,0ZM9.07,9.879a2.264,2.264,0,0,1-1.519.694v1.008H6.708v-1A2.21,2.21,0,0,1,4.657,8.654l1.3-.34a1.135,1.135,0,0,0,1.2,1.1.93.93,0,0,0,.7-.236.8.8,0,0,0,.224-.57.628.628,0,0,0-.224-.524,4.057,4.057,0,0,0-1-.452,5.877,5.877,0,0,1-1.088-.478A1.8,1.8,0,0,1,5.142,6.5a1.957,1.957,0,0,1-.244-.99,2.2,2.2,0,0,1,.437-1.333,1.952,1.952,0,0,1,1.373-.723V2.673h.844v.779a2.041,2.041,0,0,1,1.831,1.6l-1.162.477q-.341-.981-1.052-.981a.768.768,0,0,0-.573.219.729.729,0,0,0-.217.532.6.6,0,0,0,.209.489,3.586,3.586,0,0,0,.893.421,7.922,7.922,0,0,1,1.179.519,1.853,1.853,0,0,1,.683.674A1.94,1.94,0,0,1,9.6,8.407,2.128,2.128,0,0,1,9.07,9.879Z" fill="#fff"/></svg>