<svg xmlns="http://www.w3.org/2000/svg" width="16.967" height="16.266" viewBox="0 0 16.967 16.266"><g transform="translate(-165.303 -44.166)"><g transform="translate(165.303 44.166)"><path d="M391.97,1.75,390.453.235a.8.8,0,0,0-.57-.235.814.814,0,0,0-.57.235L388.1,1.445,390.754,4.1l1.213-1.21A.8.8,0,0,0,391.97,1.75Z" transform="translate(-375.239)" fill="#fff"/><path d="M150.3,68l2.654,2.651,7.313-7.3L157.613,60.7Z" transform="translate(-145.319 -58.688)" fill="#fff"/><path d="M116.467,298.1l-.567,3.215,3.221-.563Z" transform="translate(-112.059 -288.221)" fill="#fff"/><path d="M11.747,95.745H1.736V85.736H8.8L10.541,84H1.123A1.122,1.122,0,0,0,0,85.12V96.358a1.129,1.129,0,0,0,1.123,1.123H12.36a1.129,1.129,0,0,0,1.123-1.123V88.321l-1.736,1.733v5.69Z" transform="translate(0 -81.216)" fill="#fff"/></g></g></svg>