<svg xmlns="http://www.w3.org/2000/svg" width="11" height="11.03" viewBox="0 0 11 11.03"><path d="M2.868,4.853h0a.546.546,0,0,0,0,.772l1.71,1.71a.546.546,0,0,0,.772,0l4.743-4.743a.546.546,0,0,0,0-.772h0a.546.546,0,0,0-.772,0L5.35,5.791a.546.546,0,0,1-.772,0L3.64,4.853A.546.546,0,0,0,2.868,4.853Zm7.576.662A.547.547,0,0,0,9.9,6,4.412,4.412,0,1,1,5.515,1.1a4.379,4.379,0,0,1,.927.094.55.55,0,0,0,.5-.147h0A.546.546,0,0,0,6.676.129,5.656,5.656,0,0,0,5.515,0,5.515,5.515,0,1,0,11,6.122a.547.547,0,0,0-.543-.607Z" transform="translate(0)" fill="#41bf50"/></svg>