<svg xmlns="http://www.w3.org/2000/svg" width="18.648" height="15.433" viewBox="0 0 18.648 15.433"><path d="M250.7,271.96a1.007,1.007,0,0,0-.513-1.062l-3.561-1.9a.968.968,0,0,0-1.194.218l-.945,1.092a1.167,1.167,0,0,1-1.282.332,21.329,21.329,0,0,1-4.168-3.219,1.056,1.056,0,0,1-.071-1.174l.736-1.275a1.017,1.017,0,0,0-.2-1.26l-3.087-2.691a.825.825,0,0,0-.955-.111,9.518,9.518,0,0,0-2.978,2.419c-2.354,3.3,5.99,9.443,5.99,9.443,4.455,3.593,9.81,4.231,10.937,2.658A9.2,9.2,0,0,0,250.7,271.96Z" transform="translate(-232.069 -260.809)" fill="#fff"/></svg>