<svg xmlns="http://www.w3.org/2000/svg" width="18.832" height="19.656" viewBox="0 0 18.832 19.656"><g transform="translate(-11)"><path d="M25.05,8.971h.106q.275,0,.545.035V2.319A2.322,2.322,0,0,0,23.382,0H13.319A2.322,2.322,0,0,0,11,2.319v13.34a2.322,2.322,0,0,0,2.319,2.319h6.718A5.9,5.9,0,0,1,25.05,8.971Zm-8.666,5.22H13.947a.576.576,0,1,1,0-1.152h2.437a.576.576,0,1,1,0,1.152Zm0-2.342H13.947a.576.576,0,1,1,0-1.152h2.437a.576.576,0,1,1,0,1.152Zm0-2.3H13.947a.576.576,0,1,1,0-1.152h2.437a.576.576,0,1,1,0,1.152Zm0-2.3H13.947a.576.576,0,1,1,0-1.152h2.437a.576.576,0,1,1,0,1.152Zm0-2.3H13.947a.576.576,0,1,1,0-1.152h2.437a.576.576,0,1,1,0,1.152Z" fill="#fff"/><path d="M260.58,264.11a4.752,4.752,0,0,0-3.324-1.429h-.086a4.785,4.785,0,1,0,3.41,1.43Zm-1.367,2.577-1.826,2.277a.576.576,0,0,1-.787.106l-1.362-.987a.576.576,0,1,1,.676-.933l.918.665,1.483-1.849a.576.576,0,1,1,.9.721Z" transform="translate(-232.12 -252.596)" fill="#fff"/><g transform="translate(18.085 -4.822)"><path d="M3.868,7.274a1.165,1.165,0,0,1,.542.865.94.94,0,1,0-.542-.865ZM3.252,9.2a.94.94,0,1,0-.94-.94A.94.94,0,0,0,3.252,9.2Zm.4.064h-.8a1.205,1.205,0,0,0-1.2,1.2v.975l0,.015.067.021a5.479,5.479,0,0,0,1.636.264,3.36,3.36,0,0,0,1.429-.268l.063-.032h.007v-.976A1.2,1.2,0,0,0,3.651,9.263Zm1.555-.97H4.414a1.159,1.159,0,0,1-.358.807,1.43,1.43,0,0,1,1.022,1.369v.3A3.239,3.239,0,0,0,6.34,10.5l.063-.032h.007V9.5A1.2,1.2,0,0,0,5.206,8.292ZM1.6,8.228a.934.934,0,0,0,.5-.145,1.163,1.163,0,0,1,.437-.742c0-.018,0-.035,0-.053a.94.94,0,1,0-.94.94Zm.844.871a1.159,1.159,0,0,1-.357-.8c-.029,0-.058,0-.088,0H1.2A1.2,1.2,0,0,0,0,9.5v.976l0,.015.067.021a5.643,5.643,0,0,0,1.355.255v-.295A1.43,1.43,0,0,1,2.447,9.1Z" transform="translate(0 0)" fill="#3a3d4d"/></g></g></svg>