<svg xmlns="http://www.w3.org/2000/svg" width="12" height="10.099" viewBox="0 0 12 10.099"><g transform="translate(0 -6.348)"><path d="M7.241,8.081A2.181,2.181,0,0,1,8.256,9.7a1.759,1.759,0,1,0-1.015-1.62Zm-1.153,3.6a1.76,1.76,0,1,0-1.76-1.76A1.76,1.76,0,0,0,6.089,11.685Zm.747.12H5.342a2.256,2.256,0,0,0-2.253,2.254v1.826l0,.029.126.039a10.257,10.257,0,0,0,3.064.494,6.29,6.29,0,0,0,2.675-.5l.118-.059h.013V14.058A2.255,2.255,0,0,0,6.835,11.8ZM9.747,9.988H8.265A2.169,2.169,0,0,1,7.6,11.5a2.678,2.678,0,0,1,1.913,2.562v.563a6.064,6.064,0,0,0,2.362-.5l.118-.06H12V12.241A2.256,2.256,0,0,0,9.747,9.988ZM3,9.868A1.748,1.748,0,0,0,3.936,9.6a2.178,2.178,0,0,1,.819-1.389c0-.033,0-.066,0-.1A1.76,1.76,0,1,0,3,9.868ZM4.581,11.5A2.17,2.17,0,0,1,3.912,10c-.055,0-.109-.008-.165-.008H2.253A2.256,2.256,0,0,0,0,12.241v1.827L0,14.1l.126.04a10.565,10.565,0,0,0,2.538.477v-.552A2.678,2.678,0,0,1,4.581,11.5Z" transform="translate(0 0)" fill="#fff"/></g></svg>