<svg xmlns="http://www.w3.org/2000/svg" xmlns:xlink="http://www.w3.org/1999/xlink" width="40" height="34.989" viewBox="0 0 40 34.989"><defs><linearGradient id="a" y1="0.5" x2="1" y2="0.5" gradientUnits="objectBoundingBox"><stop offset="0" stop-color="#a57d24"/><stop offset="0.211" stop-color="#d8bd62"/><stop offset="0.328" stop-color="#f1dd80"/><stop offset="0.524" stop-color="#fbf2a8"/><stop offset="0.73" stop-color="#f1dd80"/><stop offset="1" stop-color="#a57d24"/></linearGradient><linearGradient id="c" x1="0" y1="0.5" x2="1" y2="0.5" xlink:href="#a"/><linearGradient id="bb" x1="0.5" y1="1" x2="0.5" gradientUnits="objectBoundingBox"><stop offset="0" stop-color="#d5ad48"/><stop offset="0.556" stop-color="#ffff82"/><stop offset="0.821" stop-color="#dfc458"/><stop offset="0.831" stop-color="#e1c75a"/><stop offset="0.917" stop-color="#f2e872"/><stop offset="0.964" stop-color="#f9f57c"/></linearGradient><linearGradient id="bc" x1="-0.073" y1="0.943" x2="0.735" y2="0.319" gradientUnits="objectBoundingBox"><stop offset="0" stop-color="#d5ad48"/><stop offset="0.41" stop-color="#ffff82"/><stop offset="0.554" stop-color="#ebd866"/><stop offset="0.716" stop-color="#d8b34c"/><stop offset="0.847" stop-color="#cc9d3b"/><stop offset="0.931" stop-color="#c89536"/></linearGradient><linearGradient id="bd" x1="-0.265" y1="1.053" x2="0.694" y2="0.36" gradientUnits="objectBoundingBox"><stop offset="0.069" stop-color="#c89536"/><stop offset="0.153" stop-color="#cc9d3b"/><stop offset="0.284" stop-color="#d8b34c"/><stop offset="0.446" stop-color="#ebd866"/><stop offset="0.59" stop-color="#ffff82"/><stop offset="1" stop-color="#d5ad48"/></linearGradient></defs><g transform="translate(0)"><g transform="translate(0 0)"><g transform="translate(19.661)"><path d="M819.261,177.5a3.8,3.8,0,0,1,1.056,2.1,3.29,3.29,0,0,1-3.241-2.956A3.8,3.8,0,0,1,819.261,177.5Z" transform="translate(-807.604 -176.621)" fill="url(#a)"/><g transform="translate(4.546)"><g transform="translate(0 29.402)"><path d="M701.036,876.514a3.983,3.983,0,0,0-.807,2.16,4.548,4.548,0,0,0,2.344-1.529,2.793,2.793,0,0,0,.383-2.189A6.6,6.6,0,0,0,701.036,876.514Z" transform="translate(-700.219 -874.956)" fill="url(#a)"/><path d="M701.954,956.468A2.749,2.749,0,0,1,700,955.161a8.921,8.921,0,0,1,2.853-.28,3.629,3.629,0,0,1,2.1.994A5.364,5.364,0,0,1,701.954,956.468Z" transform="translate(-700.002 -951.487)" fill="url(#c)"/></g><g transform="translate(3.257 27.894)"><path d="M777.784,840.949a3.914,3.914,0,0,0-.33,2.22,4.232,4.232,0,0,0,1.9-1.869,2.8,2.8,0,0,0-.056-2.182A6.069,6.069,0,0,0,777.784,840.949Z" transform="translate(-777.413 -839.118)" fill="url(#c)"/><path d="M780.037,918.232a2.711,2.711,0,0,1-2.084-.936,8.124,8.124,0,0,1,2.625-.748,3.574,3.574,0,0,1,2.19.6A5.022,5.022,0,0,1,780.037,918.232Z" transform="translate(-777.93 -913.285)" fill="url(#c)"/></g><g transform="translate(5.943 26.02)"><path d="M841.352,796.609a3.881,3.881,0,0,0,.109,2.2,4.077,4.077,0,0,0,1.464-2.133,2.8,2.8,0,0,0-.456-2.106A5.748,5.748,0,0,0,841.352,796.609Z" transform="translate(-841.24 -794.574)" fill="url(#c)"/><path d="M848.046,866.3a2.66,2.66,0,0,1-2.165-.552,7.6,7.6,0,0,1,2.367-1.171,3.517,3.517,0,0,1,2.221.21A4.844,4.844,0,0,1,848.046,866.3Z" transform="translate(-845.687 -861.549)" fill="url(#c)"/></g><g transform="translate(8.072 23.845)"><path d="M891.841,745.065a3.844,3.844,0,0,0,.507,2.118,4.021,4.021,0,0,0,1.03-2.323,2.779,2.779,0,0,0-.816-1.968A5.574,5.574,0,0,0,891.841,745.065Z" transform="translate(-891.833 -742.892)" fill="url(#c)"/><path d="M905.547,802.731a2.616,2.616,0,0,1-2.19-.162,7.3,7.3,0,0,1,2.078-1.546,3.481,3.481,0,0,1,2.2-.183A4.786,4.786,0,0,1,905.547,802.731Z" transform="translate(-902.872 -798.308)" fill="url(#c)"/></g><g transform="translate(9.668 21.436)"><path d="M929.8,687.892a3.786,3.786,0,0,0,.865,1.973,4.013,4.013,0,0,0,.6-2.443,2.739,2.739,0,0,0-1.132-1.777A5.482,5.482,0,0,0,929.8,687.892Z" transform="translate(-929.779 -685.645)" fill="url(#c)"/><path d="M952.107,729.449a2.588,2.588,0,0,1-2.162.226,7.2,7.2,0,0,1,1.757-1.87,3.471,3.471,0,0,1,2.116-.566A4.8,4.8,0,0,1,952.107,729.449Z" transform="translate(-949.097 -725.479)" fill="url(#c)"/></g><g transform="translate(10.711 18.86)"><path d="M954.709,626.674a3.709,3.709,0,0,0,1.18,1.774,4.013,4.013,0,0,0,.176-2.5,2.685,2.685,0,0,0-1.406-1.54A5.451,5.451,0,0,0,954.709,626.674Z" transform="translate(-954.56 -624.413)" fill="url(#c)"/><path d="M987.29,649.35a2.581,2.581,0,0,1-2.077.6,7.205,7.205,0,0,1,1.4-2.14,3.487,3.487,0,0,1,1.978-.933A4.837,4.837,0,0,1,987.29,649.35Z" transform="translate(-983.924 -645.935)" fill="url(#c)"/></g><g transform="translate(11.153 16.182)"><path d="M965.493,563a3.624,3.624,0,0,0,1.451,1.53,4.018,4.018,0,0,0-.244-2.482,2.631,2.631,0,0,0-1.634-1.266A5.466,5.466,0,0,0,965.493,563Z" transform="translate(-965.067 -560.782)" fill="url(#c)"/><path d="M1010.659,566.077a2.59,2.59,0,0,1-1.934.963,7.331,7.331,0,0,1,1.02-2.354,3.519,3.519,0,0,1,1.781-1.274A4.883,4.883,0,0,1,1010.659,566.077Z" transform="translate(-1006.888 -563.302)" fill="url(#c)"/></g><g transform="translate(11.035 12.747)"><path d="M963.053,498.463a3.542,3.542,0,0,0,1.677,1.249,4.025,4.025,0,0,0-.656-2.407,2.584,2.584,0,0,0-1.816-.96A5.557,5.557,0,0,0,963.053,498.463Z" transform="translate(-962.258 -495.62)" fill="url(#c)"/><path d="M1021.775,481.936a2.6,2.6,0,0,1-1.732,1.3,7.545,7.545,0,0,1,.6-2.507,3.555,3.555,0,0,1,1.525-1.582A4.941,4.941,0,0,1,1021.775,481.936Z" transform="translate(-1017.612 -479.145)" fill="url(#c)"/></g><g transform="translate(10.438 9.256)"><path d="M949.227,434.38a3.474,3.474,0,0,0,1.858.938,4.06,4.06,0,0,0-1.063-2.273,2.551,2.551,0,0,0-1.951-.633A5.734,5.734,0,0,0,949.227,434.38Z" transform="translate(-948.07 -430.875)" fill="url(#c)"/><path d="M1019.141,399.027a2.613,2.613,0,0,1-1.47,1.6,7.888,7.888,0,0,1,.15-2.6,3.586,3.586,0,0,1,1.206-1.849A5.019,5.019,0,0,1,1019.141,399.027Z" transform="translate(-1014.699 -396.178)" fill="url(#c)"/></g><g transform="translate(9.345 5.909)"><path d="M923.616,371a3.424,3.424,0,0,0,1.99.6,4.151,4.151,0,0,0-1.463-2.082,2.526,2.526,0,0,0-2.036-.29A6.036,6.036,0,0,0,923.616,371Z" transform="translate(-922.107 -366.928)" fill="url(#c)"/><path d="M997.564,319.456a2.615,2.615,0,0,1-1.146,1.858,8.376,8.376,0,0,1-.336-2.623,3.617,3.617,0,0,1,.824-2.068A5.162,5.162,0,0,1,997.564,319.456Z" transform="translate(-992.958 -316.622)" fill="url(#c)"/></g><g transform="translate(7.741 2.794)"><path d="M885.821,309.877a3.381,3.381,0,0,0,2.074.256,4.339,4.339,0,0,0-1.856-1.838,2.5,2.5,0,0,0-2.072.06A6.524,6.524,0,0,0,885.821,309.877Z" transform="translate(-883.967 -305.342)" fill="url(#c)"/><path d="M956.995,245.331a2.611,2.611,0,0,1-.759,2.068,9.185,9.185,0,0,1-.856-2.579,3.68,3.68,0,0,1,.379-2.231A5.445,5.445,0,0,1,956.995,245.331Z" transform="translate(-952.344 -242.588)" fill="url(#c)"/></g><g transform="translate(5.607)"><path d="M835.442,252.882a3.324,3.324,0,0,0,2.107-.1,4.67,4.67,0,0,0-2.24-1.542,2.449,2.449,0,0,0-2.057.409A7.219,7.219,0,0,0,835.442,252.882Z" transform="translate(-833.253 -248.016)" fill="url(#c)"/><path d="M897.129,178.768a2.621,2.621,0,0,1-.308,2.221,10.433,10.433,0,0,1-1.411-2.464,3.833,3.833,0,0,1-.132-2.329A5.958,5.958,0,0,1,897.129,178.768Z" transform="translate(-892.556 -176.196)" fill="url(#c)"/></g></g><g transform="translate(0 2.105)"><path d="M591.953,257.591l.023-.25a15.423,15.423,0,0,0,6.138-.686,16.25,16.25,0,0,0,5.366-2.938,17.073,17.073,0,0,0,6.07-11.036,20.681,20.681,0,0,0-.714-9.479,12.644,12.644,0,0,0-5.352-6.77l.133-.213a12.89,12.89,0,0,1,5.456,6.9,20.928,20.928,0,0,1,.726,9.594,17.324,17.324,0,0,1-6.159,11.2,16.5,16.5,0,0,1-5.449,2.983A15.673,15.673,0,0,1,591.953,257.591Z" transform="translate(-591.953 -226.218)" fill="url(#c)"/></g></g><path d="M306.946,177.5a3.8,3.8,0,0,0-1.056,2.1,3.29,3.29,0,0,0,3.241-2.956A3.8,3.8,0,0,0,306.946,177.5Z" transform="translate(-298.265 -176.621)" fill="url(#c)"/><g transform="translate(10.834 29.402)"><path d="M435.093,876.514a3.981,3.981,0,0,1,.806,2.16,4.548,4.548,0,0,1-2.344-1.529,2.794,2.794,0,0,1-.384-2.189A6.6,6.6,0,0,1,435.093,876.514Z" transform="translate(-430.952 -874.956)" fill="url(#c)"/><path d="M385.173,956.468a2.749,2.749,0,0,0,1.952-1.307,8.921,8.921,0,0,0-2.853-.28,3.629,3.629,0,0,0-2.1.994A5.364,5.364,0,0,0,385.173,956.468Z" transform="translate(-382.167 -951.487)" fill="url(#c)"/></g><g transform="translate(7.697 27.894)"><path d="M373.467,840.949a3.914,3.914,0,0,1,.33,2.22,4.232,4.232,0,0,1-1.9-1.869,2.8,2.8,0,0,1,.056-2.182A6.068,6.068,0,0,1,373.467,840.949Z" transform="translate(-369 -839.118)" fill="url(#c)"/><path d="M310.345,918.232a2.712,2.712,0,0,0,2.084-.936,8.124,8.124,0,0,0-2.625-.748,3.573,3.573,0,0,0-2.189.6A5.023,5.023,0,0,0,310.345,918.232Z" transform="translate(-307.614 -913.285)" fill="url(#c)"/></g><g transform="translate(5.066 26.02)"><path d="M319.12,796.609a3.884,3.884,0,0,1-.109,2.2,4.077,4.077,0,0,1-1.464-2.133,2.8,2.8,0,0,1,.456-2.106A5.747,5.747,0,0,1,319.12,796.609Z" transform="translate(-314.448 -794.574)" fill="url(#c)"/><path d="M247.507,866.3a2.66,2.66,0,0,0,2.164-.552,7.6,7.6,0,0,0-2.367-1.171,3.516,3.516,0,0,0-2.22.21A4.843,4.843,0,0,0,247.507,866.3Z" transform="translate(-245.084 -861.549)" fill="url(#c)"/></g><g transform="translate(2.961 23.845)"><path d="M272.962,745.065a3.846,3.846,0,0,1-.507,2.118,4.021,4.021,0,0,1-1.03-2.323,2.781,2.781,0,0,1,.816-1.968A5.572,5.572,0,0,1,272.962,745.065Z" transform="translate(-268.211 -742.892)" fill="url(#c)"/><path d="M197.135,802.731a2.617,2.617,0,0,0,2.191-.162,7.3,7.3,0,0,0-2.078-1.546,3.48,3.48,0,0,0-2.2-.183A4.785,4.785,0,0,0,197.135,802.731Z" transform="translate(-195.051 -798.308)" fill="url(#c)"/></g><g transform="translate(1.402 21.436)"><path d="M235.745,687.892a3.787,3.787,0,0,1-.865,1.973,4.01,4.01,0,0,1-.6-2.443,2.738,2.738,0,0,1,1.133-1.777A5.487,5.487,0,0,1,235.745,687.892Z" transform="translate(-231.042 -685.645)" fill="url(#c)"/><path d="M159.7,729.449a2.588,2.588,0,0,0,2.162.226,7.192,7.192,0,0,0-1.757-1.87,3.471,3.471,0,0,0-2.116-.566A4.794,4.794,0,0,0,159.7,729.449Z" transform="translate(-157.99 -725.479)" fill="url(#c)"/></g><g transform="translate(0.408 18.86)"><path d="M207.942,626.674a3.709,3.709,0,0,1-1.18,1.774,4.013,4.013,0,0,1-.176-2.5,2.685,2.685,0,0,1,1.406-1.54A5.455,5.455,0,0,1,207.942,626.674Z" transform="translate(-203.417 -624.413)" fill="url(#c)"/><path d="M135.685,649.35a2.581,2.581,0,0,0,2.077.6,7.208,7.208,0,0,0-1.4-2.14,3.486,3.486,0,0,0-1.978-.933A4.836,4.836,0,0,0,135.685,649.35Z" transform="translate(-134.378 -645.935)" fill="url(#c)"/></g><g transform="translate(0 16.182)"><path d="M189.583,563a3.624,3.624,0,0,1-1.451,1.53,4.018,4.018,0,0,1,.244-2.482,2.63,2.63,0,0,1,1.634-1.266A5.473,5.473,0,0,1,189.583,563Z" transform="translate(-185.369 -560.782)" fill="url(#c)"/><path d="M125.543,566.077a2.59,2.59,0,0,0,1.934.963,7.326,7.326,0,0,0-1.02-2.354,3.518,3.518,0,0,0-1.781-1.274A4.887,4.887,0,0,0,125.543,566.077Z" transform="translate(-124.675 -563.302)" fill="url(#c)"/></g><g transform="translate(0.147 12.747)"><path d="M180.506,498.463a3.542,3.542,0,0,1-1.678,1.249,4.025,4.025,0,0,1,.657-2.407,2.584,2.584,0,0,1,1.816-.96A5.556,5.556,0,0,1,180.506,498.463Z" transform="translate(-176.69 -495.62)" fill="url(#c)"/><path d="M128.619,481.936a2.6,2.6,0,0,0,1.732,1.3,7.542,7.542,0,0,0-.6-2.507,3.554,3.554,0,0,0-1.524-1.582A4.941,4.941,0,0,0,128.619,481.936Z" transform="translate(-128.172 -479.145)" fill="url(#c)"/></g><g transform="translate(0.743 9.256)"><path d="M182.142,434.38a3.474,3.474,0,0,1-1.858.938,4.059,4.059,0,0,1,1.063-2.273,2.551,2.551,0,0,1,1.951-.633A5.73,5.73,0,0,1,182.142,434.38Z" transform="translate(-178.687 -430.875)" fill="url(#c)"/><path d="M142.5,399.027a2.614,2.614,0,0,0,1.469,1.6,7.871,7.871,0,0,0-.15-2.6,3.585,3.585,0,0,0-1.206-1.849A5.018,5.018,0,0,0,142.5,399.027Z" transform="translate(-142.336 -396.178)" fill="url(#c)"/></g><g transform="translate(1.812 5.909)"><path d="M196.7,371a3.424,3.424,0,0,1-1.99.6,4.149,4.149,0,0,1,1.463-2.082,2.526,2.526,0,0,1,2.036-.29A6.039,6.039,0,0,1,196.7,371Z" transform="translate(-193.577 -366.928)" fill="url(#c)"/><path d="M167.767,319.456a2.615,2.615,0,0,0,1.146,1.858,8.383,8.383,0,0,0,.336-2.623,3.618,3.618,0,0,0-.824-2.068A5.162,5.162,0,0,0,167.767,319.456Z" transform="translate(-167.738 -316.622)" fill="url(#c)"/></g><g transform="translate(3.395 2.794)"><path d="M224.751,309.877a3.38,3.38,0,0,1-2.074.256,4.337,4.337,0,0,1,1.856-1.838,2.5,2.5,0,0,1,2.072.06A6.525,6.525,0,0,1,224.751,309.877Z" transform="translate(-221.949 -305.342)" fill="url(#c)"/><path d="M205.374,245.331a2.61,2.61,0,0,0,.759,2.068,9.184,9.184,0,0,0,.856-2.579,3.682,3.682,0,0,0-.379-2.231A5.444,5.444,0,0,0,205.374,245.331Z" transform="translate(-205.369 -242.588)" fill="url(#c)"/></g><g transform="translate(5.5)"><path d="M266.731,252.882a3.324,3.324,0,0,1-2.107-.1,4.67,4.67,0,0,1,2.24-1.542,2.448,2.448,0,0,1,2.056.409A7.222,7.222,0,0,1,266.731,252.882Z" transform="translate(-264.235 -248.016)" fill="url(#c)"/><path d="M255.5,178.768a2.621,2.621,0,0,0,.308,2.221,10.432,10.432,0,0,0,1.411-2.464,3.834,3.834,0,0,0,.132-2.329A5.959,5.959,0,0,0,255.5,178.768Z" transform="translate(-255.392 -176.196)" fill="url(#c)"/></g><g transform="translate(2.259 2.105)"><path d="M196.438,257.591l-.023-.25a15.423,15.423,0,0,1-6.138-.686,16.251,16.251,0,0,1-5.366-2.938,17.073,17.073,0,0,1-6.07-11.036,20.684,20.684,0,0,1,.714-9.479,12.644,12.644,0,0,1,5.352-6.77l-.133-.213a12.89,12.89,0,0,0-5.456,6.9,20.93,20.93,0,0,0-.725,9.594,17.324,17.324,0,0,0,6.159,11.2,16.5,16.5,0,0,0,5.449,2.983A15.673,15.673,0,0,0,196.438,257.591Z" transform="translate(-178.358 -226.218)" fill="url(#c)"/></g><path d="M555.036,941.433l-1.9,1.4,1.9,1.4,1.9-1.4Z" transform="translate(-535.11 -909.234)" fill="url(#c)"/></g><g transform="translate(14.349 7.066)"><path d="M48.309,327.2v16.558H61.243v-3.8H52.862V327.2Z" transform="translate(-48.309 -327.204)" fill="url(#bb)"/><path d="M48.773,343.67H61.15V342.1H50.719V327.668H48.773Z" transform="translate(-48.494 -327.389)" fill="url(#bc)"/><path d="M62.444,342.1v-1.672H54.062V327.668H52.013V342.1Z" transform="translate(-49.788 -327.389)" fill="url(#bd)"/></g></g></svg>