<svg xmlns="http://www.w3.org/2000/svg" width="8.598" height="25" viewBox="0 0 8.598 25"><g transform="translate(-214.578 -30.53)"><ellipse cx="2.226" cy="2.226" rx="2.226" ry="2.226" transform="translate(215.966 34.64) rotate(-67.392)" fill="#ffa511"/><path d="M222.4,50.573c-.014,0-.028,0-.042,0s-.028,0-.042,0h-6.879c-.014,0-.028,0-.042,0s-.028,0-.042,0a.776.776,0,0,0-.776.776v7.427a.776.776,0,1,0,1.552,0V52.43h.369V68.558a.989.989,0,1,0,1.978,0V60.67h.8v7.888a.989.989,0,1,0,1.978,0V52.43h.369v6.346a.776.776,0,1,0,1.552,0V51.349A.776.776,0,0,0,222.4,50.573Z" transform="translate(0 -14.017)" fill="#ffa511"/></g></svg>