<svg xmlns="http://www.w3.org/2000/svg" width="17.999" height="18.002" viewBox="0 0 17.999 18.002"><g transform="translate(-0.001 0)"><path d="M11166.417-6022.616h-14.835a1.584,1.584,0,0,1-1.581-1.583v-4.218a1.584,1.584,0,0,1,1.581-1.583h14.835a1.585,1.585,0,0,1,1.583,1.583v4.218A1.585,1.585,0,0,1,11166.417-6022.616Zm-2.145-2.949h0l.681.683a.54.54,0,0,0,.375.154.533.533,0,0,0,.373-.154.53.53,0,0,0,0-.746l-.684-.684.684-.681a.53.53,0,0,0,0-.745.532.532,0,0,0-.374-.153.532.532,0,0,0-.374.153l-.682.681-.681-.681a.526.526,0,0,0-.373-.153.526.526,0,0,0-.373.153.525.525,0,0,0-.155.375.516.516,0,0,0,.155.37l.682.681-.682.684a.515.515,0,0,0-.155.37.523.523,0,0,0,.155.376.526.526,0,0,0,.373.153.526.526,0,0,0,.373-.153l.68-.683Zm-5.271,0h0l.68.683a.533.533,0,0,0,.373.154.537.537,0,0,0,.372-.154.531.531,0,0,0,.156-.376.523.523,0,0,0-.156-.37l-.681-.684.681-.681a.519.519,0,0,0,.156-.37.528.528,0,0,0-.156-.375.525.525,0,0,0-.371-.153.532.532,0,0,0-.374.153l-.681.681-.685-.681a.525.525,0,0,0-.371-.153.532.532,0,0,0-.374.153.528.528,0,0,0,0,.745l.684.681-.684.684a.529.529,0,0,0,0,.746.532.532,0,0,0,.374.153.525.525,0,0,0,.371-.153l.684-.683Zm-5.292-.005h0l.7.691a.52.52,0,0,0,.37.151.534.534,0,0,0,.376-.157.526.526,0,0,0,.151-.374.524.524,0,0,0-.16-.372l-.689-.681.689-.678a.524.524,0,0,0,.16-.372.526.526,0,0,0-.151-.374.528.528,0,0,0-.376-.157.525.525,0,0,0-.37.152l-.7.692-.7-.692a.532.532,0,0,0-.372-.152.528.528,0,0,0-.376.157.53.53,0,0,0,.009.746l.689.678-.689.681a.53.53,0,0,0-.009.746.528.528,0,0,0,.376.157.529.529,0,0,0,.372-.151l.7-.691Z" transform="translate(-11150 6040.617)" fill="#fff"/><path d="M11155.8-6020.438h-4.22a1.584,1.584,0,0,1-1.582-1.582v-2.109a1.588,1.588,0,0,1,1.056-1.492v-1.742a2.641,2.641,0,0,1,2.638-2.638,2.64,2.64,0,0,1,2.636,2.638v1.742a1.587,1.587,0,0,1,1.055,1.492v2.109A1.584,1.584,0,0,1,11155.8-6020.438Zm-3.164-3.164a.528.528,0,0,0-.526.529.527.527,0,0,0,.526.527h2.108a.529.529,0,0,0,.529-.527.53.53,0,0,0-.529-.529Zm1.056-5.343a1.584,1.584,0,0,0-1.582,1.582v1.652h3.164v-1.652A1.584,1.584,0,0,0,11153.692-6028.945Z" transform="translate(-11144.691 6030)" fill="#fff"/></g></svg>