<svg xmlns="http://www.w3.org/2000/svg" width="11.996" height="11.996" viewBox="0 0 11.996 11.996"><path d="M4.944,0A1.407,1.407,0,0,0,3.538,1.406v.656a1.406,1.406,0,0,0,2.812,0V1.406A1.407,1.407,0,0,0,4.944,0Zm.469,2.062a.469.469,0,0,1-.937,0V1.406a.469.469,0,0,1,.937,0Zm-2.6,1.359H1.874V.047h.937Zm-1.874,0H0V.047H.937Zm.469,5.108A1.407,1.407,0,0,0,0,9.934v.656a1.406,1.406,0,0,0,2.812,0V9.934A1.407,1.407,0,0,0,1.406,8.528Zm.469,2.062a.469.469,0,0,1-.937,0V9.934a.469.469,0,0,1,.937,0ZM3.538,8.575h.937v3.374H3.538Zm1.874,0h.937v3.374H5.412ZM3.14,4.288A1.407,1.407,0,0,0,1.734,5.693v.656a1.406,1.406,0,0,0,2.812,0V5.693A1.407,1.407,0,0,0,3.14,4.288Zm.469,2.062a.469.469,0,0,1-.937,0V5.693a.469.469,0,0,1,.937,0ZM6.326,7.708H5.389V4.335h.937Zm-5.389,0H0V4.335H.937ZM12,6.021a.82.82,0,0,1-1.476.492H7.263V5.576h3.224A.82.82,0,0,1,12,6.021ZM8.528,2.2H7.263V1.265h2.2v1.64h1.022a.82.82,0,1,1,.032.937H8.528ZM12,8.646a.82.82,0,0,1-1.509.445H9.466v1.64h-2.2V9.794H8.528V8.154H10.52A.82.82,0,0,1,12,8.646Z" fill="#fff"/></svg>