<svg xmlns="http://www.w3.org/2000/svg" width="20.156" height="20.144" viewBox="0 0 20.156 20.144"><g transform="translate(-20.344 -20.356)"><path d="M17979.242,4910h-17.484l7.828-6.327h1.828l7.826,6.325Zm.758-.74h0l-5.625-4.818c.045-.033,5.461-4.07,5.627-4.2v9.016Zm-19,0v-9.016c.086.062.787.584,1.674,1.245,1.518,1.132,3.6,2.682,3.953,2.951l-5.625,4.818Zm6.729-6.524h0l-3.529-2.418v-7.139h12.6v7.139l-3.527,2.418-1.418-1.119h-2.711l-1.418,1.119Zm1.637-3.918h-.012a.1.1,0,0,0-.086.045l-.361.474a.113.113,0,0,0,.01.145.289.289,0,0,0,.063.063,1.439,1.439,0,0,0,.162.131,2.919,2.919,0,0,0,.258.172,2.827,2.827,0,0,0,.361.158,2.487,2.487,0,0,0,.447.108v.614a.112.112,0,0,0,.035.081.1.1,0,0,0,.076.032h.475a.114.114,0,0,0,.086-.032.112.112,0,0,0,.031-.081v-.614a1.525,1.525,0,0,0,.906-.483,1.331,1.331,0,0,0,.354-.925,1.126,1.126,0,0,0-.047-.333,1.1,1.1,0,0,0-.111-.267.794.794,0,0,0-.186-.226,2.706,2.706,0,0,0-.217-.176,2.181,2.181,0,0,0-.271-.149,2.5,2.5,0,0,0-.266-.126c-.041-.017-.094-.037-.16-.062l-.047-.018-.076-.028-.1-.04-.049-.02-.1-.04q-.062-.026-.152-.067l-.061-.027a1.4,1.4,0,0,1-.2-.108l-.008-.005a.868.868,0,0,1-.127-.112.374.374,0,0,1-.1-.145.409.409,0,0,1-.031-.167.454.454,0,0,1,.211-.393.9.9,0,0,1,.547-.153,1.162,1.162,0,0,1,.3.041,1.362,1.362,0,0,1,.262.095,1.018,1.018,0,0,1,.209.113l.035.023c.053.035.082.055.1.067a.487.487,0,0,1,.051.043.129.129,0,0,0,.074.028.078.078,0,0,0,.023,0,.094.094,0,0,0,.082-.054l.283-.515a.1.1,0,0,0-.018-.135.094.094,0,0,0-.014-.015l-.006-.006a.275.275,0,0,0-.029-.029l-.018-.014c-.02-.015-.061-.046-.123-.09l-.014-.008-.008,0c-.062-.041-.129-.082-.2-.119-.092-.041-.2-.081-.307-.117a1.9,1.9,0,0,0-.389-.082v-.618a.11.11,0,0,0-.031-.081.112.112,0,0,0-.086-.032h-.475a.089.089,0,0,0-.076.032.112.112,0,0,0-.035.081v.632a1.6,1.6,0,0,0-.9.474,1.207,1.207,0,0,0-.348.853,1.329,1.329,0,0,0,.031.271l0,.018a1.5,1.5,0,0,0,.072.217.712.712,0,0,0,.127.208,1.9,1.9,0,0,0,.148.171,1.2,1.2,0,0,0,.189.149c.059.042.121.08.2.126.063.034.135.069.221.108s.162.073.217.095c.037.013.088.033.131.051l.037.015.049.02.189.077.078.032.012,0c.047.02.1.046.146.07l.045.021.043.021a1.019,1.019,0,0,1,.209.135,1.1,1.1,0,0,1,.117.145.411.411,0,0,1,.049.189.494.494,0,0,1-.217.429.858.858,0,0,1-.5.153,1,1,0,0,1-.258-.032,1.847,1.847,0,0,1-.857-.437l-.01-.009A.091.091,0,0,0,17969.363,4898.817Zm8.494,1.093v-2.645l1.643,1.422-1.641,1.222Zm-14.922-.153h0l-1.43-1.064,1.432-1.236v2.3Zm8.965-7.63h-2.8l1.4-1.128,1.4,1.126Z" transform="translate(-17940 -4870)" fill="#fff" stroke="rgba(0,0,0,0)" stroke-width="1"/></g></svg>