<svg xmlns="http://www.w3.org/2000/svg" width="20" height="20.088" viewBox="0 0 20 20.088"><g transform="translate(-43.851 -43.124)"><path d="M47.725,304.817a3.874,3.874,0,1,0,3.874,3.874A3.874,3.874,0,0,0,47.725,304.817Zm0,3.683a1.419,1.419,0,0,1,.282,2.809v.341a.33.33,0,1,1-.66,0v-.364a1.421,1.421,0,0,1-1.041-1.367.33.33,0,1,1,.66,0,.759.759,0,0,0,.642.749.329.329,0,0,1,.167.007.758.758,0,0,0-.05-1.515,1.419,1.419,0,0,1-.378-2.786v-.335a.33.33,0,1,1,.66,0v.312a1.421,1.421,0,0,1,1.136,1.391.33.33,0,1,1-.66,0,.759.759,0,1,0-.759.759h0Z" transform="translate(0 -249.353)" fill="#fff"/><path d="M147.184,117.7l-2.008.58H146.6Z" transform="translate(-96.547 -71.058)" fill="#fff"/><path d="M331.63,50.2V46.251l-3.086,1.091,2.882,2.858Z" transform="translate(-271.269 -2.98)" fill="#fff"/><path d="M102,151.072a4.231,4.231,0,0,1,1.143-.151,4.54,4.54,0,0,1,4.314,5.9h11.8v-3.254h-2.512a3.136,3.136,0,0,1,0-6.271h2.512V144H102Z" transform="translate(-55.407 -96.119)" fill="#fff"/><path d="M199.352,43.124l-4.1,4.1h8.23Z" transform="translate(-144.266)" fill="#fff"/><path d="M362.111,230.476a2.479,2.479,0,0,0,2.481,2.476H367.1V228h-2.512A2.479,2.479,0,0,0,362.111,230.476Zm3.3-.007a1.284,1.284,0,1,1-1.284-1.284h0A1.285,1.285,0,0,1,365.409,230.469Z" transform="translate(-303.253 -176.158)" fill="#fff"/><circle cx="0.624" cy="0.624" r="0.624" transform="translate(60.248 53.687)" fill="#fff"/></g></svg>