<svg xmlns="http://www.w3.org/2000/svg" width="15.5" height="15.5" viewBox="0 0 15.5 15.5"><rect width="15.5" height="15.5" rx="7.75" fill="#55596a"/><g transform="translate(2.885 2.229)"><g transform="translate(0 2)"><path d="M0,2.749V8.923a.75.75,0,0,0,.749.749H9.48a.75.75,0,0,0,.749-.749V2.749A.75.75,0,0,0,9.48,2H.749A.75.75,0,0,0,0,2.749ZM8.841,9.033H1.389a.75.75,0,0,1-.749-.749V3.389a.75.75,0,0,1,.749-.749H8.841a.75.75,0,0,1,.749.749V8.283A.75.75,0,0,1,8.841,9.033Z" transform="translate(0 -2)" fill="#43475a"/><circle cx="0.959" cy="0.959" r="0.959" transform="translate(7.033 1.279)" fill="#43475a"/><path d="M7.187,6.933c-.581,0-.521,1.238-1.317,1.238S4.644,5,3.656,5,2,9.493,2,9.493H9.769S7.769,6.933,7.187,6.933Z" transform="translate(-0.723 -3.083)" fill="#43475a"/></g></g></svg>