<svg xmlns="http://www.w3.org/2000/svg" xmlns:xlink="http://www.w3.org/1999/xlink" width="17.389" height="14.585" viewBox="0 0 17.389 14.585"><defs><linearGradient id="a" x1="0.5" x2="0.5" y2="1" gradientUnits="objectBoundingBox"><stop offset="0" stop-color="#c8daea"/><stop offset="1" stop-color="#1e96c8"/></linearGradient><linearGradient id="b" x1="0.5" x2="0.5" y2="1" gradientUnits="objectBoundingBox"><stop offset="0" stop-color="#37aee2"/><stop offset="1" stop-color="#1e96c8"/></linearGradient></defs><g transform="translate(-1.245 -4.459)"><path d="M22.632,32.659c-.518,0-.43-.2-.609-.689L20.5,26.957,32.227,20" transform="translate(-14.847 -14.499)" fill-rule="evenodd" fill="url(#a)"/><path d="M24.5,40.178a1.025,1.025,0,0,0,.8-.4l2.132-2.073-2.66-1.6" transform="translate(-16.715 -22.018)" fill="#a9c9dd" fill-rule="evenodd"/><path d="M19.042,27.67l6.444,4.761c.735.406,1.266.2,1.449-.683l2.623-12.361c.269-1.077-.41-1.565-1.114-1.246l-15.4,5.939C11.99,24.5,12,25.089,12.85,25.35L16.8,26.584l9.151-5.773c.432-.262.829-.121.5.168" transform="translate(-10.985 -13.586)" fill-rule="evenodd" fill="url(#b)"/></g></svg>