<svg xmlns="http://www.w3.org/2000/svg" xmlns:xlink="http://www.w3.org/1999/xlink" width="30" height="26.242" viewBox="0 0 30 26.242"><defs><linearGradient id="a" y1="0.5" x2="1" y2="0.5" gradientUnits="objectBoundingBox"><stop offset="0" stop-color="#a57d24"/><stop offset="0.211" stop-color="#d8bd62"/><stop offset="0.328" stop-color="#f1dd80"/><stop offset="0.524" stop-color="#fbf2a8"/><stop offset="0.73" stop-color="#f1dd80"/><stop offset="1" stop-color="#a57d24"/></linearGradient><linearGradient id="c" x1="0" y1="0.5" x2="1" y2="0.5" xlink:href="#a"/><linearGradient id="bb" x1="0.5" y1="1" x2="0.5" gradientUnits="objectBoundingBox"><stop offset="0" stop-color="#d5ad48"/><stop offset="0.556" stop-color="#ffff82"/><stop offset="0.821" stop-color="#dfc458"/><stop offset="0.831" stop-color="#e1c75a"/><stop offset="0.917" stop-color="#f2e872"/><stop offset="0.964" stop-color="#f9f57c"/></linearGradient><linearGradient id="bc" x1="-0.091" y1="0.915" x2="0.79" y2="0.085" gradientUnits="objectBoundingBox"><stop offset="0.069" stop-color="#c89536"/><stop offset="0.153" stop-color="#cc9d3b"/><stop offset="0.284" stop-color="#d8b34c"/><stop offset="0.446" stop-color="#ebd866"/><stop offset="0.59" stop-color="#ffff82"/><stop offset="1" stop-color="#d5ad48"/></linearGradient><linearGradient id="bd" x1="-0.274" y1="1.059" x2="0.913" y2="-0.021" gradientUnits="objectBoundingBox"><stop offset="0" stop-color="#d5ad48"/><stop offset="0.41" stop-color="#ffff82"/><stop offset="0.554" stop-color="#ebd866"/><stop offset="0.716" stop-color="#d8b34c"/><stop offset="0.847" stop-color="#cc9d3b"/><stop offset="0.931" stop-color="#c89536"/></linearGradient></defs><g transform="translate(-124.675 -176.196)"><g transform="translate(124.675 176.196)"><g transform="translate(14.746)"><path d="M818.715,177.284a2.85,2.85,0,0,1,.792,1.573,2.468,2.468,0,0,1-2.431-2.217A2.851,2.851,0,0,1,818.715,177.284Z" transform="translate(-809.972 -176.626)" fill="url(#a)"/><g transform="translate(3.41)"><g transform="translate(0 22.051)"><path d="M700.834,876.124a2.987,2.987,0,0,0-.6,1.62,3.411,3.411,0,0,0,1.758-1.146,2.1,2.1,0,0,0,.288-1.642A4.952,4.952,0,0,0,700.834,876.124Z" transform="translate(-700.221 -874.956)" fill="url(#a)"/><path d="M701.466,956.063a2.062,2.062,0,0,1-1.464-.98,6.686,6.686,0,0,1,2.14-.21,2.722,2.722,0,0,1,1.578.745A4.026,4.026,0,0,1,701.466,956.063Z" transform="translate(-700.002 -952.327)" fill="url(#c)"/></g><g transform="translate(2.443 20.92)"><path d="M777.692,840.491a2.934,2.934,0,0,0-.247,1.665,3.173,3.173,0,0,0,1.427-1.4,2.1,2.1,0,0,0-.042-1.636A4.55,4.55,0,0,0,777.692,840.491Z" transform="translate(-777.414 -839.118)" fill="url(#c)"/><path d="M779.516,917.81a2.033,2.033,0,0,1-1.563-.7,6.091,6.091,0,0,1,1.969-.561,2.68,2.68,0,0,1,1.642.454A3.767,3.767,0,0,1,779.516,917.81Z" transform="translate(-777.936 -914.1)" fill="url(#c)"/></g><g transform="translate(4.457 19.514)"><path d="M841.324,796.1a2.912,2.912,0,0,0,.082,1.652,3.058,3.058,0,0,0,1.1-1.6,2.1,2.1,0,0,0-.342-1.579A4.31,4.31,0,0,0,841.324,796.1Z" transform="translate(-841.24 -794.574)" fill="url(#c)"/><path d="M847.505,865.85a2,2,0,0,1-1.623-.414,5.7,5.7,0,0,1,1.775-.878,2.637,2.637,0,0,1,1.665.158A3.633,3.633,0,0,1,847.505,865.85Z" transform="translate(-845.735 -862.284)" fill="url(#c)"/></g><g transform="translate(6.054 17.883)"><path d="M891.839,744.522a2.884,2.884,0,0,0,.38,1.589,3.015,3.015,0,0,0,.772-1.742,2.084,2.084,0,0,0-.612-1.476A4.181,4.181,0,0,0,891.839,744.522Z" transform="translate(-891.833 -742.892)" fill="url(#c)"/><path d="M905,802.234a1.962,1.962,0,0,1-1.643-.121,5.48,5.48,0,0,1,1.558-1.16,2.609,2.609,0,0,1,1.647-.137A3.59,3.59,0,0,1,905,802.234Z" transform="translate(-902.993 -798.917)" fill="url(#c)"/></g><g transform="translate(7.251 16.077)"><path d="M929.793,687.331a2.841,2.841,0,0,0,.649,1.48,3.009,3.009,0,0,0,.45-1.832,2.054,2.054,0,0,0-.849-1.333A4.114,4.114,0,0,0,929.793,687.331Z" transform="translate(-929.779 -685.645)" fill="url(#c)"/><path d="M951.567,728.894a1.941,1.941,0,0,1-1.621.169,5.394,5.394,0,0,1,1.318-1.4,2.6,2.6,0,0,1,1.587-.425A3.6,3.6,0,0,1,951.567,728.894Z" transform="translate(-949.309 -725.916)" fill="url(#c)"/></g><g transform="translate(8.033 14.145)"><path d="M954.672,626.109a2.782,2.782,0,0,0,.885,1.331,3.01,3.01,0,0,0,.132-1.871,2.013,2.013,0,0,0-1.054-1.155A4.09,4.09,0,0,0,954.672,626.109Z" transform="translate(-954.56 -624.413)" fill="url(#c)"/><path d="M986.771,648.733a1.936,1.936,0,0,1-1.557.453,5.405,5.405,0,0,1,1.053-1.605,2.615,2.615,0,0,1,1.484-.7A3.627,3.627,0,0,1,986.771,648.733Z" transform="translate(-984.246 -646.172)" fill="url(#c)"/></g><g transform="translate(8.365 12.137)"><path d="M965.387,562.445a2.718,2.718,0,0,0,1.089,1.148,3.014,3.014,0,0,0-.183-1.862,1.972,1.972,0,0,0-1.226-.949A4.1,4.1,0,0,0,965.387,562.445Z" transform="translate(-965.067 -560.782)" fill="url(#c)"/><path d="M1010.176,565.411a1.942,1.942,0,0,1-1.45.722,5.492,5.492,0,0,1,.765-1.765,2.639,2.639,0,0,1,1.336-.955A3.665,3.665,0,0,1,1010.176,565.411Z" transform="translate(-1007.348 -563.33)" fill="url(#c)"/></g><g transform="translate(8.276 9.56)"><path d="M962.855,497.933a2.656,2.656,0,0,0,1.258.937,3.019,3.019,0,0,0-.492-1.806,1.938,1.938,0,0,0-1.362-.72A4.167,4.167,0,0,0,962.855,497.933Z" transform="translate(-962.258 -495.801)" fill="url(#c)"/><path d="M1021.342,481.238a1.954,1.954,0,0,1-1.3.973,5.656,5.656,0,0,1,.451-1.88,2.665,2.665,0,0,1,1.143-1.186A3.705,3.705,0,0,1,1021.342,481.238Z" transform="translate(-1018.22 -479.145)" fill="url(#c)"/></g><g transform="translate(7.828 6.942)"><path d="M948.938,433.885a2.606,2.606,0,0,0,1.393.7,3.044,3.044,0,0,0-.8-1.7,1.913,1.913,0,0,0-1.463-.474A4.3,4.3,0,0,0,948.938,433.885Z" transform="translate(-948.071 -431.256)" fill="url(#c)"/><path d="M1018.762,398.315a1.96,1.96,0,0,1-1.1,1.2,5.908,5.908,0,0,1,.112-1.948,2.689,2.689,0,0,1,.9-1.387A3.764,3.764,0,0,1,1018.762,398.315Z" transform="translate(-1015.43 -396.178)" fill="url(#c)"/></g><g transform="translate(7.009 4.431)"><path d="M923.239,370.537a2.568,2.568,0,0,0,1.493.453,3.113,3.113,0,0,0-1.1-1.562,1.9,1.9,0,0,0-1.527-.217A4.526,4.526,0,0,0,923.239,370.537Z" transform="translate(-922.107 -367.481)" fill="url(#c)"/><path d="M997.19,318.747a1.961,1.961,0,0,1-.859,1.393,6.288,6.288,0,0,1-.252-1.967,2.714,2.714,0,0,1,.618-1.551A3.871,3.871,0,0,1,997.19,318.747Z" transform="translate(-993.736 -316.622)" fill="url(#c)"/></g><g transform="translate(5.805 2.095)"><path d="M885.357,309.432a2.535,2.535,0,0,0,1.555.192,3.253,3.253,0,0,0-1.392-1.378,1.872,1.872,0,0,0-1.554.045A4.893,4.893,0,0,0,885.357,309.432Z" transform="translate(-883.967 -306.031)" fill="url(#c)"/><path d="M956.583,244.645a1.957,1.957,0,0,1-.569,1.551,6.89,6.89,0,0,1-.642-1.935,2.761,2.761,0,0,1,.284-1.673A4.084,4.084,0,0,1,956.583,244.645Z" transform="translate(-953.095 -242.588)" fill="url(#c)"/></g><g transform="translate(4.205)"><path d="M834.895,252.454a2.494,2.494,0,0,0,1.581-.074,3.5,3.5,0,0,0-1.68-1.157,1.836,1.836,0,0,0-1.542.307A5.415,5.415,0,0,0,834.895,252.454Z" transform="translate(-833.253 -248.805)" fill="url(#c)"/><path d="M896.637,178.125a1.966,1.966,0,0,1-.231,1.666,7.824,7.824,0,0,1-1.058-1.848,2.875,2.875,0,0,1-.1-1.747A4.468,4.468,0,0,1,896.637,178.125Z" transform="translate(-893.207 -176.196)" fill="url(#c)"/></g></g><g transform="translate(0 1.579)"><path d="M591.953,249.747l.017-.188a11.568,11.568,0,0,0,4.6-.514,12.187,12.187,0,0,0,4.025-2.2,12.8,12.8,0,0,0,4.552-8.277,15.511,15.511,0,0,0-.535-7.109,9.483,9.483,0,0,0-4.014-5.078l.1-.16a9.667,9.667,0,0,1,4.092,5.176,15.7,15.7,0,0,1,.544,7.2,12.993,12.993,0,0,1-4.619,8.4,12.378,12.378,0,0,1-4.087,2.237A11.754,11.754,0,0,1,591.953,249.747Z" transform="translate(-591.953 -226.218)" fill="url(#c)"/></g></g><path d="M306.682,177.284a2.85,2.85,0,0,0-.792,1.573,2.467,2.467,0,0,0,2.431-2.217A2.851,2.851,0,0,0,306.682,177.284Z" transform="translate(-300.171 -176.626)" fill="url(#c)"/><g transform="translate(8.126 22.051)"><path d="M434.593,876.124a2.986,2.986,0,0,1,.6,1.62,3.411,3.411,0,0,1-1.758-1.146,2.1,2.1,0,0,1-.288-1.642A4.951,4.951,0,0,1,434.593,876.124Z" transform="translate(-431.488 -874.956)" fill="url(#c)"/><path d="M384.422,956.063a2.062,2.062,0,0,0,1.464-.98,6.686,6.686,0,0,0-2.14-.21,2.723,2.723,0,0,0-1.579.745A4.026,4.026,0,0,0,384.422,956.063Z" transform="translate(-382.167 -952.327)" fill="url(#c)"/></g><g transform="translate(5.773 20.92)"><path d="M373.024,840.491a2.935,2.935,0,0,1,.247,1.665,3.173,3.173,0,0,1-1.427-1.4,2.1,2.1,0,0,1,.042-1.636A4.548,4.548,0,0,1,373.024,840.491Z" transform="translate(-369.674 -839.118)" fill="url(#c)"/><path d="M309.662,917.81a2.033,2.033,0,0,0,1.563-.7,6.093,6.093,0,0,0-1.969-.561,2.68,2.68,0,0,0-1.642.454A3.767,3.767,0,0,0,309.662,917.81Z" transform="translate(-307.614 -914.1)" fill="url(#c)"/></g><g transform="translate(3.8 19.514)"><path d="M318.714,796.1a2.913,2.913,0,0,1-.082,1.652,3.057,3.057,0,0,1-1.1-1.6,2.1,2.1,0,0,1,.342-1.579A4.309,4.309,0,0,1,318.714,796.1Z" transform="translate(-315.21 -794.574)" fill="url(#c)"/><path d="M246.9,865.85a2,2,0,0,0,1.623-.414,5.7,5.7,0,0,0-1.775-.878,2.637,2.637,0,0,0-1.665.158A3.633,3.633,0,0,0,246.9,865.85Z" transform="translate(-245.084 -862.284)" fill="url(#c)"/></g><g transform="translate(2.221 17.883)"><path d="M272.578,744.522a2.884,2.884,0,0,1-.381,1.589,3.015,3.015,0,0,1-.772-1.742,2.085,2.085,0,0,1,.612-1.476A4.179,4.179,0,0,1,272.578,744.522Z" transform="translate(-269.014 -742.892)" fill="url(#c)"/><path d="M196.614,802.234a1.962,1.962,0,0,0,1.643-.121,5.479,5.479,0,0,0-1.559-1.16,2.608,2.608,0,0,0-1.647-.137A3.589,3.589,0,0,0,196.614,802.234Z" transform="translate(-195.051 -798.917)" fill="url(#c)"/></g><g transform="translate(1.051 16.077)"><path d="M235.371,687.331a2.841,2.841,0,0,1-.649,1.48,3.008,3.008,0,0,1-.45-1.832,2.054,2.054,0,0,1,.849-1.333A4.115,4.115,0,0,1,235.371,687.331Z" transform="translate(-231.844 -685.645)" fill="url(#c)"/><path d="M159.274,728.894a1.941,1.941,0,0,0,1.621.169,5.393,5.393,0,0,0-1.318-1.4,2.6,2.6,0,0,0-1.587-.425A3.6,3.6,0,0,0,159.274,728.894Z" transform="translate(-157.99 -725.916)" fill="url(#c)"/></g><g transform="translate(0.306 14.145)"><path d="M207.569,626.109a2.782,2.782,0,0,1-.885,1.331,3.01,3.01,0,0,1-.132-1.871,2.013,2.013,0,0,1,1.054-1.155A4.091,4.091,0,0,1,207.569,626.109Z" transform="translate(-204.176 -624.413)" fill="url(#c)"/><path d="M135.358,648.733a1.936,1.936,0,0,0,1.557.453,5.407,5.407,0,0,0-1.054-1.605,2.615,2.615,0,0,0-1.484-.7A3.627,3.627,0,0,0,135.358,648.733Z" transform="translate(-134.378 -646.172)" fill="url(#c)"/></g><g transform="translate(0 12.137)"><path d="M189.2,562.445a2.718,2.718,0,0,1-1.089,1.148,3.014,3.014,0,0,1,.183-1.862,1.972,1.972,0,0,1,1.226-.949A4.1,4.1,0,0,1,189.2,562.445Z" transform="translate(-186.036 -560.782)" fill="url(#c)"/><path d="M125.326,565.411a1.942,1.942,0,0,0,1.45.722,5.494,5.494,0,0,0-.765-1.765,2.639,2.639,0,0,0-1.336-.955A3.665,3.665,0,0,0,125.326,565.411Z" transform="translate(-124.675 -563.33)" fill="url(#c)"/></g><g transform="translate(0.11 9.56)"><path d="M180.085,497.933a2.656,2.656,0,0,1-1.258.937,3.019,3.019,0,0,1,.492-1.806,1.938,1.938,0,0,1,1.362-.72A4.167,4.167,0,0,1,180.085,497.933Z" transform="translate(-177.223 -495.801)" fill="url(#c)"/><path d="M128.507,481.238a1.954,1.954,0,0,0,1.3.973,5.656,5.656,0,0,0-.451-1.88,2.665,2.665,0,0,0-1.143-1.186A3.705,3.705,0,0,0,128.507,481.238Z" transform="translate(-128.172 -479.145)" fill="url(#c)"/></g><g transform="translate(0.557 6.942)"><path d="M181.677,433.885a2.606,2.606,0,0,1-1.393.7,3.044,3.044,0,0,1,.8-1.7,1.913,1.913,0,0,1,1.463-.474A4.3,4.3,0,0,1,181.677,433.885Z" transform="translate(-179.086 -431.256)" fill="url(#c)"/><path d="M142.462,398.315a1.961,1.961,0,0,0,1.1,1.2,5.9,5.9,0,0,0-.112-1.948,2.689,2.689,0,0,0-.9-1.387A3.763,3.763,0,0,0,142.462,398.315Z" transform="translate(-142.336 -396.178)" fill="url(#c)"/></g><g transform="translate(1.359 4.431)"><path d="M196.2,370.537a2.569,2.569,0,0,1-1.493.453,3.112,3.112,0,0,1,1.1-1.562,1.9,1.9,0,0,1,1.527-.217A4.529,4.529,0,0,1,196.2,370.537Z" transform="translate(-193.86 -367.481)" fill="url(#c)"/><path d="M167.76,318.747a1.961,1.961,0,0,0,.859,1.393,6.288,6.288,0,0,0,.252-1.967,2.714,2.714,0,0,0-.618-1.551A3.871,3.871,0,0,0,167.76,318.747Z" transform="translate(-167.738 -316.622)" fill="url(#c)"/></g><g transform="translate(2.546 2.095)"><path d="M224.233,309.432a2.535,2.535,0,0,1-1.555.192,3.253,3.253,0,0,1,1.392-1.378,1.872,1.872,0,0,1,1.554.045A4.894,4.894,0,0,1,224.233,309.432Z" transform="translate(-222.131 -306.031)" fill="url(#c)"/><path d="M205.373,244.645a1.957,1.957,0,0,0,.569,1.551,6.888,6.888,0,0,0,.642-1.935,2.761,2.761,0,0,0-.284-1.673A4.083,4.083,0,0,0,205.373,244.645Z" transform="translate(-205.369 -242.588)" fill="url(#c)"/></g><g transform="translate(4.125)"><path d="M266.2,252.454a2.494,2.494,0,0,1-1.581-.074,3.5,3.5,0,0,1,1.68-1.157,1.836,1.836,0,0,1,1.542.307A5.418,5.418,0,0,1,266.2,252.454Z" transform="translate(-264.332 -248.805)" fill="url(#c)"/><path d="M255.477,178.125a1.966,1.966,0,0,0,.231,1.666,7.822,7.822,0,0,0,1.058-1.848,2.875,2.875,0,0,0,.1-1.747A4.47,4.47,0,0,0,255.477,178.125Z" transform="translate(-255.392 -176.196)" fill="url(#c)"/></g><g transform="translate(1.694 1.579)"><path d="M191.918,249.747l-.017-.188a11.568,11.568,0,0,1-4.6-.514,12.188,12.188,0,0,1-4.025-2.2,12.8,12.8,0,0,1-4.552-8.277,15.511,15.511,0,0,1,.535-7.109,9.483,9.483,0,0,1,4.014-5.078l-.1-.16a9.667,9.667,0,0,0-4.092,5.176,15.7,15.7,0,0,0-.544,7.2,12.992,12.992,0,0,0,4.619,8.4,12.377,12.377,0,0,0,4.087,2.237A11.754,11.754,0,0,0,191.918,249.747Z" transform="translate(-178.358 -226.218)" fill="url(#c)"/></g><path d="M554.562,941.433l-1.423,1.046,1.423,1.046,1.423-1.046Z" transform="translate(-539.617 -917.284)" fill="url(#c)"/></g><g transform="translate(-30.342 -89.454)"><path d="M172.155,282.851a5.967,5.967,0,0,0,2.049-1.219,5.35,5.35,0,0,0,1.314-1.9,6.46,6.46,0,0,0,.457-2.473,6.55,6.55,0,0,0-.411-2.32,5.333,5.333,0,0,0-1.231-1.912,5.868,5.868,0,0,0-2.022-1.288,7.672,7.672,0,0,0-2.8-.472h-4.888V283.28h4.888A7.785,7.785,0,0,0,172.155,282.851Zm-2.641-2.331H167.93v-6.5h1.584a3.578,3.578,0,0,1,1.322.231,2.626,2.626,0,0,1,.97.653,2.9,2.9,0,0,1,.6,1.017,4.025,4.025,0,0,1,.21,1.332,3.967,3.967,0,0,1-.21,1.315,3.057,3.057,0,0,1-.6,1.028,2.662,2.662,0,0,1-.963.677A3.419,3.419,0,0,1,169.514,280.521Z" fill="url(#bb)"/><path d="M172.348,282.922a5.74,5.74,0,0,0,1.981-1.178,5.128,5.128,0,0,0,1.265-1.832,6.237,6.237,0,0,0,.442-2.4,6.324,6.324,0,0,0-.4-2.249,5.115,5.115,0,0,0-1.185-1.84,5.641,5.641,0,0,0-1.954-1.243,7.431,7.431,0,0,0-2.723-.458h-4.686V283.34h4.686A7.545,7.545,0,0,0,172.348,282.922Zm-5.852-.929v-8.922h3.191a6.153,6.153,0,0,1,2.02.316,4.446,4.446,0,0,1,1.612.956,4.038,4.038,0,0,1,.979,1.44,4.643,4.643,0,0,1,.317,1.733,4.6,4.6,0,0,1-.317,1.717,4.18,4.18,0,0,1-.954,1.433,4.45,4.45,0,0,1-1.592.986,5.939,5.939,0,0,1-2.064.341Z" transform="translate(-0.261 -0.261)" fill="url(#bc)"/><path d="M175.164,282.408a4.18,4.18,0,0,0,.954-1.433,4.6,4.6,0,0,0,.317-1.717,4.643,4.643,0,0,0-.317-1.733,4.038,4.038,0,0,0-.979-1.44,4.446,4.446,0,0,0-1.612-.956,6.151,6.151,0,0,0-2.02-.317h-3.191v8.922h3.191a5.94,5.94,0,0,0,2.064-.341A4.45,4.45,0,0,0,175.164,282.408Zm-3.568.318H169.81v-6.9H171.6a3.768,3.768,0,0,1,1.4.245,2.816,2.816,0,0,1,1.043.7,3.084,3.084,0,0,1,.646,1.088,4.2,4.2,0,0,1,.221,1.4,4.149,4.149,0,0,1-.221,1.382,3.249,3.249,0,0,1-.637,1.1,2.85,2.85,0,0,1-1.035.728A3.6,3.6,0,0,1,171.6,282.726Z" transform="translate(-2.082 -2.003)" fill="url(#bd)"/></g></g></svg>