<svg xmlns="http://www.w3.org/2000/svg" width="20" height="20" viewBox="0 0 20 20"><g transform="translate(-1210.386 -1014.674)"><circle cx="10" cy="10" r="10" transform="translate(1210.386 1014.674)" fill="#266ba6"/><circle cx="9.158" cy="9.158" r="9.158" transform="translate(1211.228 1015.516)" fill="#fff"/><path d="M1250.142,1058.448a2.725,2.725,0,0,0-.4.03,1.578,1.578,0,0,1-.672-1.232,1.455,1.455,0,0,1,.445-.941,2.694,2.694,0,1,0-1.443-.835,1.189,1.189,0,0,1-.441.835,2.575,2.575,0,0,1-1.38.164,2.693,2.693,0,1,0,.079,1.743,1.571,1.571,0,0,1,1.124.113,1.931,1.931,0,0,1,.5,1.255,2.692,2.692,0,1,0,2.193-1.131Z" transform="translate(-27.596 -32.675)" fill="#2c71ae"/></g></svg>