<svg xmlns="http://www.w3.org/2000/svg" width="17.331" height="17.159" viewBox="0 0 17.331 17.159"><g transform="translate(0 -2.428)"><g transform="translate(0 2.428)"><path d="M16.991,10.117,9.75,2.876a1.539,1.539,0,0,0-2.171,0l-7.24,7.24a1.159,1.159,0,0,0,1.639,1.639l.981-.982v7.578A1.235,1.235,0,0,0,4.2,19.588H6.834V16.145a.485.485,0,0,1,.485-.485h2.693a.485.485,0,0,1,.485.485v3.443h2.638a1.235,1.235,0,0,0,1.235-1.235V10.775l.981.981a1.159,1.159,0,0,0,1.639-1.639Z" transform="translate(0 -2.428)" fill="#fff"/></g></g></svg>