<svg xmlns="http://www.w3.org/2000/svg" width="17.381" height="18" viewBox="0 0 17.381 18"><g transform="translate(-1079.68 -818)"><g transform="translate(1071.68 818)"><path d="M112,145.862h5.661l-.073-.582a.311.311,0,0,1,.346-.346l2.483.31a.31.31,0,0,1,.181.528l-.091.091h.8V144H112Zm4.345-1.241h.621v.621h-.621Zm-1.241,0h.621v.621H115.1Zm-1.241,0h.621v.621h-.621Zm-1.241,0h.621v.621h-.621Z" transform="translate(-99.966 -138.414)" fill="#fff"/><path d="M409.915,64.931a.931.931,0,0,0-.931-.931h-.929v9.31h1.862Z" transform="translate(-384.536 -61.517)" fill="#fff"/><path d="M274.5,185.569l.172-.172-1.457-.182.182,1.459.172-.172a.31.31,0,0,1,.439,0l1.022,1.02.492-.492-1.022-1.022A.31.31,0,0,1,274.5,185.569Z" transform="translate(-254.926 -178.03)" fill="#fff"/><path d="M9.864,64H8.931A.931.931,0,0,0,8,64.931V73.31H9.864Z" transform="translate(0 -61.517)" fill="#fff"/><path d="M25.381,320H8v.621a.931.931,0,0,0,.931.931H24.45a.931.931,0,0,0,.931-.931Z" transform="translate(0 -307.586)" fill="#fff"/><path d="M84.469.931A.931.931,0,0,0,83.538,0H72.986a.931.931,0,0,0-.931.931V11.793H84.469Zm-9-.31h.621v.621h-.621Zm-1.241,0h.621v.621h-.621Zm-1.241,0H73.6v.621h-.621ZM83.536,7.759a.31.31,0,0,1-.31.31H82.112l.712.712a.31.31,0,0,1,0,.439l-.931.931a.31.31,0,0,1-.439,0L80.432,9.129l-.4.4a.31.31,0,0,1-.528-.181l-.16-1.28H73.294a.31.31,0,0,1-.31-.31V5.276a.31.31,0,0,1,.31-.31h9.931a.31.31,0,0,1,.31.31Zm0-5.276H72.984V1.862H83.536Z" transform="translate(-61.57)" fill="#fff"/><path d="M148.75,376h-2.669l-1.016,2.793H144v.621h7.138v-.621h-1.373Z" transform="translate(-130.724 -361.414)" fill="#fff"/></g></g></svg>