<svg xmlns="http://www.w3.org/2000/svg" width="19.116" height="20.115" viewBox="0 0 19.116 20.115"><g transform="translate(0.001 0.001)"><path d="M110.508,229.316h-5.055V228.2h-.8v1.116H99.6a.378.378,0,0,0-.4.4v1.512h.8v-1.116H110.15v1.116h.8v-1.512A.432.432,0,0,0,110.508,229.316Z" transform="translate(-95.497 -219.681)" fill="#fff"/><path d="M11152.978-5925.6a4.424,4.424,0,0,1-4.419-4.418,4.425,4.425,0,0,1,4.419-4.421,4.426,4.426,0,0,1,4.421,4.421A4.425,4.425,0,0,1,11152.978-5925.6Zm0-3.749a6.146,6.146,0,0,0-1.993.328,1,1,0,0,0-.678.955v.121a3.414,3.414,0,0,0,2.666,1.313,3.426,3.426,0,0,0,2.671-1.313v-.121a1.027,1.027,0,0,0-.678-.955A6.1,6.1,0,0,0,11152.982-5929.352Zm0-3.061a1.316,1.316,0,0,0-1.313,1.316,1.314,1.314,0,0,0,1.313,1.313,1.315,1.315,0,0,0,1.315-1.313A1.317,1.317,0,0,0,11152.978-5932.413Z" transform="translate(-11143.421 5934.442)" fill="#fff"/><path d="M11152.659-5926.237a4.107,4.107,0,0,1-4.1-4.1,4.107,4.107,0,0,1,4.1-4.1,4.107,4.107,0,0,1,4.1,4.1A4.108,4.108,0,0,1,11152.659-5926.237Zm-.021-3.405a5.835,5.835,0,0,0-1.854.3.954.954,0,0,0-.638.876v.12a3.244,3.244,0,0,0,2.515,1.2,3.132,3.132,0,0,0,2.466-1.2v-.12a.891.891,0,0,0-.638-.876A5.809,5.809,0,0,0,11152.639-5929.643Zm.023-2.847a1.2,1.2,0,0,0-1.2,1.2,1.2,1.2,0,0,0,1.2,1.193,1.194,1.194,0,0,0,1.192-1.193A1.2,1.2,0,0,0,11152.662-5932.49Z" transform="translate(-11148.558 5946.351)" fill="#fff"/><path d="M11152.659-5926.237a4.107,4.107,0,0,1-4.1-4.1,4.107,4.107,0,0,1,4.1-4.1,4.107,4.107,0,0,1,4.1,4.1A4.108,4.108,0,0,1,11152.659-5926.237Zm-.021-3.405a5.829,5.829,0,0,0-1.853.3.952.952,0,0,0-.638.876v.12a3.38,3.38,0,0,0,2.512,1.2,3.143,3.143,0,0,0,2.469-1.2v-.12a.892.892,0,0,0-.638-.876A5.82,5.82,0,0,0,11152.638-5929.643Zm.021-2.847a1.2,1.2,0,0,0-1.193,1.2,1.194,1.194,0,0,0,1.193,1.193,1.2,1.2,0,0,0,1.2-1.193A1.2,1.2,0,0,0,11152.659-5932.49Z" transform="translate(-11137.648 5946.351)" fill="#fff"/></g></svg>