<svg xmlns="http://www.w3.org/2000/svg" width="15" height="15" viewBox="0 0 15 15"><path d="M10.041,5.32,6.7,8.425a.692.692,0,0,0-.215.414l-.114.843a.1.1,0,0,1-.2.015L5.73,8.16A.408.408,0,0,1,5.908,7.7L9.956,5.208A.071.071,0,0,1,10.041,5.32ZM15,7.5h0A7.5,7.5,0,0,1,7.5,15h0A7.5,7.5,0,0,1,0,7.5H0A7.5,7.5,0,0,1,7.5,0h0A7.5,7.5,0,0,1,15,7.5ZM11.662,3.6l-8.5,3.279a.244.244,0,0,0,0,.456l2.071.773.8,2.578a.244.244,0,0,0,.387.117l1.154-.941A.344.344,0,0,1,8,9.854l2.082,1.512a.244.244,0,0,0,.382-.148l1.525-7.337A.244.244,0,0,0,11.662,3.6Z" transform="translate(0)" fill="#fff"/></svg>