<svg xmlns="http://www.w3.org/2000/svg" width="11.144" height="17.76" viewBox="0 0 11.144 17.76"><g transform="translate(-91.321)"><path d="M95.251,3.51a.666.666,0,1,1,.666-.666A.667.667,0,0,1,95.251,3.51Zm0,.427A2.415,2.415,0,0,1,96.82,8.19a1.775,1.775,0,0,0-.793-.181c-.062,0-.127,0-.177.007a1.355,1.355,0,0,0-.985.612c-.022.033-.043.065-.062.1a2.415,2.415,0,0,1,.449-4.789Zm-.83,2.941a.66.66,0,0,0,.2.482.864.864,0,0,0,.5.217v.268a.065.065,0,0,0,.065.065h.239a.065.065,0,0,0,.065-.065V7.571a.739.739,0,0,0,.395-.192.611.611,0,0,0,.181-.46.582.582,0,0,0-.177-.46,2.039,2.039,0,0,0-.558-.322.63.63,0,0,1-.225-.141.277.277,0,0,1-.062-.185.3.3,0,0,1,.054-.185.206.206,0,0,1,.174-.072.227.227,0,0,1,.185.087.37.37,0,0,1,.065.2.072.072,0,0,0,.076.065L96,5.9a.075.075,0,0,0,.076-.08.7.7,0,0,0-.167-.431.714.714,0,0,0-.413-.232V4.861a.065.065,0,0,0-.065-.065H95.19a.065.065,0,0,0-.065.065v.286a.773.773,0,0,0-.442.2.612.612,0,0,0-.188.456.585.585,0,0,0,.177.464,1.892,1.892,0,0,0,.561.312.644.644,0,0,1,.221.141.3.3,0,0,1,.062.2.267.267,0,0,1-.062.181.222.222,0,0,1-.177.069.3.3,0,0,1-.228-.091.367.367,0,0,1-.087-.225.078.078,0,0,0-.076-.069l-.391.007A.083.083,0,0,0,94.422,6.879Zm7.6,3.01c-.2-.156-2.282-2.467-2.84-2.793V1.1A1.1,1.1,0,0,0,98.08,0H92.422a1.1,1.1,0,0,0-1.1,1.1V11.595a1.1,1.1,0,0,0,1.1,1.1h2.463l-.1-.862-.087-.076H93.61a1.161,1.161,0,0,0,.025-.42,1.116,1.116,0,0,0-.851-.938,1.1,1.1,0,0,0-.522,0V2.228a1.065,1.065,0,0,0,.594-.054,1.135,1.135,0,0,0,.536-.438,1.07,1.07,0,0,0,.17-.8h3.38a1.073,1.073,0,0,0,.163.79,1.095,1.095,0,0,0,1.137.5V10.2h0v2.289a4.2,4.2,0,0,1-.815-1.166s-.21-2.354-1.4-2.354a.818.818,0,0,0-.094,0s-.9.076-.156,2.659l.333,2.865a6.511,6.511,0,0,0,1.4,2.633v.322a.311.311,0,0,0,.312.312h3.354a.31.31,0,0,0,.308-.275,56.245,56.245,0,0,1,.848-5.875,1.815,1.815,0,0,0,.116-.409A1.4,1.4,0,0,0,102.021,9.889Z" fill="#fff"/></g></svg>