<svg xmlns="http://www.w3.org/2000/svg" width="19" height="14.488" viewBox="0 0 19 14.488"><g transform="translate(-45.7 -9.213)"><g transform="translate(45.7 9.213)"><g transform="translate(0)"><path d="M62.332,200.788A2.371,2.371,0,0,0,64.7,198.42v-9.752a2.371,2.371,0,0,0-2.368-2.368H48.068a2.371,2.371,0,0,0-2.368,2.368v9.752a2.371,2.371,0,0,0,2.368,2.368ZM48.12,189.6a.584.584,0,1,1,.756-.889l6.324,5.373,6.329-5.368a.584.584,0,0,1,.756.889l-4.517,3.832L62.3,197.7a.585.585,0,0,1-.4,1.008.589.589,0,0,1-.4-.157l-4.636-4.36-1.293,1.1a.581.581,0,0,1-.751,0l-1.293-1.1-4.636,4.36a.589.589,0,0,1-.4.157.57.57,0,0,1-.423-.185.584.584,0,0,1,.024-.823l4.536-4.27Z" transform="translate(-45.7 -186.3)" fill="#fff"/></g></g></g></svg>