<svg xmlns="http://www.w3.org/2000/svg" xmlns:xlink="http://www.w3.org/1999/xlink" width="35" height="33.287" viewBox="0 0 35 33.287"><defs><linearGradient id="a" y1="0.5" x2="1" y2="0.5" gradientUnits="objectBoundingBox"><stop offset="0" stop-color="#a57d24"/><stop offset="0.211" stop-color="#d8bd62"/><stop offset="0.328" stop-color="#f1dd80"/><stop offset="0.524" stop-color="#fbf2a8"/><stop offset="0.73" stop-color="#f1dd80"/><stop offset="1" stop-color="#a57d24"/></linearGradient><linearGradient id="b" x1="0.5" y1="1" x2="0.5" y2="0" xlink:href="#a"/></defs><g transform="translate(0)"><path d="M491.616,334.562l-12.8-.636-4.561-11.981-4.561,11.981-12.8.636,9.985,8.04-3.352,12.373,10.732-7.012,10.732,7.012L481.632,342.6Zm-7.182,19.658-.012-.008L474.252,340.52v7.047h0l-10.171,6.645,10.171-13.692-7,1.969,0-.009-9.456-7.614,16.458,5.655-4.333-6.272h.006l4.328-11.368h0v17.64l4.334-6.272,12.143.6-.018.015-16.458,5.655,7.005,1.969Z" transform="translate(-456.752 -321.804)" fill="url(#a)"/><path d="M481.543,351.386l-10.816-7.066-10.816,7.066,3.378-12.47-10.063-8.1,12.9-.64,4.6-12.074,4.6,12.074,12.9.64-10.063,8.1Zm-.539-.741h0Zm0,0L479,343.238Zm-20.552,0,10.276-6.714,9.923,6.483-.042-.027L470.89,337.3v6.52Zm-2.953-16.81,6.163,4.962-.028.1-3.065,11.314,9.743-13.116-6.7,1.882.048-.182Zm13.066,3.47-9.155,12.324,9.155-5.981Zm.579-.207,9.211,12.4-2.877-10.62Zm.132-.3,6.469,1.818.05.184.083-.067,9.1-7.331-.027.009Zm-15.893-5.084,8.508,6.851,6.289-1.767Zm-.843-.635.068.023,15.7,5.4-4.143-6Zm20.53-.261-3.925,5.68,14.941-5.133Zm-4.178-11.368v16.841l4.013-5.808.191.01-.038-.1Zm-4.235,11.184,3.909,5.657V320.363Zm20.7.468-.348.281.349-.281Z" transform="translate(-453.227 -318.099)" fill="url(#b)"/></g></svg>