<svg xmlns="http://www.w3.org/2000/svg" xmlns:xlink="http://www.w3.org/1999/xlink" width="16" height="16.399" viewBox="0 0 16 16.399"><defs><clipPath id="a"><path d="M27.62,5.714a4.014,4.014,0,0,0-3.949,3.3l.058,0a6.245,6.245,0,0,1,5.9,4.194,4.014,4.014,0,0,0-2-7.493Z" transform="translate(-23.671 -5.714)" fill="none"/></clipPath></defs><g transform="translate(-0.643 0)"><g transform="translate(0.643)"><path d="M7.645,5.52a4.939,4.939,0,0,1,.879-2.389A3.987,3.987,0,1,0,3.8,7.886,5.978,5.978,0,0,1,7.645,5.52Z" transform="translate(-0.643)" fill="#fff"/><g transform="translate(8.239 11.889)"><path d="M24.257,34.076v1.632c.494-.033,1.014-.263,1.014-.807C25.271,34.339,24.7,34.175,24.257,34.076Z" transform="translate(-24.257 -34.076)"/></g><g transform="translate(6.821 9.236)"><path d="M20.193,27.172c0,.413.305.651.923.775V26.471C20.555,26.488,20.193,26.817,20.193,27.172Z" transform="translate(-20.193 -26.471)"/></g><g transform="translate(2.99 6.43)"><path d="M14.2,18.429a4.984,4.984,0,1,0,4.985,4.985A4.991,4.991,0,0,0,14.2,18.429Z" transform="translate(-9.213 -18.429)" fill="#fff"/></g></g><path d="M6.362,6.688H8.535l-.239.9h-3.1l.4-1.522-.9.336L4.97,5.341,5.874,5l.447-1.692h.932L6.908,4.62l.975-.363L7.6,5.319l-.975.363Z" transform="translate(-2.634 -2.157)" fill="#3a3d4d"/><g transform="translate(6.354 8.207)"><g transform="translate(0)"><path d="M20.8,26.494a1.015,1.015,0,0,0,.5-1.05c-.086-.65-.86-.895-1.471-.947v-.977h-.6v.968h-.4v-.968h-.6v.968H17.01v.624h.452c.2,0,.3.06.3.224v2.681c0,.224-.112.292-.232.292h-.46v.637h1.17v.99h.607v-.99h.4v.99h.59v-.99h.129c1.239,0,1.652-.607,1.652-1.433A1.072,1.072,0,0,0,20.8,26.494Zm-1.975-1.342h.43c.3,0,.895.052.895.542a.606.606,0,0,1-.529.641h-.8Zm.667,3.1v0h-.667V26.955H19.6c.181,0,.86.06.86.542S20.138,28.25,19.493,28.25Z" transform="translate(-17.01 -23.521)" fill="#3a3d4d"/></g></g><path d="M27.62,5.714a4.014,4.014,0,0,0-3.949,3.3l.058,0a6.245,6.245,0,0,1,5.9,4.194,4.014,4.014,0,0,0-2-7.493Z" transform="translate(-14.993 -3.72)" fill="#fff"/><g transform="translate(8.678 1.994)"><g clip-path="url(#a)"><g transform="translate(2.631 0.621)"><path d="M32.787,16.839l-1.576-.75,1.576,2.754,1.576-2.754Z" transform="translate(-31.211 -13.09)" fill="#3a3d4d"/><path d="M34.509,9.935l-1.4-2.44L31.7,9.937,33.1,9.27Z" transform="translate(-31.528 -7.495)" fill="#3a3d4d"/><path d="M32.047,14.265l1.284.609,1.286-.61-1.286-.608Z" transform="translate(-31.755 -11.506)" fill="#3a3d4d"/></g></g></g></g></svg>