<svg xmlns="http://www.w3.org/2000/svg" width="15" height="15" viewBox="0 0 15 15"><g transform="translate(-0.001 -3)"><g transform="translate(0.001)"><path d="M7.5,0A7.5,7.5,0,1,0,15,7.5,7.5,7.5,0,0,0,7.5,0Zm0,2.634L11.939,5.4H3.063Zm4.494,7.187h0a.8.8,0,0,1-.8.8H3.812a.8.8,0,0,1-.8-.8V5.578a.8.8,0,0,1,.013-.137l4.24,2.644.016.008.017.009a.445.445,0,0,0,.092.036l.01,0a.457.457,0,0,0,.1.013h0a.449.449,0,0,0,.1-.013l.01,0A.45.45,0,0,0,7.708,8.1l.017-.009.016-.008,4.24-2.644a.8.8,0,0,1,.013.137V9.821Z" transform="translate(-0.001 3)" fill="#fff"/></g></g></svg>