<svg xmlns="http://www.w3.org/2000/svg" width="16.969" height="9.187" viewBox="0 0 16.969 9.187"><path d="M16.677,4.226A12.627,12.627,0,0,0,14.41,2.114,10.085,10.085,0,0,0,8.484,0,10.085,10.085,0,0,0,2.559,2.114,12.627,12.627,0,0,0,.292,4.226L0,4.593l.292.368A12.627,12.627,0,0,0,2.559,7.072,10.07,10.07,0,0,0,8.484,9.187,10.085,10.085,0,0,0,14.41,7.072a12.773,12.773,0,0,0,2.267-2.111l.292-.368ZM8.484,7.811A3.217,3.217,0,0,1,5.369,3.788l-.736-.123a3.908,3.908,0,0,0-.109.928A3.952,3.952,0,0,0,5.793,7.5,10.492,10.492,0,0,1,3.288,6.134a12.4,12.4,0,0,1-1.74-1.541,12.4,12.4,0,0,1,1.74-1.541A10.492,10.492,0,0,1,5.793,1.69l.494.557a3.217,3.217,0,1,1,2.2,5.564Zm5.2-1.677A10.492,10.492,0,0,1,11.175,7.5a3.955,3.955,0,0,0,0-5.806,10.492,10.492,0,0,1,2.505,1.362,12.4,12.4,0,0,1,1.74,1.541A12.4,12.4,0,0,1,13.681,6.134Z" fill="#fff"/><path d="M191.493,75.515a2.17,2.17,0,0,0-.093.626,2.138,2.138,0,1,0,.656-1.544l1.057,1.19Z" transform="translate(-185.057 -71.548)" fill="#fff"/></svg>