<svg xmlns="http://www.w3.org/2000/svg" width="16" height="16" viewBox="0 0 16 16"><g transform="translate(-0.966 0.005)"><path d="M242.271,246.539l.476.476.613-.409a.285.285,0,0,1,.3-.007,2.819,2.819,0,0,0,.773.32.285.285,0,0,1,.21.221l.145.723h.673l.145-.723a.285.285,0,0,1,.21-.221,2.816,2.816,0,0,0,.773-.32.285.285,0,0,1,.305.007l.613.409.476-.476-.409-.614a.285.285,0,0,1-.007-.3,2.823,2.823,0,0,0,.32-.773.285.285,0,0,1,.221-.21l.723-.145v-.673l-.723-.145a.285.285,0,0,1-.221-.21,2.823,2.823,0,0,0-.32-.773.285.285,0,0,1,.007-.3l.409-.614-.476-.476-.613.409a.285.285,0,0,1-.305.007,2.811,2.811,0,0,0-.773-.32.285.285,0,0,1-.21-.221l-.145-.723h-.673l-.145.723a.285.285,0,0,1-.21.221,2.814,2.814,0,0,0-.773.32.285.285,0,0,1-.3-.007l-.613-.409-.476.476.408.614a.285.285,0,0,1,.008.3,2.819,2.819,0,0,0-.32.773.285.285,0,0,1-.221.21l-.723.145v.673l.723.145a.285.285,0,0,1,.221.21,2.819,2.819,0,0,0,.32.773.285.285,0,0,1-.008.3Zm.292-2.383a2.566,2.566,0,1,1,2.566,2.566A2.566,2.566,0,0,1,242.563,244.156Z" transform="translate(-231.869 -231.867)" fill="#fff"/><path d="M291.315,292.337a2,2,0,1,0-2-2A2,2,0,0,0,291.315,292.337Zm0-1.711a.853.853,0,0,1-.285-1.658v-.052a.285.285,0,0,1,.285-.285h0a.285.285,0,0,1,.285.285v.052a.855.855,0,0,1,.459.384.283.283,0,0,1-.251.419h0a.283.283,0,0,1-.246-.142.285.285,0,1,0-.247.427.853.853,0,0,1,.285,1.658v.052a.285.285,0,0,1-.285.285h0a.285.285,0,0,1-.285-.285v-.052a.855.855,0,0,1-.459-.384.283.283,0,0,1,.251-.419h0a.283.283,0,0,1,.246.142.285.285,0,1,0,.247-.427Z" transform="translate(-278.054 -278.053)" fill="#fff"/><path d="M9.8,14.55l.441-.662a3.442,3.442,0,0,1-.245-.593l-.781-.156a.285.285,0,0,1-.228-.279v-1.14a.285.285,0,0,1,.228-.279l.78-.156a3.448,3.448,0,0,1,.245-.593L9.8,10.028a.285.285,0,0,1,.036-.36l.807-.807A.285.285,0,0,1,11,8.826l.664.441a3.39,3.39,0,0,1,.593-.246l.156-.781a.285.285,0,0,1,.279-.228h1.14a.285.285,0,0,1,.279.228l.156.78a3.393,3.393,0,0,1,.593.246l.663-.442a.284.284,0,0,1,.18-.046,7.43,7.43,0,1,0-5.95,5.951A.283.283,0,0,1,9.8,14.55ZM9.422,7.644l-.807.807a.285.285,0,0,1-.4,0l-.723-.723h-2.5a.285.285,0,0,1-.285-.285h0a.285.285,0,0,1,.285-.285h2.5l.64-.639V3.451a.285.285,0,0,1,.285-.285h0a.285.285,0,0,1,.285.285V6.518l.723.723A.285.285,0,0,1,9.422,7.644ZM8.7,12.574v.57h-.57v-.57Zm-4.115-1.7.4.4-.4.4-.4-.4Zm-.4-7.257.4-.4.4.4-.4.4Zm3.948-1.3V1.74H8.7v.57Zm4.115,1.7-.4-.4.4-.4.4.4Zm1.872,3.712h-.57v-.57h.57ZM1.572,7.442a6.842,6.842,0,1,1,13.659.595.286.286,0,0,1-.321.26h0a.284.284,0,0,1-.247-.305,6.267,6.267,0,1,0-5.7,5.7.284.284,0,0,1,.306.247h0a.286.286,0,0,1-.259.321q-.3.026-.6.026A6.85,6.85,0,0,1,1.572,7.442Zm1.711-.285v.57h-.57v-.57Z" transform="translate(0 0)" fill="#fff"/><path d="M198.205,197.634l.4-.4.4.4-.4.4Z" transform="translate(-190.194 -190.192)" fill="#fff"/></g></svg>