<svg xmlns="http://www.w3.org/2000/svg" width="17" height="17" viewBox="0 0 17 17"><g transform="translate(-3364.429 -3421.857)"><g transform="translate(3364.429 3421.857)"><rect width="17" height="17" rx="8.5" fill="#e0392c"/><path d="M550.13,434.361h-.065l-.011-.023c-.1-.193-.2-.384-.3-.577q-.268-.515-.532-1.031l-.541-1.052q-.266-.516-.531-1.031c-.158-.308-.313-.617-.47-.925-.037-.073-.079-.143-.125-.224-.009.1-.021.19-.023.277-.007.38-.016.761-.015,1.141q0,1.049.016,2.1c0,.226.012.453.032.679.018.2.1.334.348.33.145,0,.291,0,.436,0,.022,0,.044,0,.074.005v.333H546.13v-.339c.1,0,.192,0,.284,0a2.707,2.707,0,0,0,.382-.034.349.349,0,0,0,.268-.287,3.076,3.076,0,0,0,.064-.477c.022-.3.033-.606.049-.91.006-.113.012-.226.015-.339.006-.266.013-.532.015-.8q.01-1.057.015-2.114a1.676,1.676,0,0,0-.017-.277c-.025-.153-.1-.187-.271-.2-.1-.009-.2,0-.307,0v-.291h1.292c.015.038.026.077.044.113q.248.519.5,1.038l.523,1.094.334.7.513,1.073.327.685c.024.049.05.1.082.157.115-.243.221-.469.328-.695l.633-1.33.424-.894.633-1.331c.1-.2.19-.407.285-.611h1.448v.292h-.354a.253.253,0,0,0-.287.281c-.009.227-.012.454-.016.682-.006.357-.015.714-.015,1.071,0,.494.009.989.015,1.483q.007.61.016,1.219c0,.152.007.3.016.456a.223.223,0,0,0,.184.215,1.831,1.831,0,0,0,.52.013v.342c-.031,0-.062,0-.093,0h-2.207c0-.093,0-.178,0-.263,0-.054.018-.074.072-.072.114,0,.229.007.342,0,.187-.012.314-.05.334-.277.016-.187.029-.375.03-.562q0-1.762,0-3.524c0-.024,0-.048,0-.072a.2.2,0,0,0-.06.075q-.543,1.077-1.084,2.154" transform="translate(-539.603 -423.171)" fill="#fff"/><path d="M241.317,743.9l-.017-.338c.108,0,.2,0,.3,0a.912.912,0,0,0,.183-.021.307.307,0,0,0,.239-.323c0-.143,0-.287,0-.43q.007-.593.016-1.187a.13.13,0,0,1,.006-.026h.763v.089c0,.436,0,.871,0,1.307a2.681,2.681,0,0,0,.031.352c.024.166.135.212.267.223s.278.012.417.017l.066,0v.335Z" transform="translate(-238.416 -732.707)" fill="#fff"/><path d="M173.669,434.26c.175.032.331.054.507.078s.352.041.528.049c.366.015.733.036,1.1.029a3.866,3.866,0,0,0,1.165-.166,1.437,1.437,0,0,0,.844-.707,1.507,1.507,0,0,0,.118-.439,1.928,1.928,0,0,0,.017-.362,1.327,1.327,0,0,0-.323-.887,1.231,1.231,0,0,0-.767-.455,6.412,6.412,0,0,0-.89-.026v2.786h-.753c0-.021,0-.043,0-.065,0-.137,0-.275,0-.413,0-.673-.007-1.347-.017-2.021,0-.173-.038-.245-.25-.251-.145,0-.291,0-.436,0l-.022,0v-.252h.09c.84,0,1.681,0,2.522,0a1.7,1.7,0,0,1,.9.254,1.513,1.513,0,0,1,.632.693,1.675,1.675,0,0,1,.136.492,1.772,1.772,0,0,1-.189,1.033,1.5,1.5,0,0,1-.566.591,2.4,2.4,0,0,1-.913.293,6.915,6.915,0,0,1-.924.077h-.229c-.251,0-.5,0-.752-.016a5.356,5.356,0,0,1-1.312-.218c-.08-.025-.235-.087-.235-.087A.061.061,0,0,1,173.669,434.26Z" transform="translate(-171.575 -425.996)" fill="#fff"/></g></g></svg>