<svg xmlns="http://www.w3.org/2000/svg" width="24" height="24" viewBox="0 0 24 24"><g transform="translate(-14 3)"><rect width="24" height="24" transform="translate(14 -3)" fill="none"/><path d="M383,69.772a1.372,1.372,0,1,0,1.372-1.372A1.375,1.375,0,0,0,383,69.772Z" transform="translate(-352.336 -64.222)" fill="#fff"/><path d="M358.829,158.913s-.347-.106-.347-.106a.409.409,0,0,0-.364.065l-.688.518-.688-.518a.412.412,0,0,0-.364-.065l-.347.106a1.359,1.359,0,0,0-.93,1.291v2.074a.414.414,0,0,0,.068.225l.695,1.059v2.779a.41.41,0,0,0,.409.409h2.322a.41.41,0,0,0,.409-.409v-2.779l.695-1.059a.414.414,0,0,0,.068-.225V160.2a1.374,1.374,0,0,0-.936-1.291Z" transform="translate(-325.386 -151.534)" fill="#fff"/><path d="M29.572,71.241A1.371,1.371,0,1,0,28.2,69.872,1.375,1.375,0,0,0,29.572,71.241Z" transform="translate(-9.619 -64.319)" fill="#fff"/><path d="M3.739,158.913s-.347-.106-.347-.106a.409.409,0,0,0-.364.065l-.688.518-.688-.518a.412.412,0,0,0-.364-.065l-.347.106A1.355,1.355,0,0,0,0,160.2v2.074a.414.414,0,0,0,.068.225l.695,1.059v2.779a.41.41,0,0,0,.409.409H3.494a.41.41,0,0,0,.409-.409v-2.779L4.6,162.5a.414.414,0,0,0,.068-.225V160.2A1.352,1.352,0,0,0,3.739,158.913Z" transform="translate(17.621 -151.534)" fill="#fff"/><path d="M197.442,1.771a1.771,1.771,0,1,0-1.771,1.771A1.772,1.772,0,0,0,197.442,1.771Z" transform="translate(-169.676 1.848)" fill="#fff"/><path d="M162.262,124.463h0l-.507-.157a.159.159,0,0,0-.194.1l-1.062,2.915a.193.193,0,0,1-.361,0l-1.062-2.915a.153.153,0,0,0-.146-.1c-.014,0-.552.16-.552.16a1.57,1.57,0,0,0-1.076,1.488v3.082a.149.149,0,0,0,.027.085l1.107,1.686v4.267a.158.158,0,0,0,.157.157h3.45a.158.158,0,0,0,.157-.157v-4.26l1.107-1.686a.158.158,0,0,0,.027-.085v-3.092a1.552,1.552,0,0,0-1.069-1.481Z" transform="translate(-134.322 -118.219)" fill="#fff"/><path d="M232.826,125.272a.236.236,0,0,0-.174-.072h-.484a.237.237,0,0,0-.174.072.227.227,0,0,0-.031.266l.259.392-.123,1.022.238.633a.072.072,0,0,0,.136,0l.238-.633-.123-1.022.259-.392a.216.216,0,0,0-.024-.266Z" transform="translate(-206.416 -119.088)" fill="#fff"/></g></svg>