<svg xmlns="http://www.w3.org/2000/svg" width="6.879" height="20" viewBox="0 0 6.879 20"><g transform="translate(-214.578 -30.53)"><ellipse cx="1.781" cy="1.781" rx="1.781" ry="1.781" transform="translate(215.689 33.818) rotate(-67.392)" fill="#fff"/><path d="M220.836,50.573c-.012,0-.022,0-.033,0s-.022,0-.033,0h-5.5c-.011,0-.022,0-.033,0s-.022,0-.033,0a.621.621,0,0,0-.621.621v5.942a.621.621,0,1,0,1.242,0V52.058h.3v12.9a.791.791,0,1,0,1.582,0V58.651h.641v6.311a.791.791,0,1,0,1.582,0v-12.9h.3v5.077a.621.621,0,1,0,1.242,0V51.194A.621.621,0,0,0,220.836,50.573Z" transform="translate(0 -15.222)" fill="#fff"/></g></svg>