<svg xmlns="http://www.w3.org/2000/svg" width="8.888" height="12.374" viewBox="0 0 8.888 12.374"><g transform="translate(-73.626 0.001)"><path d="M78.26,3.335,76.52.239A.469.469,0,0,0,76.048,0a2.494,2.494,0,0,0-2.418,2.51c-.078,1.241.944,3.944,1.939,5.733l.014.025L75.6,8.3a12.184,12.184,0,0,0,1.96,2.616l.715.629a5,5,0,0,0,.706.46,2.5,2.5,0,0,0,3.4-.76.469.469,0,0,0,.044-.525l-1.74-3.1a.468.468,0,0,0-.436-.238v0a2.515,2.515,0,0,0-1.831.846c-.249-.357-.491-.738-.721-1.141s-.959-1.729-1.133-2.128a2.5,2.5,0,0,0,1.675-1.124h0A.472.472,0,0,0,78.26,3.335Z" transform="translate(0 0)" fill="#fff"/><path d="M281.988,140.785a.408.408,0,0,0,.692-.069l2.049-2.526a.406.406,0,0,0-.63-.511l-1.778,2.192-.755-.686a.411.411,0,1,0-.651.5Z" transform="translate(-202.298 -134.284)" fill="#fff"/></g></svg>