<svg xmlns="http://www.w3.org/2000/svg" xmlns:xlink="http://www.w3.org/1999/xlink" width="74.578" height="78.388" viewBox="0 0 74.578 78.388"><defs><linearGradient id="a" x1="0.488" y1="0.157" x2="0.516" y2="0.952" gradientUnits="objectBoundingBox"><stop offset="0" stop-color="#e4b940"/><stop offset="0.31" stop-color="#e1b73f"/><stop offset="0.5" stop-color="#d9af3a"/><stop offset="0.67" stop-color="#caa233"/><stop offset="0.81" stop-color="#b59029"/><stop offset="0.95" stop-color="#9a791c"/><stop offset="1" stop-color="#8e6f16"/></linearGradient><linearGradient id="b" x1="0.094" y1="0.346" x2="0.901" y2="0.652" xlink:href="#a"/><linearGradient id="c" x1="-0.197" y1="0.254" x2="1.197" y2="0.746" xlink:href="#a"/></defs><path d="M12.876,67.862l.04-.023L0,60.38V85.356a2.773,2.773,0,0,0,4.162,2.4l7.327-4.23a2.77,2.77,0,0,0,1.387-2.4Z" transform="translate(0 -47.575)" fill="#8e6f16"/><path d="M0,12.842,12.917,20.3l11.455-6.61a2.781,2.781,0,0,0,1.387-2.4V2.822A2.777,2.777,0,0,0,21.593.416Z" transform="translate(0 -0.037)" fill="#e4b940"/><path d="M90.2,273.35l-11.489-6.633a2.771,2.771,0,0,0-2.775,0l-7.327,4.221a2.775,2.775,0,0,0,0,4.807l21.637,12.492V273.323Z" transform="translate(-52.965 -209.849)" fill="#e4b940"/><path d="M197.332,275.724a2.775,2.775,0,0,0,0-4.8L190,266.677a2.77,2.77,0,0,0-2.775,0l-11.442,6.606v14.923Z" transform="translate(-138.492 -209.817)" fill="#8e6f16"/><path d="M255.549,12.82,233.866.383a2.775,2.775,0,0,0-4.156,2.408v8.474a2.777,2.777,0,0,0,1.387,2.4L242.586,20.3h0Z" transform="translate(-180.982 -0.015)" fill="#8e6f16"/><path d="M290.41,67.88V81.14a2.771,2.771,0,0,0,1.4,2.4l7.34,4.243a2.775,2.775,0,0,0,4.162-2.395l.074-24.991Z" transform="translate(-228.806 -47.591)" fill="#e4b940"/><path d="M120.16,87.686l13.788-7.955a1.385,1.385,0,0,0,0-2.4L120.16,69.388a1.381,1.381,0,0,0-1.385,0L105.012,77.33a1.387,1.387,0,0,0,0,2.4l13.774,7.953A1.385,1.385,0,0,0,120.16,87.686Z" transform="translate(-82.189 -54.526)" fill="url(#a)"/><path d="M179.05,133.814v15.91a1.387,1.387,0,0,0,2.081,1.2l13.769-7.946a1.391,1.391,0,0,0,.685-1.218V125.85a1.387,1.387,0,0,0-2.081-1.2L179.735,132.6A1.39,1.39,0,0,0,179.05,133.814Z" transform="translate(-141.068 -98.065)" fill="url(#b)"/><path d="M94.5,125.877v15.91a1.392,1.392,0,0,0,.694,1.2l4.351,2.512,9.419,5.435a1.387,1.387,0,0,0,2.081-1.2v-15.91a1.389,1.389,0,0,0-.694-1.2L96.581,124.67a1.387,1.387,0,0,0-2.081,1.207Z" transform="translate(-74.454 -98.081)" fill="url(#c)"/></svg>