<svg xmlns="http://www.w3.org/2000/svg" width="121.764" height="121.764" viewBox="0 0 121.764 121.764"><path d="M38.051,0H0V38.051H38.051Zm-7.61,30.441H7.61V7.61H30.441Z" fill="#fff"/><rect width="7.61" height="7.61" transform="translate(15.22 15.22)" fill="#fff"/><path d="M352,0V38.051h38.051V0Zm30.441,30.441H359.61V7.61h22.831Z" transform="translate(-268.287)" fill="#fff"/><rect width="7.61" height="7.61" transform="translate(98.933 15.22)" fill="#fff"/><path d="M0,390.051H38.051V352H0ZM7.61,359.61H30.441v22.831H7.61Z" transform="translate(0 -268.287)" fill="#fff"/><rect width="7.61" height="7.61" transform="translate(15.22 98.933)" fill="#fff"/><rect width="15.22" height="7.61" transform="translate(60.882)" fill="#fff"/><path d="M207.22,54.831h7.61V47.22h7.61V39.61H199.61V32H192V47.22h15.22Z" transform="translate(-146.339 -24.39)" fill="#fff"/><rect width="7.61" height="7.61" transform="translate(45.661 30.441)" fill="#fff"/><path d="M222.441,160h-7.61v7.61H192v7.61h30.441Z" transform="translate(-146.339 -121.949)" fill="#fff"/><path d="M7.61,214.831h7.61v-7.61H7.61V192H0v30.441H7.61Z" transform="translate(0 -146.339)" fill="#fff"/><rect width="7.61" height="7.61" transform="translate(15.22 45.661)" fill="#fff"/><path d="M118.831,222.441h15.22v-7.61h-7.61v-7.61H111.22V192h-7.61v15.22H96v15.22h7.61v-7.61h15.22Z" transform="translate(-73.169 -146.339)" fill="#fff"/><rect width="7.61" height="15.22" transform="translate(68.492 60.882)" fill="#fff"/><path d="M214.831,352H192v7.61h15.22v22.831H192v7.61h22.831v-7.61h15.22v-7.61h-15.22Z" transform="translate(-146.339 -268.287)" fill="#fff"/><rect width="7.61" height="7.61" transform="translate(45.661 98.933)" fill="#fff"/><rect width="7.61" height="15.22" transform="translate(76.102 83.713)" fill="#fff"/><path d="M406.831,416H384v22.831h7.61V423.61h15.22Z" transform="translate(-292.677 -317.067)" fill="#fff"/><rect width="15.22" height="7.61" transform="translate(106.543 114.153)" fill="#fff"/><rect width="7.61" height="7.61" transform="translate(114.153 83.713)" fill="#fff"/><path d="M359.61,310.831h7.61V288H352v7.61h7.61Z" transform="translate(-268.287 -219.508)" fill="#fff"/><path d="M374.831,199.61h-7.61V192h-7.61v7.61H352v7.61h30.441v-7.61h7.61V192h-15.22Z" transform="translate(-268.287 -146.339)" fill="#fff"/><rect width="15.22" height="7.61" transform="translate(106.543 68.492)" fill="#fff"/></svg>