<svg xmlns="http://www.w3.org/2000/svg" xmlns:xlink="http://www.w3.org/1999/xlink" width="450" height="40" viewBox="0 0 450 40"><defs><linearGradient id="a" x1="0.5" x2="0.5" y2="1" gradientUnits="objectBoundingBox"><stop offset="0" stop-color="#fff"/><stop offset="1" stop-color="#a0a0a0"/></linearGradient><clipPath id="b"><circle cx="13" cy="13" r="13" transform="translate(182 654)" fill="none" stroke="#0089ff" stroke-width="1" opacity="0.342"/></clipPath></defs><g transform="translate(-168 -647)"><rect width="450" height="40" rx="3" transform="translate(168 647)" fill="url(#a)"/><path d="M25.315,12.3H17.34a4.8,4.8,0,1,0,0,2.4h5.532A10.251,10.251,0,1,1,17.508,4.451a3.876,3.876,0,1,0,1.533-1.945,12.739,12.739,0,1,0,6.346,11.022A8.8,8.8,0,0,0,25.315,12.3ZM12.694,15.9a2.4,2.4,0,1,1,2.4-2.4A2.4,2.4,0,0,1,12.694,15.9ZM21.148,4.331a1.441,1.441,0,1,1-1.437,1.44A1.437,1.437,0,0,1,21.148,4.331Z" transform="translate(567.057 653.266)" fill="#6e6e6e"/><text transform="translate(223 672)" fill="#797979" font-size="14" font-family="HelveticaNeue-Thin, Helvetica Neue" font-weight="200"><tspan x="0" y="0">Click to verify</tspan></text><circle cx="5" cy="5" r="5" transform="translate(190 662)" fill="#0089ff"/><circle cx="13" cy="13" r="13" transform="translate(182 654)" fill="#0089ff" opacity="0.202"/><g transform="translate(182 654)" fill="none" stroke="#0089ff" stroke-width="1"><circle cx="13" cy="13" r="13" stroke="none"/><circle cx="13" cy="13" r="12.5" fill="none"/></g><g clip-path="url(#b)"><path d="M7.5,0,15,13H0Z" transform="translate(195 654)" fill="#0089ff" opacity="0.523"/></g></g></svg>