<?xml version="1.0" standalone="no"?>
<!DOCTYPE svg PUBLIC "-//W3C//DTD SVG 20010904//EN"
 "http://www.w3.org/TR/2001/REC-SVG-20010904/DTD/svg10.dtd">
<svg version="1.0" xmlns="http://www.w3.org/2000/svg"
 width="354.000000pt" height="354.000000pt" viewBox="0 0 354.000000 354.000000"
 preserveAspectRatio="xMidYMid meet">

<g transform="translate(0.000000,354.000000) scale(0.100000,-0.100000)"
fill="#000000" stroke="none">
<path d="M1 2748 c1 -700 3 -783 14 -707 119 764 720 1365 1484 1484 76 11 -7
13 -706 14 l-793 1 1 -792z"/>
<path d="M2041 3525 c764 -119 1365 -720 1484 -1484 11 -76 13 7 14 707 l1
792 -792 -1 c-700 -1 -783 -3 -707 -14z"/>
<path d="M1710 3209 c-70 -8 -233 -27 -237 -28 -2 -1 -3 -9 -3 -18 0 -9 -3
-14 -6 -10 -10 9 -84 -21 -127 -53 -23 -16 -46 -30 -51 -30 -16 -1 -80 -61
-107 -100 -24 -36 -57 -65 -74 -65 -5 0 -10 -4 -10 -10 -1 -5 -8 -24 -17 -41
-20 -37 -32 -109 -30 -179 6 -239 9 -305 14 -310 8 -8 -3 -138 -12 -148 -8 -9
17 -67 28 -67 11 0 32 -51 32 -76 0 -30 17 -74 29 -74 15 0 20 43 26 194 3 94
9 146 18 160 8 11 15 23 15 26 0 3 5 18 11 33 9 22 8 32 -4 43 -8 8 -12 20
-10 27 2 7 6 28 9 48 9 58 24 92 41 85 8 -3 17 -1 20 5 4 5 10 7 15 4 5 -3 11
-1 14 3 3 5 17 7 31 4 14 -2 32 2 41 9 9 7 33 19 53 27 64 24 75 26 67 14 -5
-9 9 -11 51 -8 40 3 46 2 19 -3 -35 -5 -38 -7 -23 -20 11 -9 17 -10 17 -2 0 6
5 11 12 11 9 0 9 -3 0 -12 -19 -19 -14 -29 12 -22 18 4 25 1 28 -14 3 -11 1
-25 -5 -31 -8 -8 -7 -11 3 -11 13 0 13 -2 0 -10 -9 -6 -17 -5 -23 3 -6 8 -7 7
-4 -3 2 -8 13 -14 23 -13 18 1 18 1 0 -13 -23 -17 -40 -19 -31 -3 4 6 -3 13
-15 16 -13 3 -19 11 -16 20 4 11 1 11 -15 3 -11 -6 -17 -15 -14 -21 4 -5 10
-7 14 -5 4 3 13 1 21 -4 11 -7 12 -11 0 -24 -7 -9 -15 -14 -18 -12 -3 3 -17
-3 -32 -14 -16 -11 -33 -20 -39 -20 -13 0 -14 -10 -3 -26 11 -17 60 -26 82
-14 15 8 26 6 47 -7 24 -16 26 -16 21 -1 -6 15 19 48 37 48 4 0 -2 -9 -15 -20
-13 -11 -18 -20 -11 -20 7 0 10 -4 7 -8 -3 -5 2 -9 10 -9 10 0 14 7 10 20 -4
17 -3 18 13 3 24 -21 34 -20 26 3 -4 13 -1 20 11 23 16 3 16 4 -1 21 -17 18
-17 18 1 15 10 -2 19 2 19 9 0 6 3 15 8 19 4 4 7 12 7 18 0 6 -5 4 -11 -4 -9
-13 -10 -13 -6 0 2 8 12 16 23 18 11 2 25 11 31 21 10 15 6 17 -31 18 -90 1
-140 22 -86 36 13 3 18 1 13 -6 -4 -7 1 -6 10 2 10 8 20 11 23 8 4 -3 14 3 23
14 9 11 29 21 46 22 26 2 52 17 89 53 11 11 93 28 127 27 9 0 29 -3 44 -7 15
-4 24 -3 21 2 -3 5 18 10 45 11 28 1 59 5 68 10 22 12 62 16 86 8 24 -8 139
-208 125 -217 -9 -5 -7 -31 5 -85 3 -11 2 -14 -1 -7 -3 6 -9 12 -14 12 -12 0
-6 -46 8 -63 7 -8 9 -16 7 -19 -3 -3 -1 -18 6 -34 6 -16 12 -97 13 -179 1 -83
6 -156 10 -163 12 -19 26 -4 26 29 0 16 4 37 9 47 5 9 15 32 21 49 7 18 16 30
21 27 5 -3 14 7 19 21 6 17 15 24 22 19 7 -4 3 2 -8 14 -16 15 -20 29 -17 54
6 39 6 20 -2 198 -9 218 -9 217 -60 330 -26 58 -48 113 -49 122 -3 27 -48 70
-68 65 -11 -3 -20 2 -23 14 -4 11 -11 17 -16 14 -5 -4 -9 -2 -9 4 0 12 -70 81
-82 81 -5 0 -21 14 -35 30 -13 17 -33 30 -43 30 -10 0 -22 5 -26 11 -5 8 -9 8
-14 -1 -6 -9 -17 -9 -51 0 -24 6 -66 18 -94 25 -53 14 -101 15 -205 4z m647
-265 c-3 -3 -12 -4 -19 -1 -8 3 -5 6 6 6 11 1 17 -2 13 -5z m-710 -370 c-3 -3
-12 -4 -19 -1 -8 3 -5 6 6 6 11 1 17 -2 13 -5z m38 -22 c-3 -3 -11 0 -18 7 -9
10 -8 11 6 5 10 -3 15 -9 12 -12z m-58 -58 c-3 -3 -12 -4 -19 -1 -8 3 -5 6 6
6 11 1 17 -2 13 -5z m-50 -40 c-3 -3 -12 -4 -19 -1 -8 3 -5 6 6 6 11 1 17 -2
13 -5z m840 -27 c-2 -7 2 -20 11 -29 8 -10 10 -18 5 -18 -11 0 -24 22 -30 53
-2 11 1 16 7 12 6 -4 9 -12 7 -18z"/>
<path d="M1077 3179 c-3 -12 -4 -26 -1 -31 7 -11 67 -10 99 2 31 12 26 26 -12
33 -16 3 -40 9 -54 12 -22 6 -27 3 -32 -16z"/>
<path d="M1490 2646 c0 -2 9 -6 20 -9 11 -3 20 -1 20 4 0 5 -9 9 -20 9 -11 0
-20 -2 -20 -4z"/>
<path d="M1720 2630 c0 -5 5 -10 11 -10 5 0 7 5 4 10 -3 6 -8 10 -11 10 -2 0
-4 -4 -4 -10z"/>
<path d="M1760 2565 c0 -9 6 -12 15 -9 8 4 12 10 9 15 -8 14 -24 10 -24 -6z"/>
<path d="M1479 2503 c-13 -15 -12 -15 9 -4 23 12 28 21 13 21 -5 0 -15 -7 -22
-17z"/>
<path d="M1415 2440 c-3 -5 -2 -10 4 -10 5 0 13 5 16 10 3 6 2 10 -4 10 -5 0
-13 -4 -16 -10z"/>
<path d="M1380 2430 c-11 -7 -11 -10 -2 -10 7 0 10 -4 7 -10 -3 -5 0 -10 7
-10 8 -1 6 -6 -6 -15 -11 -8 -16 -15 -12 -15 5 0 -7 -12 -26 -27 -54 -43 -65
-57 -62 -76 1 -9 -1 -17 -6 -17 -4 0 -11 -8 -14 -17 -4 -10 -4 -14 0 -10 4 4
14 1 23 -5 9 -7 13 -8 9 -4 -12 14 62 48 104 49 20 0 35 4 32 9 -3 4 1 11 10
14 18 7 106 -31 106 -45 0 -6 12 -8 32 -4 28 6 31 4 25 -16 -4 -18 -3 -20 9
-10 11 9 14 8 14 -5 0 -22 -44 -25 -112 -8 -39 10 -112 1 -151 -19 -32 -17
-67 -51 -67 -65 0 -8 -15 -21 -32 -30 -19 -10 -27 -19 -20 -22 7 -2 23 3 37
12 20 13 39 14 126 6 56 -5 105 -7 110 -4 5 3 9 1 9 -5 0 -5 -8 -15 -17 -21
-15 -10 -14 -11 10 -7 27 4 36 -6 17 -18 -18 -11 -11 -27 9 -20 11 3 22 1 26
-5 5 -8 -13 -14 -36 -12 -11 2 -58 -118 -48 -124 5 -3 9 -2 8 3 -3 19 2 34 10
28 5 -3 12 -1 16 5 3 5 18 10 33 10 24 -1 25 -2 8 -11 -15 -9 -16 -13 -5 -20
11 -7 11 -9 -2 -9 -16 0 -34 -26 -31 -42 1 -5 -4 -8 -10 -8 -7 0 -24 -14 -37
-30 -13 -17 -29 -30 -37 -30 -8 0 -11 -6 -8 -15 4 -8 1 -15 -4 -15 -6 0 -18
-18 -28 -40 -10 -21 -22 -36 -27 -33 -6 4 -7 1 -3 -6 5 -7 0 -21 -10 -32 -10
-11 -12 -19 -6 -19 7 0 12 -9 12 -20 0 -11 -4 -20 -10 -20 -5 0 -10 -4 -10
-10 0 -5 6 -10 13 -10 7 0 22 -17 32 -37 29 -56 29 -57 14 -47 -9 5 -8 -1 4
-19 10 -15 15 -32 12 -37 -3 -6 0 -10 8 -10 7 0 14 -7 14 -15 0 -18 -23 -20
-30 -2 -3 7 -6 5 -6 -5 -1 -12 6 -18 19 -18 11 0 19 -3 19 -7 -3 -20 2 -27 10
-14 7 10 9 6 8 -13 -1 -14 -6 -24 -12 -22 -46 19 -50 19 -25 -2 23 -19 26 -19
43 -5 15 14 17 14 17 1 0 -9 -10 -23 -22 -32 -21 -15 -21 -16 -3 -14 11 2 20
-3 21 -9 1 -7 2 -14 4 -15 1 -2 3 -11 5 -20 2 -11 -2 -15 -11 -11 -8 3 -16 -5
-20 -21 -3 -14 -9 -24 -13 -22 -4 3 -8 -5 -8 -17 -2 -15 0 -18 6 -9 7 11 9 11
14 -2 4 -9 3 -15 -1 -15 -21 3 -32 -3 -32 -18 0 -14 2 -15 9 -4 7 11 11 10 20
-7 14 -27 14 -35 -1 -26 -10 6 -10 4 0 -7 14 -16 16 -33 2 -24 -5 3 -10 1 -10
-5 0 -6 8 -10 18 -8 9 2 16 -2 15 -9 -2 -7 3 -10 11 -7 7 3 16 -2 20 -11 3 -9
11 -13 17 -9 7 4 9 3 6 -3 -4 -6 1 -17 10 -24 14 -12 15 -11 8 10 -4 14 -16
34 -26 45 -11 11 -19 23 -19 28 0 4 -4 8 -10 8 -5 0 -7 -8 -4 -17 5 -16 4 -16
-6 0 -14 23 1 44 22 31 7 -5 22 -10 33 -11 10 -2 30 -13 42 -25 20 -18 23 -19
23 -5 0 9 -5 17 -11 17 -5 0 -7 5 -4 10 3 6 1 10 -5 10 -6 0 -9 4 -6 8 3 5
-10 16 -29 25 -21 10 -37 12 -40 7 -3 -6 -1 -10 5 -10 6 0 8 -5 4 -11 -4 -7
-9 -8 -17 0 -18 18 10 41 41 31 49 -15 62 -22 56 -32 -4 -6 2 -8 15 -3 14 4
21 2 21 -7 0 -10 2 -10 9 1 7 11 14 10 37 -5 15 -11 25 -14 21 -8 -4 7 0 15 9
18 12 4 15 2 10 -9 -3 -8 -1 -15 4 -15 6 0 10 5 10 10 0 6 13 4 30 -5 30 -16
75 -21 67 -7 -3 4 6 7 19 7 20 0 22 -2 9 -11 -26 -19 -16 -25 15 -9 17 9 34
14 38 11 5 -3 7 8 6 23 -1 21 3 27 19 28 23 2 49 23 28 23 -10 0 -11 3 -2 14
17 20 -5 32 -26 14 -15 -12 -15 -11 0 12 22 32 23 58 2 40 -8 -7 -13 -16 -10
-20 5 -9 -39 -30 -64 -30 -10 0 -21 9 -24 20 -3 11 -13 20 -23 20 -16 0 -16
-2 2 -22 10 -13 12 -17 4 -11 -8 7 -22 13 -31 13 -20 0 -33 27 -16 34 9 3 9 5
0 5 -6 1 -18 -7 -25 -16 -15 -20 -38 -28 -38 -13 0 6 7 10 16 10 11 0 13 6 9
19 -8 27 11 35 46 21 23 -10 32 -10 44 0 19 16 19 6 0 -13 -13 -14 -12 -17 14
-28 16 -7 27 -17 25 -21 -3 -4 0 -8 5 -8 6 0 11 9 11 21 0 11 -4 18 -8 15 -13
-8 -35 11 -27 24 6 9 10 9 17 -1 7 -10 8 -8 5 9 -3 12 -1 20 3 17 5 -3 13 2
18 11 5 9 14 14 21 10 8 -5 7 -12 -4 -22 -8 -9 -15 -23 -15 -32 0 -13 3 -13
19 4 31 32 61 54 72 54 6 0 9 7 5 15 -3 9 3 20 14 27 11 7 20 18 20 25 0 7 5
13 10 13 6 0 10 13 10 29 0 17 5 33 10 36 6 4 8 11 5 16 -4 5 1 9 9 9 8 0 22
10 30 22 10 14 16 17 16 9 0 -8 -8 -24 -17 -35 -10 -12 -3 -8 14 8 17 15 31
36 30 45 -2 32 13 72 25 65 7 -5 9 0 6 14 -4 12 -2 22 2 22 4 0 6 9 3 20 -3
11 0 20 6 20 9 0 9 5 1 20 -6 11 -8 25 -5 30 3 6 1 10 -6 10 -7 0 -10 3 -7 6
3 3 -7 20 -23 37 -17 18 -32 42 -35 55 -4 12 -12 22 -20 22 -8 0 -14 7 -14 15
0 8 -5 15 -11 15 -6 0 -33 25 -62 55 -51 55 -77 68 -77 40 0 -8 -5 -15 -11
-15 -5 0 -7 -5 -4 -10 4 -6 10 -8 14 -5 16 9 43 -33 39 -62 -2 -23 -8 -28 -33
-29 -16 -1 -35 -2 -42 -3 -7 0 -28 -16 -47 -35 -39 -40 -60 -39 -116 5 -47 36
-77 44 -107 28 -20 -11 -26 -11 -33 1 -15 24 -6 35 31 38 55 4 80 12 74 22 -3
6 -1 10 4 10 6 0 11 -4 11 -8 0 -5 11 -14 25 -20 20 -9 23 -9 18 5 -5 12 -1
14 17 8 20 -6 22 -5 18 19 -3 15 -1 29 3 32 5 3 8 16 7 29 -1 13 -5 22 -8 20
-3 -1 -11 3 -18 11 -7 8 -8 14 -3 14 12 0 10 82 -2 91 -4 3 -9 24 -10 47 0 22
-4 39 -8 37 -3 -3 -4 7 -1 21 2 14 1 24 -4 23 -22 -4 -34 2 -34 16 0 8 -5 15
-11 15 -5 0 -7 5 -3 12 4 6 3 8 -3 5 -14 -9 -62 40 -69 69 -4 17 -11 21 -30
18 -14 -3 -31 3 -42 14 -10 10 -26 18 -35 16 -19 -3 -22 7 -6 23 7 7 3 9 -15
6 -22 -5 -26 -2 -27 18 0 22 -1 23 -9 4 -8 -18 -9 -18 -9 -2 -1 10 -6 15 -11
12 -14 -9 -52 4 -45 16 8 11 4 11 -15 -1z m-10 -274 c0 -2 -12 -11 -27 -20
l-28 -17 24 20 c23 21 31 25 31 17z m540 -416 c0 -5 -7 -7 -15 -4 -8 4 -15 8
-15 10 0 2 7 4 15 4 8 0 15 -4 15 -10z m60 -11 c0 -10 -12 -11 -34 -3 -25 10
-19 22 9 16 14 -2 25 -8 25 -13z m10 -31 c11 2 9 -2 -4 -13 -22 -17 -14 -20
14 -5 22 12 41 -7 20 -20 -9 -6 -8 -11 7 -19 11 -5 22 -9 24 -8 2 1 -2 -4 -10
-10 -8 -7 -27 -14 -43 -14 -43 -2 -48 -3 -48 -11 0 -5 0 -13 0 -19 0 -5 5 -7
10 -4 6 3 10 0 10 -8 0 -18 -47 -50 -54 -38 -9 13 -48 1 -73 -22 -13 -11 -23
-16 -23 -10 0 7 -20 10 -55 9 -30 -2 -55 0 -55 3 0 4 -17 6 -39 4 -32 -1 -40
2 -50 23 -6 14 -11 27 -11 29 0 3 42 5 93 4 77 0 116 2 220 10 4 1 7 7 7 15 0
14 -23 15 -51 2 -8 -4 -27 -3 -41 3 -13 5 -30 6 -36 2 -7 -4 -28 -6 -47 -5
-19 2 -35 -1 -35 -7 0 -5 -11 -2 -24 6 -18 12 -37 14 -77 9 -42 -5 -51 -4 -43
6 13 13 37 17 134 25 36 2 65 5 65 6 0 1 17 3 37 4 69 5 107 16 117 33 6 9 11
13 11 9 0 -5 5 -5 11 -2 6 5 4 12 -8 22 -16 13 -15 13 7 1 14 -7 32 -11 40
-10z m-113 -194 c-3 -3 -12 -4 -19 -1 -8 3 -5 6 6 6 11 1 17 -2 13 -5z m181
-13 c3 -8 0 -11 -7 -7 -6 4 -11 2 -11 -3 0 -14 13 -14 28 1 7 7 12 9 12 5 0
-10 -24 -61 -35 -74 -5 -7 -16 -19 -22 -27 -7 -8 -13 -19 -13 -23 0 -17 -46
-62 -65 -64 -46 -4 -57 1 -52 20 3 15 1 18 -11 14 -10 -4 -13 -2 -8 5 4 7 16
12 27 12 11 0 19 7 19 16 0 10 5 14 16 10 8 -3 12 -2 9 4 -5 8 -71 5 -102 -5
-7 -3 -13 -1 -13 3 0 4 -19 7 -43 8 -87 2 -167 23 -167 44 0 12 2 12 35 0 32
-12 141 -17 151 -7 4 4 17 4 29 1 12 -3 29 1 36 8 8 7 21 14 29 16 8 2 17 7
20 11 10 15 52 33 65 27 7 -2 19 2 26 10 14 18 40 15 47 -5z m-472 -37 c-3 -8
-1 -14 3 -14 5 0 12 6 14 13 4 7 6 6 6 -4 1 -9 -7 -19 -17 -21 -13 -4 -18 2
-18 23 -1 16 3 26 8 23 5 -3 7 -12 4 -20z m264 -154 c-18 -11 -57 -13 -63 -2
-3 4 14 8 36 10 31 1 38 -1 27 -8z m-324 -38 c-8 -9 -19 -13 -22 -9 -10 9 16
38 28 31 6 -4 4 -13 -6 -22z m398 6 c-7 -11 -34 -10 -34 1 0 6 9 9 19 8 11 0
17 -5 15 -9z m-399 -118 c3 -5 -1 -10 -9 -10 -9 0 -16 5 -16 10 0 6 4 10 9 10
6 0 13 -4 16 -10z m-30 -21 c-3 -5 1 -6 9 -3 19 7 20 0 6 -27 -16 -29 -25 -23
-26 15 0 19 3 33 8 30 5 -3 6 -10 3 -15z m65 -19 c0 -5 -2 -10 -4 -10 -3 0 -8
5 -11 10 -3 6 -1 10 4 10 6 0 11 -4 11 -10z m145 -48 c-3 -3 -11 0 -18 7 -9
10 -8 11 6 5 10 -3 15 -9 12 -12z m-130 -12 c3 -6 -1 -7 -9 -4 -18 7 -21 14
-7 14 6 0 13 -4 16 -10z"/>
<path d="M1845 1610 c-3 -5 -1 -10 4 -10 6 0 11 5 11 10 0 6 -2 10 -4 10 -3 0
-8 -4 -11 -10z"/>
<path d="M1540 2420 c-9 -6 -10 -10 -3 -10 6 0 15 5 18 10 8 12 4 12 -15 0z"/>
<path d="M1965 2327 c-22 -11 -47 -20 -55 -22 -8 -1 -18 -13 -21 -26 -4 -13
-8 -19 -8 -14 -1 6 -6 3 -11 -7 -6 -9 -6 -26 -2 -39 9 -23 4 -69 -7 -69 -4 0
-7 -9 -7 -19 0 -11 4 -17 8 -15 4 3 8 -4 8 -15 0 -11 9 -22 20 -26 11 -4 18
-11 15 -16 -4 -5 3 -9 14 -9 11 0 23 -4 26 -10 9 -15 45 -12 51 5 4 10 20 15
46 15 36 0 38 1 24 16 -21 21 -20 22 9 17 13 -3 54 0 91 6 57 10 69 10 83 -4
35 -30 32 -14 -5 31 -72 87 -178 114 -284 70 -8 -3 -22 -2 -30 4 -12 8 -13 11
-2 22 8 7 13 9 12 3 -5 -23 2 -25 30 -10 18 9 28 20 24 27 -5 7 -2 9 9 5 10
-4 16 -2 14 5 -3 16 68 42 90 32 18 -8 28 -9 91 -12 17 -1 32 -7 32 -13 0 -5
-5 -7 -12 -3 -7 4 -8 3 -4 -4 4 -7 14 -12 21 -12 12 0 12 6 4 28 -6 15 -10 29
-10 32 1 2 -15 5 -35 7 -39 2 -52 9 -40 20 4 4 16 1 27 -6 12 -7 23 -10 26 -7
3 2 -8 11 -25 20 -16 8 -32 13 -35 9 -9 -8 -99 -11 -122 -3 -12 4 -36 -1 -60
-13z m204 -151 c32 -17 59 -46 43 -46 -6 0 -14 5 -17 10 -3 6 -23 19 -43 30
-20 10 -31 19 -24 20 7 0 25 -6 41 -14z m-24 -36 c3 -5 1 -10 -4 -10 -6 0 -11
5 -11 10 0 6 2 10 4 10 3 0 8 -4 11 -10z"/>
<path d="M1445 2250 c-3 -5 -1 -10 4 -10 6 0 11 5 11 10 0 6 -2 10 -4 10 -3 0
-8 -4 -11 -10z"/>
<path d="M2510 2165 c-3 -5 -3 -48 0 -95 3 -50 7 -73 10 -55 6 37 -3 164 -10
150z"/>
<path d="M2230 2073 c0 -5 13 -17 28 -27 l27 -19 -24 26 c-26 28 -31 32 -31
20z"/>
<path d="M2427 2024 c-3 -15 2 -42 9 -61 13 -30 12 -37 -6 -73 -23 -46 -25
-53 -7 -47 6 2 12 9 12 15 0 6 9 17 19 25 18 13 18 18 6 91 -15 79 -24 94 -33
50z"/>
<path d="M1042 2020 c0 -14 2 -19 5 -12 2 6 2 18 0 25 -3 6 -5 1 -5 -13z"/>
<path d="M1290 2030 c-13 -9 -13 -10 0 -10 8 0 22 5 30 10 13 9 13 10 0 10 -8
0 -22 -5 -30 -10z"/>
<path d="M1410 2033 c-37 -7 -46 -20 -10 -15 17 2 33 8 36 13 3 5 4 8 2 8 -2
-1 -14 -4 -28 -6z"/>
<path d="M2004 2023 c4 -4 19 -8 34 -10 23 -2 24 -1 7 7 -24 11 -51 13 -41 3z"/>
<path d="M1920 1999 c-16 -30 -8 -31 13 -3 10 13 13 24 8 24 -6 0 -15 -9 -21
-21z"/>
<path d="M1385 2000 c-3 -6 1 -7 9 -4 18 7 21 14 7 14 -6 0 -13 -4 -16 -10z"/>
<path d="M1404 1979 c-3 -6 -1 -16 4 -21 8 -8 11 -5 9 11 -1 24 -3 25 -13 10z"/>
<path d="M1940 1980 c0 -5 5 -10 10 -10 6 0 10 5 10 10 0 6 -4 10 -10 10 -5 0
-10 -4 -10 -10z"/>
<path d="M1431 1934 c0 -11 3 -14 6 -6 3 7 2 16 -1 19 -3 4 -6 -2 -5 -13z"/>
<path d="M1460 1946 c0 -2 7 -6 15 -10 8 -3 15 -1 15 4 0 6 -7 10 -15 10 -8 0
-15 -2 -15 -4z"/>
<path d="M1084 1928 c-15 -24 -12 -58 5 -70 10 -7 18 -17 18 -23 0 -5 9 -14
19 -20 10 -5 25 -17 32 -25 8 -8 0 11 -17 42 -17 32 -31 69 -31 83 0 26 -14
33 -26 13z"/>
<path d="M1050 1862 c0 -19 29 -86 35 -80 3 3 -4 25 -15 49 -11 24 -20 38 -20
31z"/>
<path d="M1161 1758 c-1 -10 -5 -18 -11 -18 -5 0 -10 -5 -10 -12 0 -8 6 -7 16
4 9 9 14 22 11 30 -4 9 -6 7 -6 -4z"/>
<path d="M1176 1665 c14 -126 76 -277 106 -259 8 5 6 11 -6 19 -9 7 -16 17
-15 21 1 5 1 16 0 24 -1 13 -3 13 -10 1 -13 -20 -36 39 -61 153 -11 52 -17 69
-14 41z"/>
<path d="M1 792 l-1 -792 793 2 792 3 2 45 1 45 -10 -42 c-13 -52 -16 -52
-161 -22 -370 74 -730 281 -975 561 -225 255 -375 575 -427 907 -11 76 -13 -7
-14 -707z"/>
<path d="M3530 1549 c0 -53 -40 -229 -76 -339 -210 -630 -757 -1092 -1413
-1195 -76 -11 7 -13 707 -14 l792 -1 0 790 c0 435 -2 790 -5 790 -3 0 -5 -14
-5 -31z"/>
<path d="M1325 1400 c3 -5 8 -10 11 -10 2 0 4 5 4 10 0 6 -5 10 -11 10 -5 0
-7 -4 -4 -10z"/>
<path d="M1366 1317 c3 -10 9 -15 12 -12 3 3 0 11 -7 18 -10 9 -11 8 -5 -6z"/>
<path d="M1395 1265 c35 -28 47 -31 38 -10 -3 9 -8 14 -10 11 -3 -3 -12 1 -20
9 -8 8 -20 15 -26 15 -7 0 2 -11 18 -25z"/>
<path d="M1264 1021 c2 -197 4 -215 22 -230 10 -9 33 -56 49 -105 l30 -90 65
-37 c102 -59 254 -204 257 -245 l2 -24 -47 32 c-26 18 -84 70 -130 116 -66 67
-86 82 -97 72 -10 -9 -21 -7 -45 5 -35 18 -49 43 -31 54 8 5 0 20 -24 45 -41
44 -72 48 -130 19 -22 -11 -82 -28 -134 -38 -79 -15 -91 -20 -70 -27 13 -5 35
-7 49 -3 14 3 42 8 64 10 21 3 52 13 70 24 17 11 34 20 39 20 14 2 62 -27 96
-59 18 -17 65 -56 105 -87 39 -31 105 -86 146 -122 41 -36 82 -71 91 -79 14
-11 25 -9 73 17 31 17 56 29 56 27 0 -2 23 19 50 46 49 48 51 52 45 92 -6 35
-3 45 18 68 13 14 35 29 48 33 94 29 161 85 217 183 71 126 154 371 151 451
-1 27 -3 30 -6 11 -9 -54 -27 -98 -70 -170 -25 -41 -49 -76 -54 -78 -5 -2 -9
-10 -9 -18 0 -8 -3 -14 -7 -14 -5 0 -19 -16 -33 -36 -14 -21 -26 -31 -28 -24
-3 7 -11 -2 -18 -19 -9 -22 -18 -30 -26 -25 -11 6 -11 5 0 -8 10 -13 8 -18
-12 -31 -13 -9 -31 -35 -38 -59 -10 -30 -20 -43 -33 -43 -10 0 -20 -6 -23 -13
-2 -6 1 -12 6 -12 7 0 6 -10 -1 -29 -7 -21 -20 -31 -41 -36 -27 -6 -28 -8 -12
-14 19 -7 19 -8 -3 -14 -13 -3 -20 -10 -16 -16 3 -6 2 -11 -4 -11 -5 0 -12
-13 -16 -30 -4 -16 -11 -30 -17 -30 -6 0 -26 -11 -43 -24 -25 -19 -46 -25 -93
-27 -39 -1 -67 3 -77 11 -8 7 -13 15 -10 18 3 3 0 12 -7 19 -9 11 -9 17 3 24
8 5 9 9 4 9 -6 0 -10 16 -10 35 1 19 -2 35 -6 35 -4 0 -10 10 -13 23 -3 12
-18 36 -33 54 -53 60 -88 108 -88 120 0 6 -11 24 -25 40 -14 15 -27 39 -29 53
-1 13 -14 37 -26 52 -13 15 -27 38 -31 50 -4 13 -10 25 -14 28 -20 14 -51 97
-56 152 -14 138 -23 82 -20 -121z m33 -223 c-3 -8 -6 -5 -6 6 -1 11 2 17 5 13
3 -3 4 -12 1 -19z"/>
<path d="M1426 1215 c-3 -9 0 -15 9 -15 7 0 15 -6 17 -13 2 -9 8 -8 20 5 14
14 15 18 2 29 -12 10 -13 9 -8 -7 5 -18 5 -18 -9 -1 -17 21 -23 21 -31 2z"/>
<path d="M1615 1030 c3 -5 8 -10 11 -10 2 0 4 5 4 10 0 6 -5 10 -11 10 -5 0
-7 -4 -4 -10z"/>
<path d="M1555 1010 c3 -5 8 -10 11 -10 2 0 4 5 4 10 0 6 -5 10 -11 10 -5 0
-7 -4 -4 -10z"/>
<path d="M1033 997 c-22 -10 -31 -27 -15 -27 12 0 48 28 42 33 -3 2 -15 0 -27
-6z"/>
<path d="M1515 915 c7 -31 12 -41 19 -34 2 2 -3 18 -11 34 l-14 30 6 -30z"/>
<path d="M1568 903 c5 -10 7 -24 5 -30 -3 -7 -1 -13 4 -13 4 0 9 14 9 30 1 20
-3 30 -13 30 -10 0 -11 -5 -5 -17z"/>
<path d="M912 875 c-12 -26 -9 -45 8 -45 12 0 23 51 12 62 -5 5 -14 -2 -20
-17z"/>
<path d="M920 810 c-8 -5 -10 -10 -5 -10 6 0 3 -6 -6 -13 -12 -9 -14 -18 -7
-37 7 -20 11 -22 17 -10 8 15 23 80 18 80 -1 0 -9 -5 -17 -10z"/>
<path d="M1997 803 c-10 -9 -9 -23 1 -23 5 0 9 7 9 15 0 17 -1 18 -10 8z"/>
<path d="M513 783 c-7 -3 -13 -12 -13 -21 0 -15 2 -15 17 1 18 18 16 27 -4 20z"/>
<path d="M2172 662 c-12 -2 -27 -12 -32 -23 -10 -17 -8 -18 14 -9 17 6 27 6
32 -1 11 -18 0 -123 -16 -149 -12 -21 -8 -19 28 11 34 29 55 38 100 44 31 4
65 8 76 10 10 2 42 -7 72 -21 29 -13 63 -24 76 -23 23 1 23 1 -2 8 -44 14
-123 58 -180 101 -30 22 -64 43 -75 45 -41 8 -71 10 -93 7z m77 -55 c12 -15 5
-27 -16 -27 -7 0 -13 9 -13 20 0 23 13 26 29 7z"/>
<path d="M980 430 c0 -8 60 -23 67 -17 1 2 -13 8 -32 14 -19 6 -35 8 -35 3z"/>
<path d="M1795 330 c-3 -6 1 -7 9 -4 18 7 21 14 7 14 -6 0 -13 -4 -16 -10z"/>
<path d="M1596 155 c-3 -9 -6 -26 -5 -38 1 -14 4 -9 9 13 9 37 7 52 -4 25z"/>
</g>
</svg>
