<?xml version="1.0" standalone="no"?>
<!DOCTYPE svg PUBLIC "-//W3C//DTD SVG 20010904//EN"
 "http://www.w3.org/TR/2001/REC-SVG-20010904/DTD/svg10.dtd">
<svg version="1.0" xmlns="http://www.w3.org/2000/svg"
 width="354.000000pt" height="354.000000pt" viewBox="0 0 354.000000 354.000000"
 preserveAspectRatio="xMidYMid meet">
<metadata>
Created by potrace 1.15, written by Peter Selinger 2001-2017
</metadata>
<g transform="translate(0.000000,354.000000) scale(0.100000,-0.100000)"
fill="#000000" stroke="none">
<path d="M1633 3195 c-19 -8 -48 -11 -72 -8 -27 4 -41 2 -41 -5 0 -6 -7 -9
-15 -6 -8 4 -17 -1 -21 -10 -3 -9 -18 -16 -33 -16 -21 0 -23 -2 -11 -10 11 -8
9 -9 -10 -5 -19 4 -46 -8 -116 -54 -50 -33 -102 -74 -115 -91 -13 -17 -47 -58
-76 -90 -67 -75 -70 -94 -64 -383 1 -35 4 -46 14 -41 9 5 9 4 1 -5 -16 -17 4
-111 23 -111 10 0 13 6 9 16 -3 8 -2 12 4 9 6 -3 10 -1 10 5 0 6 3 9 8 6 16
-9 45 23 39 45 -3 11 -1 32 4 46 6 17 6 22 -2 17 -7 -4 -9 0 -5 14 4 11 8 29
10 39 10 48 36 95 51 89 8 -3 15 0 15 5 0 6 8 10 18 7 15 -3 65 35 57 44 -2 2
8 4 21 4 14 1 33 9 42 17 11 9 49 18 102 22 72 6 93 4 135 -13 28 -11 62 -22
75 -25 14 -2 -9 -5 -50 -6 -55 -1 -70 -4 -58 -11 21 -13 189 5 198 20 9 15 58
40 77 40 8 0 12 4 9 9 -8 12 63 23 164 25 47 1 91 6 98 10 8 4 16 5 19 2 3 -3
12 -1 18 4 7 6 25 11 40 12 21 2 34 -5 54 -31 27 -35 111 -188 111 -202 0 -4
12 -25 26 -46 23 -32 26 -34 21 -12 -5 19 -3 26 8 26 10 0 15 -11 15 -34 0
-19 7 -45 16 -58 11 -17 12 -25 5 -25 -8 0 -9 -5 -3 -16 5 -9 7 -47 4 -84 -2
-37 0 -70 5 -73 18 -11 20 341 2 376 -6 10 -8 29 -5 42 4 14 -4 45 -19 79 -14
31 -25 62 -25 68 0 6 -13 32 -29 58 -16 27 -27 51 -23 55 4 4 -3 4 -15 1 -24
-8 -30 3 -13 20 6 6 6 15 0 24 -7 10 -10 11 -10 2 0 -18 -66 28 -82 57 -7 13
-31 37 -52 53 -22 15 -46 37 -53 48 -8 11 -19 20 -25 20 -7 0 -6 -6 2 -15 7
-8 9 -15 5 -15 -4 0 -14 9 -23 20 -12 13 -31 20 -62 21 -25 1 -61 9 -80 17
-50 21 -284 26 -327 7z"/>
<path d="M1981 1588 c-46 -57 -60 -68 -76 -61 -13 4 -16 3 -11 -5 5 -8 2 -10
-8 -6 -11 4 -16 0 -16 -10 0 -9 -3 -16 -7 -17 -46 -6 -109 -6 -118 -1 -13 8
-28 12 -89 21 -46 7 -77 29 -88 62 -4 13 -88 25 -88 12 0 -33 163 -129 172
-101 3 7 25 6 63 -3 33 -7 64 -12 69 -10 5 1 13 -4 18 -11 5 -9 10 -10 16 -2
9 13 92 44 118 44 12 0 33 9 48 21 14 11 26 17 26 13 0 -4 14 5 30 21 17 16
30 32 30 37 0 13 -78 9 -89 -4z"/>
<path d="M2231 1001 c-71 -171 -90 -207 -137 -258 -24 -26 -44 -53 -44 -58 0
-6 -9 -27 -20 -48 -11 -20 -18 -37 -14 -37 3 0 23 14 45 32 52 42 124 176 178
332 23 66 40 125 39 132 -2 6 -23 -36 -47 -95z"/>
<path d="M1281 1054 c-3 -118 41 -351 83 -431 15 -30 49 -55 41 -30 -11 30
-13 97 -4 97 6 0 7 5 3 11 -4 7 -8 26 -9 43 -1 17 -16 63 -33 101 -29 67 -50
128 -71 205 l-9 35 -1 -31z"/>
</g>
</svg>
