<?xml version="1.0" encoding="UTF-8"?>
<svg width="73px" height="74px" viewBox="0 0 73 74" version="1.1" xmlns="http://www.w3.org/2000/svg" xmlns:xlink="http://www.w3.org/1999/xlink">
    <!-- Generator: sketchtool 46.2 (44496) - http://www.bohemiancoding.com/sketch -->
    <title>147FA90B-B5AC-4ED8-99C3-3963C16D2BD3</title>
    <desc>Created with sketchtool.</desc>
    <defs></defs>
    <g id="Design" stroke="none" stroke-width="1" fill="none" fill-rule="evenodd">
        <g id="services" transform="translate(-535.000000, -584.000000)">
            <g id="colored_retina_scan-99" transform="translate(537.000000, 584.000000)">
                <rect id="Rectangle-path" fill="#EEEAF4" fill-rule="nonzero" x="7" y="0" width="64" height="64" rx="6"></rect>
                <path d="M45,29.35 C47.5045396,36.0062119 45.3149548,43.5166662 39.6257574,47.7840903 C33.93656,52.0515144 26.11344,52.0515144 20.4242426,47.7840903 C14.7350452,43.5166662 12.5454604,36.0062119 15.05,29.35" id="Shape" stroke="#471A84" stroke-width="3.67" stroke-linecap="round" stroke-linejoin="round"></path>
                <path d="M60,42 C56.6413664,36.4096289 51.7940721,31.8635593 46,28.87 C29.6015159,20.4501336 9.48318133,26.192606 -1.0658141e-14,42" id="Shape" stroke="#471A84" stroke-width="4" stroke-linecap="round" stroke-linejoin="round"></path>
                <path d="M0,42 C6.32811126,52.5306137 17.7142841,58.9722436 30,58.9722436 C42.2857159,58.9722436 53.6718887,52.5306137 60,42" id="Shape" stroke="#471A84" stroke-width="4" stroke-linecap="round" stroke-linejoin="round"></path>
                <path d="M20,72 L4,72 C1.790861,72 0,70.209139 0,68 L0,58" id="Shape" stroke="#471A84" stroke-width="4" stroke-linecap="round" stroke-linejoin="round"></path>
                <path d="M60,58 L60,68 C60,70.209139 58.209139,72 56,72 L40,72" id="Shape" stroke="#471A84" stroke-width="4" stroke-linecap="round" stroke-linejoin="round"></path>
                <path d="M40,12 L56,12 C58.209139,12 60,13.790861 60,16 L60,26" id="Shape" stroke="#471A84" stroke-width="4" stroke-linecap="round" stroke-linejoin="round"></path>
                <path d="M0,26 L0,16 C0,13.790861 1.790861,12 4,12 L20,12" id="Shape" stroke="#471A84" stroke-width="4" stroke-linecap="round" stroke-linejoin="round"></path>
                <circle id="Oval" fill="#471A84" fill-rule="nonzero" transform="translate(22.166190, 35.801141) rotate(-30.000000) translate(-22.166190, -35.801141) " cx="22.1661897" cy="35.8011413" r="3"></circle>
            </g>
        </g>
    </g>
</svg>