<svg xmlns="http://www.w3.org/2000/svg" width="80" height="27" viewBox="0 0 80 27">
    <g fill="#FFF" fill-rule="nonzero">
        <path d="M12.882 19.651c-.615.123-1.436-.164-1.723-.943l-.944-2.667h-6.4l-1.107 2.667c-.123.615-.616.943-1.272.943h-.287c-.78-.328-1.108-1.107-.944-1.723l5.62-15.63c.165-.493.616-.944 1.272-.944.616 0 1.067.451 1.231.943l5.334 15.631c.328.616.04 1.395-.78 1.723zm-3.446-6.277L7.138 6.646 4.76 13.374h4.677zM44.759 18.42V1.314c0-.698.574-1.272 1.313-1.272.697 0 1.272.574 1.272 1.272V18.42c0 .738-.575 1.312-1.272 1.312a1.296 1.296 0 0 1-1.313-1.312zM49.354 3.528c-.246-.246-.41-.574-.41-.902 0-.329.164-.698.41-.903.246-.246.574-.41.902-.41.329 0 .698.164.903.41.246.246.37.574.37.903 0 .328-.124.697-.37.902-.246.246-.574.37-.903.37-.328 0-.656-.124-.902-.37zm-.37 14.893V7.836c0-.698.575-1.272 1.313-1.272.698 0 1.272.574 1.272 1.272V18.42c0 .738-.574 1.312-1.272 1.312a1.296 1.296 0 0 1-1.312-1.312zM53.087 13.128c0-3.651 2.954-6.605 6.564-6.605a6.683 6.683 0 0 1 5.744 3.282c.37.616.123 1.436-.492 1.805-.616.328-1.436.123-1.806-.492a3.966 3.966 0 0 0-3.446-2.01c-2.174 0-3.98 1.805-3.98 3.98 0 2.174 1.806 3.979 3.98 3.979a4.011 4.011 0 0 0 3.364-1.846c.41-.616 1.19-.78 1.806-.41.615.41.779 1.189.369 1.804a6.54 6.54 0 0 1-5.539 3.036c-3.651.082-6.564-2.913-6.564-6.523zM79.836 13.21v5.128c0 .78-.533 1.313-1.313 1.313-.533 0-1.272-.533-1.272-1.313-1.148.944-2.38 1.313-3.897 1.313-3.692 0-6.646-2.748-6.646-6.44 0-3.693 2.995-6.647 6.687-6.647s6.44 2.954 6.44 6.646zm-2.544 0c0-2.215-1.682-4.061-3.897-4.061-2.216 0-4.062 1.846-4.062 4.061 0 2.216 1.846 3.898 4.062 3.898 2.215 0 3.897-1.682 3.897-3.898zM36.677 6.605c-1.682 0-3.2.657-4.349 1.682l-.082.082c-1.149 1.026-2.708 2.79-7.63 7.836a3.983 3.983 0 0 1-6.605-2.995v-.04a3.983 3.983 0 0 1 3.979-3.98 3.958 3.958 0 0 1 3.856 3.077c.739-.78 1.395-1.436 2.01-2.052a6.543 6.543 0 0 0-5.866-3.61c-3.61 0-6.605 2.954-6.605 6.605v11.816c0 .697.574 1.271 1.312 1.271.698 0 1.272-.574 1.272-1.271v-6.564c1.108.82 2.503 1.353 3.98 1.353a6.634 6.634 0 0 0 4.307-1.6c.985-.82 5.662-5.825 7.385-7.59a3.927 3.927 0 0 1 2.995-1.394 3.983 3.983 0 0 1 3.98 3.98 3.983 3.983 0 0 1-3.98 3.979 4.013 4.013 0 0 1-3.898-2.995l-2.707 2.83v7.96c0 .697.574 1.271 1.313 1.271.697 0 1.271-.574 1.271-1.271v-6.523c1.108.82 2.503 1.353 3.98 1.353A6.6 6.6 0 0 0 43.2 13.21c.082-3.61-2.872-6.605-6.523-6.605z"/>
    </g>
</svg>
