<?xml version="1.0" encoding="UTF-8"?>
<svg width="40px" height="40px" viewBox="0 0 40 40" version="1.1" xmlns="http://www.w3.org/2000/svg" xmlns:xlink="http://www.w3.org/1999/xlink">
    <!-- Generator: sketchtool 46.2 (44496) - http://www.bohemiancoding.com/sketch -->
    <title>B6481343-3D6E-418B-9BBD-56A4EE08BA97</title>
    <desc>Created with sketchtool.</desc>
    <defs></defs>
    <g id="Design" stroke="none" stroke-width="1" fill="none" fill-rule="evenodd">
        <g id="services" transform="translate(-925.000000, -870.000000)">
            <g id="Invision" transform="translate(925.000000, 870.000000)">
                <rect id="Form" fill="#FF2A63" x="0" y="0" width="40" height="40" rx="5"></rect>
                <path d="M12.8915081,13.7011017 C14.1502503,13.7011017 15.2047244,12.7145199 15.2047244,11.4214617 C15.2047244,10.129291 14.1502503,9.14285714 12.8915081,9.14285714 C11.6327658,9.14285714 10.5785876,10.129291 10.5785876,11.4214617 C10.5785876,12.714372 11.6327658,13.7011017 12.8915081,13.7011017 M8.09527096,25.9069083 C7.95933863,26.4852493 7.89115059,27.1097394 7.89115059,27.6191528 C7.89115059,29.6264844 8.97964466,30.9590354 11.292861,30.9590354 C13.2112966,30.9590354 14.7666051,29.8198071 15.8864568,27.9802092 L15.2026536,30.7244449 L19.0121609,30.7244449 L21.1894449,21.9917908 C21.7337659,19.7807826 22.7882399,18.6331232 24.3871828,18.6331232 C25.6457772,18.6331232 26.4280907,19.4158805 26.4280907,20.7080512 C26.4280907,21.0824198 26.3940706,21.4902168 26.2579904,21.9326255 L25.1353284,25.9465491 C24.965228,26.5248901 24.8974837,27.103527 24.8974837,27.6474042 C24.8974837,29.5529715 26.0197021,30.9467586 28.3669384,30.9467586 C30.3739742,30.9467586 31.9726212,29.6547358 32.8571429,26.5590581 L31.360556,25.9813087 C30.6121146,28.0552012 29.9657334,28.4301615 29.4554325,28.4301615 C28.9451316,28.4301615 28.6729711,28.0902567 28.6729711,27.4102992 C28.6729711,27.1041186 28.741307,26.7643618 28.8430714,26.3552335 L29.9318613,22.4447014 C30.2038738,21.5264555 30.3060819,20.7121927 30.3060819,19.9640472 C30.3060819,17.0386177 28.5370387,15.5118565 26.3940706,15.5118565 C24.3871828,15.5118565 22.3459791,17.3221675 21.3256731,19.2274389 L22.0738186,15.8076831 L16.2572755,15.8076831 L15.440794,18.8197898 L18.162251,18.8197898 L16.4863932,25.5291377 C15.1704085,28.4545672 12.7530612,28.5020474 12.449691,28.4341552 C11.9515189,28.321741 11.6329137,28.1325599 11.6329137,27.4852913 C11.6329137,27.1118101 11.7009538,26.5753286 11.8710541,25.9285036 L14.4225588,15.8076831 L7.95933863,15.8076831 L7.14285714,18.8197898 L9.8299983,18.8197898 L8.09541888,25.9069083" id="icon" fill="#FFFFFF" fill-rule="nonzero"></path>
            </g>
        </g>
    </g>
</svg>