<?xml version="1.0" standalone="no"?>
<!DOCTYPE svg PUBLIC "-//W3C//DTD SVG 20010904//EN"
 "http://www.w3.org/TR/2001/REC-SVG-20010904/DTD/svg10.dtd">
<svg version="1.0" xmlns="http://www.w3.org/2000/svg"
 width="240.000000pt" height="81.000000pt" viewBox="0 0 240.000000 81.000000"
 preserveAspectRatio="xMidYMid meet">

<g transform="translate(0.000000,81.000000) scale(0.100000,-0.100000)"
fill="#000000" stroke="none">
<path d="M1 548 c0 -145 3 -258 5 -253 3 6 42 114 88 240 83 229 83 230 114
233 23 2 34 -2 42 -18 26 -49 170 -496 164 -512 -3 -12 -15 -18 -34 -18 -32 0
-54 24 -65 73 l-7 27 -94 0 -94 0 -23 -47 c-23 -51 -54 -66 -83 -43 -12 11
-14 -4 -14 -109 l0 -121 1200 0 1200 0 -1 123 c0 67 -3 116 -6 110 -7 -18 -62
-16 -69 2 -5 13 -10 13 -36 -1 -22 -12 -50 -15 -98 -12 -120 6 -189 78 -190
194 -1 177 216 268 341 143 21 -21 42 -53 48 -71 7 -24 9 15 10 145 l1 177
-495 0 c-487 0 -496 0 -485 -19 6 -12 10 -120 10 -280 0 -248 -1 -262 -20
-281 -23 -23 -30 -24 -53 -7 -16 11 -17 37 -15 300 l3 287 -672 0 -673 0 1
-262z m1545 196 c8 -30 -11 -54 -42 -54 -30 0 -49 33 -34 59 19 37 66 34 76
-5z m-778 -162 c24 -15 51 -39 60 -54 16 -27 16 -29 -16 -60 -32 -32 -33 -32
-44 -13 -47 82 -127 97 -189 35 -24 -23 -29 -37 -29 -75 0 -38 5 -52 29 -75
33 -33 69 -45 109 -36 17 4 75 56 157 140 72 73 146 141 165 151 22 11 57 18
92 18 150 0 243 -153 177 -290 -49 -101 -166 -137 -281 -88 -16 6 -18 -4 -20
-102 l-3 -108 -35 0 -35 0 -2 140 -2 140 40 45 c26 29 43 40 46 32 23 -61 97
-95 154 -72 129 54 58 254 -74 211 -23 -8 -70 -51 -143 -128 -59 -64 -126
-129 -147 -144 -59 -43 -138 -48 -219 -14 -16 6 -18 -4 -20 -102 l-3 -108 -35
0 -35 0 -3 219 c-2 206 -1 221 19 263 50 104 185 139 287 75z m770 26 c8 -8
12 -66 12 -195 0 -170 -1 -183 -19 -193 -24 -12 -48 -4 -61 21 -6 10 -10 89
-10 176 0 127 3 163 16 181 17 24 43 29 62 10z m315 1 c82 -23 148 -122 98
-149 -30 -15 -37 -13 -75 28 -32 33 -41 37 -87 37 -45 0 -54 -4 -80 -33 -39
-43 -41 -106 -4 -146 51 -55 112 -55 171 0 40 39 50 41 76 17 25 -23 23 -37
-14 -79 -41 -46 -83 -64 -150 -64 -111 0 -188 70 -196 179 -11 150 115 251
261 210z"/>
<path d="M186 515 c-15 -44 -30 -86 -33 -92 -3 -10 11 -13 56 -13 34 0 61 4
61 8 0 4 -13 46 -28 92 l-29 85 -27 -80z"/>
<path d="M2143 510 c-40 -24 -53 -48 -53 -98 0 -50 29 -88 80 -103 73 -22 140
28 140 105 0 48 -19 80 -60 101 -39 20 -69 19 -107 -5z"/>
</g>
</svg>
