<?xml version="1.0" encoding="UTF-8"?>
<svg width="40px" height="40px" viewBox="0 0 40 40" version="1.1" xmlns="http://www.w3.org/2000/svg" xmlns:xlink="http://www.w3.org/1999/xlink">
    <!-- Generator: sketchtool 46.2 (44496) - http://www.bohemiancoding.com/sketch -->
    <title>3EA5BB22-4FC7-4793-BBE4-E87D57569348</title>
    <desc>Created with sketchtool.</desc>
    <defs></defs>
    <g id="Design" stroke="none" stroke-width="1" fill="none" fill-rule="evenodd">
        <g id="services" transform="translate(-925.000000, -925.000000)">
            <g id="Marvel" transform="translate(925.000000, 925.000000)">
                <rect id="Form" fill="#1FB6FF" x="0" y="0" width="40" height="40" rx="5"></rect>
                <path d="M30.4891737,22.9885832 C19.5726388,22.1669085 10.5509863,24.7325457 8.52195293,25.6883714 C7.39843858,26.1914375 7.31459423,26.8286546 7.48228294,27.1808009 C7.63320278,27.4491028 8.16980664,27.6167915 8.75671712,27.3149518 C13.0830858,25.0176165 21.8532053,23.1898096 30.4891737,23.7096446 C30.6904002,23.7096446 30.8580889,23.5419559 30.8580889,23.3407294 C30.8580889,23.1562719 30.6904002,22.9885832 30.4891737,22.9885832 L30.4891737,22.9885832 Z M33.1889619,19.76896 C32.7362024,20.2720261 32.0654476,20.6577101 31.8474523,20.4732525 C31.6462258,20.2887949 31.8474523,19.6851156 31.8474523,19.6851156 C32.92066,18.9975919 35,17.2536293 35,15.9121197 C35,14.6712232 33.8764857,14.2855392 32.6858958,15.4425913 C31.7300702,16.4654924 31.0257776,17.7063888 30.6568625,19.0646674 C30.0364142,19.6683467 29.0638197,20.4397148 28.1750696,20.4397148 C27.7223101,20.4397148 27.5881591,20.1211062 27.6552346,19.6851156 C28.4098338,19.6683467 30.4891737,19.0982051 30.4891737,17.3710114 C30.4891737,17.0859406 30.3550228,16.8176387 30.1537963,16.6164122 C29.935801,16.4151858 29.6507302,16.3313414 29.3656594,16.3481103 C28.4266026,16.3481103 27.2192439,17.3039359 26.6323334,18.6454456 C26.4646447,18.6119079 26.3137249,18.5616013 26.1628051,18.4945258 C26.3137249,18.1591483 26.4478759,17.8237709 26.5317202,17.4716246 C26.6658712,16.7673321 26.3640315,16.3313414 25.777121,16.381648 C25.4082059,16.4151858 24.9554464,16.7337943 24.871602,17.4716246 C24.8380643,17.8405398 24.9051397,18.2262238 25.0728285,18.5616013 C24.8212954,19.3497382 23.7648565,20.3391016 23.4127102,20.3055638 C23.060564,20.2720261 23.4630169,18.8634409 23.8151631,17.8237709 C24.0163896,17.6225445 24.1673094,17.3877803 24.2679227,17.1194784 C24.3685359,16.9182519 24.3014604,16.6667188 24.1002339,16.5493367 C23.5636301,16.3481103 22.9599507,16.5996434 22.7251865,17.1194784 C22.5742667,17.3710114 22.4568846,17.6393134 22.3562714,17.9076153 C22.0712006,18.2597616 21.6016722,18.6957522 21.4675212,18.6622145 C21.2662948,18.5280635 21.9202807,17.6728511 21.8364364,17.2033227 C21.7693609,16.8008698 21.4172146,16.5325679 21.0147617,16.5661056 C20.4278512,16.64995 19.6397143,17.7566954 19.6397143,17.7566954 C19.7235587,17.555469 19.7906341,17.3374737 19.807403,17.1194784 C19.7738653,16.7002566 18.9857283,16.515799 18.6000443,17.2703982 C18.3317424,17.9914596 18.1305159,18.7460588 18.0131338,19.5174269 C17.8454451,19.8695732 17.1914592,20.8924743 16.6716242,20.926012 C16.2524024,20.9595498 16.7722374,19.114974 16.8393129,19.0143608 C17.0740771,18.6622145 17.3591479,17.9243842 17.2920724,17.6057756 C17.2920724,17.4548558 17.2249969,17.3039359 17.1076148,17.2033227 C16.9902327,17.1027095 16.822544,17.0859406 16.6716242,17.1194784 C16.4033222,17.1865538 16.1853269,17.3542425 16.0511759,17.5890067 C15.8667184,17.3542425 15.5648787,17.2536293 15.263039,17.3039359 C13.5358453,17.4883935 12.4290998,20.4564837 12.5464819,21.8482999 C12.6470952,22.6028991 12.9992414,23.0556586 13.6699963,22.9718143 C14.4245955,22.8712011 15.0450437,21.7979933 15.0450437,21.7979933 C15.0450437,21.7979933 15.2127324,22.6867435 16.0176382,22.5861303 C16.6213176,22.4016727 17.1579214,22.0327575 17.5436054,21.5296914 C17.5268366,21.579998 17.5100677,21.6303046 17.5100677,21.6806112 C17.3759167,22.4352104 18.6335821,22.3513661 18.7509641,21.7812245 C19.1198793,18.9472853 20.0924738,17.7734643 20.3775446,17.7734643 C20.6123088,17.7734643 19.7570964,19.114974 20.2433937,19.6180401 C20.6123088,20.0707996 21.2830636,19.7186533 21.8364364,19.249125 C21.7358232,19.6012712 21.6855165,19.9701864 21.6687477,20.3391016 C21.6352099,21.1272385 21.9202807,21.7644556 22.7084177,21.7476867 C23.7480877,21.714149 24.8548331,20.4397148 25.5758946,19.2323561 C25.7603522,19.3497382 25.9783475,19.4335825 26.1963428,19.4838891 C26.1292673,19.76896 26.0957296,20.0540308 26.1124985,20.3558704 C26.1795739,21.2781583 26.8335599,21.6303046 27.5881591,21.5967669 C28.4769092,21.5632291 29.5165792,20.8924743 30.2208718,20.2887949 C30.2208718,20.3223327 30.2041029,20.3558704 30.1873341,20.3894082 C30.1202586,20.8421677 30.2208718,21.6638424 30.8748578,21.6973801 C31.629457,21.7644556 32.92066,20.9930875 33.574646,20.2049506 C34.1280187,19.8528043 33.5914148,19.3497382 33.1889619,19.76896 L33.1889619,19.76896 Z M33.8932545,15.9288885 C33.9770989,15.9288885 34.0274055,16.0127329 34.0274055,16.0798084 C34.0274055,16.8679453 31.9983721,18.5616013 31.9983721,18.5616013 C31.9983721,18.5616013 33.3231129,15.9288885 33.8932545,15.9288885 L33.8932545,15.9288885 Z M29.0135131,17.5890067 C29.0805886,17.5890067 29.1476641,17.6057756 29.1979707,17.6560822 C29.2482773,17.7063888 29.2650462,17.7734643 29.2482773,17.8405398 C29.2482773,18.2932993 28.6278291,18.6286767 27.9403054,18.6286767 C28.3092205,18.1088417 28.7284423,17.5890067 29.0135131,17.5890067 Z M15.5145721,18.8299032 C15.4474966,19.2994316 14.609053,21.445847 14.1395247,21.445847 C13.5526142,21.4793848 14.4245955,18.4274503 15.3804211,18.4442192 C15.5648787,18.4442192 15.5648787,18.5783701 15.5145721,18.8299032 L15.5145721,18.8299032 Z M8.16980664,19.4000448 C8.72317938,19.4000448 7.71704713,22.233984 7.8511981,23.4748804 C7.98534906,24.7157769 9.37716534,24.3636306 9.27655212,23.6258002 C9.10886341,22.4184415 9.96407582,18.5616013 10.8025194,18.5616013 C11.4229676,18.5616013 10.1149957,21.2110828 10.3832976,22.8544322 C10.5509863,23.9444088 12.0434158,23.6090314 11.8757271,22.9215077 C11.4229676,20.7583233 12.9489348,18.6622145 12.7477084,17.1362472 C12.6470952,16.4990301 12.2949489,16.1468838 11.8589582,16.1468838 C10.4503731,16.1468838 9.31008986,18.9472853 9.31008986,18.9472853 C9.31008986,18.9472853 9.44424083,17.3542425 8.30395761,17.2871671 C6.66060827,17.2033227 4.96695231,21.2781583 5.00049005,24.9673099 C5.03402779,26.1411309 6.5264573,25.9566733 6.42584407,25.0008477 C6.34199972,23.3574983 7.31459423,19.4000448 8.16980664,19.4000448 L8.16980664,19.4000448 Z" id="icon" fill="#FFFFFF" fill-rule="nonzero"></path>
            </g>
        </g>
    </g>
</svg>