<svg xmlns="http://www.w3.org/2000/svg" xmlns:xlink="http://www.w3.org/1999/xlink" width="150.909" height="147.667" viewBox="0 0 150.909 147.667"><defs><linearGradient id="a" x1="0.5" x2="0.5" y2="1" gradientUnits="objectBoundingBox"><stop offset="0" stop-color="#e4b940"/><stop offset="1" stop-color="#8e6f16"/></linearGradient><filter id="b" x="0" y="0" width="150.909" height="147.667" filterUnits="userSpaceOnUse"><feOffset dy="10" input="SourceAlpha"/><feGaussianBlur stdDeviation="10" result="c"/><feFlood flood-opacity="0.4"/><feComposite operator="in" in2="c"/><feComposite in="SourceGraphic"/></filter></defs><g transform="translate(-264.104 -547.115)"><g transform="matrix(1, 0, 0, 1, 264.1, 547.11)" filter="url(#b)"><g transform="translate(3009.2 -706.56)" fill="url(#a)"><path d="M -2933.742919921875 813.2275390625 C -2936.156005859375 813.2275390625 -2938.463623046875 812.4778442382813 -2940.416015625 811.0594482421875 L -2973.516845703125 787.0098876953125 C -2975.46923828125 785.591552734375 -2976.8955078125 783.6287231445313 -2977.64111328125 781.3336181640625 C -2978.38671875 779.0385131835938 -2978.38671875 776.6123046875 -2977.64111328125 774.3171997070313 L -2964.997314453125 735.4046020507813 C -2964.251953125 733.1094970703125 -2962.825927734375 731.1466064453125 -2960.87353515625 729.7281494140625 C -2958.92138671875 728.3097534179688 -2956.614013671875 727.5599975585938 -2954.20068359375 727.5599975585938 L -2913.28515625 727.5599975585938 C -2910.8720703125 727.5599975585938 -2908.564697265625 728.3097534179688 -2906.6123046875 729.7281494140625 C -2904.66015625 731.1466674804688 -2903.234130859375 733.1094970703125 -2902.488525390625 735.4046020507813 L -2889.8447265625 774.3171997070313 C -2889.09912109375 776.6123046875 -2889.09912109375 779.0385131835938 -2889.8447265625 781.3336181640625 C -2890.59033203125 783.6287231445313 -2892.0166015625 785.591552734375 -2893.96875 787.0098876953125 L -2927.070068359375 811.0594482421875 C -2929.022216796875 812.4778442382813 -2931.329833984375 813.2275390625 -2933.742919921875 813.2275390625 Z" stroke="none"/><path d="M -2933.742919921875 812.2275390625 C -2931.542236328125 812.2275390625 -2929.43798828125 811.5438842773438 -2927.65771484375 810.2504272460938 L -2894.556640625 786.2008056640625 C -2892.7763671875 784.907470703125 -2891.475830078125 783.1175537109375 -2890.7958984375 781.0245971679688 C -2890.11572265625 778.9317016601563 -2890.11572265625 776.7191772460938 -2890.7958984375 774.626220703125 L -2903.439453125 735.7135620117188 C -2904.119384765625 733.6206665039063 -2905.419921875 731.8306884765625 -2907.2001953125 730.5371704101563 C -2908.98046875 729.2437133789063 -2911.084716796875 728.5599975585938 -2913.28515625 728.5599975585938 L -2954.20068359375 728.5599975585938 C -2956.4013671875 728.5599975585938 -2958.505615234375 729.2437133789063 -2960.285888671875 730.5371704101563 C -2962.066162109375 731.8306884765625 -2963.366455078125 733.62060546875 -2964.04638671875 735.713623046875 L -2976.68994140625 774.626220703125 C -2977.3701171875 776.7191772460938 -2977.3701171875 778.9317016601563 -2976.68994140625 781.0245971679688 C -2976.010009765625 783.1174926757813 -2974.70947265625 784.907470703125 -2972.92919921875 786.2008666992188 L -2939.828125 810.2504272460938 C -2938.0478515625 811.5438842773438 -2935.943603515625 812.2275390625 -2933.742919921875 812.2275390625 M -2933.742919921875 814.2275390625 C -2936.290771484375 814.2275390625 -2938.8388671875 813.4412231445313 -2941.003662109375 811.8684692382813 L -2974.104736328125 787.8189086914063 C -2978.434326171875 784.6735229492188 -2980.245849609375 779.0977783203125 -2978.592041015625 774.0081787109375 L -2965.948486328125 735.0955810546875 C -2964.295166015625 730.0059204101563 -2959.55224609375 726.5599975585938 -2954.20068359375 726.5599975585938 L -2913.28515625 726.5599975585938 C -2907.933837890625 726.5599975585938 -2903.19091796875 730.0059204101563 -2901.537353515625 735.0955810546875 L -2888.893798828125 774.0081787109375 C -2887.239990234375 779.0977783203125 -2889.051513671875 784.6735229492188 -2893.381103515625 787.8189086914063 L -2926.482177734375 811.8684692382813 C -2928.64697265625 813.4412231445313 -2931.195068359375 814.2275390625 -2933.742919921875 814.2275390625 Z" stroke="none" fill="#e4b940"/></g></g><g transform="translate(319.103 591)"><path d="M144,120.664v3.512h3.512A4.3,4.3,0,0,0,144,120.664Z" transform="translate(-131.143 -109.89)" fill="#fff"/><path d="M68.291,149.6a.714.714,0,0,1-.714-.714v-4.226a4.286,4.286,0,1,0,4.941,4.941Z" transform="translate(-58.291 -131.748)" fill="#fff"/><path d="M418.143,272H416v15.714h2.143a.714.714,0,0,0,.714-.714V272.714A.714.714,0,0,0,418.143,272Zm0,8.571h-1.429v-1.429h1.429Z" transform="translate(-378.857 -247.714)" fill="#fff"/><path d="M30,91.429a2.149,2.149,0,0,1-2.143-2.143V80h-25a.714.714,0,0,0-.714.714v20.714H12.857v1.429H0v1.429H14.286V97.857a2.149,2.149,0,0,1,2.143-2.143h15V91.429Zm-7.857-9.286H25v1.429H22.143Zm0,2.857H25v1.429H22.143Zm-10,14.286H3.571V97.857h8.571ZM10,95.714a5.714,5.714,0,1,1,0-11.429.714.714,0,0,1,.714.714v4.286H15a.714.714,0,0,1,.714.714A5.722,5.722,0,0,1,10,95.714Zm2.143-7.143a.714.714,0,0,1-.714-.714v-5a.714.714,0,0,1,.714-.714,5.722,5.722,0,0,1,5.714,5.714.714.714,0,0,1-.714.714Zm8.571,4.286H16.429V91.429h4.286Zm0-9.286H19.579l-1.214,1.221L17.35,83.779l1.429-1.429a.738.738,0,0,1,.507-.207h1.429Zm2.857,10.714a2.143,2.143,0,1,1,2.143-2.143A2.143,2.143,0,0,1,23.571,94.286Z" transform="translate(0 -72.857)" fill="#fff"/><path d="M176.714,272a.714.714,0,0,0-.714.714V287a.714.714,0,0,0,.714.714H196V272Zm17.857,13.571H178.143a.714.714,0,0,1-.714-.714v-10h1.429v9.286h1.429v-2.857h1.429v2.857h1.429v-6.429h1.429v6.429H186v-4.286h1.429v4.286h1.429v-5.714h1.429v5.714h1.429v-7.857h1.429v7.857h1.429Z" transform="translate(-160.286 -247.714)" fill="#fff"/><path d="M328,160v2.143a.714.714,0,0,0,.714.714h8.571a.714.714,0,0,0,.714-.714V160Zm5.714,2.143h-1.429v-1.429h1.429Z" transform="translate(-298.714 -145.714)" fill="#fff"/><path d="M257.429,208.714a.714.714,0,1,1-.714-.714A.714.714,0,0,1,257.429,208.714Z" transform="translate(-233.143 -189.429)" fill="#fff"/><path d="M337.286,0h-8.571A.714.714,0,0,0,328,.714V12.857h10V.714A.714.714,0,0,0,337.286,0Zm-3.571,9.286h-1.429V7.857h1.429Zm2.857,0h-1.429V7.857h1.429Zm0-2.857h-4.286V5h4.286Zm0-2.857h-4.286V2.143h4.286Z" transform="translate(-298.714)" fill="#fff"/></g></g></svg>