<svg xmlns="http://www.w3.org/2000/svg" xmlns:xlink="http://www.w3.org/1999/xlink" width="409.809" height="384.457" viewBox="0 0 409.809 384.457"><defs><radialGradient id="a" cx="30.902" cy="128.62" r="30.9" gradientTransform="matrix(0, -4.162, -1, 0, 159.535, 257.243)" gradientUnits="userSpaceOnUse"><stop offset="0.005" stop-color="#00051c"/><stop offset="1" stop-color="#fff"/></radialGradient><clipPath id="b"><path d="M47.553,82.021a34.075,34.075,0,0,1,25.291-7.353l276.01,31.659c18.74,2.152,32.373,19.141,30.721,38.285L362.382,343.638a35.087,35.087,0,0,1-31.037,32.11L72.524,402.966a34.062,34.062,0,0,1-24.486-6.98A34.67,34.67,0,0,1,29.71,365.409V112.352A34.677,34.677,0,0,1,47.553,82.021Z" transform="translate(-29.71 -74.444)" fill="none"/></clipPath><linearGradient id="c" x1="0.854" y1="0.146" x2="0.048" y2="0.974" gradientUnits="objectBoundingBox"><stop offset="0" stop-color="#565a6f"/><stop offset="1" stop-color="#3e4257"/></linearGradient><filter id="d" x="0" y="0" width="409.809" height="384.457" filterUnits="userSpaceOnUse"><feOffset dy="10" input="SourceAlpha"/><feGaussianBlur stdDeviation="15" result="e"/><feFlood flood-opacity="0.302"/><feComposite operator="in" in2="e"/><feComposite in="SourceGraphic"/></filter></defs><g transform="translate(43.3 -8.388)"><g transform="translate(0 0)"><ellipse cx="30.902" cy="128.619" rx="30.902" ry="128.619" transform="translate(289.5 303.76) rotate(-177.862)" fill="url(#a)"/><g transform="translate(0 22.836)"><path d="M326.834,375.75,68.013,402.968c-20.487,2.156-38.3-14.224-38.3-35.215v-257.9c0-21.117,18.029-37.539,38.622-35.18l276.01,31.659c18.74,2.152,32.373,19.141,30.721,38.285L357.871,343.64A35.088,35.088,0,0,1,326.834,375.75Z" transform="translate(-25.199 -74.444)" fill="#b58a11"/><path d="M328.117,370.989,69.3,397.7a34.737,34.737,0,0,1-38.3-34.554V110.085A34.737,34.737,0,0,1,69.616,75.567l276.013,31.065A34.738,34.738,0,0,1,376.346,144.2L359.154,339.484A34.735,34.735,0,0,1,328.117,370.989Z" transform="translate(-30.993 -72.176)" fill="#e4b940"/></g><g transform="translate(2.214)"><g transform="matrix(1, 0, 0, 1, -45.51, 8.39)" filter="url(#d)"><path d="M82.582,349.381l238.822,24.3c18.9,1.923,35.345-12.7,35.345-31.431v-230.2c0-18.852-16.637-33.509-35.637-31.4L66.424,108.9A31.723,31.723,0,0,0,38.08,143.072L53.943,320.721A31.817,31.817,0,0,0,82.582,349.381Z" transform="translate(7.56 -44.91)" stroke="#e4b940" stroke-width="1" fill="url(#c)"/></g></g></g></g></svg>