<svg xmlns="http://www.w3.org/2000/svg" xmlns:xlink="http://www.w3.org/1999/xlink" width="403.637" height="389.934" viewBox="0 0 403.637 389.934"><defs><clipPath id="a"><path d="M448.154,108.578A32.584,32.584,0,0,0,423.908,94.52L173.05,74.281a32.647,32.647,0,0,0-33.564,42.966l71.389,211.839a32.529,32.529,0,0,0,9,13.728,32.64,32.64,0,0,0,31.486,13.97l179.469-25a32.647,32.647,0,0,0,28.144-32.336v-166.6A32.591,32.591,0,0,0,448.154,108.578Z" transform="translate(-137.745 -74.171)" fill="none"/></clipPath><linearGradient id="b" x1="0.146" y1="0.146" x2="0.952" y2="0.974" gradientUnits="objectBoundingBox"><stop offset="0" stop-color="#565a6f"/><stop offset="1" stop-color="#3e4257"/></linearGradient><filter id="c" x="0" y="0" width="403.637" height="389.934" filterUnits="userSpaceOnUse"><feOffset dy="10" input="SourceAlpha"/><feGaussianBlur stdDeviation="15" result="d"/><feFlood flood-opacity="0.302"/><feComposite operator="in" in2="d"/><feComposite in="SourceGraphic"/></filter></defs><g transform="translate(15.954 35.523)"><path d="M173.05,74.281,423.908,94.52a32.65,32.65,0,0,1,30.023,32.543v206.6a32.647,32.647,0,0,1-28.144,32.336L246.317,391a32.647,32.647,0,0,1-35.442-21.909L139.486,117.248A32.646,32.646,0,0,1,173.05,74.281Z" transform="translate(-137.745 -72.314)" fill="#b58a11"/><path d="M174.7,76.175,425.558,96.417a32.648,32.648,0,0,1,30.023,32.543v196.6a32.647,32.647,0,0,1-28.144,32.336l-179.469,25a32.647,32.647,0,0,1-35.442-21.909L141.136,119.145A32.65,32.65,0,0,1,174.7,76.175Z" transform="translate(-134.354 -68.422)" fill="#e4b940"/><g transform="matrix(1, 0, 0, 1, -15.95, -35.52)" filter="url(#c)"><path d="M424.089,372.347,177.843,352.71c-17.187-1.329-30.426-15.067-30.426-31.575V129.5c0-15.806,12.171-29.192,28.523-31.373L357.832,73.868c15.754-2.1,30.842,6.825,35.922,21.256L458.1,330.657C465.7,352.215,447.777,374.177,424.089,372.347Z" transform="translate(-101.92 -38.04)" stroke="#e4b940" stroke-width="1" fill="url(#b)"/></g></g></svg>