<svg xmlns="http://www.w3.org/2000/svg" xmlns:xlink="http://www.w3.org/1999/xlink" width="1457.002" height="1197.683" viewBox="0 0 1457.002 1197.683"><defs><filter id="a" x="0" y="365.958" width="1456.004" height="831.725" filterUnits="userSpaceOnUse"><feOffset dy="20" input="SourceAlpha"/><feGaussianBlur stdDeviation="15" result="b"/><feFlood flood-opacity="0.149"/><feComposite operator="in" in2="b"/><feComposite in="SourceGraphic"/></filter><filter id="c" x="0.002" y="0" width="1457" height="376.997" filterUnits="userSpaceOnUse"><feOffset dy="-20" input="SourceAlpha"/><feGaussianBlur stdDeviation="15" result="d"/><feFlood flood-opacity="0.302"/><feComposite operator="in" in2="d"/><feComposite in="SourceGraphic"/></filter></defs><g transform="translate(45.002 -924.002)"><g transform="matrix(1, 0, 0, 1, -45, 924)" filter="url(#a)"><path d="M634.4,23.41a112,112,0,0,1,97.2,0l450.53,217a112,112,0,0,1,60.591,75.987L1366,754.039H0L123.277,316.4a112,112,0,0,1,60.591-75.987Z" transform="translate(1411 1145) rotate(180)" fill="#353746"/></g><g transform="matrix(1, 0, 0, 1, -45, 924)" filter="url(#c)"><path d="M17967-10150.771H16600l0-287h.6l602.936,236.468c18.205,6.181,32.836,10.935,45.074,14.046,12.463,3.168,22.174,4.581,31.486,4.581,9.379,0,18.848-1.462,30.7-4.741,11.664-3.227,25.521-8.166,41.568-13.886l614.031-236.468h.6l0,287,0,0h0v0Z" transform="translate(-16555 10502.77)" fill="#353746"/></g><rect width="1367" height="75" transform="translate(0 1264)" fill="#353746"/></g></svg>