<svg xmlns="http://www.w3.org/2000/svg" xmlns:xlink="http://www.w3.org/1999/xlink" width="1194" height="251.51" viewBox="0 0 1194 251.51"><defs><linearGradient id="a" x1="0.453" y1="0.04" x2="0.462" y2="1.299" gradientUnits="objectBoundingBox"><stop offset="0" stop-color="#e4b940"/><stop offset="1" stop-color="#8e6f16"/></linearGradient><linearGradient id="b" x1="0.146" y1="0.146" x2="0.952" y2="0.974" gradientUnits="objectBoundingBox"><stop offset="0" stop-color="#565a6f"/><stop offset="1" stop-color="#3e4257"/></linearGradient><filter id="c" x="263.971" y="73.985" width="118.318" height="118.319" filterUnits="userSpaceOnUse"><feOffset dy="10" input="SourceAlpha"/><feGaussianBlur stdDeviation="15" result="d"/><feFlood flood-opacity="0.302"/><feComposite operator="in" in2="d"/><feComposite in="SourceGraphic"/></filter><filter id="f" x="540.94" y="74.179" width="118.318" height="118.318" filterUnits="userSpaceOnUse"><feOffset dy="10" input="SourceAlpha"/><feGaussianBlur stdDeviation="15" result="g"/><feFlood flood-opacity="0.302"/><feComposite operator="in" in2="g"/><feComposite in="SourceGraphic"/></filter><filter id="i" x="804.712" y="73.985" width="118.318" height="118.319" filterUnits="userSpaceOnUse"><feOffset dy="10" input="SourceAlpha"/><feGaussianBlur stdDeviation="15" result="j"/><feFlood flood-opacity="0.302"/><feComposite operator="in" in2="j"/><feComposite in="SourceGraphic"/></filter><filter id="l" x="1075.681" y="74.179" width="118.319" height="118.318" filterUnits="userSpaceOnUse"><feOffset dy="10" input="SourceAlpha"/><feGaussianBlur stdDeviation="15" result="m"/><feFlood flood-opacity="0.302"/><feComposite operator="in" in2="m"/><feComposite in="SourceGraphic"/></filter><filter id="o" x="0" y="73.877" width="118.318" height="118.319" filterUnits="userSpaceOnUse"><feOffset dy="10" input="SourceAlpha"/><feGaussianBlur stdDeviation="15" result="p"/><feFlood flood-opacity="0.302"/><feComposite operator="in" in2="p"/><feComposite in="SourceGraphic"/></filter></defs><g transform="translate(43.5 0.498)"><g transform="translate(13.66)"><path d="M16835.33-13076.312l-102.02-102.023-119.9-119.9a29.385,29.385,0,0,0-41.51,0l-107.061,107.064a3.808,3.808,0,0,1-5.381,0,3.8,3.8,0,0,1,0-5.381l107.064-107.064a37,37,0,0,1,52.268,0l114.523,114.524,107.4,107.4a29.157,29.157,0,0,0,20.752,8.6,29.161,29.161,0,0,0,20.758-8.6l119.342-119.341v10.757l-113.961,113.965a36.736,36.736,0,0,1-26.139,10.823A36.726,36.726,0,0,1,16835.33-13076.312Zm540.715-.026-107.355-107.355-116.1-116.1a29.161,29.161,0,0,0-20.754-8.595,29.139,29.139,0,0,0-20.752,8.595l-109.521,109.518v-10.757l104.141-104.142a36.7,36.7,0,0,1,26.133-10.823,36.717,36.717,0,0,1,26.135,10.823l110.719,110.72,112.736,112.736a29.384,29.384,0,0,0,41.506,0l115.361-115.356a3.793,3.793,0,0,1,5.375,0,3.8,3.8,0,0,1,0,5.381l-115.355,115.356a36.839,36.839,0,0,1-26.131,10.808A36.861,36.861,0,0,1,17376.045-13076.338Z" transform="translate(-16458.34 13316)" stroke="rgba(0,0,0,0)" stroke-width="1" fill="url(#a)"/></g><g transform="matrix(1, 0, 0, 1, -43.5, -0.5)" filter="url(#c)"><path d="M164.449,232.016a13.659,13.659,0,1,1-13.658-13.658A13.659,13.659,0,0,1,164.449,232.016Z" transform="translate(172.34 -108.87)" stroke="#e4b940" stroke-width="1" fill="url(#b)"/></g><path d="M154.981,228.208a8,8,0,1,1-8-8A8,8,0,0,1,154.981,228.208Z" transform="translate(132.579 -105.633)" fill="#e4b940"/><g transform="matrix(1, 0, 0, 1, -43.5, -0.5)" filter="url(#f)"><path d="M272.457,230.484a13.659,13.659,0,1,1-13.66-13.66A13.66,13.66,0,0,1,272.457,230.484Z" transform="translate(341.3 -107.14)" stroke="#e4b940" stroke-width="1" fill="url(#b)"/></g><path d="M262.989,226.675a8,8,0,1,1-8-8A8,8,0,0,1,262.989,226.675Z" transform="translate(301.541 -103.903)" fill="#e4b940"/><g transform="matrix(1, 0, 0, 1, -43.5, -0.5)" filter="url(#i)"><path d="M382,232.016a13.659,13.659,0,1,1-13.658-13.658A13.66,13.66,0,0,1,382,232.016Z" transform="translate(495.53 -108.87)" stroke="#e4b940" stroke-width="1" fill="url(#b)"/></g><path d="M372.53,228.207a8,8,0,1,1-8-8A8,8,0,0,1,372.53,228.207Z" transform="translate(455.772 -105.633)" fill="#e4b940"/><g transform="matrix(1, 0, 0, 1, -43.5, -0.5)" filter="url(#l)"><path d="M490.006,230.484a13.659,13.659,0,1,1-13.658-13.66A13.659,13.659,0,0,1,490.006,230.484Z" transform="translate(658.49 -107.14)" stroke="#e4b940" stroke-width="1" fill="url(#b)"/></g><path d="M480.538,226.674a8,8,0,1,1-8-8A8,8,0,0,1,480.538,226.674Z" transform="translate(618.794 -103.843)" fill="#e4b940"/><g transform="translate(0 113.878)"><g transform="matrix(1, 0, 0, 1, -43.5, -114.38)" filter="url(#o)"><path d="M53.619,230.36A13.659,13.659,0,1,1,39.959,216.7,13.66,13.66,0,0,1,53.619,230.36Z" transform="translate(19.2 -107.33)" stroke="#e4b940" stroke-width="1" fill="url(#b)"/></g><path d="M44.15,226.551a8,8,0,1,1-8-8A8,8,0,0,1,44.15,226.551Z" transform="translate(-20.563 -217.964)" fill="#e4b940"/></g></g></svg>