<svg xmlns="http://www.w3.org/2000/svg" width="860.1" height="112.801" viewBox="0 0 860.1 112.801"><path d="M3.8,91a47.182,47.182,0,0,0,22.9,6c11.8,0,18.5-5.8,18.5-14.5,0-8.2-5.4-12.9-17.5-18.1C11.9,57.8,1.7,48,1.7,33.8c0-17,13.4-30.3,35.7-30.3,10.1,0,18,2.4,22.6,4.7L55.9,23.7A40.327,40.327,0,0,0,37,19.1c-11.5,0-16.6,6.5-16.6,12.8,0,8.2,5.7,12,18.9,17.8C56,57.3,63.9,66.9,63.9,80.9c0,17.7-13.1,31.7-38.2,31.7-10.3,0-20.7-3-25.7-6Z" fill="#333441"/><path d="M104.6,14.8V34.4H122V48.1H104.6V83.9c0,9.3,2.8,13.4,9.3,13.4a22.242,22.242,0,0,0,6.8-.8l.5,14.4a46.657,46.657,0,0,1-13.3,1.7c-6.6,0-12.1-2.1-15.6-5.8-4.1-4.3-6-10.9-6-21.3V48.1H75.9V34.4H86.3v-14Z" fill="#333441"/><path d="M169.1,112.8c-20,0-35.2-14.5-35.2-39.6,0-26,15.8-40.4,36.1-40.4,20.8,0,34.9,15.5,34.9,39.4,0,29-18.8,40.5-35.7,40.5h-.1Zm.5-13.7c10.3,0,16.3-12.2,16.3-26.3,0-11.8-4.3-26.2-16.3-26.2-12.1,0-16.6,14-16.6,26.3,0,14.2,5.8,26.2,16.4,26.2h.2Z" fill="#333441"/><path d="M223.9,58.2c0-9.3-.3-17-.6-23.8h16.1l.8,13.7h.6c3.5-9.9,11.7-15.3,19.2-15.3,1.9,0,3,.2,4.3.3v18a22.365,22.365,0,0,0-5.1-.5c-8.2,0-14.4,5.5-16.3,14.2a37.388,37.388,0,0,0-.5,6.3v40.1H223.8v-53Z" fill="#333441"/><path d="M280.1,57c0-8.8-.3-15.8-.6-22.6h16.1l.8,10.6h.5a24.764,24.764,0,0,1,21.8-12.1c9.6,0,16.7,5,19.9,13.1h.3a32.357,32.357,0,0,1,8.8-9.2,25.984,25.984,0,0,1,14.2-3.9c12.5,0,23.7,8.8,23.7,31.7v46.7H367.3V67.5c0-11.8-3.5-19.6-12.1-19.6-6,0-10.4,4.3-12.3,9.8a26.908,26.908,0,0,0-.8,6.5v47H323.8V65.3c0-9.6-3.3-17.4-11.8-17.4-6.3,0-10.9,4.9-12.6,10.6a24.091,24.091,0,0,0-.8,6.3v46.4H280.3V57Z" fill="#333441"/><path d="M425.4,111.2,401.4,4.9h19.7l9.1,47.6c2.4,12.9,4.6,26,6.2,37.4h.5c1.6-11.8,4.3-24.1,7.3-37.6L454.8,4.8h18.5l9.8,48c2.5,12.5,4.7,24.3,6.3,36.8h.3c1.7-12.6,3.9-24.6,6.5-37.4L506,4.9h18.8l-26,106.3H479L468.9,63.4a319.1,319.1,0,0,1-5.7-34.1h-.3a323.024,323.024,0,0,1-6.8,34.2l-11.2,47.6H425.4Z" fill="#333441"/><path d="M590.4,93.1a120.292,120.292,0,0,0,1.1,18.1H574.8l-1.3-8.4h-.3c-4.4,6-11.8,9.9-20.8,9.9-14.2,0-22.7-10.6-22.7-22.9,0-19.4,17-28.7,42.1-28.7V59.7c0-6-2.4-13.6-14.4-13.6a35.781,35.781,0,0,0-18.8,5.4L535,39.2c5.2-3.2,14.5-6.5,25.9-6.5,23,0,29.5,15,29.5,31.7ZM572.3,73.4C560.8,73.2,548,75.9,548,88c0,7.9,4.9,11.2,10.3,11.2a14.13,14.13,0,0,0,13.6-10.1,18.406,18.406,0,0,0,.5-4.1V73.4Z" fill="#333441"/><path d="M613.5,0h18.6V111.2H613.5Z" fill="#333441"/><path d="M655.8,0h18.6V111.2H655.8Z" fill="#333441"/><path d="M700.8,36.6a70.993,70.993,0,0,1,13.1-1.1c6.6,0,11.5,1.3,14.7,4.2a15.025,15.025,0,0,1,4.9,11.5c0,5-1.5,9-4.3,11.8-3.6,3.8-9.3,5.6-15.4,5.6a24.146,24.146,0,0,1-4-.3V88.2h-9.1V36.6Zm9.1,24.5a20.568,20.568,0,0,0,3.9.3c6.7,0,10.6-3.6,10.6-9.8,0-5.5-3.4-8.9-9.8-8.9a16.49,16.49,0,0,0-4.7.5Z" fill="#333441"/><path d="M743,36.6a68.913,68.913,0,0,1,13.1-1.1c6.9,0,11.9,1.2,15.2,4.1,2.9,2.5,4.3,6,4.3,10.5a13.613,13.613,0,0,1-9.1,13.1v.2c3.7,1.4,5.8,4.9,7,10.3,1.5,6.5,2.9,12.4,3.8,14.3h-9.4c-.8-1.5-1.9-6-3.3-12.5-1.4-6.7-3.7-9-8.8-9.1h-3.9V87.9H743Zm9.1,23.3h4.6c6,0,9.8-3.6,9.8-8.8,0-5.6-3.4-8.5-9.4-8.5a16.989,16.989,0,0,0-5,.5V59.9Z" fill="#333441"/><path d="M805,88.9c-13.5,0-21.5-11.2-21.5-26.7,0-15.9,8.8-27.1,22.3-27.1,13.9,0,21.5,11.6,21.5,26.3,0,18.2-9.4,27.5-22.3,27.5Zm.5-7.5c8.1,0,12.2-8.8,12.2-19.6,0-9.7-3.9-19.1-12.2-19.1-8.4,0-12.4,9.2-12.4,19.4-.1,10.3,4.2,19.3,12.4,19.3Z" fill="#333441"/><path d="M832.5,23.7H828V21h12.2v2.7h-4.5V38.8h-3.1V23.7Z" fill="#333441"/><path d="M856.7,31.6c-.1-2.2-.2-4.9-.2-7.2h-.1c-.5,2.1-1.2,4.4-1.8,6.6l-2.4,7.6h-2.3l-2.2-7.4c-.6-2.2-1.2-4.5-1.6-6.7H846c-.1,2.3-.2,4.9-.3,7.3l-.4,7.1h-2.9l1.2-17.8h3.9l2.1,7.2c.6,2.2,1.1,4.2,1.6,6.2h.1c.4-2,1-4,1.6-6.2l2.3-7.2h3.9l1,17.8h-3Z" fill="#333441"/><rect width="128.5" height="12.9" transform="translate(699.2 98.3)" fill="#333441"/></svg>