<svg xmlns="http://www.w3.org/2000/svg" viewBox="0 0 160 44.21"><defs><style>.cls-1,.cls-3,.cls-4{fill:#fff;}.cls-2{fill:#fc3;}.cls-3,.cls-4{stroke:#fff;stroke-miterlimit:10;}.cls-3{stroke-width:0.38px;}.cls-4{stroke-width:0.51px;}</style></defs><title>009Asset 3</title><g id="Layer_2" data-name="Layer 2"><g id="Layer_1-2" data-name="Layer 1"><g id="Слой_3" data-name="Слой 3"><path class="cls-1" d="M65.64,0C65.37,0,63,0,63,1.56s2.37,1.55,2.64,1.55,2.63,0,2.63-1.55S65.9,0,65.64,0m0,2.15a2.64,2.64,0,0,1-1.92-.59,3.4,3.4,0,0,1,3.83,0,2.63,2.63,0,0,1-1.91.59"/><path class="cls-2" d="M14.87,16.44a.57.57,0,0,1,.15.42,1.27,1.27,0,0,1-.45.76,5.77,5.77,0,0,1-1.19.91,8.46,8.46,0,0,1-1.71.75,6.46,6.46,0,0,1-.76.18V7.85l.42.07a10.65,10.65,0,0,1,1.81.6,5.17,5.17,0,0,1,1.22.71c.3.25.45.45.45.61a.53.53,0,0,1-.15.39l.39.18,1.84-3.19L16.53,7l-.15.19c0,.05-.13.08-.29.08A2.35,2.35,0,0,1,15.33,7c-.37-.17-.84-.35-1.41-.55a18.08,18.08,0,0,0-2-.55c-.3-.06-.64-.11-1-.15V3.18H9.37V5.66H9.25c-.4,0-.79,0-1.17,0V3.18H6.55V5.94c-.4.1-.79.2-1.15.33A9.36,9.36,0,0,0,2.48,8,7.53,7.53,0,0,0,.64,10.38,6.65,6.65,0,0,0,0,13.26a8.22,8.22,0,0,0,.68,3.35A7.88,7.88,0,0,0,2.6,19.25a8.25,8.25,0,0,0,3,1.71c.32.11.65.2,1,.28v3.17H8.08V21.49c.42,0,.84.07,1.29.07h0v2.85h1.54V21.48a10.54,10.54,0,0,0,1.64-.28,10.51,10.51,0,0,0,2.15-.83A8.74,8.74,0,0,0,16,19.51c.31-.26.51-.39.61-.39a.57.57,0,0,1,.45.21l.38-.27-2.2-2.85ZM4.67,17.9A6,6,0,0,1,3.05,16a5,5,0,0,1-.61-2.45A5.63,5.63,0,0,1,3,10.89,5.57,5.57,0,0,1,4.56,9.07a6.34,6.34,0,0,1,2-1V19A6.93,6.93,0,0,1,4.67,17.9m3.41,1.54V7.74a8.74,8.74,0,0,1,1-.07l.27,0V19.58a8.08,8.08,0,0,1-1.29-.14"/><path class="cls-2" d="M30.17,8.21a7.43,7.43,0,0,0-2.36-1.44,8.49,8.49,0,0,0-3.11-.54,8.44,8.44,0,0,0-3.1.54,7.48,7.48,0,0,0-2.37,1.44,6.25,6.25,0,0,0-1.5,2.13,6.84,6.84,0,0,0,0,5.23,6.34,6.34,0,0,0,1.5,2.13,6.72,6.72,0,0,0,2.37,1.39,9.13,9.13,0,0,0,3.1.49,9.18,9.18,0,0,0,3.11-.49,6.68,6.68,0,0,0,2.36-1.39,6.07,6.07,0,0,0,1.5-2.13,6.84,6.84,0,0,0,0-5.23,6,6,0,0,0-1.5-2.13m-.32,6.71a4.81,4.81,0,0,1-1.1,1.6A5.31,5.31,0,0,1,27,17.61a6.51,6.51,0,0,1-2.31.4,6.41,6.41,0,0,1-2.3-.4,5.11,5.11,0,0,1-1.74-1.09,4.67,4.67,0,0,1-1.1-1.6,5.09,5.09,0,0,1-.39-2,5,5,0,0,1,.39-2,4.67,4.67,0,0,1,1.1-1.6A4.78,4.78,0,0,1,22.4,8.29a6.41,6.41,0,0,1,2.3-.39A6.51,6.51,0,0,1,27,8.29a5,5,0,0,1,1.74,1.07,4.81,4.81,0,0,1,1.1,1.6,5.18,5.18,0,0,1,.38,2,5.28,5.28,0,0,1-.38,2"/><path class="cls-2" d="M34.41,6.77c.32,0,.52.05.61.16a1.12,1.12,0,0,1,.14.67V18.31A1.15,1.15,0,0,1,35,19a.84.84,0,0,1-.61.16v.36h3.33v-.36a.86.86,0,0,1-.61-.16,1.16,1.16,0,0,1-.13-.67V7.6a1.14,1.14,0,0,1,.13-.67.81.81,0,0,1,.61-.16V6.41H34.41Z"/><path class="cls-2" d="M51,6.77a.91.91,0,0,1,.64.16,1,1,0,0,1,.16.67v9.19L43.69,7.54a1.74,1.74,0,0,1-.32-.5c0-.08.05-.15.16-.2a1.81,1.81,0,0,1,.64-.07V6.41H39.83v.36a.93.93,0,0,1,.64.16,1,1,0,0,1,.16.67V18.31a.94.94,0,0,1-.16.66.93.93,0,0,1-.64.17v.36H43.1v-.36a.91.91,0,0,1-.64-.17.94.94,0,0,1-.16-.66V8.73l8.41,9.61.25.28a.34.34,0,0,1,.11.25.21.21,0,0,1-.12.21,2.32,2.32,0,0,1-.71.06v.36h4v-.36a1,1,0,0,1-.64-.16,1,1,0,0,1-.16-.67V7.6a1,1,0,0,1,.16-.67.91.91,0,0,1,.64-.16V6.41H51v.36Z"/><path class="cls-2" d="M64.08,4.68a.66.66,0,0,1,.56.19.82.82,0,0,1,.15.52v13.5a.82.82,0,0,1-.15.52.66.66,0,0,1-.56.19V20h3.11V19.6a.66.66,0,0,1-.56-.19.82.82,0,0,1-.15-.52V5.39a.82.82,0,0,1,.15-.52.66.66,0,0,1,.56-.19V4.32H64.08Z"/><path class="cls-2" d="M82.15,8.11a5.59,5.59,0,0,0-2.09-1.39,8.46,8.46,0,0,0-3-.5H69.83v.35a.81.81,0,0,1,.61.17,1.14,1.14,0,0,1,.13.67v10.7a1.14,1.14,0,0,1-.13.67.81.81,0,0,1-.61.17v.35H77a8.46,8.46,0,0,0,3-.5,5.59,5.59,0,0,0,2.09-1.39,5.34,5.34,0,0,0,1.21-2.08,8.95,8.95,0,0,0,0-5.16,5.4,5.4,0,0,0-1.21-2.06m-.65,6.54A4.07,4.07,0,0,1,79,17.25a6.3,6.3,0,0,1-2.36.39H72.41V7.88h4.26A6.3,6.3,0,0,1,79,8.27a4.07,4.07,0,0,1,2.47,2.6,6.52,6.52,0,0,1,0,3.78"/><path class="cls-2" d="M98.15,8a7.24,7.24,0,0,0-2.37-1.44,9.2,9.2,0,0,0-6.21,0A7.24,7.24,0,0,0,87.2,8a6.21,6.21,0,0,0-1.5,2.12,6.86,6.86,0,0,0,0,5.24,6.21,6.21,0,0,0,1.5,2.12,6.83,6.83,0,0,0,2.37,1.4,10.08,10.08,0,0,0,6.21,0,6.83,6.83,0,0,0,2.37-1.4,6.21,6.21,0,0,0,1.5-2.12,6.86,6.86,0,0,0,0-5.24A6.21,6.21,0,0,0,98.15,8m-.33,6.7a4.86,4.86,0,0,1-1.1,1.61A5.28,5.28,0,0,1,95,17.41a6.68,6.68,0,0,1-4.61,0,5.28,5.28,0,0,1-1.74-1.08,4.86,4.86,0,0,1-1.1-1.61,5,5,0,0,1-.39-2,5,5,0,0,1,.39-2,4.86,4.86,0,0,1,1.1-1.61,5.26,5.26,0,0,1,1.74-1.07,7.18,7.18,0,0,1,4.61,0,5.26,5.26,0,0,1,1.74,1.07,4.86,4.86,0,0,1,1.1,1.61,5,5,0,0,1,.39,2,5,5,0,0,1-.39,2"/><path class="cls-2" d="M114.73,16.74a1.17,1.17,0,0,1-.15.7.71.71,0,0,1-.59.2h-9.34V7.41a1.23,1.23,0,0,1,.13-.67.81.81,0,0,1,.61-.16V6.22h-3.33v.36c.32,0,.52,0,.61.16a1.12,1.12,0,0,1,.14.67v10.7a1.12,1.12,0,0,1-.14.67.79.79,0,0,1-.61.17v.35H114a1,1,0,0,1,.59.12.55.55,0,0,1,.15.45h.36V16.74Z"/><path class="cls-1" d="M118.38,16.87a1.56,1.56,0,0,1,1.13.44,1.48,1.48,0,0,1,.46,1.08,1.41,1.41,0,0,1-.47,1.06,1.63,1.63,0,0,1-2.25,0,1.44,1.44,0,0,1-.46-1.08,1.42,1.42,0,0,1,.46-1.06A1.59,1.59,0,0,1,118.38,16.87Z"/><path class="cls-2" d="M130.78,15.87l1.45,2.51-.2.18a.58.58,0,0,0-.32-.18,1.9,1.9,0,0,0-.68.38A9.06,9.06,0,0,1,129,19.89a6.26,6.26,0,0,1-2.07.31A5.18,5.18,0,0,1,121.74,17a6.88,6.88,0,0,1-.53-2.7,6.44,6.44,0,0,1,1-3.54,5.2,5.2,0,0,1,4.7-2.41,6.35,6.35,0,0,1,2.08.32A8.67,8.67,0,0,1,131,9.76a1.9,1.9,0,0,0,.68.38A.58.58,0,0,0,132,10l.2.19-1.45,2.49-.18-.16c0-.08,0-.13,0-.15a.78.78,0,0,0,0-.13c0-.34-.38-.71-1.15-1.13a4.57,4.57,0,0,0-2.21-.6,3.52,3.52,0,0,0-2.56,1,3.71,3.71,0,0,0-1.16,2.81,3.72,3.72,0,0,0,1.16,2.82,3.57,3.57,0,0,0,2.56,1,4.59,4.59,0,0,0,2.42-.73c.63-.38.94-.71.94-1,0,0,0-.11,0-.29Z"/><path class="cls-2" d="M139.32,8.31a6.2,6.2,0,0,1,4.12,1.39,5.77,5.77,0,0,1,2,4.65,5.56,5.56,0,0,1-2,4.47,6.8,6.8,0,0,1-8.21,0,5.64,5.64,0,0,1-2-4.56,5.59,5.59,0,0,1,2-4.56A6.38,6.38,0,0,1,139.32,8.31Zm0,2.16a3.38,3.38,0,0,0-2.62,1.13,3.89,3.89,0,0,0-.93,2.66,3.88,3.88,0,0,0,.93,2.65,3.58,3.58,0,0,0,5.24,0,3.79,3.79,0,0,0,.93-2.6A3.9,3.9,0,0,0,142,11.6,3.49,3.49,0,0,0,139.33,10.47Z"/><path class="cls-2" d="M152.93,20l-3.78-7.5v6.45a.79.79,0,0,0,.13.49,1,1,0,0,0,.46.28V20H146.3v-.28a.88.88,0,0,0,.46-.27.77.77,0,0,0,.13-.49V9.6a.79.79,0,0,0-.13-.49.9.9,0,0,0-.46-.27V8.56h4.38v.28a.59.59,0,0,0-.44.58,2.31,2.31,0,0,0,.32,1l2.58,5.16,2.6-5.09a2.83,2.83,0,0,0,.45-1.14.52.52,0,0,0-.46-.53V8.56H160v.28a.9.9,0,0,0-.46.27.79.79,0,0,0-.13.49v9.31a.77.77,0,0,0,.13.49.85.85,0,0,0,.46.28V20h-3.66v-.28a.85.85,0,0,0,.45-.27.79.79,0,0,0,.14-.49V12.46Z"/><path class="cls-3" d="M36.55,29.26a2.22,2.22,0,0,1,1.65,2.29A2.56,2.56,0,0,1,37.76,33a2.41,2.41,0,0,1-1.18.9,6.87,6.87,0,0,1-2.12.26H28.93V34a.6.6,0,0,0,.36-.18.71.71,0,0,0,.09-.41V25.52a.71.71,0,0,0-.09-.41.6.6,0,0,0-.36-.18V24.7h5.66a6.6,6.6,0,0,1,1.38.13,2.81,2.81,0,0,1,1,.44,2.29,2.29,0,0,1,1,2A2.12,2.12,0,0,1,36.55,29.26Zm-6.08-.47h3.65a11.44,11.44,0,0,0,1.17,0,3.88,3.88,0,0,0,.71-.18,1.33,1.33,0,0,0,.62-.52,1.44,1.44,0,0,0,.23-.8,1.53,1.53,0,0,0-.4-1.05,1.74,1.74,0,0,0-.83-.47,7.45,7.45,0,0,0-1.57-.12H30.47v3.18Zm0,4.49h3.81a9.22,9.22,0,0,0,1.21-.05,2.52,2.52,0,0,0,.74-.2,1.49,1.49,0,0,0,.65-.59,1.77,1.77,0,0,0,.23-.9,1.75,1.75,0,0,0-.41-1.16,1.79,1.79,0,0,0-.87-.54,7,7,0,0,0-1.62-.14H30.47v3.58Z"/><path class="cls-3" d="M41.54,33.28H47.6a.75.75,0,0,0,.42-.09.6.6,0,0,0,.18-.35h.22v1.79H48.2a.6.6,0,0,0-.18-.35.75.75,0,0,0-.42-.09H40V34a.6.6,0,0,0,.36-.18.82.82,0,0,0,.08-.41V25.52a.71.71,0,0,0-.09-.41.6.6,0,0,0-.35-.18V24.7h2v.23a.6.6,0,0,0-.36.18.71.71,0,0,0-.09.41v7.76Z"/><path class="cls-3" d="M54.65,24.54a6,6,0,0,1,4.05,1.31A4.67,4.67,0,0,1,60,27.63a4.86,4.86,0,0,1,.35,1.87A4.51,4.51,0,0,1,59.57,32a4.71,4.71,0,0,1-2.35,1.88,7,7,0,0,1-2.55.43,5.91,5.91,0,0,1-4-1.31,4.84,4.84,0,0,1-1.3-1.79A4.78,4.78,0,0,1,49,29.44a4.7,4.7,0,0,1,.76-2.6A4.82,4.82,0,0,1,52.13,25,7.06,7.06,0,0,1,54.65,24.54Zm0,.95a4.68,4.68,0,0,0-3.37,1.19,3.67,3.67,0,0,0-1.14,2.76,3.7,3.7,0,0,0,1.14,2.77,5.44,5.44,0,0,0,6.79,0,3.63,3.63,0,0,0,1.14-2.71,3.69,3.69,0,0,0-1.14-2.82,3.94,3.94,0,0,0-1.46-.89A5.89,5.89,0,0,0,54.65,25.49Z"/><path class="cls-3" d="M72.19,25.52l-1,1.72L71,27.13A1.29,1.29,0,0,0,71,26.8c0-.19-.3-.43-.89-.71a6,6,0,0,0-2.67-.6,4.57,4.57,0,0,0-3.15,1.07A3.63,3.63,0,0,0,63.1,29.4a3.69,3.69,0,0,0,1.27,2.88,4.39,4.39,0,0,0,3,1.12,5,5,0,0,0,3.13-1c.41-.31.61-.53.61-.66a.8.8,0,0,0-.12-.32l.17-.13,1.24,1.5-.18.14a.53.53,0,0,0-.32-.18s-.13.05-.26.15a11.22,11.22,0,0,1-1.06.72,5.13,5.13,0,0,1-.92.41,7.17,7.17,0,0,1-2.28.35A5.64,5.64,0,0,1,63.53,33,4.54,4.54,0,0,1,62,29.46a4.67,4.67,0,0,1,1-3,5.51,5.51,0,0,1,4.62-2,8,8,0,0,1,3.94,1.07.42.42,0,0,0,.18.07c.06,0,.17-.09.32-.26Z"/><path class="cls-3" d="M75.53,30.55v2.82a.67.67,0,0,0,.09.4A.61.61,0,0,0,76,34v.23H74V34a.6.6,0,0,0,.35-.18.71.71,0,0,0,.09-.41V25.52a.71.71,0,0,0-.09-.41.6.6,0,0,0-.35-.18V24.7h2v.23a.6.6,0,0,0-.36.18.71.71,0,0,0-.09.41v3.94l5.12-4c.18-.14.27-.25.27-.34s-.09-.17-.26-.19V24.7h2.5v.23a1.42,1.42,0,0,0-.82.34l-3.85,3,4.24,5.37a.84.84,0,0,0,.29.26.8.8,0,0,0,.4.08v.23H81.11V34c.19,0,.29-.11.29-.2a1.73,1.73,0,0,0-.3-.48l-3.44-4.39Z"/><path class="cls-3" d="M93.94,25.52l-1,1.72-.19-.11a1.29,1.29,0,0,0,.06-.33c0-.19-.29-.43-.88-.71a6,6,0,0,0-2.67-.6,4.62,4.62,0,0,0-3.16,1.07,3.63,3.63,0,0,0-1.23,2.84,3.7,3.7,0,0,0,1.28,2.88,4.37,4.37,0,0,0,3,1.12,5,5,0,0,0,3.13-1c.41-.31.61-.53.61-.66a.8.8,0,0,0-.12-.32l.17-.13,1.23,1.5L94,32.9a.53.53,0,0,0-.32-.18.55.55,0,0,0-.26.15,11.22,11.22,0,0,1-1.06.72,5.13,5.13,0,0,1-.92.41,7.17,7.17,0,0,1-2.28.35A5.64,5.64,0,0,1,85.28,33a4.55,4.55,0,0,1-1.58-3.56,4.62,4.62,0,0,1,1-3,5.51,5.51,0,0,1,4.62-2,8,8,0,0,1,3.94,1.07.39.39,0,0,0,.17.07c.06,0,.17-.09.33-.26Z"/><path class="cls-3" d="M103.78,29.76h-6.5v3.61a.71.71,0,0,0,.09.41.54.54,0,0,0,.35.18v.23h-2V34a.57.57,0,0,0,.36-.18.71.71,0,0,0,.09-.41V25.52a.71.71,0,0,0-.09-.41.6.6,0,0,0-.36-.18V24.7h2v.23a.6.6,0,0,0-.35.18.71.71,0,0,0-.09.41v3.34h6.5V25.52a.71.71,0,0,0-.09-.41.6.6,0,0,0-.36-.18V24.7h2v.23a.6.6,0,0,0-.35.18.71.71,0,0,0-.09.41v7.85a.67.67,0,0,0,.09.4.61.61,0,0,0,.35.19v.23h-2V34a.6.6,0,0,0,.36-.18.71.71,0,0,0,.09-.41V29.76Z"/><path class="cls-3" d="M114.12,31.53h-5.07l-.83,1.8a1,1,0,0,0-.12.36c0,.14.14.23.41.27v.23H106.4V34a.75.75,0,0,0,.43-.2,2.94,2.94,0,0,0,.39-.7l3.48-7.5a1.18,1.18,0,0,0,.12-.36c0-.12-.11-.21-.34-.28V24.7h2.31v.22c-.23.08-.34.18-.34.3a1.22,1.22,0,0,0,.12.34l3.33,7.23a6.35,6.35,0,0,0,.49.94,1,1,0,0,0,.51.23v.23h-2.25V34c.27,0,.4-.13.4-.3a1.26,1.26,0,0,0-.15-.43Zm-.4-.91-2.13-4.68-2.13,4.68Z"/><path class="cls-3" d="M118.33,33.37V25.52a.71.71,0,0,0-.09-.41.6.6,0,0,0-.35-.18V24.7h2v.23a.6.6,0,0,0-.36.18.71.71,0,0,0-.09.41v7.85a.71.71,0,0,0,.09.41.6.6,0,0,0,.36.18v.23h-2V34a.6.6,0,0,0,.36-.18A.82.82,0,0,0,118.33,33.37Z"/><path class="cls-3" d="M123.4,25.9v7.47a.67.67,0,0,0,.09.4.61.61,0,0,0,.35.19v.23H122V34a.6.6,0,0,0,.36-.18.82.82,0,0,0,.08-.41V25.52a.71.71,0,0,0-.09-.41.57.57,0,0,0-.35-.18V24.7h2.72v.23c-.21.07-.32.17-.32.31s.11.26.32.52l5.72,6.68V25.52a.71.71,0,0,0-.09-.41.6.6,0,0,0-.35-.18V24.7h1.88v.23a.6.6,0,0,0-.36.18.71.71,0,0,0-.09.41v7.85a.71.71,0,0,0,.09.41.6.6,0,0,0,.36.18v.23h-2.19V34c.21-.05.32-.15.32-.28a1.06,1.06,0,0,0-.29-.5Z"/><path class="cls-4" d="M46.2,38.2v4.92a.33.33,0,0,0,.3.4v.14H45.25v-.14a.39.39,0,0,0,.24-.13.45.45,0,0,0,.06-.27V37.94a.47.47,0,0,0-.06-.27.44.44,0,0,0-.24-.12V37.4h1.8v.15q-.21.08-.21.21c0,.06.07.17.21.34l3.78,4.41V37.94a.47.47,0,0,0-.06-.27.44.44,0,0,0-.24-.12V37.4h1.25v.15a.44.44,0,0,0-.24.12.47.47,0,0,0-.06.27v5.18a.45.45,0,0,0,.06.27.39.39,0,0,0,.24.13v.14H50.33v-.14c.14,0,.21-.1.21-.19a.63.63,0,0,0-.19-.33Z"/><path class="cls-4" d="M54.17,40.74v2.33h4a.45.45,0,0,0,.27-.06.39.39,0,0,0,.13-.24h.14V44h-.14a.52.52,0,0,0-.13-.24.47.47,0,0,0-.27-.06h-5v-.14a.39.39,0,0,0,.24-.13.45.45,0,0,0,.06-.27V37.94a.49.49,0,0,0-.06-.27.44.44,0,0,0-.24-.12V37.4h5a.45.45,0,0,0,.27-.06.41.41,0,0,0,.13-.23h.14v1.18h-.14a.39.39,0,0,0-.13-.23.45.45,0,0,0-.27-.06H54.17v2.15h2.59a.45.45,0,0,0,.27-.06.34.34,0,0,0,.12-.24h.15V41h-.15A.34.34,0,0,0,57,40.8a.45.45,0,0,0-.27-.06Z"/><path class="cls-4" d="M64.23,38.34l-1.59,4.58a1.42,1.42,0,0,0-.09.37c0,.1.09.18.26.23v.14H61.29v-.14c.18,0,.26-.11.26-.23a1.27,1.27,0,0,0-.1-.37l-1.67-4.61a3.05,3.05,0,0,0-.27-.6.51.51,0,0,0-.32-.16V37.4h1.48v.15c-.19,0-.28.1-.28.23a2.26,2.26,0,0,0,.12.43l1.56,4.42,1.55-4.42a2.47,2.47,0,0,0,.13-.45c0-.11-.08-.18-.26-.21V37.4h1.6v.15c-.17,0-.26.12-.26.23a2.26,2.26,0,0,0,.12.43l1.52,4.42L68,38.21a1.55,1.55,0,0,0,.11-.44c0-.11-.08-.19-.25-.22V37.4h1.38v.15a.53.53,0,0,0-.33.18,2.47,2.47,0,0,0-.25.58L67,42.92a1.33,1.33,0,0,0-.09.35c0,.12.08.2.26.25v.14H65.7v-.14c.17,0,.26-.13.26-.25a1.47,1.47,0,0,0-.09-.32Z"/><path class="cls-4" d="M75.56,37.79,74.91,39l-.13-.07a1.1,1.1,0,0,0,.07-.26q0-.13-.33-.3a4.71,4.71,0,0,0-2-.43,3.29,3.29,0,0,0-1.48.32,1.35,1.35,0,0,0-.48.4.92.92,0,0,0-.17.52.69.69,0,0,0,.14.43.83.83,0,0,0,.36.31,1.89,1.89,0,0,0,.58.16c.23,0,.59,0,1.1.06.71,0,1.21.06,1.51.1a2.37,2.37,0,0,1,.75.23,1.43,1.43,0,0,1,.78,1.33,1.69,1.69,0,0,1-.71,1.39,3.47,3.47,0,0,1-2.16.6,5.13,5.13,0,0,1-1.38-.16A6.64,6.64,0,0,1,70,43a1,1,0,0,0-.27-.1s-.11,0-.21.16L69.37,43l.69-1.15.13.08a.72.72,0,0,0-.09.24c0,.1.2.25.59.46a4.62,4.62,0,0,0,1,.39,4,4,0,0,0,1.06.13,2.66,2.66,0,0,0,1.76-.51,1,1,0,0,0,.4-.81.87.87,0,0,0-.69-.85,2.11,2.11,0,0,0-.45-.1l-1.34-.06a8.21,8.21,0,0,1-1.24-.12,2.8,2.8,0,0,1-.8-.28,1.49,1.49,0,0,1-.51-.52,1.39,1.39,0,0,1-.19-.72A1.53,1.53,0,0,1,70.2,38a2.73,2.73,0,0,1,1-.55,5.18,5.18,0,0,1,2.58-.07,6,6,0,0,1,1.22.43l.19.06c.05,0,.13-.06.22-.18Z"/><path class="cls-4" d="M82.64,37.29a4,4,0,0,1,2.67.87,3,3,0,0,1,.85,1.18,3.14,3.14,0,0,1,.24,1.23,3,3,0,0,1-.51,1.68,3.2,3.2,0,0,1-1.56,1.24,4.66,4.66,0,0,1-1.68.28A3.92,3.92,0,0,1,80,42.91a3.22,3.22,0,0,1-.85-1.18,3.12,3.12,0,0,1,.27-2.91A3.16,3.16,0,0,1,81,37.58,4.89,4.89,0,0,1,82.64,37.29Zm0,.63a3.07,3.07,0,0,0-2.23.79,2.6,2.6,0,0,0,0,3.65,3.11,3.11,0,0,0,2.24.79,3.15,3.15,0,0,0,2.25-.79,2.43,2.43,0,0,0,.74-1.79,2.46,2.46,0,0,0-.74-1.86,2.62,2.62,0,0,0-1-.59A4,4,0,0,0,82.64,37.92Z"/><path class="cls-4" d="M88.51,37.94v3.47a4.14,4.14,0,0,0,.06.86.86.86,0,0,0,.27.44,2.8,2.8,0,0,0,1.83.44,2.58,2.58,0,0,0,1.91-.52.91.91,0,0,0,.2-.42,4.8,4.8,0,0,0,0-.8V37.94a.43.43,0,0,0-.06-.26.39.39,0,0,0-.23-.13V37.4h1.24v.15a.41.41,0,0,0-.23.12.47.47,0,0,0-.06.27v3.61a3.21,3.21,0,0,1-.13,1,1.63,1.63,0,0,1-.9.92,4.52,4.52,0,0,1-1.82.29,3.28,3.28,0,0,1-2.39-.67,1.56,1.56,0,0,1-.36-.62,3.28,3.28,0,0,1-.11-.93V37.94a.48.48,0,0,0,0-.27.44.44,0,0,0-.24-.12V37.4H88.8v.15a.39.39,0,0,0-.24.13A.54.54,0,0,0,88.51,37.94Z"/><path class="cls-4" d="M97.82,38v5.12a.45.45,0,0,0,.06.27.41.41,0,0,0,.23.13v.14H96.8v-.14a.39.39,0,0,0,.24-.13.45.45,0,0,0,.06-.27V38H95a.51.51,0,0,0-.28.06.41.41,0,0,0-.12.23h-.14V37.11h.14a.37.37,0,0,0,.12.23.51.51,0,0,0,.28.06h5a.47.47,0,0,0,.27-.06.41.41,0,0,0,.12-.23h.15v1.18h-.15a.41.41,0,0,0-.12-.23.47.47,0,0,0-.27-.06Z"/><path class="cls-4" d="M102.28,43.07h4a.49.49,0,0,0,.27-.06.44.44,0,0,0,.12-.24h.15V44h-.15a.44.44,0,0,0-.12-.24.49.49,0,0,0-.27-.06h-5v-.14a.39.39,0,0,0,.24-.13.45.45,0,0,0,.06-.27V37.94a.49.49,0,0,0-.06-.27.44.44,0,0,0-.24-.12V37.4h1.31v.15a.44.44,0,0,0-.24.12.62.62,0,0,0,0,.27v5.13Z"/><path class="cls-4" d="M108.65,40.74v2.33h4a.45.45,0,0,0,.27-.06.34.34,0,0,0,.12-.24h.15V44h-.15a.44.44,0,0,0-.12-.24.47.47,0,0,0-.27-.06h-5v-.14a.39.39,0,0,0,.24-.13.45.45,0,0,0,.06-.27V37.94a.49.49,0,0,0-.06-.27.44.44,0,0,0-.24-.12V37.4h5a.45.45,0,0,0,.27-.06.48.48,0,0,0,.13-.23h.14v1.18H113a.39.39,0,0,0-.13-.23.45.45,0,0,0-.27-.06h-3.95v2.15h2.59a.45.45,0,0,0,.27-.06.39.39,0,0,0,.12-.24h.15V41h-.15a.39.39,0,0,0-.12-.24.45.45,0,0,0-.27-.06Z"/><path class="cls-4" d="M117.18,38v5.12a.33.33,0,0,0,.29.4v.14h-1.31v-.14a.39.39,0,0,0,.24-.13.45.45,0,0,0,.06-.27V38h-2.12a.45.45,0,0,0-.27.06.36.36,0,0,0-.13.23h-.14V37.11h.14c0,.12.07.2.13.23a.45.45,0,0,0,.27.06h5a.45.45,0,0,0,.27-.06.41.41,0,0,0,.12-.23h.15v1.18h-.15a.41.41,0,0,0-.12-.23.45.45,0,0,0-.27-.06Z"/><rect class="cls-1" x="10.41" y="29.53" width="15.47" height="1.11"/><rect class="cls-1" x="134.47" y="29.53" width="15.47" height="1.11"/></g></g></g></svg>