<svg xmlns="http://www.w3.org/2000/svg" xmlns:xlink="http://www.w3.org/1999/xlink" width="245.722" height="280.076" viewBox="0 0 245.722 280.076"><defs><linearGradient id="a" x1="0.5" x2="0.5" y2="1" gradientUnits="objectBoundingBox"><stop offset="0" stop-color="#e4b940"/><stop offset="1" stop-color="#8e6f16"/></linearGradient><filter id="b" x="2.848" y="2.848" width="240.026" height="240.026" filterUnits="userSpaceOnUse"><feOffset dy="10" input="SourceAlpha"/><feGaussianBlur stdDeviation="10" result="c"/><feFlood flood-opacity="0.4"/><feComposite operator="in" in2="c"/><feComposite in="SourceGraphic"/></filter><linearGradient id="d" x1="0.146" y1="0.146" x2="0.952" y2="0.974" gradientUnits="objectBoundingBox"><stop offset="0" stop-color="#565a6f"/><stop offset="1" stop-color="#3e4257"/></linearGradient><filter id="e" x="35.996" y="7.713" width="173.731" height="272.362" filterUnits="userSpaceOnUse"><feOffset dy="10" input="SourceAlpha"/><feGaussianBlur stdDeviation="15" result="f"/><feFlood flood-opacity="0.302"/><feComposite operator="in" in2="f"/><feComposite in="SourceGraphic"/></filter><filter id="h" x="59.676" y="87.886" width="126.372" height="168.51" filterUnits="userSpaceOnUse"><feOffset dy="10" input="SourceAlpha"/><feGaussianBlur stdDeviation="10" result="i"/><feFlood flood-opacity="0.4"/><feComposite operator="in" in2="i"/><feComposite in="SourceGraphic"/></filter><filter id="k" x="0" y="0" width="245.722" height="245.722" filterUnits="userSpaceOnUse"><feOffset dy="10" input="SourceAlpha"/><feGaussianBlur stdDeviation="15" result="l"/><feFlood flood-opacity="0.302"/><feComposite operator="in" in2="l"/><feComposite in="SourceGraphic"/></filter><filter id="n" x="61.082" y="158.547" width="123.938" height="106.401" filterUnits="userSpaceOnUse"><feOffset dy="10" input="SourceAlpha"/><feGaussianBlur stdDeviation="15" result="o"/><feFlood flood-opacity="0.302"/><feComposite operator="in" in2="o"/><feComposite in="SourceGraphic"/></filter><filter id="q" x="37.376" y="37.376" width="170.971" height="170.971" filterUnits="userSpaceOnUse"><feOffset dy="10" input="SourceAlpha"/><feGaussianBlur stdDeviation="10" result="r"/><feFlood flood-opacity="0.4"/><feComposite operator="in" in2="r"/><feComposite in="SourceGraphic"/></filter></defs><g transform="translate(5.956 -159.544)"><g transform="translate(26.892 182.392)"><g transform="translate(0 0)"><g transform="matrix(1, 0, 0, 1, -32.85, -22.85)" filter="url(#b)"><g transform="translate(32.85 112.86) rotate(-45)" stroke="#e4b940" stroke-width="2" fill="url(#a)"><rect width="127.298" height="127.298" rx="10" stroke="none"/><rect x="1" y="1" width="125.298" height="125.298" rx="9" fill="none"/></g></g></g></g><g transform="matrix(1, 0, 0, 1, -5.96, 159.54)" filter="url(#e)"><path d="M139.6,334.94V211.265a16.323,16.323,0,0,0-16.324-16.322H73.2a16.323,16.323,0,0,0-16.324,16.322V334.94a41.366,41.366,0,0,0,41.366,41.366h0A41.366,41.366,0,0,0,139.6,334.94Z" transform="translate(24.62 -151.73)" stroke="#e4b940" stroke-width="1" fill="url(#d)"/></g><g transform="matrix(1, 0, 0, 1, -5.96, 159.54)" filter="url(#h)"><g transform="translate(27.76 -126.91)" fill="url(#a)"><path d="M 95.09986114501953 342.3096008300781 C 77.35251617431641 342.3096008300781 62.91400527954102 327.87109375 62.91400527954102 310.1237487792969 L 62.91400527954102 235.7999877929688 L 127.2857513427734 235.7999877929688 L 127.2857513427734 310.1237487792969 C 127.2857513427734 327.87109375 112.8472213745117 342.3096008300781 95.09986114501953 342.3096008300781 Z" stroke="none"/><path d="M 63.91400146484375 236.7999877929688 L 63.91400146484375 310.1237487792969 C 63.91400146484375 327.3197021484375 77.90392303466797 341.3096008300781 95.09986114501953 341.3096008300781 C 112.2958145141602 341.3096008300781 126.2857513427734 327.3197021484375 126.2857513427734 310.1237487792969 L 126.2857513427734 236.7999877929688 L 63.91400146484375 236.7999877929688 M 61.91400146484375 234.7999877929688 L 128.2857513427734 234.7999877929688 L 128.2857513427734 310.1237487792969 C 128.2857513427734 328.4219970703125 113.3981857299805 343.3096008300781 95.09986114501953 343.3096008300781 C 76.80153656005859 343.3096008300781 61.91400146484375 328.4219970703125 61.91400146484375 310.1237487792969 L 61.91400146484375 234.7999877929688 Z" stroke="none" fill="#e4b940"/></g></g><g transform="matrix(1, 0, 0, 1, -5.96, 159.54)" filter="url(#k)"><rect width="109.112" height="109.112" rx="4.102" transform="translate(122.86 35.71) rotate(45)" stroke="#e4b940" stroke-width="1" fill="url(#d)"/></g><g transform="translate(101.333 353.591)"><g transform="matrix(1, 0, 0, 1, -107.29, -194.05)" filter="url(#n)"><path d="M94.142,287.9l-5.611,5.613L82.918,287.9H72.769l15.142,15.144a.875.875,0,0,0,1.238,0L104.293,287.9Z" transform="translate(34.52 -93.85)" stroke="#e4b940" stroke-width="1" fill="url(#d)"/></g></g><g transform="matrix(1, 0, 0, 1, -5.96, 159.54)" filter="url(#q)"><g transform="translate(67.38 112.86) rotate(-45)" stroke="#e4b940" stroke-width="2" fill="url(#a)"><rect width="78.468" height="78.468" rx="7.191" stroke="none"/><rect x="1" y="1" width="76.468" height="76.468" rx="6.191" fill="none"/></g></g><g transform="translate(94.804 245.163)"><path d="M211.268,137.678a1.607,1.607,0,1,1-1.607-1.607A1.607,1.607,0,0,1,211.268,137.678Z" transform="translate(-187.06 -122.401)" fill="#fff"/><path d="M169.67,5.634a4.018,4.018,0,0,1,7.955-.8h1.632a5.625,5.625,0,0,0-11.194.8V8.045h1.607Z" transform="translate(-151.087 0)" fill="#fff"/><path d="M64.928,110.544a2.411,2.411,0,0,1-2.411-2.411V100.9H56.893a.8.8,0,0,0-.8.8v21.7h33.75V101.7a.8.8,0,0,0-.8-.8H83.41v1.607H81.8V96.884a.8.8,0,0,0-.8-.8H64.928a.8.8,0,0,0-.8.8v11.25a.8.8,0,0,0,.8.8h8.036v1.607Zm22.265-3.45-5.625,5.625a.8.8,0,0,1-1.136,0l-2.411-2.411,1.136-1.136L81,111.015l5.057-5.057ZM81,104.116a6.385,6.385,0,0,1,3.674,1.153l-.919,1.318a4.822,4.822,0,1,0,2.067,3.958,5.016,5.016,0,0,0-.049-.69l1.591-.227A6.428,6.428,0,1,1,81,104.116Zm-5.625,12.054v1.607H73.768v-1.607Zm-3.214-9.643v-1.721a3.214,3.214,0,1,1,1.607,0v1.721Zm1.607,6.429v1.607H64.125a2.411,2.411,0,1,0,0,4.821H81.8a2.411,2.411,0,0,0,2.335-1.807l1.556.4a4.018,4.018,0,0,1-3.891,3.013H64.125a4.018,4.018,0,0,1,0-8.036Zm-1.607,3.214v1.607H70.553v-1.607Zm-3.214,0v1.607H67.339v-1.607Zm-3.214,0v1.607H64.125v-1.607Z" transform="translate(-50.363 -86.428)" fill="#fff"/><path d="M30.166,416.008l-1.372,1.372a.8.8,0,0,1-.568.235H16.976a.8.8,0,0,1-.568-.235l-1.372-1.372H.1v1.607a1.607,1.607,0,0,0,1.607,1.607H43.494a1.607,1.607,0,0,0,1.607-1.607v-1.607Z" transform="translate(0 -374.213)" fill="#fff"/><path d="M37.521,141.24l1.372,1.372H49.478l1.372-1.372a.8.8,0,0,1,.568-.235H64.275V115.29a3.214,3.214,0,0,0-3.214-3.214H54.632v1.607h5.625a2.411,2.411,0,0,1,2.411,2.411v22.5a.8.8,0,0,1-.8.8H26.507a.8.8,0,0,1-.8-.8v-22.5a2.411,2.411,0,0,1,2.411-2.411h5.625v-1.607H27.31A3.214,3.214,0,0,0,24.1,115.29V141H36.953A.8.8,0,0,1,37.521,141.24Z" transform="translate(-21.584 -100.817)" fill="#fff"/></g></g></svg>