<svg xmlns="http://www.w3.org/2000/svg" xmlns:xlink="http://www.w3.org/1999/xlink" width="440" height="458.331" viewBox="0 0 440 458.331"><defs><filter id="a" x="0" y="0" width="440" height="458.331" filterUnits="userSpaceOnUse"><feOffset dy="10" input="SourceAlpha"/><feGaussianBlur stdDeviation="15" result="b"/><feFlood flood-opacity="0.302"/><feComposite operator="in" in2="b"/><feComposite in="SourceGraphic"/></filter><linearGradient id="c" x1="0.146" y1="0.854" x2="0.952" y2="0.026" gradientUnits="objectBoundingBox"><stop offset="0" stop-color="#565a6f"/><stop offset="1" stop-color="#3e4257"/></linearGradient><filter id="d" x="6.839" y="8.559" width="425.658" height="447.271" filterUnits="userSpaceOnUse"><feOffset dy="10" input="SourceAlpha"/><feGaussianBlur stdDeviation="15" result="e"/><feFlood flood-opacity="0.302"/><feComposite operator="in" in2="e"/><feComposite in="SourceGraphic"/></filter></defs><g transform="translate(-588.461 -3216.576)"><g transform="matrix(1, 0, 0, 1, 588.46, 3216.58)" filter="url(#a)"><path d="M66.015,208.188l52.951-55.405S65.787,66.024,73.952,66.444c13.45.692,190.216-1.551,190.216-1.551l-29.489,87.934,53.069,55.5S342.712-81.052,349.541-114.59,346.6-160,323.3-160H30.318c-23.3,0-33.74,10.632-26.244,45.41S66.015,208.188,66.015,208.188Z" transform="translate(396.68 243.33) rotate(180)" fill="#b58a11"/></g><g transform="matrix(1, 0, 0, 1, 588.46, 3216.58)" filter="url(#d)"><path d="M15771.229-9875.53h-276.183a52.23,52.23,0,0,1-14.3-1.6,18.1,18.1,0,0,1-9.384-5.783c-2.5-3.063-3.911-7.182-4.308-12.592-.405-5.533.249-12.4,2-21,4.616-22.675,39.5-205.045,59.877-311.735l46.931,46.931v14.161a56.909,56.909,0,0,0,4.5,22.295,57.27,57.27,0,0,0,5.281,9.729,57.578,57.578,0,0,0,7,8.478,57.514,57.514,0,0,0,8.478,7,57.29,57.29,0,0,0,9.729,5.281,56.918,56.918,0,0,0,22.3,4.5,56.909,56.909,0,0,0,22.295-4.5,57.215,57.215,0,0,0,9.729-5.281,57.514,57.514,0,0,0,8.478-7,57.514,57.514,0,0,0,7-8.478,57.141,57.141,0,0,0,5.281-9.729,56.909,56.909,0,0,0,4.5-22.295v-14.165l46.854-46.85c20.2,106.229,54.848,287.973,59.95,311.658,1.879,8.716,2.632,15.656,2.3,21.217-.32,5.387-1.661,9.473-4.1,12.492-2.2,2.725-5.329,4.609-9.568,5.765A56.233,56.233,0,0,1,15771.229-9875.53Z" transform="translate(-15413.6 10274.86)" stroke="#e4b940" stroke-width="3" fill="url(#c)"/></g></g></svg>