<svg xmlns="http://www.w3.org/2000/svg" xmlns:xlink="http://www.w3.org/1999/xlink" width="1013.318" height="532.318" viewBox="0 0 1013.318 532.318"><defs><linearGradient id="a" x1="0.146" y1="0.146" x2="0.952" y2="0.974" gradientUnits="objectBoundingBox"><stop offset="0" stop-color="#565a6f"/><stop offset="1" stop-color="#3e4257"/></linearGradient><filter id="b" x="251" y="0" width="118.318" height="118.318" filterUnits="userSpaceOnUse"><feOffset dy="10" input="SourceAlpha"/><feGaussianBlur stdDeviation="15" result="c"/><feFlood flood-opacity="0.302"/><feComposite operator="in" in2="c"/><feComposite in="SourceGraphic"/></filter><filter id="e" x="448" y="300" width="118.318" height="118.318" filterUnits="userSpaceOnUse"><feOffset dy="10" input="SourceAlpha"/><feGaussianBlur stdDeviation="15" result="f"/><feFlood flood-opacity="0.302"/><feComposite operator="in" in2="f"/><feComposite in="SourceGraphic"/></filter><filter id="h" x="636" y="0" width="118.318" height="118.318" filterUnits="userSpaceOnUse"><feOffset dy="10" input="SourceAlpha"/><feGaussianBlur stdDeviation="15" result="i"/><feFlood flood-opacity="0.302"/><feComposite operator="in" in2="i"/><feComposite in="SourceGraphic"/></filter><filter id="k" x="895" y="414" width="118.318" height="118.318" filterUnits="userSpaceOnUse"><feOffset dy="10" input="SourceAlpha"/><feGaussianBlur stdDeviation="15" result="l"/><feFlood flood-opacity="0.302"/><feComposite operator="in" in2="l"/><feComposite in="SourceGraphic"/></filter><filter id="n" x="0" y="414" width="118.318" height="118.318" filterUnits="userSpaceOnUse"><feOffset dy="10" input="SourceAlpha"/><feGaussianBlur stdDeviation="15" result="o"/><feFlood flood-opacity="0.302"/><feComposite operator="in" in2="o"/><feComposite in="SourceGraphic"/></filter></defs><g transform="translate(1190.748 1503.605) rotate(180)"><path d="M1135.266,1040.092,880.723,1462.021,689.289,1145.527l-194.2,316.493L230.939,1040.092Z" fill="none" stroke="#e4b940" stroke-linecap="round" stroke-width="2" stroke-dasharray="10 15"/><g transform="translate(864.344 -391.85) rotate(30)"><path d="M87.7,224.687l11.455,15.643L87.7,255.972l6.313.134,11.455-15.643L94.017,224.82Z" transform="translate(1186.869 1246.016) rotate(90)" fill="#e4b940"/><path d="M71.525,224.687l4.582,6.257L71.525,237.2h3.418l4.582-6.257-4.582-6.257Z" transform="translate(1177.832 1246.362) rotate(90)" fill="#e4b940"/><path d="M71.525,224.687l4.582,6.257L71.525,237.2h3.418l4.582-6.257-4.582-6.257Z" transform="translate(1177.038 1295.986) rotate(90)" fill="#e4b940"/></g><g transform="translate(1851.683 1937.701) rotate(150)"><path d="M87.7,224.687l11.455,15.643L87.7,255.972l6.313.134,11.455-15.643L94.017,224.82Z" transform="translate(1186.869 1246.016) rotate(90)" fill="#e4b940"/><path d="M71.525,224.687l4.582,6.257L71.525,237.2h3.418l4.582-6.257-4.582-6.257Z" transform="translate(1177.832 1246.362) rotate(90)" fill="#e4b940"/><path d="M71.525,224.687l4.582,6.257L71.525,237.2h3.418l4.582-6.257-4.582-6.257Z" transform="translate(1177.038 1295.986) rotate(90)" fill="#e4b940"/></g><g transform="translate(-980.035 1987.135) rotate(-90)"><path d="M87.7,224.687l11.455,15.643L87.7,255.972l6.313.134,11.455-15.643L94.017,224.82Z" transform="translate(1186.869 1246.016) rotate(90)" fill="#e4b940"/><path d="M71.525,224.687l4.582,6.257L71.525,237.2h3.418l4.582-6.257-4.582-6.257Z" transform="translate(1177.832 1246.362) rotate(90)" fill="#e4b940"/><path d="M71.525,224.687l4.582,6.257L71.525,237.2h3.418l4.582-6.257-4.582-6.257Z" transform="translate(1177.038 1295.986) rotate(90)" fill="#e4b940"/></g><g transform="translate(-331.035 1987.135) rotate(-90)"><path d="M87.7,224.687l11.455,15.643L87.7,255.972l6.313.134,11.455-15.643L94.017,224.82Z" transform="translate(1187.869 1246.016) rotate(90)" fill="#e4b940"/><path d="M71.525,224.687l4.582,6.257L71.525,237.2h3.418l4.582-6.257-4.582-6.257Z" transform="translate(1177.832 1246.362) rotate(90)" fill="#e4b940"/><path d="M71.525,224.687l4.582,6.257L71.525,237.2h3.418l4.582-6.257-4.582-6.257Z" transform="translate(1177.038 1295.986) rotate(90)" fill="#e4b940"/></g><g transform="translate(2270.683 1984.701) rotate(150)"><path d="M87.7,224.687l11.455,15.643L87.7,255.972l6.313.134,11.455-15.643L94.017,224.82Z" transform="translate(1186.869 1246.016) rotate(90)" fill="#e4b940"/><path d="M71.525,224.687l4.582,6.257L71.525,237.2h3.418l4.582-6.257-4.582-6.257Z" transform="translate(1177.832 1246.362) rotate(90)" fill="#e4b940"/><path d="M71.525,224.687l4.582,6.257L71.525,237.2h3.418l4.582-6.257-4.582-6.257Z" transform="translate(1177.038 1295.986) rotate(90)" fill="#e4b940"/></g><g transform="translate(449.344 -341.85) rotate(30)"><path d="M87.7,224.687l11.455,15.643L87.7,255.972l6.313.134,11.455-15.643L94.017,224.82Z" transform="translate(1186.869 1246.016) rotate(90)" fill="#e4b940"/><path d="M71.525,224.687l4.582,6.257L71.525,237.2h3.418l4.582-6.257-4.582-6.257Z" transform="translate(1177.832 1246.362) rotate(90)" fill="#e4b940"/><path d="M71.525,224.687l4.582,6.257L71.525,237.2h3.418l4.582-6.257-4.582-6.257Z" transform="translate(1177.038 1295.986) rotate(90)" fill="#e4b940"/></g><g transform="translate(-98 163)"><g transform="matrix(-1, 0, 0, -1, 1288.75, 1340.6)" filter="url(#b)"><path d="M164.449,232.016a13.659,13.659,0,1,1-13.658-13.658A13.659,13.659,0,0,1,164.449,232.016Z" transform="translate(159.37 -182.86)" stroke="#e4b940" stroke-width="1" fill="url(#a)"/></g><path d="M154.981,228.208a8,8,0,1,1-8-8A8,8,0,0,1,154.981,228.208Z" transform="translate(1125.639 1519.725) rotate(180)" fill="#e4b940"/></g><g transform="translate(-295 -137)"><g transform="matrix(-1, 0, 0, -1, 1485.75, 1640.6)" filter="url(#e)"><path d="M164.449,232.016a13.659,13.659,0,1,1-13.658-13.658A13.659,13.659,0,0,1,164.449,232.016Z" transform="translate(356.37 117.14)" stroke="#e4b940" stroke-width="1" fill="url(#a)"/></g><path d="M154.981,228.208a8,8,0,1,1-8-8A8,8,0,0,1,154.981,228.208Z" transform="translate(1125.639 1519.725) rotate(180)" fill="#e4b940"/></g><g transform="translate(-483 163)"><g transform="matrix(-1, 0, 0, -1, 1673.75, 1340.6)" filter="url(#h)"><path d="M164.449,232.016a13.659,13.659,0,1,1-13.658-13.658A13.659,13.659,0,0,1,164.449,232.016Z" transform="translate(544.37 -182.86)" stroke="#e4b940" stroke-width="1" fill="url(#a)"/></g><path d="M154.981,228.208a8,8,0,1,1-8-8A8,8,0,0,1,154.981,228.208Z" transform="translate(1125.639 1519.725) rotate(180)" fill="#e4b940"/></g><g transform="translate(-742 -251)"><g transform="matrix(-1, 0, 0, -1, 1932.75, 1754.6)" filter="url(#k)"><path d="M164.449,232.016a13.659,13.659,0,1,1-13.658-13.658A13.659,13.659,0,0,1,164.449,232.016Z" transform="translate(803.37 231.14)" stroke="#e4b940" stroke-width="1" fill="url(#a)"/></g><path d="M154.981,228.208a8,8,0,1,1-8-8A8,8,0,0,1,154.981,228.208Z" transform="translate(1125.639 1519.725) rotate(180)" fill="#e4b940"/></g><g transform="translate(153 -251)"><g transform="matrix(-1, 0, 0, -1, 1037.75, 1754.6)" filter="url(#n)"><path d="M164.449,232.016a13.659,13.659,0,1,1-13.658-13.658A13.659,13.659,0,0,1,164.449,232.016Z" transform="translate(-91.63 231.14)" stroke="#e4b940" stroke-width="1" fill="url(#a)"/></g><path d="M154.981,228.208a8,8,0,1,1-8-8A8,8,0,0,1,154.981,228.208Z" transform="translate(1125.639 1519.725) rotate(180)" fill="#e4b940"/></g></g></svg>