<svg xmlns="http://www.w3.org/2000/svg" xmlns:xlink="http://www.w3.org/1999/xlink" width="478.734" height="461.038" viewBox="0 0 478.734 461.038"><defs><filter id="a" x="90.633" y="52" width="378" height="331" filterUnits="userSpaceOnUse"><feOffset dy="5" input="SourceAlpha"/><feGaussianBlur stdDeviation="5" result="b"/><feFlood flood-opacity="0.294"/><feComposite operator="in" in2="b"/><feComposite in="SourceGraphic"/></filter><linearGradient id="c" x1="0.146" y1="0.146" x2="0.952" y2="0.974" gradientUnits="objectBoundingBox"><stop offset="0" stop-color="#565a6f"/><stop offset="1" stop-color="#3e4257"/></linearGradient><filter id="d" x="109.583" y="79.462" width="350.1" height="312.038" filterUnits="userSpaceOnUse"><feOffset dy="5" input="SourceAlpha"/><feGaussianBlur stdDeviation="5" result="e"/><feFlood flood-opacity="0.294"/><feComposite operator="in" in2="e"/><feComposite in="SourceGraphic"/></filter></defs><g transform="translate(-23.586 -1165.092)"><g transform="matrix(1, 0, 0, 1, 23.59, 1165.09)" filter="url(#a)"><path d="M156.685,29.953a20,20,0,0,1,34.63,0L330.652,270.991A20,20,0,0,1,313.337,301H34.663a20,20,0,0,1-17.315-30.009Z" transform="translate(105.63 62)" fill="#e4b940"/></g><path d="M191.315,29.953c-7.7-13.321-6.93-13.321-14.63,0L37.348,270.991A20,20,0,0,0,54.663,301H313.337a20,20,0,0,0,17.315-30.009Z" transform="translate(78.953 1235.129)" opacity="0.3"/><g transform="matrix(1, 0, 0, 1, 23.59, 1165.09)" filter="url(#d)"><path d="M156.685,29.953a20,20,0,0,1,34.63,0L330.652,270.991A20,20,0,0,1,313.337,301H34.663a20,20,0,0,1-17.315-30.009Z" transform="translate(110.63 70)" stroke="#e4b940" stroke-width="1" fill="url(#c)"/></g></g></svg>