<svg xmlns="http://www.w3.org/2000/svg" width="11" height="11" viewBox="0 0 11 11"><g transform="translate(0)"><rect width="11" height="11" rx="5.5" fill="#e0392c"/><path d="M548.719,432.218h-.042l-.007-.015c-.065-.125-.132-.249-.2-.374q-.173-.333-.344-.667l-.35-.681q-.172-.334-.344-.667c-.1-.2-.2-.4-.3-.6-.024-.047-.051-.092-.081-.145-.005.067-.014.123-.015.179,0,.246-.01.492-.01.738q0,.679.01,1.358c0,.146.008.293.021.439.012.129.064.216.225.214.094,0,.188,0,.282,0,.014,0,.029,0,.048,0v.215H546.13V432c.064,0,.124,0,.184,0a1.748,1.748,0,0,0,.247-.022.226.226,0,0,0,.174-.186,2,2,0,0,0,.042-.309c.014-.2.021-.392.031-.589,0-.073.008-.146.01-.22,0-.172.009-.344.01-.517q.006-.684.01-1.368a1.087,1.087,0,0,0-.011-.179c-.016-.1-.065-.121-.175-.131-.063-.006-.127,0-.2,0v-.189h.836c.009.025.017.05.028.073l.321.672.339.708.216.452.332.694.212.444c.016.032.032.062.053.1l.212-.449.41-.861.275-.578.409-.861c.062-.131.123-.264.184-.4h.937v.189h-.229a.164.164,0,0,0-.186.182c-.006.147-.008.294-.01.441,0,.231-.01.462-.01.693,0,.32.006.64.009.96q0,.394.01.789c0,.1,0,.2.01.3a.144.144,0,0,0,.119.139,1.185,1.185,0,0,0,.336.008v.222l-.06,0h-1.428c0-.06,0-.115,0-.17,0-.035.011-.048.046-.046.074,0,.148,0,.222,0,.121-.008.2-.032.216-.179.01-.121.019-.242.019-.363q0-1.14,0-2.28c0-.015,0-.031,0-.046a.126.126,0,0,0-.039.048l-.7,1.394" transform="translate(-541.907 -424.978)" fill="#fff"/><path d="M241.311,743.075l-.011-.219c.07,0,.131,0,.193,0a.589.589,0,0,0,.118-.014.2.2,0,0,0,.155-.209c0-.093,0-.186,0-.278q0-.384.01-.768a.084.084,0,0,1,0-.017h.494v.058c0,.282,0,.564,0,.846a1.738,1.738,0,0,0,.02.227c.015.107.088.137.173.144s.18.008.27.011l.043,0v.217Z" transform="translate(-239.434 -735.835)" fill="#fff"/><path d="M173.662,433.162c.114.021.214.035.328.05s.228.027.342.031c.237.01.474.024.711.018a2.5,2.5,0,0,0,.754-.108.93.93,0,0,0,.546-.458.975.975,0,0,0,.076-.284,1.247,1.247,0,0,0,.011-.234.858.858,0,0,0-.209-.574.8.8,0,0,0-.5-.295,4.156,4.156,0,0,0-.576-.017v1.8h-.487c0-.013,0-.028,0-.042,0-.089,0-.178,0-.267,0-.436,0-.872-.011-1.307,0-.112-.024-.159-.162-.162-.094,0-.188,0-.282,0l-.014,0v-.163h.058c.544,0,1.088,0,1.632,0a1.1,1.1,0,0,1,.585.164.979.979,0,0,1,.409.448,1.084,1.084,0,0,1,.088.318,1.147,1.147,0,0,1-.122.669.97.97,0,0,1-.366.383,1.552,1.552,0,0,1-.59.189,4.475,4.475,0,0,1-.6.05h-.148c-.162,0-.325,0-.487-.011a3.465,3.465,0,0,1-.849-.141c-.051-.016-.152-.057-.152-.057Z" transform="translate(-172.307 -427.815)" fill="#fff"/></g></svg>