<svg xmlns="http://www.w3.org/2000/svg" width="35.599" height="29.958" viewBox="0 0 35.599 29.958"><g transform="translate(0 -6.348)"><path d="M21.483,11.49a6.469,6.469,0,0,1,3.01,4.806,5.219,5.219,0,1,0-3.01-4.806Zm-3.42,10.69a5.221,5.221,0,1,0-5.222-5.221A5.221,5.221,0,0,0,18.062,22.18Zm2.215.356h-4.43a6.693,6.693,0,0,0-6.685,6.685v5.418l.014.085.373.117a30.429,30.429,0,0,0,9.089,1.466,18.66,18.66,0,0,0,7.936-1.49l.349-.176h.037V29.221A6.691,6.691,0,0,0,20.277,22.536Zm8.638-5.39h-4.4a6.434,6.434,0,0,1-1.986,4.482,7.943,7.943,0,0,1,5.674,7.6V30.9a17.99,17.99,0,0,0,7.007-1.472l.349-.177H35.6v-5.42A6.692,6.692,0,0,0,28.915,17.146ZM8.9,16.791a5.186,5.186,0,0,0,2.777-.806,6.462,6.462,0,0,1,2.429-4.121c.005-.1.015-.195.015-.293a5.221,5.221,0,1,0-5.22,5.22Zm4.689,4.837a6.438,6.438,0,0,1-1.985-4.457c-.163-.012-.324-.025-.49-.025H6.685A6.692,6.692,0,0,0,0,23.831v5.419l.014.084.373.118a31.343,31.343,0,0,0,7.528,1.415V29.229A7.945,7.945,0,0,1,13.59,21.628Z" transform="translate(0 0)" fill="#fff"/></g></svg>