<svg xmlns="http://www.w3.org/2000/svg" width="160" height="31.008" viewBox="0 0 160 31.008"><g transform="translate(1045 -4043.348)"><g transform="translate(-1045 4043.347)"><path d="M-1026.022,4066.746a12.177,12.177,0,0,1-4.278,2.4,13.6,13.6,0,0,1-11.925-1.608,6.488,6.488,0,0,1-2.776-4.091v-13.967a9.067,9.067,0,0,1,1.4-2.592,10.563,10.563,0,0,1,5.92-3.2,13.336,13.336,0,0,1,9.266,1.168,7.446,7.446,0,0,1,2.805,2.4c-.352.308-.756.194-1.151.145a1.017,1.017,0,0,1-.362-.221c-3.324-2.8-7.112-3.211-11.173-2.144a10.255,10.255,0,0,0-3.206,1.486c-2.989,2.05-3.12,5.428-.268,7.68a11.293,11.293,0,0,0,5.627,2.216,12.1,12.1,0,0,0,7.054-1.286c.281-.136.54-.392.9-.254a2.2,2.2,0,0,1-.348,1.52,13.524,13.524,0,0,1-4.191,1.271,13.441,13.441,0,0,1-9.294-2c-.331-.2-.615-.471-.925-.7a6.276,6.276,0,0,1-.831-.815,3.6,3.6,0,0,0,.663,2.673,7.43,7.43,0,0,0,3.606,2.723,13.517,13.517,0,0,0,9.627.07c.187-.069.366-.2.582-.1a1.43,1.43,0,0,1-.478,1.452,13.114,13.114,0,0,1-5.764.767,14.366,14.366,0,0,1-3.775-.688,9.842,9.842,0,0,1-4.188-2.541.421.421,0,0,0-.343-.2,4.313,4.313,0,0,0,.86,2.788,6.582,6.582,0,0,0,2.407,2.033,11.8,11.8,0,0,0,5.4,1.377,15.027,15.027,0,0,0,4.122-.4.721.721,0,0,1,.647.042,1.349,1.349,0,0,1-.216,1.158,4.216,4.216,0,0,1-2,.469,18.892,18.892,0,0,1-5.718-.366,10.6,10.6,0,0,1-5.488-3.286,4.377,4.377,0,0,0,1.3,3.6,9.167,9.167,0,0,0,4.383,2.439,12.339,12.339,0,0,0,5.692.286,2.065,2.065,0,0,1,.966-.078c.255.24.492.057.724-.042,1.308-.556,2.605-1.139,3.913-1.7a1.553,1.553,0,0,1,.636-.194C-1026.028,4066.45-1025.89,4066.52-1026.022,4066.746Z" transform="translate(1045 -4043.347)" fill="#fff"/><path d="M218.817,4080.75c-1.43,0-1.424,0-1.434-1.4,0-.526.22-1.206-.09-1.537s-1-.1-1.526-.1c-1.356-.015-1.356,0-1.356,1.349v.855c0,.841,0,.8-.818.854-.536.032-.675-.116-.665-.659.037-2.037.029-4.076,0-6.113-.005-.45.1-.651.568-.571a1.07,1.07,0,0,0,.366,0c.487-.088.576.145.555.579-.035.711.006,1.426-.016,2.139-.01.333.071.466.432.452.712-.027,1.427-.022,2.139,0,.315.009.427-.079.418-.407-.022-.753.015-1.509-.015-2.262-.016-.412.128-.54.524-.5a7.954,7.954,0,0,0,.915-.017Z" transform="translate(-58.817 -4069.718)" fill="#fff"/><path d="M-327.609,4075.913c0,1.408-.024,2.817.013,4.225.013.48-.142.62-.579.547a.753.753,0,0,0-.244,0c-.517.089-.685-.08-.674-.641.041-2.061.027-4.124.007-6.186,0-.4.117-.479.507-.521a1.327,1.327,0,0,1,1.478.835c.726,1.338,1.548,2.623,2.336,3.938.213-.13.124-.31.125-.452.008-1.266.019-2.531,0-3.8-.007-.4.11-.567.517-.509a1.782,1.782,0,0,0,.489,0c.388-.054.479.116.476.483q-.023,3.185,0,6.37c0,.355-.068.464-.458.5a1.386,1.386,0,0,1-1.528-.845c-.728-1.358-1.562-2.658-2.353-3.983Z" transform="translate(416.801 -4069.65)" fill="#fff"/><path d="M-644.611,4077.153c0-1.062.011-2.124-.006-3.185-.006-.351.064-.551.468-.494a2.232,2.232,0,0,0,.55,0c.343-.039.471.087.46.443-.023.734.009,1.47-.014,2.2-.012.375.06.552.495.526a17.318,17.318,0,0,1,2.02,0c.427.023.508-.143.494-.523-.027-.713.016-1.43-.017-2.143-.019-.406.108-.564.511-.506a1.513,1.513,0,0,0,.428,0c.427-.062.553.1.548.536q-.034,3.155,0,6.309c0,.425-.142.537-.523.489a1.821,1.821,0,0,0-.489,0c-.378.056-.492-.086-.475-.467.032-.733,0-1.47.014-2.2.006-.291-.089-.393-.384-.387-.735.017-1.47.02-2.2,0-.328-.009-.423.11-.416.423.017.714-.02,1.43.015,2.143.021.415-.126.547-.514.493a1.514,1.514,0,0,0-.428,0c-.428.065-.556-.1-.543-.532C-644.59,4079.236-644.611,4078.194-644.611,4077.153Z" transform="translate(693.673 -4069.773)" fill="#fff"/><path d="M-34.924,4077.731v.49c0,1.033-.167,1.284-1.123,1.688-1.724.728-3.719.167-4.329-1.35a5.612,5.612,0,0,1,.01-4.3,3.091,3.091,0,0,1,4.6-.983,2.285,2.285,0,0,1,.458.566c.2.337.42.793.193,1.084s-.726.066-1.1.1c-.213.02-.195-.157-.226-.29a1.093,1.093,0,0,0-1.005-.917,1.391,1.391,0,0,0-1.475.643,1.88,1.88,0,0,0-.3.982c-.008.653-.033,1.308,0,1.958a1.681,1.681,0,0,0,2.441,1.527c.453-.174.382-.51.382-.849,0-.812,0-.812-.79-.814-.569,0-.755-.275-.6-.825.059-.207.194-.173.326-.174.735,0,1.47.009,2.2-.007.284-.006.343.115.333.363C-34.935,4077-34.924,4077.364-34.924,4077.731Z" transform="translate(163.824 -4069.053)" fill="#fff"/><path d="M-378.973,4216.77c1.237-1.01,2.139-.938,2.981.155a1.862,1.862,0,0,1,1.155-.823,1.58,1.58,0,0,1,1.98,1.4,22.671,22.671,0,0,1,.081,3.541c.005.542-.452.24-.7.292s-.49.065-.482-.334c.018-.958.014-1.917,0-2.875-.012-.792-.294-1.117-.909-1.1-.639.019-.967.4-.967,1.138,0,.876-.031,1.755.012,2.629.024.487-.157.579-.594.563-.392-.014-.641-.013-.615-.539.046-.936.027-1.876,0-2.813a.882.882,0,0,0-1.213-.941.739.739,0,0,0-.664.806c.018,1-.023,2,.017,3,.021.519-.261.481-.606.483s-.614.033-.6-.483c.038-1.365,0-2.732.021-4.1,0-.234-.188-.626.322-.615C-379.375,4216.165-378.881,4215.993-378.973,4216.77Z" transform="translate(461.565 -4194.897)" fill="#fff"/><path d="M-205.083,4077.178c0-1.062.013-2.123-.007-3.184-.007-.356.064-.5.464-.492,1.265.027,2.531.032,3.8,0,.522-.014.413.3.42.593.007.308.068.6-.442.574-.793-.046-1.591,0-2.387-.018-.3-.006-.37.09-.382.382-.065,1.465-.075,1.464,1.382,1.464a4.612,4.612,0,0,0,.673-.005c.524-.078.712.093.678.65-.025.406-.132.521-.525.5-.59-.031-1.184.013-1.775-.016-.362-.018-.452.12-.43.453.035.525-.159,1.214.105,1.535.28.34.994.08,1.517.106.305.016.612,0,.918,0,.655,0,.846.28.679.931-.054.209-.181.184-.316.184-1.347,0-2.694-.01-4.041.009-.356,0-.329-.19-.328-.424C-205.081,4079.341-205.083,4078.259-205.083,4077.178Z" transform="translate(307.989 -4069.806)" fill="#fff"/><path d="M-94.088,4077.189c0-1.061.014-2.123-.008-3.183-.008-.375.059-.539.491-.527,1.244.031,2.49.041,3.734,0,.562-.02.434.315.456.623.025.347-.008.572-.471.546-.773-.042-1.551,0-2.326-.018-.317-.008-.407.089-.417.41-.045,1.438-.056,1.437,1.349,1.437a5.329,5.329,0,0,0,.734-.006c.495-.069.674.084.65.616-.019.427-.124.563-.552.536-.59-.037-1.184.009-1.775-.016-.332-.015-.42.106-.4.418a10.826,10.826,0,0,1,0,1.285c-.022.342.123.406.427.4.8-.018,1.593.023,2.387-.016.541-.027.389.327.4.6s.077.551-.4.539c-1.285-.033-2.571-.025-3.857,0-.364.006-.434-.122-.428-.453C-94.077,4079.312-94.088,4078.251-94.088,4077.189Z" transform="translate(210.593 -4069.784)" fill="#fff"/><path d="M-576.447,4077.159c0-1.061.015-2.121-.008-3.181-.008-.382.122-.483.49-.477,1.244.02,2.488.029,3.731,0,.453-.012.5.191.477.545-.018.321.076.651-.465.621-.752-.043-1.509,0-2.263-.017-.342-.008-.5.05-.51.457-.023,1.39-.041,1.389,1.351,1.389h.673c.757,0,.767.028.714.8-.018.273-.12.347-.371.342-.632-.011-1.265.01-1.9-.009-.317-.009-.459.05-.47.422-.047,1.672-.061,1.672,1.611,1.672h.918c.766,0,.8.051.717.835-.022.208-.08.284-.288.283-1.366-.005-2.733-.012-4.1,0-.371,0-.312-.222-.313-.44Q-576.447,4078.78-576.447,4077.159Z" transform="translate(633.857 -4069.803)" fill="#fff"/><path d="M-491.426,4076.523a5.271,5.271,0,0,0,.1,1.46,1.429,1.429,0,0,0,1.858,1.106.908.908,0,0,0,.744-.8c.044-.529.317-.576.756-.559.835.033.876.057.658.862a1.9,1.9,0,0,1-.633,1.025,3.1,3.1,0,0,1-3.119.452,2.6,2.6,0,0,1-1.756-2.229,9.028,9.028,0,0,1,0-2.682,2.555,2.555,0,0,1,1.768-2.215,3.145,3.145,0,0,1,3.163.53,2.166,2.166,0,0,1,.674,1.464c.038.291-.08.354-.332.338a5.373,5.373,0,0,0-.672,0c-.274.018-.422-.021-.462-.367a1.062,1.062,0,0,0-1.054-1,1.282,1.282,0,0,0-1.46.747A4.1,4.1,0,0,0-491.426,4076.523Z" transform="translate(560.55 -4069.144)" fill="#fff"/><path d="M-703.85,4077.773c0-.9-.011-1.793.006-2.69.005-.291-.078-.4-.377-.384-.447.022-.9-.005-1.345.008-.5.014-.335-.356-.342-.6s-.127-.553.332-.55q2.476.018,4.952,0c.521,0,.3.379.321.611s.131.563-.332.54c-.427-.021-.858.021-1.283-.011-.386-.03-.475.114-.471.483.019,1.711-.014,3.424.022,5.135.011.505-.159.641-.612.575a1.3,1.3,0,0,0-.366,0c-.384.054-.532-.069-.515-.488C-703.825,4079.527-703.85,4078.649-703.85,4077.773Z" transform="translate(747.469 -4069.855)" fill="#fff"/><path d="M-264.243,4077.731c0-.857-.015-1.715.007-2.572.009-.365-.09-.522-.479-.493-.406.03-.816,0-1.224.009-.558.018-.319-.4-.354-.65-.037-.27-.047-.512.379-.506q2.418.033,4.837,0c.481-.007.4.3.389.567s.13.612-.366.589c-.407-.02-.818.022-1.224-.011s-.513.129-.508.52c.018,1.694-.011,3.389.02,5.083.009.487-.133.666-.608.591a1.531,1.531,0,0,0-.428,0c-.339.043-.459-.077-.449-.433C-264.227,4079.528-264.243,4078.629-264.243,4077.731Z" transform="translate(361.713 -4069.823)" fill="#fff"/><path d="M-149.655,4077.13c0-1.041.02-2.082-.01-3.122-.013-.438.135-.591.555-.533a1.459,1.459,0,0,0,.428,0c.428-.066.5.143.5.523-.017,1.673.012,3.347-.019,5.02-.009.513.081.731.658.686.75-.059,1.51.008,2.264-.022.512-.021.352.328.358.574s.13.572-.37.561c-1.326-.029-2.653-.022-3.979,0-.355,0-.393-.15-.39-.439C-149.647,4079.293-149.655,4078.212-149.655,4077.13Z" transform="translate(259.354 -4069.773)" fill="#fff"/><path d="M-178.575,4220.032c.357-1.123.667-2.1.979-3.085a1.027,1.027,0,0,1,1.266-.481c.152.092.08.206.041.313-.71,1.947-1.393,3.9-2.146,5.835a1.507,1.507,0,0,1-1.764,1.09c-.216-.042-.412-.094-.332-.382.062-.222-.087-.522.348-.585a1.157,1.157,0,0,0,.915-1.622c-.507-1.395-1-2.792-1.533-4.178-.139-.366-.129-.478.311-.5.569-.033.87.112,1.017.712C-179.245,4218.069-178.912,4218.968-178.575,4220.032Z" transform="translate(286.744 -4195.189)" fill="#fff"/><path d="M-678.563,4221.119a1.811,1.811,0,0,1-2.189.766,1.661,1.661,0,0,1-1.075-1.693c-.046-1.038-.019-2.08-.038-3.12-.009-.511.364-.331.6-.34s.594-.133.585.364c-.019.979-.019,1.958.007,2.937.023.879.575,1.23,1.4.929a.811.811,0,0,0,.61-.866c-.025-.917.013-1.836-.016-2.753-.014-.45.066-.655.588-.637.461.016.63.105.616.607-.039,1.3,0,2.611-.024,3.916,0,.256.238.676-.366.7C-678.363,4221.95-678.649,4221.839-678.563,4221.119Z" transform="translate(726.353 -4195.466)" fill="#fff"/><path d="M-605.6,4221.237a1.821,1.821,0,0,1-1.343.743,1.6,1.6,0,0,1-1.785-1.46,26.225,26.225,0,0,1-.079-3.481c-.008-.55.435-.274.683-.319.274-.05.51-.032.5.386-.027.958-.021,1.917,0,2.875a.973.973,0,0,0,1.54.92.825.825,0,0,0,.483-.838c-.022-.958.022-1.918-.019-2.875-.022-.521.267-.475.609-.484.365-.009.6,0,.586.5-.038,1.365,0,2.732-.022,4.1,0,.226.2.609-.323.609-.41,0-.795.034-.766-.55C-605.533,4221.329-605.565,4221.3-605.6,4221.237Z" transform="translate(662.259 -4195.454)" fill="#fff"/><path d="M-263.921,4216.97a1.884,1.884,0,0,1,1.557-.754,1.5,1.5,0,0,1,1.569,1.4,34.818,34.818,0,0,1,.054,3.544c0,.55-.434.275-.681.318-.231.04-.488.078-.479-.33.022-.978.02-1.957,0-2.935a.993.993,0,0,0-1.612-.875.781.781,0,0,0-.42.749c.019.978-.023,1.958.018,2.934.025.6-.358.432-.676.472-.418.054-.5-.125-.5-.512.022-1.386.006-2.772.011-4.158,0-.24-.112-.581.346-.525.317.039.8-.193.757.456A.961.961,0,0,0-263.921,4216.97Z" transform="translate(360.638 -4195.036)" fill="#fff"/><path d="M-712.3,4202.813c0-.592-.01-1.184,0-1.776.007-.276-.065-.441-.371-.4-.376.055-.42-.146-.427-.462s.094-.451.415-.411c.492.061.363-.309.381-.566.091-1.3.8-1.937,2.012-1.8.217.025.56-.025.454.38-.064.245.083.618-.454.589a.868.868,0,0,0-.838,1.222c.092.307.332.158.505.17.286.021.552-.051.562.414s-.231.5-.567.46c-.388-.049-.525.079-.513.493.031,1.081-.017,2.164.023,3.244.018.493-.139.594-.608.608-.526.016-.613-.192-.586-.639C-712.274,4203.835-712.3,4203.323-712.3,4202.813Z" transform="translate(753.754 -4178.512)" fill="#fff"/><path d="M-430.4,4202.679c0-.49-.013-.98,0-1.469.013-.393.039-.733-.543-.661-.33.042-.215-.274-.225-.452s-.062-.435.225-.391c.583.088.531-.274.55-.655a1.682,1.682,0,0,1,2.081-1.724c.225.035.473.054.371.4-.069.232.1.575-.4.568-.723-.01-1.028.472-.877,1.186.061.291.257.2.419.212.308.02.647-.1.635.456-.011.519-.322.433-.608.411-.347-.026-.455.093-.449.443.02,1.142-.017,2.286.019,3.427.015.478-.229.483-.561.459-.3-.022-.682.137-.644-.434C-430.374,4203.864-430.4,4203.27-430.4,4202.679Z" transform="translate(506.38 -4178.437)" fill="#fff"/><path d="M-361.678,4077.2c0-1.06.019-2.12-.009-3.18-.011-.428.118-.6.548-.54a2.39,2.39,0,0,0,.549,0c.3-.03.383.108.383.391q-.011,3.3,0,6.6c0,.273-.1.329-.354.343-1.117.063-1.117.072-1.117-1.051Q-361.678,4078.48-361.678,4077.2Z" transform="translate(445.401 -4069.775)" fill="#fff"/><path d="M-639.527,4209.81q0-.459,0-.918c0-.387.133-.839-.556-.764-.319.035-.2-.288-.214-.466s-.025-.418.25-.376c.528.08.537-.221.525-.608a.654.654,0,0,1,1-.654c.287.123.17.393.157.587-.03.452.024.768.6.669.351-.061.333.192.327.425s.045.5-.315.437c-.555-.09-.633.188-.61.658.036.713.011,1.428.012,2.142,0,.37.121.684.546.644.476-.046.321.3.382.514.094.329-.133.366-.369.412a1.3,1.3,0,0,1-1.718-1.295c-.034-.466-.006-.937-.006-1.406Z" transform="translate(689.885 -4186.019)" fill="#fff"/><path d="M-562.253,4217.013c.358-.434.652-.785,1.152-.774.173,0,.508-.1.415.231-.082.3.2.8-.369.872-1.081.136-1.156.205-1.156,1.271,0,.815-.029,1.632.01,2.445.024.5-.273.444-.581.436-.289-.008-.6.1-.589-.421.036-1.364,0-2.73.024-4.1,0-.235-.248-.659.313-.677C-562.593,4216.287-562.133,4216.22-562.253,4217.013Z" transform="translate(622.401 -4195.045)" fill="#fff"/><path d="M-939.526,4074.056l-12.915-.019h-1.221a2.175,2.175,0,0,0-.832-.168c-1.529,0-3.059-.006-4.588.006-.763.006-.918.123-1.1.868-.358,1.444-.7,2.893-1.043,4.342-.113.476-.237.95-.338,1.429-.137.652-.02.793.66.83.183.01.367.005.55.005,1.468,0,2.936,0,4.4,0a.992.992,0,0,1,.883.307,6.576,6.576,0,0,1-.364,1.426,13.956,13.956,0,0,0-.792,2.862.428.428,0,0,0,.048.407c-.13.422-.07.909-.424,1.255-.264.837-.415,1.7-.62,2.552-.06.25-.191.5-.05.77l-.259,1.14a8.659,8.659,0,0,0-.738,2.461.862.862,0,0,0-.011.7c-.111.406.092.318.326.215,1.546-.676,3.092-1.352,4.646-2.01.121-.051.406-.411.452.093-.058.318-.1.639-.177.954q-.76,3.328-1.529,6.656c.253-.06.325-.3.447-.475q6.019-8.743,12.031-17.49c.246-.358.487-.721.731-1.082l-.076-.094-7.362,3.071c.47-1.261.885-2.32,1.256-3.395a.65.65,0,0,1,.738-.525c1.938.027,3.877.011,5.815.013.264,0,.517.038.6-.332.525-2.238,1.065-4.473,1.615-6.775Zm-1.583,5.785c-.083.364-.323.344-.6.343-1.858,0-3.715.012-5.572-.013a.7.7,0,0,0-.768.5c-.866,2.076-1.759,4.141-2.7,6.354l6.386-2.82.084.1-7.737,11.721-.136-.073.9-4.5-5.622,2.435c.433-1.878.845-3.678,1.262-5.476.594-2.56,1.182-5.121,1.8-7.676.107-.447.057-.583-.446-.574-1.775.032-3.552.013-5.327.013h-.715c.386-1.64.766-3.222,1.125-4.809.094-.414.386-.336.661-.336h18.539C-940.37,4076.675-940.749,4078.256-941.11,4079.841Z" transform="translate(971.832 -4070.129)" fill="#cc9200"/><path d="M31.23,4079.043a1.671,1.671,0,0,0-1.161-1.764,1.949,1.949,0,0,0-.7-3.718,23.426,23.426,0,0,0-2.626-.11c-.59-.042-.8.09-.783.746.054,1.856.019,3.714.019,5.572,0,1.044,0,1.02,1.016,1.032.4,0,.473-.13.46-.488-.026-.693,0-1.388-.011-2.082,0-.235.035-.356.323-.382,1.565-.144,1.948.175,2,1.719q0,.092.009.184c.061.987.116,1.038,1.117,1.038h.737A2.657,2.657,0,0,1,31.23,4079.043Zm-3.13-2.3c-.652,0-.652,0-.652-1.076,0-1.059,0-1.059.68-1.059,1.137,0,1.613.336,1.594,1.121C29.7,4076.467,29.265,4076.742,28.1,4076.741Z" transform="translate(105.244 -4069.758)" fill="#fff"/><path d="M-424.449,4076.659c0-.387.027-.777,0-1.162a2.933,2.933,0,0,0-2.992-2.65,2.909,2.909,0,0,0-3.018,2.611,12.105,12.105,0,0,0-.008,2.2,2.874,2.874,0,0,0,1.967,2.548,3.158,3.158,0,0,0,3.4-.9A3.515,3.515,0,0,0-424.449,4076.659Zm-1.516,1.343a1.506,1.506,0,0,1-1.539,1.221,1.458,1.458,0,0,1-1.453-1.241,7.33,7.33,0,0,1,0-2.732,1.451,1.451,0,0,1,1.565-1.243,1.529,1.529,0,0,1,1.464,1.38c.06.4.05.811.072,1.217A6.641,6.641,0,0,1-425.965,4078Z" transform="translate(505.799 -4069.233)" fill="#fff"/><path d="M87.97,4073.957a.742.742,0,0,0-.811-.59c-.676-.04-1.077.12-1.173.842a4.546,4.546,0,0,1-.27.807c-.634,1.883-1.267,3.766-1.918,5.7a6.009,6.009,0,0,1,.907.008c.515.084.7-.148.83-.619.263-.981.29-.974,1.325-.974,1.29,0,1.3,0,1.708,1.215.1.291.218.391.51.374.359-.021.721,0,1.139,0C89.45,4078.423,88.694,4076.2,87.97,4073.957ZM87.477,4078a7.111,7.111,0,0,0-.85,0c-.332.025-.443-.078-.331-.41.225-.668.434-1.341.65-2.011l.128-.01q.334,1.057.668,2.114C87.82,4077.932,87.719,4078.013,87.477,4078Z" transform="translate(54.493 -4069.684)" fill="#fff"/><path d="M154.121,4073.6c-.973-.143-1.954-.027-2.93-.077-.38-.02-.488.1-.48.478.024,1.039.008,2.078.008,3.117,0,1,.04,2-.015,2.995-.033.6.122.771.748.773s.836-.182.739-.78a3.453,3.453,0,0,1,0-.549c0-1.327,0-1.327,1.293-1.365.142,0,.285-.012.427-.021a2.289,2.289,0,0,0,2.31-2.219A2.252,2.252,0,0,0,154.121,4073.6Zm.57,2.678a1.056,1.056,0,0,1-.86.766,2.1,2.1,0,0,1-.365.023c-1.279.033-1.279.033-1.279-1.234s0-1.277,1.425-1.145A1.169,1.169,0,0,1,154.691,4076.273Z" transform="translate(-4.214 -4069.821)" fill="#fff"/><path d="M-219.218,4216.246a2.2,2.2,0,0,0-1.924,1.858,2.769,2.769,0,0,0,.842,3,2.76,2.76,0,0,0,2.957.139c.29-.126.438-.278.239-.645-.176-.323-.318-.334-.6-.174a2.023,2.023,0,0,1-.634.208,1.293,1.293,0,0,1-1.613-.857c-.109-.344-.118-.6.381-.556.385.035.775.007,1.163.006.429,0,.857,0,1.286,0,.175,0,.306-.006.321-.247C-216.7,4217.3-217.46,4216.093-219.218,4216.246Zm1.236,1.958c-.065.347-.441.118-.674.171a1.391,1.391,0,0,1-.3,0c-.142,0-.284.011-.425,0-.195-.019-.474.1-.566-.079-.111-.221.069-.462.2-.668a.951.951,0,0,1,1.314-.352A.884.884,0,0,1-217.981,4218.2Z" transform="translate(322.169 -4195.052)" fill="#fff"/><path d="M-535.4,4218.982c.385.029.775.006,1.163.006h.551c1.179,0,1.21-.036,1.024-1.225a2.126,2.126,0,0,0-3.385-1.37,3.151,3.151,0,0,0-.607,3.9,2.689,2.689,0,0,0,3.5.714c.228-.124.464-.22.264-.594-.171-.318-.284-.387-.633-.227-1.095.5-1.933.23-2.239-.656C-535.9,4219.164-535.888,4218.945-535.4,4218.982Zm-.029-1.783a.915.915,0,0,1,1.063-.208.992.992,0,0,1,.589.856c.039.208-.056.3-.264.292-.264-.005-.527,0-.791,0a1.3,1.3,0,0,1-.243,0c-.24-.043-.609.153-.7-.131S-535.646,4217.423-535.432,4217.2Z" transform="translate(599.302 -4194.813)" fill="#fff"/><path d="M-470.507,4217.292a2.063,2.063,0,0,0-1.244-1.095c-1.736-.569-3.194.6-3.185,2.75.02.125.049.429.12.724a2.189,2.189,0,0,0,2.139,1.751,2.174,2.174,0,0,0,2.307-1.522A3.289,3.289,0,0,0-470.507,4217.292Zm-.949,2.309a1.1,1.1,0,0,1-1.149.9,1.086,1.086,0,0,1-1.06-.932,5.244,5.244,0,0,1-.1-.747c.014-.224.019-.346.031-.468.081-.867.529-1.377,1.2-1.364.643.012,1.085.514,1.167,1.335A3.176,3.176,0,0,1-471.456,4219.6Z" transform="translate(544.776 -4194.896)" fill="#fff"/><path d="M-307.617,4217.073a1.923,1.923,0,0,0-1.12-.888c-1.738-.57-3.188.595-3.166,2.564a4.2,4.2,0,0,0,0,.427,2.354,2.354,0,0,0,1.685,2.163,2.261,2.261,0,0,0,2.614-.958A3.188,3.188,0,0,0-307.617,4217.073Zm-.885,2.687a1.074,1.074,0,0,1-1.081.731,1.024,1.024,0,0,1-1-.741,2.982,2.982,0,0,1-.017-1.967,1.046,1.046,0,0,1,1.031-.8,1.082,1.082,0,0,1,1.073.746,2.532,2.532,0,0,1,.157,1.014A2.437,2.437,0,0,1-308.5,4219.76Z" transform="translate(401.72 -4194.883)" fill="#fff"/></g></g></svg>