<svg xmlns="http://www.w3.org/2000/svg" width="26.749" height="29.959" viewBox="0 0 26.749 29.959"><g transform="translate(-24)"><path d="M24,1.168a1.584,1.584,0,0,1,.535-.1H50.214a1.584,1.584,0,0,1,.535.1V.535A.535.535,0,0,0,50.214,0H24.535A.535.535,0,0,0,24,.535Z" fill="#fff"/><path d="M50.214,33.07a1.584,1.584,0,0,1,.535.1v-.633A.535.535,0,0,0,50.214,32H24.535a.535.535,0,0,0-.535.535v.633a1.584,1.584,0,0,1,.535-.1Z" transform="translate(0 -29.86)" fill="#fff"/><path d="M99.531,162.782l.321-.428a.535.535,0,0,1,.428-.214.549.549,0,0,1,.107.011.536.536,0,0,1,.413.395l.231.924a1.07,1.07,0,0,0,1.037.811h.352v-1.07a3.21,3.21,0,1,0-6.42,0v1.07h.535A3.764,3.764,0,0,0,99.531,162.782Z" transform="translate(-67.185 -149.3)" fill="#fff"/><path d="M106.675,222.31a2.678,2.678,0,0,0,2.675-2.675v-.55a2.131,2.131,0,0,1-1.859-1.483A4.838,4.838,0,0,1,104,219.1v.535A2.678,2.678,0,0,0,106.675,222.31Z" transform="translate(-74.65 -203.05)" fill="#fff"/><path d="M50.214,64H24.535a.535.535,0,0,0-.535.535v12.84a.535.535,0,0,0,.535.535h4.109a3.676,3.676,0,0,1-.364-1.6V75.77a.535.535,0,0,1-.535-.535v-1.6a4.28,4.28,0,1,1,8.56,0v1.6a.535.535,0,0,1-.535.535V76.3a3.676,3.676,0,0,1-.364,1.6H50.214a.535.535,0,0,0,.535-.535V64.535A.535.535,0,0,0,50.214,64Zm-21.4,3.21h-1.6v1.6H26.14v-2.14a.535.535,0,0,1,.535-.535h2.14Zm8.56,8.025v-1.07a3.21,3.21,0,1,0-2.632-5.045l-.883-.61a4.28,4.28,0,1,1,3.515,6.725Zm6.955-3.745h-1.07V70.42h1.07Zm4.28,3.745a.535.535,0,0,1-.535.535h-2.14V74.7h1.6v-1.6h1.07Zm0-6.42h-1.07v-1.6h-1.6V66.14h2.14a.535.535,0,0,1,.535.535Z" transform="translate(0 -59.72)" fill="#fff"/><path d="M53.91,332.078v-5.039a2.689,2.689,0,0,0-1.972-2.582l-2.522-.686L47.3,325.535a.536.536,0,0,1-.685,0l-2.119-1.765-2.523.687A2.688,2.688,0,0,0,40,327.038v5.039h1.6v-4.815h1.07v4.815h8.56v-4.815H52.3v4.815Z" transform="translate(-14.93 -302.119)" fill="#fff"/><path d="M126.464,301.762a3.725,3.725,0,0,1-1.07-.16v.7a.529.529,0,0,1-.187.4l1.257,1.047,1.257-1.046a.529.529,0,0,1-.187-.4v-.7A3.725,3.725,0,0,1,126.464,301.762Z" transform="translate(-94.439 -281.433)" fill="#fff"/></g></svg>