<svg xmlns="http://www.w3.org/2000/svg" width="24" height="24" viewBox="0 0 24 24"><g transform="translate(-0.048 7.952)"><rect width="24" height="24" transform="translate(0.048 -7.952)" fill="none"/><path d="M15.354,5.158a.265.265,0,0,0,.108-.507L5.324.155a1.226,1.226,0,0,0-1.619.62L.155,8.736a1.226,1.226,0,0,0,.62,1.619l2.045.883a.389.389,0,0,0,.546-.352V7.5A2.348,2.348,0,0,1,5.712,5.158Z" transform="translate(2.211 -5.914)" fill="#fff"/><path d="M127.641,160.5h-12.3a1.244,1.244,0,0,0-1.243,1.243v8.686a1.244,1.244,0,0,0,1.243,1.243h1.65a4.733,4.733,0,0,1-.062-.744,4.557,4.557,0,0,1,.077-.833h-1.332v-4.159H127.3v4.155h-1.336a4.529,4.529,0,0,1,.077.833,4.317,4.317,0,0,1-.062.743h1.65a1.244,1.244,0,0,0,1.243-1.243v-8.686A1.23,1.23,0,0,0,127.641,160.5Zm-.333,2.873H115.68v-1.3h11.628Z" transform="translate(-107.424 -160.153)" fill="#fff"/><path d="M225.891,347.3a3.191,3.191,0,1,0,3.191,3.191A3.191,3.191,0,0,0,225.891,347.3Zm.914,4.445a1.028,1.028,0,0,1-.531.341.15.15,0,0,0-.132.17c0,.093,0,.186,0,.283a.116.116,0,0,1-.124.132c-.1,0-.2,0-.306,0a.123.123,0,0,1-.132-.139v-.205c0-.151-.008-.159-.155-.182a1.864,1.864,0,0,1-.538-.155c-.136-.066-.151-.1-.108-.24.027-.1.058-.209.089-.314.035-.12.07-.135.182-.077a1.732,1.732,0,0,0,.6.178.731.731,0,0,0,.395-.054.3.3,0,0,0,.074-.534.874.874,0,0,0-.225-.132,4.831,4.831,0,0,1-.612-.275.862.862,0,0,1-.492-.833.912.912,0,0,1,.67-.848c.163-.062.166-.058.166-.229v-.174c0-.132.023-.151.155-.155h.116c.275,0,.275,0,.275.275,0,.194,0,.194.194.225a1.849,1.849,0,0,1,.426.124.123.123,0,0,1,.081.167c-.031.116-.066.24-.1.352s-.074.124-.178.077a1.359,1.359,0,0,0-.674-.135.554.554,0,0,0-.178.035.256.256,0,0,0-.066.453,1.347,1.347,0,0,0,.29.167,4.748,4.748,0,0,1,.534.244A.964.964,0,0,1,226.8,351.745Z" transform="translate(-211.819 -339.719)" fill="#fff"/></g></svg>