<svg xmlns="http://www.w3.org/2000/svg" width="44" height="44.01" viewBox="0 0 44 44.01"><g transform="translate(-0.192 0.002)"><path d="M212.141,274.119a4.4,4.4,0,0,0-7.1,2.6,4.351,4.351,0,0,0,1.173,3.867.745.745,0,0,1,.22.514v3.019a1.483,1.483,0,0,0,1.483,1.483h2.9a1.485,1.485,0,0,0,1.483-1.483V281.1a.733.733,0,0,1,.215-.513,4.379,4.379,0,0,0-.373-6.469Zm-.677,5.445a2.19,2.19,0,0,0-.632,1.54l-.017,3.028-2.916-.013V281.1a2.2,2.2,0,0,0-.636-1.54,2.923,2.923,0,0,1,1.466-4.893,3.18,3.18,0,0,1,.643-.066,2.89,2.89,0,0,1,1.842.66,2.921,2.921,0,0,1,1.084,2.273A2.891,2.891,0,0,1,211.465,279.564Z" transform="translate(-187.17 -249.656)" fill="#fff"/><path d="M41.048,12.993a2.2,2.2,0,0,0,2.5-3.534,2.254,2.254,0,0,0-3.11,0,2.176,2.176,0,0,0-.424,2.5h-.006l-2.782,2.783-3-3,2.42-2.407a.734.734,0,0,0,.216-.52V4.268a2.205,2.205,0,1,0-1.467.031V8.512L30.58,13.3a8.882,8.882,0,0,0-16.768,0L9,8.509V4.3a2.194,2.194,0,1,0-1.466-.027V8.814a.732.732,0,0,0,.217.52l2.42,2.407-3,3L4.384,11.961H4.378a2.175,2.175,0,0,0-.423-2.5,2.253,2.253,0,0,0-3.111,0A2.194,2.194,0,0,0,3.344,13V13l2.784,2.777L3.347,18.56s0,.01-.009.015a2.255,2.255,0,0,0-2.493.414A2.2,2.2,0,1,0,3.956,22.1a2.175,2.175,0,0,0,.424-2.5h.006l6.822-6.819,2.222,2.21a8.523,8.523,0,0,0-.073,1.038v4.565a2.2,2.2,0,0,0-2.161,2.2v2.15H9.6a2.184,2.184,0,0,0-.513-.822,2.253,2.253,0,0,0-3.111,0A2.2,2.2,0,1,0,9.6,26.411h1.6v1.9L6.71,32.795a.74.74,0,0,1-.519.215H4.465a2.18,2.18,0,0,0-.513-.822,2.253,2.253,0,0,0-3.111,0,2.2,2.2,0,1,0,3.624,2.288h1.6v5.279a2.108,2.108,0,0,0-.822.5,2.2,2.2,0,1,0,3.111,0,2.107,2.107,0,0,0-.823-.5V34.329a.68.68,0,0,1,.2-.483L11.2,30.38v6.3a2.2,2.2,0,0,0,2.2,2.2h17.6a2.2,2.2,0,0,0,2.2-2.2v-6.3l2.731,2.731a.69.69,0,0,1,.2.485v6.159a2.1,2.1,0,0,0-.822.5,2.2,2.2,0,1,0,3.11,0,2.1,2.1,0,0,0-.822-.5V33.743h2.333a2.2,2.2,0,1,0,3.621-2.287,2.253,2.253,0,0,0-3.111,0,2.179,2.179,0,0,0-.513.823H37.472a.744.744,0,0,1-.527-.22l-3.751-3.751v-1.9h1.6a2.2,2.2,0,1,0,3.622-2.288,2.254,2.254,0,0,0-3.11,0,2.191,2.191,0,0,0-.513.823h-1.6V22.784a2.2,2.2,0,0,0-2.161-2.2V16.023a8.505,8.505,0,0,0-.069-1.038l2.222-2.21L40.008,19.6h.006a2.2,2.2,0,1,0,3.535-.611,2.256,2.256,0,0,0-2.493-.414s0-.01-.009-.015l-2.782-2.778L41.044,13ZM36.078,1.482a.733.733,0,1,1-.733.733A.733.733,0,0,1,36.078,1.482Zm-27.764,0a.733.733,0,1,1-.733.733A.733.733,0,0,1,8.314,1.482ZM1.881,11.532a.741.741,0,1,1,1.037,0A.75.75,0,0,1,1.881,11.532Zm1.037,9.532a.75.75,0,0,1-1.037,0,.741.741,0,1,1,1.037,0ZM8.05,26.2a.75.75,0,0,1-1.037,0,.741.741,0,1,1,1.037,0ZM2.918,34.261a.75.75,0,0,1-1.037,0,.733.733,0,1,1,1.037,0Zm4.4,8.065a.75.75,0,0,1-1.037,0,.733.733,0,1,1,1.037,0Zm30.061,0a.75.75,0,0,1-1.037,0,.733.733,0,1,1,1.037,0Zm4.1-9.835a.733.733,0,1,1,1.037,1.037.75.75,0,0,1-1.037,0A.733.733,0,0,1,41.474,32.491Zm-5.133-7.332A.733.733,0,0,1,37.378,26.2a.75.75,0,0,1-1.037,0A.733.733,0,0,1,36.341,25.159ZM22.2,8.814a7.3,7.3,0,0,1,7.371,7.209v4.561H28.1V16.023a5.907,5.907,0,0,0-11.809,0v4.561H14.825V16.023A7.3,7.3,0,0,1,22.2,8.814Zm4.438,11.77H17.758V16.023a4.441,4.441,0,0,1,8.876,0Zm5.094,2.2V36.676a.733.733,0,0,1-.733.733H13.4a.733.733,0,0,1-.733-.733V22.784a.733.733,0,0,1,.733-.733h17.6A.733.733,0,0,1,31.727,22.784Zm10.265-2.972a.733.733,0,0,1,.518,1.252.75.75,0,0,1-1.037,0,.733.733,0,0,1,.518-1.252ZM41.474,10.5a.733.733,0,1,1,1.037,1.037.75.75,0,0,1-1.037,0A.733.733,0,0,1,41.474,10.5Z" transform="translate(0 0)" fill="#fff"/></g></svg>