<svg xmlns="http://www.w3.org/2000/svg" width="14.389" height="17.745" viewBox="0 0 14.389 17.745"><g transform="translate(-40.927 41.415)"><g transform="translate(17.587 -38.415)"><g transform="translate(23.34)"><g transform="translate(0)"><path d="M35.033,109.89c-.674,0-11.131-.062-11.647,0s3.55,4.036,3.871,4.55l.921,1.472h.231v.915h.344v.807h.689v-.807h.344v-.915h.221l0-.038a8.349,8.349,0,0,1,.927-1.381C31.3,114.137,35.706,109.894,35.033,109.89Z" transform="translate(-23.34 -102.889)" fill="#fff"/><path d="M101.022,3.453l-.693-1.919L99.285,3.312a.1.1,0,0,1-.134.049l-1.945-.777c0,.005,0,.01,0,.015l.713,1.976Z" transform="translate(-93.516 -4.437)" fill="#fff"/><path d="M101.434,1.626l.2.081,1-1.7-.023,0L99.856.995l.936.374Z" transform="translate(-95.999 -3)" fill="#fff"/><path d="M94.657,67.517c-.076-.121-.252-.5-.46-.489s-.344.441-.4.558c-.1.212-.189.428-.272.645a.043.043,0,0,0,.027.058.062.062,0,0,0,.039.01l1.374-.077c.039,0,.077-.041.059-.075Q94.852,67.827,94.657,67.517Z" transform="translate(-89.068 -62.773)" fill="#fff"/><path d="M113.7,71.212c-.091.013-.2.215-.263.338.107.174.211.352.31.533a.074.074,0,0,1,.008.04l.506-.028c.034,0,.067-.035.051-.064q-.126-.234-.269-.46C113.985,71.479,113.813,71.2,113.7,71.212Z" transform="translate(-107.718 -66.691)" fill="#fff"/><path d="M109.735,62.287a.25.25,0,0,0,.233-.26.247.247,0,1,0-.233.26Z" transform="translate(-104.007 -57.871)" fill="#fff"/><path d="M85.467,54.985l-.007-.14,0-.027-3.377.189,0,.083,0,.084L82.2,57.2l.009.157.017.3,3.377-.189-.02-.359-.006-.1Zm-3.1,2.207-.113-2.028,3.04-.17.114,2.027Z" transform="translate(-78.353 -51.338)" fill="#fff"/><path d="M31.989,11.665l.281.165-.239.4,1.262.744.225-.382.281.165-.225.382.095.056,1.918-3.253-.095-.056-.252.427-.281-.165.252-.427-1.262-.744-.238.4-.28-.165.238-.4-.091-.054-1.918,3.253.091.054Zm1.884.969-.281-.165.268-.454.281.165Zm1.01-2.354.281.165L34.9,10.9l-.281-.165Zm-.343.582.281.165-.268.454-.281-.165Zm-.343.582.281.165-.268.454-.281-.165Zm-.438-.829c.054-.028.139-.006.138.068,0,.2,0,.395,0,.593a.09.09,0,0,1-.128.086l-.526-.312a.088.088,0,0,1-.034-.037.074.074,0,0,1,.018-.111l.005,0h0a.071.071,0,0,1,.026-.013Zm-.4-1.267.28.165-.268.454-.28-.165Zm-.343.582.281.166-.268.454-.281-.165Zm-.343.582.281.165-.268.454-.281-.165Zm-.336.571.281.165-.268.454-.281-.165Z" transform="translate(-31.131 -8.206)" fill="#fff"/></g></g></g><g transform="translate(46.805 -40.972)"><path d="M29.1,23.827,30.281,22.2a.126.126,0,0,0-.176-.176L28.478,23.2a.448.448,0,1,0,.626.625Z" transform="translate(-23.606 -19.235)" fill="#fff"/><path d="M28.094,2.46s0-.005,0-.008l-.006-.006a3.418,3.418,0,0,0-.448-.6l.27-.27.178.178.533-.533L28.086.682l-.533.533.178.178-.27.27a3.414,3.414,0,0,0-.6-.448l-.006-.006-.008,0A3.371,3.371,0,0,0,25.55.778V.629h.189a.314.314,0,1,0,0-.629H24.607a.314.314,0,1,0,0,.629H24.8V.774a3.458,3.458,0,0,0-.405.067.126.126,0,1,0,.056.245,3.2,3.2,0,0,1,.36-.061l.125-.009.116-.007h0v.249a.126.126,0,0,0,.251,0V1.01a3.118,3.118,0,0,1,1.314.358l-.124.215a.126.126,0,1,0,.218.126l.124-.214a3.167,3.167,0,0,1,.977.977l-.214.124a.126.126,0,0,0,.126.218l.215-.124a3.12,3.12,0,0,1,.358,1.335h-.248a.126.126,0,0,0,0,.251h.248a3.12,3.12,0,0,1-.358,1.335l-.215-.124a.126.126,0,1,0-.126.218l.214.124a3.167,3.167,0,0,1-.977.977l-.124-.214a.126.126,0,1,0-.218.126l.124.215a3.118,3.118,0,0,1-1.314.358V7.04a.126.126,0,1,0-.251,0v.248a3.172,3.172,0,0,1-.6-.078.126.126,0,0,0-.056.245,3.4,3.4,0,0,0,.762.087h.023a3.372,3.372,0,0,0,1.662-.449l.012,0,.006-.006a3.419,3.419,0,0,0,1.229-1.227l.008-.01s0-.005,0-.008a3.381,3.381,0,0,0,0-3.378Z" transform="translate(-20.108)" fill="#fff"/><path d="M16.173,13h-.629a.251.251,0,1,0,0,.5h.629a.251.251,0,1,0,0-.5Z" transform="translate(-12.24 -11.366)" fill="#fff"/><path d="M11.8,20H10.544a.251.251,0,0,0,0,.5H11.8a.251.251,0,0,0,0-.5Z" transform="translate(-7.869 -17.486)" fill="#fff"/><path d="M7.43,27H5.544a.251.251,0,0,0,0,.5H7.43a.251.251,0,0,0,0-.5Z" transform="translate(-3.497 -23.606)" fill="#fff"/><path d="M3.933,34H1.544a.251.251,0,1,0,0,.5H3.933a.251.251,0,0,0,0-.5Z" transform="translate(0 -29.726)" fill="#fff"/><path d="M9.179,41H7.544a.251.251,0,1,0,0,.5H9.179a.251.251,0,1,0,0-.5Z" transform="translate(-5.246 -35.846)" fill="#fff"/><path d="M14.424,48h-.88a.251.251,0,1,0,0,.5h.88a.251.251,0,1,0,0-.5Z" transform="translate(-10.491 -41.966)" fill="#fff"/></g></g></svg>