<svg xmlns="http://www.w3.org/2000/svg" width="10" height="10" viewBox="0 0 10 10"><g transform="translate(-0.012)"><g transform="translate(5.875 5.864)"><path d="M300.761,300.244a.581.581,0,1,0,.581.581A.581.581,0,0,0,300.761,300.244Z" transform="translate(-300.18 -300.244)" fill="#41bf50"/></g><g transform="translate(2.981 2.971)"><path d="M152.621,152.116a.581.581,0,1,0,.58.581A.581.581,0,0,0,152.621,152.116Z" transform="translate(-152.04 -152.116)" fill="#41bf50"/></g><g transform="translate(0.012)"><g transform="translate(0)"><path d="M5.012,0a5,5,0,1,0,5,5A5.006,5.006,0,0,0,5.012,0ZM3.562,2.346A1.206,1.206,0,1,1,2.356,3.552,1.207,1.207,0,0,1,3.562,2.346ZM3.2,7.259a.313.313,0,0,1-.442-.442L6.829,2.741a.313.313,0,0,1,.442.442Zm3.26.392A1.206,1.206,0,1,1,7.661,6.445,1.208,1.208,0,0,1,6.456,7.651Z" transform="translate(-0.012)" fill="#41bf50"/></g></g></g></svg>