<svg xmlns="http://www.w3.org/2000/svg" width="11.783" height="14.745" viewBox="0 0 11.783 14.745"><g transform="translate(-23.34 0)"><g transform="translate(23.34)"><g transform="translate(0)"><path d="M35.033,109.89c-.674,0-11.131-.062-11.647,0s3.55,4.036,3.871,4.55l.921,1.472h.231v.915h.344v.807h.689v-.807h.344v-.915h.221l0-.038a8.349,8.349,0,0,1,.927-1.381C31.3,114.137,35.706,109.894,35.033,109.89Z" transform="translate(-23.34 -102.889)" fill="#fff"/><path d="M101.022,3.453l-.693-1.919L99.285,3.312a.1.1,0,0,1-.134.049l-1.945-.777c0,.005,0,.01,0,.015l.713,1.976Z" transform="translate(-92.516 -1.437)" fill="#fff"/><path d="M101.434,1.626l.2.081,1-1.7-.023,0L99.856.995l.936.374Z" transform="translate(-94.999)" fill="#fff"/><path d="M94.657,67.517c-.076-.121-.252-.5-.46-.489s-.344.441-.4.558c-.1.212-.189.428-.272.645a.043.043,0,0,0,.027.058.062.062,0,0,0,.039.01l1.374-.077c.039,0,.077-.041.059-.075Q94.852,67.827,94.657,67.517Z" transform="translate(-89.068 -62.773)" fill="#fff"/><path d="M113.7,71.212c-.091.013-.2.215-.263.338.107.174.211.352.31.533a.074.074,0,0,1,.008.04l.506-.028c.034,0,.067-.035.051-.064q-.126-.234-.269-.46C113.985,71.479,113.813,71.2,113.7,71.212Z" transform="translate(-107.718 -66.691)" fill="#fff"/><path d="M109.735,62.287a.25.25,0,0,0,.233-.26.247.247,0,1,0-.233.26Z" transform="translate(-104.007 -57.871)" fill="#fff"/><path d="M85.467,54.985l-.007-.14,0-.027-3.377.189,0,.083,0,.084L82.2,57.2l.009.157.017.3,3.377-.189-.02-.359-.006-.1Zm-3.1,2.207-.113-2.028,3.04-.17.114,2.027Z" transform="translate(-78.353 -51.338)" fill="#fff"/><path d="M153.136,61.91l.6.343a.041.041,0,0,0,.056-.007l.346-.6a.04.04,0,0,0-.023-.052l-.6-.344a.041.041,0,0,0-.056.007l-.346.6A.041.041,0,0,0,153.136,61.91Z" transform="translate(-144.874 -57.352)" fill="#fff"/><path d="M167.271,37.582l1.445.827c.052.03.1.042.11.027l.32-.559c.009-.015-.027-.052-.079-.082l-1.445-.827c-.053-.03-.1-.042-.11-.027l-.32.56C167.183,37.515,167.218,37.552,167.271,37.582Z" transform="translate(-158.06 -34.59)" fill="#fff"/><path d="M163.919,49.638l1.483.849a.111.111,0,0,0,.11-.192l-1.483-.849A.111.111,0,0,0,163.919,49.638Z" transform="translate(-154.945 -46.292)" fill="#fff"/><path d="M160.439,55.192l1.483.849a.111.111,0,0,0,.11-.193L160.549,55A.111.111,0,0,0,160.439,55.192Z" transform="translate(-151.686 -51.494)" fill="#fff"/><path d="M170.682,70.583l-.517-.3a.111.111,0,0,0-.11.192l.517.3A.111.111,0,0,0,170.682,70.583Z" transform="translate(-160.692 -65.812)" fill="#fff"/><path d="M167.873,75.492l-.517-.3a.111.111,0,0,0-.11.192l.517.3A.111.111,0,0,0,167.873,75.492Z" transform="translate(-158.062 -70.409)" fill="#fff"/><path d="M142.6,25.689l1.711-2.988-.221-.765-2.176-1.245-1.986,3.469Zm-.586-4.636,1.825,1.045-.21.366.385.22L142.5,25.325l-2.21-1.265Z" transform="translate(-132.531 -19.377)" fill="#fff"/><path d="M31.989,11.665l.281.165-.239.4,1.262.744.225-.382.281.165-.225.382.095.056,1.918-3.253-.095-.056-.252.427-.281-.165.252-.427-1.262-.744-.238.4-.28-.165.238-.4-.091-.054-1.918,3.253.091.054Zm1.884.969-.281-.165.268-.454.281.165Zm1.01-2.354.281.165L34.9,10.9l-.281-.165Zm-.343.582.281.165-.268.454-.281-.165Zm-.343.582.281.165-.268.454-.281-.165Zm-.438-.829c.054-.028.139-.006.138.068,0,.2,0,.395,0,.593a.09.09,0,0,1-.128.086l-.526-.312a.088.088,0,0,1-.034-.037.074.074,0,0,1,.018-.111l.005,0h0a.071.071,0,0,1,.026-.013Zm-.4-1.267.28.165-.268.454-.28-.165Zm-.343.582.281.166-.268.454-.281-.165Zm-.343.582.281.165-.268.454-.281-.165Zm-.336.571.281.165-.268.454-.281-.165Z" transform="translate(-31.131 -8.206)" fill="#fff"/></g></g></g></svg>