<svg xmlns="http://www.w3.org/2000/svg" width="20" height="16.23" viewBox="0 0 20 16.23"><g transform="translate(0 -41.206)"><g transform="translate(0 41.206)"><g transform="translate(0 0)"><path d="M87.617,41.206H73.894a1.488,1.488,0,0,0-1.482,1.482v8.527A1.488,1.488,0,0,0,73.894,52.7h9.46l2.141,2.159a.458.458,0,0,0,.329.146.472.472,0,0,0,.476-.476V52.7h1.317A1.488,1.488,0,0,0,89.1,51.215V42.688A1.488,1.488,0,0,0,87.617,41.206Z" transform="translate(-69.1 -41.206)" fill="#fff"/><path d="M2.471,200.115v-2.909H.97a.976.976,0,0,0-.97.97v5.6a.962.962,0,0,0,.97,1.006h.86v1.208a.321.321,0,0,0,.311.311.3.3,0,0,0,.22-.092L3.77,204.8H9.991a.976.976,0,0,0,.97-.97v-1.391H4.795A2.327,2.327,0,0,1,2.471,200.115Z" transform="translate(0 -190.07)" fill="#fff"/></g></g><g transform="translate(5.79 42.386)"><g transform="translate(4.964 3.695)"><path d="M235.226,150.988a1.49,1.49,0,0,1,.149.879.673.673,0,0,0,.187.325.832.832,0,0,0,.17.627.86.86,0,0,0,.682.27h.447a2.574,2.574,0,0,0,.5-.054q.27-.054.421-.1t.417-.137a2.532,2.532,0,0,1,.547-.152.229.229,0,0,0,.156-.068.207.207,0,0,0,.066-.154v-2.219a.209.209,0,0,0-.062-.151.227.227,0,0,0-.149-.071q-.083-.007-.263-.2t-.35-.419a5.113,5.113,0,0,0-.35-.415.531.531,0,0,1-.107-.166,1.115,1.115,0,0,1-.061-.168q-.016-.064-.047-.209t-.043-.211a1.031,1.031,0,0,0-.068-.18.6.6,0,0,0-.118-.173.213.213,0,0,0-.156-.066,1.034,1.034,0,0,0-.286.036.759.759,0,0,0-.208.09.485.485,0,0,0-.138.14.809.809,0,0,0-.083.156.878.878,0,0,0-.042.173,1.484,1.484,0,0,0-.017.156q0,.052,0,.135a1.079,1.079,0,0,0,.033.263,1.415,1.415,0,0,0,.066.208q.033.076.1.194.01.021.035.062a.574.574,0,0,1,.038.076.876.876,0,0,1,.028.083h-.959a.674.674,0,0,0-.665.665.759.759,0,0,0,.19.516A.825.825,0,0,0,235.226,150.988Z" transform="translate(-235.087 -147.771)" fill="#3a3d4d"/><path d="M324.77,196.279a.213.213,0,0,0-.066.156v2.216a.225.225,0,0,0,.222.222h1a.225.225,0,0,0,.222-.222v-2.216a.225.225,0,0,0-.222-.222h-1A.213.213,0,0,0,324.77,196.279Zm.488,1.928a.222.222,0,0,1,.379-.156.222.222,0,0,1-.313.313A.211.211,0,0,1,325.258,198.207Z" transform="translate(-320.605 -193.997)" fill="#3a3d4d"/></g><g transform="translate(0 0)"><path d="M277.97,68.38l.473.46-.112.653a.314.314,0,0,0,.454.33l.585-.311.585.311a.3.3,0,0,0,.33-.025.318.318,0,0,0,.124-.3l-.112-.653.473-.46a.3.3,0,0,0,.081-.317.309.309,0,0,0-.255-.212l-.653-.1-.292-.591a.323.323,0,0,0-.56,0l-.292.591-.653.1a.309.309,0,0,0-.255.212A.3.3,0,0,0,277.97,68.38Z" transform="translate(-270.953 -66.999)" fill="#3a3d4d"/><path d="M182.788,68.38l.473.46-.112.653a.318.318,0,0,0,.124.3.289.289,0,0,0,.18.062.331.331,0,0,0,.149-.037l.585-.311.585.311a.3.3,0,0,0,.33-.025.318.318,0,0,0,.124-.3l-.112-.653.473-.46a.3.3,0,0,0,.081-.317.31.31,0,0,0-.255-.212l-.653-.1-.292-.591a.323.323,0,0,0-.56,0l-.292.591-.653.1a.31.31,0,0,0-.255.212A.3.3,0,0,0,182.788,68.38Z" transform="translate(-180.125 -66.999)" fill="#3a3d4d"/><path d="M126.676,136.822l.47.46-.112.653a.314.314,0,0,0,.454.33l.585-.311.585.311a.314.314,0,0,0,.454-.33l-.112-.653.473-.46a.3.3,0,0,0,.081-.317.309.309,0,0,0-.255-.211l-.653-.1-.292-.591a.323.323,0,0,0-.56,0l-.292.591-.651.1A.309.309,0,0,0,126.676,136.822Z" transform="translate(-126.581 -132.31)" fill="#3a3d4d"/></g></g></g></svg>