<svg xmlns="http://www.w3.org/2000/svg" width="20" height="19.992" viewBox="0 0 20 19.992"><path d="M258.088,383.336a7.118,7.118,0,0,1-2.088.636v2.777a9.887,9.887,0,0,0,2.855-.744,3.773,3.773,0,0,1-.786-2.3C258.069,383.578,258.076,383.456,258.088,383.336Z" transform="translate(-244.966 -366.813)" fill="#fff"/><path d="M383.52,257.9c.12-.012.242-.018.366-.018a3.769,3.769,0,0,1,2.3.786,9.881,9.881,0,0,0,.744-2.855h-2.777A7.106,7.106,0,0,1,383.52,257.9Z" transform="translate(-366.989 -244.783)" fill="#fff"/><path d="M323.1,319.809a3.1,3.1,0,1,0,3.1,3.1A3.107,3.107,0,0,0,323.1,319.809Zm0,2.759a1.032,1.032,0,0,1,.345,2.005v.753h-.69v-.753a1.033,1.033,0,0,1-.69-.971h.69a.345.345,0,1,0,.345-.345,1.032,1.032,0,0,1-.345-2.006V320.5h.69v.753a1.033,1.033,0,0,1,.69.971h-.69a.345.345,0,1,0-.345.345Z" transform="translate(-306.207 -306.024)" fill="#fff"/><path d="M246.822,8.957H249.6A10.02,10.02,0,0,0,240,0V2.766A7.2,7.2,0,0,1,246.822,8.957Z" transform="translate(-229.655)" fill="#fff"/><path d="M2.759,10a7.244,7.244,0,0,1,6.9-7.224V.008a10,10,0,0,0-.69,19.936V17.167A7.213,7.213,0,0,1,2.759,10Z" transform="translate(0 -0.008)" fill="#fff"/><path d="M89.724,149.326H88v.69h12.414v-.69H98.69v-5.517H96.621v5.517H95.241v-4.138H93.172v4.138H91.793v-2.759H89.724Z" transform="translate(-84.207 -137.61)" fill="#fff"/><path d="M144,175.809h.69v.69H144Z" transform="translate(-137.793 -168.231)" fill="#fff"/><path d="M144,143.809h.69v.69H144Z" transform="translate(-137.793 -137.61)" fill="#fff"/><path d="M224,143.809h.69v.69H224Z" transform="translate(-214.345 -137.61)" fill="#fff"/><path d="M224,111.809h.69v.69H224Z" transform="translate(-214.345 -106.99)" fill="#fff"/></svg>