<svg xmlns="http://www.w3.org/2000/svg" width="160" height="31.971" viewBox="0 0 160 31.971"><g transform="translate(200 -1063.646)"><g transform="translate(-200 1063.647)"><path d="M-200,1067.4c.268.019.536.051.8.053,3.163.025,6.326.014,9.488.08a7.039,7.039,0,0,1,3.865,1.261,5.281,5.281,0,0,1,2.3,5.082,5.024,5.024,0,0,1-3.168,4.362c-.261.122-.534.219-.883.36.563.164,1.064.265,1.53.453a5.613,5.613,0,0,1,3.546,5.322,5.963,5.963,0,0,1-3.7,5.775,13.452,13.452,0,0,1-5.36.983c-2.809.015-5.618.013-8.427.019Zm4.261,20.057c1.732,0,3.434.032,5.134-.017a5.906,5.906,0,0,0,1.76-.373,3.018,3.018,0,0,0,2.1-3.422,2.62,2.62,0,0,0-2.431-2.663c-2.154-.274-4.34-.289-6.561-.417Zm-.038-10.418c1.6,0,3.113.014,4.628-.009a4.556,4.556,0,0,0,1.163-.2,2.739,2.739,0,0,0,2.242-2.83,2.509,2.509,0,0,0-2.316-2.661c-1.859-.267-3.755-.268-5.645-.384a4.467,4.467,0,0,0-.07.468C-195.777,1073.271-195.776,1075.122-195.776,1077.038Z" transform="translate(200 -1066.931)" fill="#fff"/><path d="M946.134,1149.573c-.525-.179-1.056-.34-1.572-.539a9.487,9.487,0,0,1-3.054-1.868l2.359-3.225c.609.435,1.156.88,1.753,1.242a7.325,7.325,0,0,0,5.6.819,3.72,3.72,0,0,0,3-2.994,30.145,30.145,0,0,0,.37-3.211c-.172,0-.225-.016-.243,0a7.657,7.657,0,0,1-12.571-2.844,9.02,9.02,0,0,1,1.017-8.526,7.719,7.719,0,0,1,9.608-2.308,17.064,17.064,0,0,1,2.287,1.779v-2.2h3.817v16c-.042.222-.093.442-.124.665-.379,2.7-1.431,5-3.953,6.353a21.877,21.877,0,0,1-2.048.858Zm-.915-15.932a4.6,4.6,0,0,0,4.659,4.735,4.71,4.71,0,1,0-4.659-4.735Z" transform="translate(-798.509 -1117.604)" fill="#fff"/><path d="M343.6,1141.995h-3.974c-.01-.226-.029-.445-.029-.663q0-4.186,0-8.372c0-.271,0-.542-.007-.812-.045-1.515-.687-2.535-1.79-2.85a3.592,3.592,0,0,0-3.855,1.246,4.479,4.479,0,0,0-.749,2.66q0,4.03,0,8.06v.714h-3.956V1125.99h3.726v2.286a5.582,5.582,0,0,1,5.113-2.717,4.916,4.916,0,0,1,4.889,2.922c.2-.273.355-.479.5-.69,2.116-3.037,7.113-2.676,8.84-.757a6.2,6.2,0,0,1,1.634,4.024c.1,3.016.082,6.036.111,9.055.006.6,0,1.2,0,1.853H350.04v-.747c0-2.582,0-5.165,0-7.747,0-.5-.025-1-.069-1.5a2.674,2.674,0,0,0-2.135-2.717,3.061,3.061,0,0,0-3.636,1.6,7.033,7.033,0,0,0-.568,2.584c-.072,2.6-.026,5.206-.026,7.809Z" transform="translate(-263.084 -1117.814)" fill="#fff"/><path d="M554.066,1063.647h3.956V1073.8a1.449,1.449,0,0,0,.3-.192c2.47-3.061,8.767-3.255,11.609,1.193a9.711,9.711,0,0,1-.208,10.388,7.785,7.785,0,0,1-9.68,2.233,16.673,16.673,0,0,1-2.216-1.767v2.157h-3.758Zm3.843,16.179a4.705,4.705,0,1,0,4.707-4.825A4.607,4.607,0,0,0,557.909,1079.826Z" transform="translate(-459.808 -1063.647)" fill="#fff"/><path d="M15.382,1133.7a8.363,8.363,0,0,1,9.08-8.161,8.318,8.318,0,0,1,8.357,9c-.225,4.732-4.2,8.074-9.321,7.836A8.3,8.3,0,0,1,15.382,1133.7Zm8.743,5.069a4.808,4.808,0,1,0-4.727-4.813A4.634,4.634,0,0,0,24.125,1138.771Z" transform="translate(11.549 -1117.797)" fill="#fff"/><path d="M169.587,1134.019c0-4.859,3.662-8.421,8.68-8.433,5.06-.012,8.752,3.539,8.757,8.419a8.3,8.3,0,0,1-8.68,8.428C173.273,1142.438,169.592,1138.9,169.587,1134.019ZM173.6,1134a4.706,4.706,0,1,0,4.748-4.794A4.612,4.612,0,0,0,173.6,1134Z" transform="translate(-123.389 -1117.844)" fill="#fff"/><path d="M710.328,1135.776a3.957,3.957,0,0,0,2.7,3.52c2.343.773,4.286.038,5.929-1.86l2.857,2.15a7.909,7.909,0,0,1-4.838,3.006c-3.512.625-6.636-.15-8.913-3.026a8.159,8.159,0,0,1-1.047-8.614,7.789,7.789,0,0,1,6.789-4.886,9.711,9.711,0,0,1,3.4.191c3.026.769,4.551,2.983,5.115,5.913.222,1.151.229,2.344.342,3.606Zm.051-3.046H718.5c.071-2.188-1.427-3.653-3.8-3.77A3.945,3.945,0,0,0,710.38,1132.73Z" transform="translate(-592.97 -1118.205)" fill="#fff"/><path d="M-37.593,1063.654h3.914v24.159h-3.914Z" transform="translate(57.894 -1063.653)" fill="#fff"/><path d="M861.978,1142.039H858v-15.987h3.981v2.485c.189-.278.279-.4.362-.533a5.132,5.132,0,0,1,5.345-2.287c.382.075.564.208.551.643-.033,1.1-.011,2.2-.011,3.273a22.664,22.664,0,0,0-2.278-.165,3.878,3.878,0,0,0-3.964,4.026c-.031,2.6-.009,5.208-.009,7.811Z" transform="translate(-725.751 -1117.872)" fill="#fff"/></g></g></svg>