<svg xmlns="http://www.w3.org/2000/svg" width="38.828" height="21.025" viewBox="0 0 38.828 21.025"><g transform="translate(0 -104.721)"><g transform="translate(0 104.721)"><path d="M38.161,114.39a29,29,0,0,0-5.185-4.829,23.071,23.071,0,0,0-13.562-4.84,23.072,23.072,0,0,0-13.562,4.84A29,29,0,0,0,.667,114.39L0,115.234l.667.843a29,29,0,0,0,5.185,4.829,23.072,23.072,0,0,0,13.562,4.84,23.071,23.071,0,0,0,13.562-4.84,29,29,0,0,0,5.185-4.829l.667-.843ZM19.414,122.6a7.368,7.368,0,0,1-7.131-9.208l-1.681-.283a9.059,9.059,0,0,0,2.655,8.772,23.866,23.866,0,0,1-5.732-3.12,28.573,28.573,0,0,1-3.981-3.526,28.581,28.581,0,0,1,3.981-3.526,23.871,23.871,0,0,1,5.732-3.12l1.128,1.271A7.363,7.363,0,1,1,19.414,122.6Zm11.89-3.839a23.871,23.871,0,0,1-5.732,3.12,9.05,9.05,0,0,0,0-13.292,23.873,23.873,0,0,1,5.732,3.12,28.579,28.579,0,0,1,3.981,3.526A28.564,28.564,0,0,1,31.3,118.759Z" transform="translate(0 -104.721)" fill="#e4b940"/><path d="M170.967,174.224a4.908,4.908,0,1,0,1.292-2.1l2.417,2.724Z" transform="translate(-156.24 -165.143)" fill="#e4b940"/></g></g></svg>