<svg xmlns="http://www.w3.org/2000/svg" width="133.006" height="28.595" viewBox="0 0 133.006 28.595"><path d="M297.616,98.6h18.262v3.407H308.7V121.16h-3.948V102.007H297.6V98.6Zm17.482,6.225h3.375v3.152h.064a3.705,3.705,0,0,1,.621-1.29,5.742,5.742,0,0,1,1.1-1.146,5.856,5.856,0,0,1,1.433-.844,4.384,4.384,0,0,1,1.608-.318c.414,0,.716.016.876.032s.318.048.494.064v3.471c-.255-.048-.509-.08-.78-.111a6.611,6.611,0,0,0-.78-.048,4.22,4.22,0,0,0-1.719.366,3.962,3.962,0,0,0-1.4,1.067,5.417,5.417,0,0,0-.955,1.751,7.421,7.421,0,0,0-.35,2.4v7.77h-3.6V104.825Zm26.111,16.335h-3.535v-2.277h-.064a4.908,4.908,0,0,1-1.974,1.974,5.4,5.4,0,0,1-2.675.748c-2.149,0-3.71-.525-4.665-1.592a7.042,7.042,0,0,1-1.433-4.824V104.825h3.6V114.84a4.4,4.4,0,0,0,.828,3.041,3,3,0,0,0,2.309.892,4.426,4.426,0,0,0,1.895-.35,3.2,3.2,0,0,0,1.226-.939,3.606,3.606,0,0,0,.685-1.4,6.9,6.9,0,0,0,.207-1.767v-9.473h3.6Zm6.13-5.238a2.771,2.771,0,0,0,1.194,2.213,4.817,4.817,0,0,0,2.5.637,10.691,10.691,0,0,0,1.146-.08,4.813,4.813,0,0,0,1.21-.3,2.326,2.326,0,0,0,.939-.653,1.583,1.583,0,0,0,.334-1.114,1.538,1.538,0,0,0-.509-1.13,3.587,3.587,0,0,0-1.21-.716,12.144,12.144,0,0,0-1.688-.462c-.637-.127-1.274-.271-1.927-.414a18.287,18.287,0,0,1-1.942-.541,5.931,5.931,0,0,1-1.672-.86,3.781,3.781,0,0,1-1.178-1.369,4.282,4.282,0,0,1-.446-2.07,3.731,3.731,0,0,1,.653-2.229,4.949,4.949,0,0,1,1.64-1.449,7.6,7.6,0,0,1,2.213-.78,13.474,13.474,0,0,1,2.324-.223,10.838,10.838,0,0,1,2.42.271,6.237,6.237,0,0,1,2.086.876,5.156,5.156,0,0,1,1.544,1.56,5.432,5.432,0,0,1,.78,2.325h-3.757a2.241,2.241,0,0,0-1.178-1.735,4.826,4.826,0,0,0-2.133-.446,6.7,6.7,0,0,0-.908.064,4.968,4.968,0,0,0-.987.239,2.141,2.141,0,0,0-.78.509,1.231,1.231,0,0,0-.318.876,1.361,1.361,0,0,0,.462,1.067,3.861,3.861,0,0,0,1.194.685,12.145,12.145,0,0,0,1.688.462c.637.127,1.29.271,1.958.414.653.143,1.29.334,1.926.541a5.816,5.816,0,0,1,1.688.86A4.238,4.238,0,0,1,357.8,114.3a4.127,4.127,0,0,1,.462,2.022,4.4,4.4,0,0,1-.669,2.468,5.293,5.293,0,0,1-1.72,1.64,8.084,8.084,0,0,1-2.356.923,11.822,11.822,0,0,1-2.563.287,10.874,10.874,0,0,1-2.866-.35,6.977,6.977,0,0,1-2.277-1.051,5.21,5.21,0,0,1-1.513-1.767,5.8,5.8,0,0,1-.589-2.516h3.63Zm11.877-11.1h2.723v-4.9h3.6v4.9h3.248v2.691h-3.248v8.725a8.9,8.9,0,0,0,.048.987,1.815,1.815,0,0,0,.223.7,1.021,1.021,0,0,0,.525.43,2.566,2.566,0,0,0,.955.143c.255,0,.509,0,.764-.016a4.217,4.217,0,0,0,.764-.111v2.786c-.4.048-.8.08-1.162.127a9.308,9.308,0,0,1-1.162.064,8.054,8.054,0,0,1-2.293-.271,2.975,2.975,0,0,1-1.353-.8,2.763,2.763,0,0,1-.669-1.306,9.817,9.817,0,0,1-.207-1.8v-9.632h-2.723v-2.723Zm12.116,0h3.407v2.213h.064A4.445,4.445,0,0,1,376.92,105a6.978,6.978,0,0,1,2.945-.621,7.625,7.625,0,0,1,3.359.685,6.566,6.566,0,0,1,2.388,1.863,8.15,8.15,0,0,1,1.417,2.77,11.608,11.608,0,0,1,.478,3.375,11.733,11.733,0,0,1-.43,3.184,8.523,8.523,0,0,1-1.29,2.738,6.331,6.331,0,0,1-2.2,1.895,6.517,6.517,0,0,1-3.137.716,8.793,8.793,0,0,1-1.576-.143,6.938,6.938,0,0,1-1.513-.462,5.462,5.462,0,0,1-1.337-.812,5.045,5.045,0,0,1-1.035-1.146h-.064v8.152h-3.6Zm12.578,8.184a8.133,8.133,0,0,0-.287-2.149,5.8,5.8,0,0,0-.86-1.847,4.381,4.381,0,0,0-1.417-1.29,4.373,4.373,0,0,0-5.381,1.083,7,7,0,0,0-1.146,4.2,8.068,8.068,0,0,0,.3,2.293,5.12,5.12,0,0,0,.908,1.815,4.3,4.3,0,0,0,1.433,1.194,4.49,4.49,0,0,0,4.028-.064,4.4,4.4,0,0,0,1.4-1.306,5.425,5.425,0,0,0,.8-1.831,10.234,10.234,0,0,0,.223-2.1ZM390.262,98.6h3.6v3.407h-3.6Zm0,6.225h3.6V121.16h-3.6V104.825Zm6.814-6.225h3.6V121.16h-3.6V98.6Zm14.632,23.006a8.9,8.9,0,0,1-3.487-.653,7.307,7.307,0,0,1-4.2-4.506,10.51,10.51,0,0,1-.557-3.471,10.386,10.386,0,0,1,.557-3.439,7.765,7.765,0,0,1,1.608-2.723,7.332,7.332,0,0,1,2.6-1.783,9.638,9.638,0,0,1,6.974,0,7.307,7.307,0,0,1,4.2,4.506,10.385,10.385,0,0,1,.557,3.439,10.508,10.508,0,0,1-.557,3.471,7.764,7.764,0,0,1-1.608,2.723,7.333,7.333,0,0,1-2.6,1.783,8.9,8.9,0,0,1-3.487.653Zm0-2.85a4.172,4.172,0,0,0,2.086-.509,4.438,4.438,0,0,0,1.449-1.321,5.932,5.932,0,0,0,.844-1.847,8.233,8.233,0,0,0,0-4.187,5.447,5.447,0,0,0-.844-1.847,4.392,4.392,0,0,0-1.449-1.306,4.524,4.524,0,0,0-4.171,0,4.572,4.572,0,0,0-1.449,1.306,5.77,5.77,0,0,0-.844,1.847,8.233,8.233,0,0,0,0,4.187,5.592,5.592,0,0,0,.844,1.847,4.438,4.438,0,0,0,1.449,1.321,4.013,4.013,0,0,0,2.086.509Zm9.3-13.931h2.723v-4.9h3.6v4.9h3.248v2.691h-3.248v8.725a8.9,8.9,0,0,0,.048.987,1.816,1.816,0,0,0,.223.7,1.021,1.021,0,0,0,.525.43,2.566,2.566,0,0,0,.955.143c.255,0,.509,0,.764-.016a4.216,4.216,0,0,0,.764-.111v2.786c-.4.048-.8.08-1.162.127a9.307,9.307,0,0,1-1.162.064,8.054,8.054,0,0,1-2.293-.271,2.975,2.975,0,0,1-1.353-.8,2.763,2.763,0,0,1-.669-1.306,9.817,9.817,0,0,1-.207-1.8v-9.632h-2.723v-2.723Z" transform="translate(-297.6 -98.6)" fill="#fff"/></svg>