<svg xmlns="http://www.w3.org/2000/svg" xmlns:xlink="http://www.w3.org/1999/xlink" width="1108" height="546.838" viewBox="0 0 1108 546.838"><defs><clipPath id="a"><circle cx="160" cy="160" r="160" transform="translate(918 4784)" fill="none" stroke-dasharray="5" stroke-linecap="round" stroke-linejoin="round" stroke-width="1" stroke="#e4b940"/></clipPath><clipPath id="b"><path d="M.436.611,45.076.6l0,116.456-44.663.013Z" transform="translate(1088 4843)" fill="none"/></clipPath><clipPath id="c"><rect width="45" height="117" transform="translate(1088 4960)" fill="#fff"/></clipPath><clipPath id="d"><rect width="45" height="59" transform="translate(1088 5018)" fill="#fff"/></clipPath><linearGradient id="e" x1="0.146" y1="0.146" x2="0.952" y2="0.974" gradientUnits="objectBoundingBox"><stop offset="0" stop-color="#565a6f"/><stop offset="1" stop-color="#3e4257"/></linearGradient><filter id="f" x="860.5" y="80.5" width="108" height="108" filterUnits="userSpaceOnUse"><feOffset dy="15" input="SourceAlpha"/><feGaussianBlur stdDeviation="10" result="g"/><feFlood flood-opacity="0.4"/><feComposite operator="in" in2="g"/><feComposite in="SourceGraphic"/></filter><filter id="i" x="860.5" y="166.5" width="108" height="108" filterUnits="userSpaceOnUse"><feOffset dy="15" input="SourceAlpha"/><feGaussianBlur stdDeviation="10" result="j"/><feFlood flood-opacity="0.4"/><feComposite operator="in" in2="j"/><feComposite in="SourceGraphic"/></filter><filter id="l" x="860.5" y="225.5" width="108" height="108" filterUnits="userSpaceOnUse"><feOffset dy="15" input="SourceAlpha"/><feGaussianBlur stdDeviation="10" result="m"/><feFlood flood-opacity="0.4"/><feComposite operator="in" in2="m"/><feComposite in="SourceGraphic"/></filter></defs><g transform="translate(-130 -4629)"><g transform="translate(130 4718.269)"><g transform="translate(0 137.731)"><g transform="translate(27 273)"><text transform="translate(686.392 -0.561) rotate(-60)" fill="#626f86" font-size="12" font-family="Lato-Regular, Lato"><tspan x="-52.26" y="0">18:00 PM</tspan></text><text transform="translate(581.393 44.472) rotate(-60)" fill="#626f86" font-size="12" font-family="Lato-Regular, Lato"><tspan x="0" y="0">17:00 PM</tspan></text><text transform="translate(501.393 44.441) rotate(-60)" fill="#626f86" font-size="12" font-family="Lato-Regular, Lato"><tspan x="0" y="0">16:00 PM</tspan></text><text transform="translate(422.392 44.441) rotate(-60)" fill="#626f86" font-size="12" font-family="Lato-Regular, Lato"><tspan x="0" y="0">15:00 PM</tspan></text><text transform="translate(342.393 44.204) rotate(-60)" fill="#626f86" font-size="12" font-family="Lato-Regular, Lato"><tspan x="0" y="0">14:00 PM</tspan></text><text transform="translate(263.392 44.204) rotate(-60)" fill="#626f86" font-size="12" font-family="Lato-Regular, Lato"><tspan x="0" y="0">13:00 PM</tspan></text><text transform="translate(162 9)" fill="#626f86" font-size="12" font-family="Lato-Regular, Lato"><tspan x="0" y="0">12 Dec</tspan></text><text transform="translate(83 9)" fill="#626f86" font-size="12" font-family="Lato-Regular, Lato"><tspan x="0" y="0">6 Dec</tspan></text><text transform="translate(0 9)" fill="#626f86" font-size="12" font-family="Lato-Regular, Lato"><tspan x="0" y="0">30 Nov</tspan></text></g><g transform="translate(701)"><text transform="translate(21 250)" fill="#626f86" font-size="12" font-family="Lato-Bold, Lato" font-weight="700"><tspan x="-20.88" y="0">200</tspan></text><text transform="translate(21 147)" fill="#626f86" font-size="12" font-family="Lato-Bold, Lato" font-weight="700"><tspan x="-20.88" y="0">250</tspan></text><text transform="translate(21 49)" fill="#626f86" font-size="12" font-family="Lato-Bold, Lato" font-weight="700"><tspan x="-20.88" y="0">300</tspan></text><text transform="translate(21 -52)" fill="#626f86" font-size="12" font-family="Lato-Bold, Lato" font-weight="700"><tspan x="-20.88" y="0">350</tspan></text><text transform="translate(21 -154)" fill="#626f86" font-size="12" font-family="Lato-Bold, Lato" font-weight="700"><tspan x="-20.88" y="0">400</tspan></text></g></g><g transform="translate(0 64.731)"><rect width="722" height="1" transform="translate(0 126)" fill="#3e495b"/><rect width="722" height="1" transform="translate(0 25)" fill="#3e495b"/><rect width="722" height="1" transform="translate(0 -76)" fill="#3e495b"/><rect width="722" height="1" transform="translate(0 227)" fill="#3e495b"/><rect width="722" height="1" transform="translate(0 328)" fill="#3e495b"/></g><g transform="translate(350 37.696)"><path d="M671.68,375.99V350.3h-1.2V375.99h-3.174v81.69h7.547V375.99Z" transform="translate(-667.307 -350.296)" fill="#41bf50"/></g><g transform="translate(364 0)"><path d="M686.121,368.739h-4.83V327.894h-1.825v40.845h-4.83V495.52h4.83V509.2h1.825V495.52h4.83Z" transform="translate(-674.637 -327.894)" fill="#41bf50"/></g><g transform="translate(418 6.399)"><path d="M716.015,372.541h-4.83V331.7h-1.825v40.845h-4.83V499.323h4.83V513h1.825V499.323h4.83Z" transform="translate(-704.531 -331.697)" fill="#f25b5b"/></g><g transform="translate(335 24.678)"><path d="M669.331,383.4h-3.555V342.559h-1.343V383.4h-3.555V510.185h3.555v13.681h1.343V510.185h3.555Z" transform="translate(-660.878 -342.559)" fill="#f25b5b"/></g><g transform="translate(436 88.878)"><path d="M721.047,403.954h-3.283V380.712h-1.24v23.242h-3.282V476.1h3.282v7.785h1.24V476.1h3.283Z" transform="translate(-713.242 -380.712)" fill="#f25b5b"/></g><g transform="translate(450 100.647)"><path d="M726.493,410.949H724.74V387.707h-.662v23.242h-1.753v72.143h1.753v7.785h.662v-7.785h1.753Z" transform="translate(-722.325 -387.707)" fill="#f25b5b"/></g><g transform="translate(460 106.93)"><path d="M730.11,429.532h-1.753V391.44h-.662v38.092h-1.753V547.767h1.753v12.759h.662V547.767h1.753Z" transform="translate(-725.942 -391.44)" fill="#41bf50"/></g><g transform="translate(528.001 169.427)"><path d="M787.881,451.823H784.6V428.581h-1.24v23.242h-3.282v72.142h3.282v7.785h1.24v-7.785h3.282Z" transform="translate(-780.076 -428.581)" fill="#f25b5b"/></g><g transform="translate(542 181.197)"><path d="M793.327,458.817h-1.753V435.575h-.662v23.242h-1.753V530.96h1.753v7.785h.662V530.96h1.753Z" transform="translate(-789.159 -435.575)" fill="#f25b5b"/></g><g transform="translate(553 187.479)"><path d="M796.944,477.4h-1.753V439.308h-.662V477.4h-1.753V595.635h1.753v12.759h.662V595.635h1.753Z" transform="translate(-792.776 -439.308)" fill="#41bf50"/></g><g transform="translate(482 218.857)"><path d="M748.183,481.2H746.43V457.956h-.662V481.2h-1.753v72.142h1.753v7.785h.662v-7.785h1.753Z" transform="translate(-744.014 -457.956)" fill="#41bf50"/></g><g transform="translate(471 219.432)"><path d="M742.885,496.39h-1.753V458.3h-.662V496.39h-1.753V614.625h1.753v12.759h.662V614.625h1.753Z" transform="translate(-738.717 -458.298)" fill="#41bf50"/></g><g transform="translate(400 12.559)"><path d="M702.169,349.18V335.358h-1.825V349.18h-4.83V452.762H707V349.18Z" transform="translate(-695.515 -335.358)" fill="#41bf50"/></g><g transform="translate(382 19.671)"><path d="M697.18,350.372h-4.83V339.584h-1.825v10.789H685.7v67.339h4.83v9.131h1.825v-9.131h4.83Z" transform="translate(-685.696 -339.584)" fill="#41bf50"/></g><g transform="translate(492 210.537)"><path d="M765.212,463.8h-4.83V453.012h-1.825V463.8h-4.83V531.14h4.83v9.131h1.825V531.14h4.83Z" transform="translate(-753.728 -453.012)" fill="#41bf50"/></g><g transform="translate(317 96.927)"><path d="M660.576,397.568h-4.83V385.5h-1.825v12.072h-4.829v75.352h4.829v10.217h1.825V472.921h4.829Z" transform="translate(-649.092 -385.496)" fill="#41bf50"/></g><g transform="translate(617.001 112.995)"><path d="M863.158,409h-4.83V395.045H856.5V409h-4.83v87.1h4.83v11.81h1.825V496.1h4.829Z" transform="translate(-851.674 -395.045)" fill="#41bf50"/></g><g transform="translate(564 178.897)"><path d="M813.23,457.451h-3.282V434.209h-1.24v23.242h-3.282v72.142h3.282v7.785h1.24v-7.785h3.282Z" transform="translate(-805.425 -434.209)" fill="#f25b5b"/></g><g transform="translate(87 120.861)"><path d="M538.727,422.961h-3.283V399.719H534.2v23.242h-3.282V495.1H534.2v7.785h1.24V495.1h3.283Z" transform="translate(-530.922 -399.719)" fill="#f25b5b"/></g><g transform="translate(101.999 132.631)"><path d="M544.174,429.956H542.42V406.713h-.662v23.242h-1.753V502.1h1.753v7.785h.662V502.1h1.753Z" transform="translate(-540.005 -406.713)" fill="#f25b5b"/></g><g transform="translate(112 138.913)"><path d="M547.79,448.539h-1.753V410.447h-.662v38.092h-1.753V566.774h1.753v12.759h.662V566.774h1.753Z" transform="translate(-543.622 -410.447)" fill="#41bf50"/></g><g transform="translate(123 224.431)"><path d="M555.018,484.51h-3.282V461.268H550.5V484.51h-3.282v72.142H550.5v7.785h1.24v-7.785h3.282Z" transform="translate(-547.213 -461.268)" fill="#f25b5b"/></g><g transform="translate(137 234.558)"><path d="M562.124,497.681h-3.282V467.287H557.6v30.395h-3.282v94.344H557.6v10.181h1.24V592.026h3.282Z" transform="translate(-554.319 -467.287)" fill="#f25b5b"/></g><g transform="translate(578.001 182.973)"><path d="M818.677,459.873h-1.753V436.631h-.662v23.242h-1.753v72.142h1.753V539.8h.662v-7.785h1.753Z" transform="translate(-814.508 -436.631)" fill="#f25b5b"/></g><g transform="translate(635 36.395)"><path d="M869.244,372.764h-3.283V349.522h-1.24v23.242h-3.282v72.142h3.282v7.785h1.24v-7.785h3.283Z" transform="translate(-861.438 -349.522)" fill="#f25b5b"/></g><g transform="translate(649 48.164)"><path d="M874.69,379.759h-1.753V356.517h-.662v23.242h-1.753V451.9h1.753v7.785h.662V451.9h1.753Z" transform="translate(-870.521 -356.517)" fill="#f25b5b"/></g><g transform="translate(660 54.447)"><path d="M878.307,398.342h-1.753V360.25h-.662v38.092h-1.753V516.577h1.753v12.759h.662V516.577h1.753Z" transform="translate(-874.138 -360.25)" fill="#41bf50"/></g><g transform="translate(217 171.347)"><path d="M602.828,434.3h-2.55v-4.577h-.964V434.3h-2.55v28.569h2.55v3.874h.964v-3.874h2.55Z" transform="translate(-596.764 -429.722)" fill="#41bf50"/></g><g transform="translate(230 161.992)"><path d="M609.2,431.786h-3.283v-7.624h-1.24v7.624h-3.283v23.664h3.283V458h1.24v-2.554H609.2Z" transform="translate(-601.394 -424.162)" fill="#f25b5b"/></g><g transform="translate(243.999 161.992)"><path d="M614.645,431.786h-1.753v-7.624h-.663v7.624h-1.753v23.664h1.753V458h.663v-2.554h1.753Z" transform="translate(-610.477 -424.162)" fill="#f25b5b"/></g><g transform="translate(255 151.181)"><path d="M618.262,430.232h-1.753V417.738h-.662v12.495h-1.753v38.783h1.753V473.2h.662v-4.185h1.753Z" transform="translate(-614.094 -417.738)" fill="#41bf50"/></g><g transform="translate(265 161.992)"><path d="M630.348,431.786h-3.282v-7.624h-1.24v7.624h-3.282v23.664h3.282V458h1.24v-2.554h3.282Z" transform="translate(-622.543 -424.162)" fill="#f25b5b"/></g><g transform="translate(280 161.992)"><path d="M635.794,431.786h-1.753v-7.624h-.662v7.624h-1.753v23.664h1.753V458h.662v-2.554h1.753Z" transform="translate(-631.626 -424.162)" fill="#f25b5b"/></g><g transform="translate(290 149.427)"><path d="M642.944,421.272h-2.55V416.7h-.964v4.577h-2.551v28.569h2.55v3.874h.964v-3.874h2.55Z" transform="translate(-636.879 -416.695)" fill="#41bf50"/></g><g transform="translate(303 151.017)"><path d="M649.315,425.264h-3.282V417.64h-1.24v7.624H641.51v23.663h3.283v2.554h1.24v-2.554h3.282Z" transform="translate(-641.51 -417.64)" fill="#f25b5b"/></g><g transform="translate(607 84.884)"><path d="M843.8,416.43h-1.753V378.339h-.662V416.43h-1.753V534.665h1.753v12.759h.662V534.665H843.8Z" transform="translate(-839.636 -378.339)" fill="#41bf50"/></g><g transform="translate(589 149.992)"><path d="M838.348,426.988h-4.83v-9.957h-1.825v9.957h-4.83v62.146h4.83v8.427h1.825v-8.427h4.829Z" transform="translate(-826.864 -417.031)" fill="#41bf50"/></g><g transform="translate(191 197.563)"><path d="M590.247,457.425h-3.414V445.3h-1.29v12.124h-3.414V533.1h3.414v10.261h1.29V533.1h3.414Z" transform="translate(-582.129 -445.301)" fill="#41bf50"/></g><g transform="translate(205 131.012)"><path d="M594.549,425.944h-2.32V405.751h-.877v20.193h-2.32v62.678h2.32v6.764h.877v-6.764h2.32Z" transform="translate(-589.032 -405.751)" fill="#f25b5b"/></g><g transform="translate(179 226.097)"><path d="M582.541,482.451h-2.32V462.258h-.877v20.193h-2.32V545.13h2.32v6.764h.877V545.13h2.32Z" transform="translate(-577.024 -462.258)" fill="#f25b5b"/></g><g transform="translate(168.999 173.14)"><path d="M576.566,463.882h-1.239V430.787h-.468v33.095h-1.239V566.606h1.239v11.085h.468V566.606h1.239Z" transform="translate(-573.619 -430.787)" fill="#41bf50"/></g><g transform="translate(150.999 263.197)"><path d="M575.131,491.935H570.3v-7.629h-1.825v7.629h-4.83v47.619h4.83v6.457H570.3v-6.457h4.83Z" transform="translate(-563.647 -484.306)" fill="#41bf50"/></g><g transform="translate(23 129.008)"><path d="M505.174,412.19h-3.117v-7.629H500.88v7.629h-3.117v47.619h3.117v6.457h1.178v-6.457h3.117Z" transform="translate(-497.763 -404.561)" fill="#41bf50"/></g><g transform="translate(36.999 87.129)"><path d="M509.1,392.38h-2.118V379.673h-.8V392.38h-2.118v39.442h2.118v4.256h.8v-4.256H509.1Z" transform="translate(-504.064 -379.673)" fill="#f25b5b"/></g><g transform="translate(48 93.564)"><path d="M512.617,396.2h-1.132V383.5h-.428V396.2h-1.131v39.442h1.131V439.9h.428v-4.256h1.132Z" transform="translate(-509.926 -383.497)" fill="#f25b5b"/></g><g transform="translate(57.999 96.998)"><path d="M514.951,406.363h-1.131V385.538h-.427v20.826h-1.131v64.642h1.131v6.976h.427v-6.976h1.131Z" transform="translate(-512.261 -385.538)" fill="#41bf50"/></g><g transform="translate(67.001 92.306)"><path d="M525.462,395.456h-2.119V382.75h-.8v12.707h-2.118V434.9h2.118v4.256h.8V434.9h2.119Z" transform="translate(-520.424 -382.75)" fill="#f25b5b"/></g><g transform="translate(77.999 94.535)"><path d="M528.977,396.781h-1.131V384.074h-.427v12.707h-1.131v39.442h1.131v4.256h.427v-4.256h1.131Z" transform="translate(-526.286 -384.074)" fill="#f25b5b"/></g><g transform="translate(13.999 113.639)"><path d="M492.684,416.253h-1.131V395.427h-.427v20.826h-1.131v64.642h1.131v6.976h.427v-6.976h1.131Z" transform="translate(-489.993 -395.427)" fill="#41bf50"/></g><g transform="translate(0 149.235)"><path d="M489.162,424.21h-3.117v-7.629h-1.178v7.629H481.75v47.619h3.117v6.457h1.178v-6.457h3.117Z" transform="translate(-481.75 -416.581)" fill="#41bf50"/></g><g transform="translate(510 237.094)"><path d="M781.795,475.2h-4.83v-6.405H775.14V475.2h-4.83v39.978h4.83V520.6h1.825v-5.421h4.829Z" transform="translate(-770.31 -468.794)" fill="#f25b5b"/></g></g><line x1="170" y2="69" transform="translate(754.5 4829.5)" stroke-dasharray="6" stroke="#e4b940" stroke-linecap="round" stroke-width="2" fill="none"/><g transform="translate(687 4874)" fill="none" stroke="#e4b940" stroke-linecap="round" stroke-linejoin="round" stroke-width="2" stroke-dasharray="5"><circle cx="35.5" cy="35.5" r="35.5" stroke="none"/><circle cx="35.5" cy="35.5" r="34.5" fill="none"/></g><g transform="translate(0 -155)"><g clip-path="url(#a)"><g transform="translate(-1202.637 4222.911)"><g transform="translate(1361.407 146.626)"><path d="M684.318,450.242V350.3h-4.665v99.946H667.307V768h29.357V450.242Z" transform="translate(-667.307 -350.296)" fill="#41bf50"/></g><g transform="translate(1415.864 0)"><path d="M719.307,486.771H700.521V327.894h-7.1V486.771H674.637V979.916h18.786v53.218h7.1V979.916h18.786Z" transform="translate(-674.637 -327.894)" fill="#41bf50"/></g><g transform="translate(1625.91 24.889)"><path d="M749.2,490.573H730.415V331.7h-7.1V490.573H704.531V983.718h18.787v53.217h7.1V983.718H749.2Z" transform="translate(-704.531 -331.696)" fill="#f25b5b"/></g><g transform="translate(1303.062 95.989)"><path d="M693.758,501.436H679.93V342.559h-5.225V501.436H660.877V994.581h13.828V1047.8h5.225V994.581h13.828Z" transform="translate(-660.877 -342.559)" fill="#f25b5b"/></g><g transform="translate(1695.926 345.711)"><path d="M743.6,471.118H730.834V380.712H726.01v90.406H713.242V751.733H726.01v30.282h4.824V751.733H743.6Z" transform="translate(-713.242 -380.712)" fill="#f25b5b"/></g><g transform="translate(1750.384 391.492)"><path d="M738.539,478.112h-6.82V387.707h-2.576v90.406h-6.819V758.728h6.819V789.01h2.576V758.728h6.82Z" transform="translate(-722.325 -387.707)" fill="#f25b5b"/></g><g transform="translate(1789.28 415.928)"><path d="M742.156,539.607h-6.82V391.44h-2.576V539.607h-6.819v459.9h6.819v49.63h2.576V999.51h6.82Z" transform="translate(-725.941 -391.44)" fill="#41bf50"/></g><g transform="translate(2053.784 659.026)"><path d="M810.435,518.987H797.667V428.581h-4.824v90.406H780.076V799.6h12.767v30.283h4.824V799.6h12.768Z" transform="translate(-780.076 -428.581)" fill="#f25b5b"/></g><g transform="translate(2108.239 704.808)"><path d="M805.373,525.981h-6.819V435.575h-2.576v90.406h-6.819V806.6h6.819v30.282h2.576V806.6h6.819Z" transform="translate(-789.159 -435.575)" fill="#f25b5b"/></g><g transform="translate(2151.025 729.243)"><path d="M808.99,587.476h-6.819V439.308h-2.576V587.476h-6.819v459.9h6.819v49.63h2.576v-49.63h6.819Z" transform="translate(-792.776 -439.308)" fill="#41bf50"/></g><g transform="translate(1874.855 851.298)"><path d="M760.23,548.362H753.41V457.956h-2.576v90.406h-6.82V828.977h6.82V859.26h2.576V828.977h6.819Z" transform="translate(-744.014 -457.956)" fill="#41bf50"/></g><g transform="translate(1832.068 853.535)"><path d="M754.932,606.465h-6.819V458.3h-2.577V606.465h-6.819v459.9h6.819V1116h2.577v-49.63h6.819Z" transform="translate(-738.717 -458.298)" fill="#41bf50"/></g><g transform="translate(1555.896 48.852)"><path d="M721.4,389.122V335.358h-7.1v53.765H695.515V792.029h44.671V389.122Z" transform="translate(-695.515 -335.358)" fill="#41bf50"/></g><g transform="translate(1485.881 76.514)"><path d="M730.366,381.548H711.58V339.584h-7.1v41.964H685.7V643.481h18.786V679h7.1V643.481h18.786Z" transform="translate(-685.696 -339.584)" fill="#41bf50"/></g><g transform="translate(1913.751 818.934)"><path d="M798.4,494.977H779.611V453.012h-7.1v41.965H753.728V756.909h18.786v35.517h7.1V756.909H798.4Z" transform="translate(-753.728 -453.012)" fill="#41bf50"/></g><g transform="translate(1233.046 377.022)"><path d="M693.762,432.454H674.976V385.5h-7.1v46.959H649.092v293.1h18.785V765.3h7.1V725.555h18.785Z" transform="translate(-649.092 -385.496)" fill="#41bf50"/></g><g transform="translate(2399.972 439.522)"><path d="M896.344,449.323H877.558V395.044h-7.1v54.278H851.674V788.115H870.46v45.938h7.1V788.115h18.786Z" transform="translate(-851.674 -395.044)" fill="#41bf50"/></g><g transform="translate(2193.813 695.863)"><path d="M835.785,524.615H823.017V434.209h-4.824v90.406H805.425V805.229h12.768v30.283h4.824V805.229h12.768Z" transform="translate(-805.425 -434.209)" fill="#f25b5b"/></g><g transform="translate(338.407 470.117)"><path d="M561.282,490.125H548.514V399.719H543.69v90.406H530.922V770.74H543.69v30.283h4.824V770.74h12.768Z" transform="translate(-530.922 -399.719)" fill="#f25b5b"/></g><g transform="translate(396.751 515.899)"><path d="M556.22,497.119H549.4V406.713h-2.576v90.406h-6.819V777.734h6.819v30.282H549.4V777.734h6.82Z" transform="translate(-540.005 -406.713)" fill="#f25b5b"/></g><g transform="translate(435.651 540.334)"><path d="M559.837,558.614h-6.82V410.447h-2.576V558.614h-6.819v459.9h6.819v49.63h2.576v-49.63h6.82Z" transform="translate(-543.622 -410.447)" fill="#41bf50"/></g><g transform="translate(478.438 872.977)"><path d="M577.573,551.674H564.8V461.268h-4.824v90.406H547.213V832.289h12.768v30.282H564.8V832.289h12.768Z" transform="translate(-547.213 -461.268)" fill="#f25b5b"/></g><g transform="translate(532.894 912.369)"><path d="M584.679,585.515H571.911V467.287h-4.824V585.515H554.319V952.488h12.767v39.6h4.824v-39.6h12.768Z" transform="translate(-554.319 -467.287)" fill="#f25b5b"/></g><g transform="translate(2248.272 711.717)"><path d="M830.723,527.037H823.9V436.631h-2.576v90.406h-6.819V807.652h6.819v30.283H823.9V807.652h6.82Z" transform="translate(-814.508 -436.631)" fill="#f25b5b"/></g><g transform="translate(2469.983 141.565)"><path d="M891.8,439.928H879.03V349.522h-4.824v90.406H861.438V720.543h12.768v30.283h4.824V720.543H891.8Z" transform="translate(-861.438 -349.522)" fill="#f25b5b"/></g><g transform="translate(2524.442 187.347)"><path d="M886.736,446.922h-6.819V356.517h-2.576v90.406h-6.82V727.538h6.82V757.82h2.576V727.538h6.819Z" transform="translate(-870.521 -356.517)" fill="#f25b5b"/></g><g transform="translate(2567.228 211.783)"><path d="M890.353,508.417h-6.819V360.25h-2.576V508.417h-6.82v459.9h6.82v49.63h2.576v-49.63h6.819Z" transform="translate(-874.138 -360.25)" fill="#41bf50"/></g><g transform="translate(844.072 666.494)"><path d="M620.352,447.526h-9.921v-17.8h-3.748v17.8h-9.92V558.653h9.92v15.068h3.749V558.653h9.92Z" transform="translate(-596.764 -429.722)" fill="#41bf50"/></g><g transform="translate(894.639 630.107)"><path d="M631.754,453.816H618.986V424.162h-4.824v29.654H601.394v92.045h12.769v9.933h4.824v-9.933h12.768Z" transform="translate(-601.394 -424.162)" fill="#f25b5b"/></g><g transform="translate(949.094 630.107)"><path d="M626.691,453.816h-6.819V424.162H617.3v29.654h-6.818v92.045H617.3v9.933h2.578v-9.933h6.819Z" transform="translate(-610.477 -424.162)" fill="#f25b5b"/></g><g transform="translate(991.885 588.056)"><path d="M630.308,466.338h-6.819v-48.6h-2.577v48.6h-6.819V617.192h6.819v16.279h2.577V617.192h6.819Z" transform="translate(-614.094 -417.738)" fill="#41bf50"/></g><g transform="translate(1030.779 630.107)"><path d="M652.9,453.816H640.135V424.162h-4.824v29.654H622.543v92.045h12.768v9.933h4.824v-9.933H652.9Z" transform="translate(-622.543 -424.162)" fill="#f25b5b"/></g><g transform="translate(1089.127 630.107)"><path d="M647.841,453.816h-6.819V424.162h-2.576v29.654h-6.82v92.045h6.82v9.933h2.576v-9.933h6.819Z" transform="translate(-631.626 -424.162)" fill="#f25b5b"/></g><g transform="translate(1128.025 581.232)"><path d="M660.468,434.5h-9.92V416.7H646.8v17.8h-9.921V545.627h9.92V560.7h3.748V545.627h9.92Z" transform="translate(-636.879 -416.695)" fill="#41bf50"/></g><g transform="translate(1178.589 587.415)"><path d="M671.87,447.294H659.1V417.64h-4.824v29.654H641.51v92.045h12.768v9.933H659.1v-9.933H671.87Z" transform="translate(-641.51 -417.64)" fill="#f25b5b"/></g><g transform="translate(2361.072 330.176)"><path d="M855.851,526.506h-6.819V378.339h-2.576V526.506h-6.819v459.9h6.819v49.63h2.576v-49.63h6.819Z" transform="translate(-839.636 -378.339)" fill="#41bf50"/></g><g transform="translate(742.941 768.469)"><path d="M613.705,492.459H600.426V445.3h-5.017v47.158h-13.28V786.806h13.279v39.912h5.018V786.806h13.279Z" transform="translate(-582.129 -445.301)" fill="#41bf50"/></g><g transform="translate(797.395 509.601)"><path d="M610.492,484.3h-9.025V405.751h-3.41V484.3h-9.026V728.1h9.026v26.309h3.41V728.1h9.025Z" transform="translate(-589.031 -405.751)" fill="#f25b5b"/></g><g transform="translate(696.263 879.457)"><path d="M598.485,540.8h-9.026V462.258h-3.41V540.8h-9.025v243.8h9.025v26.309h3.41V784.607h9.026Z" transform="translate(-577.024 -462.258)" fill="#f25b5b"/></g><g transform="translate(657.364 673.468)"><path d="M585.081,559.516h-4.821V430.787H578.44V559.516h-4.821V959.086h4.821v43.119h1.821V959.086h4.821Z" transform="translate(-573.619 -430.787)" fill="#41bf50"/></g><g transform="translate(587.348 1023.766)"><path d="M608.318,513.982H589.532V484.306h-7.1v29.676H563.647V699.207h18.786v25.116h7.1V699.207h18.786Z" transform="translate(-563.647 -484.306)" fill="#41bf50"/></g><g transform="translate(89.465 501.808)"><path d="M526.592,434.236H514.468V404.561h-4.581v29.676H497.763V619.461h12.124v25.116h4.582V619.461h12.124Z" transform="translate(-497.763 -404.561)" fill="#41bf50"/></g><g transform="translate(143.917 338.908)"><path d="M523.658,429.1h-8.24V379.673H512.3V429.1h-8.24V582.518h8.24v16.556h3.113V582.518h8.24Z" transform="translate(-504.064 -379.673)" fill="#f25b5b"/></g><g transform="translate(186.706 363.938)"><path d="M520.392,432.923h-4.4V383.5h-1.663v49.427h-4.4V586.342h4.4V602.9h1.663V586.342h4.4Z" transform="translate(-509.926 -383.497)" fill="#f25b5b"/></g><g transform="translate(225.603 377.297)"><path d="M522.725,466.544h-4.4V385.538h-1.662v81.006h-4.4v251.44h4.4v27.134h1.662V717.984h4.4Z" transform="translate(-512.26 -385.538)" fill="#41bf50"/></g><g transform="translate(260.615 359.047)"><path d="M540.019,432.176h-8.241V382.75h-3.113v49.427h-8.24V585.6h8.24v16.556h3.113V585.6h8.241Z" transform="translate(-520.424 -382.75)" fill="#f25b5b"/></g><g transform="translate(303.397 367.715)"><path d="M536.751,433.5h-4.4V384.074h-1.663V433.5h-4.4V586.919h4.4v16.556h1.663V586.919h4.4Z" transform="translate(-526.286 -384.074)" fill="#f25b5b"/></g><g transform="translate(54.454 442.026)"><path d="M500.458,476.433h-4.4V395.427h-1.663v81.006h-4.4v251.44h4.4v27.134h1.663V727.873h4.4Z" transform="translate(-489.993 -395.427)" fill="#41bf50"/></g><g transform="translate(0 580.486)"><path d="M510.58,446.257H498.455V416.581h-4.581v29.676H481.75V631.482h12.124V656.6h4.582V631.482H510.58Z" transform="translate(-481.75 -416.581)" fill="#41bf50"/></g><g transform="translate(1983.766 922.232)"><path d="M814.981,493.708H796.194V468.794h-7.1v24.914H770.31V649.213H789.1V670.3h7.1V649.213h18.785Z" transform="translate(-770.31 -468.794)" fill="#f25b5b"/></g></g><g clip-path="url(#b)"><g transform="translate(1088.42 4806.342)"><line x2="82" transform="translate(12.088 10.158) rotate(45)" fill="none" stroke="#41bf50" stroke-width="4"/><line x2="75.991" y2="75.991" transform="translate(-5.92 5.159)" fill="none" stroke="#41bf50" stroke-width="4"/><line x2="75.991" y2="75.991" transform="translate(-5.92 19.158)" fill="none" stroke="#41bf50" stroke-width="4"/><line x2="75.991" y2="75.991" transform="translate(-5.92 33.158)" fill="none" stroke="#41bf50" stroke-width="4"/><line x2="75.991" y2="75.991" transform="translate(-5.92 47.158)" fill="none" stroke="#41bf50" stroke-width="4"/><line x2="75.991" y2="75.991" transform="translate(-5.92 61.159)" fill="none" stroke="#41bf50" stroke-width="4"/><line x2="75.991" y2="75.991" transform="translate(-5.92 76.158)" fill="none" stroke="#41bf50" stroke-width="4"/><line x2="75.991" y2="75.991" transform="translate(-5.92 90.158)" fill="none" stroke="#41bf50" stroke-width="4"/><line x2="75.991" y2="75.991" transform="translate(-5.92 104.158)" fill="none" stroke="#41bf50" stroke-width="4"/><line x2="75.991" y2="75.991" transform="translate(-5.92 119.158)" fill="none" stroke="#41bf50" stroke-width="4"/><line x2="75.991" y2="75.991" transform="translate(-5.92 133.158)" fill="none" stroke="#41bf50" stroke-width="4"/></g></g><g clip-path="url(#c)"><g transform="translate(1223.74 4948.298) rotate(90)"><line x2="126.704" y2="126.369" transform="translate(16.758 4.931)" fill="none" stroke="#f25b5b" stroke-width="4"/><line x2="126.704" y2="126.369" transform="translate(26.562 1.663)" fill="none" stroke="#f25b5b" stroke-width="4"/><line x2="141.193" y2="141.105" transform="translate(-1)" fill="none" stroke="#f25b5b" stroke-width="4"/><line x2="128.12" y2="130.566" transform="translate(2.268 13.807)" fill="none" stroke="#f25b5b" stroke-width="4"/><line x2="111.779" y2="113.491" transform="translate(2.268 27.613)" fill="none" stroke="#f25b5b" stroke-width="4"/><line x2="101.975" y2="102.953" transform="translate(2.268 41.42)" fill="none" stroke="#f25b5b" stroke-width="4"/><line x2="85.934" y2="86.013" transform="translate(2.268 55.227)" fill="none" stroke="#f25b5b" stroke-width="4"/><line x2="74.935" y2="74.942" transform="translate(2.268 70.02)" fill="none" stroke="#f25b5b" stroke-width="4"/><line x2="74.935" y2="74.942" transform="translate(2.268 83.826)" fill="none" stroke="#f25b5b" stroke-width="4"/><line x2="74.935" y2="74.942" transform="translate(2.268 97.633)" fill="none" stroke="#f25b5b" stroke-width="4"/><line x2="74.935" y2="74.942" transform="translate(2.268 112.426)" fill="none" stroke="#f25b5b" stroke-width="4"/><line x2="74.935" y2="74.942" transform="translate(2.268 126.233)" fill="none" stroke="#f25b5b" stroke-width="4"/></g></g><path d="M871.534,454.3H852.748V417.031h-7.1V454.3H826.863V686.949h18.786v31.546h7.1V686.949h18.785Z" transform="translate(261.557 4389.311)" fill="none" stroke="#41bf50" stroke-width="3"/><g clip-path="url(#d)"><g transform="translate(3894.254 679.005) rotate(45)"><line x2="82" transform="translate(1059.776 5022.043)" fill="none" stroke="#fff500" stroke-width="2"/><line x2="75.991" y2="75.991" transform="translate(1043.507 5031.241) rotate(-45)" fill="none" stroke="#fff500" stroke-width="2"/><line x2="75.991" y2="75.991" transform="translate(1053.406 5041.14) rotate(-45)" fill="none" stroke="#fff500" stroke-width="2"/><line x2="75.991" y2="75.991" transform="translate(1063.306 5051.04) rotate(-45)" fill="none" stroke="#fff500" stroke-width="2"/><line x2="75.991" y2="75.991" transform="translate(1073.205 5060.939) rotate(-45)" fill="none" stroke="#fff500" stroke-width="2"/><line x2="75.991" y2="75.991" transform="translate(1083.105 5070.839) rotate(-45)" fill="none" stroke="#fff500" stroke-width="2"/><line x2="75.991" y2="75.991" transform="translate(1093.711 5081.445) rotate(-45)" fill="none" stroke="#fff500" stroke-width="2"/><line x2="75.991" y2="75.991" transform="translate(1103.611 5091.345) rotate(-45)" fill="none" stroke="#fff500" stroke-width="2"/><line x2="75.991" y2="75.991" transform="translate(1113.51 5101.244) rotate(-45)" fill="none" stroke="#fff500" stroke-width="2"/><line x2="75.991" y2="75.991" transform="translate(1124.117 5111.851) rotate(-45)" fill="none" stroke="#fff500" stroke-width="2"/><line x2="75.991" y2="75.991" transform="translate(1134.016 5121.75) rotate(-45)" fill="none" stroke="#fff500" stroke-width="2"/></g></g></g><g transform="translate(-10 28)"><g transform="matrix(1, 0, 0, 1, 140, 4756)" filter="url(#f)"><circle cx="23.5" cy="23.5" r="23.5" transform="translate(891 96)" stroke="#e4b940" stroke-linecap="round" stroke-linejoin="round" stroke-width="1" fill="url(#e)"/></g><text transform="translate(1054 4886)" fill="#fff" font-size="30" font-family="SegoeUI, Segoe UI"><tspan x="-8.086" y="0">1</tspan></text></g><g transform="translate(-10 114)"><g transform="matrix(1, 0, 0, 1, 140, 4670)" filter="url(#i)"><circle cx="23.5" cy="23.5" r="23.5" transform="translate(891 182)" stroke="#e4b940" stroke-linecap="round" stroke-linejoin="round" stroke-width="1" fill="url(#e)"/></g><text transform="translate(1054 4885)" fill="#fff" font-size="30" font-family="SegoeUI, Segoe UI"><tspan x="-8.086" y="0">2</tspan></text></g><g transform="translate(-10 173)"><g transform="matrix(1, 0, 0, 1, 140, 4611)" filter="url(#l)"><circle cx="23.5" cy="23.5" r="23.5" transform="translate(891 241)" stroke="#e4b940" stroke-linecap="round" stroke-linejoin="round" stroke-width="1" fill="url(#e)"/></g><text transform="translate(1054 4886)" fill="#fff" font-size="30" font-family="SegoeUI, Segoe UI"><tspan x="-8.086" y="0">3</tspan></text></g><line x1="19" transform="translate(1068.5 4903.5)" stroke-dasharray="5" stroke="#e4b940" stroke-linecap="round" stroke-width="2" fill="none"/><line x1="19" transform="translate(1068.5 4989.5)" stroke-dasharray="5" stroke="#e4b940" stroke-linecap="round" stroke-width="2" fill="none"/><line x1="19" transform="translate(1068.5 5048.5)" stroke-dasharray="5" stroke="#e4b940" stroke-linecap="round" stroke-width="2" fill="none"/><g transform="translate(918 4784)" fill="none" stroke="#e4b940" stroke-linecap="round" stroke-linejoin="round" stroke-width="2" stroke-dasharray="5"><circle cx="160" cy="160" r="160" stroke="none"/><circle cx="160" cy="160" r="159" fill="none"/></g></g></g></svg>